<svg width="128" height="128" viewBox="0 0 128 128" fill="none" xmlns="http://www.w3.org/2000/svg">
<g clip-path="url(#clip0_908_13441)">
<rect y="128" width="8" height="8" transform="rotate(-90 0 128)" fill="#D9D9D9"/>
<rect x="24" y="72" width="8" height="8" transform="rotate(-90 24 72)" fill="#BED853"/>
<rect x="24" y="64" width="8" height="8" transform="rotate(-90 24 64)" fill="#BDD071"/>
<rect x="24" y="72" width="8" height="8" transform="rotate(-90 24 72)" fill="#BDD071"/>
<rect x="8" y="104" width="80" height="8" transform="rotate(-90 8 104)" fill="#B8F5AD"/>
<rect x="8" y="120" width="8" height="8" transform="rotate(-90 8 120)" fill="black"/>
<rect x="112" y="120" width="8" height="8" transform="rotate(-90 112 120)" fill="black"/>
<rect x="8" y="16" width="8" height="8" transform="rotate(-90 8 16)" fill="black"/>
<rect x="113" y="16" width="8" height="8" transform="rotate(-90 113 16)" fill="black"/>
<rect x="8" y="128" width="8" height="112" transform="rotate(-90 8 128)" fill="black"/>
<rect x="8" y="8" width="8" height="112" transform="rotate(-90 8 8)" fill="black"/>
<rect y="120" width="112" height="8" transform="rotate(-90 0 120)" fill="black"/>
<rect x="120" y="120" width="112" height="8" transform="rotate(-90 120 120)" fill="black"/>
<rect x="32" y="80" width="8" height="8" transform="rotate(-90 32 80)" fill="#BED853"/>
<rect x="32" y="80" width="8" height="8" transform="rotate(-90 32 80)" fill="#BDD071"/>
<rect x="32" y="72" width="8" height="8" transform="rotate(-90 32 72)" fill="#5A994F"/>
<rect x="48" y="88" width="48" height="8" transform="rotate(-90 48 88)" fill="#5A994F"/>
<rect x="56" y="96" width="64" height="8" transform="rotate(-90 56 96)" fill="#5A994F"/>
<rect x="64" y="96" width="64" height="8" transform="rotate(-90 64 96)" fill="#5A994F"/>
<rect x="32" y="64" width="8" height="8" transform="rotate(-90 32 64)" fill="#5A994F"/>
<rect x="40" y="80" width="32" height="8" transform="rotate(-90 40 80)" fill="#5A994F"/>
<rect x="72" y="80" width="32" height="40" transform="rotate(-90 72 80)" fill="#5A994F"/>
<rect x="40" y="88" width="8" height="8" transform="rotate(-90 40 88)" fill="#BDD071"/>
<rect x="48" y="96" width="8" height="8" transform="rotate(-90 48 96)" fill="#BDD071"/>
<rect x="64" y="96" width="8" height="8" transform="rotate(-90 64 96)" fill="#BDD071"/>
<rect x="64" y="88" width="8" height="8" transform="rotate(-90 64 88)" fill="#BDD071"/>
<rect x="64" y="80" width="8" height="48" transform="rotate(-90 64 80)" fill="#BDD071"/>
<rect x="56" y="104" width="8" height="16" transform="rotate(-90 56 104)" fill="#BDD071"/>
<rect x="56" y="32" width="8" height="16" transform="rotate(-90 56 32)" fill="#BDD071"/>
<rect x="48" y="40" width="8" height="8" transform="rotate(-90 48 40)" fill="#BDD071"/>
<rect x="64" y="56" width="24" height="8" transform="rotate(-90 64 56)" fill="#BDD071"/>
<rect x="40" y="48" width="8" height="8" transform="rotate(-90 40 48)" fill="#BDD071"/>
<rect x="104" y="72" width="16" height="8" transform="rotate(-90 104 72)" fill="#BDD071"/>
<rect x="72" y="56" width="8" height="40" transform="rotate(-90 72 56)" fill="#BDD071"/>
<rect x="32" y="56" width="8" height="8" transform="rotate(-90 32 56)" fill="#BDD071"/>
</g>
<defs>
<clipPath id="clip0_908_13441">
<rect width="128" height="128" fill="white" transform="matrix(0 -1 1 0 0 128)"/>
</clipPath>
</defs>
</svg>
