<svg width="128" height="128" viewBox="0 0 128 128" fill="none" xmlns="http://www.w3.org/2000/svg">
<g clip-path="url(#clip0_908_13513)">
<rect x="128" width="8" height="8" transform="rotate(90 128 0)" fill="#D9D9D9"/>
<rect x="104" y="56" width="8" height="8" transform="rotate(90 104 56)" fill="#BED853"/>
<rect x="104" y="64" width="8" height="8" transform="rotate(90 104 64)" fill="#BDD071"/>
<rect x="104" y="56" width="8" height="8" transform="rotate(90 104 56)" fill="#BDD071"/>
<rect x="120" y="24" width="80" height="8" transform="rotate(90 120 24)" fill="#B8F5AD"/>
<rect x="120" y="8" width="8" height="8" transform="rotate(90 120 8)" fill="black"/>
<rect x="16" y="8" width="8" height="8" transform="rotate(90 16 8)" fill="black"/>
<rect x="120" y="112" width="8" height="8" transform="rotate(90 120 112)" fill="black"/>
<rect x="15" y="112" width="8" height="8" transform="rotate(90 15 112)" fill="black"/>
<rect x="120" width="8" height="112" transform="rotate(90 120 0)" fill="black"/>
<rect x="120" y="120" width="8" height="112" transform="rotate(90 120 120)" fill="black"/>
<rect x="128" y="8" width="112" height="8" transform="rotate(90 128 8)" fill="black"/>
<rect x="8" y="8" width="112" height="8" transform="rotate(90 8 8)" fill="black"/>
<rect x="96" y="48" width="8" height="8" transform="rotate(90 96 48)" fill="#BED853"/>
<rect x="96" y="48" width="8" height="8" transform="rotate(90 96 48)" fill="#BDD071"/>
<rect x="96" y="56" width="8" height="8" transform="rotate(90 96 56)" fill="#5A994F"/>
<rect x="80" y="40" width="48" height="8" transform="rotate(90 80 40)" fill="#5A994F"/>
<rect x="72" y="32" width="64" height="8" transform="rotate(90 72 32)" fill="#5A994F"/>
<rect x="64" y="32" width="64" height="8" transform="rotate(90 64 32)" fill="#5A994F"/>
<rect x="96" y="64" width="8" height="8" transform="rotate(90 96 64)" fill="#5A994F"/>
<rect x="88" y="48" width="32" height="8" transform="rotate(90 88 48)" fill="#5A994F"/>
<rect x="56" y="48" width="32" height="40" transform="rotate(90 56 48)" fill="#5A994F"/>
<rect x="88" y="40" width="8" height="8" transform="rotate(90 88 40)" fill="#BDD071"/>
<rect x="80" y="32" width="8" height="8" transform="rotate(90 80 32)" fill="#BDD071"/>
<rect x="64" y="32" width="8" height="8" transform="rotate(90 64 32)" fill="#BDD071"/>
<rect x="64" y="40" width="8" height="8" transform="rotate(90 64 40)" fill="#BDD071"/>
<rect x="64" y="48" width="8" height="48" transform="rotate(90 64 48)" fill="#BDD071"/>
<rect x="72" y="24" width="8" height="16" transform="rotate(90 72 24)" fill="#BDD071"/>
<rect x="72" y="96" width="8" height="16" transform="rotate(90 72 96)" fill="#BDD071"/>
<rect x="80" y="88" width="8" height="8" transform="rotate(90 80 88)" fill="#BDD071"/>
<rect x="64" y="72" width="24" height="8" transform="rotate(90 64 72)" fill="#BDD071"/>
<rect x="88" y="80" width="8" height="8" transform="rotate(90 88 80)" fill="#BDD071"/>
<rect x="24" y="56" width="16" height="8" transform="rotate(90 24 56)" fill="#BDD071"/>
<rect x="56" y="72" width="8" height="40" transform="rotate(90 56 72)" fill="#BDD071"/>
<rect x="96" y="72" width="8" height="8" transform="rotate(90 96 72)" fill="#BDD071"/>
</g>
<defs>
<clipPath id="clip0_908_13513">
<rect width="128" height="128" fill="white" transform="matrix(0 1 -1 0 128 0)"/>
</clipPath>
</defs>
</svg>
