<svg width="128" height="128" viewBox="0 0 128 128" fill="none" xmlns="http://www.w3.org/2000/svg">
<path d="M16 8H112V16H120.5V112H112V120H16V112H8V16H16V8Z" fill="white"/>
<path d="M8 0H120V8H16V16H8V112H16V120H112V112H120V16H112V8H120H128V120H121V128H16H8V120H0V16V8H8V0Z" fill="black"/>
<rect x="112" y="16" width="8" height="96" fill="#DCD2D2"/>
<rect x="24" y="59.8" width="6.4" height="6.4" fill="black"/>
<rect x="30.4" y="53.4" width="6.4" height="6.4" fill="black"/>
<rect x="36.8" y="48.0667" width="6.4" height="6.4" fill="black"/>
<rect x="30.4" y="66.2" width="6.4" height="6.4" fill="black"/>
<rect x="36.8" y="72.6" width="6.4" height="6.4" fill="black"/>
<rect x="43.2" y="79" width="6.4" height="6.4" fill="black"/>
<rect x="49.6" y="85.4" width="6.4" height="6.4" fill="black"/>
<rect x="56" y="89.6667" width="6.4" height="6.4" fill="black"/>
<rect x="43.2" y="41.6667" width="6.4" height="6.4" fill="black"/>
<rect x="49.6" y="35.2667" width="6.4" height="6.4" fill="black"/>
<rect x="27.2" y="59.8" width="6.4" height="6.4" fill="black"/>
<rect x="49.6" y="35.2667" width="6.4" height="6.4" fill="black"/>
<rect x="36.8" y="50.2" width="6.4" height="6.4" fill="black"/>
<rect x="43.2" y="75.8" width="6.4" height="6.4" fill="black"/>
<rect x="36.8" y="69.4" width="6.4" height="6.4" fill="black"/>
<rect x="43.2" y="44.8667" width="6.4" height="6.4" fill="black"/>
<rect x="49.6" y="37.4" width="6.4" height="6.4" fill="black"/>
<rect x="62.4" y="48.0667" width="6.4" height="6.4" fill="black"/>
<rect x="68.8" y="51.2667" width="6.4" height="6.4" fill="black"/>
<rect x="62.4" y="72.6" width="6.4" height="6.4" fill="black"/>
<rect x="68.8" y="73.6667" width="6.4" height="6.4" fill="black"/>
<rect x="75.2" y="75.8" width="6.4" height="6.4" fill="black"/>
<rect x="81.6" y="77.9333" width="6.4" height="6.4" fill="black"/>
<rect x="75.2" y="53.4" width="6.4" height="6.4" fill="black"/>
<rect x="85.8667" y="61.9333" width="6.4" height="6.4" fill="black"/>
<rect x="91.2" y="66.2" width="6.4" height="6.4" fill="black"/>
<rect x="97.6" y="83.2667" width="6.4" height="6.4" fill="black"/>
<rect x="94.4" y="70.4667" width="6.4" height="6.4" fill="black"/>
<rect x="97.6" y="88.6" width="6.4" height="6.4" fill="black"/>
<rect x="96.5333" y="76.8667" width="6.4" height="6.4" fill="black"/>
<rect x="88" y="81.1333" width="6.4" height="6.4" fill="black"/>
<rect x="91.2" y="84.3333" width="6.4" height="6.4" fill="black"/>
<rect x="81.6" y="56.6" width="6.4" height="6.4" fill="black"/>
<rect x="56" y="31" width="6.4" height="6.4" fill="black"/>
<rect x="56" y="37.4" width="6.4" height="17.0667" fill="black"/>
<rect x="56" y="72.6" width="6.4" height="17.0667" fill="black"/>
<rect x="49.6" y="38.4667" width="6.4" height="6.4" fill="black"/>
<rect x="49.6" y="82.2" width="6.4" height="6.4" fill="black"/>
</svg>
