<svg width="128" height="128" viewBox="0 0 128 128" fill="none" xmlns="http://www.w3.org/2000/svg">
<path d="M16 8H112V16H120.5V112H112V120H16V112H8V16H16V8Z" fill="white"/>
<path d="M8 0H120V8H16V16H8V112H16V120H112V112H120V16H112V8H120H128V120H120V128H16H8V120H0V16V8H8V0Z" fill="black"/>
<rect x="112" y="16" width="8" height="96" fill="#DCD2D2"/>
<path d="M48 24H80V32H88V40H96V72H104V88H80V104H48V88H24V72H32V40H40V32H48V24Z" fill="#FFE827"/>
<rect x="48" y="88" width="24" height="16" fill="#FFC107"/>
<rect x="72" y="88" width="8" height="16" fill="#FF9800"/>
<path d="M40 40H48V32H80V40H88V48H80V40H64V56H72V72H80V88H64H40V40Z" fill="#FFEB3B"/>
<path d="M72 40H80V48H88V72H80V48H72V40Z" fill="white"/>
</svg>
