<svg width="350" height="600" viewBox="0 0 350 600" fill="none" xmlns="http://www.w3.org/2000/svg">
<path d="M17 5.00024H328V11.0002H333.5V13.5002V17.0002L339.5 17.0001V23.0001H342V570.5H336.5V576.5H330.5V582.5H324.5V588.158H16.5V582.5H11V576.5H5V16H11V10.5H17V5.00024Z" fill="white"/>
<rect y="17.7634" width="5.80111" height="552.632" fill="#1E3445"/>
<rect x="23.2043" y="5.92126" width="5.92105" height="303.591" transform="rotate(-90 23.2043 5.92126)" fill="#1E3445"/>
<path d="M6.28453 17.7634H0L0 11.8424H5.8011L5.8011 5.92132H11.6022L11.6022 0.000268936H23.2044V2.9608V5.92132H17.8867V11.8424H12.0856V17.7634H6.28453Z" fill="#1E3445"/>
<path d="M6.28453 17.7634H0L0 11.8424H5.8011L5.8011 5.92132H11.6022L11.6022 0.000268936H23.2044V2.9608V5.92132H17.8867V11.8424H12.0856V17.7634H6.28453Z" fill="#1E3445"/>
<path d="M17.4033 587.665V594.079H11.6022V588.158H5.80111L5.80111 582.237H5.60284e-06L5.60284e-06 570.395H2.90056H5.80111L5.80111 575.823H11.6022V581.744H17.4033V587.665Z" fill="#1E3445"/>
<path d="M17.4033 587.665V594.079H11.6022V588.158H5.80111L5.80111 582.237H5.60284e-06L5.60284e-06 570.395H2.90056H5.80111L5.80111 575.823H11.6022V581.744H17.4033V587.665Z" fill="#1E3445"/>
<path d="M350 564.474V579.277H344.199V585.198H337.431V591.119H320.994V582.237H326.796V576.316H332.597V570.395H338.398V564.474H350Z" fill="#1E3445"/>
<path d="M350 564.474V579.277H344.199V585.198H337.431V591.119H320.994V582.237H326.796V576.316H332.597V570.395H338.398V564.474H350Z" fill="#1E3445"/>
<path d="M323.895 0.000244141L338.398 0.000244141V5.9213L344.199 5.9213V12.8292L350 12.8292V29.6055L341.298 29.6055V23.6845H335.497V17.7634L329.696 17.7634V11.8423L323.895 11.8423V0.000244141Z" fill="#1E3445"/>
<path d="M323.895 0.000244141L338.398 0.000244141V5.9213L344.199 5.9213V12.8292L350 12.8292V29.6055L341.298 29.6055V23.6845H335.497V17.7634L329.696 17.7634V11.8423L323.895 11.8423V0.000244141Z" fill="#1E3445"/>
<rect x="338.398" y="11.8423" width="11.6022" height="552.632" fill="#1E3445"/>
<rect x="17.4033" y="600" width="11.8421" height="314.227" transform="rotate(-90 17.4033 600)" fill="#1E3445"/>
</svg>
