<svg width="362" height="608" viewBox="0 0 362 608" fill="none" xmlns="http://www.w3.org/2000/svg">
<rect x="6" y="6" width="344" height="590" fill="white"/>
<rect y="18" width="6" height="560" fill="#1E3445"/>
<rect x="24" y="6" width="6" height="314" transform="rotate(-90 24 6)" fill="#1E3445"/>
<path d="M6.5 18H0L0 12H6L6 6H12L12 0H24V3V6H18.5V12H12.5V18H6.5Z" fill="#1E3445"/>
<path d="M6.5 18H0L0 12H6L6 6H12L12 0H24V3V6H18.5V12H12.5V18H6.5Z" fill="#1E3445"/>
<path d="M18 595.5V602H12V596H6L6 590H0L0 578H3H6L6 583.5H12L12 589.5H18V595.5Z" fill="#1E3445"/>
<path d="M18 595.5V602H12V596H6L6 590H0L0 578H3H6L6 583.5H12L12 589.5H18V595.5Z" fill="#1E3445"/>
<path d="M362 572V587H356V593H349V599H332V590H338V584H344V578H350V572H362Z" fill="#1E3445"/>
<path d="M362 572V587H356V593H349V599H332V590H338V584H344V578H350V572H362Z" fill="#1E3445"/>
<path d="M335 0L350 0V6L356 6V13L362 13V30L353 30V24H347V18L341 18V12L335 12V0Z" fill="#1E3445"/>
<path d="M335 0L350 0V6L356 6V13L362 13V30L353 30V24H347V18L341 18V12L335 12V0Z" fill="#1E3445"/>
<rect x="350" y="12" width="12" height="560" fill="#1E3445"/>
<rect x="18" y="608" width="12" height="325" transform="rotate(-90 18 608)" fill="#1E3445"/>
</svg>
