<svg width="80" height="104" viewBox="0 0 80 104" fill="none" xmlns="http://www.w3.org/2000/svg">
<rect x="17" width="4" height="4" fill="#302922"/>
<rect x="21" width="4" height="4" fill="#302922"/>
<rect x="21" width="4" height="4" fill="#302922"/>
<rect x="25" y="4" width="4" height="4" fill="#302922"/>
<rect x="30" y="8" width="4" height="4" fill="#302922"/>
<rect x="52" y="53" width="12" height="5" fill="#302922"/>
<rect x="57" y="86" width="12" height="4" fill="#302922"/>
<rect x="16" y="90" width="7" height="4" fill="#302922"/>
<rect x="17" y="87" width="3" height="3" fill="#302922"/>
<rect x="36" y="89" width="12" height="4" fill="#302922"/>
<rect x="46" y="100" width="11" height="4" fill="#302922"/>
<rect x="27" y="100" width="11" height="4" fill="#302922"/>
<rect x="15" y="45" width="6" height="6" fill="#302922"/>
<rect x="51" y="34" width="5" height="12" fill="#302922"/>
<rect x="13" y="19" width="4" height="4" fill="#302922"/>
<rect x="2" y="35" width="8" height="4" fill="#302922"/>
<rect x="72" y="35" width="8" height="4" fill="#302922"/>
<rect x="34" y="12" width="4" height="4" fill="#302922"/>
<rect x="34" y="16" width="4" height="4" fill="#302922"/>
<rect x="34" y="20" width="4" height="4" fill="#302922"/>
<rect x="34" y="20" width="4" height="4" fill="#302922"/>
<rect x="38" y="12" width="4" height="4" fill="#302922"/>
<rect x="42" y="12" width="4" height="4" fill="#302922"/>
<rect x="50" y="8" width="4" height="4" fill="#302922"/>
<rect x="54" y="4" width="4" height="4" fill="#302922"/>
<rect x="54" y="4" width="4" height="4" fill="#302922"/>
<rect x="68" y="28" width="4" height="17" fill="#302922"/>
<rect x="68" y="69" width="4" height="17" fill="#302922"/>
<rect x="46" y="76" width="4" height="25" fill="#302922"/>
<rect x="34" y="76" width="4" height="25" fill="#302922"/>
<rect x="12" y="70" width="4" height="17" fill="#302922"/>
<rect x="22" y="52" width="4" height="48" fill="#302922"/>
<rect x="64" y="45" width="4" height="24" fill="#302922"/>
<rect x="57" y="58" width="4" height="42" fill="#302922"/>
<rect x="10" y="27" width="4" height="18" fill="#302922"/>
<rect x="68" y="24" width="12" height="4" fill="#302922"/>
<rect x="2" y="23" width="12" height="4" fill="#302922"/>
<rect x="2" y="23" width="12" height="4" fill="#302922"/>
<rect x="64" y="4" width="4" height="20" fill="#302922"/>
<rect x="58" width="8" height="4" fill="#302922"/>
<rect x="46" y="12" width="4" height="12" fill="#302922"/>
<rect x="17" y="4" width="4" height="19" fill="#302922"/>
<rect x="26" y="49" width="30" height="4" fill="#D9D0B3"/>
<rect x="33" y="45" width="16" height="4" fill="#D9D0B3"/>
<rect x="33" y="41" width="16" height="4" fill="#D9D0B3"/>
<rect x="39" y="46" width="16" height="4" transform="rotate(-90 39 46)" fill="#D9D0B3"/>
<rect x="58" y="24" width="13" height="6" transform="rotate(-90 58 24)" fill="#D9D0B3"/>
<rect x="21" y="23" width="12" height="4" transform="rotate(-90 21 23)" fill="#807468"/>
<path d="M25 34.0001L25 11.0001L32 12.0001H54V8.00012H58V3.50012H62V24.0001H66V45.0001H62V53.0001H56V49.0001H49V41.0001H43V30.0001H37V41.0001H31L25 34.0001Z" fill="#80736A"/>
<path d="M21 11V4H23V8H28V12L21 11Z" fill="#7E7266"/>
<rect x="38" y="76" width="10" height="6" transform="rotate(-90 38 76)" fill="#D9D0B3"/>
<rect x="15" width="4" height="4" fill="#302922"/>
<rect x="19" width="4" height="4" fill="#302922"/>
<rect x="19" width="4" height="4" fill="#302922"/>
<rect x="23" y="4" width="4" height="4" fill="#302922"/>
<rect x="28" y="8" width="4" height="4" fill="#302922"/>
<rect x="50" y="52" width="12" height="6" fill="#302922"/>
<rect x="26" y="52" width="9" height="6" fill="#302922"/>
<rect x="55" y="86" width="12" height="4" fill="#302922"/>
<rect x="14" y="90" width="7" height="4" fill="#302922"/>
<rect x="14" y="87" width="3" height="3" fill="#302922"/>
<rect x="34" y="89" width="12" height="4" fill="#302922"/>
<rect x="44" y="100" width="11" height="4" fill="#302922"/>
<rect x="25" y="100" width="11" height="4" fill="#302922"/>
<rect x="13" y="45" width="6" height="6" fill="#302922"/>
<rect x="26" y="34" width="5" height="12" fill="#302922"/>
<rect x="49" y="34" width="5" height="12" fill="#302922"/>
<rect x="11" y="19" width="4" height="4" fill="#302922"/>
<rect y="35" width="8" height="4" fill="#302922"/>
<rect x="70" y="35" width="8" height="4" fill="#302922"/>
<rect x="32" y="12" width="4" height="4" fill="#302922"/>
<rect x="32" y="16" width="4" height="4" fill="#302922"/>
<rect x="32" y="20" width="4" height="4" fill="#302922"/>
<rect x="32" y="20" width="4" height="4" fill="#302922"/>
<rect x="36" y="12" width="4" height="4" fill="#302922"/>
<rect x="40" y="12" width="4" height="4" fill="#302922"/>
<rect x="48" y="8" width="4" height="4" fill="#302922"/>
<rect x="52" y="4" width="4" height="4" fill="#302922"/>
<rect x="52" y="4" width="4" height="4" fill="#302922"/>
<rect x="66" y="28" width="4" height="17" fill="#302922"/>
<rect x="66" y="69" width="4" height="17" fill="#302922"/>
<rect x="44" y="76" width="4" height="25" fill="#302922"/>
<rect x="32" y="76" width="4" height="25" fill="#302922"/>
<rect x="10" y="70" width="4" height="17" fill="#302922"/>
<rect x="16" y="59" width="4" height="9" fill="#302922"/>
<rect x="20" y="52" width="4" height="48" fill="#302922"/>
<rect x="60" y="45" width="6" height="24" fill="#302922"/>
<rect x="56" y="58" width="3" height="42" fill="#302922"/>
<rect x="8" y="27" width="4" height="18" fill="#302922"/>
<rect x="66" y="24" width="12" height="4" fill="#302922"/>
<rect y="23" width="12" height="4" fill="#302922"/>
<rect y="23" width="12" height="4" fill="#302922"/>
<rect x="62" y="4" width="4" height="20" fill="#302922"/>
<rect x="56" width="8" height="4" fill="#302922"/>
<rect x="44" y="12" width="4" height="12" fill="#302922"/>
<rect x="15" y="4" width="4" height="19" fill="#302922"/>
<rect x="32" y="65" width="18" height="5" fill="#D9D0B3"/>
<rect x="24" y="49" width="30" height="3" fill="#D9D0B3"/>
<rect x="31" y="45" width="16" height="4" fill="#D9D0B3"/>
<rect x="31" y="41" width="16" height="4" fill="#D9D0B3"/>
<rect x="37" y="46" width="16" height="4" transform="rotate(-90 37 46)" fill="#D9D0B3"/>
<rect x="56" y="24" width="13" height="6" transform="rotate(-90 56 24)" fill="#D9D0B3"/>
<rect x="19" y="23" width="12" height="4" transform="rotate(-90 19 23)" fill="#807468"/>
<rect x="19" y="24" width="13" height="6" transform="rotate(-90 19 24)" fill="#D9D0B3"/>
<rect x="26" y="58" width="6" height="36" fill="#7E7266"/>
<path d="M14 23H26V34.2874V46H31V49H24V52H21V45H14V23Z" fill="#7E7266"/>
<rect x="16" y="68" width="4" height="19" fill="#7F6D6B"/>
<rect x="61" y="69" width="5" height="17" fill="#7F6D6B"/>
<rect x="50" y="58" width="6" height="36" fill="#7E7266"/>
<rect x="50" y="94" width="6" height="6" fill="#D9D0B3"/>
<rect x="44" y="70" width="6" height="6" fill="#7E7266"/>
<rect x="38" y="76" width="6" height="13" fill="#7E7266"/>
<rect x="32" y="70" width="6" height="6" fill="#7E7266"/>
<rect x="26" y="94" width="6" height="6" fill="#D9D0B3"/>
<rect x="26" y="58" width="30" height="7" fill="#605448"/>
<rect x="30" y="52" width="20" height="6" fill="#605448"/>
<rect x="37" y="46" width="6" height="6" fill="#B77A80"/>
</svg>
