<svg width="128" height="128" viewBox="0 0 128 128" fill="none" xmlns="http://www.w3.org/2000/svg">
<path d="M16 8H112V16H120.5V112H112V120H16V112H8V16H16V8Z" fill="white"/>
<path d="M8 0H120V8H16V16H8V112H16V120H112V112H120V16H112V8H120H128V120H121V128H16H8V120H0V16V8H8V0Z" fill="black"/>
<rect x="112" y="16" width="8" height="96" fill="#DCD2D2"/>
<path d="M24 24H45.8182V32.1818H53.0909V39.4545H60.3636V46.7273H68.5455V39.4545H75.8182V32.1818H83.0909V24.9091H104V45.8182H96.7273V53.0909H89.4545V60.3636H82.1818V68.5455H89.4545V75.8182H96.7273V83.0909H104.455V104H83.0909V96.7273H75.8182V89.4545H68.5455V82.1818H60.3636V89.4545H53.0909V96.7273H45.8182V104H24.9091V83.0909H32.1818V75.8182H39.4545V68.5455H46.7273V60.3636H39.4545V53.0909H32.1818V45.8182H24V24Z" fill="black"/>
</svg>
