<svg width="100" height="68" viewBox="0 0 100 68" fill="none" xmlns="http://www.w3.org/2000/svg">
<path d="M1.27389 7.00637H24.2038V15.2866H29.9363V21.6561H33.758V22.9299H35.6688V7.00637H40.1274V0H59.2357V7.00637H64.3312V22.9299H66.242V21.6561H70.0637V15.2866H75.1592V7.00637H98.0892V16.5605H93.6306V24.2038H100V38.2166H94.2675V60.5096H87.8981V64.9682H82.8025V67.5159H16.5605V64.9682H11.465V60.5096H5.73248V38.2166H0V24.2038H5.73248V16.5605H1.27389V7.00637Z" fill="#FDC31A"/>
<rect x="87.8981" y="56.0508" width="6.36943" height="4.4586" fill="#1C122B"/>
<rect x="88.535" y="33.7578" width="5.73248" height="22.293" fill="#1C122B"/>
<rect x="93.6306" y="24.2036" width="6.36943" height="14.0127" fill="#1C122B"/>
<rect x="88.535" y="20.3823" width="5.09554" height="3.82166" fill="#1C122B"/>
<rect x="88.535" y="12.1021" width="9.55414" height="4.4586" fill="#1C122B"/>
<rect x="75.1592" y="7.00635" width="22.9299" height="5.09554" fill="#1C122B"/>
<rect x="70.0637" y="15.2866" width="5.09554" height="5.09554" fill="#1C122B"/>
<rect x="54.1401" y="15.2866" width="5.09554" height="4.4586" fill="#1C122B"/>
<rect x="40.7643" y="15.2866" width="5.09554" height="4.4586" fill="#1C122B"/>
<rect x="24.2039" y="24.8408" width="5.09554" height="4.4586" fill="#1C122B"/>
<rect x="24.2039" y="29.2993" width="11.465" height="4.4586" fill="#1C122B"/>
<rect x="19.1083" y="20.3823" width="5.09554" height="8.9172" fill="#1C122B"/>
<rect x="54.1401" width="5.09554" height="10.1911" fill="#1C122B"/>
<rect x="45.8599" width="8.28025" height="5.09554" fill="#1C122B"/>
<rect x="40.1274" width="5.73248" height="10.1911" fill="#1C122B"/>
<rect x="35.6688" y="7.00635" width="5.09554" height="22.293" fill="#1C122B"/>
<rect x="45.8599" y="19.7451" width="8.28025" height="5.09554" fill="#1C122B"/>
<rect x="64.9681" y="29.2993" width="5.09554" height="4.4586" fill="#1C122B"/>
<rect x="59.2357" y="7.00635" width="5.09554" height="22.293" fill="#1C122B"/>
<rect x="75.1592" y="20.3823" width="5.73248" height="8.9172" fill="#1C122B"/>
<rect x="70.0637" y="24.8408" width="5.09554" height="8.9172" fill="#1C122B"/>
<rect x="75.1592" y="12.1021" width="5.73248" height="3.82166" fill="#1C122B"/>
<rect x="80.8917" y="20.3823" width="7.64331" height="3.82166" fill="#EB7D1E"/>
<rect x="11.465" y="19.7451" width="7.64331" height="4.4586" fill="#EB7D1E"/>
<rect x="19.1083" y="38.2168" width="5.09554" height="13.3758" fill="#EB7D1E"/>
<rect x="24.2039" y="47.1338" width="14.0127" height="4.4586" fill="#EB7D1E"/>
<rect x="61.7834" y="47.1338" width="26.7516" height="4.4586" fill="#EB7D1E"/>
<rect x="16.5605" y="56.688" width="8.9172" height="5.73248" fill="#EB7D1E"/>
<rect x="25.4777" y="59.2358" width="3.82166" height="3.18471" fill="#EB7D1E"/>
<rect x="70.7007" y="59.2358" width="4.4586" height="3.18471" fill="#EB7D1E"/>
<rect x="75.1592" y="56.688" width="7.64331" height="5.73248" fill="#EB7D1E"/>
<rect x="80.8917" y="33.7578" width="7.64331" height="4.4586" fill="#EB7D1E"/>
<rect x="85.3503" y="29.2993" width="8.28025" height="4.4586" fill="#EB7D1E"/>
<rect x="75.1592" y="38.2168" width="13.3758" height="8.9172" fill="#EB7D1E"/>
<rect x="10.828" y="33.7578" width="8.28025" height="17.8344" fill="#EB7D1E"/>
<rect x="5.73254" y="29.2993" width="8.28025" height="4.4586" fill="#EB7D1E"/>
<rect x="45.8599" y="10.1909" width="3.82166" height="5.09554" fill="#F5F7F3"/>
<rect x="45.8599" y="5.0957" width="8.28025" height="5.09554" fill="#F5F7F3"/>
<rect x="40.1274" y="56.688" width="19.1083" height="5.73248" fill="#F5F7F3"/>
<rect x="19.1083" y="29.2993" width="5.09554" height="4.4586" fill="#F5F7F3"/>
<rect x="24.2039" y="33.7578" width="5.73248" height="4.4586" fill="#F5F7F3"/>
<rect x="70.0637" y="33.7578" width="5.09554" height="4.4586" fill="#F5F7F3"/>
<rect x="75.1592" y="29.2993" width="5.73248" height="4.4586" fill="#F5F7F3"/>
<rect x="11.465" y="12.1021" width="7.64331" height="3.82166" fill="#F5F7F3"/>
<rect x="82.8025" y="56.0508" width="5.09554" height="8.9172" fill="#1C122B"/>
<rect x="10.828" y="56.688" width="5.73248" height="3.82166" fill="#1C122B"/>
<rect x="11.465" y="60.5098" width="5.09554" height="4.4586" fill="#1C122B"/>
<rect x="16.5605" y="62.4204" width="66.242" height="5.09554" fill="#1C122B"/>
<rect x="5.73254" y="33.7578" width="5.09554" height="26.7516" fill="#1C122B"/>
<rect y="24.2036" width="5.73248" height="14.0127" fill="#1C122B"/>
<rect x="5.73254" y="19.7451" width="5.73248" height="4.4586" fill="#1C122B"/>
<rect x="19.1083" y="12.1021" width="5.09554" height="3.82166" fill="#1C122B"/>
<rect x="1.27393" y="12.1021" width="10.1911" height="4.4586" fill="#1C122B"/>
<rect x="1.27393" y="7.00635" width="22.9299" height="5.09554" fill="#1C122B"/>
<rect x="24.2039" y="20.3823" width="5.73248" height="4.4586" fill="#481C33"/>
<rect x="29.2993" y="21.6562" width="4.4586" height="7.64331" fill="#481C33"/>
<rect x="33.7579" y="22.9302" width="1.91083" height="6.36943" fill="#481C33"/>
<rect x="11.465" y="24.2036" width="2.54777" height="5.09554" fill="#481C33"/>
<rect x="85.3503" y="24.2036" width="3.18471" height="5.09554" fill="#481C33"/>
<rect x="40.7643" y="10.1909" width="5.09554" height="5.09554" fill="#EEAB35"/>
<rect x="75.1592" y="15.2866" width="5.73248" height="5.09554" fill="#EEAB35"/>
<rect x="54.1401" y="19.7451" width="5.09554" height="9.55414" fill="#EEAB35"/>
<rect x="45.8599" y="15.2866" width="8.28025" height="4.4586" fill="#EEAB35"/>
<rect x="54.1401" y="10.1909" width="5.09554" height="5.09554" fill="#EEAB35"/>
<rect x="35.6688" y="33.7578" width="5.09554" height="5.09554" fill="#EEAB35"/>
<rect x="29.9363" y="33.7578" width="5.73248" height="8.9172" fill="#B8554F"/>
<rect x="10.828" y="51.5923" width="77.707" height="5.09554" fill="#B8554F"/>
<rect x="35.6688" y="29.2993" width="5.09554" height="4.4586" fill="#B8554F"/>
<rect x="64.9681" y="33.7578" width="5.09554" height="9.55414" fill="#B8554F"/>
<rect x="59.2357" y="29.2993" width="5.73248" height="8.9172" fill="#B8554F"/>
<rect x="5.73254" y="16.5605" width="5.73248" height="3.18471" fill="#B8554F"/>
<rect x="5.73254" y="24.2036" width="5.73248" height="5.09554" fill="#B8554F"/>
<rect x="19.1083" y="15.9233" width="5.09554" height="4.4586" fill="#B8554F"/>
<rect x="88.535" y="24.2036" width="5.09554" height="5.09554" fill="#B8554F"/>
<rect x="88.535" y="16.5605" width="5.09554" height="3.82166" fill="#B8554F"/>
</svg>
