<svg width="128" height="128" viewBox="0 0 128 128" fill="none" xmlns="http://www.w3.org/2000/svg">
<path d="M112 120L16 120L16 112L7.5 112L7.49999 16L16 16L16 8.00001L112 8L112 16L120 16L120 112L112 112L112 120Z" fill="white"/>
<path d="M120 128L8 128L8 120L112 120L112 112L120 112L120 16L112 16L112 8L16 8.00001L16 16L7.99999 16L8 112L16 112L16 120L8 120L-6.99382e-07 120L-1.04907e-05 8.00001L6.99999 8.00001L6.99999 1.05782e-05L112 1.39876e-06L120 6.99382e-07L120 8L128 8L128 112L128 120L120 120L120 128Z" fill="black"/>
<rect x="16" y="112" width="8" height="96" transform="rotate(180 16 112)" fill="#DCD2D2"/>
<path d="M102 66.6923L97.9615 66.6923L97.9615 70.7308L93.9231 70.7308L93.9231 74.7692L89.8846 74.7692L89.8846 78.8077L85.8462 78.8077L85.8462 82.8462L81.8077 82.8462L81.8077 86.8846L77.7692 86.8846L77.7692 90.9231L73.7308 90.9231L73.7308 94.9615L69.6923 94.9615L69.6923 99L57.5769 99L57.5769 94.9615L53.5385 94.9615L53.5385 90.9231L49.5 90.9231L49.5 86.8846L45.4615 86.8846L45.4615 82.8462L41.4231 82.8462L41.4231 78.8077L37.3846 78.8077L37.3846 74.7692L33.3461 74.7692L33.3461 70.7308L29.3077 70.7308L29.3077 66.6923L25.2692 66.6923L25.2692 62.6539L52.1923 62.6539L52.1923 31.6923L63.6346 31.6923L75.0769 31.6923L75.0769 62.6538L102 62.6538L102 66.6923Z" fill="#C73B0F"/>
<rect x="102" y="66.6923" width="30.9615" height="4.03846" transform="rotate(180 102 66.6923)" fill="#912B0B"/>
<rect x="102" y="66.6923" width="4.03846" height="4.03846" transform="rotate(180 102 66.6923)" fill="#912B0B"/>
<rect x="69.6921" y="99" width="4.03846" height="4.03846" transform="rotate(180 69.6921 99)" fill="#912B0B"/>
<rect x="93.9231" y="74.7692" width="4.03846" height="4.03846" transform="rotate(180 93.9231 74.7692)" fill="#912B0B"/>
<rect x="89.8848" y="78.8077" width="4.03846" height="4.03846" transform="rotate(180 89.8848 78.8077)" fill="#912B0B"/>
<rect x="85.8462" y="82.8462" width="4.03846" height="4.03846" transform="rotate(180 85.8462 82.8462)" fill="#912B0B"/>
<rect x="81.8079" y="86.8846" width="4.03846" height="4.03846" transform="rotate(180 81.8079 86.8846)" fill="#912B0B"/>
<rect x="77.769" y="90.923" width="4.03846" height="4.03846" transform="rotate(180 77.769 90.923)" fill="#912B0B"/>
<rect x="73.731" y="94.9615" width="4.03846" height="4.03846" transform="rotate(180 73.731 94.9615)" fill="#912B0B"/>
<rect x="97.9617" y="70.7308" width="4.03846" height="4.03846" transform="rotate(180 97.9617 70.7308)" fill="#912B0B"/>
<rect x="75.0769" y="64" width="8.07692" height="33.6538" transform="rotate(180 75.0769 64)" fill="#912B0B"/>
<rect x="75.0769" y="31.6923" width="22.8846" height="2.69231" transform="rotate(180 75.0769 31.6923)" fill="#912B0B"/>
</svg>
