<svg width="48" height="48" viewBox="0 0 48 48" fill="none" xmlns="http://www.w3.org/2000/svg">
<rect x="9" y="6" width="10" height="2" fill="black"/>
<rect x="29" y="6" width="10" height="2" fill="black"/>
<rect x="19" y="8" width="2" height="2" fill="black"/>
<rect x="21" y="10" width="2" height="2" fill="black"/>
<rect x="5" y="10" width="2" height="2" fill="black"/>
<rect x="7" y="8" width="2" height="2" fill="black"/>
<rect x="23" y="12" width="2" height="2" fill="black"/>
<rect x="25" y="10" width="2" height="2" fill="black"/>
<path d="M27 8H29V10H27V8Z" fill="black"/>
<rect x="39" y="8" width="2" height="2" fill="black"/>
<rect x="41" y="10" width="2" height="2" fill="black"/>
<rect x="41" y="10" width="2" height="2" fill="black"/>
<rect x="39" y="27" width="2" height="2" fill="black"/>
<rect x="25" y="35" width="2" height="2" fill="black"/>
<rect x="23" y="37" width="2" height="2" fill="black"/>
<rect x="21" y="35" width="2" height="2" fill="black"/>
<rect x="7" y="27" width="2" height="2" fill="black"/>
<rect x="41" y="23" width="2" height="4" fill="black"/>
<rect x="35" y="31" width="2" height="4" transform="rotate(-90 35 31)" fill="black"/>
<rect x="35" y="31" width="2" height="4" transform="rotate(-90 35 31)" fill="black"/>
<rect x="31" y="33" width="2" height="4" transform="rotate(-90 31 33)" fill="black"/>
<rect x="27" y="35" width="2" height="4" transform="rotate(-90 27 35)" fill="black"/>
<rect x="17" y="35" width="2" height="4" transform="rotate(-90 17 35)" fill="black"/>
<rect x="13" y="33" width="2" height="4" transform="rotate(-90 13 33)" fill="black"/>
<rect x="9" y="31" width="2" height="4" transform="rotate(-90 9 31)" fill="black"/>
<rect x="5" y="23" width="2" height="4" fill="black"/>
<rect x="43" y="12" width="2" height="11" fill="black"/>
<rect x="3" y="12" width="2" height="11" fill="black"/>
<path d="M5 12H7V10H9V8H19V10H21V12H23V14H25V12H27V10H29V8H39V10H41V12H43V23H41V27H39V29H35V31H31V33H27V35H25V37H23V35H21V33H17V31H13V29H9V27H7V23H5V12Z" fill="#E74952"/>
<path d="M40.1501 15.5601H37.8701V20.1351H40.1501V15.5601Z" fill="white"/>
<path d="M37.8702 13.28H35.5752V15.56H37.8702V13.28Z" fill="white"/>
<path d="M35.575 11H31V13.28H35.575V11Z" fill="white"/>
</svg>
