<svg width="128" height="128" viewBox="0 0 128 128" fill="none" xmlns="http://www.w3.org/2000/svg">
<rect x="24" y="16" width="26.6667" height="5.33333" fill="black"/>
<rect x="77.3335" y="16" width="26.6667" height="5.33333" fill="black"/>
<rect x="50.6665" y="21.3334" width="5.33333" height="5.33333" fill="black"/>
<rect x="56" y="26.6666" width="5.33333" height="5.33333" fill="black"/>
<rect x="13.3335" y="26.6666" width="5.33333" height="5.33333" fill="black"/>
<rect x="18.6665" y="21.3334" width="5.33333" height="5.33333" fill="black"/>
<rect x="61.3335" y="32" width="5.33333" height="5.33333" fill="black"/>
<rect x="66.6665" y="26.6666" width="5.33333" height="5.33333" fill="black"/>
<path d="M72 21.3334H77.3333V26.6667H72V21.3334Z" fill="black"/>
<rect x="104" y="21.3334" width="5.33333" height="5.33333" fill="black"/>
<rect x="109.333" y="26.6666" width="5.33333" height="5.33333" fill="black"/>
<rect x="109.333" y="26.6666" width="5.33333" height="5.33333" fill="black"/>
<rect x="104" y="72" width="5.33333" height="5.33333" fill="black"/>
<rect x="66.6665" y="93.3334" width="5.33333" height="5.33333" fill="black"/>
<rect x="61.3335" y="98.6666" width="5.33333" height="5.33333" fill="black"/>
<rect x="56" y="93.3334" width="5.33333" height="5.33333" fill="black"/>
<rect x="18.6665" y="72" width="5.33333" height="5.33333" fill="black"/>
<rect x="109.333" y="61.3334" width="5.33333" height="10.6667" fill="black"/>
<rect x="93.3335" y="82.6666" width="5.33333" height="10.6667" transform="rotate(-90 93.3335 82.6666)" fill="black"/>
<rect x="93.3335" y="82.6666" width="5.33333" height="10.6667" transform="rotate(-90 93.3335 82.6666)" fill="black"/>
<rect x="82.6665" y="88" width="5.33333" height="10.6667" transform="rotate(-90 82.6665 88)" fill="black"/>
<rect x="72" y="93.3334" width="5.33333" height="10.6667" transform="rotate(-90 72 93.3334)" fill="black"/>
<rect x="45.3335" y="93.3334" width="5.33333" height="10.6667" transform="rotate(-90 45.3335 93.3334)" fill="black"/>
<rect x="34.6665" y="88" width="5.33333" height="10.6667" transform="rotate(-90 34.6665 88)" fill="black"/>
<rect x="24" y="82.6666" width="5.33333" height="10.6667" transform="rotate(-90 24 82.6666)" fill="black"/>
<rect x="13.3335" y="61.3334" width="5.33333" height="10.6667" fill="black"/>
<rect x="114.667" y="32" width="5.33333" height="29.3333" fill="black"/>
<rect x="8" y="32" width="5.33333" height="29.3333" fill="black"/>
<path d="M13.3335 32H18.6668V26.6667H24.0002V21.3334H50.6668V26.6667H56.0002V32H61.3335V37.3334H66.6668V32H72.0002V26.6667H77.3335V21.3334H104V26.6667H109.333V32H114.667V61.3334H109.333V72H104V77.3334H93.3335V82.6667H82.6668V88H72.0002V93.3334H66.6668V98.6667H61.3335V93.3334H56.0002V88H45.3335V82.6667H34.6668V77.3334H24.0002V72H18.6668V61.3334H13.3335V32Z" fill="white"/>
<path d="M107.067 41.4935H100.987V53.6935H107.067V41.4935Z" fill="white"/>
<path d="M100.987 35.4135H94.8672V41.4935H100.987V35.4135Z" fill="white"/>
<path d="M94.8665 29.3334H82.6665V35.4134H94.8665V29.3334Z" fill="white"/>
</svg>
