<svg width="274" height="350" viewBox="0 0 274 350" fill="none" xmlns="http://www.w3.org/2000/svg">
<path d="M10.9375 133.438H19.6875V126.875H30.625V122.5H39.375V115.938H54.6875V109.375H65.625V102.812H74.375V96.25H85.3125V91.875H98.4375V96.25H107.188V102.812H113.75V109.375H126.875V115.938H133.438V122.5H137.812V129.062H142.188V122.5H146.562V115.938H153.125V109.375H166.25V102.812H172.812V96.25H181.562V91.875H190.312V96.25H201.25V102.812H212.188V109.375H223.125V113.75H238.438V120.312H247.188V126.875H258.125V133.438H266.875V146.562H258.125V153.125H253.75V157.5H245V164.062H238.438V179.375V185.938H249.375V192.5H260.312V199.062H266.875V212.188H255.938V216.562H245V223.125H238.438V260.312H242.812V264.688H249.375V271.25H258.125V275.625H266.875V282.188H273.438V293.125H258.125V297.5H247.188V304.062H238.438V308.438H227.5V315H218.75V319.375H212.188V325.938H201.25V332.5H190.312V336.875H183.75V343.438H166.25V336.875H153.125V332.5H148.75H131.25H122.5V336.875H113.75V343.438H94.0625V336.875H87.5V332.5H74.375V325.938H63.4375V321.562H54.6875V315H48.125V310.625H39.375V304.062H30.625V299.688H19.6875V293.125H6.5625V286.562H0V282.188H4.375V280H10.9375V275.625H21.875V271.25H30.625V264.688H35V260.312H41.5625V227.5H37.1875V223.125H30.625V216.562H19.6875V212.188H10.9375V199.062H19.6875V192.5H30.625V185.938H41.5625V164.062H32.8125V157.5H26.25V153.125H19.6875V146.562H10.9375V133.438Z" fill="#F6C092"/>
<path d="M129.062 129.062H148.75V135.625H157.5V142.188H170.625V146.562H179.375V153.125H190.312V159.688H201.25V164.062H212.188V168.438H223.125V175H216.562V179.375H210V185.938H201.25V190.312H188.125V194.688H177.188V201.25H166.25V205.625H157.5V212.188H148.75V216.562H142.188V223.125H135.625V216.562H129.062V212.188H120.312V205.625H109.375V201.25H98.4375V194.688H91.875V192.5H84.2188V190.312H76.5625V185.938H67.8125V179.375H61.25V175H54.6875V168.438H63.4375V164.062H76.5625V159.688H87.5V153.125H98.4375V146.562H109.375V142.188H120.312V135.625H129.062V129.062Z" fill="#481E39"/>
<rect x="135.625" y="129.062" width="6.5625" height="94.0625" fill="#31122A"/>
<rect x="231.875" y="223.125" width="6.5625" height="54.6875" fill="#31122A"/>
<rect x="231.875" y="164.062" width="6.5625" height="15.3125" fill="#31122A"/>
<rect x="260.312" y="133.438" width="6.5625" height="13.125" fill="#31122A"/>
<rect x="67.8125" y="159.688" width="8.75" height="4.375" fill="#E37E5F"/>
<rect x="76.5625" y="153.125" width="10.9375" height="6.5625" fill="#E37E5F"/>
<rect x="87.5" y="146.562" width="10.9375" height="6.5625" fill="#E37E5F"/>
<rect x="98.4375" y="142.188" width="10.9375" height="4.375" fill="#E37E5F"/>
<rect x="109.375" y="135.625" width="10.9375" height="6.5625" fill="#E37E5F"/>
<rect x="120.312" y="129.062" width="8.75" height="6.5625" fill="#E37E5F"/>
<rect x="126.875" y="115.938" width="6.5625" height="6.5625" fill="#E37E5F"/>
<rect x="118.125" y="109.375" width="8.75" height="6.5625" fill="#E37E5F"/>
<rect x="148.75" y="129.062" width="8.75" height="6.5625" fill="#E37E5F"/>
<rect x="146.562" y="115.938" width="6.5625" height="6.5625" fill="#E37E5F"/>
<rect x="153.125" y="109.375" width="6.5625" height="6.5625" fill="#E37E5F"/>
<rect x="166.25" y="102.812" width="6.5625" height="6.5625" fill="#E37E5F"/>
<rect x="172.812" y="96.25" width="8.75" height="6.5625" fill="#E37E5F"/>
<rect x="181.562" y="91.875" width="8.75" height="4.375" fill="#E37E5F"/>
<rect x="190.312" y="96.25" width="10.9375" height="6.5625" fill="#E37E5F"/>
<rect x="201.25" y="102.812" width="10.9375" height="6.5625" fill="#E37E5F"/>
<rect x="212.188" y="109.375" width="10.9375" height="4.375" fill="#E37E5F"/>
<rect x="223.125" y="113.75" width="15.3125" height="6.5625" fill="#E37E5F"/>
<rect x="238.438" y="120.312" width="8.75" height="6.5625" fill="#E37E5F"/>
<rect x="247.188" y="126.875" width="10.9375" height="6.5625" fill="#E37E5F"/>
<rect x="249.375" y="144.375" width="8.75" height="8.75" fill="#BE5D56"/>
<rect x="231.875" y="159.688" width="6.5625" height="4.375" fill="#BE5D56"/>
<rect x="223.125" y="175" width="8.75" height="4.375" fill="#BE5D56"/>
<rect x="223.125" y="223.125" width="8.75" height="6.5625" fill="#BE5D56"/>
<rect x="231.875" y="216.562" width="6.5625" height="6.5625" fill="#BE5D56"/>
<rect x="216.562" y="229.688" width="6.5625" height="4.375" fill="#BE5D56"/>
<rect x="120.312" y="223.125" width="8.75" height="6.5625" fill="#BE5D56"/>
<rect x="48.125" y="236.25" width="6.5625" height="41.5625" fill="#A04952"/>
<rect x="54.6875" y="240.625" width="8.75" height="15.3125" fill="#A04952"/>
<rect x="54.6875" y="266.875" width="32.8125" height="15.3125" fill="#A04952"/>
<rect x="63.4375" y="245" width="10.9375" height="17.5" fill="#A04952"/>
<rect x="74.375" y="251.562" width="8.75" height="15.3125" fill="#A04952"/>
<rect x="83.125" y="255.938" width="32.8125" height="10.9375" fill="#A04952"/>
<rect x="98.4375" y="245" width="37.1875" height="10.9375" fill="#A04952"/>
<rect x="118.125" y="234.062" width="17.5" height="10.9375" fill="#A04952"/>
<rect x="87.5" y="266.875" width="13.125" height="10.9375" fill="#A04952"/>
<rect x="100.625" y="266.875" width="6.5625" height="6.5625" fill="#A04952"/>
<rect x="94.0625" y="251.562" width="4.375" height="4.375" fill="#A04952"/>
<rect x="115.938" y="255.938" width="8.75" height="6.5625" fill="#A04952"/>
<rect x="107.188" y="240.625" width="10.9375" height="4.375" fill="#A04952"/>
<rect x="129.062" y="229.688" width="6.5625" height="4.375" fill="#A04952"/>
<rect x="142.188" y="229.688" width="6.5625" height="89.6875" fill="#A04952"/>
<rect x="159.688" y="240.625" width="6.5625" height="67.8125" fill="#A04952"/>
<rect x="166.25" y="245" width="6.5625" height="63.4375" fill="#A04952"/>
<rect x="172.812" y="251.562" width="8.75" height="52.5" fill="#A04952"/>
<rect x="181.562" y="255.938" width="8.75" height="41.5625" fill="#A04952"/>
<rect x="190.312" y="251.562" width="10.9375" height="41.5625" fill="#A04952"/>
<rect x="201.25" y="245" width="10.9375" height="41.5625" fill="#A04952"/>
<rect x="212.188" y="240.625" width="10.9375" height="41.5625" fill="#A04952"/>
<rect x="220.938" y="234.062" width="10.9375" height="43.75" fill="#A04952"/>
<rect x="148.75" y="234.062" width="10.9375" height="80.9375" fill="#A04952"/>
<rect x="65.625" y="282.188" width="10.9375" height="4.375" fill="#A04952"/>
<rect x="76.5625" y="282.188" width="10.9375" height="10.9375" fill="#A04952"/>
<rect x="111.562" y="229.688" width="6.5625" height="4.375" fill="#BE5D56"/>
<rect x="48.125" y="175" width="6.5625" height="4.375" fill="#BE5D56"/>
<rect x="19.6875" y="142.188" width="6.5625" height="4.375" fill="#BE5D56"/>
<rect x="26.25" y="146.562" width="6.5625" height="6.5625" fill="#BE5D56"/>
<rect x="157.5" y="135.625" width="13.125" height="6.5625" fill="#E37E5F"/>
<rect x="170.625" y="142.188" width="8.75" height="4.375" fill="#E37E5F"/>
<rect x="179.375" y="146.562" width="10.9375" height="6.5625" fill="#E37E5F"/>
<rect x="190.312" y="153.125" width="10.9375" height="6.5625" fill="#E37E5F"/>
<rect x="201.25" y="159.688" width="10.9375" height="4.375" fill="#E37E5F"/>
<rect x="212.188" y="164.062" width="6.5625" height="4.375" fill="#E37E5F"/>
<rect x="231.875" y="179.375" width="6.5625" height="6.5625" fill="#E37E5F"/>
<rect x="238.438" y="185.938" width="10.9375" height="6.5625" fill="#E37E5F"/>
<rect x="249.375" y="192.5" width="10.9375" height="6.5625" fill="#E37E5F"/>
<path d="M249.375 205.625H260.312V212.188H249.375V205.625Z" fill="#E37E5F"/>
<rect x="148.75" y="223.125" width="6.5625" height="6.5625" fill="#E37E5F"/>
<rect x="129.062" y="216.562" width="6.5625" height="6.5625" fill="#E37E5F"/>
<rect x="223.125" y="164.062" width="8.75" height="10.9375" fill="#E37E5F"/>
<rect x="107.188" y="102.812" width="6.5625" height="6.5625" fill="#E37E5F"/>
<rect x="98.4375" y="96.25" width="8.75" height="6.5625" fill="#E37E5F"/>
<rect x="85.3125" y="91.875" width="13.125" height="4.375" fill="#E37E5F"/>
<rect x="74.375" y="96.25" width="10.9375" height="6.5625" fill="#E37E5F"/>
<rect x="65.625" y="102.812" width="8.75" height="6.5625" fill="#E37E5F"/>
<rect x="54.6875" y="109.375" width="10.9375" height="6.5625" fill="#E37E5F"/>
<rect x="39.375" y="115.938" width="15.3125" height="6.5625" fill="#E37E5F"/>
<rect x="30.625" y="122.5" width="8.75" height="4.375" fill="#E37E5F"/>
<rect x="19.6875" y="126.875" width="10.9375" height="6.5625" fill="#E37E5F"/>
<rect x="41.5625" y="157.5" width="6.5625" height="6.5625" fill="#E37E5F"/>
<rect x="41.5625" y="179.375" width="6.5625" height="6.5625" fill="#E37E5F"/>
<rect x="28.4375" y="185.938" width="10.9375" height="6.5625" fill="#E37E5F"/>
<rect x="87.5" y="284.375" width="21.875" height="13.125" fill="#D46F61"/>
<rect x="109.375" y="284.375" width="8.75" height="6.5625" fill="#D46F61"/>
<rect x="107.188" y="304.062" width="10.9375" height="4.375" fill="#D46F61"/>
<rect x="126.875" y="315" width="8.75" height="4.375" fill="#D46F61"/>
<rect x="135.625" y="319.375" width="6.5625" height="6.5625" fill="#D46F61"/>
<rect x="124.688" y="255.938" width="10.9375" height="6.5625" fill="#D46F61"/>
<rect x="107.188" y="266.875" width="6.5625" height="10.9375" fill="#D46F61"/>
<rect x="100.625" y="273.438" width="6.5625" height="4.375" fill="#D46F61"/>
<rect x="98.4375" y="297.5" width="19.6875" height="6.5625" fill="#D46F61"/>
<rect x="118.125" y="277.812" width="17.5" height="37.1875" fill="#D46F61"/>
<rect x="91.875" y="277.812" width="6.5625" height="6.5625" fill="#D46F61"/>
<rect x="113.75" y="262.5" width="21.875" height="15.3125" fill="#D46F61"/>
<rect x="19.6875" y="192.5" width="8.75" height="6.5625" fill="#E37E5F"/>
<rect x="48.125" y="164.062" width="6.5625" height="10.9375" fill="#E37E5F"/>
<rect x="10.9375" y="133.438" width="8.75" height="13.125" fill="#56283C"/>
<rect x="19.6875" y="146.562" width="6.5625" height="6.5625" fill="#56283C"/>
<rect x="26.25" y="153.125" width="10.9375" height="4.375" fill="#56283C"/>
<rect x="245" y="153.125" width="8.75" height="4.375" fill="#56283C"/>
<rect x="238.438" y="157.5" width="6.5625" height="6.5625" fill="#56283C"/>
<rect x="32.8125" y="157.5" width="8.75" height="6.5625" fill="#56283C"/>
<rect x="41.5625" y="164.062" width="6.5625" height="15.3125" fill="#56283C"/>
<rect x="10.9375" y="199.062" width="8.75" height="13.125" fill="#56283C"/>
<rect x="19.6875" y="212.188" width="10.9375" height="4.375" fill="#56283C"/>
<rect x="30.625" y="216.562" width="6.5625" height="6.5625" fill="#56283C"/>
<rect x="54.6875" y="234.062" width="8.75" height="6.5625" fill="#56283C"/>
<rect x="48.125" y="229.688" width="6.5625" height="6.5625" fill="#56283C"/>
<rect x="63.4375" y="240.625" width="10.9375" height="4.375" fill="#56283C"/>
<rect x="74.375" y="245" width="8.75" height="6.5625" fill="#56283C"/>
<rect x="54.6875" y="255.938" width="8.75" height="10.9375" fill="#56283C"/>
<rect x="63.4375" y="262.5" width="10.9375" height="4.375" fill="#56283C"/>
<rect x="98.4375" y="277.812" width="19.6875" height="6.5625" fill="#56283C"/>
<rect x="109.375" y="290.938" width="8.75" height="6.5625" fill="#56283C"/>
<rect x="87.5" y="277.812" width="4.375" height="6.5625" fill="#56283C"/>
<rect x="54.6875" y="282.188" width="10.9375" height="4.375" fill="#56283C"/>
<rect x="65.625" y="286.562" width="10.9375" height="6.5625" fill="#56283C"/>
<rect x="76.5625" y="293.125" width="10.9375" height="4.375" fill="#56283C"/>
<rect x="87.5" y="297.5" width="10.9375" height="6.5625" fill="#56283C"/>
<rect x="98.4375" y="304.062" width="8.75" height="4.375" fill="#56283C"/>
<rect x="107.188" y="308.438" width="10.9375" height="6.5625" fill="#56283C"/>
<rect x="118.125" y="315" width="8.75" height="4.375" fill="#56283C"/>
<rect x="126.875" y="319.375" width="8.75" height="6.5625" fill="#56283C"/>
<rect x="142.188" y="319.375" width="10.9375" height="6.5625" fill="#56283C"/>
<rect x="148.75" y="315" width="10.9375" height="4.375" fill="#56283C"/>
<rect x="159.688" y="308.438" width="10.9375" height="6.5625" fill="#56283C"/>
<rect x="170.625" y="304.062" width="10.9375" height="4.375" fill="#56283C"/>
<rect x="181.562" y="297.5" width="8.75" height="6.5625" fill="#56283C"/>
<rect x="190.312" y="293.125" width="10.9375" height="4.375" fill="#56283C"/>
<rect x="201.25" y="286.562" width="10.9375" height="6.5625" fill="#56283C"/>
<rect x="212.188" y="282.188" width="10.9375" height="4.375" fill="#56283C"/>
<rect x="223.125" y="277.812" width="8.75" height="4.375" fill="#56283C"/>
<rect x="48.125" y="277.812" width="6.5625" height="4.375" fill="#56283C"/>
<rect x="83.125" y="251.562" width="10.9375" height="4.375" fill="#56283C"/>
<rect x="94.0625" y="245" width="4.375" height="6.5625" fill="#56283C"/>
<rect x="98.4375" y="240.625" width="8.75" height="4.375" fill="#56283C"/>
<rect x="107.188" y="234.062" width="10.9375" height="6.5625" fill="#56283C"/>
<rect x="118.125" y="229.688" width="10.9375" height="4.375" fill="#56283C"/>
<rect x="129.062" y="223.125" width="6.5625" height="6.5625" fill="#56283C"/>
<rect x="159.688" y="234.062" width="6.5625" height="6.5625" fill="#56283C"/>
<rect x="166.25" y="240.625" width="6.5625" height="4.375" fill="#56283C"/>
<rect x="172.812" y="245" width="8.75" height="6.5625" fill="#56283C"/>
<rect x="181.562" y="251.562" width="13.125" height="4.375" fill="#56283C"/>
<rect x="194.688" y="245" width="8.75" height="6.5625" fill="#56283C"/>
<rect x="203.438" y="240.625" width="8.75" height="4.375" fill="#56283C"/>
<rect x="212.188" y="234.062" width="10.9375" height="6.5625" fill="#56283C"/>
<rect x="223.125" y="229.688" width="8.75" height="4.375" fill="#56283C"/>
<rect x="238.438" y="216.562" width="6.5625" height="6.5625" fill="#56283C"/>
<rect x="245" y="212.188" width="10.9375" height="4.375" fill="#56283C"/>
<rect x="260.312" y="199.062" width="6.5625" height="13.125" fill="#56283C"/>
<rect x="148.75" y="229.688" width="10.9375" height="4.375" fill="#56283C"/>
<rect x="142.188" y="223.125" width="6.5625" height="6.5625" fill="#56283C"/>
<rect x="37.1875" y="223.125" width="10.9375" height="4.375" fill="#56283C"/>
<rect x="41.5625" y="227.5" width="6.5625" height="50.3125" fill="#56283C"/>
<rect x="135.625" y="223.125" width="6.5625" height="96.25" fill="#EF9D75"/>
<rect x="35" y="260.312" width="6.5625" height="43.75" fill="#BEA1BF"/>
<rect x="39.375" y="277.812" width="8.75" height="32.8125" fill="#BEA1BF"/>
<rect x="126.875" y="325.938" width="4.375" height="6.5625" fill="#BEA1BF"/>
<rect x="122.5" y="319.375" width="4.375" height="13.125" fill="#BEA1BF"/>
<rect x="118.125" y="319.375" width="4.375" height="17.5" fill="#BEA1BF"/>
<rect x="113.75" y="315" width="4.375" height="21.875" fill="#BEA1BF"/>
<rect x="105" y="315" width="8.75" height="28.4375" fill="#BEA1BF"/>
<rect x="94.0625" y="308.438" width="13.125" height="35" fill="#BEA1BF"/>
<rect x="87.5" y="304.062" width="10.9375" height="32.8125" fill="#BEA1BF"/>
<rect x="74.375" y="297.5" width="13.125" height="35" fill="#BEA1BF"/>
<rect x="63.4375" y="293.125" width="13.125" height="32.8125" fill="#BEA1BF"/>
<rect x="54.6875" y="286.562" width="10.9375" height="35" fill="#BEA1BF"/>
<rect x="48.125" y="282.188" width="6.5625" height="32.8125" fill="#BEA1BF"/>
<rect y="282.188" width="35" height="4.375" fill="#BEA1BF"/>
<rect x="10.9375" y="275.625" width="24.0625" height="4.375" fill="#BEA1BF"/>
<rect x="19.6875" y="293.125" width="15.3125" height="6.5625" fill="#BEA1BF"/>
<rect x="6.5625" y="286.562" width="28.4375" height="6.5625" fill="#BEA1BF"/>
<rect x="21.875" y="271.25" width="13.125" height="4.375" fill="#BEA1BF"/>
<rect x="30.625" y="264.688" width="4.375" height="6.5625" fill="#BEA1BF"/>
<rect x="30.625" y="299.688" width="4.375" height="4.375" fill="#BEA1BF"/>
<rect x="4.375" y="280" width="30.625" height="2.1875" fill="#BEA1BF"/>
<rect x="131.25" y="325.938" width="15.3125" height="6.5625" fill="#E3CBDB"/>
<rect x="146.562" y="325.938" width="8.75" height="6.5625" fill="#BEA1BF"/>
<rect x="166.25" y="336.875" width="17.5" height="6.5625" fill="#BEA1BF"/>
<rect x="159.688" y="315" width="52.5" height="4.375" fill="#BEA1BF"/>
<rect x="190.312" y="319.375" width="21.875" height="6.5625" fill="#BEA1BF"/>
<rect x="181.562" y="304.062" width="56.875" height="4.375" fill="#BEA1BF"/>
<rect x="190.312" y="297.5" width="56.875" height="6.5625" fill="#BEA1BF"/>
<rect x="201.25" y="293.125" width="56.875" height="4.375" fill="#BEA1BF"/>
<rect x="212.188" y="286.562" width="61.25" height="6.5625" fill="#BEA1BF"/>
<rect x="223.125" y="282.188" width="50.3125" height="4.375" fill="#BEA1BF"/>
<rect x="231.875" y="277.812" width="35" height="4.375" fill="#BEA1BF"/>
<rect x="238.438" y="260.312" width="4.375" height="17.5" fill="#BEA1BF"/>
<rect x="242.812" y="264.688" width="6.5625" height="13.125" fill="#BEA1BF"/>
<rect x="249.375" y="271.25" width="8.75" height="6.5625" fill="#BEA1BF"/>
<rect x="258.125" y="275.625" width="8.75" height="2.1875" fill="#BEA1BF"/>
<rect x="212.188" y="315" width="6.5625" height="4.375" fill="#BEA1BF"/>
<rect x="170.625" y="308.438" width="56.875" height="6.5625" fill="#BEA1BF"/>
<rect x="190.312" y="325.938" width="10.9375" height="6.5625" fill="#BEA1BF"/>
<rect x="153.125" y="319.375" width="37.1875" height="17.5" fill="#BEA1BF"/>
<path d="M111.562 13.125H118.125V19.6875H111.562V13.125Z" fill="white"/>
<path d="M137.812 87.5H144.375V94.0625H137.812V87.5Z" fill="white"/>
<path d="M137.812 80.9375H144.375V87.5H137.812V80.9375Z" fill="white"/>
<path d="M137.812 65.625H144.375V72.1875H137.812V65.625Z" fill="white"/>
<path d="M137.812 59.0625H144.375V65.625H137.812V59.0625Z" fill="white"/>
<path d="M137.812 52.5H144.375V59.0625H137.812V52.5Z" fill="white"/>
<path d="M144.375 45.9375H150.938V52.5H144.375V45.9375Z" fill="white"/>
<path d="M150.938 39.375H157.5V45.9375H150.938V39.375Z" fill="white"/>
<path d="M131.25 80.9375H137.812V94.0625H131.25V80.9375Z" fill="white"/>
<path d="M131.25 65.625H137.812V72.1875H131.25V65.625Z" fill="white"/>
<path d="M131.25 59.0625H137.812V65.625H131.25V59.0625Z" fill="white"/>
<path d="M111.562 19.6875H118.125V26.25H111.562V19.6875Z" fill="white"/>
<path d="M111.562 26.25H118.125V32.8125H111.562V26.25Z" fill="#A3A3A3"/>
<path d="M144.375 80.9375H146.562V94.0625H144.375V80.9375Z" fill="#A3A3A3"/>
<path d="M146.562 80.9375H148.75V96.25H146.562V80.9375Z" fill="#A3A3A3"/>
<path d="M148.75 80.9375H150.938V98.4375H148.75V80.9375Z" fill="#A3A3A3"/>
<path d="M131.25 94.0625H150.938V96.25H131.25V94.0625Z" fill="#A3A3A3"/>
<path d="M133.438 96.25H150.938V98.4375H133.438V96.25Z" fill="#A3A3A3"/>
<path d="M131.25 72.1875H144.375V78.75H131.25V72.1875Z" fill="#A3A3A3"/>
<path d="M144.375 59.0625H150.938V78.75H144.375V59.0625Z" fill="#A3A3A3"/>
<path d="M150.938 52.5H157.5V59.0625H150.938V52.5Z" fill="#A3A3A3"/>
<path d="M157.5 45.9375H164.062V52.5H157.5V45.9375Z" fill="#A3A3A3"/>
<path d="M164.062 39.375H170.625V45.9375H164.062V39.375Z" fill="#A3A3A3"/>
<path d="M170.625 13.125H177.188V39.375H170.625V13.125Z" fill="#A3A3A3"/>
<path d="M157.5 0H164.062V6.5625H157.5V0Z" fill="#A3A3A3"/>
<path d="M164.062 6.5625H170.625V13.125H164.062V6.5625Z" fill="#A3A3A3"/>
<path d="M144.375 13.125H157.5V19.6875H144.375V13.125Z" fill="#A3A3A3"/>
<path d="M137.812 6.5625H144.375V15.3125H137.812V6.5625Z" fill="#A3A3A3"/>
<path d="M131.25 6.5625H137.812V19.6875H131.25V6.5625Z" fill="#A3A3A3"/>
<path d="M124.688 13.125H131.25V19.6875H124.688V13.125Z" fill="#A3A3A3"/>
<path d="M118.125 13.125H124.688V32.8125H118.125V13.125Z" fill="#A3A3A3"/>
<path d="M105 19.6875H111.562V26.25H105V19.6875Z" fill="white"/>
<path d="M118.125 0H124.688V6.5625H118.125V0Z" fill="white"/>
<path d="M105 13.125H111.562V19.6875H105V13.125Z" fill="white"/>
<path d="M111.562 6.5625H118.125V13.125H111.562V6.5625Z" fill="white"/>
<path d="M144.375 6.5625H157.5V13.125H144.375V6.5625Z" fill="white"/>
<path d="M144.375 52.5H150.938V59.0625H144.375V52.5Z" fill="white"/>
<path d="M150.938 45.9375H157.5V52.5H150.938V45.9375Z" fill="white"/>
<path d="M157.5 13.125H164.062V39.375H157.5V13.125Z" fill="white"/>
<path d="M157.5 39.375H164.062V45.9375H157.5V39.375Z" fill="white"/>
<path d="M164.062 32.8125H170.625V39.375H164.062V32.8125Z" fill="white"/>
<path d="M164.062 26.25H170.625V32.8125H164.062V26.25Z" fill="white"/>
<path d="M164.062 19.6875H170.625V26.25H164.062V19.6875Z" fill="white"/>
<path d="M164.062 13.125H170.625V19.6875H164.062V13.125Z" fill="white"/>
<path d="M157.5 6.5625H164.062V13.125H157.5V6.5625Z" fill="white"/>
<path d="M150.938 0H157.5V6.5625H150.938V0Z" fill="white"/>
<path d="M144.375 0H150.938V6.5625H144.375V0Z" fill="white"/>
<path d="M137.812 0H144.375V8.75H137.812V0Z" fill="white"/>
<path d="M131.25 0H137.812V8.75H131.25V0Z" fill="white"/>
<path d="M124.688 0H131.25V6.5625H124.688V0Z" fill="white"/>
<path d="M118.125 6.5625H131.25V13.125H118.125V6.5625Z" fill="white"/>
<rect x="146.562" y="94.0625" width="4.375" height="4.375" fill="#A3A3A3"/>
</svg>
