<svg width="407" height="350" viewBox="0 0 407 350" fill="none" xmlns="http://www.w3.org/2000/svg">
<path d="M16.5094 8.25472V0H388.797V8.25472H397.877V269.929H388.797V279.009H225.354V306.663H235.259V320.283H254.245V330.189H309.552V340.094H406.957V350H0V340.094H100.708V330.189H155.189V320.283H175V307.075H184.08V279.009H16.5094V269.929H7.42924V8.25472H16.5094Z" fill="#00984F" fill-opacity="0.8"/>
<rect x="23.9387" y="340.094" width="69.3396" height="9.90566" fill="#F67E9A"/>
<rect y="340.094" width="16.5094" height="9.90566" fill="#F5ABAF"/>
<rect x="16.5095" y="340.094" width="7.42924" height="9.90566" fill="#F496A5"/>
<rect width="69.3396" height="9.90566" transform="matrix(-1 0 0 1 383.019 340.094)" fill="#F67E9A"/>
<rect width="16.5094" height="9.90566" transform="matrix(-1 0 0 1 406.958 340.094)" fill="#F5ABAF"/>
<rect width="7.42924" height="9.90566" transform="matrix(-1 0 0 1 390.448 340.094)" fill="#F496A5"/>
<rect x="34.6699" y="29.717" width="336.792" height="210.495" fill="white"/>
<rect x="7.4292" y="259.198" width="9.90566" height="10.7311" fill="#00CB76" fill-opacity="0.71"/>
<rect x="16.5095" y="268.278" width="372.288" height="10.7311" fill="#00CB76" fill-opacity="0.71"/>
<rect x="387.972" y="259.198" width="9.90566" height="10.7311" fill="#00CB76" fill-opacity="0.71"/>
<rect x="133.726" y="108.962" width="8.25472" height="8.25472" fill="#DC0048"/>
<rect x="179.953" y="92.4529" width="8.25472" height="8.25472" fill="#DC0048"/>
<rect x="188.208" y="133.726" width="8.25472" height="8.25472" fill="#DC0048"/>
<rect x="212.972" y="92.4529" width="8.25472" height="8.25472" fill="#DC0048"/>
<rect x="192.335" y="125.472" width="8.25472" height="8.25472" fill="#DC0048"/>
<rect x="198.113" y="117.217" width="8.25472" height="8.25472" fill="#DC0048"/>
<rect x="203.066" y="108.962" width="8.25472" height="8.25472" fill="#DC0048"/>
<rect x="208.019" y="100.708" width="8.25472" height="8.25472" fill="#DC0048"/>
<rect x="221.226" y="133.726" width="8.25472" height="8.25472" fill="#DC0048"/>
<rect x="221.226" y="125.472" width="8.25472" height="8.25472" fill="#DC0048"/>
<rect x="221.226" y="117.217" width="8.25472" height="8.25472" fill="#DC0048"/>
<rect x="221.226" y="108.962" width="8.25472" height="8.25472" fill="#DC0048"/>
<rect x="221.226" y="100.708" width="8.25472" height="8.25472" fill="#DC0048"/>
<rect x="221.226" y="92.4529" width="8.25472" height="8.25472" fill="#DC0048"/>
<rect x="212.972" y="84.198" width="8.25472" height="8.25472" fill="#DC0048"/>
<rect x="212.972" y="141.981" width="8.25472" height="8.25472" fill="#DC0048"/>
<rect x="204.717" y="141.981" width="8.25472" height="8.25472" fill="#DC0048"/>
<rect x="196.462" y="141.981" width="8.25472" height="8.25472" fill="#DC0048"/>
<rect x="179.953" y="133.726" width="8.25472" height="8.25472" fill="#DC0048"/>
<rect x="188.208" y="141.981" width="8.25472" height="8.25472" fill="#DC0048"/>
<rect x="179.953" y="125.472" width="8.25472" height="8.25472" fill="#DC0048"/>
<rect x="179.953" y="117.217" width="8.25472" height="8.25472" fill="#DC0048"/>
<rect x="179.953" y="108.962" width="8.25472" height="8.25472" fill="#DC0048"/>
<rect x="179.953" y="100.708" width="8.25472" height="8.25472" fill="#DC0048"/>
<rect x="204.717" y="84.198" width="8.25472" height="8.25472" fill="#DC0048"/>
<rect x="196.462" y="84.198" width="8.25472" height="8.25472" fill="#DC0048"/>
<rect x="188.208" y="84.198" width="8.25472" height="8.25472" fill="#DC0048"/>
<rect x="108.962" y="117.217" width="4.12736" height="8.25472" fill="#DC0048"/>
<rect x="117.217" y="108.962" width="8.25472" height="8.25472" fill="#DC0048"/>
<rect x="125.472" y="100.708" width="8.25472" height="4.12736" fill="#DC0048"/>
<rect x="133.726" y="141.981" width="8.25472" height="8.25472" fill="#DC0048"/>
<rect x="133.726" y="133.726" width="8.25472" height="8.25472" fill="#DC0048"/>
<rect x="133.726" y="117.217" width="8.25472" height="8.25472" fill="#DC0048"/>
<rect x="133.726" y="92.4529" width="8.25472" height="8.25472" fill="#DC0048"/>
<rect x="133.726" y="100.708" width="8.25472" height="8.25472" fill="#DC0048"/>
<rect x="133.726" y="84.198" width="8.25472" height="8.25472" fill="#DC0048"/>
<rect x="100.708" y="117.217" width="8.25472" height="8.25472" fill="#DC0048"/>
<rect x="141.981" y="125.472" width="8.25472" height="8.25472" fill="#DC0048"/>
<rect x="133.726" y="125.472" width="8.25472" height="8.25472" fill="#DC0048"/>
<rect x="125.472" y="125.472" width="8.25472" height="8.25472" fill="#DC0048"/>
<rect x="117.217" y="125.472" width="8.25472" height="8.25472" fill="#DC0048"/>
<rect x="108.962" y="125.472" width="8.25472" height="8.25472" fill="#DC0048"/>
<rect x="100.708" y="125.472" width="8.25472" height="8.25472" fill="#DC0048"/>
<rect x="108.962" y="108.962" width="8.25472" height="8.25472" fill="#DC0048"/>
<rect x="117.217" y="100.708" width="8.25472" height="8.25472" fill="#DC0048"/>
<rect x="125.472" y="92.4529" width="8.25472" height="8.25472" fill="#DC0048"/>
<rect x="290.566" y="108.962" width="8.25472" height="8.25472" fill="#DC0048"/>
<rect x="265.802" y="117.217" width="4.12736" height="8.25472" fill="#DC0048"/>
<rect x="274.057" y="108.962" width="8.25472" height="8.25472" fill="#DC0048"/>
<rect x="282.311" y="100.708" width="8.25472" height="4.12736" fill="#DC0048"/>
<rect x="290.566" y="141.981" width="8.25472" height="8.25472" fill="#DC0048"/>
<rect x="290.566" y="133.726" width="8.25472" height="8.25472" fill="#DC0048"/>
<rect x="290.566" y="117.217" width="8.25472" height="8.25472" fill="#DC0048"/>
<rect x="290.566" y="92.4529" width="8.25472" height="8.25472" fill="#DC0048"/>
<rect x="290.566" y="100.708" width="8.25472" height="8.25472" fill="#DC0048"/>
<rect x="290.566" y="84.198" width="8.25472" height="8.25472" fill="#DC0048"/>
<rect x="257.547" y="117.217" width="8.25472" height="8.25472" fill="#DC0048"/>
<rect x="298.821" y="125.472" width="8.25472" height="8.25472" fill="#DC0048"/>
<rect x="290.566" y="125.472" width="8.25472" height="8.25472" fill="#DC0048"/>
<rect x="282.311" y="125.472" width="8.25472" height="8.25472" fill="#DC0048"/>
<rect x="274.057" y="125.472" width="8.25472" height="8.25472" fill="#DC0048"/>
<rect x="265.802" y="125.472" width="8.25472" height="8.25472" fill="#DC0048"/>
<rect x="257.547" y="125.472" width="8.25472" height="8.25472" fill="#DC0048"/>
<rect x="265.802" y="108.962" width="8.25472" height="8.25472" fill="#DC0048"/>
<rect x="274.057" y="100.708" width="8.25472" height="8.25472" fill="#DC0048"/>
<rect x="282.311" y="92.4529" width="8.25472" height="8.25472" fill="#DC0048"/>
<path d="M43.5706 193.716L45.6817 193.716V191.182H47.8863V189.493H52.0152V187.382H54.1264V189.493H56.331V187.382H58.4421V189.493H64.3534V191.604H66.4646V207.227H64.26V211.45H62.1489V213.983L60.0377 213.983V216.094L47.8863 216.094V213.983H45.6818L45.6817 211.45H43.5706V193.716Z" fill="#FC747E"/>
<rect x="43.5706" y="193.716" width="2.11117" height="17.7338" fill="black"/>
<rect x="45.6816" y="211.449" width="2.11117" height="2.5334" fill="black"/>
<path d="M47.793 213.983H60.0378V216.094H47.793V213.983Z" fill="black"/>
<rect x="60.0378" y="211.449" width="2.11117" height="2.5334" fill="black"/>
<rect x="64.26" y="191.604" width="2.11117" height="15.6227" fill="black"/>
<rect x="62.1489" y="208.916" width="2.11117" height="2.5334" fill="black"/>
<path d="M58.3487 189.493H64.26V191.604H60.4599V194.56H58.3487V198.36H56.2375V194.56H58.3487V191.604V189.493Z" fill="black"/>
<rect x="56.2375" y="187.382" width="2.11117" height="2.11117" fill="black"/>
<rect x="52.0151" y="187.382" width="2.11117" height="2.11117" fill="black"/>
<rect x="45.6816" y="191.182" width="2.11117" height="2.5334" fill="black"/>
<path d="M47.793 189.493H52.0153V191.182V194.56H54.1265V198.36H52.0153V194.56H49.9041V191.182H47.793V189.493Z" fill="black"/>
<path d="M47.793 191.182H49.9041V194.56H52.0153V198.36H49.9041H47.793V191.182Z" fill="#FFD8C9"/>
<rect x="47.793" y="198.36" width="2.11117" height="8.86691" fill="#FFFAE0"/>
<rect x="52.0151" y="198.36" width="2.11117" height="5.48904" fill="#FFD8C9"/>
<rect x="52.0151" y="203.849" width="2.11117" height="3.37787" fill="#F9ADC2"/>
<rect x="56.2375" y="198.36" width="2.11117" height="2.95564" fill="#FFD8C9"/>
<path d="M58.3486 194.56H60.4598V191.604H62.571V194.56H60.882V196.671H58.3486V194.56Z" fill="#FFD8C9"/>
<rect x="52.0151" y="189.493" width="2.11117" height="2.11117" fill="#FFD8C9"/>
<path d="M54.1263 189.493H56.2375V191.604H58.3486V194.56H56.2375V198.36H54.1263V194.56H52.0151V191.604H54.1263V189.493Z" fill="#F54665"/>
<rect x="54.1265" y="198.36" width="2.11117" height="2.95564" fill="#F4495C"/>
<path d="M49.9041 209.338H52.0152V211.449H54.1264V209.338H59.1932V205.538H62.5711V191.604H64.26V208.916H62.1488V211.449H60.0377V213.983H52.0152H49.9041V209.338Z" fill="#F54665"/>
<path d="M53.333 215.233H56.4913V227.579H57.9269V224.421H59.6496V222.985H61.0852V219.827H62.808V218.391H64.2436V216.668H65.9663V215.233H67.4019V213.797H73.4314V218.391H71.7087V221.262H70.2731V222.985H68.8375V229.015H67.4019V230.45H65.9663V233.608H64.5307V235.331H62.808V236.767H61.0852V238.489H57.9269V240.212H56.4913H53.333V238.489L48.4517 238.489V236.767H46.1547V235.331H44.432V233.608H42.7093V229.015H40.9866V227.579H39.2638V222.985H37.5411V221.549H36.1055V219.827H34.6699V216.668H42.4222V218.391H44.432V219.827H46.729V221.549H48.1646V222.985H49.8873V224.421H51.61V225.856H53.333V215.233Z" fill="#8FDE8F"/>
<rect x="34.6699" y="216.668" width="1.4356" height="3.15832" fill="black"/>
<rect x="36.1055" y="219.827" width="1.4356" height="1.72272" fill="black"/>
<rect x="37.541" y="221.549" width="1.72272" height="1.4356" fill="black"/>
<rect x="40.9866" y="225.856" width="1.72272" height="3.15832" fill="black"/>
<rect x="42.7092" y="229.015" width="1.72272" height="4.59393" fill="black"/>
<rect x="44.4321" y="233.608" width="1.72272" height="1.72272" fill="black"/>
<rect x="46.1548" y="235.331" width="2.29696" height="1.4356" fill="black"/>
<rect x="48.4517" y="236.767" width="4.88105" height="1.72272" fill="black"/>
<rect x="53.3328" y="238.49" width="4.59393" height="1.72272" fill="black"/>
<rect x="57.9268" y="236.767" width="3.15832" height="1.72272" fill="black"/>
<rect x="61.085" y="235.331" width="1.72272" height="1.4356" fill="black"/>
<rect x="62.8076" y="233.608" width="1.72272" height="1.72272" fill="black"/>
<rect x="65.9661" y="229.015" width="1.4356" height="1.4356" fill="black"/>
<rect x="68.8372" y="221.549" width="1.4356" height="1.4356" fill="black"/>
<rect x="70.2729" y="218.391" width="1.4356" height="3.15833" fill="black"/>
<path d="M67.4016 213.797H73.4311V218.391H71.7084V215.233H67.4016V213.797Z" fill="black"/>
<rect x="64.5305" y="230.45" width="1.4356" height="3.15833" fill="black"/>
<rect x="67.4016" y="222.985" width="1.4356" height="6.02953" fill="black"/>
<rect x="39.2639" y="222.985" width="1.72272" height="4.59393" fill="black"/>
<rect x="65.9661" y="215.233" width="1.4356" height="1.4356" fill="black"/>
<rect x="64.2434" y="216.668" width="1.72272" height="1.72272" fill="black"/>
<rect x="61.085" y="219.827" width="1.72272" height="1.72272" fill="black"/>
<rect x="42.4221" y="218.391" width="2.00984" height="1.4356" fill="black"/>
<rect x="37.541" y="216.668" width="4.88105" height="1.72272" fill="black"/>
<rect x="44.4321" y="219.827" width="2.29696" height="1.72272" fill="black"/>
<rect x="46.729" y="221.549" width="1.4356" height="1.4356" fill="black"/>
<rect x="53.3328" y="215.233" width="3.15832" height="1.72272" fill="black"/>
<rect x="48.1646" y="222.985" width="1.72272" height="1.4356" fill="black"/>
<rect x="59.6494" y="222.985" width="1.4356" height="1.4356" fill="black"/>
<rect x="49.8872" y="224.421" width="1.72272" height="1.4356" fill="black"/>
<rect x="56.491" y="235.331" width="1.4356" height="1.4356" fill="black"/>
<rect x="51.6101" y="225.856" width="1.72272" height="3.15832" fill="black"/>
<rect x="53.3328" y="229.015" width="1.4356" height="7.75225" fill="black"/>
<rect x="54.7683" y="236.767" width="1.72272" height="1.72272" fill="black"/>
<rect x="57.9268" y="224.421" width="1.72272" height="3.15833" fill="black"/>
<rect x="56.491" y="227.579" width="1.4356" height="6.02953" fill="black"/>
<rect x="62.8076" y="218.391" width="1.4356" height="1.4356" fill="black"/>
<path d="M53.3328 216.956H56.4911V218.391V222.985H54.7684V218.391H53.3328V216.956Z" fill="#206B74"/>
<path d="M44.4321 230.45H46.1549V232.173H48.7389V233.609H51.8973V232.173H53.3329V236.767H54.7685V230.45H56.4912V233.609H57.9268H59.6495V230.45H62.8078V227.579H64.5306V224.421H65.679V222.985H67.4018V219.97H68.8374V218.391H70.273V216.956H71.7086V218.391H70.273V221.549H68.8374V222.985H67.4018V229.015H65.9662V230.45H64.5306V233.609H62.8078V235.331H61.0851V236.767H57.9268V235.331H56.4912V236.767H57.9268V238.49H56.4912V236.767H54.7685V238.49H53.3329V236.767H48.4518V235.331H46.1549V233.609H44.4321V230.45Z" fill="#206B74"/>
<rect x="54.7683" y="225.856" width="1.72272" height="3.15832" fill="#206B74"/>
<rect x="53.3328" y="225.856" width="1.4356" height="3.15832" fill="#A2D2A6"/>
<rect x="37.541" y="218.391" width="1.72272" height="1.4356" fill="#F7EBE0"/>
<rect x="39.2639" y="219.827" width="1.72272" height="1.72272" fill="#F7EBE0"/>
<path d="M40.9866 221.549H43.5707V222.985V224.421H42.1351V222.985H40.9866V221.549Z" fill="#F7EBE0"/>
<path d="M42.7092 227.579H45.2933V229.015H47.3032V227.579H48.4516V225.856H51.61V227.579V229.015H53.3327V232.173H51.8971V233.608H48.7388V232.173H46.1547V230.45H44.432V229.015H42.7092V227.579Z" fill="#5ABD8E"/>
<rect x="54.7683" y="229.015" width="1.72272" height="1.4356" fill="#44B07B"/>
<rect x="57.9268" y="230.737" width="1.72272" height="1.4356" fill="#54BE8E"/>
<rect x="61.085" y="228.728" width="1.72272" height="1.72272" fill="#51B982"/>
<rect x="62.8076" y="225.856" width="1.72272" height="1.72272" fill="#51B982"/>
<rect x="59.6494" y="225.856" width="1.72272" height="1.72272" fill="#51B982"/>
<rect x="61.085" y="221.549" width="1.72272" height="1.4356" fill="#5BBE8A"/>
<rect x="61.085" y="222.985" width="1.72272" height="1.4356" fill="#FDE6C5"/>
<rect x="65.9661" y="216.668" width="1.4356" height="1.72272" fill="#E0EFAC"/>
<rect x="68.8372" y="215.233" width="1.4356" height="1.72272" fill="#E0EFAC"/>
<rect x="70.2729" y="215.233" width="1.4356" height="1.72272" fill="#4BB78D"/>
<rect x="68.8372" y="216.956" width="1.4356" height="1.4356" fill="#4BB78D"/>
<rect x="65.679" y="219.827" width="1.72272" height="3.15833" fill="#53B188"/>
<rect x="57.9268" y="232.173" width="1.72272" height="1.4356" fill="#44A978"/>
<rect x="36.1055" y="216.668" width="1.4356" height="1.72272" fill="#5DBE90"/>
<rect x="36.1055" y="218.391" width="1.4356" height="1.4356" fill="#62BC88"/>
<rect x="37.541" y="219.827" width="1.72272" height="1.72272" fill="#62BC88"/>
<rect x="40.9866" y="222.985" width="1.14848" height="1.4356" fill="#62BC88"/>
<rect x="53.3328" y="218.391" width="1.4356" height="7.46513" fill="#5DBD98"/>
<rect x="54.7683" y="222.985" width="1.72272" height="2.8712" fill="#4EAD83"/>
<path d="M142.627 193.716L144.738 193.716V191.182H146.943V189.493H151.072V187.382H153.183V189.493H155.387V187.382H157.499V189.493H163.41V191.604H165.521V207.227H163.316V211.45H161.205V213.983L159.094 213.983V216.094L146.943 216.094V213.983H144.738L144.738 211.45H142.627V193.716Z" fill="white"/>
<rect x="142.627" y="193.716" width="2.11117" height="17.7338" fill="black"/>
<rect x="144.738" y="211.449" width="2.11117" height="2.5334" fill="black"/>
<path d="M146.849 213.983H159.094V216.094H146.849V213.983Z" fill="black"/>
<rect x="159.094" y="211.449" width="2.11117" height="2.5334" fill="black"/>
<rect x="163.316" y="191.604" width="2.11117" height="15.6227" fill="black"/>
<rect x="161.205" y="208.916" width="2.11117" height="2.5334" fill="black"/>
<path d="M157.405 189.493H163.316V191.604H159.516V194.56H157.405V198.36H155.294V194.56H157.405V191.604V189.493Z" fill="black"/>
<rect x="155.294" y="187.382" width="2.11117" height="2.11117" fill="black"/>
<rect x="151.072" y="187.382" width="2.11117" height="2.11117" fill="black"/>
<rect x="144.738" y="191.182" width="2.11117" height="2.5334" fill="black"/>
<path d="M146.849 189.493H151.072V191.182V194.56H153.183V198.36H151.072V194.56H148.961V191.182H146.849V189.493Z" fill="black"/>
<path d="M146.849 191.182H148.961V194.56H151.072V198.36H148.961H146.849V191.182Z" fill="#E2EAF1"/>
<rect x="146.849" y="198.36" width="2.11117" height="8.86691" fill="#E3F1FC"/>
<rect x="151.072" y="198.36" width="2.11117" height="5.48904" fill="#CFDBE7"/>
<rect x="151.072" y="203.849" width="2.11117" height="3.37787" fill="#F3F5F7"/>
<rect x="155.294" y="198.36" width="2.11117" height="2.95564" fill="#F2F9FF"/>
<path d="M157.405 194.56H159.516V191.604H161.627V194.56H159.938V196.671H157.405V194.56Z" fill="#F2F9FF"/>
<rect x="151.072" y="189.493" width="2.11117" height="2.11117" fill="#F2F9FF"/>
<path d="M153.183 189.493H155.294V191.604H157.405V194.56H155.294V198.36H153.183V194.56H151.072V191.604H153.183V189.493Z" fill="#8A96A1"/>
<rect x="153.183" y="198.36" width="2.11117" height="2.95564" fill="#A0BBD4"/>
<path d="M148.96 209.338H151.072V211.449H153.183V209.338H158.25V205.538H161.627V191.604H163.316V208.916H161.205V211.449H159.094V213.983H151.072H148.96V209.338Z" fill="#B8C9D8"/>
<path d="M152.389 215.233H155.548V227.579H156.983V224.421H158.706V222.985H160.142V219.827H161.864V218.391H163.3V216.668H165.023V215.233H166.458V213.797H172.488V218.391H170.765V221.262H169.329V222.985H167.894V229.015H166.458V230.45H165.023V233.608H163.587V235.331H161.864V236.767H160.142V238.489H156.983V240.212H155.548H152.389V238.489L147.508 238.489V236.767H145.211V235.331H143.488V233.608H141.766V229.015H140.043V227.579H138.32V222.985H136.598V221.549H135.162V219.827H133.726V216.668H141.479V218.391H143.488V219.827H145.785V221.549H147.221V222.985H148.944V224.421H150.666V225.856H152.389V215.233Z" fill="#8FDE8F"/>
<rect x="133.726" y="216.668" width="1.4356" height="3.15832" fill="black"/>
<rect x="135.162" y="219.827" width="1.4356" height="1.72272" fill="black"/>
<rect x="136.597" y="221.549" width="1.72272" height="1.4356" fill="black"/>
<rect x="140.043" y="225.856" width="1.72272" height="3.15832" fill="black"/>
<rect x="141.766" y="229.015" width="1.72272" height="4.59393" fill="black"/>
<rect x="143.489" y="233.608" width="1.72272" height="1.72272" fill="black"/>
<rect x="145.211" y="235.331" width="2.29696" height="1.4356" fill="black"/>
<rect x="147.508" y="236.767" width="4.88105" height="1.72272" fill="black"/>
<rect x="152.389" y="238.49" width="4.59393" height="1.72272" fill="black"/>
<rect x="156.983" y="236.767" width="3.15832" height="1.72272" fill="black"/>
<rect x="160.141" y="235.331" width="1.72272" height="1.4356" fill="black"/>
<rect x="161.864" y="233.608" width="1.72272" height="1.72272" fill="black"/>
<rect x="165.022" y="229.015" width="1.4356" height="1.4356" fill="black"/>
<rect x="167.894" y="221.549" width="1.4356" height="1.4356" fill="black"/>
<rect x="169.329" y="218.391" width="1.4356" height="3.15833" fill="black"/>
<path d="M166.458 213.797H172.488V218.391H170.765V215.233H166.458V213.797Z" fill="black"/>
<rect x="163.587" y="230.45" width="1.4356" height="3.15833" fill="black"/>
<rect x="166.458" y="222.985" width="1.4356" height="6.02953" fill="black"/>
<rect x="138.32" y="222.985" width="1.72272" height="4.59393" fill="black"/>
<rect x="165.022" y="215.233" width="1.4356" height="1.4356" fill="black"/>
<rect x="163.3" y="216.668" width="1.72272" height="1.72272" fill="black"/>
<rect x="160.141" y="219.827" width="1.72272" height="1.72272" fill="black"/>
<rect x="141.479" y="218.391" width="2.00984" height="1.4356" fill="black"/>
<rect x="136.597" y="216.668" width="4.88105" height="1.72272" fill="black"/>
<rect x="143.489" y="219.827" width="2.29696" height="1.72272" fill="black"/>
<rect x="145.785" y="221.549" width="1.4356" height="1.4356" fill="black"/>
<rect x="152.389" y="215.233" width="3.15832" height="1.72272" fill="black"/>
<rect x="147.221" y="222.985" width="1.72272" height="1.4356" fill="black"/>
<rect x="158.706" y="222.985" width="1.4356" height="1.4356" fill="black"/>
<rect x="148.944" y="224.421" width="1.72272" height="1.4356" fill="black"/>
<rect x="155.547" y="235.331" width="1.4356" height="1.4356" fill="black"/>
<rect x="150.667" y="225.856" width="1.72272" height="3.15832" fill="black"/>
<rect x="152.389" y="229.015" width="1.4356" height="7.75225" fill="black"/>
<rect x="153.825" y="236.767" width="1.72272" height="1.72272" fill="black"/>
<rect x="156.983" y="224.421" width="1.72272" height="3.15833" fill="black"/>
<rect x="155.547" y="227.579" width="1.4356" height="6.02953" fill="black"/>
<rect x="161.864" y="218.391" width="1.4356" height="1.4356" fill="black"/>
<path d="M152.389 216.956H155.547V218.391V222.985H153.825V218.391H152.389V216.956Z" fill="#206B74"/>
<path d="M143.489 230.45H145.211V232.173H147.795V233.609H150.954V232.173H152.389V236.767H153.825V230.45H155.548V233.609H156.983H158.706V230.45H161.864V227.579H163.587V224.421H164.735V222.985H166.458V219.97H167.894V218.391H169.329V216.956H170.765V218.391H169.329V221.549H167.894V222.985H166.458V229.015H165.023V230.45H163.587V233.609H161.864V235.331H160.142V236.767H156.983V235.331H155.548V236.767H156.983V238.49H155.548V236.767H153.825V238.49H152.389V236.767H147.508V235.331H145.211V233.609H143.489V230.45Z" fill="#206B74"/>
<rect x="153.825" y="225.856" width="1.72272" height="3.15832" fill="#206B74"/>
<rect x="152.389" y="225.856" width="1.4356" height="3.15832" fill="#A2D2A6"/>
<rect x="136.597" y="218.391" width="1.72272" height="1.4356" fill="#F7EBE0"/>
<rect x="138.32" y="219.827" width="1.72272" height="1.72272" fill="#F7EBE0"/>
<path d="M140.043 221.549H142.627V222.985V224.421H141.191V222.985H140.043V221.549Z" fill="#F7EBE0"/>
<path d="M141.766 227.579H144.35V229.015H146.36V227.579H147.508V225.856H150.666V227.579V229.015H152.389V232.173H150.953V233.608H147.795V232.173H145.211V230.45H143.488V229.015H141.766V227.579Z" fill="#5ABD8E"/>
<rect x="153.825" y="229.015" width="1.72272" height="1.4356" fill="#44B07B"/>
<rect x="156.983" y="230.737" width="1.72272" height="1.4356" fill="#54BE8E"/>
<rect x="160.141" y="228.728" width="1.72272" height="1.72272" fill="#51B982"/>
<rect x="161.864" y="225.856" width="1.72272" height="1.72272" fill="#51B982"/>
<rect x="158.706" y="225.856" width="1.72272" height="1.72272" fill="#51B982"/>
<rect x="160.141" y="221.549" width="1.72272" height="1.4356" fill="#5BBE8A"/>
<rect x="160.141" y="222.985" width="1.72272" height="1.4356" fill="#FDE6C5"/>
<rect x="165.022" y="216.668" width="1.4356" height="1.72272" fill="#E0EFAC"/>
<rect x="167.894" y="215.233" width="1.4356" height="1.72272" fill="#E0EFAC"/>
<rect x="169.329" y="215.233" width="1.4356" height="1.72272" fill="#4BB78D"/>
<rect x="167.894" y="216.956" width="1.4356" height="1.4356" fill="#4BB78D"/>
<rect x="164.735" y="219.827" width="1.72272" height="3.15833" fill="#53B188"/>
<rect x="156.983" y="232.173" width="1.72272" height="1.4356" fill="#44A978"/>
<rect x="135.162" y="216.668" width="1.4356" height="1.72272" fill="#5DBE90"/>
<rect x="135.162" y="218.391" width="1.4356" height="1.4356" fill="#62BC88"/>
<rect x="136.597" y="219.827" width="1.72272" height="1.72272" fill="#62BC88"/>
<rect x="140.043" y="222.985" width="1.14848" height="1.4356" fill="#62BC88"/>
<rect x="152.389" y="218.391" width="1.4356" height="7.46513" fill="#5DBD98"/>
<rect x="153.825" y="222.985" width="1.72272" height="2.8712" fill="#4EAD83"/>
<path d="M93.9243 193.716L96.0355 193.716V191.182H98.2401V189.493H102.369V187.382H104.48V189.493H106.685V187.382H108.796V189.493H114.707V191.604H116.818V207.227H114.614V211.45H112.503V213.983L110.391 213.983V216.094L98.2401 216.094V213.983H96.0356L96.0355 211.45H93.9243V193.716Z" fill="#F8F478"/>
<rect x="93.9243" y="193.716" width="2.11117" height="17.7338" fill="black"/>
<rect x="96.0354" y="211.449" width="2.11117" height="2.5334" fill="black"/>
<path d="M98.1467 213.983H110.392V216.094H98.1467V213.983Z" fill="black"/>
<rect x="110.392" y="211.449" width="2.11117" height="2.5334" fill="black"/>
<rect x="114.614" y="191.604" width="2.11117" height="15.6227" fill="black"/>
<rect x="112.503" y="208.916" width="2.11117" height="2.5334" fill="black"/>
<path d="M108.702 189.493H114.614V191.604H110.814V194.56H108.702V198.36H106.591V194.56H108.702V191.604V189.493Z" fill="black"/>
<rect x="106.591" y="187.382" width="2.11117" height="2.11117" fill="black"/>
<rect x="102.369" y="187.382" width="2.11117" height="2.11117" fill="black"/>
<rect x="96.0354" y="191.182" width="2.11117" height="2.5334" fill="black"/>
<path d="M98.1467 189.493H102.369V191.182V194.56H104.48V198.36H102.369V194.56H100.258V191.182H98.1467V189.493Z" fill="black"/>
<path d="M98.1467 191.182H100.258V194.56H102.369V198.36H100.258H98.1467V191.182Z" fill="#FFFDC8"/>
<rect x="98.1467" y="198.36" width="2.11117" height="8.86691" fill="#FFFAE0"/>
<rect x="102.369" y="198.36" width="2.11117" height="5.48904" fill="#FFFDC8"/>
<rect x="102.369" y="203.849" width="2.11117" height="3.37787" fill="#FFD584"/>
<rect x="106.591" y="198.36" width="2.11117" height="2.95564" fill="#FFFDC8"/>
<path d="M108.702 194.56H110.814V191.604H112.925V194.56H111.236V196.671H108.702V194.56Z" fill="#FFFDC8"/>
<rect x="102.369" y="189.493" width="2.11117" height="2.11117" fill="#FFFDC8"/>
<path d="M104.48 189.493H106.591V191.604H108.702V194.56H106.591V198.36H104.48V194.56H102.369V191.604H104.48V189.493Z" fill="#FDDF73"/>
<rect x="104.48" y="198.36" width="2.11117" height="2.95564" fill="#FFD336"/>
<path d="M100.258 209.338H102.369V211.449H104.48V209.338H109.547V205.538H112.925V191.604H114.614V208.916H112.503V211.449H110.391V213.983H102.369H100.258V209.338Z" fill="#FDDF73"/>
<path d="M103.687 215.233H106.845V227.579H108.281V224.421H110.003V222.985H111.439V219.827H113.162V218.391H114.597V216.668H116.32V215.233H117.756V213.797H123.785V218.391H122.062V221.262H120.627V222.985H119.191V229.015H117.756V230.45H116.32V233.608H114.884V235.331H113.162V236.767H111.439V238.489H108.281V240.212H106.845H103.687V238.489L98.8055 238.489V236.767H96.5085V235.331H94.7858V233.608H93.0631V229.015H91.3403V227.579H89.6176V222.985H87.8949V221.549H86.4593V219.827H85.0237V216.668H92.7759V218.391H94.7858V219.827H97.0827V221.549H98.5183V222.985H100.241V224.421H101.964V225.856H103.687V215.233Z" fill="#8FDE8F"/>
<rect x="85.0237" y="216.668" width="1.4356" height="3.15832" fill="black"/>
<rect x="86.4592" y="219.827" width="1.4356" height="1.72272" fill="black"/>
<rect x="87.8948" y="221.549" width="1.72272" height="1.4356" fill="black"/>
<rect x="91.3403" y="225.856" width="1.72272" height="3.15832" fill="black"/>
<rect x="93.063" y="229.015" width="1.72272" height="4.59393" fill="black"/>
<rect x="94.7859" y="233.608" width="1.72272" height="1.72272" fill="black"/>
<rect x="96.5085" y="235.331" width="2.29696" height="1.4356" fill="black"/>
<rect x="98.8054" y="236.767" width="4.88105" height="1.72272" fill="black"/>
<rect x="103.687" y="238.49" width="4.59393" height="1.72272" fill="black"/>
<rect x="108.281" y="236.767" width="3.15832" height="1.72272" fill="black"/>
<rect x="111.439" y="235.331" width="1.72272" height="1.4356" fill="black"/>
<rect x="113.161" y="233.608" width="1.72272" height="1.72272" fill="black"/>
<rect x="116.32" y="229.015" width="1.4356" height="1.4356" fill="black"/>
<rect x="119.191" y="221.549" width="1.4356" height="1.4356" fill="black"/>
<rect x="120.627" y="218.391" width="1.4356" height="3.15833" fill="black"/>
<path d="M117.755 213.797H123.785V218.391H122.062V215.233H117.755V213.797Z" fill="black"/>
<rect x="114.884" y="230.45" width="1.4356" height="3.15833" fill="black"/>
<rect x="117.755" y="222.985" width="1.4356" height="6.02953" fill="black"/>
<rect x="89.6177" y="222.985" width="1.72272" height="4.59393" fill="black"/>
<rect x="116.32" y="215.233" width="1.4356" height="1.4356" fill="black"/>
<rect x="114.597" y="216.668" width="1.72272" height="1.72272" fill="black"/>
<rect x="111.439" y="219.827" width="1.72272" height="1.72272" fill="black"/>
<rect x="92.7759" y="218.391" width="2.00984" height="1.4356" fill="black"/>
<rect x="87.8948" y="216.668" width="4.88105" height="1.72272" fill="black"/>
<rect x="94.7859" y="219.827" width="2.29696" height="1.72272" fill="black"/>
<rect x="97.0828" y="221.549" width="1.4356" height="1.4356" fill="black"/>
<rect x="103.687" y="215.233" width="3.15832" height="1.72272" fill="black"/>
<rect x="98.5183" y="222.985" width="1.72272" height="1.4356" fill="black"/>
<rect x="110.003" y="222.985" width="1.4356" height="1.4356" fill="black"/>
<rect x="100.241" y="224.421" width="1.72272" height="1.4356" fill="black"/>
<rect x="106.845" y="235.331" width="1.4356" height="1.4356" fill="black"/>
<rect x="101.964" y="225.856" width="1.72272" height="3.15832" fill="black"/>
<rect x="103.687" y="229.015" width="1.4356" height="7.75225" fill="black"/>
<rect x="105.122" y="236.767" width="1.72272" height="1.72272" fill="black"/>
<rect x="108.281" y="224.421" width="1.72272" height="3.15833" fill="black"/>
<rect x="106.845" y="227.579" width="1.4356" height="6.02953" fill="black"/>
<rect x="113.161" y="218.391" width="1.4356" height="1.4356" fill="black"/>
<path d="M103.687 216.956H106.845V218.391V222.985H105.122V218.391H103.687V216.956Z" fill="#206B74"/>
<path d="M94.7859 230.45H96.5086V232.173H99.0927V233.609H102.251V232.173H103.687V236.767H105.122V230.45H106.845V233.609H108.281H110.003V230.45H113.162V227.579H114.884V224.421H116.033V222.985H117.756V219.97H119.191V218.391H120.627V216.956H122.062V218.391H120.627V221.549H119.191V222.985H117.756V229.015H116.32V230.45H114.884V233.609H113.162V235.331H111.439V236.767H108.281V235.331H106.845V236.767H108.281V238.49H106.845V236.767H105.122V238.49H103.687V236.767H98.8056V235.331H96.5086V233.609H94.7859V230.45Z" fill="#206B74"/>
<rect x="105.122" y="225.856" width="1.72272" height="3.15832" fill="#206B74"/>
<rect x="103.687" y="225.856" width="1.4356" height="3.15832" fill="#A2D2A6"/>
<rect x="87.8948" y="218.391" width="1.72272" height="1.4356" fill="#F7EBE0"/>
<rect x="89.6177" y="219.827" width="1.72272" height="1.72272" fill="#F7EBE0"/>
<path d="M91.3403 221.549H93.9244V222.985V224.421H92.4888V222.985H91.3403V221.549Z" fill="#F7EBE0"/>
<path d="M93.063 227.579H95.6471V229.015H97.6569V227.579H98.8054V225.856H101.964V227.579V229.015H103.686V232.173H102.251V233.608H99.0925V232.173H96.5084V230.45H94.7857V229.015H93.063V227.579Z" fill="#5ABD8E"/>
<rect x="105.122" y="229.015" width="1.72272" height="1.4356" fill="#44B07B"/>
<rect x="108.281" y="230.737" width="1.72272" height="1.4356" fill="#54BE8E"/>
<rect x="111.439" y="228.728" width="1.72272" height="1.72272" fill="#51B982"/>
<rect x="113.161" y="225.856" width="1.72272" height="1.72272" fill="#51B982"/>
<rect x="110.003" y="225.856" width="1.72272" height="1.72272" fill="#51B982"/>
<rect x="111.439" y="221.549" width="1.72272" height="1.4356" fill="#5BBE8A"/>
<rect x="111.439" y="222.985" width="1.72272" height="1.4356" fill="#FDE6C5"/>
<rect x="116.32" y="216.668" width="1.4356" height="1.72272" fill="#E0EFAC"/>
<rect x="119.191" y="215.233" width="1.4356" height="1.72272" fill="#E0EFAC"/>
<rect x="120.627" y="215.233" width="1.4356" height="1.72272" fill="#4BB78D"/>
<rect x="119.191" y="216.956" width="1.4356" height="1.4356" fill="#4BB78D"/>
<rect x="116.033" y="219.827" width="1.72272" height="3.15833" fill="#53B188"/>
<rect x="108.281" y="232.173" width="1.72272" height="1.4356" fill="#44A978"/>
<rect x="86.4592" y="216.668" width="1.4356" height="1.72272" fill="#5DBE90"/>
<rect x="86.4592" y="218.391" width="1.4356" height="1.4356" fill="#62BC88"/>
<rect x="87.8948" y="219.827" width="1.72272" height="1.72272" fill="#62BC88"/>
<rect x="91.3403" y="222.985" width="1.14848" height="1.4356" fill="#62BC88"/>
<rect x="103.687" y="218.391" width="1.4356" height="7.46513" fill="#5DBD98"/>
<rect x="105.122" y="222.985" width="1.72272" height="2.8712" fill="#4EAD83"/>
<path d="M340.74 193.716L342.851 193.716V191.182H345.056V189.493H349.185V187.382H351.296V189.493H353.501V187.382H355.612V189.493H361.523V191.604H363.634V207.227H361.43V211.45H359.319V213.983L357.207 213.983V216.094L345.056 216.094V213.983H342.851L342.851 211.45H340.74V193.716Z" fill="#FC747E"/>
<rect x="340.74" y="193.716" width="2.11117" height="17.7338" fill="black"/>
<rect x="342.851" y="211.449" width="2.11117" height="2.5334" fill="black"/>
<path d="M344.963 213.983H357.207V216.094H344.963V213.983Z" fill="black"/>
<rect x="357.208" y="211.449" width="2.11117" height="2.5334" fill="black"/>
<rect x="361.43" y="191.604" width="2.11117" height="15.6227" fill="black"/>
<rect x="359.319" y="208.916" width="2.11117" height="2.5334" fill="black"/>
<path d="M355.518 189.493H361.43V191.604H357.63V194.56H355.518V198.36H353.407V194.56H355.518V191.604V189.493Z" fill="black"/>
<rect x="353.407" y="187.382" width="2.11117" height="2.11117" fill="black"/>
<rect x="349.185" y="187.382" width="2.11117" height="2.11117" fill="black"/>
<rect x="342.851" y="191.182" width="2.11117" height="2.5334" fill="black"/>
<path d="M344.963 189.493H349.185V191.182V194.56H351.296V198.36H349.185V194.56H347.074V191.182H344.963V189.493Z" fill="black"/>
<path d="M344.963 191.182H347.074V194.56H349.185V198.36H347.074H344.963V191.182Z" fill="#FFD8C9"/>
<rect x="344.963" y="198.36" width="2.11117" height="8.86691" fill="#FFFAE0"/>
<rect x="349.185" y="198.36" width="2.11117" height="5.48904" fill="#FFD8C9"/>
<rect x="349.185" y="203.849" width="2.11117" height="3.37787" fill="#F9ADC2"/>
<rect x="353.407" y="198.36" width="2.11117" height="2.95564" fill="#FFD8C9"/>
<path d="M355.518 194.56H357.629V191.604H359.741V194.56H358.052V196.671H355.518V194.56Z" fill="#FFD8C9"/>
<rect x="349.185" y="189.493" width="2.11117" height="2.11117" fill="#FFD8C9"/>
<path d="M351.296 189.493H353.407V191.604H355.518V194.56H353.407V198.36H351.296V194.56H349.185V191.604H351.296V189.493Z" fill="#F54665"/>
<rect x="351.296" y="198.36" width="2.11117" height="2.95564" fill="#F4495C"/>
<path d="M347.074 209.338H349.185V211.449H351.296V209.338H356.363V205.538H359.741V191.604H361.43V208.916H359.319V211.449H357.207V213.983H349.185H347.074V209.338Z" fill="#F54665"/>
<path d="M350.503 215.233H353.661V227.579H355.097V224.421H356.819V222.985H358.255V219.827H359.978V218.391H361.413V216.668H363.136V215.233H364.572V213.797H370.601V218.391H368.878V221.262H367.443V222.985H366.007V229.015H364.572V230.45H363.136V233.608H361.7V235.331H359.978V236.767H358.255V238.489H355.097V240.212H353.661H350.503V238.489L345.621 238.489V236.767H343.324V235.331H341.602V233.608H339.879V229.015H338.156V227.579H336.434V222.985H334.711V221.549H333.275V219.827H331.84V216.668H339.592V218.391H341.602V219.827H343.899V221.549H345.334V222.985H347.057V224.421H348.78V225.856H350.503V215.233Z" fill="#8FDE8F"/>
<rect x="331.84" y="216.668" width="1.4356" height="3.15832" fill="black"/>
<rect x="333.275" y="219.827" width="1.4356" height="1.72272" fill="black"/>
<rect x="334.711" y="221.549" width="1.72272" height="1.4356" fill="black"/>
<rect x="338.156" y="225.856" width="1.72272" height="3.15832" fill="black"/>
<rect x="339.879" y="229.015" width="1.72272" height="4.59393" fill="black"/>
<rect x="341.602" y="233.608" width="1.72272" height="1.72272" fill="black"/>
<rect x="343.324" y="235.331" width="2.29696" height="1.4356" fill="black"/>
<rect x="345.621" y="236.767" width="4.88105" height="1.72272" fill="black"/>
<rect x="350.502" y="238.49" width="4.59393" height="1.72272" fill="black"/>
<rect x="355.096" y="236.767" width="3.15832" height="1.72272" fill="black"/>
<rect x="358.255" y="235.331" width="1.72272" height="1.4356" fill="black"/>
<rect x="359.977" y="233.608" width="1.72272" height="1.72272" fill="black"/>
<rect x="363.136" y="229.015" width="1.4356" height="1.4356" fill="black"/>
<rect x="366.007" y="221.549" width="1.4356" height="1.4356" fill="black"/>
<rect x="367.443" y="218.391" width="1.4356" height="3.15833" fill="black"/>
<path d="M364.571 213.797H370.601V218.391H368.878V215.233H364.571V213.797Z" fill="black"/>
<rect x="361.7" y="230.45" width="1.4356" height="3.15833" fill="black"/>
<rect x="364.571" y="222.985" width="1.4356" height="6.02953" fill="black"/>
<rect x="336.434" y="222.985" width="1.72272" height="4.59393" fill="black"/>
<rect x="363.136" y="215.233" width="1.4356" height="1.4356" fill="black"/>
<rect x="361.413" y="216.668" width="1.72272" height="1.72272" fill="black"/>
<rect x="358.255" y="219.827" width="1.72272" height="1.72272" fill="black"/>
<rect x="339.592" y="218.391" width="2.00984" height="1.4356" fill="black"/>
<rect x="334.711" y="216.668" width="4.88105" height="1.72272" fill="black"/>
<rect x="341.602" y="219.827" width="2.29696" height="1.72272" fill="black"/>
<rect x="343.899" y="221.549" width="1.4356" height="1.4356" fill="black"/>
<rect x="350.502" y="215.233" width="3.15832" height="1.72272" fill="black"/>
<rect x="345.334" y="222.985" width="1.72272" height="1.4356" fill="black"/>
<rect x="356.819" y="222.985" width="1.4356" height="1.4356" fill="black"/>
<rect x="347.057" y="224.421" width="1.72272" height="1.4356" fill="black"/>
<rect x="353.661" y="235.331" width="1.4356" height="1.4356" fill="black"/>
<rect x="348.78" y="225.856" width="1.72272" height="3.15832" fill="black"/>
<rect x="350.502" y="229.015" width="1.4356" height="7.75225" fill="black"/>
<rect x="351.938" y="236.767" width="1.72272" height="1.72272" fill="black"/>
<rect x="355.096" y="224.421" width="1.72272" height="3.15833" fill="black"/>
<rect x="353.661" y="227.579" width="1.4356" height="6.02953" fill="black"/>
<rect x="359.977" y="218.391" width="1.4356" height="1.4356" fill="black"/>
<path d="M350.502 216.956H353.661V218.391V222.985H351.938V218.391H350.502V216.956Z" fill="#206B74"/>
<path d="M341.602 230.45H343.325V232.173H345.909V233.609H349.067V232.173H350.503V236.767H351.938V230.45H353.661V233.609H355.096H356.819V230.45H359.978V227.579H361.7V224.421H362.849V222.985H364.571V219.97H366.007V218.391H367.443V216.956H368.878V218.391H367.443V221.549H366.007V222.985H364.571V229.015H363.136V230.45H361.7V233.609H359.978V235.331H358.255V236.767H355.096V235.331H353.661V236.767H355.096V238.49H353.661V236.767H351.938V238.49H350.503V236.767H345.621V235.331H343.325V233.609H341.602V230.45Z" fill="#206B74"/>
<rect x="351.938" y="225.856" width="1.72272" height="3.15832" fill="#206B74"/>
<rect x="350.502" y="225.856" width="1.4356" height="3.15832" fill="#A2D2A6"/>
<rect x="334.711" y="218.391" width="1.72272" height="1.4356" fill="#F7EBE0"/>
<rect x="336.434" y="219.827" width="1.72272" height="1.72272" fill="#F7EBE0"/>
<path d="M338.156 221.549H340.74V222.985V224.421H339.305V222.985H338.156V221.549Z" fill="#F7EBE0"/>
<path d="M339.879 227.579H342.463V229.015H344.473V227.579H345.621V225.856H348.78V227.579V229.015H350.502V232.173H349.067V233.608H345.908V232.173H343.324V230.45H341.602V229.015H339.879V227.579Z" fill="#5ABD8E"/>
<rect x="351.938" y="229.015" width="1.72272" height="1.4356" fill="#44B07B"/>
<rect x="355.096" y="230.737" width="1.72272" height="1.4356" fill="#54BE8E"/>
<rect x="358.255" y="228.728" width="1.72272" height="1.72272" fill="#51B982"/>
<rect x="359.977" y="225.856" width="1.72272" height="1.72272" fill="#51B982"/>
<rect x="356.819" y="225.856" width="1.72272" height="1.72272" fill="#51B982"/>
<rect x="358.255" y="221.549" width="1.72272" height="1.4356" fill="#5BBE8A"/>
<rect x="358.255" y="222.985" width="1.72272" height="1.4356" fill="#FDE6C5"/>
<rect x="363.136" y="216.668" width="1.4356" height="1.72272" fill="#E0EFAC"/>
<rect x="366.007" y="215.233" width="1.4356" height="1.72272" fill="#E0EFAC"/>
<rect x="367.443" y="215.233" width="1.4356" height="1.72272" fill="#4BB78D"/>
<rect x="366.007" y="216.956" width="1.4356" height="1.4356" fill="#4BB78D"/>
<rect x="362.849" y="219.827" width="1.72272" height="3.15833" fill="#53B188"/>
<rect x="355.096" y="232.173" width="1.72272" height="1.4356" fill="#44A978"/>
<rect x="333.275" y="216.668" width="1.4356" height="1.72272" fill="#5DBE90"/>
<rect x="333.275" y="218.391" width="1.4356" height="1.4356" fill="#62BC88"/>
<rect x="334.711" y="219.827" width="1.72272" height="1.72272" fill="#62BC88"/>
<rect x="338.156" y="222.985" width="1.14848" height="1.4356" fill="#62BC88"/>
<rect x="350.502" y="218.391" width="1.4356" height="7.46513" fill="#5DBD98"/>
<rect x="351.938" y="222.985" width="1.72272" height="2.8712" fill="#4EAD83"/>
<path d="M192.981 193.716L195.092 193.716V191.182H197.296V189.493H201.425V187.382H203.537V189.493H205.741V187.382H207.852V189.493H213.764V191.604H215.875V207.227H213.67V211.45H211.559V213.983L209.448 213.983V216.094L197.296 216.094V213.983H195.092L195.092 211.45H192.981V193.716Z" fill="#FC747E"/>
<rect x="192.981" y="193.716" width="2.11117" height="17.7338" fill="black"/>
<rect x="195.092" y="211.449" width="2.11117" height="2.5334" fill="black"/>
<path d="M197.203 213.983H209.448V216.094H197.203V213.983Z" fill="black"/>
<rect x="209.448" y="211.449" width="2.11117" height="2.5334" fill="black"/>
<rect x="213.67" y="191.604" width="2.11117" height="15.6227" fill="black"/>
<rect x="211.559" y="208.916" width="2.11117" height="2.5334" fill="black"/>
<path d="M207.759 189.493H213.67V191.604H209.87V194.56H207.759V198.36H205.648V194.56H207.759V191.604V189.493Z" fill="black"/>
<rect x="205.648" y="187.382" width="2.11117" height="2.11117" fill="black"/>
<rect x="201.425" y="187.382" width="2.11117" height="2.11117" fill="black"/>
<rect x="195.092" y="191.182" width="2.11117" height="2.5334" fill="black"/>
<path d="M197.203 189.493H201.425V191.182V194.56H203.537V198.36H201.425V194.56H199.314V191.182H197.203V189.493Z" fill="black"/>
<path d="M197.203 191.182H199.314V194.56H201.425V198.36H199.314H197.203V191.182Z" fill="#FFD8C9"/>
<rect x="197.203" y="198.36" width="2.11117" height="8.86691" fill="#FFFAE0"/>
<rect x="201.425" y="198.36" width="2.11117" height="5.48904" fill="#FFD8C9"/>
<rect x="201.425" y="203.849" width="2.11117" height="3.37787" fill="#F9ADC2"/>
<rect x="205.648" y="198.36" width="2.11117" height="2.95564" fill="#FFD8C9"/>
<path d="M207.759 194.56H209.87V191.604H211.981V194.56H210.292V196.671H207.759V194.56Z" fill="#FFD8C9"/>
<rect x="201.425" y="189.493" width="2.11117" height="2.11117" fill="#FFD8C9"/>
<path d="M203.536 189.493H205.648V191.604H207.759V194.56H205.648V198.36H203.536V194.56H201.425V191.604H203.536V189.493Z" fill="#F54665"/>
<rect x="203.537" y="198.36" width="2.11117" height="2.95564" fill="#F4495C"/>
<path d="M199.314 209.338H201.425V211.449H203.537V209.338H208.603V205.538H211.981V191.604H213.67V208.916H211.559V211.449H209.448V213.983H201.425H199.314V209.338Z" fill="#F54665"/>
<path d="M202.743 215.233H205.901V227.579H207.337V224.421H209.06V222.985H210.495V219.827H212.218V218.391H213.654V216.668H215.376V215.233H216.812V213.797H222.842V218.391H221.119V221.262H219.683V222.985H218.248V229.015H216.812V230.45H215.376V233.608H213.941V235.331H212.218V236.767H210.495V238.489H207.337V240.212H205.901H202.743V238.489L197.862 238.489V236.767H195.565V235.331H193.842V233.608H192.119V229.015H190.397V227.579H188.674V222.985H186.951V221.549H185.516V219.827H184.08V216.668H191.832V218.391H193.842V219.827H196.139V221.549H197.575V222.985H199.297V224.421H201.02V225.856H202.743V215.233Z" fill="#8FDE8F"/>
<rect x="184.08" y="216.668" width="1.4356" height="3.15832" fill="black"/>
<rect x="185.516" y="219.827" width="1.4356" height="1.72272" fill="black"/>
<rect x="186.951" y="221.549" width="1.72272" height="1.4356" fill="black"/>
<rect x="190.397" y="225.856" width="1.72272" height="3.15832" fill="black"/>
<rect x="192.119" y="229.015" width="1.72272" height="4.59393" fill="black"/>
<rect x="193.842" y="233.608" width="1.72272" height="1.72272" fill="black"/>
<rect x="195.565" y="235.331" width="2.29696" height="1.4356" fill="black"/>
<rect x="197.862" y="236.767" width="4.88105" height="1.72272" fill="black"/>
<rect x="202.743" y="238.49" width="4.59393" height="1.72272" fill="black"/>
<rect x="207.337" y="236.767" width="3.15832" height="1.72272" fill="black"/>
<rect x="210.495" y="235.331" width="1.72272" height="1.4356" fill="black"/>
<rect x="212.218" y="233.608" width="1.72272" height="1.72272" fill="black"/>
<rect x="215.376" y="229.015" width="1.4356" height="1.4356" fill="black"/>
<rect x="218.247" y="221.549" width="1.4356" height="1.4356" fill="black"/>
<rect x="219.683" y="218.391" width="1.4356" height="3.15833" fill="black"/>
<path d="M216.812 213.797H222.841V218.391H221.119V215.233H216.812V213.797Z" fill="black"/>
<rect x="213.941" y="230.45" width="1.4356" height="3.15833" fill="black"/>
<rect x="216.812" y="222.985" width="1.4356" height="6.02953" fill="black"/>
<rect x="188.674" y="222.985" width="1.72272" height="4.59393" fill="black"/>
<rect x="215.376" y="215.233" width="1.4356" height="1.4356" fill="black"/>
<rect x="213.654" y="216.668" width="1.72272" height="1.72272" fill="black"/>
<rect x="210.495" y="219.827" width="1.72272" height="1.72272" fill="black"/>
<rect x="191.832" y="218.391" width="2.00984" height="1.4356" fill="black"/>
<rect x="186.951" y="216.668" width="4.88105" height="1.72272" fill="black"/>
<rect x="193.842" y="219.827" width="2.29696" height="1.72272" fill="black"/>
<rect x="196.139" y="221.549" width="1.4356" height="1.4356" fill="black"/>
<rect x="202.743" y="215.233" width="3.15832" height="1.72272" fill="black"/>
<rect x="197.575" y="222.985" width="1.72272" height="1.4356" fill="black"/>
<rect x="209.06" y="222.985" width="1.4356" height="1.4356" fill="black"/>
<rect x="199.297" y="224.421" width="1.72272" height="1.4356" fill="black"/>
<rect x="205.901" y="235.331" width="1.4356" height="1.4356" fill="black"/>
<rect x="201.02" y="225.856" width="1.72272" height="3.15832" fill="black"/>
<rect x="202.743" y="229.015" width="1.4356" height="7.75225" fill="black"/>
<rect x="204.178" y="236.767" width="1.72272" height="1.72272" fill="black"/>
<rect x="207.337" y="224.421" width="1.72272" height="3.15833" fill="black"/>
<rect x="205.901" y="227.579" width="1.4356" height="6.02953" fill="black"/>
<rect x="212.218" y="218.391" width="1.4356" height="1.4356" fill="black"/>
<path d="M202.743 216.956H205.901V218.391V222.985H204.179V218.391H202.743V216.956Z" fill="#206B74"/>
<path d="M193.842 230.45H195.565V232.173H198.149V233.609H201.307V232.173H202.743V236.767H204.179V230.45H205.901V233.609H207.337H209.06V230.45H212.218V227.579H213.941V224.421H215.089V222.985H216.812V219.97H218.248V218.391H219.683V216.956H221.119V218.391H219.683V221.549H218.248V222.985H216.812V229.015H215.376V230.45H213.941V233.609H212.218V235.331H210.495V236.767H207.337V235.331H205.901V236.767H207.337V238.49H205.901V236.767H204.179V238.49H202.743V236.767H197.862V235.331H195.565V233.609H193.842V230.45Z" fill="#206B74"/>
<rect x="204.178" y="225.856" width="1.72272" height="3.15832" fill="#206B74"/>
<rect x="202.743" y="225.856" width="1.4356" height="3.15832" fill="#A2D2A6"/>
<rect x="186.951" y="218.391" width="1.72272" height="1.4356" fill="#F7EBE0"/>
<rect x="188.674" y="219.827" width="1.72272" height="1.72272" fill="#F7EBE0"/>
<path d="M190.397 221.549H192.981V222.985V224.421H191.545V222.985H190.397V221.549Z" fill="#F7EBE0"/>
<path d="M192.119 227.579H194.703V229.015H196.713V227.579H197.862V225.856H201.02V227.579V229.015H202.743V232.173H201.307V233.608H198.149V232.173H195.565V230.45H193.842V229.015H192.119V227.579Z" fill="#5ABD8E"/>
<rect x="204.178" y="229.015" width="1.72272" height="1.4356" fill="#44B07B"/>
<rect x="207.337" y="230.737" width="1.72272" height="1.4356" fill="#54BE8E"/>
<rect x="210.495" y="228.728" width="1.72272" height="1.72272" fill="#51B982"/>
<rect x="212.218" y="225.856" width="1.72272" height="1.72272" fill="#51B982"/>
<rect x="209.06" y="225.856" width="1.72272" height="1.72272" fill="#51B982"/>
<rect x="210.495" y="221.549" width="1.72272" height="1.4356" fill="#5BBE8A"/>
<rect x="210.495" y="222.985" width="1.72272" height="1.4356" fill="#FDE6C5"/>
<rect x="215.376" y="216.668" width="1.4356" height="1.72272" fill="#E0EFAC"/>
<rect x="218.247" y="215.233" width="1.4356" height="1.72272" fill="#E0EFAC"/>
<rect x="219.683" y="215.233" width="1.4356" height="1.72272" fill="#4BB78D"/>
<rect x="218.247" y="216.956" width="1.4356" height="1.4356" fill="#4BB78D"/>
<rect x="215.089" y="219.827" width="1.72272" height="3.15833" fill="#53B188"/>
<rect x="207.337" y="232.173" width="1.72272" height="1.4356" fill="#44A978"/>
<rect x="185.516" y="216.668" width="1.4356" height="1.72272" fill="#5DBE90"/>
<rect x="185.516" y="218.391" width="1.4356" height="1.4356" fill="#62BC88"/>
<rect x="186.951" y="219.827" width="1.72272" height="1.72272" fill="#62BC88"/>
<rect x="190.397" y="222.985" width="1.14848" height="1.4356" fill="#62BC88"/>
<rect x="202.743" y="218.391" width="1.4356" height="7.46513" fill="#5DBD98"/>
<rect x="204.178" y="222.985" width="1.72272" height="2.8712" fill="#4EAD83"/>
<path d="M292.037 193.716L294.149 193.716V191.182H296.353V189.493H300.482V187.382H302.593V189.493H304.798V187.382H306.909V189.493H312.82V191.604H314.931V207.227H312.727V211.45H310.616V213.983L308.504 213.983V216.094L296.353 216.094V213.983H294.149L294.149 211.45H292.037V193.716Z" fill="white"/>
<rect x="292.037" y="193.716" width="2.11117" height="17.7338" fill="black"/>
<rect x="294.148" y="211.449" width="2.11117" height="2.5334" fill="black"/>
<path d="M296.26 213.983H308.505V216.094H296.26V213.983Z" fill="black"/>
<rect x="308.505" y="211.449" width="2.11117" height="2.5334" fill="black"/>
<rect x="312.727" y="191.604" width="2.11117" height="15.6227" fill="black"/>
<rect x="310.616" y="208.916" width="2.11117" height="2.5334" fill="black"/>
<path d="M306.816 189.493H312.727V191.604H308.927V194.56H306.816V198.36H304.704V194.56H306.816V191.604V189.493Z" fill="black"/>
<rect x="304.704" y="187.382" width="2.11117" height="2.11117" fill="black"/>
<rect x="300.482" y="187.382" width="2.11117" height="2.11117" fill="black"/>
<rect x="294.148" y="191.182" width="2.11117" height="2.5334" fill="black"/>
<path d="M296.26 189.493H300.482V191.182V194.56H302.593V198.36H300.482V194.56H298.371V191.182H296.26V189.493Z" fill="black"/>
<path d="M296.26 191.182H298.371V194.56H300.482V198.36H298.371H296.26V191.182Z" fill="#E2EAF1"/>
<rect x="296.26" y="198.36" width="2.11117" height="8.86691" fill="#E3F1FC"/>
<rect x="300.482" y="198.36" width="2.11117" height="5.48904" fill="#CFDBE7"/>
<rect x="300.482" y="203.849" width="2.11117" height="3.37787" fill="#F3F5F7"/>
<rect x="304.704" y="198.36" width="2.11117" height="2.95564" fill="#F2F9FF"/>
<path d="M306.815 194.56H308.927V191.604H311.038V194.56H309.349V196.671H306.815V194.56Z" fill="#F2F9FF"/>
<rect x="300.482" y="189.493" width="2.11117" height="2.11117" fill="#F2F9FF"/>
<path d="M302.593 189.493H304.704V191.604H306.815V194.56H304.704V198.36H302.593V194.56H300.482V191.604H302.593V189.493Z" fill="#8A96A1"/>
<rect x="302.593" y="198.36" width="2.11117" height="2.95564" fill="#A0BBD4"/>
<path d="M298.371 209.338H300.482V211.449H302.593V209.338H307.66V205.538H311.038V191.604H312.727V208.916H310.616V211.449H308.504V213.983H300.482H298.371V209.338Z" fill="#B8C9D8"/>
<path d="M301.8 215.233H304.958V227.579H306.394V224.421H308.116V222.985H309.552V219.827H311.275V218.391H312.71V216.668H314.433V215.233H315.869V213.797H321.898V218.391H320.175V221.262H318.74V222.985H317.304V229.015H315.869V230.45H314.433V233.608H312.997V235.331H311.275V236.767H309.552V238.489H306.394V240.212H304.958H301.8V238.489L296.918 238.489V236.767H294.622V235.331H292.899V233.608H291.176V229.015H289.453V227.579H287.731V222.985H286.008V221.549H284.572V219.827H283.137V216.668H290.889V218.391H292.899V219.827H295.196V221.549H296.631V222.985H298.354V224.421H300.077V225.856H301.8V215.233Z" fill="#8FDE8F"/>
<rect x="283.137" y="216.668" width="1.4356" height="3.15832" fill="black"/>
<rect x="284.572" y="219.827" width="1.4356" height="1.72272" fill="black"/>
<rect x="286.008" y="221.549" width="1.72272" height="1.4356" fill="black"/>
<rect x="289.453" y="225.856" width="1.72272" height="3.15832" fill="black"/>
<rect x="291.176" y="229.015" width="1.72272" height="4.59393" fill="black"/>
<rect x="292.899" y="233.608" width="1.72272" height="1.72272" fill="black"/>
<rect x="294.622" y="235.331" width="2.29696" height="1.4356" fill="black"/>
<rect x="296.918" y="236.767" width="4.88105" height="1.72272" fill="black"/>
<rect x="301.8" y="238.49" width="4.59393" height="1.72272" fill="black"/>
<rect x="306.394" y="236.767" width="3.15832" height="1.72272" fill="black"/>
<rect x="309.552" y="235.331" width="1.72272" height="1.4356" fill="black"/>
<rect x="311.274" y="233.608" width="1.72272" height="1.72272" fill="black"/>
<rect x="314.433" y="229.015" width="1.4356" height="1.4356" fill="black"/>
<rect x="317.304" y="221.549" width="1.4356" height="1.4356" fill="black"/>
<rect x="318.74" y="218.391" width="1.4356" height="3.15833" fill="black"/>
<path d="M315.868 213.797H321.898V218.391H320.175V215.233H315.868V213.797Z" fill="black"/>
<rect x="312.997" y="230.45" width="1.4356" height="3.15833" fill="black"/>
<rect x="315.868" y="222.985" width="1.4356" height="6.02953" fill="black"/>
<rect x="287.731" y="222.985" width="1.72272" height="4.59393" fill="black"/>
<rect x="314.433" y="215.233" width="1.4356" height="1.4356" fill="black"/>
<rect x="312.71" y="216.668" width="1.72272" height="1.72272" fill="black"/>
<rect x="309.552" y="219.827" width="1.72272" height="1.72272" fill="black"/>
<rect x="290.889" y="218.391" width="2.00984" height="1.4356" fill="black"/>
<rect x="286.008" y="216.668" width="4.88105" height="1.72272" fill="black"/>
<rect x="292.899" y="219.827" width="2.29696" height="1.72272" fill="black"/>
<rect x="295.196" y="221.549" width="1.4356" height="1.4356" fill="black"/>
<rect x="301.8" y="215.233" width="3.15832" height="1.72272" fill="black"/>
<rect x="296.631" y="222.985" width="1.72272" height="1.4356" fill="black"/>
<rect x="308.116" y="222.985" width="1.4356" height="1.4356" fill="black"/>
<rect x="298.354" y="224.421" width="1.72272" height="1.4356" fill="black"/>
<rect x="304.958" y="235.331" width="1.4356" height="1.4356" fill="black"/>
<rect x="300.077" y="225.856" width="1.72272" height="3.15832" fill="black"/>
<rect x="301.8" y="229.015" width="1.4356" height="7.75225" fill="black"/>
<rect x="303.235" y="236.767" width="1.72272" height="1.72272" fill="black"/>
<rect x="306.394" y="224.421" width="1.72272" height="3.15833" fill="black"/>
<rect x="304.958" y="227.579" width="1.4356" height="6.02953" fill="black"/>
<rect x="311.274" y="218.391" width="1.4356" height="1.4356" fill="black"/>
<path d="M301.8 216.956H304.958V218.391V222.985H303.235V218.391H301.8V216.956Z" fill="#206B74"/>
<path d="M292.899 230.45H294.622V232.173H297.206V233.609H300.364V232.173H301.8V236.767H303.235V230.45H304.958V233.609H306.394H308.116V230.45H311.275V227.579H312.997V224.421H314.146V222.985H315.869V219.97H317.304V218.391H318.74V216.956H320.175V218.391H318.74V221.549H317.304V222.985H315.869V229.015H314.433V230.45H312.997V233.609H311.275V235.331H309.552V236.767H306.394V235.331H304.958V236.767H306.394V238.49H304.958V236.767H303.235V238.49H301.8V236.767H296.919V235.331H294.622V233.609H292.899V230.45Z" fill="#206B74"/>
<rect x="303.235" y="225.856" width="1.72272" height="3.15832" fill="#206B74"/>
<rect x="301.8" y="225.856" width="1.4356" height="3.15832" fill="#A2D2A6"/>
<rect x="286.008" y="218.391" width="1.72272" height="1.4356" fill="#F7EBE0"/>
<rect x="287.731" y="219.827" width="1.72272" height="1.72272" fill="#F7EBE0"/>
<path d="M289.453 221.549H292.037V222.985V224.421H290.602V222.985H289.453V221.549Z" fill="#F7EBE0"/>
<path d="M291.176 227.579H293.76V229.015H295.77V227.579H296.918V225.856H300.077V227.579V229.015H301.799V232.173H300.364V233.608H297.206V232.173H294.621V230.45H292.899V229.015H291.176V227.579Z" fill="#5ABD8E"/>
<rect x="303.235" y="229.015" width="1.72272" height="1.4356" fill="#44B07B"/>
<rect x="306.394" y="230.737" width="1.72272" height="1.4356" fill="#54BE8E"/>
<rect x="309.552" y="228.728" width="1.72272" height="1.72272" fill="#51B982"/>
<rect x="311.274" y="225.856" width="1.72272" height="1.72272" fill="#51B982"/>
<rect x="308.116" y="225.856" width="1.72272" height="1.72272" fill="#51B982"/>
<rect x="309.552" y="221.549" width="1.72272" height="1.4356" fill="#5BBE8A"/>
<rect x="309.552" y="222.985" width="1.72272" height="1.4356" fill="#FDE6C5"/>
<rect x="314.433" y="216.668" width="1.4356" height="1.72272" fill="#E0EFAC"/>
<rect x="317.304" y="215.233" width="1.4356" height="1.72272" fill="#E0EFAC"/>
<rect x="318.74" y="215.233" width="1.4356" height="1.72272" fill="#4BB78D"/>
<rect x="317.304" y="216.956" width="1.4356" height="1.4356" fill="#4BB78D"/>
<rect x="314.146" y="219.827" width="1.72272" height="3.15833" fill="#53B188"/>
<rect x="306.394" y="232.173" width="1.72272" height="1.4356" fill="#44A978"/>
<rect x="284.572" y="216.668" width="1.4356" height="1.72272" fill="#5DBE90"/>
<rect x="284.572" y="218.391" width="1.4356" height="1.4356" fill="#62BC88"/>
<rect x="286.008" y="219.827" width="1.72272" height="1.72272" fill="#62BC88"/>
<rect x="289.453" y="222.985" width="1.14848" height="1.4356" fill="#62BC88"/>
<rect x="301.8" y="218.391" width="1.4356" height="7.46513" fill="#5DBD98"/>
<rect x="303.235" y="222.985" width="1.72272" height="2.8712" fill="#4EAD83"/>
<path d="M243.334 193.716L245.446 193.716V191.182H247.65V189.493H251.779V187.382H253.89V189.493H256.095V187.382H258.206V189.493H264.117V191.604H266.229V207.227H264.024V211.45H261.913V213.983L259.802 213.983V216.094L247.65 216.094V213.983H245.446L245.446 211.45H243.334V193.716Z" fill="#F8F478"/>
<rect x="243.334" y="193.716" width="2.11117" height="17.7338" fill="black"/>
<rect x="245.446" y="211.449" width="2.11117" height="2.5334" fill="black"/>
<path d="M247.557 213.983H259.802V216.094H247.557V213.983Z" fill="black"/>
<rect x="259.802" y="211.449" width="2.11117" height="2.5334" fill="black"/>
<rect x="264.024" y="191.604" width="2.11117" height="15.6227" fill="black"/>
<rect x="261.913" y="208.916" width="2.11117" height="2.5334" fill="black"/>
<path d="M258.113 189.493H264.024V191.604H260.224V194.56H258.113V198.36H256.001V194.56H258.113V191.604V189.493Z" fill="black"/>
<rect x="256.001" y="187.382" width="2.11117" height="2.11117" fill="black"/>
<rect x="251.779" y="187.382" width="2.11117" height="2.11117" fill="black"/>
<rect x="245.446" y="191.182" width="2.11117" height="2.5334" fill="black"/>
<path d="M247.557 189.493H251.779V191.182V194.56H253.89V198.36H251.779V194.56H249.668V191.182H247.557V189.493Z" fill="black"/>
<path d="M247.557 191.182H249.668V194.56H251.779V198.36H249.668H247.557V191.182Z" fill="#FFFDC8"/>
<rect x="247.557" y="198.36" width="2.11117" height="8.86691" fill="#FFFAE0"/>
<rect x="251.779" y="198.36" width="2.11117" height="5.48904" fill="#FFFDC8"/>
<rect x="251.779" y="203.849" width="2.11117" height="3.37787" fill="#FFD584"/>
<rect x="256.001" y="198.36" width="2.11117" height="2.95564" fill="#FFFDC8"/>
<path d="M258.113 194.56H260.224V191.604H262.335V194.56H260.646V196.671H258.113V194.56Z" fill="#FFFDC8"/>
<rect x="251.779" y="189.493" width="2.11117" height="2.11117" fill="#FFFDC8"/>
<path d="M253.89 189.493H256.001V191.604H258.113V194.56H256.001V198.36H253.89V194.56H251.779V191.604H253.89V189.493Z" fill="#FDDF73"/>
<rect x="253.89" y="198.36" width="2.11117" height="2.95564" fill="#FFD336"/>
<path d="M249.668 209.338H251.779V211.449H253.89V209.338H258.957V205.538H262.335V191.604H264.024V208.916H261.913V211.449H259.802V213.983H251.779H249.668V209.338Z" fill="#FDDF73"/>
<path d="M253.097 215.233H256.255V227.579H257.691V224.421H259.414V222.985H260.849V219.827H262.572V218.391H264.007V216.668H265.73V215.233H267.166V213.797H273.195V218.391H271.473V221.262H270.037V222.985H268.601V229.015H267.166V230.45H265.73V233.608H264.295V235.331H262.572V236.767H260.849V238.489H257.691V240.212H256.255H253.097V238.489L248.216 238.489V236.767H245.919V235.331H244.196V233.608H242.473V229.015H240.75V227.579H239.028V222.985H237.305V221.549H235.869V219.827H234.434V216.668H242.186V218.391H244.196V219.827H246.493V221.549H247.928V222.985H249.651V224.421H251.374V225.856H253.097V215.233Z" fill="#8FDE8F"/>
<rect x="234.434" y="216.668" width="1.4356" height="3.15832" fill="black"/>
<rect x="235.869" y="219.827" width="1.4356" height="1.72272" fill="black"/>
<rect x="237.305" y="221.549" width="1.72272" height="1.4356" fill="black"/>
<rect x="240.75" y="225.856" width="1.72272" height="3.15832" fill="black"/>
<rect x="242.473" y="229.015" width="1.72272" height="4.59393" fill="black"/>
<rect x="244.196" y="233.608" width="1.72272" height="1.72272" fill="black"/>
<rect x="245.919" y="235.331" width="2.29696" height="1.4356" fill="black"/>
<rect x="248.216" y="236.767" width="4.88105" height="1.72272" fill="black"/>
<rect x="253.097" y="238.49" width="4.59393" height="1.72272" fill="black"/>
<rect x="257.691" y="236.767" width="3.15832" height="1.72272" fill="black"/>
<rect x="260.849" y="235.331" width="1.72272" height="1.4356" fill="black"/>
<rect x="262.572" y="233.608" width="1.72272" height="1.72272" fill="black"/>
<rect x="265.73" y="229.015" width="1.4356" height="1.4356" fill="black"/>
<rect x="268.601" y="221.549" width="1.4356" height="1.4356" fill="black"/>
<rect x="270.037" y="218.391" width="1.4356" height="3.15833" fill="black"/>
<path d="M267.166 213.797H273.195V218.391H271.472V215.233H267.166V213.797Z" fill="black"/>
<rect x="264.294" y="230.45" width="1.4356" height="3.15833" fill="black"/>
<rect x="267.166" y="222.985" width="1.4356" height="6.02953" fill="black"/>
<rect x="239.028" y="222.985" width="1.72272" height="4.59393" fill="black"/>
<rect x="265.73" y="215.233" width="1.4356" height="1.4356" fill="black"/>
<rect x="264.007" y="216.668" width="1.72272" height="1.72272" fill="black"/>
<rect x="260.849" y="219.827" width="1.72272" height="1.72272" fill="black"/>
<rect x="242.186" y="218.391" width="2.00984" height="1.4356" fill="black"/>
<rect x="237.305" y="216.668" width="4.88105" height="1.72272" fill="black"/>
<rect x="244.196" y="219.827" width="2.29696" height="1.72272" fill="black"/>
<rect x="246.493" y="221.549" width="1.4356" height="1.4356" fill="black"/>
<rect x="253.097" y="215.233" width="3.15832" height="1.72272" fill="black"/>
<rect x="247.928" y="222.985" width="1.72272" height="1.4356" fill="black"/>
<rect x="259.413" y="222.985" width="1.4356" height="1.4356" fill="black"/>
<rect x="249.651" y="224.421" width="1.72272" height="1.4356" fill="black"/>
<rect x="256.255" y="235.331" width="1.4356" height="1.4356" fill="black"/>
<rect x="251.374" y="225.856" width="1.72272" height="3.15832" fill="black"/>
<rect x="253.097" y="229.015" width="1.4356" height="7.75225" fill="black"/>
<rect x="254.532" y="236.767" width="1.72272" height="1.72272" fill="black"/>
<rect x="257.691" y="224.421" width="1.72272" height="3.15833" fill="black"/>
<rect x="256.255" y="227.579" width="1.4356" height="6.02953" fill="black"/>
<rect x="262.572" y="218.391" width="1.4356" height="1.4356" fill="black"/>
<path d="M253.097 216.956H256.255V218.391V222.985H254.532V218.391H253.097V216.956Z" fill="#206B74"/>
<path d="M244.196 230.45H245.919V232.173H248.503V233.609H251.661V232.173H253.097V236.767H254.532V230.45H256.255V233.609H257.691H259.413V230.45H262.572V227.579H264.294V224.421H265.443V222.985H267.166V219.97H268.601V218.391H270.037V216.956H271.472V218.391H270.037V221.549H268.601V222.985H267.166V229.015H265.73V230.45H264.294V233.609H262.572V235.331H260.849V236.767H257.691V235.331H256.255V236.767H257.691V238.49H256.255V236.767H254.532V238.49H253.097V236.767H248.216V235.331H245.919V233.609H244.196V230.45Z" fill="#206B74"/>
<rect x="254.532" y="225.856" width="1.72272" height="3.15832" fill="#206B74"/>
<rect x="253.097" y="225.856" width="1.4356" height="3.15832" fill="#A2D2A6"/>
<rect x="237.305" y="218.391" width="1.72272" height="1.4356" fill="#F7EBE0"/>
<rect x="239.028" y="219.827" width="1.72272" height="1.72272" fill="#F7EBE0"/>
<path d="M240.75 221.549H243.335V222.985V224.421H241.899V222.985H240.75V221.549Z" fill="#F7EBE0"/>
<path d="M242.473 227.579H245.057V229.015H247.067V227.579H248.216V225.856H251.374V227.579V229.015H253.097V232.173H251.661V233.608H248.503V232.173H245.919V230.45H244.196V229.015H242.473V227.579Z" fill="#5ABD8E"/>
<rect x="254.532" y="229.015" width="1.72272" height="1.4356" fill="#44B07B"/>
<rect x="257.691" y="230.737" width="1.72272" height="1.4356" fill="#54BE8E"/>
<rect x="260.849" y="228.728" width="1.72272" height="1.72272" fill="#51B982"/>
<rect x="262.572" y="225.856" width="1.72272" height="1.72272" fill="#51B982"/>
<rect x="259.413" y="225.856" width="1.72272" height="1.72272" fill="#51B982"/>
<rect x="260.849" y="221.549" width="1.72272" height="1.4356" fill="#5BBE8A"/>
<rect x="260.849" y="222.985" width="1.72272" height="1.4356" fill="#FDE6C5"/>
<rect x="265.73" y="216.668" width="1.4356" height="1.72272" fill="#E0EFAC"/>
<rect x="268.601" y="215.233" width="1.4356" height="1.72272" fill="#E0EFAC"/>
<rect x="270.037" y="215.233" width="1.4356" height="1.72272" fill="#4BB78D"/>
<rect x="268.601" y="216.956" width="1.4356" height="1.4356" fill="#4BB78D"/>
<rect x="265.443" y="219.827" width="1.72272" height="3.15833" fill="#53B188"/>
<rect x="257.691" y="232.173" width="1.72272" height="1.4356" fill="#44A978"/>
<rect x="235.869" y="216.668" width="1.4356" height="1.72272" fill="#5DBE90"/>
<rect x="235.869" y="218.391" width="1.4356" height="1.4356" fill="#62BC88"/>
<rect x="237.305" y="219.827" width="1.72272" height="1.72272" fill="#62BC88"/>
<rect x="240.75" y="222.985" width="1.14848" height="1.4356" fill="#62BC88"/>
<rect x="253.097" y="218.391" width="1.4356" height="7.46513" fill="#5DBD98"/>
<rect x="254.532" y="222.985" width="1.72272" height="2.8712" fill="#4EAD83"/>
<rect x="387.972" y="8.25464" width="9.90566" height="250.943" fill="#0A7441"/>
<rect x="17.335" y="259.198" width="370.637" height="9.08019" fill="#0A7441"/>
</svg>
