<svg width="128" height="128" viewBox="0 0 128 128" fill="none" xmlns="http://www.w3.org/2000/svg">
<path d="M8 0H120V8H16V16H8V112H16V120H112V112H120V16H112V8H120H128V120H121V128H16H8V120H0V16V8H8V0Z" fill="black"/>
<path d="M48 24H56V56H24V80H48V104H56V112H72V104H80V80H104V72H112V56H104V48H80V24H72V16H56V24H72V56H104V72H80H72V104H56V72H16V56H24V48H48V24Z" fill="black"/>
<rect x="56" y="56" width="16" height="16" fill="#DCD2D2"/>
<rect x="112" y="16" width="8" height="96" fill="#DCD2D2"/>
<path d="M16 7.5H112V16V56H104V48H80V24H72V16H56V24H48V48H24V56H16V72H24V80H48V104H56V112H72V104H80V80H104V72H112V120H72H56H48H16V112H8V15.5H16V7.5Z" fill="white"/>
<path d="M24 56H56V24H72V56H56V72V104H72V72V56H104V72H56H24V56Z" fill="white"/>
</svg>
