<svg width="73" height="99" viewBox="0 0 73 99" fill="none" xmlns="http://www.w3.org/2000/svg">
<path d="M6.5625 13.125H13.125V19.6875H6.5625V13.125Z" fill="#212529"/>
<path d="M32.8125 87.5H39.375V94.0625H32.8125V87.5Z" fill="#212529"/>
<path d="M32.8125 80.9375H39.375V87.5H32.8125V80.9375Z" fill="#212529"/>
<path d="M32.8125 65.625H39.375V72.1875H32.8125V65.625Z" fill="#212529"/>
<path d="M32.8125 59.0625H39.375V65.625H32.8125V59.0625Z" fill="#212529"/>
<path d="M32.8125 52.5H39.375V59.0625H32.8125V52.5Z" fill="#212529"/>
<path d="M39.375 45.9375H45.9375V52.5H39.375V45.9375Z" fill="#212529"/>
<path d="M45.9375 39.375H52.5V45.9375H45.9375V39.375Z" fill="#212529"/>
<path d="M26.25 80.9375H32.8125V94.0625H26.25V80.9375Z" fill="#212529"/>
<path d="M26.25 65.625H32.8125V72.1875H26.25V65.625Z" fill="#212529"/>
<path d="M26.25 59.0625H32.8125V65.625H26.25V59.0625Z" fill="#212529"/>
<path d="M6.5625 19.6875H13.125V26.25H6.5625V19.6875Z" fill="#212529"/>
<path d="M6.5625 26.25H13.125V32.8125H6.5625V26.25Z" fill="#A3A3A3"/>
<path d="M39.375 80.9375H41.5625V94.0625H39.375V80.9375Z" fill="#A3A3A3"/>
<path d="M41.5625 80.9375H43.75V96.25H41.5625V80.9375Z" fill="#A3A3A3"/>
<path d="M43.75 80.9375H45.9375V98.4375H43.75V80.9375Z" fill="#A3A3A3"/>
<path d="M26.25 94.0625H45.9375V96.25H26.25V94.0625Z" fill="#A3A3A3"/>
<path d="M28.4375 96.25H45.9375V98.4375H28.4375V96.25Z" fill="#A3A3A3"/>
<path d="M26.25 72.1875H39.375V78.75H26.25V72.1875Z" fill="#A3A3A3"/>
<path d="M39.375 59.0625H45.9375V78.75H39.375V59.0625Z" fill="#A3A3A3"/>
<path d="M45.9375 52.5H52.5V59.0625H45.9375V52.5Z" fill="#A3A3A3"/>
<path d="M52.5 45.9375H59.0625V52.5H52.5V45.9375Z" fill="#A3A3A3"/>
<path d="M59.0625 39.375H65.625V45.9375H59.0625V39.375Z" fill="#A3A3A3"/>
<path d="M65.625 13.125H72.1875V39.375H65.625V13.125Z" fill="#A3A3A3"/>
<path d="M52.5 0H59.0625V6.5625H52.5V0Z" fill="#A3A3A3"/>
<path d="M59.0625 6.5625H65.625V13.125H59.0625V6.5625Z" fill="#A3A3A3"/>
<path d="M39.375 13.125H52.5V19.6875H39.375V13.125Z" fill="#A3A3A3"/>
<path d="M32.8125 6.5625H39.375V15.3125H32.8125V6.5625Z" fill="#A3A3A3"/>
<path d="M26.25 6.5625H32.8125V19.6875H26.25V6.5625Z" fill="#A3A3A3"/>
<path d="M19.6875 13.125H26.25V19.6875H19.6875V13.125Z" fill="#A3A3A3"/>
<path d="M13.125 13.125H19.6875V32.8125H13.125V13.125Z" fill="#A3A3A3"/>
<path d="M0 19.6875H6.5625V26.25H0V19.6875Z" fill="#212529"/>
<path d="M13.125 0H19.6875V6.5625H13.125V0Z" fill="#212529"/>
<path d="M0 13.125H6.5625V19.6875H0V13.125Z" fill="#212529"/>
<path d="M6.5625 6.5625H13.125V13.125H6.5625V6.5625Z" fill="#212529"/>
<path d="M39.375 6.5625H52.5V13.125H39.375V6.5625Z" fill="#212529"/>
<path d="M39.375 52.5H45.9375V59.0625H39.375V52.5Z" fill="#212529"/>
<path d="M45.9375 45.9375H52.5V52.5H45.9375V45.9375Z" fill="#212529"/>
<path d="M52.5 13.125H59.0625V39.375H52.5V13.125Z" fill="#212529"/>
<path d="M52.5 39.375H59.0625V45.9375H52.5V39.375Z" fill="#212529"/>
<path d="M59.0625 32.8125H65.625V39.375H59.0625V32.8125Z" fill="#212529"/>
<path d="M59.0625 26.25H65.625V32.8125H59.0625V26.25Z" fill="#212529"/>
<path d="M59.0625 19.6875H65.625V26.25H59.0625V19.6875Z" fill="#212529"/>
<path d="M59.0625 13.125H65.625V19.6875H59.0625V13.125Z" fill="#212529"/>
<path d="M52.5 6.5625H59.0625V13.125H52.5V6.5625Z" fill="#212529"/>
<path d="M45.9375 0H52.5V6.5625H45.9375V0Z" fill="#212529"/>
<path d="M39.375 0H45.9375V6.5625H39.375V0Z" fill="#212529"/>
<path d="M32.8125 0H39.375V8.75H32.8125V0Z" fill="#212529"/>
<path d="M26.25 0H32.8125V8.75H26.25V0Z" fill="#212529"/>
<path d="M19.6875 0H26.25V6.5625H19.6875V0Z" fill="#212529"/>
<path d="M13.125 6.5625H26.25V13.125H13.125V6.5625Z" fill="#212529"/>
<rect x="41.5625" y="94.0625" width="4.375" height="4.375" fill="#A3A3A3"/>
</svg>
