<svg width="128" height="128" viewBox="0 0 128 128" fill="none" xmlns="http://www.w3.org/2000/svg">
<path d="M16 8H112V16H120.5V112H112V120H16V112H8V16H16V8Z" fill="white"/>
<path d="M8 0H120V8H16V16H8V112H16V120H112V112H120V16H112V8H120H128V120H121V128H16H8V120H0V16V8H8V0Z" fill="black"/>
<rect x="112" y="16" width="8" height="96" fill="#DCD2D2"/>
<path d="M34.3 36.6667H41.6V29.8333H48.9V23H78.1V29.8333H85.4V36.6667H92.7V84H100V105H27V84H34.3V36.6667Z" fill="#B83818"/>
<rect x="27" y="84" width="73" height="21" fill="#9E9E9E"/>
<path d="M64 31H71.3333V37.8333H78.6667V44.6667H86V72H78.6667V44.6667H71.3333V37.8333H64V31Z" fill="white"/>
</svg>
