<svg width="128" height="128" viewBox="0 0 128 128" fill="none" xmlns="http://www.w3.org/2000/svg">
<path d="M16 8H112V16H120.5V112H112V120H16V112H8V16H16V8Z" fill="white"/>
<path d="M8 0H120V8H16V16H8V112H16V120H112V112H120V16H112V8H120H128V120H121V128H16H8V120H0V16V8H8V0Z" fill="black"/>
<rect x="112" y="16" width="8" height="96" fill="#DCD2D2"/>
<path d="M26 47.4022H45.2405V43.4712H49.5696V39.977H53.4177V35.6091H56.7848V31.6781H60.6329V27.7471H68.3291V53.5172H72.6582V50.0229H78.4304V52.6436H81.7975V57.885H85.1646V70.1149H81.3165V74.4827H78.4304V77.1034H72.6582V73.1724H76.0253V67.931H77.9494V66.1839H80.8354V60.9425H77.9494V57.4482H76.0253V53.5172H72.6582V73.1724H64.481V31.6781H60.6329V39.977H56.7848V43.4712H53.4177V47.4022H49.5696V52.2068H45.2405H41.8734H30.8101V69.6781H41.8734V52.2068H45.2405V59.6321V68.3678H49.0886V70.1149H51.4937V71.862H52.9367V73.6091H54.8608V75.3563H56.7848V77.1034H58.7089V78.8505H60.6329V94.5747H64.481V73.1724H68.8101V98.9425H60.6329V94.5747H55.8228V90.2068H52.4557V86.2758H49.0886V82.3448H45.2405V78.8505H30.8101H26V47.4022Z" fill="black"/>
<path d="M45.2405 60.5057H48.1266V57.0114H49.5696V54.8275H51.4936V52.6436H53.8987V50.0229H55.3417V47.839H57.2658V45.6551H58.7088V43.4712H61.1139L60.6329 79.2873H58.7088V77.5402H56.7848V75.793H54.8607V74.0459H52.9367V72.2988H51.4936V70.5517H49.0886V68.8045H45.2405V60.5057Z" fill="#13191D"/>
<path d="M76.0254 57.4482H77.9494V60.9425H80.8355V66.1839H77.9494V67.931H76.0254V57.4482Z" fill="#13191D"/>
<path d="M60.6328 85.4023H64.4809V94.5748H60.6328V85.4023Z" fill="#D0D2DF"/>
<path d="M72.6582 64.4368H76.0253V73.1724H72.6582V64.4368Z" fill="#D0D2DF"/>
<path d="M30.8101 67.0574H41.8734V69.6781H30.8101V67.0574Z" fill="#D0D2DF"/>
<path d="M78.9114 35.6092H84.6835V30.8046H88.0506V26H94.3038V33.4253H90.9367V38.6667H84.6835V43.4713H78.9114V35.6092Z" fill="#020000"/>
<path d="M89.4937 42.1609H95.2658V35.6091H101.519V43.908H95.7468V50.8965H89.4937V42.1609Z" fill="#020000"/>
<rect x="90.4556" y="57.4482" width="11.5443" height="12.2299" fill="#020000"/>
<path d="M88.5317 75.7932H95.2659V81.4714H100.557V89.7702H95.2659V84.5288H88.5317V75.7932Z" fill="#020000"/>
<path d="M79.8735 85.4023H86.6077V90.2069H92.3799V94.5748H95.747V102H89.4938V97.1954H86.6077V93.2644H79.8735V85.4023Z" fill="#020000"/>
</svg>
