<svg width="128" height="128" viewBox="0 0 128 128" fill="none" xmlns="http://www.w3.org/2000/svg">
<path d="M16 8H112V16H120.5V112H112V120H16V112H8V16H16V8Z" fill="white"/>
<path d="M8 0H120V8H16V16H8V112H16V120H112V112H120V16H112V8H120H128V120H121V128H16H8V120H0V16V8H8V0Z" fill="black"/>
<rect x="112" y="16" width="8" height="96" fill="#DCD2D2"/>
<path d="M16 8H112V16H120.5V112H112V120H16V112H8V16H16V8Z" fill="white"/>
<path d="M8 0H120V8H16V16H8V112H16V120H112V112H120V16H112V8H120H128V120H121V128H16H8V120H0V16V8H8V0Z" fill="black"/>
<rect x="112" y="16" width="8" height="96" fill="#DCD2D2"/>
<path d="M23 46.6552H42.2405V42.7241H46.5696V39.2299H50.4177V34.8621H53.7848V30.931H57.6329V27H65.8101V52.5V72.4253H61.481V30.931H57.6329V39.2299H53.7848V42.7241H50.4177V46.6552H46.5696V51.4598H42.2405H38.8734H27.8101V74H39L38.8734 62V51.4598H42.2405V58.8851V74H46.0886V78.1035H49.4557V81.5977H52.8228V85.5287H57.6329V93.8276H61.481V72.4253H65.8101V98.1954H57.6329V93.8276H52.8228V89.4598H49.4557V85.5287H46.0886V81.5977H42.2405V78.1035H27.8101H23V46.6552Z" fill="black"/>
<rect x="72" y="48" width="5" height="30" fill="black"/>
<rect x="82" y="40" width="5" height="46" fill="black"/>
<rect x="92" y="32" width="5" height="62" fill="black"/>
</svg>
