<svg width="128" height="128" viewBox="0 0 128 128" fill="none" xmlns="http://www.w3.org/2000/svg">
<path d="M16 8H112V16H120.5V112H112V120H16V112H8V16H16V8Z" fill="white"/>
<path d="M8 0H120V8H16V16H8V112H16V120H112V112H120V16H112V8H120H128V120H121V128H16H8V120H0V16V8H8V0Z" fill="black"/>
<rect x="112" y="16" width="8" height="96" fill="#DCD2D2"/>
<path d="M22 47.4022H41.2405V43.4712H45.5696V39.977H49.4177V35.6091H52.7848V31.6781H56.6329V27.7471H64.3291V53.5172H68.6582V50.0229H74.4304V52.6436H77.7975V57.885H81.1646V70.1149H77.3165V74.4827H74.4304V77.1034H68.6582V73.1724H72.0253V67.931H73.9494V66.1839H76.8354V60.9425H73.9494V57.4482H72.0253V53.5172H68.6582V73.1724H60.481V31.6781H56.6329V39.977H52.7848V43.4712H49.4177V47.4022H45.5696V52.2068H41.2405H37.8734H26.8101V69.6781H37.8734V52.2068H41.2405V59.6321V68.3678H45.0886V70.1149H47.4937V71.862H48.9367V73.6091H50.8608V75.3563H52.7848V77.1034H54.7089V78.8505H56.6329V94.5747H60.481V73.1724H64.8101V98.9425H56.6329V94.5747H51.8228V90.2068H48.4557V86.2758H45.0886V82.3448H41.2405V78.8505H26.8101H22V47.4022Z" fill="black" fill-opacity="0.5"/>
<path d="M41.2375 60L44.1236 60.0345V56.5402H45.5667V54.3563H47.4907V52.1724H49.8958V49.5517H51.3388V47.3678H53.2629V45.1839H54.7059V43H57.111L56.63 78.8161H54.7059V77.069H52.7819V75.3516H50.8578V73.6094H48.9338V71.8711H47.4907V70.1133H45.0856V68.3713H41.2375V60Z" fill="#13191D" fill-opacity="0.5"/>
<path d="M72.0254 57.4482H73.9494V60.9425H76.8355V66.1839H73.9494V67.931H72.0254V57.4482Z" fill="#13191D" fill-opacity="0.5"/>
<path d="M56.6328 85.4023H60.4809V94.5748H56.6328V85.4023Z" fill="#D0D2DF" fill-opacity="0.5"/>
<path d="M68.6582 64.4368H72.0253V73.1724H68.6582V64.4368Z" fill="#D0D2DF" fill-opacity="0.5"/>
<path d="M26.8101 67.0574H37.8734V69.6781H26.8101V67.0574Z" fill="#D0D2DF" fill-opacity="0.5"/>
<path d="M74.9114 35.6092H80.6835V30.8046H84.0506V26H90.3038V33.4253H86.9367V38.6667H80.6835V43.4713H74.9114V35.6092Z" fill="#020000" fill-opacity="0.5"/>
<path d="M85.4937 42.1609H91.2658V35.6091H97.519V43.908H91.7468V50.8965H85.4937V42.1609Z" fill="#020000" fill-opacity="0.5"/>
<rect x="86.4556" y="57.4482" width="11.5443" height="12.2299" fill="#020000" fill-opacity="0.5"/>
<path d="M84.5317 75.7932H91.2659V81.4714H96.5571V89.7702H91.2659V84.5288H84.5317V75.7932Z" fill="#020000" fill-opacity="0.5"/>
<path d="M75.8735 85.4023H82.6077V90.2069H88.3799V94.5748H91.747V102H85.4938V97.1954H82.6077V93.2644H75.8735V85.4023Z" fill="#020000" fill-opacity="0.5"/>
</svg>
