<svg width="128" height="128" viewBox="0 0 128 128" fill="none" xmlns="http://www.w3.org/2000/svg">
<path d="M16 8H112V16H120.5V112H112V120H16V112H8V16H16V8Z" fill="white"/>
<path d="M8 0H120V8H16V16H8V112H16V120H112V112H120V16H112V8H120H128V120H121V128H16H8V120H0V16V8H8V0Z" fill="black"/>
<rect x="112" y="16" width="8" height="96" fill="#DCD2D2"/>
<path d="M23 47.6552H42.2405V43.7241H46.5696V40.2299H50.4177V35.8621H53.7848V31.931H57.6329V28H65.8101V53.5V73.4253H61.481V31.931H57.6329V40.2299H53.7848V43.7241H50.4177V47.6552H46.5696V52.4598H42.2405H38.8734H27.8101V75H39L38.8734 63V52.4598H42.2405V59.8851V75H46.0886V79.1035H49.4557V82.5977H52.8228V86.5287H57.6329V94.8276H61.481V73.4253H65.8101V99.1954H57.6329V94.8276H52.8228V90.4598H49.4557V86.5287H46.0886V82.5977H42.2405V79.1035H27.8101H23V47.6552Z" fill="black"/>
<path d="M76 53H82.2373V55.25H84.3164V57.25H86.3955V59.25H88.7345V57.25H90.8136V55.25H92.8927V53.25H98.8701V59H96.791V61H94.7119V63H92.6328V65.25H94.7119V67.25H96.791V69.25H99V75H92.8927V73H90.8136V71H88.7345V69H86.3955V71H84.3164V73H82.2373V75H76.2599V69.25H78.339V67.25H80.4181V65.25H82.4972V63H80.4181V61H78.339V59H76V53Z" fill="#170E00"/>
</svg>
