<svg width="379" height="100" viewBox="0 0 379 100" fill="none" xmlns="http://www.w3.org/2000/svg">
<rect y="10" width="5" height="50" fill="black"/>
<rect x="10" y="5" width="5" height="354" transform="rotate(-90 10 5)" fill="black"/>
<rect x="90" y="70" width="5" height="274" transform="rotate(-90 90 70)" fill="black"/>
<rect x="10" y="70" width="5" height="50" transform="rotate(-90 10 70)" fill="black"/>
<rect x="369" y="10" width="5" height="50" fill="black"/>
<rect x="5" y="5" width="5" height="5" fill="black"/>
<rect x="364" y="5" width="5" height="5" fill="black"/>
<rect x="364" y="60" width="5" height="5" fill="black"/>
<path d="M78.9996 75H14.9995V70L364 70V65H369V60H374V15H379V65H374V70H369V75L164 75L99.9995 75V80H105V85H110V100H79.9995V95H105V85H99.9995V80H94.9995V75H123.5H78.9996Z" fill="#D9D9D9"/>
<rect x="5" y="60" width="5" height="5" fill="black"/>
<rect x="60" y="70" width="5" height="10" fill="black"/>
<rect x="90" y="70" width="5" height="10" fill="black"/>
<rect x="65" y="80" width="5" height="5" fill="black"/>
<rect x="70" y="85" width="5" height="5" fill="black"/>
<rect x="75" y="90" width="30" height="5" fill="black"/>
<rect x="95" y="80" width="5" height="5" fill="black"/>
<rect x="100" y="85" width="5" height="5" fill="black"/>
<path d="M10 5H364.116V10H370V60H364.116V65H108.417H90V80H95V85H100V90H75V85H70V80H65V70H60V65H11.0833V60H5V10H10V5Z" fill="white"/>
</svg>
