<svg width="340" height="351" viewBox="0 0 340 351" fill="none" xmlns="http://www.w3.org/2000/svg">
<rect x="20.4" y="258.625" width="10.2" height="17.0149" fill="#363636"/>
<path d="M30.6 275.64H51V282.446V296.058V299.461H45.9H40.8V296.058V282.446H30.6V275.64Z" fill="#363636"/>
<rect x="10.2" y="108.895" width="10.2" height="68.0594" fill="#363636"/>
<rect x="20.4" y="176.954" width="10.2" height="20.4178" fill="#363636"/>
<rect x="10.2" y="187.163" width="10.2" height="10.2089" fill="#363636"/>
<rect y="197.372" width="10.2" height="51.0445" fill="#363636"/>
<rect x="10.2" y="248.417" width="78.2" height="10.2089" fill="#363636"/>
<path d="M88.4 231.402H98.6V221.193H112.2V231.402V258.625H88.4V231.402Z" fill="#363636"/>
<path d="M112.2 211.293V207.581H116.571H122.4V211.293V221.193H112.2V211.293Z" fill="#363636"/>
<path d="M78.2 223.977V221.193H82.5714H88.4V223.977V231.402H78.2V223.977Z" fill="#363636"/>
<path d="M95.2 261.41V258.625H106.857H122.4V261.41V268.834H132.6V279.043H112.2V268.834H95.2V261.41Z" fill="#363636"/>
<rect width="10.2" height="68.0594" transform="matrix(-1 0 0 1 329.8 108.895)" fill="#363636"/>
<rect width="10.2" height="20.4178" transform="matrix(-1 0 0 1 319.6 176.954)" fill="#363636"/>
<rect width="10.2" height="10.2089" transform="matrix(-1 0 0 1 329.8 187.163)" fill="#363636"/>
<rect width="10.2" height="51.0445" transform="matrix(-1 0 0 1 340 197.372)" fill="#363636"/>
<rect width="78.2" height="10.2089" transform="matrix(-1 0 0 1 329.8 248.417)" fill="#363636"/>
<path d="M251.6 231.402H241.4V221.193H227.8V231.402V258.625H251.6V231.402Z" fill="#363636"/>
<path d="M227.8 211.293V207.581H223.429H217.6V211.293V221.193H227.8V211.293Z" fill="#363636"/>
<path d="M261.8 223.977V221.193H257.429H251.6V223.977V231.402H261.8V223.977Z" fill="#363636"/>
<path d="M244.8 261.41V258.625H233.143H217.6V261.41V268.834H207.4V279.043H227.8V268.834H244.8V261.41Z" fill="#363636"/>
<rect x="132.6" y="279.043" width="74.8" height="13.6119" fill="#363636"/>
<rect x="20.4" y="85.0742" width="10.2" height="23.8208" fill="#363636"/>
<rect x="30.6" y="61.2534" width="10.2" height="23.8208" fill="#363636"/>
<rect x="40.8" y="51.0444" width="10.2" height="10.2089" fill="#363636"/>
<rect x="51" y="40.8357" width="13.6" height="10.2089" fill="#363636"/>
<rect x="64.6" y="30.6267" width="23.8" height="10.2089" fill="#363636"/>
<rect x="88.4" y="20.4177" width="23.8" height="10.2089" fill="#363636"/>
<rect x="149.6" width="40.8" height="10.2089" fill="#363636"/>
<rect x="112.2" y="10.209" width="37.4" height="10.2089" fill="#363636"/>
<rect width="10.2" height="23.8208" transform="matrix(-1 0 0 1 319.6 85.0742)" fill="#363636"/>
<rect width="10.2" height="23.8208" transform="matrix(-1 0 0 1 309.4 61.2534)" fill="#363636"/>
<rect width="10.2" height="10.2089" transform="matrix(-1 0 0 1 299.2 51.0444)" fill="#363636"/>
<rect width="13.6" height="10.2089" transform="matrix(-1 0 0 1 289 40.8357)" fill="#363636"/>
<rect width="23.8" height="10.2089" transform="matrix(-1 0 0 1 275.4 30.6267)" fill="#363636"/>
<rect width="23.8" height="10.2089" transform="matrix(-1 0 0 1 251.6 20.4177)" fill="#363636"/>
<rect width="37.4" height="10.2089" transform="matrix(-1 0 0 1 227.8 10.209)" fill="#363636"/>
<rect x="30.6" y="299.461" width="10.2" height="23.8208" fill="#363636"/>
<rect x="40.8" y="323.282" width="10.2" height="10.2089" fill="#363636"/>
<rect x="51" y="333.491" width="17" height="6.80594" fill="#363636"/>
<rect x="68" y="323.282" width="10.2" height="10.2089" fill="#363636"/>
<rect x="78.2" y="313.073" width="10.2" height="10.2089" fill="#363636"/>
<rect x="88.4" y="323.282" width="23.8" height="10.2089" fill="#363636"/>
<path d="M132.6 323.282H146.2V336.894H132.6V323.282Z" fill="#363636"/>
<path d="M146.2 336.894H193.8V350.505H146.2V336.894Z" fill="#363636"/>
<path d="M112.2 299.461H122.4V311.371H132.6V318.177V323.282H122.4H112.2V299.461Z" fill="#363636"/>
<rect width="10.2" height="17.0149" transform="matrix(-1 0 0 1 319.6 258.625)" fill="#363636"/>
<path d="M309.4 275.64H289V282.446V296.058V299.461H294.1H299.2V296.058V282.446H309.4V275.64Z" fill="#363636"/>
<rect width="10.2" height="23.8208" transform="matrix(-1 0 0 1 309.4 299.461)" fill="#363636"/>
<rect width="10.2" height="10.2089" transform="matrix(-1 0 0 1 299.2 323.282)" fill="#363636"/>
<rect width="17" height="6.80594" transform="matrix(-1 0 0 1 289 333.491)" fill="#363636"/>
<rect width="10.2" height="10.2089" transform="matrix(-1 0 0 1 272 323.282)" fill="#363636"/>
<rect width="10.2" height="10.2089" transform="matrix(-1 0 0 1 261.8 313.073)" fill="#363636"/>
<rect width="23.8" height="10.2089" transform="matrix(-1 0 0 1 251.6 323.282)" fill="#363636"/>
<path d="M207.4 323.282H193.8V336.894H207.4V323.282Z" fill="#363636"/>
<path d="M227.8 299.461H217.6V311.371H207.4V318.177V323.282H217.6H227.8V299.461Z" fill="#363636"/>
<path d="M20.4 176.954V108.895H30.6V85.0743H40.8V61.2535H51V51.0446H64.6V40.8357H88.4V30.6268H112.2V20.4179H149.6V10.209H168.3H170V163.343V268.834V279.043H132.6V268.834H122.4V258.626H112.2V221.193H122.4V207.581H112.2V221.193H98.6V231.402H88.4V221.193H78.2V231.402H88.4V248.417H10.2V197.372H30.6V176.954H20.4Z" fill="#53B74F"/>
<path d="M319.6 176.954V108.895H309.4V85.0743H299.2V61.2535H289V51.0446H275.4V40.8357H251.6V30.6268H227.8V20.4179H190.4V10.209H171.7H170V163.343V268.834V279.043H207.4V268.834H217.6V258.626H227.8V221.193H217.6V207.581H227.8V221.193H241.4V231.402H251.6V221.193H261.8V231.402H251.6V248.417H329.8V197.372H309.4V176.954H319.6Z" fill="#53B74F"/>
<path d="M30.6 258.625H95.2V268.834H112.2V279.043H132.6V292.655H207.4V279.043H227.8V268.834H244.8V258.625H309.4V275.64H289V299.461H299.2V323.282H289V333.491H272V323.282H261.8V313.073H251.6V323.282H227.8V299.461H217.6V311.371H207.4V323.282H193.8V336.894H146.2V323.282H132.6V311.371H122.4V299.461H112.2V323.282H88.4V313.073H78.2V323.282H68V333.491H51V323.282H40.8V299.461H51V275.64H30.6V258.625Z" fill="#766450"/>
<path d="M30.6 258.625H95.2V268.834H51H30.6V258.625Z" fill="#514A36"/>
<rect x="244.8" y="258.625" width="64.6" height="10.2089" fill="#514A36"/>
<rect x="95.2" y="268.834" width="17" height="6.80591" fill="#514A36"/>
<rect x="112.2" y="279.043" width="20.4" height="6.80594" fill="#514A36"/>
<rect x="207.4" y="279.043" width="20.4" height="6.80594" fill="#514A36"/>
<rect x="227.8" y="268.834" width="17" height="6.80591" fill="#514A36"/>
<rect x="40.8" y="299.461" width="10.2" height="23.8208" fill="#514A36"/>
<rect x="51" y="323.282" width="17" height="10.2089" fill="#514A36"/>
<rect x="68" y="313.073" width="10.2" height="10.2089" fill="#514A36"/>
<rect x="88.4" y="313.073" width="23.8" height="10.2089" fill="#514A36"/>
<rect x="146.2" y="326.685" width="47.6" height="10.2089" fill="#514A36"/>
<rect x="132.6" y="313.073" width="13.6" height="10.2089" fill="#514A36"/>
<rect x="122.4" y="302.864" width="10.2" height="10.2089" fill="#514A36"/>
<rect x="207.4" y="302.864" width="10.2" height="10.2089" fill="#514A36"/>
<rect x="193.8" y="313.073" width="13.6" height="10.2089" fill="#514A36"/>
<rect x="78.2" y="306.267" width="10.2" height="6.80594" fill="#514A36"/>
<rect width="10.2" height="23.8208" transform="matrix(-1 0 0 1 299.2 299.461)" fill="#514A36"/>
<rect width="17" height="10.2089" transform="matrix(-1 0 0 1 289 323.282)" fill="#514A36"/>
<rect width="10.2" height="10.2089" transform="matrix(-1 0 0 1 272 313.073)" fill="#514A36"/>
<rect width="23.8" height="10.2089" transform="matrix(-1 0 0 1 251.6 313.073)" fill="#514A36"/>
<rect width="10.2" height="6.80594" transform="matrix(-1 0 0 1 261.8 306.267)" fill="#514A36"/>
<rect x="132.6" y="268.834" width="74.8" height="10.2089" fill="#409863"/>
<rect x="10.2" y="238.208" width="78.2" height="10.2089" fill="#409863"/>
<rect x="10.2" y="197.372" width="10.2" height="40.8356" fill="#409863"/>
<rect x="20.4" y="108.895" width="10.2" height="68.0594" fill="#409863"/>
<rect x="309.4" y="108.895" width="10.2" height="68.0594" fill="#409863"/>
<rect x="20.4" y="197.372" width="10.2" height="6.80592" fill="#409863"/>
<rect x="20.4" y="231.402" width="10.2" height="6.80594" fill="#409863"/>
<rect x="309.4" y="231.402" width="10.2" height="6.80594" fill="#409863"/>
<rect x="309.4" y="197.372" width="10.2" height="6.80592" fill="#409863"/>
<rect x="319.6" y="197.372" width="10.2" height="40.8356" fill="#409863"/>
<rect x="251.6" y="238.208" width="78.2" height="10.2089" fill="#409863"/>
<rect x="122.4" y="258.625" width="10.2" height="10.2089" fill="#409863"/>
<rect x="112.2" y="248.417" width="10.2" height="10.2089" fill="#409863"/>
<rect x="207.4" y="258.625" width="10.2" height="10.2089" fill="#409863"/>
<rect x="217.6" y="248.417" width="10.2" height="10.2089" fill="#409863"/>
<path d="M201 77H214V81H219V77H233V81H237V99H233V103H229V107H219V103H215V107H205V103H201V99H197V81H201V77Z" fill="#FF0F40"/>
<rect x="202" y="86" width="4" height="8" fill="#B80D2F"/>
<rect x="206" y="94" width="4" height="4" fill="#B80D2F"/>
<rect x="192" y="81" width="5" height="18" fill="#8D0C32"/>
<rect x="197" y="77" width="4" height="4" fill="#8D0C32"/>
<rect x="201" y="73" width="13" height="4" fill="#8D0C32"/>
<rect x="214" y="77" width="5" height="4" fill="#8D0C32"/>
<rect x="219" y="73" width="14" height="4" fill="#8D0C32"/>
<rect x="233" y="99" width="4" height="4" fill="#8D0C32"/>
<rect x="233" y="99" width="4" height="4" fill="#8D0C32"/>
<rect x="229" y="103" width="4" height="4" fill="#8D0C32"/>
<rect x="219" y="107" width="10" height="4" fill="#8D0C32"/>
<rect x="205" y="107" width="10" height="4" fill="#8D0C32"/>
<rect x="201" y="103" width="4" height="4" fill="#8D0C32"/>
<rect x="197" y="99" width="4" height="4" fill="#8D0C32"/>
<rect x="215" y="103" width="4" height="4" fill="#8D0C32"/>
<rect x="233" y="77" width="4" height="4" fill="#8D0C32"/>
<rect x="237" y="81" width="4" height="18" fill="#8D0C32"/>
<rect x="215" y="59" width="4" height="13" fill="#015000"/>
<rect x="219" y="63" width="9" height="4" fill="#015000"/>
<rect x="219" y="55" width="4" height="4" fill="#015000"/>
<rect x="228" y="59" width="4" height="4" fill="#015000"/>
<rect x="232" y="55" width="4" height="4" fill="#015000"/>
<rect x="223" y="51" width="13" height="4" fill="#015000"/>
<rect x="223" y="55" width="9" height="4" fill="#92BC00"/>
<rect x="219" y="59" width="5" height="4" fill="#92BC00"/>
<rect x="228" y="55" width="4" height="4" fill="#789B00"/>
<rect x="224" y="59" width="4" height="4" fill="#789B00"/>
<path d="M77 143H90V147H95V143H109V147H113V165H109V169H105V173H95V169H91V173H81V169H77V165H73V147H77V143Z" fill="#FF0F40"/>
<rect x="78" y="152" width="4" height="8" fill="#B80D2F"/>
<rect x="82" y="160" width="4" height="4" fill="#B80D2F"/>
<rect x="68" y="147" width="5" height="18" fill="#8D0C32"/>
<rect x="73" y="143" width="4" height="4" fill="#8D0C32"/>
<rect x="77" y="139" width="13" height="4" fill="#8D0C32"/>
<rect x="90" y="143" width="5" height="4" fill="#8D0C32"/>
<rect x="95" y="139" width="14" height="4" fill="#8D0C32"/>
<rect x="109" y="165" width="4" height="4" fill="#8D0C32"/>
<rect x="109" y="165" width="4" height="4" fill="#8D0C32"/>
<rect x="105" y="169" width="4" height="4" fill="#8D0C32"/>
<rect x="95" y="173" width="10" height="4" fill="#8D0C32"/>
<rect x="81" y="173" width="10" height="4" fill="#8D0C32"/>
<rect x="77" y="169" width="4" height="4" fill="#8D0C32"/>
<rect x="73" y="165" width="4" height="4" fill="#8D0C32"/>
<rect x="91" y="169" width="4" height="4" fill="#8D0C32"/>
<rect x="109" y="143" width="4" height="4" fill="#8D0C32"/>
<rect x="113" y="147" width="4" height="18" fill="#8D0C32"/>
<rect x="91" y="125" width="4" height="13" fill="#015000"/>
<rect x="95" y="129" width="9" height="4" fill="#015000"/>
<rect x="95" y="121" width="4" height="4" fill="#015000"/>
<rect x="104" y="125" width="4" height="4" fill="#015000"/>
<rect x="108" y="121" width="4" height="4" fill="#015000"/>
<rect x="99" y="117" width="13" height="4" fill="#015000"/>
<rect x="99" y="121" width="9" height="4" fill="#92BC00"/>
<rect x="95" y="125" width="5" height="4" fill="#92BC00"/>
<rect x="104" y="121" width="4" height="4" fill="#789B00"/>
<rect x="100" y="125" width="4" height="4" fill="#789B00"/>
<rect x="260.326" y="168.429" width="4.55814" height="4.28571" fill="#354E18"/>
<rect x="264.884" y="164.143" width="4.55814" height="4.28571" fill="#354E18"/>
<rect x="260.326" y="159.857" width="4.55814" height="4.28571" fill="#354E18"/>
<rect x="255.767" y="155.571" width="4.55814" height="4.28571" fill="#354E18"/>
<rect x="264.884" y="151.286" width="4.55814" height="4.28571" fill="#354E18"/>
<rect x="269.442" y="156.643" width="4.55814" height="7.5" fill="#354E18"/>
<rect x="255.767" y="147" width="9.11628" height="4.28571" fill="#354E18"/>
<rect x="251.209" y="147" width="4.55814" height="8.57143" fill="#354E18"/>
<rect x="238.674" y="164.143" width="21.6512" height="4.28571" fill="#CFB448"/>
<rect x="234.116" y="168.429" width="4.55814" height="4.28571" fill="#CFB448"/>
<rect x="238.674" y="168.429" width="21.6512" height="4.28571" fill="#FFE76A"/>
<rect x="234.116" y="172.714" width="30.7674" height="4.28571" fill="#FFE76A"/>
<rect x="234.116" y="198.429" width="18.2326" height="4.28571" fill="#FFE76A"/>
<path d="M229.558 177H264.884V194.143L260.326 198.429H229.558V177Z" fill="#FFE76A"/>
<rect x="229.558" y="172.714" width="4.55814" height="4.28571" fill="#CFB448"/>
<rect x="229.558" y="198.429" width="4.55814" height="4.28571" fill="#CFB448"/>
<rect x="260.326" y="194.143" width="4.55814" height="4.28571" fill="#CFB448"/>
<rect x="264.884" y="172.714" width="4.55814" height="21.4286" fill="#CFB448"/>
<rect x="252.349" y="198.429" width="7.97674" height="4.28571" fill="#CFB448"/>
<rect x="234.116" y="202.714" width="18.2326" height="4.28571" fill="#CFB448"/>
<rect x="225" y="177" width="4.55814" height="21.4286" fill="#CFB448"/>
<rect x="255.767" y="151.286" width="9.11628" height="3.50649" fill="#92BC00"/>
<path d="M260.326 154.5H264.884V155.571H269.442V164.143H264.884V159.857H260.326V154.5Z" fill="#92BC00"/>
<rect x="232.977" y="182.357" width="4.55814" height="11.7857" fill="#D5BB42"/>
<rect x="237.535" y="194.143" width="3.4186" height="3.21429" fill="#D5BB42"/>
<rect x="255.767" y="151.286" width="4.55814" height="4.28571" fill="#789B00"/>
<rect x="255.767" y="151.286" width="4.55814" height="4.28571" fill="#789B00"/>
<rect x="260.326" y="155.571" width="4.55814" height="4.28571" fill="#789B00"/>
</svg>
