<svg width="128" height="128" viewBox="0 0 128 128" fill="none" xmlns="http://www.w3.org/2000/svg">
<path d="M16 8H112V16H120.5V112H112V120H16V112H8V16H16V8Z" fill="white"/>
<path d="M8 0H120V8H16V16H8V112H16V120H112V112H120V16H112V8H120H128V120H121V128H16H8V120H0V16V8H8V0Z" fill="black"/>
<rect x="112" y="16" width="8" height="96" fill="#DCD2D2"/>
<path d="M31 31H96V97.3636H89.5V104H37.5V97.3636H31V31Z" fill="#9E9E9E"/>
<rect x="44" y="50" width="6" height="40" fill="white"/>
<rect x="77" y="50" width="6" height="40" fill="white"/>
<path d="M50.3333 30.6667V24H76.6667V30.6667H103V44H24V30.6667H50.3333Z" fill="#707070"/>
</svg>
