<svg width="128" height="128" viewBox="0 0 128 128" fill="none" xmlns="http://www.w3.org/2000/svg">
<path d="M16 8H112V16H120.5V112H112V120H16V112H8V16H16V8Z" fill="white"/>
<path d="M8 0H120V8H16V16H8V112H16V120H112V112H120V16H112V8H120H128V120H121V128H16H8V120H0V16V8H8V0Z" fill="black"/>
<rect x="112" y="16" width="8" height="96" fill="#DCD2D2"/>
<path d="M41.6 56V48H48.9V40H56.2V24H63.5V32H70.8V40H78.1V48H85.4V56H92.7V64H85.4V72H92.7V80H100V88L70.8 88.5V104H56.2V88H27V80H34.3V72H41.6V64H34.3V56H41.6Z" fill="#4CAF50"/>
<path d="M56 24H63.3333V32H70.6667V40H78V48H85.3333V55.5L92.6667 56V64H85.3333V72H92.6667V80H100V88H92.6667V80H85.3333V72H78V64H85.3333V56H78V48H70.6667V40H63.3333V32H56V24Z" fill="#225D36"/>
<rect x="56" y="88" width="7" height="16" fill="#795548"/>
<path d="M63 88H71V104H63V88Z" fill="#5C3900"/>
</svg>
