<svg width="128" height="128" viewBox="0 0 128 128" fill="none" xmlns="http://www.w3.org/2000/svg">
<path d="M112 120L16 120L16 112L7.5 112L7.49999 16L16 16L16 8.00001L112 8L112 16L120 16L120 112L112 112L112 120Z" fill="white"/>
<path d="M120 128L8 128L8 120L112 120L112 112L120 112L120 16L112 16L112 8L16 8.00001L16 16L7.99999 16L8 112L16 112L16 120L8 120L-6.99382e-07 120L-1.04907e-05 8.00001L6.99999 8.00001L6.99999 1.05782e-05L112 1.39876e-06L120 6.99382e-07L120 8L128 8L128 112L128 120L120 120L120 128Z" fill="black"/>
<rect x="16" y="112" width="8" height="96" transform="rotate(180 16 112)" fill="#DCD2D2"/>
<path d="M24.2 62.6L28.4 62.6L28.4 58.4L32.6 58.4L32.6 54.2L36.8 54.2L36.8 50L41 50L41 45.8L45.2 45.8L45.2 41.6L49.4 41.6L49.4 37.4L53.6 37.4L53.6 33.2L57.8 33.2L57.8 29L70.4 29L70.4 33.2L74.6 33.2L74.6 37.4L78.8 37.4L78.8 41.6L83 41.6L83 45.8L87.2 45.8L87.2 50L91.4 50L91.4 54.2L95.6 54.2L95.6 58.4L99.8 58.4L99.8 62.6L104 62.6L104 66.8L76 66.8L76 99L64.1 99L52.2 99L52.2 66.8L24.2 66.8L24.2 62.6Z" fill="#0A9CCB"/>
<rect width="32.2" height="4.2" transform="matrix(-1 8.74228e-08 8.74228e-08 1 104 62.6)" fill="#066381"/>
<rect width="4.2" height="4.2" transform="matrix(-1 8.74228e-08 8.74228e-08 1 104 62.6)" fill="#066381"/>
<rect width="4.2" height="4.2" transform="matrix(-1 8.74228e-08 8.74228e-08 1 70.3999 29)" fill="#066381"/>
<rect width="8.4" height="4.2" transform="matrix(-1 8.74228e-08 8.74228e-08 1 95.6001 54.2)" fill="#066381"/>
<rect width="8.4" height="4.2" transform="matrix(-1 8.74228e-08 8.74228e-08 1 91.3999 50)" fill="#066381"/>
<rect width="8.4" height="4.2" transform="matrix(-1 8.74228e-08 8.74228e-08 1 87.2 45.8)" fill="#066381"/>
<rect width="8.4" height="4.2" transform="matrix(-1 8.74228e-08 8.74228e-08 1 83 41.6)" fill="#066381"/>
<rect width="8.4" height="4.2" transform="matrix(-1 8.74228e-08 8.74228e-08 1 78.8 37.4)" fill="#066381"/>
<rect width="8.4" height="4.2" transform="matrix(-1 8.74228e-08 8.74228e-08 1 74.6001 33.2)" fill="#066381"/>
<rect width="8.4" height="4.2" transform="matrix(-1 8.74228e-08 8.74228e-08 1 99.8 58.4)" fill="#066381"/>
<rect width="8.4" height="33.6" transform="matrix(-1 8.74228e-08 8.74228e-08 1 76 65.4)" fill="#066381"/>
<rect width="8.4" height="4.2" transform="matrix(-1 8.74228e-08 8.74228e-08 1 66.2 29)" fill="#066381"/>
</svg>
