<svg width="128" height="108" viewBox="0 0 128 108" fill="none" xmlns="http://www.w3.org/2000/svg">
<path d="M21.0988 0H105.494H106.198V1H106.901V2H108.308V2.5H109.714V12H108.308V13H106.901V14.5H102.681V33.7494H101.494V34.5H100.571V35.5H95.6483V39.792H94.555V40.8342H88.6153V45.5H87.2087V46.5H81.5823V51H80.1758V52H74.5494V46.5H81.5823V40.8342H88.6153V35.5H95.6483V14.5L32.3516 14V35.5H39.3845V41H46.4175V46.5H53.4505V52H60.4834V58H53.4505V63.5H40.7911V64H39.3845V68.5H33.7582V69.5H32.3516V74.5H27.4285V75H26.0219V75.5H25.3186V91H21.0988V92H19.6922V93H18.2856V102H19.6922V103H21.0988V104.5H28.1318H106.198V103.5H107.604V103H108.308V102H109.714V93H108.308V92H106.901V91H102.681V76H101.275V74.5H100.571V74H95.6483V91H88.6153V85.5H81.5823V80.8889H73.8461L26.0219 96H102.266V100H26.0219V96L41.4944 91.1111L73.8461 80.8889V74H66.8131V58H74.5494V63H81.5823H87.2087V64H88.6153V68.5H94.2417V70H95.6483V74H88.6153V68.5H81.5823V59H79.4725V58H74.5494V52H66.8131V58H60.4834V74H53.4505V80.5H46.4175V85.5H40.0878V91H32.3516V85.5V74.5H39.3845V68.5H46.4175V63.5V59H47.8241V58H53.4505V52H48.5274V51.5H47.8241V51H46.4175V46.5H40.7911V45.5H39.3845V41H33.7582V40H32.3516V35.5H28.1318V34.5H26.7252V33.7494H25.3186V14.5L31.2815 9H101.275V5L31.2815 5.5V9L25.3186 14.5H21.0988V13H19.6922V12H18.2856V2H19.6922V1H21.0988V0Z" fill="white"/>
<path d="M39.3848 34H88.6155V36H81.5826V42H74.5496V47.5H66.8133V53H60.4837V47.5H53.4507V42H46.4177V36H39.3848V34Z" fill="white"/>
<path d="M32.3516 14H39.3845L95.6483 14.5V35.5H88.6153V34H39.3845V33.5H88.6153V19H39.3845V35.5H32.3516V14Z" fill="white"/>
<rect x="39.3848" y="36" width="7.03297" height="5" fill="white"/>
<path d="M46.4175 42H53.4504V46.5H46.4175V42Z" fill="#D9D9D9"/>
<path d="M53.4504 47.5H60.4834V52H53.4504V47.5Z" fill="#D9D9D9"/>
<path d="M66.8131 47.5H74.5493V49.5V52H66.8131V47.5Z" fill="#D9D9D9"/>
<path d="M66.8131 47.5H74.5493V49.5V52H66.8131V47.5Z" fill="#D9D9D9"/>
<path d="M46.4175 42H53.4504V46.5H46.4175V42Z" fill="white"/>
<path d="M53.4504 47.5H60.4834V52H53.4504V47.5Z" fill="white"/>
<path d="M66.8131 47.5H74.5493V49.5V52H66.8131V47.5Z" fill="white"/>
<path d="M66.8131 47.5H74.5493V49.5V52H66.8131V47.5Z" fill="white"/>
<path d="M74.5493 42H81.5823V44V46.5H74.5493V42Z" fill="white"/>
<path d="M74.5493 42H81.5823V44V46.5H74.5493V42Z" fill="white"/>
<path d="M74.5493 42H81.5823V44V46.5H74.5493V42Z" fill="white"/>
<path d="M74.5493 42H81.5823V44V46.5H74.5493V42Z" fill="white"/>
<path d="M81.5823 36H88.6153V38V41H81.5823V36Z" fill="white"/>
<path d="M81.5823 36H88.6153V38V41H81.5823V36Z" fill="white"/>
<path d="M81.5823 36H88.6153V38V41H81.5823V36Z" fill="white"/>
<path d="M81.5823 36H88.6153V38V41H81.5823V36Z" fill="white"/>
<path d="M60.4834 53H66.8131V58H60.4834V53Z" fill="white"/>
<path d="M52.0439 76H53.4505V80.5H52.0439H46.4175V85.5H40.0878V91H32.3516V85.5H35.1647V85H36.5713V84H37.2746V83H38.6812V82.5H39.3845V80H47.8241V79H49.2307V78H50.6373V77H52.0439V76Z" fill="white"/>
<path d="M76.6594 76H73.8462V81H76.6594H81.5825V85.5H88.6155V91H95.6484V85.5H93.5385V85H92.132V84H91.4287V83H90.0221V82.5H89.3188V80H80.8792V79H79.4726V78H78.066V77H76.6594V76Z" fill="white"/>
<path d="M26.022 96H102.299V100H26.0222L26.022 96Z" fill="white"/>
<path d="M30.9448 5.5L101.274 5V9H30.9448V5.5Z" fill="#EEEFF5"/>
<path d="M2.81319 100H18.2857V102H19.6923V103H21.0989V104.5H106.198V103.5H107.604V103H108.308V102H109.714V100H125.89V101H126.593V101.5H128V103H126.593V103.5H125.89V104.5H115.341V105H116.044V106H114.637V107H113.934V108H14.7692V107H12.6593V106H11.956V105.5H12.6593V105H2.81319V104.5H2.10989V103.5H1.40659V103H0V101.5H1.40659V101H2.10989V100H2.81319Z" fill="white"/>
</svg>
