<svg width="91" height="108" viewBox="0 0 91 108" fill="none" xmlns="http://www.w3.org/2000/svg">
<path d="M15 0H75H75.5V1H76V2H77V2.5H78V12H77V13H76V14.5H73V33.7494H72.1557V34.5H71.5V35.5H68V39.792H67.2227V40.8342H63V45.5H62V46.5H58V51H57V52H53V46.5H58V40.8342H63V35.5H68V14.5L23 14V35.5H28V41H33V46.5H38V52H43V58H38V63.5H29V64H28V68.5H24V69.5H23V74.5H19.5V75H18.5V75.5H18V91H15V92H14V93H13V102H14V103H15V104.5H20H75.5V103.5H76.5V103H77V102H78V93H77V92H76V91H73V76H72V74.5H71.5V74H68V91H63V85.5H58V80.8889H52.5L18.5 96H72.7048V100H18.5V96L29.5 91.1111L52.5 80.8889V74H47.5V58H53V63H58H62V64H63V68.5H67V70H68V74H63V68.5H58V59H56.5V58H53V52H47.5V58H43V74H38V80.5H33V85.5H28.5V91H23V85.5V74.5H28V68.5H33V63.5V59H34V58H38V52H34.5V51.5H34V51H33V46.5H29V45.5H28V41H24V40H23V35.5H20V34.5H19V33.7494H18V14.5L22.2392 9H72V5L22.2392 5.5V9L18 14.5H15V13H14V12H13V2H14V1H15V0Z" fill="#000108"/>
<path d="M28 34H63V36H58V42H53V47.5H47.5V53H43V47.5H38V42H33V36H28V34Z" fill="#000108"/>
<path d="M23 14H28L68 14.5V35.5H63V34H28V33.5H63V19H28V35.5H23V14Z" fill="#1D2129"/>
<rect x="28" y="36" width="5" height="5" fill="#1D2129"/>
<path d="M33 42H38V46.5H33V42Z" fill="#D9D9D9"/>
<path d="M38 47.5H43V52H38V47.5Z" fill="#D9D9D9"/>
<path d="M47.5 47.5H53V49.5V52H47.5V47.5Z" fill="#D9D9D9"/>
<path d="M47.5 47.5H53V49.5V52H47.5V47.5Z" fill="#D9D9D9"/>
<path d="M33 42H38V46.5H33V42Z" fill="#1D2129"/>
<path d="M38 47.5H43V52H38V47.5Z" fill="#1D2129"/>
<path d="M47.5 47.5H53V49.5V52H47.5V47.5Z" fill="#1D2129"/>
<path d="M47.5 47.5H53V49.5V52H47.5V47.5Z" fill="#1D2129"/>
<path d="M53 42H58V44V46.5H53V42Z" fill="#1D2129"/>
<path d="M53 42H58V44V46.5H53V42Z" fill="#1D2129"/>
<path d="M53 42H58V44V46.5H53V42Z" fill="#1D2129"/>
<path d="M53 42H58V44V46.5H53V42Z" fill="#1D2129"/>
<path d="M58 36H63V38V41H58V36Z" fill="#1D2129"/>
<path d="M58 36H63V38V41H58V36Z" fill="#1D2129"/>
<path d="M58 36H63V38V41H58V36Z" fill="#1D2129"/>
<path d="M58 36H63V38V41H58V36Z" fill="#1D2129"/>
<path d="M43 53H47.5V58H43V53Z" fill="#1D2129"/>
<path d="M37 76H38V80.5H37H33V85.5H28.5V91H23V85.5H25V85H26V84H26.5V83H27.5V82.5H28V80H34V79H35V78H36V77H37V76Z" fill="#1D2129"/>
<path d="M54.5 76H52.5V81H54.5H58V85.5H63V91H68V85.5H66.5V85H65.5V84H65V83H64V82.5H63.5V80H57.5V79H56.5V78H55.5V77H54.5V76Z" fill="#1D2129"/>
<path d="M18.5 96H72.7282V100H18.5001L18.5 96Z" fill="#1D2129"/>
<path d="M22 5.5L72 5V9H22V5.5Z" fill="#52535A"/>
<path d="M2 100H13V102H14V103H15V104.5H75.5V103.5H76.5V103H77V102H78V100H89.5V101H90V101.5H91V103H90V103.5H89.5V104.5H82V105H82.5V106H81.5V107H81V108H10.5V107H9V106H8.5V105.5H9V105H2V104.5H1.5V103.5H1V103H0V101.5H1V101H1.5V100H2Z" fill="#1D2129"/>
</svg>
