<svg width="32" height="32" viewBox="0 0 32 32" fill="none" xmlns="http://www.w3.org/2000/svg">
<path d="M5.8775 13.8667H14.3673V16H17.6326V13.8667H26.7755V16H29.3877V25.6H26.7755V27.7334H24.1632V29.8667H17.6326V27.7334H15.0204V29.8667H8.48975V27.7334H5.8775V25.6H3.26526V16H5.8775V13.8667Z" fill="#FF0F40"/>
<rect x="6.53064" y="18.6666" width="2.61224" height="4.26667" fill="#B80D2F"/>
<rect x="9.14282" y="22.9333" width="2.61224" height="2.13333" fill="#B80D2F"/>
<rect x="0.653076" y="16" width="2.61224" height="9.6" fill="#8D0C32"/>
<rect x="3.26526" y="13.8667" width="2.61224" height="2.13333" fill="#8D0C32"/>
<rect x="5.87756" y="11.7333" width="8.4898" height="2.13333" fill="#8D0C32"/>
<rect x="14.3673" y="13.8667" width="3.26531" height="2.13333" fill="#8D0C32"/>
<rect x="17.6327" y="11.7333" width="9.14286" height="2.13333" fill="#8D0C32"/>
<rect x="26.7755" y="25.6" width="2.61224" height="2.13333" fill="#8D0C32"/>
<rect x="26.7755" y="25.6" width="2.61224" height="2.13333" fill="#8D0C32"/>
<rect x="24.1632" y="27.7333" width="2.61224" height="2.13333" fill="#8D0C32"/>
<rect x="17.6327" y="29.8667" width="6.53061" height="2.13333" fill="#8D0C32"/>
<rect x="8.48975" y="29.8667" width="6.53061" height="2.13333" fill="#8D0C32"/>
<rect x="5.87756" y="27.7333" width="2.61224" height="2.13333" fill="#8D0C32"/>
<rect x="3.26526" y="25.6" width="2.61224" height="2.13333" fill="#8D0C32"/>
<rect x="15.0204" y="27.7333" width="2.61224" height="2.13333" fill="#8D0C32"/>
<rect x="26.7755" y="13.8667" width="2.61224" height="2.13333" fill="#8D0C32"/>
<rect x="29.3877" y="16" width="2.61224" height="9.6" fill="#8D0C32"/>
<rect x="15.0204" y="4.26672" width="2.61224" height="6.93333" fill="#015000"/>
<rect x="17.6327" y="6.40002" width="5.87755" height="2.13333" fill="#015000"/>
<rect x="17.6327" y="2.1333" width="2.61224" height="2.13333" fill="#015000"/>
<rect x="23.5103" y="4.26672" width="2.61224" height="2.13333" fill="#015000"/>
<rect x="26.1224" y="2.1333" width="2.61224" height="2.13333" fill="#015000"/>
<rect x="20.2449" width="8.4898" height="2.13333" fill="#015000"/>
<rect x="20.2449" y="2.1333" width="5.87755" height="2.13333" fill="#92BC00"/>
<rect x="17.6327" y="4.26672" width="3.26531" height="2.13333" fill="#92BC00"/>
<rect x="23.5103" y="2.1333" width="2.61224" height="2.13333" fill="#789B00"/>
<rect x="20.8979" y="4.26672" width="2.61224" height="2.13333" fill="#789B00"/>
</svg>
