<svg width="32" height="32" viewBox="0 0 32 32" fill="none" xmlns="http://www.w3.org/2000/svg">
<rect x="5.90247" y="28.0975" width="1.56098" height="1.56098" fill="black"/>
<rect x="5.90247" y="28.0975" width="1.56098" height="1.56098" fill="black"/>
<rect x="5.90247" y="28.0975" width="1.56098" height="1.56098" fill="black"/>
<rect x="5.90247" y="28.0975" width="1.56098" height="1.56098" fill="black"/>
<rect x="2" y="14.8292" width="1.56098" height="10.1463" fill="black"/>
<rect x="3.56104" y="24.9756" width="1.56098" height="1.56098" fill="black"/>
<rect x="5.12195" y="26.5366" width="1.56098" height="1.56098" fill="black"/>
<rect x="6.68298" y="28.0975" width="1.56098" height="1.56098" fill="black"/>
<rect x="6.68298" y="29.6586" width="2.34146" height="1.56098" fill="black"/>
<rect x="23.0731" y="28.8781" width="2.34146" height="1.56098" fill="black"/>
<rect x="24.6342" y="28.0975" width="2.34146" height="1.56098" fill="black"/>
<rect x="26.1951" y="26.5366" width="1.56098" height="1.56098" fill="black"/>
<rect x="26.9756" y="24.1951" width="1.56098" height="2.34146" fill="black"/>
<rect x="26.9756" y="11.7073" width="1.56098" height="1.56098" fill="black"/>
<rect x="25.4147" y="10.1464" width="1.56098" height="1.56098" fill="black"/>
<rect x="3.56104" y="13.2683" width="1.56098" height="1.56098" fill="black"/>
<rect x="5.12195" y="10.9269" width="1.56098" height="2.34146" fill="black"/>
<rect x="6.68298" y="9.36584" width="1.56098" height="1.56098" fill="black"/>
<rect x="11.3658" y="6.2439" width="1.56098" height="1.56098" fill="black"/>
<rect x="12.9269" y="4.68298" width="1.56098" height="1.56098" fill="black"/>
<rect x="11.3658" y="3.12195" width="1.56098" height="1.56098" fill="black"/>
<rect x="16.0488" y="4.68298" width="1.56098" height="1.56098" fill="black"/>
<rect x="15.2683" y="7.80493" width="1.56098" height="1.56098" fill="black"/>
<rect x="12.9269" y="9.36584" width="1.56098" height="3.12195" fill="black"/>
<rect x="17.6097" y="3.12195" width="1.56098" height="1.56098" fill="black"/>
<rect x="19.1708" y="1.56104" width="3.90244" height="1.56098" fill="black"/>
<rect x="23.0731" width="5.46341" height="1.56098" fill="black"/>
<rect x="13.7073" y="7.80493" width="1.56098" height="1.56098" fill="#9D2F37"/>
<rect x="12.9269" y="6.2439" width="1.56098" height="1.56098" fill="#9D2F37"/>
<rect x="11.3658" y="4.68298" width="1.56098" height="1.56098" fill="#9D2F37"/>
<rect x="9.80493" y="3.12195" width="1.56098" height="1.56098" fill="#9D2F37"/>
<rect x="9.80493" y="3.12195" width="1.56098" height="1.56098" fill="#FDB698"/>
<rect x="23.8536" y="8.58533" width="1.56098" height="1.56098" fill="black"/>
<rect x="23.8536" y="6.2439" width="1.56098" height="1.56098" fill="black"/>
<rect x="19.1708" y="6.2439" width="1.56098" height="1.56098" fill="black"/>
<rect x="23.0731" y="3.12195" width="2.34146" height="1.56098" fill="black"/>
<rect x="23.0731" y="4.68298" width="1.56098" height="0.780488" fill="black"/>
<rect x="21.5122" y="4.68298" width="1.56098" height="1.56098" fill="black"/>
<rect x="26.9756" y="1.56104" width="1.56098" height="1.56098" fill="black"/>
<rect x="25.4147" y="3.12195" width="3.12195" height="3.12195" fill="black"/>
<rect x="14.4878" y="6.2439" width="3.12195" height="1.56098" fill="black"/>
<rect x="9.80493" y="4.68298" width="1.56098" height="1.56098" fill="black"/>
<rect x="8.2439" y="2.34143" width="1.56098" height="3.12195" fill="black"/>
<rect x="9.80493" y="2.34143" width="3.12195" height="0.780488" fill="black"/>
<rect x="8.2439" y="7.80493" width="4.68293" height="1.56098" fill="black"/>
<rect x="16.8292" y="9.36584" width="2.34146" height="1.56098" fill="black"/>
<rect x="14.4878" y="10.9269" width="3.12195" height="1.56098" fill="black"/>
<rect x="19.1708" y="7.80493" width="4.68293" height="1.56098" fill="black"/>
<rect x="28.5366" y="13.2683" width="1.56098" height="11.7073" fill="black"/>
<rect x="9.02441" y="30.439" width="15.6098" height="1.56098" fill="black"/>
<path d="M3.56104 20.2926H5.12201V21.8536H6.68299V23.4146H7.46347V24.9756H9.02445V26.5365H9.80494V27.317H11.3659H12.9269V28.0975H13.7074V29.6585H15.2684V28.878H16.8293V28.0975H18.3903V27.317H20.7318V25.7561H23.0732V23.4146H24.6342V21.8536H26.1952V15.6097H24.6342V14.8292H26.1952V11.7073H26.9757V13.2683H28.5366V24.1951H26.9757V26.5365H26.1952V28.0975H24.6342V28.878H23.0732V30.439H9.02445V29.6585H8.24396V28.0975H6.68299V26.5365H5.12201V24.9756H3.56104V20.2926Z" fill="#AB0000"/>
<rect x="9.80493" y="24.9756" width="1.56098" height="1.56098" fill="#AB0000"/>
<rect x="17.6097" y="10.9269" width="3.12195" height="1.56098" fill="#D9D9D9"/>
<rect x="19.1708" y="9.36584" width="4.68293" height="1.56098" fill="#DE0000"/>
<rect x="17.6097" y="10.9269" width="3.12195" height="1.56098" fill="#DE0000"/>
<rect x="14.4878" y="9.36584" width="2.34146" height="1.56098" fill="#DE0000"/>
<rect x="12.9269" y="7.80493" width="0.780488" height="1.56098" fill="#A80202"/>
<rect x="9.80493" y="10.9269" width="1.56098" height="1.56098" fill="white"/>
<rect x="6.68298" y="17.1708" width="1.56098" height="1.56098" fill="white"/>
<path d="M6.68298 13.2683H8.24396V12.4878H9.80493V13.2683H11.3659V14.8293H9.02445V15.6097H8.24396V16.3902H6.68298V13.2683Z" fill="white"/>
<path d="M3.56104 14.8293H5.12201V18.7317H8.24396V21.0732H16.0488V20.2927H17.6098V18.7317H18.3903V17.1708H19.1708V16.3903H20.7318V14.8293H22.2927V12.4878H23.0732V10.9269H23.8537V10.1464H25.4147V10.9269V11.7073H26.1952V14.8293H24.6342V15.6098V17.9512H23.0732V21.0732H19.9513V22.6342H17.6098V23.4147H13.7074V24.9756H11.3659H7.46347V23.4147H6.68299V21.8537H5.12201V20.2927H3.56104V14.8293Z" fill="#F91010"/>
<rect x="9.02441" y="24.9756" width="0.780488" height="1.56098" fill="#D81E1E"/>
<rect x="9.80493" y="26.5366" width="1.56098" height="0.780488" fill="#D81E1E"/>
<path d="M11.3658 24.9756H13.7073V23.4146H17.6097V22.6341H19.9512V21.0732H23.0732V17.9512H24.6341V15.6097H26.1951V21.8536H24.6341V23.4146H23.0732V25.7561H20.7317V26.1463V27.3171H18.3902V28.0975H16.8293V28.878H15.2683V29.6585H13.7073V28.0975H12.9268V27.3171H11.3658V24.9756Z" fill="#E20000"/>
<rect x="5.12195" y="13.2683" width="1.56098" height="5.46341" fill="#F43535"/>
<rect x="6.68298" y="10.9269" width="1.56098" height="2.34146" fill="#F43535"/>
<rect x="8.2439" y="9.36584" width="1.56098" height="3.12195" fill="#F43535"/>
<rect x="9.80493" y="9.36584" width="1.56098" height="1.56098" fill="#F43535"/>
<rect x="9.80493" y="12.4878" width="1.56098" height="0.780488" fill="#D81E1E"/>
<rect x="6.68298" y="16.3903" width="1.56098" height="0.780488" fill="#D81E1E"/>
<path d="M8.2439 15.6097H9.02438V14.8293H11.3658V13.2683V9.36584H12.9268V12.4878H20.7317V10.9268H23.0732V12.4878H22.2927V14.8293H20.7317V16.3902H19.1707V17.1707H15.2683V17.9512H13.7073V18.7317H12.9268V20.2927H9.80487V21.0732H8.2439V15.6097Z" fill="#F63939"/>
<rect x="6.68298" y="19.5122" width="1.56098" height="0.780488" fill="white"/>
<rect x="23.0731" y="1.56104" width="2.34146" height="1.56098" fill="#ABEE60"/>
<rect x="23.0731" y="1.56104" width="2.34146" height="1.56098" fill="#ABEE60"/>
<rect x="16.8292" y="7.80493" width="2.34146" height="1.56098" fill="#227B57"/>
<rect x="16.8292" y="7.80493" width="2.34146" height="1.56098" fill="#227B57"/>
<rect x="20.7317" y="6.2439" width="3.12195" height="1.56098" fill="#227B57"/>
<rect x="20.7317" y="6.2439" width="3.12195" height="1.56098" fill="#227B57"/>
<rect x="23.0731" y="5.46338" width="2.34146" height="0.780488" fill="#227B57"/>
<rect x="23.0731" y="5.46338" width="2.34146" height="0.780488" fill="#227B57"/>
<rect x="24.6342" y="4.68298" width="0.780488" height="0.780488" fill="#227B57"/>
<rect x="24.6342" y="4.68298" width="0.780488" height="0.780488" fill="#227B57"/>
<rect x="25.4147" y="1.56104" width="1.56098" height="1.56098" fill="#227B57"/>
<rect x="25.4147" y="1.56104" width="1.56098" height="1.56098" fill="#227B57"/>
<rect x="19.1708" y="3.12195" width="3.90244" height="1.56098" fill="#D2FE9B"/>
<rect x="17.6097" y="4.68298" width="3.12195" height="1.56098" fill="#D2FE9B"/>
<rect x="17.6097" y="6.2439" width="1.56098" height="1.56098" fill="#82D547"/>
<rect x="20.7317" y="4.68298" width="0.780488" height="1.56098" fill="#82D547"/>
<path d="M9.80493 20.2927H12.9269V18.7317H13.7074V17.9512H15.2683V17.1707V16.3903H19.1708V17.1707H18.3903V18.7317H17.6098V20.2927H16.0488V21.0732H9.80493V20.2927Z" fill="#EF2828"/>
</svg>
