<svg width="32" height="32" viewBox="0 0 32 32" fill="none" xmlns="http://www.w3.org/2000/svg">
<rect x="2.90894" y="18.4546" width="3.87879" height="0.969697" fill="black"/>
<rect x="2.90894" y="18.4546" width="3.87879" height="0.969697" fill="black"/>
<rect x="6.78784" y="17.4849" width="1.93939" height="0.969697" fill="black"/>
<rect x="6.78784" y="17.4849" width="1.93939" height="0.969697" fill="black"/>
<rect x="8.72729" y="16.5151" width="1.93939" height="0.969697" fill="black"/>
<rect x="8.72729" y="16.5151" width="1.93939" height="0.969697" fill="black"/>
<rect x="10.6665" y="15.5454" width="1.93939" height="0.969697" fill="black"/>
<rect x="10.6665" y="15.5454" width="1.93939" height="0.969697" fill="black"/>
<rect x="12.6062" y="14.5758" width="0.969697" height="0.969697" fill="black"/>
<rect x="12.6062" y="14.5758" width="0.969697" height="0.969697" fill="black"/>
<rect x="13.5757" y="13.6061" width="0.969697" height="0.969697" fill="black"/>
<rect x="13.5757" y="13.6061" width="0.969697" height="0.969697" fill="black"/>
<rect x="14.5454" y="12.6364" width="0.969697" height="0.969697" fill="black"/>
<rect x="14.5454" y="12.6364" width="0.969697" height="0.969697" fill="black"/>
<rect x="15.5151" y="11.6666" width="0.969697" height="0.969697" fill="black"/>
<rect x="15.5151" y="11.6666" width="0.969697" height="0.969697" fill="black"/>
<rect x="16.4849" y="10.697" width="0.969697" height="0.969697" fill="black"/>
<rect x="16.4849" y="10.697" width="0.969697" height="0.969697" fill="black"/>
<rect x="17.4546" y="9.72729" width="0.969697" height="0.969697" fill="black"/>
<rect x="17.4546" y="9.72729" width="0.969697" height="0.969697" fill="black"/>
<rect x="18.4241" y="8.75757" width="0.969697" height="0.969697" fill="black"/>
<rect x="18.4241" y="8.75757" width="0.969697" height="0.969697" fill="black"/>
<rect x="19.394" y="7.78784" width="0.969697" height="0.969697" fill="black"/>
<rect x="19.394" y="7.78784" width="0.969697" height="0.969697" fill="black"/>
<rect x="20.3638" y="6.81824" width="0.969697" height="0.969697" fill="black"/>
<rect x="20.3638" y="6.81824" width="0.969697" height="0.969697" fill="black"/>
<rect x="28.1213" y="8.75757" width="0.969697" height="0.969697" fill="black"/>
<rect x="28.1213" y="8.75757" width="0.969697" height="0.969697" fill="black"/>
<rect x="29.0908" y="9.72729" width="0.969697" height="0.969697" fill="black"/>
<rect x="29.0908" y="9.72729" width="0.969697" height="0.969697" fill="black"/>
<rect x="29.0908" y="21.3635" width="0.969697" height="0.969697" fill="black"/>
<rect x="29.0908" y="21.3635" width="0.969697" height="0.969697" fill="black"/>
<rect x="28.1213" y="22.3334" width="0.969697" height="0.969697" fill="black"/>
<rect x="28.1213" y="22.3334" width="0.969697" height="0.969697" fill="black"/>
<rect x="27.1516" y="23.303" width="0.969697" height="0.969697" fill="black"/>
<rect x="27.1516" y="23.303" width="0.969697" height="0.969697" fill="black"/>
<rect x="26.1816" y="24.2727" width="0.969697" height="0.969697" fill="black"/>
<rect x="26.1816" y="24.2727" width="0.969697" height="0.969697" fill="black"/>
<rect x="25.2122" y="25.2424" width="0.969697" height="0.969697" fill="black"/>
<rect x="25.2122" y="25.2424" width="0.969697" height="0.969697" fill="black"/>
<rect x="24.2424" y="26.2122" width="0.969697" height="0.969697" fill="black"/>
<rect x="24.2424" y="26.2122" width="0.969697" height="0.969697" fill="black"/>
<rect x="21.3333" y="28.1515" width="0.969697" height="0.969697" fill="black"/>
<rect x="21.3333" y="28.1515" width="0.969697" height="0.969697" fill="black"/>
<rect x="19.394" y="29.1211" width="1.93939" height="0.969697" fill="black"/>
<rect x="19.394" y="29.1211" width="1.93939" height="0.969697" fill="black"/>
<rect x="11.6365" y="29.1211" width="1.93939" height="0.969697" fill="black"/>
<rect x="11.6365" y="29.1211" width="1.93939" height="0.969697" fill="black"/>
<rect x="8.72729" y="28.1515" width="2.90909" height="0.969697" fill="black"/>
<rect x="8.72729" y="28.1515" width="2.90909" height="0.969697" fill="black"/>
<rect x="6.78784" y="27.1818" width="1.93939" height="0.969697" fill="black"/>
<rect x="6.78784" y="27.1818" width="1.93939" height="0.969697" fill="black"/>
<rect x="5.81812" y="26.2122" width="0.969697" height="0.969697" fill="black"/>
<rect x="5.81812" y="26.2122" width="0.969697" height="0.969697" fill="black"/>
<rect x="2.90894" y="25.2424" width="2.90909" height="0.969697" fill="black"/>
<rect x="2.90894" y="25.2424" width="2.90909" height="0.969697" fill="black"/>
<rect x="5.81812" y="22.3334" width="2.90909" height="0.969697" fill="black"/>
<rect x="5.81812" y="22.3334" width="2.90909" height="0.969697" fill="black"/>
<rect x="8.72729" y="21.3635" width="1.93939" height="0.969697" fill="black"/>
<rect x="8.72729" y="21.3635" width="1.93939" height="0.969697" fill="black"/>
<rect x="10.6665" y="20.3939" width="1.93939" height="0.969697" fill="black"/>
<rect x="10.6665" y="20.3939" width="1.93939" height="0.969697" fill="black"/>
<rect x="12.6062" y="19.4242" width="1.93939" height="0.969697" fill="black"/>
<rect x="12.6062" y="19.4242" width="1.93939" height="0.969697" fill="black"/>
<rect x="1.93945" y="24.2727" width="0.969697" height="0.969697" fill="black"/>
<rect x="1.93945" y="24.2727" width="0.969697" height="0.969697" fill="black"/>
<rect x="0.969727" y="23.303" width="0.969697" height="0.969697" fill="black"/>
<rect x="0.969727" y="23.303" width="0.969697" height="0.969697" fill="black"/>
<rect x="1.93945" y="19.4242" width="0.969697" height="0.969697" fill="black"/>
<rect x="1.93945" y="19.4242" width="0.969697" height="0.969697" fill="black"/>
<rect x="5.81812" y="23.303" width="0.969697" height="2.90909" fill="black"/>
<rect x="5.81812" y="23.303" width="0.969697" height="2.90909" fill="black"/>
<rect y="20.3939" width="0.969697" height="2.90909" fill="black"/>
<rect y="20.3939" width="0.969697" height="2.90909" fill="black"/>
<rect x="10.6665" y="25.2424" width="1.93939" height="0.969697" fill="black"/>
<rect x="10.6665" y="25.2424" width="1.93939" height="0.969697" fill="black"/>
<rect x="14.5454" y="23.303" width="1.93939" height="0.969697" fill="black"/>
<rect x="14.5454" y="23.303" width="1.93939" height="0.969697" fill="black"/>
<rect x="16.4849" y="22.3334" width="0.969697" height="0.969697" fill="black"/>
<rect x="16.4849" y="22.3334" width="0.969697" height="0.969697" fill="black"/>
<rect x="14.5454" y="18.4546" width="0.969697" height="0.969697" fill="black"/>
<rect x="14.5454" y="18.4546" width="0.969697" height="0.969697" fill="black"/>
<rect x="15.5151" y="17.4849" width="0.969697" height="0.969697" fill="black"/>
<rect x="15.5151" y="17.4849" width="0.969697" height="0.969697" fill="black"/>
<rect x="18.4241" y="14.5758" width="0.969697" height="0.969697" fill="black"/>
<rect x="18.4241" y="14.5758" width="0.969697" height="0.969697" fill="black"/>
<rect x="19.394" y="12.6364" width="0.969697" height="1.93939" fill="black"/>
<rect x="19.394" y="12.6364" width="0.969697" height="1.93939" fill="black"/>
<rect x="20.3638" y="11.6666" width="0.969697" height="0.969697" fill="black"/>
<rect x="20.3638" y="11.6666" width="0.969697" height="0.969697" fill="black"/>
<rect x="21.3333" y="10.697" width="0.969697" height="0.969697" fill="black"/>
<rect x="21.3333" y="10.697" width="0.969697" height="0.969697" fill="black"/>
<rect x="22.303" y="8.75757" width="0.969697" height="0.969697" fill="black"/>
<rect x="22.303" y="8.75757" width="0.969697" height="0.969697" fill="black"/>
<rect x="17.4546" y="15.5454" width="0.969697" height="0.969697" fill="black"/>
<rect x="17.4546" y="15.5454" width="0.969697" height="0.969697" fill="black"/>
<rect x="16.4849" y="16.5151" width="0.969697" height="0.969697" fill="black"/>
<rect x="16.4849" y="16.5151" width="0.969697" height="0.969697" fill="black"/>
<rect x="19.394" y="20.3939" width="0.969697" height="0.969697" fill="black"/>
<rect x="19.394" y="20.3939" width="0.969697" height="0.969697" fill="black"/>
<rect x="21.3333" y="17.4849" width="0.969697" height="1.93939" fill="black"/>
<rect x="21.3333" y="17.4849" width="0.969697" height="1.93939" fill="black"/>
<rect x="22.303" y="15.5454" width="0.969697" height="2.90909" fill="black"/>
<rect x="22.303" y="15.5454" width="0.969697" height="2.90909" fill="black"/>
<rect x="20.3638" y="19.4242" width="0.969697" height="0.969697" fill="black"/>
<rect x="20.3638" y="19.4242" width="0.969697" height="0.969697" fill="black"/>
<rect x="23.2727" y="14.5758" width="0.969697" height="0.969697" fill="black"/>
<rect x="23.2727" y="14.5758" width="0.969697" height="0.969697" fill="black"/>
<rect x="24.2424" y="11.6666" width="0.969697" height="2.90909" fill="black"/>
<rect x="24.2424" y="11.6666" width="0.969697" height="2.90909" fill="black"/>
<rect x="25.2122" y="7.78784" width="0.969697" height="3.87879" fill="black"/>
<rect x="25.2122" y="7.78784" width="0.969697" height="3.87879" fill="black"/>
<rect x="17.4546" y="21.3635" width="1.93939" height="0.969697" fill="black"/>
<rect x="17.4546" y="21.3635" width="1.93939" height="0.969697" fill="black"/>
<rect x="12.6062" y="24.2727" width="2.90909" height="0.969697" fill="black"/>
<rect x="12.6062" y="24.2727" width="2.90909" height="0.969697" fill="black"/>
<rect x="9.69702" y="26.2122" width="0.969697" height="1.93939" fill="black"/>
<rect x="9.69702" y="26.2122" width="0.969697" height="1.93939" fill="black"/>
<rect width="5.81818" height="0.969697" transform="matrix(1 0 0 -1 13.5757 31.0605)" fill="black"/>
<rect width="5.81818" height="0.969697" transform="matrix(1 0 0 -1 13.5757 31.0605)" fill="black"/>
<rect x="22.303" y="27.1818" width="1.93939" height="0.969697" fill="black"/>
<rect x="22.303" y="27.1818" width="1.93939" height="0.969697" fill="black"/>
<rect x="30.0605" y="10.697" width="0.969697" height="1.93939" fill="black"/>
<rect x="30.0605" y="10.697" width="0.969697" height="1.93939" fill="black"/>
<rect x="31.0303" y="12.6364" width="0.969697" height="6.78788" fill="black"/>
<rect x="31.0303" y="12.6364" width="0.969697" height="6.78788" fill="black"/>
<rect x="30.0605" y="19.4242" width="0.969697" height="1.93939" fill="black"/>
<rect x="30.0605" y="19.4242" width="0.969697" height="1.93939" fill="black"/>
<rect x="22.303" y="1" width="2.90909" height="0.969697" fill="black"/>
<rect x="22.303" y="1" width="2.90909" height="0.969697" fill="black"/>
<rect x="21.3333" y="1.96973" width="0.969697" height="4.84848" fill="black"/>
<rect x="21.3333" y="1.96973" width="0.969697" height="4.84848" fill="black"/>
<rect x="23.2727" y="4.87878" width="0.969697" height="3.87879" fill="black"/>
<rect x="23.2727" y="4.87878" width="0.969697" height="3.87879" fill="black"/>
<rect x="27.1516" y="4.87878" width="0.969697" height="3.87879" fill="black"/>
<rect x="27.1516" y="4.87878" width="0.969697" height="3.87879" fill="black"/>
<rect x="25.2122" y="1.96973" width="0.969697" height="3.87879" fill="black"/>
<rect x="25.2122" y="1.96973" width="0.969697" height="3.87879" fill="black"/>
<rect x="26.1816" y="2.93945" width="0.969697" height="1.93939" fill="black"/>
<rect x="26.1816" y="2.93945" width="0.969697" height="1.93939" fill="black"/>
<rect x="19.394" y="8.75757" width="0.969697" height="0.969697" fill="white"/>
<rect x="19.394" y="8.75757" width="0.969697" height="0.969697" fill="white"/>
<rect x="18.4241" y="9.72729" width="0.969697" height="0.969697" fill="white"/>
<rect x="18.4241" y="9.72729" width="0.969697" height="0.969697" fill="white"/>
<rect x="17.4546" y="10.697" width="0.969697" height="0.969697" fill="white"/>
<rect x="17.4546" y="10.697" width="0.969697" height="0.969697" fill="white"/>
<rect x="16.4849" y="11.6666" width="0.969697" height="0.969697" fill="white"/>
<rect x="16.4849" y="11.6666" width="0.969697" height="0.969697" fill="white"/>
<rect x="15.5151" y="12.6364" width="0.969697" height="0.969697" fill="white"/>
<rect x="15.5151" y="12.6364" width="0.969697" height="0.969697" fill="white"/>
<rect x="14.5454" y="13.6061" width="0.969697" height="0.969697" fill="white"/>
<rect x="14.5454" y="13.6061" width="0.969697" height="0.969697" fill="white"/>
<rect x="16.4849" y="17.4849" width="0.969697" height="0.969697" fill="white"/>
<rect x="16.4849" y="17.4849" width="0.969697" height="0.969697" fill="white"/>
<rect x="19.394" y="14.5758" width="0.969697" height="0.969697" fill="white"/>
<rect x="19.394" y="14.5758" width="0.969697" height="0.969697" fill="white"/>
<rect x="20.3638" y="12.6364" width="0.969697" height="1.93939" fill="white"/>
<rect x="20.3638" y="12.6364" width="0.969697" height="1.93939" fill="white"/>
<rect x="21.3333" y="11.6666" width="0.969697" height="0.969697" fill="white"/>
<rect x="21.3333" y="11.6666" width="0.969697" height="0.969697" fill="white"/>
<rect x="17.4546" y="16.5151" width="1.93939" height="0.969697" fill="white"/>
<rect x="17.4546" y="16.5151" width="1.93939" height="0.969697" fill="white"/>
<rect x="18.4241" y="15.5454" width="1.93939" height="0.969697" fill="white"/>
<rect x="18.4241" y="15.5454" width="1.93939" height="0.969697" fill="white"/>
<rect x="14.5454" y="19.4242" width="0.969697" height="0.969697" fill="white"/>
<rect x="14.5454" y="19.4242" width="0.969697" height="0.969697" fill="white"/>
<rect x="15.5151" y="24.2727" width="0.969697" height="0.969697" fill="white"/>
<rect x="15.5151" y="24.2727" width="0.969697" height="0.969697" fill="white"/>
<rect x="16.4849" y="23.303" width="0.969697" height="0.969697" fill="white"/>
<rect x="16.4849" y="23.303" width="0.969697" height="0.969697" fill="white"/>
<rect x="19.394" y="21.3635" width="0.969697" height="0.969697" fill="white"/>
<rect x="19.394" y="21.3635" width="0.969697" height="0.969697" fill="white"/>
<rect x="20.3638" y="20.3939" width="0.969697" height="0.969697" fill="white"/>
<rect x="20.3638" y="20.3939" width="0.969697" height="0.969697" fill="white"/>
<rect x="21.3333" y="19.4242" width="0.969697" height="0.969697" fill="white"/>
<rect x="21.3333" y="19.4242" width="0.969697" height="0.969697" fill="white"/>
<rect x="22.303" y="18.4546" width="0.969697" height="0.969697" fill="white"/>
<rect x="22.303" y="18.4546" width="0.969697" height="0.969697" fill="white"/>
<rect x="25.2122" y="11.6666" width="0.969697" height="2.90909" fill="white"/>
<rect x="25.2122" y="11.6666" width="0.969697" height="2.90909" fill="white"/>
<rect x="24.2424" y="14.5758" width="0.969697" height="1.93939" fill="white"/>
<rect x="24.2424" y="14.5758" width="0.969697" height="1.93939" fill="white"/>
<rect x="23.2727" y="16.5151" width="0.969697" height="1.93939" fill="white"/>
<rect x="23.2727" y="16.5151" width="0.969697" height="1.93939" fill="white"/>
<rect x="17.4546" y="22.3334" width="1.93939" height="0.969697" fill="white"/>
<rect x="17.4546" y="22.3334" width="1.93939" height="0.969697" fill="white"/>
<rect x="13.5757" y="20.3939" width="0.969697" height="0.969697" fill="white"/>
<rect x="13.5757" y="20.3939" width="0.969697" height="0.969697" fill="white"/>
<rect x="12.6062" y="15.5454" width="0.969697" height="0.969697" fill="white"/>
<rect x="12.6062" y="15.5454" width="0.969697" height="0.969697" fill="white"/>
<rect x="10.6665" y="16.5151" width="1.93939" height="0.969697" fill="white"/>
<rect x="10.6665" y="16.5151" width="1.93939" height="0.969697" fill="white"/>
<rect x="8.72729" y="17.4849" width="2.90909" height="0.969697" fill="white"/>
<rect x="8.72729" y="17.4849" width="2.90909" height="0.969697" fill="white"/>
<rect x="2.90894" y="19.4242" width="1.93939" height="0.969697" fill="white"/>
<rect x="2.90894" y="19.4242" width="1.93939" height="0.969697" fill="white"/>
<rect x="8.72729" y="22.3334" width="0.969697" height="0.969697" fill="white"/>
<rect x="8.72729" y="22.3334" width="0.969697" height="0.969697" fill="white"/>
<rect x="10.6665" y="21.3635" width="2.90909" height="0.969697" fill="white"/>
<rect x="10.6665" y="21.3635" width="2.90909" height="0.969697" fill="white"/>
<rect x="13.5757" y="25.2424" width="1.93939" height="0.969697" fill="white"/>
<rect x="13.5757" y="25.2424" width="1.93939" height="0.969697" fill="white"/>
<rect x="13.5757" y="14.5758" width="0.969697" height="1.93939" fill="white"/>
<rect x="13.5757" y="14.5758" width="0.969697" height="1.93939" fill="white"/>
<rect x="6.78784" y="18.4546" width="2.90909" height="0.969697" fill="#F8F77C"/>
<rect x="15.5151" y="18.4546" width="0.969697" height="0.969697" fill="#F8F77C"/>
<rect x="12.6062" y="25.2424" width="0.969697" height="0.969697" fill="#F8F77C"/>
<path d="M1.93945 20.394H4.84854V19.4243H9.69703V18.4546H11.6364V17.4849H12.6061V16.5152H14.5455V14.5758H15.5152V13.6061H16.4849V12.6364H17.4546V11.6667H18.4243V10.697H19.394V9.72729H20.3637H22.3031V10.697H21.3334H20.3637V12.6364H19.394V14.5758H18.4243V15.5455H17.4546V16.5152H16.4849V17.4849H14.5455V18.4546H13.5758V19.4243H12.6061V20.394H10.6667H9.69703V21.3637H8.72733H6.78794V22.3334H1.93945V20.394Z" fill="#F8F600"/>
<rect x="13.5757" y="18.4546" width="0.969697" height="0.969697" fill="#EE813C"/>
<rect x="13.5757" y="18.4546" width="0.969697" height="0.969697" fill="#EE813C"/>
<rect x="12.6062" y="20.3939" width="0.969697" height="0.969697" fill="#EE813C"/>
<rect x="12.6062" y="20.3939" width="0.969697" height="0.969697" fill="#EE813C"/>
<rect x="11.6365" y="24.2727" width="0.969697" height="0.969697" fill="#EE813C"/>
<rect x="11.6365" y="24.2727" width="0.969697" height="0.969697" fill="#EE813C"/>
<rect x="11.6365" y="27.1818" width="0.969697" height="0.969697" fill="#EE813C"/>
<rect x="11.6365" y="27.1818" width="0.969697" height="0.969697" fill="#EE813C"/>
<rect x="19.394" y="19.4242" width="0.969697" height="0.969697" fill="#EE813C"/>
<rect x="19.394" y="19.4242" width="0.969697" height="0.969697" fill="#EE813C"/>
<rect x="20.3638" y="18.4546" width="0.969697" height="0.969697" fill="#EE813C"/>
<rect x="20.3638" y="18.4546" width="0.969697" height="0.969697" fill="#EE813C"/>
<rect x="23.2727" y="15.5454" width="0.969697" height="0.969697" fill="#EE813C"/>
<rect x="23.2727" y="15.5454" width="0.969697" height="0.969697" fill="#EE813C"/>
<rect x="22.303" y="9.72729" width="0.969697" height="0.969697" fill="#EE813C"/>
<rect x="22.303" y="9.72729" width="0.969697" height="0.969697" fill="#EE813C"/>
<path d="M21.3333 7.78784H22.3029H23.2726V8.75754H22.3029V9.72724H21.3333V7.78784Z" fill="#EE813C"/>
<path d="M21.3333 7.78784H22.3029H23.2726V8.75754H22.3029V9.72724H21.3333V7.78784Z" fill="#EE813C"/>
<rect x="9.69702" y="20.3939" width="0.969697" height="0.969697" fill="#F8C411"/>
<rect x="2.90894" y="22.3334" width="0.969697" height="0.969697" fill="#F8C411"/>
<rect x="0.969727" y="20.3939" width="0.969697" height="0.969697" fill="#AC625C"/>
<rect x="0.969727" y="21.3635" width="0.969697" height="0.969697" fill="#95393C"/>
<rect x="6.78784" y="23.303" width="0.969697" height="0.969697" fill="#95393C"/>
<rect x="10.6665" y="26.2122" width="0.969697" height="0.969697" fill="#95393C"/>
<rect x="0.969727" y="22.3334" width="1.93939" height="0.969697" fill="#55192F"/>
<rect x="1.93945" y="23.303" width="0.969697" height="0.969697" fill="#55192F"/>
<rect x="6.78784" y="24.2727" width="0.969697" height="2.90909" fill="#55192F"/>
<rect x="10.6665" y="27.1818" width="0.969697" height="0.969697" fill="#55192F"/>
<path d="M3.87863 22.3334H5.81803V25.2425H3.87863H2.90894V23.3031H3.87863V22.3334Z" fill="#EB8833"/>
<rect x="14.5454" y="17.4849" width="0.969697" height="0.969697" fill="#EE813C"/>
<rect x="14.5454" y="17.4849" width="0.969697" height="0.969697" fill="#EE813C"/>
<rect x="6.78784" y="21.3635" width="1.93939" height="0.969697" fill="#EE813C"/>
<rect x="6.78784" y="21.3635" width="1.93939" height="0.969697" fill="#EE813C"/>
<rect x="8.72729" y="27.1818" width="0.969697" height="0.969697" fill="#EB8833"/>
<rect x="7.75757" y="25.2424" width="2.90909" height="1.93939" fill="#FFAE27"/>
<path d="M7.75757 23.3031H9.69696V22.3334H13.5758V21.3637H14.5454V20.394H15.5151V19.4243H16.4848V18.4546H17.4545V17.4849H18.4242H19.3939V16.5152H20.3636V14.5758H21.3333V12.6364H22.303V10.697H23.2727V9.72729H25.2121V11.6667H24.2424V12.6364V14.5758H23.2727V15.5455H22.303V17.4849H21.3333V18.4546H20.3636V19.4243H19.3939V21.3637H17.4545V22.3334H16.4848V23.3031H14.5454V24.2727H12.6061H11.6364V25.2424H7.75757V23.3031Z" fill="#F8F600"/>
<path d="M11.6365 26.2121H15.5147V25.2424H16.4844V24.2727H17.4541V23.3031H19.3935V22.3334H20.3632V21.3637H21.3329V20.394H22.3026V19.4243H23.2723V18.4546H24.242V16.5152H25.2117V14.5758H26.1814V10.697V9.72729H28.1208V10.697H29.0904V18.4546H28.1208V20.394H27.1511V21.3637H26.1814V22.3334H25.2117V23.3031H24.242H23.2723V24.2727H22.3026V25.2424H21.3329V26.2121H20.3632V27.1818H11.6365V26.2121Z" fill="#F8F600"/>
<rect x="12.6062" y="27.1818" width="7.75758" height="0.969697" fill="#F7BE18"/>
<rect x="12.6062" y="27.1818" width="7.75758" height="0.969697" fill="#F7BE18"/>
<rect x="20.3638" y="26.2122" width="0.969697" height="0.969697" fill="#F7BE18"/>
<rect x="21.3333" y="25.2424" width="0.969697" height="0.969697" fill="#F7BE18"/>
<rect x="23.2727" y="23.303" width="0.969697" height="0.969697" fill="#F7BE18"/>
<rect x="29.0908" y="14.5758" width="0.969697" height="0.969697" fill="#F7BE18"/>
<path d="M14.5454 28.1516H20.3636V27.1819H21.3333V26.2122H22.303V25.2425V24.2728H24.2424V23.3031H25.2121V22.3334H26.1818V21.3637H27.1515V20.394H28.1212V18.4546H29.0909V15.5455H30.0606V14.5758H29.0909V12.6364V10.697H30.0606V12.6364H31.0303V19.4243H30.0606V21.3637H29.0909V22.3334H28.1212V23.3031H27.1515V24.2728H26.1818V25.2425H25.2121V26.2122H24.2424V27.1819H22.303V28.1516H21.3333V29.1213H14.5454V28.1516Z" fill="#EE813C"/>
<rect x="28.1213" y="9.72729" width="0.969697" height="0.969697" fill="#EE813C"/>
<rect x="13.5757" y="29.1211" width="5.81818" height="0.969697" fill="#EF8748"/>
<rect x="13.5757" y="29.1211" width="5.81818" height="0.969697" fill="#EF8748"/>
<rect x="11.6365" y="28.1515" width="2.90909" height="0.969697" fill="#EF8748"/>
<rect x="11.6365" y="28.1515" width="2.90909" height="0.969697" fill="#EF8748"/>
<rect x="24.2424" y="7.78784" width="0.969697" height="1.93939" fill="#A0CB33"/>
<rect x="24.2424" y="7.78784" width="0.969697" height="1.93939" fill="#A0CB33"/>
<rect x="22.303" y="4.87878" width="0.969697" height="2.90909" fill="#A0CB33"/>
<rect x="22.303" y="4.87878" width="0.969697" height="2.90909" fill="#A0CB33"/>
<rect x="26.1816" y="7.78784" width="0.969697" height="0.969697" fill="#A0CB33"/>
<rect x="26.1816" y="7.78784" width="0.969697" height="0.969697" fill="#A0CB33"/>
<rect x="26.1816" y="8.75757" width="0.969697" height="0.969697" fill="#CADB19"/>
<rect x="23.2727" y="8.75757" width="0.969697" height="0.969697" fill="#CADB19"/>
<rect x="20.3638" y="7.78784" width="0.969697" height="0.969697" fill="#CADB19"/>
<rect x="21.3333" y="6.81824" width="0.969697" height="0.969697" fill="#CADB19"/>
<rect x="27.1516" y="8.75757" width="0.969697" height="0.969697" fill="#A0CB33"/>
<rect x="27.1516" y="8.75757" width="0.969697" height="0.969697" fill="#A0CB33"/>
<rect x="20.3638" y="8.75757" width="0.969697" height="0.969697" fill="#F4BB24"/>
<rect x="20.3638" y="10.697" width="0.969697" height="0.969697" fill="#F4BB24"/>
<path d="M23.2727 1.96973H25.2121V6.81821H24.2424V4.87882H23.2727V1.96973Z" fill="#88313A"/>
<rect x="25.2122" y="6.81824" width="1.93939" height="0.969697" fill="#88313A"/>
<rect x="26.1816" y="4.87878" width="0.969697" height="0.969697" fill="#88313A"/>
<rect x="22.303" y="3.90906" width="0.969697" height="0.969697" fill="#88313A"/>
<rect x="22.303" y="1.96973" width="0.969697" height="1.93939" fill="#D1764E"/>
<rect x="25.2122" y="5.84851" width="0.969697" height="0.969697" fill="#D1764E"/>
<rect x="24.2424" y="6.81824" width="0.969697" height="0.969697" fill="#D1764E"/>
<rect x="26.1816" y="5.84851" width="0.969697" height="0.969697" fill="#602436"/>
</svg>
