<svg width="32" height="32" viewBox="0 0 32 32" fill="none" xmlns="http://www.w3.org/2000/svg">
<rect x="14.8966" y="4.43079" width="2.75862" height="1.96923" fill="#92BC00"/>
<rect x="10.4828" y="1.96924" width="7.17241" height="2.46154" fill="#92BC00"/>
<rect x="24.2759" y="1.96924" width="5.51724" height="1.96923" fill="#92BC00"/>
<rect x="22.069" y="3.93848" width="4.96552" height="2.46154" fill="#92BC00"/>
<rect x="29.7931" y="1.96924" width="2.2069" height="2.46154" fill="#354E18"/>
<rect x="24.2759" width="7.72414" height="1.96923" fill="#354E18"/>
<rect x="27.0344" y="3.93848" width="2.75862" height="2.46154" fill="#354E18"/>
<rect x="22.069" y="1.96924" width="2.2069" height="1.96923" fill="#354E18"/>
<rect x="22.069" y="6.40002" width="4.96552" height="1.96923" fill="#354E18"/>
<rect x="19.8621" y="3.93848" width="2.2069" height="10.8308" fill="#354E18"/>
<rect x="17.6552" y="1.96924" width="2.2069" height="4.43077" fill="#354E18"/>
<rect x="8.27588" width="9.37931" height="1.96923" fill="#354E18"/>
<rect x="8.27588" y="1.96924" width="2.2069" height="2.46154" fill="#354E18"/>
<rect x="10.4828" y="4.43079" width="4.41379" height="1.96923" fill="#354E18"/>
<rect x="14.8966" y="6.40002" width="2.75862" height="1.96923" fill="#354E18"/>
<rect x="12.6897" y="8.36926" width="2.2069" height="1.96923" fill="#354E18"/>
<rect x="9.93103" y="10.3385" width="2.75862" height="2.46154" fill="#354E18"/>
<rect x="27.0344" y="25.6" width="2.2069" height="2.46154" fill="#BA0C2F"/>
<rect x="22.069" y="25.6" width="4.96552" height="4.43077" fill="#BA0C2F"/>
<rect x="27.0344" y="19.2" width="2.2069" height="2.46154" fill="#BA0C2F"/>
<rect x="19.8621" y="27.5692" width="2.2069" height="2.46154" fill="#BA0C2F"/>
<rect x="19.8621" y="21.6615" width="9.37931" height="3.93846" fill="#BA0C2F"/>
<rect x="14.8966" y="19.2" width="2.75862" height="8.86154" fill="#BA0C2F"/>
<rect x="7.72412" y="25.1077" width="2.2069" height="2.95385" fill="#BA0C2F"/>
<rect x="5.51721" y="23.1384" width="2.2069" height="4.92308" fill="#BA0C2F"/>
<rect x="7.72412" y="19.2" width="2.2069" height="3.93846" fill="#BA0C2F"/>
<rect x="9.93103" y="19.2" width="2.2069" height="8.86154" fill="#BA0C2F"/>
<rect x="2.75867" y="17.2307" width="2.75862" height="8.86154" fill="#BA0C2F"/>
<rect x="17.1034" y="17.2307" width="9.93103" height="4.43077" fill="#BA0C2F"/>
<rect x="5.51721" y="14.7693" width="9.37931" height="4.43077" fill="#BA0C2F"/>
<path d="M7.72412 23.1384H9.93102V25.1077H7.72412V23.1384Z" fill="#FF0E3E"/>
<path d="M19.8621 25.6H22.069V27.5692H19.8621V25.6Z" fill="#FF0E3E"/>
<path d="M5.51721 19.2H7.72411V23.1384H5.51721V19.2Z" fill="#FF0E3E"/>
<path d="M17.6552 21.6615H19.862V25.6H17.6552V21.6615Z" fill="#FF0E3E"/>
<path d="M19.8621 25.6H22.069V27.5692H19.8621V25.6Z" fill="#FF0E3E"/>
<rect x="17.6552" y="25.6" width="2.2069" height="4.43077" fill="#BA0C2F"/>
<path d="M27.0344 28.0615H29.2413V30.0308H27.0344V28.0615Z" fill="#7F0418"/>
<rect x="14.8966" y="17.2307" width="2.2069" height="1.96923" fill="#7F0418"/>
<path d="M27.0344 17.2307H29.2413V19.1999H27.0344V17.2307Z" fill="#7F0418"/>
<rect x="29.2413" y="19.2" width="2.75862" height="8.86154" fill="#7F0418"/>
<rect x="12.1379" y="19.2" width="2.75862" height="8.86154" fill="#7F0418"/>
<rect y="17.2307" width="2.75862" height="8.86154" fill="#7F0418"/>
<rect x="2.75867" y="26.0923" width="2.75862" height="1.96923" fill="#7F0418"/>
<rect x="2.75867" y="14.7693" width="2.75862" height="2.46154" fill="#7F0418"/>
<rect x="5.51721" y="28.0615" width="12.1379" height="1.96923" fill="#D9D9D9"/>
<rect x="5.51721" y="12.8" width="9.37931" height="1.96923" fill="#7F0418"/>
<rect x="14.8966" y="14.7693" width="12.1379" height="2.46154" fill="#7F0418"/>
<rect x="5.51721" y="28.0615" width="12.1379" height="1.96923" fill="#7F0418"/>
<rect x="17.6552" y="30.0308" width="9.37931" height="1.96923" fill="#7F0418"/>
</svg>
