<svg width="32" height="32" viewBox="0 0 32 32" fill="none" xmlns="http://www.w3.org/2000/svg">
<rect x="18.9092" width="5.81818" height="1.5" fill="#040000"/>
<rect x="17.4546" y="1.5" width="2.90909" height="1.5" fill="#040000"/>
<rect x="16" y="3" width="2.90909" height="1.5" fill="#040000"/>
<rect x="16" y="4.5" width="1.45455" height="2.5" fill="#040000"/>
<rect x="8.24243" y="5.5" width="7.75758" height="1.5" fill="#040000"/>
<rect x="6.78784" y="7" width="1.45455" height="1.5" fill="#040000"/>
<rect x="8.24243" y="7" width="1.45455" height="1.5" fill="#C56836"/>
<rect x="3.87891" y="11.5" width="1.45455" height="1.5" fill="#C56836"/>
<rect x="2.42432" y="13" width="1.45455" height="1.5" fill="#873027"/>
<rect x="3.87891" y="14.5" width="1.45455" height="2.5" fill="#873027"/>
<rect x="6.78784" y="15.5" width="2.90909" height="1.5" fill="#873027"/>
<rect x="9.69702" y="14" width="2.90909" height="1.5" fill="#873027"/>
<rect x="11.1516" y="12.5" width="1.45455" height="1.5" fill="#873027"/>
<rect x="14.5454" y="11.5" width="1.45455" height="4" fill="#873027"/>
<rect x="16" y="10" width="1.45455" height="1.5" fill="#873027"/>
<rect x="17.4546" y="8.5" width="1.45455" height="3" fill="#873027"/>
<rect x="20.3635" y="11.5" width="1.45455" height="8" fill="#873027"/>
<rect x="18.9092" y="10" width="1.45455" height="12" fill="#9D452B"/>
<rect x="17.4546" y="22" width="1.45455" height="1.5" fill="#9D452B"/>
<rect x="15.5151" y="21" width="1.93939" height="1.5" fill="#9D452B"/>
<rect x="12.606" y="21" width="1.45455" height="4" fill="#9D452B"/>
<rect x="11.1516" y="19.5" width="1.45455" height="5.5" fill="#BE6641"/>
<rect x="12.606" y="18.5" width="1.45455" height="2.5" fill="#812F25"/>
<rect x="12.606" y="15.5" width="1.45455" height="3" fill="#A95435"/>
<rect x="12.606" y="14" width="1.93939" height="1.5" fill="#C87147"/>
<rect x="15.5151" y="15.5" width="1.93939" height="1.5" fill="#C87147"/>
<rect x="17.4546" y="11.5" width="1.45455" height="8" fill="#C87147"/>
<rect x="15.5151" y="18.5" width="1.93939" height="2.5" fill="#C87147"/>
<rect x="14.0605" y="17" width="1.45455" height="5.5" fill="#C87147"/>
<rect x="14.0605" y="22.5" width="1.45455" height="3.5" fill="#923B2A"/>
<rect x="15.5151" y="22.5" width="1.93939" height="3.5" fill="#7C2526"/>
<rect x="17.4546" y="23.5" width="1.45455" height="2.5" fill="#7C2526"/>
<rect x="14.0605" y="26" width="3.39394" height="1.5" fill="#7C2526"/>
<rect x="15.5151" y="17" width="1.93939" height="1.5" fill="#782627"/>
<rect x="2.42432" y="14.5" width="1.45455" height="2.5" fill="#C56836"/>
<rect x="2.42432" y="19.5" width="1.45455" height="2.5" fill="#F1BD74"/>
<rect x="5.33325" y="17" width="1.45455" height="2.5" fill="#F1BD74"/>
<rect x="8.24243" y="17" width="1.45455" height="2.5" fill="#F1BD74"/>
<rect x="11.1516" y="15.5" width="1.45455" height="4" fill="#F1BD74"/>
<rect x="9.69702" y="17" width="1.45455" height="5" fill="#C06D45"/>
<rect x="8.24243" y="19.5" width="1.45455" height="5.5" fill="#C06D45"/>
<rect x="5.33325" y="22.5" width="1.45455" height="5" fill="#923C25"/>
<rect x="6.78784" y="25" width="2.90909" height="1" fill="#923C25"/>
<rect x="9.69702" y="22" width="1.45455" height="5.5" fill="#742528"/>
<rect x="11.1516" y="25" width="1.45455" height="2.5" fill="#A1472C"/>
<rect x="8.24243" y="26" width="1.45455" height="1.5" fill="#923C25"/>
<rect x="9.69702" y="27.5" width="1.45455" height="1.5" fill="#8C2C24"/>
<rect x="24.7273" y="16.5" width="1.45455" height="2" fill="#956353"/>
<rect x="24.7273" y="16.5" width="1.45455" height="2" fill="#956353"/>
<rect x="24.7273" y="16.5" width="1.45455" height="2" fill="#956353"/>
<rect x="24.7273" y="16.5" width="1.45455" height="2" fill="#956353"/>
<rect x="24.7273" y="16.5" width="1.45455" height="2" fill="#956353"/>
<rect x="24.7273" y="16.5" width="1.45455" height="2" fill="#956353"/>
<rect x="5.33325" y="15.5" width="1.45455" height="1.5" fill="#C56836"/>
<rect x="6.78784" y="17" width="1.45455" height="8" fill="#C56836"/>
<rect x="5.33325" y="19.5" width="1.45455" height="3" fill="#C56836"/>
<rect x="3.87891" y="19.5" width="1.45455" height="4" fill="#C56836"/>
<rect x="3.87891" y="17" width="1.45455" height="2.5" fill="#DC9756"/>
<rect x="2.42432" y="22" width="1.45455" height="1.5" fill="#B8603C"/>
<rect x="3.87891" y="23.5" width="1.45455" height="1.5" fill="#B8603C"/>
<rect x="3.87891" y="25" width="1.45455" height="1" fill="#742528"/>
<rect x="6.78784" y="26" width="1.45455" height="3" fill="#5A1325"/>
<rect x="8.24243" y="27.5" width="1.45455" height="3" fill="#5A1325"/>
<rect x="11.1516" y="27.5" width="1.45455" height="1.5" fill="#5A1325"/>
<rect x="12.606" y="25" width="1.45455" height="5.5" fill="#5A1325"/>
<rect x="14.0605" y="27.5" width="3.39394" height="1.5" fill="#5A1325"/>
<rect x="17.4546" y="19.5" width="1.45455" height="2.5" fill="#5A1325"/>
<rect x="16" y="29" width="2.90909" height="1.5" fill="#5A1325"/>
<rect x="18.9092" y="27.5" width="1.45455" height="1.5" fill="#5A1325"/>
<rect x="18.9092" y="29" width="1.45455" height="1.5" fill="#8E604A"/>
<rect x="20.3635" y="27.5" width="1.45455" height="1.5" fill="#8E604A"/>
<rect x="21.8181" y="26" width="1.45455" height="1.5" fill="#8E604A"/>
<rect x="23.2727" y="25" width="1.45455" height="1" fill="#8E604A"/>
<rect x="24.7273" y="22" width="1.45455" height="1.5" fill="#8E604A"/>
<rect x="23.2727" y="14.5" width="1.45455" height="1" fill="#8E604A"/>
<rect x="20.3635" y="10" width="1.45455" height="1.5" fill="#5A1325"/>
<rect x="23.2727" y="13" width="1.45455" height="1.5" fill="#5A1325"/>
<rect x="20.3635" y="19.5" width="1.45455" height="1.5" fill="#5A1325"/>
<rect x="20.3635" y="21" width="1.45455" height="1" fill="#430E23"/>
<rect x="21.8181" y="25" width="1.45455" height="1" fill="#5A1325"/>
<rect x="23.2727" y="22" width="1.45455" height="3" fill="#5A1325"/>
<rect x="24.7273" y="18.5" width="1.45455" height="3.5" fill="#5A1325"/>
<rect x="18.9092" y="8.5" width="1.45455" height="1.5" fill="#5A1325"/>
<rect x="21.8181" y="11.5" width="1.45455" height="10.5" fill="#5A1325"/>
<rect x="23.2727" y="15.5" width="1.45455" height="1" fill="#5A1325"/>
<rect x="24.7273" y="15.5" width="1.45455" height="1" fill="#7C3538"/>
<rect x="17.4546" y="26" width="1.45455" height="1.5" fill="#5A1325"/>
<rect x="20.3635" y="22" width="1.45455" height="5.5" fill="#5A1325"/>
<rect x="18.9092" y="22" width="1.45455" height="1.5" fill="#5A1325"/>
<rect x="18.9092" y="23.5" width="1.45455" height="2.5" fill="#400B1D"/>
<rect x="18.9092" y="26" width="1.45455" height="1.5" fill="#1C0412"/>
<rect x="21.8181" y="22" width="1.45455" height="3" fill="#1C0412"/>
<rect x="23.2727" y="16.5" width="1.45455" height="5.5" fill="#1C0412"/>
<rect x="17.4546" y="27.5" width="1.45455" height="1.5" fill="#1C0412"/>
<rect x="9.69702" y="15.5" width="1.45455" height="1.5" fill="#DC9756"/>
<rect x="14.0605" y="15.5" width="1.45455" height="1.5" fill="#DC9756"/>
<rect x="16" y="11.5" width="1.45455" height="4" fill="#DC9756"/>
<rect x="5.33325" y="8.5" width="1.45455" height="1.5" fill="#040000"/>
<rect x="3.87891" y="10" width="1.45455" height="1.5" fill="#040000"/>
<rect x="2.42432" y="11.5" width="1.45455" height="1.5" fill="#040000"/>
<rect x="0.969727" y="13" width="1.45455" height="11" fill="#040000"/>
<rect x="2.42432" y="23.5" width="1.45455" height="2.5" fill="#040000"/>
<rect x="3.87891" y="26" width="1.45455" height="1.5" fill="#040000"/>
<rect x="5.33325" y="27.5" width="1.45455" height="1.5" fill="#040000"/>
<rect x="6.78784" y="29" width="1.45455" height="1.5" fill="#040000"/>
<rect x="8.24243" y="30.5" width="12.1212" height="1.5" fill="#040000"/>
<rect x="14.0605" y="29" width="1.93939" height="1.5" fill="#040000"/>
<rect x="9.69702" y="29" width="2.90909" height="1.5" fill="#040000"/>
<rect x="20.3635" y="29" width="1.45455" height="1.5" fill="#040000"/>
<rect x="21.8181" y="27.5" width="1.45455" height="1.5" fill="#040000"/>
<rect x="23.2727" y="26" width="1.45455" height="1.5" fill="#040000"/>
<rect x="24.7273" y="23.5" width="1.45455" height="2.5" fill="#040000"/>
<rect x="26.1819" y="15.5" width="1.45455" height="8.5" fill="#040000"/>
<rect x="24.7273" y="9.5" width="1.45455" height="6" fill="#040000"/>
<rect x="24.7273" y="13" width="1.45455" height="2.5" fill="#040000"/>
<rect x="23.2727" y="11.5" width="4.36364" height="1.5" fill="#040000"/>
<rect x="24.7273" y="8.5" width="2.90909" height="3" fill="#040000"/>
<rect x="24.7273" y="7.5" width="1.45455" height="1" fill="#040000"/>
<rect x="29.0908" y="7" width="1.45455" height="1.5" fill="#040000"/>
<rect x="27.6365" y="6" width="1.45455" height="1" fill="#040000"/>
<rect x="21.8181" y="4.5" width="5.81818" height="1.5" fill="#040000"/>
<rect x="21.8181" y="6" width="1.45455" height="1.5" fill="#040000"/>
<rect x="21.8181" y="10" width="1.45455" height="1.5" fill="#040000"/>
<rect x="21.8181" y="10" width="1.45455" height="1.5" fill="#040000"/>
<rect x="20.3635" y="9" width="1.45455" height="1" fill="#040000"/>
<rect x="17.4546" y="7.5" width="2.90909" height="1" fill="#040000"/>
<rect x="17.4546" y="4.5" width="1.45455" height="1.5" fill="#E6FE56"/>
<rect x="11.1516" y="7" width="3.39394" height="1.5" fill="#FEFEFE"/>
<rect x="9.69702" y="8.5" width="1.45455" height="1.5" fill="#FEFEFE"/>
<rect x="14.5454" y="8.5" width="1.45455" height="1.5" fill="#FEFEFE"/>
<rect x="11.1516" y="8.5" width="3.39394" height="1.5" fill="#C1E1D6"/>
<rect x="6.78784" y="11.5" width="4.36364" height="1.5" fill="#C1E1D6"/>
<rect x="8.24243" y="10" width="4.84848" height="1.5" fill="#C1E1D6"/>
<rect x="13.0908" y="10" width="1.45455" height="1.5" fill="#FEFEFE"/>
<rect x="14.5454" y="7" width="1.45455" height="1.5" fill="#F8E9B9"/>
<rect x="8.24243" y="14" width="1.45455" height="1.5" fill="#F8E9B9"/>
<rect x="5.33325" y="14" width="1.45455" height="1.5" fill="#F8E9B9"/>
<rect x="3.87891" y="13" width="1.45455" height="1.5" fill="#F8E9B9"/>
<rect x="2.42432" y="17" width="1.45455" height="2.5" fill="#F8E9B9"/>
<rect x="6.78784" y="8.5" width="2.90909" height="1.5" fill="#F8E9B9"/>
<rect x="14.5454" y="10" width="1.45455" height="1.5" fill="#F8E9B9"/>
<rect x="12.606" y="12.5" width="1.93939" height="1.5" fill="#F8E9B9"/>
<rect x="16" y="8.5" width="1.45455" height="1.5" fill="#F8E9B9"/>
<rect x="16" y="7" width="1.45455" height="1.5" fill="#CFBFA1"/>
<rect x="9.69702" y="7" width="1.45455" height="1.5" fill="#F8E9B9"/>
<rect x="6.78784" y="10" width="1.45455" height="1.5" fill="#FEFEFE"/>
<rect x="6.78784" y="14" width="1.45455" height="1.5" fill="#FEFEFE"/>
<rect x="11.1516" y="11.5" width="3.39394" height="1" fill="#FEFEFE"/>
<rect x="5.33325" y="11.5" width="1.45455" height="1.5" fill="#FEFEFE"/>
<rect x="5.33325" y="13" width="5.81818" height="1" fill="#FEFEFE"/>
<rect x="21.8181" y="1.5" width="1.45455" height="1.5" fill="#198343"/>
<rect x="23.2727" y="7.5" width="1.45455" height="1" fill="#198343"/>
<rect x="26.1819" y="7.5" width="1.45455" height="1" fill="#198343"/>
<rect x="27.6365" y="7" width="1.45455" height="1.5" fill="#01463F"/>
<rect x="23.2727" y="8.5" width="1.45455" height="3" fill="#01463F"/>
<rect x="21.8181" y="9" width="1.45455" height="1" fill="#01463F"/>
<rect x="20.3635" y="7.5" width="1.45455" height="1.5" fill="#01463F"/>
<rect x="20.3635" y="4.5" width="1.45455" height="3" fill="#01463F"/>
<rect x="20.3635" y="3" width="1.45455" height="1.5" fill="#198343"/>
<rect x="18.9092" y="6" width="1.45455" height="1.5" fill="#198343"/>
<rect x="23.2727" y="6" width="4.36364" height="1.5" fill="#6BD324"/>
<rect x="21.8181" y="7.5" width="1.45455" height="1.5" fill="#6BD324"/>
<rect x="18.9092" y="4.5" width="1.45455" height="1.5" fill="#30AA3A"/>
<rect x="17.4546" y="6" width="1.45455" height="1.5" fill="#3AC428"/>
<rect x="20.3635" y="1.5" width="1.45455" height="1.5" fill="#E6FE56"/>
<rect x="18.9092" y="3" width="1.45455" height="1.5" fill="#E6FE56"/>
<rect x="21.8181" y="3" width="1.45455" height="1.5" fill="#040000"/>
<rect x="23.2727" y="1.5" width="1.45455" height="1.5" fill="#040000"/>
<rect x="27.6365" y="8.5" width="2.90909" height="1.5" fill="#040000"/>
</svg>
