<svg width="32" height="32" viewBox="0 0 32 32" fill="none" xmlns="http://www.w3.org/2000/svg">
<rect x="14.2222" y="9.22034" width="2.84444" height="2.16949" fill="#AC85DE"/>
<rect x="23.4667" y="11.3898" width="2.84444" height="2.16949" fill="#AC85DE"/>
<rect x="17.0667" y="16.2712" width="2.84444" height="2.16949" fill="#AC85DE"/>
<path d="M4.97778 11.3898H7.82223V13.5593H4.97778V11.3898Z" fill="#AC85DE"/>
<path d="M14.2222 7.59326H17.0666V8.67801H14.2222V7.59326Z" fill="#2E0044"/>
<rect x="4.97778" y="13.5593" width="5.68889" height="2.16949" fill="#6F5BB0"/>
<rect x="7.82227" y="11.3898" width="2.84444" height="2.16949" fill="#6F5BB0"/>
<rect x="17.0667" y="9.22034" width="2.84444" height="2.16949" fill="#6F5BB0"/>
<rect x="22.7556" y="13.5593" width="3.55556" height="7.05085" fill="#584096"/>
<rect x="10.6666" y="18.4407" width="2.84444" height="2.16949" fill="#6F5BB0"/>
<rect x="19.9111" y="16.2712" width="2.84444" height="2.16949" fill="#6F5BB0"/>
<rect x="14.2222" y="11.3898" width="5.68889" height="2.16949" fill="#6F5BB0"/>
<rect x="17.0667" y="18.4407" width="5.68889" height="2.16949" fill="#6F5BB0"/>
<rect x="7.82227" y="20.6102" width="5.68889" height="2.16949" fill="#6F5BB0"/>
<rect x="5.68884" y="18.4407" width="2.13333" height="4.33898" fill="#584096"/>
<rect x="8.53333" y="22.7797" width="5.68889" height="2.71186" fill="#584096"/>
<rect x="8.53333" y="25.4916" width="2.84444" height="2.16949" fill="#584096"/>
<rect x="11.3778" y="27.661" width="4.97778" height="2.16949" fill="#584096"/>
<rect x="17.0667" y="22.7797" width="2.84444" height="4.88136" fill="#584096"/>
<rect x="14.2222" y="22.7797" width="2.84444" height="0.542373" fill="#584096"/>
<rect x="11.3778" y="25.4916" width="5.68889" height="2.16949" fill="#6F5BB0"/>
<rect x="23.4667" y="13.5593" width="2.84444" height="2.16949" fill="#6F5BB0"/>
<rect x="7.82227" y="18.4407" width="2.84444" height="2.16949" fill="#AC85DE"/>
<rect x="14.2222" y="23.322" width="2.84444" height="2.16949" fill="#AC85DE"/>
<rect x="11.3778" y="4.33899" width="2.84444" height="2.71186" fill="#5D3201"/>
<rect x="8.53333" width="2.84444" height="2.16949" fill="#5D3201"/>
<rect x="5.68884" y="2.16943" width="2.84444" height="2.16949" fill="#5D3201"/>
<rect x="17.0667" width="2.84444" height="2.16949" fill="#5D3201"/>
<rect x="19.9111" width="2.84444" height="2.16949" fill="#5D3201"/>
<rect x="22.7556" y="2.16943" width="2.84444" height="2.16949" fill="#5D3201"/>
<rect x="14.2222" width="2.84444" height="2.16949" fill="#5D3201"/>
<rect x="11.3778" y="2.16943" width="2.84444" height="2.16949" fill="#5D3201"/>
<rect x="5.68884" y="15.7288" width="11.3778" height="2.71186" fill="#584096"/>
<rect x="5.68884" y="15.7288" width="11.3778" height="2.71186" fill="#584096"/>
<rect x="10.6666" y="13.5593" width="12.8" height="2.71186" fill="#584096"/>
<rect x="13.5111" y="20.6102" width="9.24444" height="2.16949" fill="#584096"/>
<rect x="13.5111" y="18.4407" width="3.55556" height="2.16949" fill="#584096"/>
<rect x="10.6666" y="11.3898" width="3.55556" height="2.16949" fill="#584096"/>
<rect x="4.97778" y="9.22034" width="9.24444" height="2.16949" fill="#584096"/>
<rect x="14.2222" y="7.59326" width="4.97778" height="1.62712" fill="#584096"/>
<path d="M19.9111 9.22034H23.4667V13.5593H19.9111V9.22034Z" fill="#584096"/>
<path d="M26.3111 11.3898H29.1556V13.2881V15.1864H26.3111V11.3898Z" fill="#584096"/>
<rect x="23.4667" y="9.22034" width="3.55556" height="2.16949" fill="#584096"/>
<rect x="2.84448" y="11.3898" width="2.13333" height="4.33898" fill="#584096"/>
<rect y="11.3898" width="2.84444" height="4.33898" fill="#3D2F64"/>
<rect x="2.1333" y="9.22034" width="2.84444" height="2.16949" fill="#3D2F64"/>
<rect x="4.97778" y="7.0509" width="9.24444" height="2.16949" fill="#3D2F64"/>
<rect x="14.2222" y="5.42371" width="4.97778" height="2.16949" fill="#3D2F64"/>
<rect x="2.84448" y="15.7288" width="2.84444" height="7.05085" fill="#3D2F64"/>
<rect x="26.3112" y="15.1864" width="2.84444" height="5.42373" fill="#3D2F64"/>
<rect x="29.1555" y="11.3898" width="2.84444" height="3.79661" fill="#3D2F64"/>
<rect x="26.3112" y="9.22034" width="2.84444" height="2.16949" fill="#3D2F64"/>
<rect x="19.2" y="7.0509" width="7.11111" height="2.16949" fill="#3D2F64"/>
<rect x="5.68884" y="22.7797" width="2.84444" height="4.88136" fill="#3D2F64"/>
<rect x="19.9111" y="22.7797" width="2.84444" height="4.88136" fill="#3D2F64"/>
<rect x="22.7556" y="20.6102" width="3.55556" height="2.16949" fill="#3D2F64"/>
<rect x="8.53333" y="27.661" width="2.84444" height="2.16949" fill="#3D2F64"/>
<rect x="16.3556" y="27.661" width="3.55556" height="2.16949" fill="#3D2F64"/>
<rect x="11.3778" y="29.8306" width="4.97778" height="2.16949" fill="#3D2F64"/>
</svg>
