<svg width="32" height="32" viewBox="0 0 32 32" fill="none" xmlns="http://www.w3.org/2000/svg">
<rect x="6.15381" y="1" width="1.84615" height="1.5" fill="#1C1330"/>
<rect x="8" y="2.5" width="1.84615" height="3" fill="#1C1330"/>
<rect x="9.84619" y="4" width="1.23077" height="1.5" fill="#1C1330"/>
<rect x="11.0769" y="5.5" width="1.84615" height="1" fill="#1C1330"/>
<rect x="11.0769" y="4.5" width="1.84615" height="1" fill="#943F40"/>
<rect x="11.0769" y="4" width="0.615385" height="0.5" fill="#943F40"/>
<rect x="9.84619" y="1" width="1.23077" height="1.5" fill="#411B40"/>
<rect x="9.84619" y="2.5" width="1.84615" height="1.5" fill="#943F40"/>
<rect x="8" y="1" width="1.84615" height="1.5" fill="#943F40"/>
<rect x="6.15381" width="1.84615" height="1" fill="#884041"/>
<rect x="6.15381" y="6.5" width="4.30769" height="1.5" fill="#1C1330"/>
<rect x="3.69226" y="8" width="2.46154" height="1.5" fill="#1C1330"/>
<rect x="1.84619" y="9.5" width="1.84615" height="1.5" fill="#1C1330"/>
<rect y="11" width="1.84615" height="3.5" fill="#1C1330"/>
<rect x="1.84619" y="14.5" width="1.84615" height="0.5" fill="#1C1330"/>
<rect x="1.84619" y="15" width="0.615385" height="1" fill="#1C1330"/>
<rect y="16" width="1.84615" height="4" fill="#1C1330"/>
<rect x="1.84619" y="19.5" width="2.46154" height="1.5" fill="#1C1330"/>
<rect x="4.30774" y="18" width="1.84615" height="1.5" fill="#291A34"/>
<rect x="5.53845" y="16" width="0.615385" height="2" fill="#291A34"/>
<rect x="5.53845" y="16" width="0.615385" height="2" fill="#291A34"/>
<rect x="6.15381" y="16" width="0.615385" height="0.5" fill="#291A34"/>
<rect x="5.53845" y="14.5" width="0.615385" height="1.5" fill="#511B51"/>
<rect x="6.15381" y="16.5" width="0.615385" height="1.5" fill="#511B51"/>
<rect x="3.69226" y="12.5" width="3.69231" height="2" fill="#291A34"/>
<rect x="9.23071" y="12.5" width="1.84615" height="2" fill="#291A34"/>
<rect x="6.15381" y="14.5" width="4.92308" height="1.5" fill="#291A34"/>
<rect x="7.38464" y="12.5" width="1.84615" height="2" fill="#30183B"/>
<rect x="8" y="11" width="2.46154" height="1.5" fill="#30183B"/>
<rect x="4.30774" y="21" width="1.84615" height="5" fill="#1C1330"/>
<rect x="6.15381" y="26" width="4.30769" height="1.5" fill="#1C1330"/>
<rect x="10.4615" y="22.5" width="2.46154" height="3.5" fill="#1C1330"/>
<rect x="12.9231" y="22.5" width="1.84615" height="2" fill="#2F133A"/>
<rect x="14.7693" y="22.5" width="1.84615" height="3" fill="#552465"/>
<rect x="10.4615" y="26" width="4.30769" height="1.5" fill="#552465"/>
<rect x="8.61536" y="27.5" width="1.84615" height="1.5" fill="#552465"/>
<rect x="9.23071" y="29" width="1.23077" height="2" fill="#441849"/>
<rect x="6.15381" y="30.5" width="3.07692" height="0.5" fill="#441849"/>
<rect x="6.15381" y="29.5" width="3.07692" height="1" fill="#75347D"/>
<rect x="8.61536" y="29" width="0.615385" height="0.5" fill="#75347D"/>
<rect x="6.15381" y="27.5" width="0.615385" height="2" fill="#75347D"/>
<rect x="10.4615" y="29" width="2.46154" height="1.5" fill="#552465"/>
<rect x="6.15381" y="19.5" width="4.30769" height="1.5" fill="#1C1330"/>
<rect x="10.4615" y="18" width="4.30769" height="1.5" fill="#1C1330"/>
<rect x="10.4615" y="16" width="2.46154" height="2" fill="#1C1330"/>
<rect x="14.7693" y="19.5" width="1.84615" height="3" fill="#1C1330"/>
<rect x="16.6154" y="16" width="1.84615" height="3.5" fill="#1C1330"/>
<rect x="18.4615" y="18" width="2.46154" height="1.5" fill="#1C1330"/>
<rect x="18.4615" y="12.5" width="2.46154" height="3.5" fill="#1C1330"/>
<rect x="17.2307" y="11.5" width="2.46154" height="0.5" fill="#1C1330"/>
<rect x="17.2307" y="11.5" width="2.46154" height="0.5" fill="#1C1330"/>
<rect x="17.8462" y="12" width="1.84615" height="0.5" fill="#1C1330"/>
<rect x="16.6154" y="11" width="3.07692" height="0.5" fill="#1C1330"/>
<rect x="16.6154" y="11" width="3.07692" height="0.5" fill="#1C1330"/>
<rect x="16.6154" y="10" width="1.84615" height="1" fill="#1C1330"/>
<rect x="16.6154" y="9.5" width="3.07692" height="0.5" fill="#1C1330"/>
<rect x="16.6154" y="9.5" width="3.07692" height="0.5" fill="#1C1330"/>
<rect x="20.9231" y="14.5" width="1.84615" height="1.5" fill="#1C1330"/>
<rect x="22.7693" y="10.5" width="1.84615" height="5.5" fill="#1C1330"/>
<rect x="24.6154" y="12.5" width="4.30769" height="1.5" fill="#1C1330"/>
<rect x="25.8462" y="14" width="3.07692" height="0.5" fill="#1C1330"/>
<rect x="4.30774" y="27.5" width="1.84615" height="4.5" fill="#1C1330"/>
<rect x="6.15381" y="31" width="4.30769" height="1" fill="#1C1330"/>
<rect x="10.4615" y="30.5" width="2.46154" height="1.5" fill="#1C1330"/>
<rect x="12.9231" y="29" width="1.84615" height="1.5" fill="#1C1330"/>
<rect x="10.4615" y="27.5" width="6.15385" height="1.5" fill="#1C1330"/>
<rect x="14.7693" y="25.5" width="3.69231" height="2" fill="#1C1330"/>
<rect x="16.6154" y="24" width="4.30769" height="1.5" fill="#1C1330"/>
<rect x="16.6154" y="24" width="4.30769" height="1.5" fill="#1C1330"/>
<rect x="18.4615" y="22.5" width="6.76923" height="1.5" fill="#1C1330"/>
<rect x="20.9231" y="19.5" width="2.46154" height="3" fill="#1C1330"/>
<rect x="23.3846" y="21" width="3.69231" height="1.5" fill="#1C1330"/>
<rect x="25.2307" y="19.5" width="1.84615" height="1.5" fill="#1C1330"/>
<rect x="27.0769" y="18" width="1.84615" height="1.5" fill="#1C1330"/>
<rect x="28.9231" y="16" width="1.84615" height="2" fill="#1C1330"/>
<rect x="27.0769" y="14.5" width="1.84615" height="1.5" fill="#1C1330"/>
<rect x="28.9231" y="8.5" width="1.84615" height="6" fill="#1C1330"/>
<rect x="27.0769" y="9" width="1.84615" height="2" fill="#1C1330"/>
<rect x="28.9231" y="4.5" width="1.84615" height="1.5" fill="#1C1330"/>
<rect x="27.0769" y="3" width="1.84615" height="1.5" fill="#1C1330"/>
<rect x="18.4615" y="1.5" width="8.61539" height="1.5" fill="#1C1330"/>
<rect x="14.1538" y="4.5" width="4.30769" height="1.5" fill="#1C1330"/>
<rect x="12.9231" y="4.5" width="1.23077" height="1.5" fill="#2C2046"/>
<rect x="12.9231" y="6" width="3.07692" height="1.5" fill="#2C2046"/>
<rect x="11.6923" y="2.5" width="2.46154" height="2" fill="#1C1330"/>
<rect x="11.0769" y="1" width="1.23077" height="1.5" fill="#1C1330"/>
<rect x="8" width="3.07692" height="1" fill="#1C1330"/>
<rect x="22.7693" y="6" width="1.84615" height="1.5" fill="#1C1330"/>
<rect x="20.3077" y="6" width="2.46154" height="1.5" fill="#3E2157"/>
<rect x="20.9231" y="7.5" width="1.84615" height="3.5" fill="#1C1330"/>
<rect x="10.4615" y="7.5" width="10.4615" height="2" fill="#1C1330"/>
<rect x="30.7693" y="7.5" width="1.23077" height="5.5" fill="#1C1330"/>
<rect x="30.1538" y="7.5" width="0.615385" height="1" fill="#1C1330"/>
<rect x="24.6154" y="16" width="2.46154" height="2" fill="#1C1330"/>
<rect x="4.9231" y="3.5" width="2.46154" height="1.5" fill="#1C1330"/>
<rect x="9.23071" y="8" width="1.23077" height="1.5" fill="#5A2270"/>
<rect x="10.4615" y="9.5" width="2.46154" height="3" fill="#5A2270"/>
<rect x="14.7693" y="9.5" width="1.84615" height="2.5" fill="#32163E"/>
<rect x="12.9231" y="10.5" width="1.84615" height="1.5" fill="#32163E"/>
<rect x="12.9231" y="12" width="1.84615" height="1" fill="#5A2270"/>
<rect x="14.7693" y="12" width="1.84615" height="2.5" fill="#BC68B2"/>
<rect x="12.9231" y="14" width="1.84615" height="2" fill="#BC68B2"/>
<rect x="8.61536" y="16" width="1.84615" height="2" fill="#BC68B2"/>
<rect x="6.76929" y="16" width="1.84615" height="2" fill="white"/>
<rect x="2.46155" y="15" width="1.23077" height="1.5" fill="white"/>
<rect x="6.15381" y="8" width="3.07692" height="1.5" fill="white"/>
<rect width="2.46154" height="1" transform="matrix(-1 0 0 1 12.9231 6.5)" fill="white"/>
<rect x="3.69226" y="16" width="0.615385" height="0.5" fill="white"/>
<rect x="12.9231" y="13" width="1.84615" height="1" fill="white"/>
<rect x="27.0769" y="16" width="1.84615" height="2" fill="white"/>
<rect x="28.9231" y="14.5" width="1.23077" height="1.5" fill="#445171"/>
<rect x="6.15381" y="21" width="0.615385" height="3.5" fill="#BC68B2"/>
<rect x="6.76929" y="21" width="1.84615" height="0.5" fill="#BC68B2"/>
<rect x="6.76929" y="23.5" width="1.84615" height="1" fill="#BC68B2"/>
<rect x="6.76929" y="21.5" width="1.84615" height="2" fill="white"/>
<rect x="6.76929" y="27.5" width="1.84615" height="2" fill="white"/>
<rect x="12.9231" y="24.5" width="1.84615" height="1.5" fill="#BC68B2"/>
<rect x="8.61536" y="21" width="1.84615" height="3.5" fill="#5A2270"/>
<rect x="6.15381" y="24.5" width="4.30769" height="1.5" fill="#4E1D56"/>
<rect x="1.84619" y="16.5" width="2.46154" height="1.5" fill="#BC68B2"/>
<rect x="1.84619" y="16" width="0.615385" height="0.5" fill="#BC68B2"/>
<rect x="11.0769" y="12.5" width="1.84615" height="3.5" fill="#5A2270"/>
<rect x="3.69226" y="11" width="4.30769" height="1.5" fill="#5A2270"/>
<rect x="6.15381" y="9.5" width="4.30769" height="1.5" fill="#B45FA7"/>
<rect x="12.9231" y="9.5" width="1.84615" height="1" fill="#B45FA7"/>
<rect x="3.69226" y="9.5" width="2.46154" height="1.5" fill="#D195D1"/>
<rect x="1.84619" y="11" width="1.84615" height="1.5" fill="#D195D1"/>
<rect x="3.69226" y="14.5" width="1.84615" height="1.5" fill="#D195D1"/>
<rect x="1.84619" y="12.5" width="1.84615" height="2" fill="#5A2270"/>
<rect x="6.15381" y="18" width="2.46154" height="1.5" fill="#5A2270"/>
<rect x="8.61536" y="18" width="1.84615" height="1.5" fill="#3A1741"/>
<rect x="10.4615" y="19.5" width="2.46154" height="3" fill="#3A1741"/>
<rect x="18.4615" y="21" width="2.46154" height="1.5" fill="#3A1741"/>
<rect x="14.7693" y="14.5" width="1.84615" height="3.5" fill="#3A1741"/>
<rect x="18.4615" y="16" width="2.46154" height="2" fill="#55225E"/>
<rect x="20.9231" y="18" width="1.84615" height="1.5" fill="#55225E"/>
<rect x="18.4615" y="19.5" width="3.07692" height="1.5" fill="#5A2062"/>
<rect x="16.6154" y="21" width="1.84615" height="1.5" fill="#5A2062"/>
<rect x="16.6154" y="13" width="1.84615" height="3" fill="#5A2062"/>
<rect x="16.6154" y="12.5" width="1.84615" height="0.5" fill="#5A2062"/>
<rect x="16.6154" y="12" width="1.23077" height="0.5" fill="#3F2450"/>
<rect x="16.6154" y="11.5" width="0.615385" height="0.5" fill="#32163E"/>
<rect x="12.9231" y="21" width="1.84615" height="1.5" fill="#5A2062"/>
<rect x="14.7693" y="18" width="1.84615" height="1.5" fill="#5A2062"/>
<rect x="12.9231" y="19.5" width="1.84615" height="1.5" fill="#8F4397"/>
<rect x="16.6154" y="19.5" width="1.84615" height="1.5" fill="#A65CA1"/>
<rect x="20.9231" y="16" width="1.84615" height="2" fill="#A65CA1"/>
<rect x="23.3846" y="19.5" width="1.84615" height="1.5" fill="#55225E"/>
<rect x="24.6154" y="18" width="2.46154" height="1.5" fill="#55225E"/>
<rect x="24.6154" y="15" width="2.46154" height="1" fill="#55225E"/>
<rect x="22.7693" y="16" width="1.84615" height="1" fill="#55225E"/>
<rect x="23.3846" y="17" width="1.23077" height="0.5" fill="#55225E"/>
<rect x="22.7693" y="17" width="0.615385" height="0.5" fill="#A65CA1"/>
<rect x="24.6154" y="14" width="1.23077" height="1" fill="#A65CA1"/>
<rect x="22.7693" y="17.5" width="1.23077" height="0.5" fill="#A65CA1"/>
<rect x="22.7693" y="18" width="1.84615" height="1.5" fill="#A65CA1"/>
<rect x="24" y="17.5" width="0.615385" height="0.5" fill="#55225E"/>
<rect x="16.6154" y="22.5" width="1.84615" height="1.5" fill="#3A1741"/>
<rect x="4.30774" y="16" width="1.23077" height="2" fill="#5A2270"/>
<rect x="1.84619" y="18" width="2.46154" height="1.5" fill="#5A2270"/>
<rect x="4.30774" y="19.5" width="1.84615" height="1.5" fill="#5A2270"/>
<rect x="18.4615" y="10" width="2.46154" height="1" fill="#4E8583"/>
<rect x="24.6154" y="10.5" width="4.30769" height="1.5" fill="#4E8583"/>
<rect x="24.6154" y="10.5" width="4.30769" height="1.5" fill="#4E8583"/>
<rect x="27.0769" y="6" width="3.69231" height="1.5" fill="#4E8583"/>
<rect x="25.8462" y="4.5" width="1.23077" height="1.5" fill="#607A8A"/>
<rect x="27.0769" y="4.5" width="1.84615" height="1.5" fill="#CFA2D5"/>
<rect width="4.30769" height="0.5" transform="matrix(1 0 0 -1 24.6154 12.5)" fill="#4F7F8D"/>
<rect x="24.6154" y="9" width="2.46154" height="2" fill="#759E1A"/>
<rect x="22.7693" y="7.5" width="4.30769" height="1.5" fill="#759E1A"/>
<rect x="18.4615" y="4.5" width="1.84615" height="1.5" fill="#759E1A"/>
<rect x="18.4615" y="3" width="8.61539" height="1.5" fill="#759E1A"/>
<rect x="24.6154" y="6" width="2.46154" height="1.5" fill="#759E1A"/>
<path d="M27.0769 7.5H27.6923V8H28.3077V8.5H28.9231V9H28.3077H27.0769V8.5V7.5Z" fill="#759E1A"/>
<rect x="22.7693" y="9" width="1.84615" height="1.5" fill="#588C21"/>
<rect x="16" y="6" width="4.30769" height="1.5" fill="#588C21"/>
<rect x="20.3077" y="4.5" width="5.53846" height="1.5" fill="#588C21"/>
<rect x="19.6923" y="11" width="3.07692" height="1.5" fill="#61719A"/>
<rect x="20.9231" y="12.5" width="1.84615" height="2" fill="#3B2578"/>
<rect x="19.6923" y="9.5" width="1.23077" height="0.5" fill="#4E8583"/>
<rect x="27.6923" y="7.5" width="2.46154" height="0.5" fill="#2C344D"/>
<rect x="28.3077" y="8" width="1.84615" height="0.5" fill="#2C344D"/>
</svg>
