<svg width="32" height="32" viewBox="0 0 32 32" fill="none" xmlns="http://www.w3.org/2000/svg">
<path d="M1.03226 25.0999H0.5V21.8333H1.03226H1.53226V21.3333V14.3666H2.06452H2.56452V13.8666V13.2999H3.09677H3.59677V12.7999V12.2333H4.12903H4.62903V11.7333V11.1666H5.16129H5.66129V10.6666V10.0999H6.19355H6.69355V9.59992V9.03325H8.25806H8.75806V8.53325V7.96659H10.3226H10.8226V7.46659V6.89992H14.4516H14.9516V6.39992V5.83325H18.0806V6.39992V6.89992H18.5806H20.1452V7.46659V7.96659H20.6452H22.2097V8.53325V9.03325H22.7097H23.7419H24.2742V10.6666V11.1666H24.7742H26.3387V12.7999V13.2999H26.8387H27.371V20.8333H26.8387H26.3387V21.3333V22.9666H25.8064H25.3064V23.4666V25.0999H24.7742H24.2742V25.5999V26.1666H23.7419H23.2419V26.6666V27.2333H22.7097H22.2097V27.7333V28.2999H20.6452H20.1452V28.7999V29.3666H18.5806H18.0806V29.8666V30.4333H10.8226V29.8666V29.3666H10.3226H8.75806V28.7999V28.2999H8.25806H6.69355V27.7333V27.2333H6.19355H5.66129V26.6666V26.1666H5.16129H1.53226V25.5999V25.0999H1.03226Z" fill="#FFD605" stroke="black"/>
<path d="M20.6451 4.83332H18.0483V4.76665H18.5806H19.0806V4.26665V2.63332H21.6774H22.1774V2.13332V1.56665H25.3064V2.13332V2.63332H25.8064H27.3709V3.19998V3.69998H27.8709H29.4354V4.26665V4.76665H29.9354H31.5V5.33332V5.89998H30.9677H30.4677V6.39998V6.96665H29.9354H29.4354V7.46665V8.03332H28.9032H28.4032V8.53332V9.09998H26.3064V8.53332V8.03332H25.8064H23.2096V7.46665V6.96665H22.7096H22.1774V6.39998V5.89998H21.6774H21.1451V5.33332V4.83332H20.6451Z" fill="#084944" stroke="#063935"/>
<rect x="22.7097" y="2.13342" width="2.06452" height="1.06667" fill="#8EBC2C"/>
<rect x="22.7097" y="4.2666" width="2.06452" height="1.06667" fill="#589B3D"/>
<rect x="25.8064" y="5.33325" width="2.06452" height="1.06667" fill="#589B3D"/>
<rect x="23.7419" y="3.20007" width="2.06452" height="1.06667" fill="#337A4F"/>
<rect x="23.7419" y="5.33325" width="1.03226" height="1.06667" fill="#337A4F"/>
<rect x="25.8064" y="3.20007" width="1.03226" height="2.13333" fill="#104850"/>
<rect x="25.8064" y="6.40002" width="2.06452" height="1.06667" fill="#337A4F"/>
<rect x="26.8386" y="4.2666" width="2.06452" height="1.06667" fill="#8EBC2C"/>
<rect x="27.8708" y="5.33325" width="2.06452" height="1.06667" fill="#8EBC2C"/>
<rect x="14.4517" y="9.59998" width="1.03226" height="1.06667" fill="#FAFBFD"/>
<rect x="12.3871" y="11.7334" width="1.03226" height="1.06667" fill="#FFEF77"/>
<rect x="6.1936" y="17.0667" width="1.03226" height="1.06667" fill="#FFEF77"/>
<rect x="14.4517" y="13.8666" width="1.03226" height="1.06667" fill="#FFEF77"/>
<rect x="11.3549" y="12.8" width="2.06452" height="1.06667" fill="#FFEF77"/>
<rect x="10.3226" y="12.8" width="1.03226" height="1.06667" fill="#FAFBFD"/>
<rect x="11.3549" y="9.59998" width="1.03226" height="1.06667" fill="#FAFBFD"/>
<rect x="11.3549" y="10.6667" width="1.03226" height="1.06667" fill="#FAFBFD"/>
<rect x="10.3226" y="11.7334" width="1.03226" height="1.06667" fill="#FAFBFD"/>
<rect x="9.29028" y="13.8666" width="1.03226" height="1.06667" fill="#FAFBFD"/>
<rect x="8.25806" y="14.9333" width="1.03226" height="1.06667" fill="#FAFBFD"/>
<rect x="11.3549" y="11.7334" width="1.03226" height="1.06667" fill="#FAFBFD"/>
<rect x="13.4193" y="10.6667" width="1.03226" height="1.06667" fill="#FAFBFD"/>
<rect x="12.3871" y="9.59998" width="1.03226" height="1.06667" fill="#FAFBFD"/>
<path d="M15.4839 16H17.5484V14.9334H18.5807V13.8667H19.6129V12.8H20.6452V13.8667V16H19.6129V17.0667H18.5807V19.2H16.5161V20.2667H15.4839V21.3334H14.4516V22.4H12.3871V24.5334H11.3549V22.4H12.3871V20.2667H13.4194V19.2H14.4516V18.1334H15.4839V16Z" fill="#FDC700"/>
<rect x="19.6129" y="10.6667" width="1.03226" height="1.06667" fill="#FFBF04"/>
<path d="M19.613 16H20.6452V13.8667H22.7097V12.8H24.7742V14.9334H22.7097V16H21.6775V18.1334V20.2667H20.6452V21.3334H18.5807V22.4H15.4839V23.4667H14.4517V21.3334H15.4839V20.2667H16.5162V19.2H18.5807V17.0667H19.613V16Z" fill="#F9AE00"/>
<rect x="2.06458" y="18.1333" width="2.06452" height="1.06667" fill="#FFBF04"/>
<rect x="14.4517" y="7.46667" width="2.06452" height="1.06667" fill="#FFBF04"/>
<rect x="12.3871" y="7.46667" width="1.03226" height="1.06667" fill="#FFBF04"/>
<path d="M4.12903 19.2001H5.16129V20.2667H6.19354V22.4001H4.12903V19.2001Z" fill="#F9AE00"/>
<path d="M11.3549 26.6666H10.3226V25.6H9.29034V23.4666H11.3549V26.6666Z" fill="#F9AE00"/>
<path d="M12.3871 22.3999H14.4516V23.4666H15.4839V22.3999H18.5807V21.3333H19.6129H20.6452V22.3999H19.6129V23.4666H17.5484V25.5999H15.4839V26.6666H14.4516V25.5999H12.3871V26.6666H11.3549V24.5333H12.3871V22.3999Z" fill="#F68802"/>
<path d="M2.06458 22.3999H6.19361V23.4666H7.22587V24.5332H8.25812V26.6666H7.22587V25.5999H6.19361V24.5332H2.06458V22.3999Z" fill="#F68802"/>
<rect x="20.6451" y="20.2667" width="1.03226" height="1.06667" fill="#F68802"/>
<rect x="9.29028" y="25.6" width="1.03226" height="1.06667" fill="#F68802"/>
<rect x="21.6775" y="16" width="1.03226" height="4.26667" fill="#F49001"/>
<rect x="24.7742" y="11.7334" width="1.03226" height="5.33333" fill="#F49001"/>
<rect x="22.7097" y="14.9333" width="2.06452" height="4.26667" fill="#F49001"/>
<rect x="2.06458" y="24.5333" width="4.12903" height="1.06667" fill="#EE6908"/>
<rect x="6.1936" y="25.6" width="1.03226" height="1.06667" fill="#EE6908"/>
<rect x="6.1936" y="25.6" width="1.03226" height="1.06667" fill="#EE6908"/>
<rect x="11.3549" y="26.6666" width="3.09677" height="1.06667" fill="#EE6908"/>
<rect x="12.3871" y="25.6" width="2.06452" height="1.06667" fill="#EE6908"/>
<rect x="11.3549" y="27.7334" width="2.06452" height="1.06667" fill="#EE6908"/>
<rect x="9.29028" y="27.7334" width="2.06452" height="1.06667" fill="#E4500D"/>
<rect x="11.3549" y="28.8" width="6.19355" height="1.06667" fill="#E4500D"/>
<rect x="14.4517" y="27.7334" width="5.16129" height="1.06667" fill="#E4500D"/>
<rect x="15.4839" y="25.6" width="5.16129" height="1.06667" fill="#E4500D"/>
<rect x="17.5483" y="24.5333" width="5.16129" height="1.06667" fill="#E4500D"/>
<rect x="17.5483" y="23.4667" width="6.19355" height="1.06667" fill="#E4500D"/>
<rect x="19.6129" y="22.3999" width="5.16129" height="1.06667" fill="#E4500D"/>
<rect x="20.6451" y="21.3333" width="5.16129" height="1.06667" fill="#E4500D"/>
<rect x="21.6775" y="20.2667" width="4.12903" height="1.06667" fill="#E4500D"/>
<rect x="22.7097" y="19.2001" width="4.12903" height="1.06667" fill="#E4500D"/>
<rect x="25.8064" y="13.8666" width="1.03226" height="5.33333" fill="#E4500D"/>
<rect x="14.4517" y="26.6666" width="7.22581" height="1.06667" fill="#E4500D"/>
<rect x="8.25806" y="26.6666" width="3.09677" height="1.06667" fill="#F68802"/>
<rect x="8.25806" y="25.6" width="1.03226" height="1.06667" fill="#DD4517"/>
<rect x="13.4193" y="27.7334" width="1.03226" height="1.06667" fill="#DD4517"/>
<rect x="23.7419" y="23.4667" width="1.03226" height="1.06667" fill="#DD4517"/>
<rect x="22.7097" y="24.5333" width="1.03226" height="1.06667" fill="#DD4517"/>
<rect x="20.6451" y="25.6" width="2.06452" height="1.06667" fill="#DD4517"/>
<rect x="24.7742" y="18.1333" width="1.03226" height="1.06667" fill="#DD4517"/>
<rect x="24.7742" y="17.0667" width="1.03226" height="1.06667" fill="#DD4517"/>
<rect x="7.22583" y="26.6666" width="1.03226" height="1.06667" fill="#DD4517"/>
<rect x="1.03223" y="22.3999" width="1.03226" height="2.13333" fill="#DD4517"/>
<rect x="12.3871" y="17.0667" width="2.06452" height="2.13333" fill="#FED201"/>
<rect width="2.06452" height="1.06667" transform="matrix(1 0 0 -1 10.3226 21.3333)" fill="#FED201"/>
<rect width="2.06452" height="1.06667" transform="matrix(1 0 0 -1 9.29028 22.3999)" fill="#FED201"/>
<rect width="2.06452" height="1.06667" transform="matrix(1 0 0 -1 11.3549 20.2667)" fill="#FED201"/>
<rect width="2.06452" height="1.06667" transform="matrix(1 0 0 -1 15.4839 16)" fill="#FED201"/>
<rect width="2.06452" height="1.06667" transform="matrix(1 0 0 -1 17.5483 13.8666)" fill="#FED201"/>
</svg>
