<svg width="32" height="32" viewBox="0 0 32 32" fill="none" xmlns="http://www.w3.org/2000/svg">
<rect x="23.0698" y="11.4286" width="2.97674" height="2.28571" fill="#354E18"/>
<rect x="26.0465" y="9.14282" width="2.97674" height="2.28571" fill="#354E18"/>
<rect x="23.0698" y="6.85718" width="2.97674" height="2.28571" fill="#354E18"/>
<rect x="20.093" y="4.57141" width="2.97674" height="2.28571" fill="#354E18"/>
<rect x="26.0465" y="2.28577" width="2.97674" height="2.28571" fill="#354E18"/>
<rect x="29.0233" y="5.14282" width="2.97674" height="4" fill="#354E18"/>
<rect x="20.093" width="5.95349" height="2.28571" fill="#354E18"/>
<rect x="17.1163" width="2.97674" height="4.57143" fill="#354E18"/>
<rect x="8.93018" y="9.14282" width="14.1395" height="2.28571" fill="#CFB448"/>
<rect x="5.95349" y="11.4285" width="2.97674" height="2.28571" fill="#CFB448"/>
<rect x="8.93018" y="11.4285" width="14.1395" height="2.28571" fill="#FFE76A"/>
<rect x="5.95337" y="13.7142" width="20.093" height="2.28571" fill="#FFE76A"/>
<rect x="5.95337" y="27.4285" width="11.907" height="2.28571" fill="#FFE76A"/>
<path d="M2.97668 15.9999H26.0465V25.1427L23.0697 27.4285H2.97668V15.9999Z" fill="#FFE76A"/>
<rect x="2.97668" y="13.7142" width="2.97674" height="2.28571" fill="#CFB448"/>
<rect x="2.97668" y="27.4285" width="2.97674" height="2.28571" fill="#CFB448"/>
<rect x="23.0698" y="25.1428" width="2.97674" height="2.28571" fill="#CFB448"/>
<rect x="26.0465" y="13.7142" width="2.97674" height="11.4286" fill="#CFB448"/>
<rect x="17.8605" y="27.4285" width="5.2093" height="2.28571" fill="#CFB448"/>
<rect x="5.95349" y="29.7142" width="11.907" height="2.28571" fill="#CFB448"/>
<rect y="16" width="2.97674" height="11.4286" fill="#CFB448"/>
<rect x="20.093" y="2.28577" width="5.95349" height="1.87013" fill="#92BC00"/>
<path d="M23.0697 4.00012H26.0464V4.57155H29.0232V9.14298H26.0464V6.85727H23.0697V4.00012Z" fill="#92BC00"/>
<rect x="5.20935" y="18.8572" width="2.97674" height="6.28571" fill="#D5BB42"/>
<rect x="8.18604" y="25.1428" width="2.23256" height="1.71429" fill="#D5BB42"/>
<rect x="20.093" y="2.28577" width="2.97674" height="2.28571" fill="#789B00"/>
<rect x="20.093" y="2.28564" width="2.97674" height="2.28571" fill="#789B00"/>
<rect x="23.0698" y="4.57141" width="2.97674" height="2.28571" fill="#789B00"/>
</svg>
