<svg width="32" height="32" viewBox="0 0 32 32" fill="none" xmlns="http://www.w3.org/2000/svg">
<path d="M9.48147 29.6586H23.1979V30.3625H25.9259V32H6.37036V30.309H9.48147V29.6586Z" fill="#160C27"/>
<path d="M1.33337 30.309H6.37044V32H1.33341L1.33337 30.309Z" fill="#A98589"/>
<rect x="6.51855" y="27.317" width="2.96296" height="2.34146" fill="#160C27"/>
<rect x="23.1111" y="27.317" width="2.96296" height="2.34146" fill="#160C27"/>
<rect x="25.4814" y="25.496" width="2.96296" height="2.34146" fill="#160C27"/>
<rect x="28.1482" y="23.1544" width="2.66667" height="2.34146" fill="#160C27"/>
<rect x="3.85181" y="25.496" width="2.96296" height="2.34146" fill="#160C27"/>
<rect x="1.18518" y="23.1544" width="2.96296" height="2.60163" fill="#160C27"/>
<rect x="1.18518" y="11.187" width="2.96296" height="3.38211" fill="#160C27"/>
<rect x="28.1482" y="11.187" width="2.66667" height="3.38211" fill="#160C27"/>
<rect x="25.7778" y="8.06506" width="2.66667" height="3.64228" fill="#160C27"/>
<rect x="3.85181" y="8.06506" width="2.96296" height="3.64228" fill="#160C27"/>
<rect x="6.51855" y="6.50403" width="2.96296" height="2.34146" fill="#160C27"/>
<rect x="9.48145" y="4.42273" width="5.92593" height="2.0813" fill="#160C27"/>
<rect x="12.7407" y="2.34143" width="5.33333" height="2.0813" fill="#160C27"/>
<rect x="25.7778" y="2.34143" width="2.66667" height="2.0813" fill="#160C27"/>
<rect x="20.7407" y="2.34143" width="2.66667" height="2.0813" fill="#EFDE6C"/>
<rect x="23.4073" y="8.84558" width="2.37037" height="2.86179" fill="#FFB522"/>
<rect x="11.5555" y="11.7073" width="1.48148" height="1.56098" fill="#F8D145"/>
<path d="M25.7778 11.7073H28.1482V14.5691H29.037V23.1544H28.1482V25.4959H25.7778H25.4815V27.317H23.1111V26.2764H20.7407H20.5926V25.4959H15.5556V23.1544H13.037V21.5935H11.5556V19.9024H9.33334V18.2113H8.2963V16.13H6.81482V14.439H9.18519V13.1382H8.5926V11.8374H9.48149V6.50403H12.7407V8.84549H18.0741V9.75606L14.2222 11.7073H11.5556V13.2683H14.2222V11.7073L18.0741 9.75606V16.13H20.7407V18.2113H25.7778V11.7073Z" fill="#FD9C00"/>
<rect x="18.0741" y="2.34143" width="2.66667" height="2.0813" fill="#9FCB3B"/>
<rect x="12.7407" width="2.66667" height="2.34146" fill="#160C27"/>
<rect x="18.0741" width="7.7037" height="2.34146" fill="#160C27"/>
<rect x="20.1482" y="4.42273" width="5.62963" height="2.0813" fill="#160C27"/>
<rect x="15.4073" y="4.42273" width="4.74074" height="2.0813" fill="#417B65"/>
<rect x="12.7407" y="6.50403" width="13.037" height="2.34146" fill="#160C27"/>
<rect x="1.18518" y="14.5691" width="2.07407" height="8.58537" fill="#160C27"/>
<rect x="29.037" y="14.5691" width="1.77778" height="8.58537" fill="#160C27"/>
<rect y="15.0895" width="1.18519" height="6.76423" fill="#160C27"/>
<rect x="30.8148" y="15.3496" width="1.18519" height="6.76423" fill="#160C27"/>
<path d="M9.48145 27.3171H6.81479V25.496H4.14812V23.1545H3.11108V14.5692H4.14812V11.7074H6.81479V8.84558H9.48145V11.8375H8.59257V13.1383H9.18516V14.4391H6.81479V16.1301H8.29627V18.2114H9.33331V19.9025H11.5555V21.5935H13.037V23.1545H15.5555V25.496H20.5926V26.2765H23.1111V29.6586H9.48145V27.3171Z" fill="#F16129"/>
<rect x="18.0741" y="8.84558" width="5.33333" height="1.04065" fill="#FD9C00"/>
<rect x="20.7407" y="13.0082" width="2.37037" height="1.56098" fill="#FD9C00"/>
</svg>
