<svg width="32" height="32" viewBox="0 0 32 32" fill="none" xmlns="http://www.w3.org/2000/svg">
<rect x="7.19995" y="18.3606" width="3.2" height="6.29508" fill="#C2640C"/>
<rect x="10.4" y="24.6558" width="4" height="2.62295" fill="#C2640C"/>
<rect x="7.19995" y="11.0164" width="17.6" height="2.09836" fill="#914A12"/>
<rect x="7.19995" y="13.1147" width="17.6" height="5.2459" fill="#FF963B"/>
<rect x="14.4" y="24.6558" width="10.4" height="5.2459" fill="#FF963B"/>
<rect x="10.4" y="18.3606" width="14.4" height="6.29508" fill="#FF963B"/>
<rect x="24.8" y="15.7377" width="4" height="11.541" fill="#FF963B"/>
<rect x="3.19995" y="15.7377" width="4" height="11.541" fill="#FF963B"/>
<rect x="7.19995" y="24.6558" width="3.2" height="5.2459" fill="#FF963B"/>
<rect x="10.4" y="27.2787" width="4" height="2.62295" fill="#FF963B"/>
<rect x="7.19995" y="29.9016" width="17.6" height="2.09836" fill="#914A12"/>
<rect y="16.2623" width="3.2" height="11.0164" fill="#D9D9D9"/>
<rect y="15.7377" width="3.2" height="12.0656" fill="#914A12"/>
<rect x="28.8" y="15.7377" width="3.2" height="12.0656" fill="#914A12"/>
<rect x="3.19995" y="13.1147" width="4" height="2.62295" fill="#914A12"/>
<rect x="24.8" y="13.1147" width="4" height="2.62295" fill="#914A12"/>
<rect x="3.19995" y="27.2787" width="4" height="2.62295" fill="#914A12"/>
<rect x="24.8" y="27.2787" width="4" height="2.62295" fill="#914A12"/>
<rect x="14.4" y="8.39343" width="3.2" height="2.62295" fill="#2C4913"/>
<rect width="11.2" height="4.72131" fill="#2C4913"/>
<rect x="3.19995" y="1.57373" width="11.2" height="4.72131" fill="#2C4913"/>
<rect x="7.19995" y="4.72131" width="11.2" height="4.72131" fill="#2C4913"/>
<rect x="3.19995" y="1.57373" width="8" height="3.14754" fill="#81A54C"/>
<rect x="7.19995" y="4.72131" width="7.2" height="2.09836" fill="#81A54C"/>
<rect x="4.80005" y="2.62292" width="6.4" height="1.04918" fill="#92BC00"/>
<rect x="10.4" y="4.72131" width="3.2" height="1.57377" fill="#92BC00"/>
<rect x="8.80005" y="3.67212" width="2.4" height="1.57377" fill="#92BC00"/>
</svg>
