<svg width="32" height="32" viewBox="0 0 32 32" fill="none" xmlns="http://www.w3.org/2000/svg">
<path d="M29.0937 10.1667H30.5312V9.69697V8.25758H30.0624H29.5624V7.75758V6.31818H29.0937H28.5937V5.81818V5.34848H28.1249H27.6249V4.84848V4.37879H27.1561H26.6561V3.87879V3.40909H26.1873H25.6873V2.90909V2.43939H24.2498H23.7498V1.93939V1.4697H19.9059V1.93939V2.43939H19.4059H17.4683H16.9683V1.93939V1.4697H16.4995H15.9995V0.969697V0.5H14.0932V1.93939V2.43939H13.5932H11.1868V2.90909V3.40909H10.6868H9.24927V3.87879V4.37879H8.74927H8.28049V4.84848V5.34848H7.78049H7.31171V5.81818V6.31818H6.81171H6.34293V6.78788V7.28788H5.84293H5.37415V7.75758V8.25758H4.87415H3.43658V9.69697V10.197H2.93658H2.4678V12.6061V13.1061H1.9678H1.49902V20.8333H1.9678H2.4678V21.3333V22.7727H2.93658H3.43658V23.2727V24.7121H4.87415H5.37415V25.2121V26.6515H5.84293H6.34293V27.1515V27.6212H7.78049H8.28049V28.1212V28.5909H8.74927H9.24927V29.0909V29.5606H10.6868H11.1868V30.0606V30.5303H12.6244H13.1244V31.0303V31.5H14.062V31.0303V30.5303H14.562H15.0307V30.0606V29.5606H15.5307H16.4995H16.9995V30.0606V30.5303H20.8434V30.0606V29.5606H21.3434H22.781V29.0909V28.5909H23.281H24.7185V28.1212V27.6212H25.2185H25.6873V27.1515V26.6515H26.1873H26.6561V25.2121V24.7121H27.1561H27.6249V24.2424V23.7424H28.1249H28.5937V22.303V21.803H29.0937H29.5624V20.3636V19.8636H30.0624H30.5312V16.0152H30.0624H29.5624V15.5152V12.1364H29.0937H28.5937V11.6364V10.6667V10.1667H29.0937Z" fill="#FF2875" stroke="black"/>
<path d="M23.2809 1.93945H20.3746V2.90915H22.3122V3.87885H23.2809V4.84854H25.2185V2.90915H23.2809V1.93945Z" fill="#CAE458"/>
<path d="M26.1874 3.87878H25.2187V5.81818H26.1874V6.78788H28.125V5.81818H27.1562V4.84848H26.1874V3.87878Z" fill="#94CA4C"/>
<rect width="0.969697" height="0.969697" transform="matrix(-1 0 0 1 22.3123 2.90906)" fill="#069167"/>
<rect width="0.969697" height="0.969697" transform="matrix(-1 0 0 1 27.156 6.78784)" fill="#069167"/>
<rect width="0.969697" height="0.969697" transform="matrix(-1 0 0 1 29.0938 6.78784)" fill="#069167"/>
<path d="M28.125 7.75757H27.1562V8.72727H26.1874V9.69696H27.1562H28.125V7.75757Z" fill="#069167"/>
<rect width="0.969697" height="0.969697" transform="matrix(-1 0 0 1 21.3435 2.90906)" fill="#021D3F"/>
<rect width="0.969697" height="1.93939" transform="matrix(-1 0 0 1 19.4058 3.87878)" fill="#021D3F"/>
<rect width="0.969697" height="0.969697" transform="matrix(-1 0 0 1 15.5308 2.90906)" fill="#021D3F"/>
<rect width="0.969697" height="0.969697" transform="matrix(-1 0 0 1 17.4683 2.90906)" fill="#021D3F"/>
<rect width="0.969697" height="1.93939" transform="matrix(-1 0 0 1 17.4683 3.87878)" fill="#023C59"/>
<rect width="0.969697" height="1.93939" transform="matrix(-1 0 0 1 16.4995 3.87878)" fill="#81364A"/>
<rect width="0.969697" height="0.969697" transform="matrix(-1 0 0 1 20.3745 5.81824)" fill="#021D3F"/>
<rect width="0.969697" height="0.969697" transform="matrix(-1 0 0 1 21.3435 6.78784)" fill="#021D3F"/>
<rect width="0.969697" height="0.969697" transform="matrix(-1 0 0 1 28.125 6.78784)" fill="#021D3F"/>
<path d="M29.0937 7.75757H28.1249V9.69696H29.0937H30.0625V8.72727H29.0937V7.75757Z" fill="#021D3F"/>
<rect width="0.969697" height="0.969697" transform="matrix(-1 0 0 1 26.1873 5.81824)" fill="#021D3F"/>
<rect width="1.93756" height="0.969697" transform="matrix(-1 0 0 1 23.281 3.87878)" fill="#021D3F"/>
<rect width="1.93756" height="0.969697" transform="matrix(-1 0 0 1 25.2185 4.84851)" fill="#021D3F"/>
<rect width="2.90634" height="0.969697" transform="matrix(-1 0 0 1 28.125 9.69702)" fill="#021D3F"/>
<rect width="2.90634" height="0.969697" transform="matrix(-1 0 0 1 26.1873 8.72729)" fill="#021D3F"/>
<rect width="1.93756" height="0.969697" transform="matrix(-1 0 0 1 23.281 7.75757)" fill="#021D3F"/>
<rect width="2.90634" height="0.969697" transform="matrix(-1 0 0 1 24.2498 6.78784)" fill="#069167"/>
<rect width="1.93756" height="0.969697" transform="matrix(-1 0 0 1 22.3123 5.81824)" fill="#069167"/>
<rect width="0.969697" height="0.969697" transform="matrix(-1 0 0 1 20.3745 4.84851)" fill="#069167"/>
<rect width="2.90634" height="0.969697" transform="matrix(-1 0 0 1 26.1873 7.75757)" fill="#069167"/>
<path d="M26.1873 6.78788H25.2185V5.81818H23.2809V4.84848H21.3434V3.87878H20.3746V5.81818H22.3121V6.78788H24.2497V7.75757H26.1873V6.78788Z" fill="#94CA4C"/>
<path d="M20.3745 2.90906H19.4057H18.437V3.87875H19.4057V4.84845H20.3745V2.90906Z" fill="#CAE458"/>
<rect width="0.969697" height="0.969697" transform="matrix(-1 0 0 1 27.156 7.75757)" fill="#94CA4C"/>
<rect width="0.969697" height="0.969697" transform="matrix(-1 0 0 1 18.437 4.84851)" fill="#8F0363"/>
<rect width="1.93756" height="0.969697" transform="matrix(-1 0 0 1 18.437 5.81824)" fill="#FF6084"/>
<rect width="1.93756" height="0.969697" transform="matrix(-1 0 0 1 16.4995 6.78784)" fill="#FF6084"/>
<rect width="0.969697" height="0.969697" transform="matrix(-1 0 0 1 14.562 7.75757)" fill="#FF6084"/>
<rect width="2.90634" height="0.969697" transform="matrix(-1 0 0 1 14.562 2.90906)" fill="#FF6084"/>
<rect width="1.93756" height="0.969697" transform="matrix(-1 0 0 1 14.562 4.84851)" fill="#FF6084"/>
<rect width="0.969697" height="0.969697" transform="matrix(-1 0 0 1 10.6868 3.87878)" fill="#FF6084"/>
<rect width="1.93756" height="0.969697" transform="matrix(-1 0 0 1 12.6245 7.75757)" fill="#FFBC9F"/>
<rect width="0.969697" height="1.93939" transform="matrix(-1 0 0 1 6.81177 8.72729)" fill="#FFBC9F"/>
<rect width="0.969697" height="0.969697" transform="matrix(-1 0 0 1 13.5933 9.69702)" fill="#FFBC9F"/>
<rect width="0.969697" height="0.969697" transform="matrix(-1 0 0 1 11.6555 9.69702)" fill="#FFBC9F"/>
<rect width="0.969697" height="1.93939" transform="matrix(-1 0 0 1 10.6868 9.69702)" fill="#FFBC9F"/>
<rect width="0.969697" height="0.969697" transform="matrix(-1 0 0 1 12.6245 10.6666)" fill="#FFBC9F"/>
<rect width="0.969697" height="0.969697" transform="matrix(-1 0 0 1 13.5933 5.81824)" fill="#FFBC9F"/>
<rect width="1.93756" height="0.969697" transform="matrix(-1 0 0 1 12.6245 4.84851)" fill="#FFBC9F"/>
<path d="M19.4059 6.78784H18.4372V7.75754H17.4684V8.72724H18.4372V9.69693H17.4684V13.5757H14.562V14.5454H12.6245V15.5151H11.6557V14.5454H10.6869V17.4545H11.6557V18.4242H12.6245V20.3636H13.5933V21.3333H16.4996V20.3636H17.4684V17.4545H18.4372V16.4848H19.4059V15.5151H20.3747V14.5454H21.3435V10.6666H20.3747V8.72724H19.4059V6.78784Z" fill="#FFBC9F"/>
<rect width="1.93756" height="0.969697" transform="matrix(-1 0 0 1 12.6245 3.87878)" fill="#FFD3B7"/>
<rect width="1.93756" height="1.93939" transform="matrix(-1 0 0 1 12.6245 5.81824)" fill="#FFD3B7"/>
<rect width="2.90634" height="0.969697" transform="matrix(-1 0 0 1 15.5308 3.87878)" fill="#FFBC9F"/>
<rect width="0.969697" height="0.969697" transform="matrix(-1 0 0 1 13.5933 8.72729)" fill="#FF6084"/>
<path d="M17.4682 6.78784H16.4995V7.75754H14.5619V8.72724H13.5931V10.6666H12.6243V11.6363H11.6555V13.5757H10.6868V14.5454H11.6555V15.5151H12.6243V14.5454H14.5619V13.5757H17.4682V9.69693H18.437V8.72724H17.4682V7.75754H18.437V6.78784H17.4682Z" fill="#FFF0D9"/>
<rect width="0.969697" height="0.969697" transform="matrix(-1 0 0 1 14.562 6.78784)" fill="#8F0363"/>
<rect width="1.93756" height="0.969697" transform="matrix(-1 0 0 1 16.4995 5.81824)" fill="#8F0363"/>
<path d="M10.6868 4.84851H8.74921V5.81821H7.78043V6.7879H6.81165V7.7576H5.84286V8.7273H6.81165V9.697H7.78043V8.7273H9.71799V9.697H10.6868V4.84851Z" fill="#FFF0D9"/>
<path d="M9.71802 8.72729H7.78046V9.69699H6.81168V12.6061H8.74924V11.6364H9.71802V8.72729Z" fill="#FAFCFB"/>
<rect width="1.93756" height="1.93939" transform="matrix(-1 0 0 1 6.81177 12.6061)" fill="#FAFCFB"/>
<rect width="0.969697" height="0.969697" transform="matrix(-1 0 0 1 12.6245 8.72729)" fill="#DA1174"/>
<rect width="0.969697" height="0.969697" transform="matrix(-1 0 0 1 13.5933 7.75757)" fill="#DA1174"/>
<rect width="0.969697" height="0.969697" transform="matrix(-1 0 0 1 15.5308 0.969727)" fill="#E58352"/>
<rect width="1.93756" height="0.969697" transform="matrix(-1 0 0 1 16.4995 1.93945)" fill="#934439"/>
<rect width="0.969697" height="0.969697" transform="matrix(-1 0 0 1 16.4995 2.90906)" fill="#934439"/>
<rect width="0.969697" height="0.969697" transform="matrix(-1 0 0 1 6.81177 10.6666)" fill="#FFF0D9"/>
<rect width="0.969697" height="0.969697" transform="matrix(-1 0 0 1 3.9054 11.6364)" fill="#FFF0D9"/>
<rect width="0.969697" height="1.93939" transform="matrix(-1 0 0 1 5.8429 8.72729)" fill="#FFF0D9"/>
<rect width="0.969697" height="1.93939" transform="matrix(-1 0 0 1 4.87415 9.69702)" fill="#FFF0D9"/>
<path d="M8.74921 15.5151H9.71799V13.5757H10.6868V11.6363H8.74921V12.606H6.81165V14.5454H4.87408V12.606H6.81165V11.6363H5.84286V10.6666H4.87408V11.6363H3.9053V12.606H2.93652V13.5757H1.96774V14.5454V19.3939H2.93652V18.4242H3.9053V20.3636H4.87408V21.3333H7.78043V20.3636H8.74921V15.5151Z" fill="#FFBC9F"/>
<rect width="0.969697" height="0.969697" transform="matrix(-1 0 0 1 4.87415 8.72729)" fill="#FB9C8D"/>
<rect width="0.969697" height="0.969697" transform="matrix(-1 0 0 1 3.9054 10.6666)" fill="#FB9C8D"/>
<rect width="0.969697" height="0.969697" transform="matrix(-1 0 0 1 2.93652 19.3939)" fill="#FB9C8D"/>
<rect width="0.969697" height="0.969697" transform="matrix(-1 0 0 1 11.6555 17.4546)" fill="#FB9C8D"/>
<path d="M8.74924 20.3636H7.78046V21.3333H4.87411V20.3636H3.90533V21.3333H2.93655V22.303H3.90533V23.2727H4.87411V24.2424H5.8429V26.1818H7.78046H8.74924V25.2121H9.71802V21.3333H8.74924V20.3636Z" fill="#FF7C82"/>
<rect width="0.969697" height="0.969697" transform="matrix(-1 0 0 1 19.4058 16.4849)" fill="#FB9C8D"/>
<rect width="1.93756" height="0.969697" transform="matrix(-1 0 0 1 19.4058 17.4546)" fill="#FB9C8D"/>
<rect width="0.969697" height="2.90909" transform="matrix(-1 0 0 1 3.9054 18.4242)" fill="#FB9C8D"/>
<path d="M14.562 21.3333H13.5932V20.3636H12.6245V18.4242H10.6869V21.3333H11.6557V22.303H14.562V21.3333Z" fill="#FF8385"/>
<rect width="1.93756" height="1.93939" transform="matrix(-1 0 0 1 21.3435 15.5151)" fill="#FF8385"/>
<path d="M21.3434 8.72729H20.3746V10.6667H21.3434V14.5455H20.3746V15.5152H21.3434V17.4546H19.4059V18.4243H17.4683V20.3637H16.4995V21.3334H13.5932V22.3031H11.6556V21.3334H10.6868V24.2424H11.6556V25.2121H14.562V26.1818H15.5307V27.1515H16.4995V26.1818H18.4371V24.2424H19.4059V23.2727H20.3746V22.3031H21.3434V21.3334H22.3122V19.394H23.281V18.4243H24.2498V12.6061H23.281V10.6667H22.3122V9.69699H21.3434V8.72729Z" fill="#FF8081"/>
<rect width="1.93756" height="0.969697" transform="matrix(-1 0 0 1 8.74927 26.1818)" fill="#FE567A"/>
<rect width="1.93756" height="0.969697" transform="matrix(-1 0 0 1 11.6555 28.1212)" fill="#FE567A"/>
<rect width="1.93756" height="0.969697" transform="matrix(-1 0 0 1 13.5933 28.1212)" fill="#B10869"/>
<rect width="1.93756" height="0.969697" transform="matrix(-1 0 0 1 12.6245 27.1515)" fill="#B10869"/>
<rect width="0.969697" height="0.969697" transform="matrix(-1 0 0 1 11.6555 26.1818)" fill="#B10869"/>
<rect width="0.969697" height="0.969697" transform="matrix(-1 0 0 1 14.562 29.0909)" fill="#B10869"/>
<rect width="0.969697" height="0.969697" transform="matrix(-1 0 0 1 25.2185 24.2424)" fill="#B10869"/>
<rect width="1.93756" height="2.90909" transform="matrix(-1 0 0 1 10.6868 25.2122)" fill="#FE567A"/>
<rect width="0.969697" height="0.969697" transform="matrix(-1 0 0 1 4.87415 23.2727)" fill="#FE567A"/>
<rect width="0.969697" height="2.90909" transform="matrix(-1 0 0 1 23.281 19.3939)" fill="#FF577C"/>
<rect width="0.969697" height="2.90909" transform="matrix(-1 0 0 1 22.3123 21.3334)" fill="#FF577C"/>
<rect width="0.969697" height="2.90909" transform="matrix(-1 0 0 1 21.3435 22.303)" fill="#FF577C"/>
<rect width="0.969697" height="2.90909" transform="matrix(-1 0 0 1 20.3745 23.2727)" fill="#FF577C"/>
<rect width="0.969697" height="2.90909" transform="matrix(-1 0 0 1 19.4058 24.2424)" fill="#FF577C"/>
<rect x="17.4683" y="26.1818" width="0.969697" height="1.93939" fill="#FF577C"/>
<rect x="15.5308" y="27.1515" width="0.969697" height="1.93939" fill="#FF577C"/>
<rect x="14.562" y="26.1818" width="0.969697" height="1.93939" fill="#FF577C"/>
<rect x="11.6555" y="25.2122" width="2.90634" height="1.93939" fill="#FF577C"/>
<rect x="16.4995" y="26.1818" width="0.969697" height="2.90909" fill="#FF577C"/>
</svg>
