<svg width="32" height="32" viewBox="0 0 32 32" fill="none" xmlns="http://www.w3.org/2000/svg">
<path d="M13.3333 0H15.3333V1.65517H16.6666V4.41379H18.6666V8.27586H16.6666V11.0345H13.3333V9.93103H15.3333V8.27586H16.6666V4.41379H15.3333V1.65517H13.3333V0Z" fill="#824E1E"/>
<path d="M3.33337 1.10339H12V2.75857H15.3334V4.41374H16.6667V7.17236H15.3334V8.82753H10V7.17236H6.66671V6.06891H4.66671V4.41374H3.33337V1.10339Z" fill="#2C4913"/>
<path d="M18.6667 2.75862H20.0001V1.10345H22.0001V0H30.6667V2.75862H28.6667V6.06897H25.3334V7.72414H18.6667V2.75862Z" fill="#2C4913"/>
<path d="M0 14.3448H2V12.6897H3.33333V11.5862H6.66667V9.93103H13.3333V11.0345H16.6667V9.93103H25.3333V11.5862H28.6667V12.6897H30V14.3448H32V25.3793H30V28.1379H28.6667V29.2414H26.6667V30.8965H23.3333V32H17.3333V30.8965H15.3333V32H8.66667V30.8965H5.33333V29.2414H3.33333V28.1379H1.33333V25.3793H0V14.3448Z" fill="#FD939C"/>
<path d="M5.33337 2.75867H12V4.41384H15.3334V7.17246H12H10V5.51729H8.00004H6.66671V4.41384H5.33337V2.75867Z" fill="#81A54C"/>
<path d="M20 2.7586H22V1.65515H28.6667V2.7586H26.6667V4.41377H25.3333V6.06894H20V2.7586Z" fill="#81A54C"/>
<path d="M22 1.65515H28.6667V2.7586H23.3333V3.86205H21.3333V6.06894H20V2.7586H22V1.65515Z" fill="#92BC00"/>
<path d="M12 4.41382H15.3333V5.51727V6.62071V7.17244H14V5.51727H12V4.41382Z" fill="#92BC00"/>
<rect x="5.33337" y="2.75867" width="6.66667" height="1.10345" fill="#92BC00"/>
<path d="M0 14.3448H2V12.6897H3.33333V11.5862H6.66667V9.93103H13.3333V11.0345H16.6667V9.93103H25.3333V12.1379H18V13.2414H13.3333V12.1379H9.33333V13.7931H4.66667V16.5517H2.66667V23.1724H4V27.0345H8V28.6897H10.6667V29.7931H15.3333V28.6897H17.3333V29.7931H23.3333V28.6897H24H26V27.0345H27.3333V25.3793H29.3333V23.1724V16H27.3333V13.7931H25.3333V11.5862H28.6667V12.6897H30V14.3448H32V25.3793H30V28.1379H28.6667V29.2414H28H26.6667V30.8965H23.3333V32H17.3333V30.8965H15.3333V32H8.66667V30.8965H5.33333V29.2414H3.33333V28.1379H1.33333V25.3793L0 25.3793V14.3448Z" fill="#CD4553"/>
<path d="M12 13.2413H16V14.8965H14V20.4137H16V23.1724H18V24.8275H16V23.1724H14V20.4137H12V14.8965V13.2413Z" fill="#CD4553"/>
<rect x="23.3333" y="21.5172" width="2" height="3.31034" fill="#FFC2C8"/>
<rect x="21.3333" y="24.8276" width="2" height="1.65517" fill="#FFC2C8"/>
</svg>
