<svg width="128" height="128" viewBox="0 0 128 128" fill="none" xmlns="http://www.w3.org/2000/svg">
<path d="M48.9412 100.572H77.1765V118.857H82.8235V121.905H88.4706V124.952H94.1176V128H54.5882H32V124.952H37.6471V121.905H43.2941V118.857H48.9412V100.572Z" fill="#7E4611"/>
<path d="M22.5882 30.4762H28.2353V28.4444H33.8824V22.3492H39.5294V16.254H45.1765V13.2063H50.8235V7.11111H56.4706V4.06349H62.1176V1.01587H65.8824V4.06349H71.5294V7.11111H77.1765V13.2063H82.8235V16.254H88.4706V22.3492H94.1176V28.4444H99.7647V36.5714H105.412V42.6667H111.059V48.7619H105.412V51.8095H111.059V54.8571H116.706V60.9524H122.353V67.0476H116.706V70.0952H122.353V82.2857H128V91.4286H122.353V94.4762H116.706V97.5238H111.059V100.571H105.412V103.619H94.1176V100.571H88.4706V103.619H82.8235V106.667H77.1765V103.619H50.8235H33.8824V100.571H22.5882V97.5238H11.2941V94.4762H5.64706V91.4286H0V79.2381H5.64706V73.1429H0V70.0952H5.64706V64H11.2941V60.9524H5.64706V57.9048H11.2941V51.8095H16.9412V48.7619H22.5882V39.619H28.2353V36.5714H22.5882V30.4762Z" fill="#72C14E"/>
<rect x="62.1177" width="3.76471" height="3.04762" fill="black"/>
<rect x="50.8235" y="6.09521" width="5.64706" height="6.09524" fill="black"/>
<rect x="45.1765" y="12.1904" width="5.64706" height="3.04762" fill="black"/>
<rect x="28.2354" y="36.5715" width="5.64706" height="3.04762" fill="black"/>
<rect x="22.5881" y="39.6191" width="5.64706" height="9.14286" fill="black"/>
<rect x="16.9412" y="48.762" width="5.64706" height="3.04762" fill="black"/>
<rect x="11.2942" y="51.8096" width="5.64706" height="6.09524" fill="black"/>
<rect x="5.64697" y="57.9048" width="5.64706" height="3.04762" fill="black"/>
<rect x="11.2942" y="60.9524" width="5.64706" height="3.04762" fill="black"/>
<rect x="5.64697" y="64" width="5.64706" height="6.09524" fill="black"/>
<rect y="70.0952" width="5.64706" height="3.04762" fill="black"/>
<rect x="5.64697" y="73.1428" width="5.64706" height="6.09524" fill="black"/>
<rect y="79.238" width="5.64706" height="12.1905" fill="black"/>
<rect x="5.64697" y="91.4285" width="5.64706" height="3.04762" fill="black"/>
<rect x="43.2942" y="118.857" width="5.64706" height="3.04762" fill="black"/>
<rect x="71.5293" y="121.905" width="5.64706" height="3.04762" fill="black"/>
<rect x="48.9412" y="121.905" width="5.64706" height="3.04762" fill="black"/>
<rect x="94.1177" y="100.572" width="11.2941" height="3.04762" fill="black"/>
<rect x="60.2354" y="100.572" width="28.2353" height="3.04762" fill="black"/>
<rect x="50.8235" y="97.5239" width="9.41176" height="3.04762" fill="black"/>
<rect x="88.4707" y="97.5239" width="5.64706" height="3.04762" fill="black"/>
<rect x="122.353" y="82.2856" width="5.64706" height="9.14286" fill="black"/>
<rect x="94.1177" y="27.4285" width="5.64706" height="9.14286" fill="black"/>
<rect x="88.4707" y="21.3333" width="5.64706" height="6.09524" fill="black"/>
<rect x="82.8235" y="15.238" width="5.64706" height="6.09524" fill="black"/>
<rect x="99.7646" y="36.5715" width="5.64706" height="6.09524" fill="black"/>
<rect x="116.706" y="60.9524" width="5.64706" height="6.09524" fill="black"/>
<rect x="111.059" y="54.8572" width="5.64706" height="6.09524" fill="black"/>
<rect x="105.412" y="42.6667" width="5.64706" height="6.09524" fill="black"/>
<rect x="116.706" y="70.0952" width="5.64706" height="12.1905" fill="black"/>
<rect x="116.706" y="91.4285" width="5.64706" height="3.04762" fill="black"/>
<rect x="111.059" y="67.0476" width="5.64706" height="3.04762" fill="black"/>
<rect x="99.7646" y="48.762" width="5.64706" height="3.04762" fill="black"/>
<rect x="105.412" y="51.8096" width="5.64706" height="3.04762" fill="black"/>
<rect x="111.059" y="94.4761" width="5.64706" height="3.04762" fill="black"/>
<rect x="105.412" y="97.5239" width="5.64706" height="3.04762" fill="black"/>
<rect x="77.1765" y="103.619" width="5.64706" height="3.04762" fill="black"/>
<rect x="77.1765" y="118.857" width="5.64706" height="3.04762" fill="black"/>
<rect x="82.8235" y="121.905" width="5.64706" height="3.04762" fill="black"/>
<rect x="32" y="124.952" width="62.1176" height="3.04762" fill="black"/>
<rect x="37.647" y="121.905" width="5.64706" height="3.04762" fill="black"/>
<rect x="11.2942" y="94.4761" width="11.2941" height="3.04762" fill="black"/>
<rect x="22.5881" y="97.5239" width="11.2941" height="3.04762" fill="black"/>
<rect x="33.8823" y="100.572" width="15.0588" height="3.04762" fill="black"/>
<rect x="48.9412" y="103.619" width="5.64706" height="15.2381" fill="black"/>
<rect x="71.5293" y="106.667" width="5.64706" height="12.1905" fill="black"/>
<rect x="22.5881" y="30.4761" width="5.64706" height="6.09524" fill="black"/>
<rect x="28.2354" y="27.4285" width="5.64706" height="3.04762" fill="black"/>
<rect x="33.8823" y="21.3333" width="5.64706" height="6.09524" fill="black"/>
<rect x="39.5293" y="15.238" width="5.64706" height="6.09524" fill="black"/>
<rect x="77.1765" y="12.1904" width="5.64706" height="3.04762" fill="black"/>
<rect x="71.5293" y="6.09521" width="5.64706" height="6.09524" fill="black"/>
<rect x="65.8823" y="3.04761" width="5.64706" height="3.04762" fill="black"/>
<rect x="56.4707" y="3.04761" width="5.64706" height="3.04762" fill="black"/>
<rect x="62.1177" y="3.04761" width="3.76471" height="3.04762" fill="#E1E668"/>
<rect x="56.4707" y="9.14282" width="5.64706" height="3.04762" fill="#E1E668"/>
<rect x="56.4707" y="6.09521" width="5.64706" height="3.04762" fill="#BED853"/>
<rect x="62.1177" y="9.14282" width="3.76471" height="3.04762" fill="#BED853"/>
<rect x="65.8823" y="15.238" width="5.64706" height="3.04762" fill="#BED853"/>
<rect x="45.1765" y="15.238" width="5.64706" height="3.04762" fill="#BED853"/>
<rect x="39.5293" y="21.3333" width="5.64706" height="3.04762" fill="#BED853"/>
<rect x="33.8823" y="27.4285" width="5.64706" height="3.04762" fill="#BED853"/>
<rect x="45.1765" y="30.4761" width="5.64706" height="3.04762" fill="#BED853"/>
<rect x="28.2354" y="45.7144" width="5.64706" height="3.04762" fill="#BED853"/>
<rect x="54.5881" y="51.8096" width="5.64706" height="3.04762" fill="#BED853"/>
<rect x="11.2942" y="67.0476" width="5.64706" height="3.04762" fill="#BED853"/>
<rect x="45.1765" y="73.1428" width="5.64706" height="3.04762" fill="#BED853"/>
<rect x="45.1765" y="73.1428" width="5.64706" height="3.04762" fill="#BED853"/>
<rect x="94.1177" y="76.1904" width="5.64706" height="3.04762" fill="#BED853"/>
<rect x="105.412" y="70.0952" width="11.2941" height="3.04762" fill="#BED853"/>
<rect x="111.059" y="73.1428" width="5.64706" height="3.04762" fill="#BED853"/>
<rect x="99.7646" y="73.1428" width="5.64706" height="3.04762" fill="#BED853"/>
<rect x="82.8235" y="79.238" width="5.64706" height="3.04762" fill="#BED853"/>
<rect x="71.5293" y="82.2856" width="5.64706" height="3.04762" fill="#BED853"/>
<rect x="65.8823" y="79.238" width="5.64706" height="3.04762" fill="#BED853"/>
<rect x="71.5293" y="76.1904" width="5.64706" height="3.04762" fill="#BED853"/>
<rect x="62.1177" y="73.1428" width="5.64706" height="3.04762" fill="#BED853"/>
<rect x="28.2354" y="73.1428" width="11.2941" height="3.04762" fill="#BED853"/>
<rect x="37.647" y="79.238" width="16.9412" height="3.04762" fill="#BED853"/>
<rect x="33.8823" y="76.1904" width="11.2941" height="3.04762" fill="#BED853"/>
<rect x="56.4707" y="76.1904" width="11.2941" height="3.04762" fill="#BED853"/>
<rect x="33.8823" y="82.2856" width="5.64706" height="3.04762" fill="#BED853"/>
<rect x="22.5881" y="79.238" width="11.2941" height="3.04762" fill="#BED853"/>
<rect x="16.9412" y="70.0952" width="5.64706" height="6.09524" fill="#BED853"/>
<rect x="11.2942" y="76.1904" width="16.9412" height="3.04762" fill="#BED853"/>
<rect x="5.64697" y="70.0952" width="5.64706" height="3.04762" fill="#BED853"/>
<rect x="82.8235" y="48.762" width="5.64706" height="3.04762" fill="#BED853"/>
<rect x="88.4707" y="45.7144" width="5.64706" height="3.04762" fill="#BED853"/>
<rect x="99.7646" y="42.6667" width="5.64706" height="3.04762" fill="#BED853"/>
<rect x="22.5881" y="48.762" width="16.9412" height="3.04762" fill="#BED853"/>
<rect x="39.5293" y="51.8096" width="9.41177" height="3.04762" fill="#BED853"/>
<rect x="67.7646" y="51.8096" width="9.41177" height="3.04762" fill="#BED853"/>
<rect x="65.8823" y="27.4285" width="5.64706" height="3.04762" fill="#BED853"/>
<path d="M50.8236 12.1904H60.2353V15.238V18.2857H65.8824V21.3333H71.5295V24.3809H65.8824V27.4285H62.1177V33.5238H54.5883V30.4761H50.8236V28.4444H45.1765V25.3968H50.8236V22.3492H56.4706V19.3015H54.5883V15.238H50.8236V12.1904Z" fill="#BED853"/>
<rect x="88.4707" y="27.4285" width="5.64706" height="3.04762" fill="#BED853"/>
<rect x="82.8235" y="21.3333" width="5.64706" height="3.04762" fill="#BED853"/>
<rect x="77.1765" y="15.238" width="5.64706" height="3.04762" fill="#BED853"/>
<rect x="71.5293" y="12.1904" width="5.64706" height="3.04762" fill="#BED853"/>
<rect x="65.8823" y="6.09521" width="5.64706" height="3.04762" fill="#BED853"/>
<rect x="54.5881" y="24.3809" width="5.64706" height="3.04762" fill="#E1E668"/>
<rect x="50.8235" y="19.3015" width="5.64706" height="3.04762" fill="#E1E668"/>
<rect x="60.2354" y="15.238" width="5.64706" height="3.04762" fill="#E1E668"/>
<rect x="28.2354" y="33.5239" width="5.64706" height="3.04762" fill="#008242"/>
<rect x="79.0588" y="39.6191" width="9.41177" height="3.04762" fill="#008242"/>
<rect x="54.5881" y="45.7144" width="5.64706" height="3.04762" fill="#008242"/>
<rect x="82.8235" y="42.6667" width="5.64706" height="3.04762" fill="#008242"/>
<rect x="62.1177" y="39.6191" width="5.64706" height="3.04762" fill="#008242"/>
<rect x="71.5293" y="45.7144" width="5.64706" height="3.04762" fill="#008242"/>
<rect x="88.4707" y="33.5239" width="5.64706" height="6.09524" fill="#008242"/>
<rect x="67.7646" y="42.6667" width="9.41177" height="3.04762" fill="#008242"/>
<rect x="45.1765" y="42.6667" width="16.9412" height="3.04762" fill="#008242"/>
<rect x="39.5293" y="39.6191" width="5.64706" height="3.04762" fill="#008242"/>
<rect x="33.8823" y="42.6667" width="5.64706" height="3.04762" fill="#008242"/>
<rect x="33.8823" y="67.0476" width="5.64706" height="3.04762" fill="#008242"/>
<rect x="5.64697" y="85.3333" width="5.64706" height="3.04762" fill="#008242"/>
<rect x="11.2942" y="88.3809" width="5.64706" height="3.04762" fill="#008242"/>
<rect x="16.9412" y="91.4285" width="16.9412" height="3.04762" fill="#008242"/>
<rect x="33.8823" y="94.4761" width="37.6471" height="3.04762" fill="#008242"/>
<rect x="79.0588" y="94.4761" width="26.3529" height="3.04762" fill="#008242"/>
<rect x="99.7646" y="91.4285" width="11.2941" height="3.04762" fill="#008242"/>
<rect x="105.412" y="88.3809" width="11.2941" height="3.04762" fill="#008242"/>
<rect x="105.412" y="88.3809" width="11.2941" height="3.04762" fill="#008242"/>
<rect x="116.706" y="85.3333" width="5.64706" height="3.04762" fill="#008242"/>
<rect x="62.1177" y="91.4285" width="5.64706" height="3.04762" fill="#008242"/>
<rect x="50.8235" y="91.4285" width="5.64706" height="3.04762" fill="#008242"/>
<rect x="11.2942" y="64" width="5.64706" height="3.04762" fill="#008242"/>
<rect x="50.8235" y="67.0476" width="5.64706" height="3.04762" fill="#008242"/>
<rect x="84.7058" y="67.0476" width="3.76471" height="3.04762" fill="#008242"/>
<rect x="73.4119" y="67.0476" width="5.64706" height="3.04762" fill="#008242"/>
<rect x="94.1177" y="60.9524" width="5.64706" height="3.04762" fill="#008242"/>
<rect x="99.7646" y="57.9048" width="11.2941" height="3.04762" fill="#008242"/>
<rect x="105.412" y="60.9524" width="5.64706" height="3.04762" fill="#008242"/>
<rect x="99.7646" y="64" width="5.64706" height="3.04762" fill="#008242"/>
<rect x="88.4707" y="64" width="5.64706" height="3.04762" fill="#008242"/>
<rect x="67.7646" y="64" width="15.0588" height="3.04762" fill="#008242"/>
<rect x="62.1177" y="67.0476" width="5.64706" height="3.04762" fill="#008242"/>
<rect x="56.4707" y="64" width="5.64706" height="3.04762" fill="#008242"/>
<rect x="45.1765" y="64" width="5.64706" height="3.04762" fill="#008242"/>
<rect x="39.5293" y="60.9524" width="5.64706" height="6.09524" fill="#008242"/>
<rect x="33.8823" y="36.5715" width="5.64706" height="3.04762" fill="#008242"/>
<path d="M16.9412 57.9048H28.2353V60.9524H33.8823V67.0476H22.5882V60.9524H16.9412V57.9048Z" fill="#008242"/>
<rect x="28.2354" y="39.6191" width="5.64706" height="3.04762" fill="#008242"/>
<rect x="33.8823" y="33.5239" width="5.64706" height="3.04762" fill="#0BA245"/>
<rect x="39.5293" y="36.5715" width="5.64706" height="3.04762" fill="#0BA245"/>
<rect x="67.7646" y="39.6191" width="11.2941" height="3.04762" fill="#0BA245"/>
<rect x="71.5293" y="36.5715" width="16.9412" height="3.04762" fill="#0BA245"/>
<rect x="62.1177" y="36.5715" width="5.64706" height="3.04762" fill="#0BA245"/>
<rect x="82.8235" y="33.5239" width="5.64706" height="3.04762" fill="#0BA245"/>
<rect x="88.4707" y="30.4761" width="5.64706" height="3.04762" fill="#0BA245"/>
<rect x="77.1765" y="45.7144" width="11.2941" height="3.04762" fill="#0BA245"/>
<rect x="88.4707" y="42.6667" width="5.64706" height="3.04762" fill="#0BA245"/>
<rect x="60.2354" y="45.7144" width="11.2941" height="3.04762" fill="#0BA245"/>
<rect x="77.1765" y="42.6667" width="5.64706" height="3.04762" fill="#0BA245"/>
<rect x="71.5293" y="48.762" width="5.64706" height="3.04762" fill="#0BA245"/>
<rect x="60.2354" y="48.762" width="5.64706" height="3.04762" fill="#0BA245"/>
<rect x="48.9412" y="48.762" width="5.64706" height="3.04762" fill="#0BA245"/>
<rect x="94.1177" y="39.6191" width="5.64706" height="3.04762" fill="#0BA245"/>
<rect x="48.9412" y="36.5715" width="5.64706" height="3.04762" fill="#0BA245"/>
<rect x="39.5293" y="42.6667" width="5.64706" height="3.04762" fill="#0BA245"/>
<rect x="45.1765" y="39.6191" width="16.9412" height="3.04762" fill="#0BA245"/>
<rect x="37.647" y="45.7144" width="16.9412" height="3.04762" fill="#0BA245"/>
<rect x="28.2354" y="57.9048" width="16.9412" height="3.04762" fill="#0BA245"/>
<rect x="22.5881" y="54.8572" width="11.2941" height="3.04762" fill="#0BA245"/>
<rect x="62.1177" y="57.9048" width="11.2941" height="3.04762" fill="#0BA245"/>
<rect x="50.8235" y="57.9048" width="5.64706" height="3.04762" fill="#0BA245"/>
<rect x="16.9412" y="64" width="5.64706" height="3.04762" fill="#0BA245"/>
<rect x="79.0588" y="67.0476" width="5.64706" height="3.04762" fill="#0BA245"/>
<rect x="45.1765" y="70.0952" width="5.64706" height="3.04762" fill="#0BA245"/>
<rect x="67.7646" y="67.0476" width="5.64706" height="3.04762" fill="#0BA245"/>
<rect x="88.4707" y="67.0476" width="16.9412" height="3.04762" fill="#0BA245"/>
<rect x="99.7646" y="70.0952" width="5.64706" height="3.04762" fill="#0BA245"/>
<rect x="84.7058" y="70.0952" width="9.41177" height="3.04762" fill="#0BA245"/>
<rect x="67.7646" y="70.0952" width="9.41177" height="3.04762" fill="#0BA245"/>
<rect x="56.4707" y="67.0476" width="5.64706" height="6.09524" fill="#0BA245"/>
<rect x="16.9412" y="67.0476" width="16.9412" height="3.04762" fill="#0BA245"/>
<rect x="28.2354" y="70.0952" width="11.2941" height="3.04762" fill="#0BA245"/>
<rect x="5.64697" y="82.2856" width="11.2941" height="3.04762" fill="#0BA245"/>
<rect x="28.2354" y="85.3333" width="5.64706" height="3.04762" fill="#0BA245"/>
<rect x="50.8235" y="88.3809" width="5.64706" height="3.04762" fill="#0BA245"/>
<rect x="56.4707" y="91.4285" width="5.64706" height="3.04762" fill="#0BA245"/>
<rect x="5.64697" y="88.3809" width="5.64706" height="3.04762" fill="#0BA245"/>
<rect x="116.706" y="88.3809" width="5.64706" height="3.04762" fill="#0BA245"/>
<rect x="111.059" y="79.238" width="5.64706" height="3.04762" fill="#0BA245"/>
<rect x="88.4707" y="85.3333" width="5.64706" height="3.04762" fill="#0BA245"/>
<rect x="73.4119" y="94.4761" width="5.64706" height="3.04762" fill="#0BA245"/>
<rect x="16.9412" y="88.3809" width="22.5882" height="3.04762" fill="#0BA245"/>
<rect x="33.8823" y="91.4285" width="15.0588" height="3.04762" fill="#0BA245"/>
<rect x="62.1177" y="88.3809" width="11.2941" height="3.04762" fill="#0BA245"/>
<rect x="105.412" y="82.2856" width="11.2941" height="3.04762" fill="#0BA245"/>
<rect x="67.7646" y="91.4285" width="32" height="3.04762" fill="#0BA245"/>
<rect x="84.7058" y="88.3809" width="20.7059" height="3.04762" fill="#0BA245"/>
<rect x="99.7646" y="85.3333" width="16.9412" height="3.04762" fill="#0BA245"/>
<rect x="11.2942" y="85.3333" width="11.2941" height="3.04762" fill="#0BA245"/>
<rect x="39.5293" y="67.0476" width="11.2941" height="3.04762" fill="#0BA245"/>
<rect x="105.412" y="64" width="11.2941" height="3.04762" fill="#0BA245"/>
<rect x="62.1177" y="64" width="5.64706" height="3.04762" fill="#0BA245"/>
<rect x="33.8823" y="60.9524" width="5.64706" height="3.04762" fill="#0BA245"/>
<rect x="77.1765" y="57.9048" width="5.64706" height="3.04762" fill="#0BA245"/>
<rect x="99.7646" y="51.8096" width="5.64706" height="3.04762" fill="#0BA245"/>
<rect x="88.4707" y="57.9048" width="11.2941" height="3.04762" fill="#0BA245"/>
<rect x="45.1765" y="60.9524" width="48.9412" height="3.04762" fill="#0BA245"/>
<rect x="94.1177" y="54.8572" width="11.2941" height="3.04762" fill="#0BA245"/>
<rect x="33.8823" y="39.6191" width="5.64706" height="3.04762" fill="#005F31"/>
<rect x="62.1177" y="42.6667" width="5.64706" height="3.04762" fill="#005F31"/>
<rect x="88.4707" y="39.6191" width="5.64706" height="3.04762" fill="#005F31"/>
<rect x="99.7646" y="60.9524" width="5.64706" height="3.04762" fill="#005F31"/>
<rect x="94.1177" y="64" width="5.64706" height="3.04762" fill="#005F31"/>
<rect x="50.8235" y="64" width="5.64706" height="3.04762" fill="#005F31"/>
<rect x="33.8823" y="64" width="5.64706" height="3.04762" fill="#005F31"/>
<rect x="16.9412" y="60.9524" width="5.64706" height="3.04762" fill="#005F31"/>
<rect x="11.2942" y="57.9048" width="5.64706" height="3.04762" fill="#005F31"/>
<rect x="11.2942" y="91.4285" width="5.64706" height="3.04762" fill="#005F31"/>
<rect x="33.8823" y="97.5239" width="16.9412" height="3.04762" fill="#005F31"/>
<rect x="60.2354" y="97.5239" width="28.2353" height="3.04762" fill="#005F31"/>
<rect x="94.1177" y="97.5239" width="11.2941" height="3.04762" fill="#005F31"/>
<rect x="105.412" y="94.4761" width="5.64706" height="3.04762" fill="#005F31"/>
<rect x="111.059" y="91.4285" width="5.64706" height="3.04762" fill="#005F31"/>
<rect x="22.5881" y="94.4761" width="11.2941" height="3.04762" fill="#005F31"/>
<rect x="82.8235" y="64" width="5.64706" height="3.04762" fill="#005F31"/>
<rect x="48.9412" y="100.572" width="11.2941" height="3.04762" fill="#602408"/>
<rect x="60.2354" y="103.619" width="5.64706" height="3.04762" fill="#602408"/>
<rect x="71.5293" y="103.619" width="5.64706" height="3.04762" fill="#602408"/>
<rect x="77.1765" y="121.905" width="5.64706" height="3.04762" fill="#602408"/>
<rect x="54.5881" y="109.714" width="5.64706" height="3.04762" fill="#602408"/>
<rect x="54.5881" y="121.905" width="5.64706" height="3.04762" fill="#602408"/>
<rect x="65.8823" y="115.81" width="5.64706" height="3.04762" fill="#602408"/>
<path d="M60.2352 106.667H65.8822V118.857H71.5293V121.905H60.2352H54.5881V118.857H60.2352V106.667Z" fill="#BA6928"/>
</svg>
