<svg width="128" height="128" viewBox="0 0 128 128" fill="none" xmlns="http://www.w3.org/2000/svg">
<path d="M55.357 0L72.6456 0.0645789V5.25115H78.6966V11.3021H90.7986V17.3531H96.8496V22.5397H102.036V34.6417H108.087V45.8793H115.003V69.2189L108.952 69.6511V73.541H102.036V79.592H90.7986V85.643L72.6456 85.5784V109.782H78.6966V117.627H90.7986V122.749H102.901V127.935H73.51H55.357L49.306 128H37.204H25.102V122.813H37.204V117.627H49.306V109.847H55.357V85.643H36.3396V79.592H25.102V74.4054H19.051V68.3544H13V45.8147H19.051V34.5771H25.102V22.4751H31.153V17.2886H37.204V11.2376H49.306V5.18657H55.357V0Z" fill="#C7DEA6"/>
<rect x="55.3569" width="17.2886" height="5.18657" fill="black"/>
<rect x="72.6455" y="5.18652" width="6.051" height="6.051" fill="black"/>
<rect x="96.8496" y="74.3408" width="6.051" height="6.051" fill="black"/>
<rect x="66.5945" y="73.4763" width="6.051" height="6.051" fill="black"/>
<rect x="55.3569" y="73.4763" width="6.051" height="6.051" fill="black"/>
<rect x="102.901" y="67.4255" width="6.051" height="6.051" fill="black"/>
<rect x="108.952" y="45.8147" width="6.051" height="24.204" fill="black"/>
<rect x="96.8496" y="22.4751" width="6.051" height="12.102" fill="black"/>
<rect x="102.901" y="34.5771" width="6.051" height="12.102" fill="black"/>
<rect x="49.3059" y="5.18652" width="6.051" height="6.051" fill="black"/>
<rect x="19.051" y="68.2898" width="6.051" height="6.051" fill="black"/>
<rect x="25.1021" y="74.3408" width="24.204" height="5.18657" fill="black"/>
<rect x="49.3059" y="68.2898" width="23.3396" height="6.051" fill="black"/>
<rect x="72.6455" y="79.5273" width="18.153" height="6.051" fill="black"/>
<rect x="78.6965" y="74.3408" width="12.102" height="6.051" fill="black"/>
<rect x="36.3396" y="79.5273" width="19.0174" height="6.051" fill="black"/>
<rect x="37.2041" y="117.562" width="18.153" height="5.18657" fill="black"/>
<rect x="72.6455" y="117.562" width="18.153" height="5.18657" fill="black"/>
<rect x="49.3059" y="109.782" width="6.051" height="7.77986" fill="black"/>
<rect x="72.6455" y="109.782" width="6.051" height="7.77986" fill="black"/>
<rect x="55.3569" y="85.5784" width="6.051" height="24.204" fill="black"/>
<rect x="66.5945" y="85.5784" width="6.051" height="24.204" fill="black"/>
<rect x="25.1021" y="122.749" width="77.7986" height="5.18657" fill="black"/>
<rect x="25.1021" y="22.4751" width="6.051" height="12.102" fill="black"/>
<rect x="19.051" y="34.5771" width="6.051" height="11.2376" fill="black"/>
<rect x="13" y="45.8147" width="6.051" height="22.4751" fill="black"/>
<rect x="37.2041" y="11.2375" width="12.102" height="6.051" fill="black"/>
<rect x="31.1531" y="17.2886" width="11.2376" height="6.051" fill="black"/>
<rect x="85.6121" y="17.2886" width="11.2376" height="6.051" fill="black"/>
<rect x="78.6965" y="11.2375" width="12.102" height="6.051" fill="black"/>
<path d="M19.051 57.0522H25.102V63.1032H31.153V68.2898H42.3906V63.1032H48.4416V57.0522H54.4926V63.1032H72.6456V68.2898H49.306V74.3408H31.153H25.102V68.2898H19.051V57.0522Z" fill="#036F72"/>
<rect x="36.3396" y="57.0522" width="6.051" height="6.051" fill="#4E949B"/>
<rect x="25.1021" y="51.8657" width="5.18657" height="5.18657" fill="#4E949B"/>
<rect x="32.0173" y="40.6282" width="5.18657" height="5.18657" fill="#4E949B"/>
<rect x="37.2041" y="45.8147" width="5.18657" height="5.18657" fill="#4E949B"/>
<rect x="60.5435" y="51.0012" width="6.051" height="6.051" fill="#17595C"/>
<rect x="54.4927" y="34.5771" width="6.051" height="6.051" fill="#51949A"/>
<rect x="66.5945" y="34.5771" width="6.051" height="6.051" fill="#51949A"/>
<rect x="72.6455" y="57.0522" width="6.051" height="6.051" fill="#25172A"/>
<rect x="96.8496" y="51.8657" width="6.051" height="6.051" fill="#51949A"/>
<path d="M72.6455 63.1032H84.7475V57.0522H90.7985V63.1032H102.901V57.0522H108.952V67.4254H102.901V74.3408H96.8495V79.5274H90.7985V74.3408H72.6455V63.1032Z" fill="#036F72"/>
<rect x="85.6121" y="45.8147" width="6.051" height="6.051" fill="#51949A"/>
<rect x="85.6121" y="34.5771" width="6.051" height="6.051" fill="#51949A"/>
<rect x="72.6455" y="28.5261" width="6.051" height="6.051" fill="#FEFBE9"/>
<rect x="61.408" y="22.4751" width="6.051" height="6.051" fill="#FEFBE9"/>
<rect x="79.561" y="17.2886" width="6.051" height="6.051" fill="#FFE8CC"/>
<rect x="72.6455" y="11.2375" width="6.051" height="6.051" fill="#FFE8CC"/>
<rect x="49.3059" y="11.2375" width="6.051" height="6.051" fill="#FFE8CC"/>
<rect x="42.3906" y="17.2886" width="6.051" height="6.051" fill="#FFE8CC"/>
<rect x="31.1531" y="23.3396" width="6.051" height="6.051" fill="#FFE8CC"/>
<rect x="25.1021" y="34.5771" width="6.051" height="6.051" fill="#FFE8CC"/>
<rect x="90.7986" y="23.3396" width="6.051" height="6.051" fill="#FFE8CC"/>
<rect x="55.3569" y="5.18652" width="17.2886" height="6.051" fill="#FFE8CC"/>
<rect x="72.6455" y="39.7637" width="6.051" height="6.051" fill="#51949A"/>
<rect x="54.4927" y="51.0012" width="6.051" height="6.051" fill="#9BCDB2"/>
<rect x="66.5945" y="57.0522" width="6.051" height="6.051" fill="#036F72"/>
<rect x="49.3059" y="74.3408" width="6.051" height="5.18657" fill="#C24E29"/>
<rect x="72.6455" y="74.3408" width="6.051" height="5.18657" fill="#C24E29"/>
<path d="M61.4079 74.3408H66.5945V79.5274H72.6455V85.5784H66.5945V109.782H72.6455V122.749H55.3569V109.782H61.4079V85.5784H55.3569V79.5274H61.4079V74.3408Z" fill="#C24E29"/>
</svg>
