<svg width="109" height="128" viewBox="0 0 109 128" fill="none" xmlns="http://www.w3.org/2000/svg">
<path d="M42.505 7.57183V5.76901H44.2909V7.57183H46.0769V9.37465H48.22V7.57183H50.0059V5.76901H51.7918V1.80282H53.9349V0H57.864V1.80282H59.6499V3.60563H61.4358V5.40845H63.2217V3.60563H65.3649V5.40845H63.2217V7.57183H65.0077V9.73521H68.9367V11.8986H71.0798V13.7014H72.8657V11.8986H75.0089V13.7014H76.7948V15.5042H74.6517V17.307H82.1526V20.9127H80.3666V23.0761H78.5807V25.2394H86.0816V27.0423H84.2957V31.0085H86.0816V29.2056H89.6534V31.0085H91.4394V34.6141H89.6534V40.3831H87.8675V42.1859H89.6534V43.9887H91.4394V42.1859H95.0112V40.3831H96.44V42.1859H98.2259V43.9887H96.44V45.7916H93.2253V47.7747H102.155V51.5606H100.369V53.3634H102.155V55.5268H105.727V59.493H103.941V61.2958H102.155V63.4592H105.727V65.262H102.155V67.0648H103.941V68.8676H105.727V70.6704H103.941V72.4732H105.727V74.2761H102.155V76.0789H98.5831V77.8817H93.2253V79.6845H95.0112V81.4873H96.7971V85.093H95.0112V86.8958H93.2253V90.5014H87.8675V88.6986H86.0816V86.8958H82.1526V88.6986H78.5807V86.8958H76.4376V88.6986H74.6517V92.6648H72.8657V90.5014H71.0798V88.6986H69.2939V92.6648H65.3649V94.1071H63.2217V95.9099H61.4358V99.5155H60.0071V112.856H61.4358V114.659H63.2217V116.823H67.1508V118.625H69.2939V120.428H74.6517V124.034H73.2229V122.231H71.0798V124.034H67.1508V122.231H63.2217V124.034H61.4358V125.837H57.864V122.231H55.7209V125.837H53.9349V122.231H51.7918V124.394H48.22V128H44.2909V126.197H38.576V124.394H36.7901V122.592H38.9332V120.428H42.505V118.625H44.2909V116.462H48.22V112.856H50.0059V99.1549H48.22V97.3521H46.0769V95.9099H44.2909V94.1071H42.505V92.3042H35.0041V90.5014H33.2182V92.3042H31.4323V95.5493H29.6464V93.7465H27.5032V95.5493H25.7173V97.3521H23.5742V95.5493H17.8592V93.7465H20.0024V90.5014H18.2164V88.6986H16.4305V86.8958H14.2874V88.6986H11.0727V86.8958H5.71496V83.2901H3.57185V81.4873H1.78593V79.6845H0V77.8817H1.78593V76.0789H3.57185V72.4732H5.35778V70.6704H3.57185V68.8676H1.78593V67.0648H0V65.262H7.50089V63.0986H10.7156V59.493H5.71496V57.3296H3.57185V55.1662H1.78593V53.3634H7.50089V51.2H10.7156V49.3972H12.5015V47.5944H10.7156V45.7916H16.4305V43.9887H18.2164V45.7916H19.6452V42.1859H21.7883V40.0225H23.5742V38.5803H25.7173V36.4169H23.5742V34.6141H21.7883V31.0085H27.5032V28.8451H29.6464V27.0423H26.0745V25.2394H29.6464V27.0423H31.4323V28.8451H33.2182V27.0423V24.8789H35.0041V22.7155H31.4323V17.307H33.2182V15.1437H36.7901V13.3408H38.9332V9.37465H40.7191V7.57183H42.505Z" fill="#FE6E32"/>
<path d="M55.7207 0H57.8638V3.60563H55.7207V5.76901H53.9348V1.80282H55.7207V0Z" fill="#FAF8FD"/>
<rect x="53.9348" width="1.78593" height="1.80282" fill="#D10C3A"/>
<rect x="59.6499" y="3.60571" width="1.78593" height="3.9662" fill="#D10C3A"/>
<rect x="61.4358" y="5.40845" width="1.78593" height="6.12958" fill="#D10C3A"/>
<rect x="67.1509" y="15.5042" width="1.78593" height="7.57183" fill="#D10C3A"/>
<rect x="68.9365" y="17.3071" width="2.14311" height="7.93239" fill="#D10C3A"/>
<rect x="74.6516" y="19.1099" width="2.14311" height="5.76901" fill="#D10C3A"/>
<rect x="76.7949" y="19.1099" width="3.57185" height="2.16338" fill="#D10C3A"/>
<rect x="71.0798" y="19.1099" width="3.57185" height="9.73521" fill="#D10C3A"/>
<path d="M80.3668 27.0422H82.1527V31.0084H84.2958V36.7774H86.0817V38.5803H78.5808V36.7774H76.7949V34.6141H80.3668V32.8113H78.5808V31.0084H80.3668V27.0422Z" fill="#D10C3A"/>
<rect x="71.0798" y="13.7014" width="1.78593" height="1.80282" fill="#D10C3A"/>
<rect x="50.0059" y="5.76904" width="1.78593" height="1.80282" fill="#D10C3A"/>
<rect x="48.22" y="7.57178" width="1.78593" height="1.80282" fill="#D10C3A"/>
<rect x="44.291" y="7.57178" width="1.78593" height="1.80282" fill="#D10C3A"/>
<rect x="42.5049" y="5.76904" width="1.78593" height="1.80282" fill="#D10C3A"/>
<rect x="42.5049" y="9.37476" width="1.78593" height="1.80282" fill="#D10C3A"/>
<rect x="38.9333" y="15.1436" width="1.78593" height="2.16338" fill="#D10C3A"/>
<rect x="33.2183" y="19.1099" width="1.78593" height="1.80282" fill="#D10C3A"/>
<rect x="36.79" y="13.3408" width="2.14311" height="1.80282" fill="#D10C3A"/>
<rect x="33.2183" y="15.1436" width="1.78593" height="2.16338" fill="#D10C3A"/>
<rect x="36.79" y="23.0762" width="2.14311" height="5.76901" fill="#D10C3A"/>
<rect x="38.9333" y="9.37476" width="1.78593" height="3.9662" fill="#D10C3A"/>
<rect x="63.2219" y="17.3071" width="2.14311" height="5.76901" fill="#D10C3A"/>
<path d="M61.4358 19.1099H63.2218V23.0761H61.4358H59.6499V20.9127L61.4358 19.1099Z" fill="#D10C3A"/>
<rect x="65.365" y="17.3071" width="1.78593" height="1.80282" fill="#D10C3A"/>
<rect x="51.792" y="1.80273" width="2.14311" height="3.9662" fill="#D10C3A"/>
<rect x="51.792" y="5.76904" width="2.14311" height="1.80282" fill="#FAF8FD"/>
<rect x="72.8657" y="13.7014" width="2.14311" height="1.80282" fill="#FAF8FD"/>
<rect x="53.9348" y="7.57178" width="1.78593" height="1.80282" fill="#FAF8FD"/>
<rect x="53.9348" y="7.57178" width="1.78593" height="1.80282" fill="#FAF8FD"/>
<rect x="38.9333" y="19.1099" width="1.78593" height="1.80282" fill="#FAF8FD"/>
<rect x="35.0042" y="19.1099" width="1.78593" height="1.80282" fill="#FAF8FD"/>
<rect x="35.0042" y="24.8789" width="1.78593" height="2.16338" fill="#FAF8FD"/>
<rect x="33.2183" y="27.0422" width="1.78593" height="1.80282" fill="#FAF8FD"/>
<rect x="33.2183" y="38.5803" width="1.78593" height="1.80282" fill="#FAF8FD"/>
<rect x="29.6462" y="38.5803" width="1.78593" height="1.80282" fill="#FAF8FD"/>
<rect x="16.4304" y="45.7915" width="1.78593" height="1.80282" fill="#FAF8FD"/>
<rect x="12.5015" y="49.3972" width="1.78593" height="1.80282" fill="#FAF8FD"/>
<rect x="5.71509" y="53.3633" width="1.78593" height="1.80282" fill="#FAF8FD"/>
<rect x="8.92969" y="53.3633" width="1.78593" height="1.80282" fill="#FAF8FD"/>
<rect x="10.7156" y="51.2" width="1.78593" height="2.16338" fill="#FAF8FD"/>
<rect x="31.4321" y="40.3831" width="1.78593" height="1.80282" fill="#FAF8FD"/>
<rect x="36.79" y="32.8113" width="2.14311" height="2.16338" fill="#FAF8FD"/>
<rect x="29.6462" y="32.8113" width="5.35777" height="2.16338" fill="#FAF8FD"/>
<rect x="33.2183" y="36.417" width="5.71496" height="2.16338" fill="#FAF8FD"/>
<rect x="38.5762" y="34.614" width="2.14311" height="2.16338" fill="#FAF8FD"/>
<rect x="40.719" y="49.3972" width="2.14311" height="2.16338" fill="#FAF8FD"/>
<rect x="16.0732" y="53.3633" width="2.14311" height="2.16338" fill="#FAF8FD"/>
<rect x="40.719" y="40.0225" width="2.14311" height="3.9662" fill="#FAF8FD"/>
<rect x="35.0042" y="43.6282" width="3.92904" height="2.16338" fill="#FAF8FD"/>
<rect x="35.0042" y="30.6479" width="1.78593" height="4.32676" fill="#FAF8FD"/>
<rect x="31.4321" y="34.2534" width="1.78593" height="4.32676" fill="#FAF8FD"/>
<rect x="29.6462" y="28.845" width="3.57185" height="1.80282" fill="#FAF8FD"/>
<rect x="27.5032" y="30.6479" width="3.92904" height="2.16338" fill="#FAF8FD"/>
<rect x="25.7173" y="40.3831" width="3.92904" height="2.16338" fill="#FAF8FD"/>
<rect x="16.0732" y="49.3972" width="3.92904" height="1.80282" fill="#FAF8FD"/>
<rect x="50.0059" y="24.8789" width="2.14311" height="1.80282" fill="#FAF8FD"/>
<rect x="55.7207" y="23.0762" width="1.78593" height="1.80282" fill="#FAF8FD"/>
<rect x="42.5049" y="27.0422" width="1.78593" height="1.80282" fill="#FAF8FD"/>
<rect x="46.0769" y="26.6816" width="3.92904" height="2.16338" fill="#FAF8FD"/>
<rect x="36.79" y="20.9126" width="2.14311" height="2.16338" fill="#FAF8FD"/>
<rect x="40.719" y="24.8789" width="7.50089" height="2.16338" fill="#FAF8FD"/>
<rect x="44.291" y="23.0762" width="3.92904" height="1.80282" fill="#FAF8FD"/>
<rect x="46.4341" y="20.9126" width="3.57185" height="2.16338" fill="#FAF8FD"/>
<rect x="51.792" y="20.9126" width="3.92904" height="2.16338" fill="#FAF8FD"/>
<rect x="80.3667" y="51.2" width="3.92904" height="2.16338" fill="#FAF8FD"/>
<rect x="82.1526" y="53.3633" width="3.92904" height="2.16338" fill="#FAF8FD"/>
<rect x="82.1526" y="55.5269" width="2.14311" height="1.80282" fill="#FAF8FD"/>
<rect x="78.2236" y="47.5945" width="2.14311" height="2.16338" fill="#FAF8FD"/>
<rect x="78.2236" y="53.3633" width="2.14311" height="2.16338" fill="#FAF8FD"/>
<rect x="76.7949" y="51.2" width="1.42874" height="2.16338" fill="#FAF8FD"/>
<rect x="74.6516" y="53.3633" width="2.14311" height="2.16338" fill="#FAF8FD"/>
<rect x="57.864" y="65.262" width="1.78593" height="1.80282" fill="#FAF8FD"/>
<rect x="61.4358" y="85.093" width="1.78593" height="1.80282" fill="#FAF8FD"/>
<rect x="65.365" y="88.6985" width="1.78593" height="1.80282" fill="#FAF8FD"/>
<rect x="46.4341" y="86.8958" width="1.78593" height="6.8507" fill="#FAF8FD"/>
<rect x="44.291" y="88.6985" width="2.14311" height="1.80282" fill="#FAF8FD"/>
<rect x="44.291" y="90.5015" width="2.14311" height="1.80282" fill="#FAF8FD"/>
<rect x="48.22" y="88.6985" width="1.78593" height="7.21127" fill="#FAF8FD"/>
<rect x="55.7207" y="67.0647" width="1.78593" height="1.80282" fill="#FAF8FD"/>
<rect x="52.1492" y="68.8677" width="1.78593" height="1.80282" fill="#FAF8FD"/>
<rect x="27.8606" y="68.8677" width="1.78593" height="1.80282" fill="#FAF8FD"/>
<rect x="26.0745" y="67.0647" width="1.78593" height="1.80282" fill="#FAF8FD"/>
<rect x="27.8606" y="72.4731" width="1.78593" height="1.80282" fill="#FAF8FD"/>
<rect x="21.7883" y="70.6704" width="1.78593" height="3.60563" fill="#FAF8FD"/>
<rect x="23.5742" y="68.8677" width="1.07156" height="3.60563" fill="#FAF8FD"/>
<rect x="11.0728" y="74.2761" width="10.7155" height="1.80282" fill="#FAF8FD"/>
<rect x="20.0024" y="68.8677" width="1.78593" height="1.80282" fill="#FAF8FD"/>
<rect x="16.4304" y="72.4731" width="1.78593" height="1.80282" fill="#FAF8FD"/>
<rect x="18.2163" y="70.6704" width="1.78593" height="3.60563" fill="#FAF8FD"/>
<rect x="53.9348" y="65.262" width="1.78593" height="3.60563" fill="#FAF8FD"/>
<rect x="57.864" y="59.4929" width="1.78593" height="3.60563" fill="#FAF8FD"/>
<rect x="86.0815" y="51.2" width="1.78593" height="2.16338" fill="#FAF8FD"/>
<rect x="42.5049" y="13.3408" width="1.78593" height="3.60563" fill="#FAF8FD"/>
<rect x="40.719" y="15.1436" width="1.78593" height="7.93239" fill="#FAF8FD"/>
<rect x="44.291" y="16.9465" width="2.14311" height="3.9662" fill="#FAF8FD"/>
<rect x="42.5049" y="18.7493" width="1.78593" height="4.32676" fill="#FAF8FD"/>
<rect x="38.9333" y="23.0762" width="1.78593" height="3.9662" fill="#FAF8FD"/>
<path d="M50.0059 7.57178H51.7918V9.37459H53.9349V11.538H51.7918H50.0059V7.57178Z" fill="#FAF8FD"/>
<rect x="46.4341" y="11.5381" width="1.78593" height="1.80282" fill="#D10C3A"/>
<rect x="40.719" y="63.0986" width="1.78593" height="2.16338" fill="#65042B"/>
<rect x="36.79" y="63.0986" width="1.78593" height="2.16338" fill="#65042B"/>
<rect x="35.0042" y="61.2959" width="1.78593" height="1.80282" fill="#65042B"/>
<rect x="106.727" y="63.0986" width="1.80282" height="1.80282" fill="#43001B"/>
<rect x="51.7659" y="7.57178" width="2.14203" height="1.80282" fill="#FE6E32"/>
<rect x="42.4836" y="16.9465" width="1.78503" height="1.80282" fill="#FE6E32"/>
<rect x="31.4165" y="19.1099" width="1.78503" height="1.80282" fill="#FE6E32"/>
<rect x="38.9136" y="20.9126" width="1.78503" height="2.16338" fill="#FE6E32"/>
<rect x="40.6985" y="27.0422" width="1.78503" height="1.80282" fill="#FE6E32"/>
<rect x="31.4165" y="30.6479" width="1.78503" height="2.16338" fill="#FE6E32"/>
<rect x="36.7715" y="30.6479" width="2.14203" height="2.16338" fill="#FE6E32"/>
<rect x="33.2014" y="30.6479" width="1.78503" height="2.16338" fill="#FE6E32"/>
<rect x="33.2014" y="28.845" width="5.71208" height="1.80282" fill="#FE6E32"/>
<rect x="40.6985" y="23.0762" width="3.57005" height="1.80282" fill="#FE6E32"/>
<rect x="31.4165" y="17.3071" width="3.57005" height="1.80282" fill="#FE6E32"/>
<rect x="31.4165" y="20.9126" width="3.57005" height="1.80282" fill="#FE6E32"/>
<rect x="44.2686" y="20.9126" width="2.14203" height="2.16338" fill="#FE6E32"/>
<path d="M34.9866 15.1436H38.9136V17.3069H40.6987V19.1098H38.9136V20.9126H36.7716V19.1098H34.9866V15.1436Z" fill="#FE6E32"/>
<rect x="55.6929" y="7.57178" width="2.14203" height="1.80282" fill="#FE6E32"/>
<rect x="76.7561" y="17.3071" width="1.78503" height="1.80282" fill="#FE6E32"/>
<rect x="65.332" y="19.1099" width="1.78503" height="2.16338" fill="#FE6E32"/>
<rect x="67.1169" y="23.0762" width="1.78503" height="3.9662" fill="#FE6E32"/>
<rect x="63.1899" y="28.845" width="2.14203" height="5.76901" fill="#FE6E32"/>
<rect x="61.4048" y="32.8113" width="1.78503" height="5.76901" fill="#FE6E32"/>
<rect x="65.332" y="31.0085" width="1.78503" height="3.60563" fill="#FE6E32"/>
<rect x="67.1169" y="31.0085" width="1.78503" height="5.76901" fill="#FE6E32"/>
<rect x="68.9021" y="28.845" width="1.78503" height="7.93239" fill="#FE6E32"/>
<rect x="70.687" y="28.845" width="2.14203" height="3.9662" fill="#FE6E32"/>
<rect x="72.8291" y="31.0085" width="1.78503" height="5.76901" fill="#FE6E32"/>
<rect x="74.614" y="32.8113" width="2.14203" height="7.57183" fill="#FE6E32"/>
<rect x="80.3262" y="43.9888" width="3.92706" height="7.21127" fill="#FE6E32"/>
<rect x="84.2532" y="43.9888" width="1.78503" height="3.60563" fill="#FE6E32"/>
<rect x="84.2532" y="49.3972" width="1.78503" height="1.80282" fill="#FE6E32"/>
<rect x="72.8291" y="49.3972" width="7.49711" height="1.80282" fill="#FE6E32"/>
<rect x="76.3992" y="47.5945" width="1.78503" height="1.80282" fill="#FE6E32"/>
<rect x="72.8291" y="51.2" width="3.92706" height="2.16338" fill="#FE6E32"/>
<rect x="68.9021" y="51.5605" width="3.92706" height="1.80282" fill="#FE6E32"/>
<rect x="65.332" y="53.3633" width="9.28214" height="2.16338" fill="#FE6E32"/>
<rect x="68.9021" y="55.5269" width="13.2092" height="1.80282" fill="#FE6E32"/>
<rect x="76.7561" y="53.3633" width="1.42802" height="2.16338" fill="#FE6E32"/>
<rect x="80.3262" y="53.3633" width="1.78503" height="2.16338" fill="#FE6E32"/>
<rect x="71.0439" y="57.3296" width="1.78503" height="2.16338" fill="#FE6E32"/>
<rect x="74.9712" y="57.3296" width="14.6372" height="2.16338" fill="#FE6E32"/>
<rect x="76.7561" y="59.4929" width="3.57005" height="3.60563" fill="#FE6E32"/>
<rect x="84.2532" y="59.4929" width="1.78503" height="3.60563" fill="#FE6E32"/>
<rect x="82.4683" y="63.0986" width="1.78503" height="3.9662" fill="#FE6E32"/>
<rect x="86.0383" y="59.4929" width="1.78503" height="1.80282" fill="#FE6E32"/>
<rect x="87.8232" y="63.0986" width="1.78503" height="1.80282" fill="#FE6E32"/>
<rect x="80.3262" y="63.0986" width="2.14203" height="2.16338" fill="#FE6E32"/>
<rect x="84.2532" y="55.5269" width="7.1401" height="1.80282" fill="#FE6E32"/>
<rect x="87.8232" y="47.5945" width="1.78503" height="5.76901" fill="#FE6E32"/>
<rect x="89.6084" y="51.2" width="1.78503" height="2.16338" fill="#FE6E32"/>
<rect x="86.0383" y="53.3633" width="1.78503" height="2.16338" fill="#FE6E32"/>
<rect x="76.7561" y="28.845" width="1.78503" height="5.76901" fill="#FE6E32"/>
<rect x="78.5413" y="32.8113" width="1.78503" height="1.80282" fill="#FE6E32"/>
<rect x="76.7561" y="36.7773" width="1.78503" height="1.80282" fill="#FE6E32"/>
<rect x="70.687" y="34.614" width="2.14203" height="2.16338" fill="#FE6E32"/>
<rect x="59.6199" y="32.8113" width="1.78503" height="1.80282" fill="#FE6E32"/>
<rect x="57.835" y="36.7773" width="1.78503" height="1.80282" fill="#FE6E32"/>
<rect x="56.0498" y="34.614" width="3.57005" height="2.16338" fill="#FE6E32"/>
<rect x="63.1899" y="34.614" width="2.14203" height="3.9662" fill="#FE6E32"/>
<rect x="65.332" y="24.8789" width="1.78503" height="3.9662" fill="#FE6E32"/>
<rect x="63.1899" y="24.8789" width="2.14203" height="2.16338" fill="#FE6E32"/>
<rect x="68.9021" y="24.8789" width="2.14203" height="2.16338" fill="#FE6E32"/>
<path d="M53.9077 5.76909H55.6927V3.60571H59.6198V5.76909V7.57191H53.9077V5.76909Z" fill="#FE6E32"/>
<rect x="61.4048" y="11.5381" width="5.71208" height="5.76901" fill="#FF5C36"/>
<rect x="65.332" y="38.5803" width="3.57005" height="3.60563" fill="#FF5C36"/>
<rect x="72.8291" y="38.5803" width="1.78503" height="3.60563" fill="#FF5C36"/>
<rect x="53.9077" y="45.7915" width="1.78503" height="5.76901" fill="#FF5C36"/>
<rect x="51.7659" y="47.5945" width="2.14203" height="3.9662" fill="#FF5C36"/>
<rect x="50.3376" y="49.3972" width="1.42802" height="4.32676" fill="#FF5C36"/>
<rect x="44.2686" y="51.2" width="6.06909" height="2.52394" fill="#FF5C36"/>
<rect x="49.6238" y="42.186" width="2.14203" height="5.40845" fill="#FF5C36"/>
<rect x="27.4895" y="47.5945" width="2.14203" height="1.80282" fill="#FF5C36"/>
<rect x="25.7043" y="42.5464" width="1.78503" height="6.8507" fill="#FF5C36"/>
<rect x="23.5623" y="40.3831" width="2.14203" height="9.01408" fill="#FF5C36"/>
<rect x="44.2686" y="49.3972" width="3.92706" height="1.80282" fill="#FF5C36"/>
<rect x="31.4165" y="55.5269" width="3.57005" height="1.80282" fill="#FF5C36"/>
<path d="M25.7043 53.3633H29.6314V55.5267H27.6679V57.5098H25.7043V55.5267V53.3633Z" fill="#FF5C36"/>
<rect x="55.6929" y="43.9888" width="1.78503" height="5.76901" fill="#FF5C36"/>
<rect x="59.2629" y="47.5945" width="3.92706" height="1.80282" fill="#FF5C36"/>
<rect x="57.4778" y="43.9888" width="1.78503" height="7.57183" fill="#FF5C36"/>
<rect x="89.6084" y="45.7915" width="1.78503" height="1.80282" fill="#FF5C36"/>
<rect x="91.3933" y="53.3633" width="1.78503" height="9.73521" fill="#FF5C36"/>
<rect x="91.3933" y="51.2" width="3.57005" height="2.16338" fill="#FF5C36"/>
<rect x="89.6084" y="57.3296" width="1.78503" height="2.16338" fill="#FF5C36"/>
<rect x="93.1785" y="55.1663" width="1.78503" height="4.32676" fill="#FF5C36"/>
<rect x="84.2532" y="51.2" width="1.78503" height="2.16338" fill="#FF5C36"/>
<rect x="78.1841" y="51.2" width="2.14203" height="2.16338" fill="#FF5C36"/>
<rect x="93.1785" y="59.4929" width="5.35508" height="1.80282" fill="#FF5C36"/>
<rect x="94.9634" y="57.3296" width="7.1401" height="2.16338" fill="#FF5C36"/>
<rect x="59.6199" y="11.5381" width="1.78503" height="4.68732" fill="#FF5C36"/>
<rect x="59.6199" y="23.0762" width="5.71208" height="1.80282" fill="#AF0243"/>
<path d="M61.4048 24.8789H63.1898V27.0423H65.3318V28.8451H63.1898V31.0085H61.4048V24.8789Z" fill="#AF0243"/>
<rect x="57.835" y="1.80273" width="1.78503" height="1.80282" fill="#DC0048"/>
<rect x="57.835" y="1.80273" width="1.78503" height="1.80282" fill="#DC0048"/>
<rect x="63.1899" y="9.73511" width="1.78503" height="1.80282" fill="#DC0048"/>
<rect x="67.1169" y="13.7014" width="1.78503" height="1.80282" fill="#DC0048"/>
<rect x="65.332" y="21.2732" width="1.78503" height="3.60563" fill="#DC0048"/>
<rect x="87.8232" y="31.0085" width="1.78503" height="3.60563" fill="#DC0048"/>
<rect x="84.2532" y="32.8113" width="1.78503" height="3.9662" fill="#DC0048"/>
<rect x="86.0383" y="32.8113" width="1.78503" height="9.37465" fill="#DC0048"/>
<path d="M86.0382 43.9888H87.8232V51.2H86.0382V49.3972H84.2532V47.5944H86.0382V43.9888Z" fill="#DC0048"/>
<path d="M67.1171 27.0422H68.9021H71.0441V28.8451H68.9021V31.0084H65.332V28.8451H67.1171V27.0422Z" fill="#DC0048"/>
<rect x="59.6199" y="29.2056" width="1.78503" height="1.80282" fill="#DC0048"/>
<rect x="61.4048" y="31.0085" width="1.78503" height="1.80282" fill="#DC0048"/>
<rect x="70.687" y="32.8113" width="2.14203" height="1.80282" fill="#DC0048"/>
<rect x="65.332" y="34.614" width="1.78503" height="3.9662" fill="#DC0048"/>
<rect x="59.6199" y="34.614" width="1.78503" height="3.9662" fill="#DC0048"/>
<rect x="56.0498" y="36.7773" width="1.78503" height="3.60563" fill="#DC0048"/>
<rect x="46.0537" y="36.7773" width="2.14203" height="1.80282" fill="#DC0048"/>
<rect x="40.6985" y="45.7915" width="2.14203" height="1.80282" fill="#DC0048"/>
<rect x="48.1958" y="47.5945" width="2.14203" height="3.60563" fill="#DC0048"/>
<rect x="44.2686" y="31.0085" width="3.92706" height="3.60563" fill="#DC0048"/>
<rect x="40.3416" y="28.845" width="3.92706" height="3.9662" fill="#DC0048"/>
<rect x="38.9136" y="27.0422" width="1.78503" height="7.57183" fill="#DC0048"/>
<rect x="21.7773" y="45.7915" width="1.78503" height="5.40845" fill="#DC0048"/>
<rect x="34.9866" y="27.0422" width="1.78503" height="1.80282" fill="#DC0048"/>
<rect x="29.6313" y="27.0422" width="1.78503" height="1.80282" fill="#DC0048"/>
<rect x="21.7773" y="32.8113" width="1.78503" height="1.80282" fill="#DC0048"/>
<rect x="29.6313" y="47.5945" width="1.78503" height="3.60563" fill="#DC0048"/>
<rect x="27.4895" y="55.5269" width="2.14203" height="3.9662" fill="#DC0048"/>
<rect x="31.4165" y="61.2959" width="3.57005" height="3.60563" fill="#DC0048"/>
<rect x="25.7043" y="57.3296" width="1.78503" height="2.16338" fill="#DC0048"/>
<rect x="33.2014" y="64.9014" width="1.78503" height="1.80282" fill="#DC0048"/>
<rect x="38.9136" y="68.8677" width="1.78503" height="1.80282" fill="#DC0048"/>
<rect x="44.2686" y="67.0647" width="1.78503" height="3.60563" fill="#DC0048"/>
<rect x="38.9136" y="74.2761" width="7.1401" height="3.60563" fill="#DC0048"/>
<rect x="42.4836" y="55.5269" width="1.78503" height="9.73521" fill="#DC0048"/>
<rect x="46.0537" y="67.0647" width="3.92706" height="1.80282" fill="#DC0048"/>
<rect x="51.7659" y="72.4731" width="2.14203" height="1.80282" fill="#DC0048"/>
<rect x="57.4778" y="68.8677" width="2.14203" height="1.80282" fill="#DC0048"/>
<rect x="63.1899" y="68.8677" width="1.78503" height="1.80282" fill="#DC0048"/>
<rect x="64.9749" y="67.0647" width="2.14203" height="1.80282" fill="#DC0048"/>
<rect x="53.9077" y="76.0789" width="1.78503" height="1.80282" fill="#DC0048"/>
<rect x="51.7659" y="74.2761" width="3.92706" height="1.80282" fill="#DC0048"/>
<rect x="48.1958" y="76.0789" width="3.57005" height="1.80282" fill="#DC0048"/>
<rect x="48.1958" y="83.29" width="1.78503" height="1.80282" fill="#DC0048"/>
<rect x="52.1228" y="61.2959" width="3.57005" height="1.80282" fill="#DC0048"/>
<rect x="49.9807" y="59.4929" width="1.78503" height="1.80282" fill="#DC0048"/>
<rect x="34.9866" y="55.5269" width="3.92706" height="1.80282" fill="#DC0048"/>
<rect x="33.2014" y="57.3296" width="9.28214" height="2.16338" fill="#DC0048"/>
<rect x="44.2686" y="61.2959" width="1.78503" height="1.80282" fill="#DC0048"/>
<rect x="38.5566" y="63.0986" width="2.14203" height="2.16338" fill="#DC0048"/>
<rect x="46.0537" y="63.0986" width="2.14203" height="2.16338" fill="#DC0048"/>
<rect x="48.1958" y="57.3296" width="1.78503" height="2.16338" fill="#DC0048"/>
<rect x="48.1958" y="61.2959" width="1.78503" height="3.9662" fill="#DC0048"/>
<rect x="44.2686" y="55.5269" width="3.92706" height="1.80282" fill="#DC0048"/>
<rect x="34.9866" y="59.4929" width="7.49711" height="1.80282" fill="#DC0048"/>
<rect x="36.7715" y="61.2959" width="3.92706" height="1.80282" fill="#DC0048"/>
<rect x="40.6985" y="65.262" width="3.57005" height="1.80282" fill="#DC0048"/>
<rect x="34.9866" y="70.6704" width="1.78503" height="1.80282" fill="#DC0048"/>
<rect x="37.1284" y="77.8816" width="1.78503" height="5.40845" fill="#DC0048"/>
<rect x="33.2014" y="77.8816" width="1.78503" height="1.80282" fill="#DC0048"/>
<rect x="31.4165" y="79.6846" width="5.71208" height="1.80282" fill="#DC0048"/>
<rect x="14.6372" y="81.4873" width="22.4913" height="1.80282" fill="#DC0048"/>
<rect x="21.7773" y="78.2422" width="1.78503" height="1.80282" fill="#DC0048"/>
<rect x="25.7043" y="74.2761" width="2.14203" height="1.80282" fill="#DC0048"/>
<rect x="21.4204" y="77.8816" width="2.14203" height="1.80282" fill="#DC0048"/>
<rect x="19.2783" y="79.6846" width="2.14203" height="1.80282" fill="#DC0048"/>
<rect x="12.8523" y="83.29" width="7.1401" height="1.80282" fill="#DC0048"/>
<rect x="12.8523" y="85.093" width="7.1401" height="1.80282" fill="#DC0048"/>
<rect x="18.2073" y="86.8958" width="1.78503" height="1.80282" fill="#DC0048"/>
<rect x="23.5623" y="79.6846" width="6.06909" height="1.80282" fill="#DC0048"/>
<rect x="27.8464" y="76.0789" width="7.1401" height="1.80282" fill="#DC0048"/>
<rect x="27.8464" y="77.8816" width="3.57005" height="1.80282" fill="#DC0048"/>
<rect x="37.1284" y="74.2761" width="1.78503" height="1.80282" fill="#DC0048"/>
<rect x="40.6985" y="77.8816" width="1.42802" height="1.80282" fill="#DC0048"/>
<rect x="38.9136" y="79.6846" width="1.78503" height="1.80282" fill="#DC0048"/>
<rect x="36.7715" y="85.093" width="3.92706" height="1.80282" fill="#DC0048"/>
<rect x="31.4165" y="85.093" width="3.57005" height="1.80282" fill="#DC0048"/>
<rect x="29.6313" y="86.8958" width="3.57005" height="1.80282" fill="#DC0048"/>
<rect x="21.7773" y="86.8958" width="3.92706" height="1.80282" fill="#DC0048"/>
<rect x="34.9866" y="88.6985" width="5.71208" height="1.80282" fill="#DC0048"/>
<rect x="40.6985" y="86.8958" width="1.78503" height="1.80282" fill="#DC0048"/>
<rect x="31.4165" y="88.6985" width="1.78503" height="1.80282" fill="#DC0048"/>
<rect x="23.5623" y="93.7466" width="2.14203" height="1.80282" fill="#DC0048"/>
<rect x="23.5623" y="85.093" width="2.14203" height="1.80282" fill="#DC0048"/>
<rect x="21.7773" y="90.5015" width="5.71208" height="3.24507" fill="#DC0048"/>
<rect x="23.5623" y="88.6985" width="6.06909" height="2.16338" fill="#DC0048"/>
<rect x="27.4895" y="83.29" width="9.28214" height="1.80282" fill="#DC0048"/>
<rect x="40.6985" y="81.4873" width="3.57005" height="1.80282" fill="#DC0048"/>
<rect x="46.0537" y="79.6846" width="2.14203" height="3.60563" fill="#DC0048"/>
<rect x="38.9136" y="72.4731" width="5.35508" height="1.80282" fill="#DC0048"/>
<rect x="36.7715" y="67.0647" width="3.92706" height="1.80282" fill="#DC0048"/>
<rect x="34.9866" y="63.0986" width="1.78503" height="5.76901" fill="#DC0048"/>
<rect x="23.9194" y="55.5269" width="1.78503" height="1.80282" fill="#DC0048"/>
<rect x="14.6372" y="63.0986" width="7.1401" height="1.80282" fill="#DC0048"/>
<rect x="18.2073" y="61.2959" width="5.35508" height="1.80282" fill="#DC0048"/>
<rect x="12.8523" y="61.2959" width="3.57005" height="1.80282" fill="#DC0048"/>
<rect x="12.4951" y="68.8677" width="1.78503" height="3.60563" fill="#DC0048"/>
<rect x="5.71216" y="68.8677" width="3.57005" height="1.80282" fill="#DC0048"/>
<rect x="5.71216" y="67.0647" width="10.7102" height="1.80282" fill="#DC0048"/>
<rect x="7.49707" y="63.0986" width="3.57005" height="5.76901" fill="#DC0048"/>
<rect x="8.92505" y="79.6846" width="3.92706" height="5.40845" fill="#DC0048"/>
<rect x="19.9922" y="59.4929" width="5.71208" height="1.80282" fill="#DC0048"/>
<rect x="21.7773" y="57.3296" width="2.14203" height="2.16338" fill="#DC0048"/>
<rect x="14.2803" y="72.4731" width="2.14203" height="1.80282" fill="#DC0048"/>
<rect x="7.14014" y="81.4873" width="1.78503" height="1.80282" fill="#DC0048"/>
<rect x="23.5623" y="49.3972" width="3.92706" height="1.80282" fill="#DC0048"/>
<rect x="21.7773" y="40.0225" width="1.78503" height="2.16338" fill="#DC0048"/>
<rect x="21.7773" y="31.0085" width="3.92706" height="1.80282" fill="#DC0048"/>
<rect x="50.3376" y="36.7773" width="1.42802" height="3.60563" fill="#DC0048"/>
<rect x="52.1228" y="32.8113" width="1.78503" height="3.9662" fill="#DC0048"/>
<rect x="53.9077" y="32.8113" width="1.78503" height="1.80282" fill="#DC0048"/>
<rect x="50.3376" y="32.8113" width="1.78503" height="3.9662" fill="#DC0048"/>
<rect x="48.1958" y="32.8113" width="2.14203" height="7.57183" fill="#DC0048"/>
<rect x="67.1169" y="43.9888" width="3.92706" height="1.80282" fill="#DC0048"/>
<rect x="59.2629" y="45.7915" width="4.28406" height="1.80282" fill="#DC0048"/>
<rect x="63.1899" y="47.5945" width="2.14203" height="7.93239" fill="#DC0048"/>
<rect x="71.0439" y="45.7915" width="1.78503" height="1.80282" fill="#DC0048"/>
<rect x="65.332" y="45.7915" width="1.78503" height="1.80282" fill="#DC0048"/>
<rect x="65.332" y="51.5605" width="1.78503" height="1.80282" fill="#DC0048"/>
<rect x="65.332" y="55.5269" width="3.57005" height="1.80282" fill="#DC0048"/>
<rect x="51.7659" y="55.5269" width="5.71208" height="1.80282" fill="#DC0048"/>
<rect x="55.6929" y="49.7578" width="1.78503" height="1.80282" fill="#DC0048"/>
<rect x="44.2686" y="53.7239" width="13.2092" height="1.80282" fill="#DC0048"/>
<rect x="51.7659" y="51.5605" width="5.71208" height="2.16338" fill="#DC0048"/>
<rect x="61.4048" y="57.3296" width="1.78503" height="2.16338" fill="#DC0048"/>
<rect x="59.2629" y="55.5269" width="2.14203" height="3.9662" fill="#DC0048"/>
<rect x="57.4778" y="51.5605" width="1.78503" height="7.93239" fill="#DC0048"/>
<rect x="59.2629" y="49.3972" width="3.92706" height="6.12958" fill="#DC0048"/>
<rect x="50.3376" y="47.5945" width="1.42802" height="1.80282" fill="#DC0048"/>
<rect x="61.762" y="42.186" width="1.78503" height="1.80282" fill="#DC0048"/>
<rect x="63.5469" y="38.5803" width="1.78503" height="7.21127" fill="#DC0048"/>
<rect x="63.5469" y="38.5803" width="1.78503" height="7.21127" fill="#DC0048"/>
<rect x="72.8291" y="47.5945" width="3.57005" height="1.80282" fill="#DC0048"/>
<rect x="74.614" y="45.7915" width="5.71208" height="1.80282" fill="#DC0048"/>
<rect x="93.1785" y="49.3972" width="5.35508" height="1.80282" fill="#DC0048"/>
<rect x="93.1785" y="53.3633" width="5.35508" height="1.80282" fill="#DC0048"/>
<rect x="96.7483" y="55.1663" width="7.1401" height="2.16338" fill="#DC0048"/>
<rect x="93.1785" y="61.2959" width="7.1401" height="2.16338" fill="#DC0048"/>
<rect x="89.6084" y="63.0986" width="8.92513" height="2.16338" fill="#DC0048"/>
<rect x="87.8232" y="53.3633" width="3.57005" height="2.16338" fill="#DC0048"/>
<rect x="80.3262" y="59.4929" width="3.92706" height="3.60563" fill="#DC0048"/>
<rect x="103.888" y="57.3296" width="1.78503" height="2.16338" fill="#DC0048"/>
<rect x="102.104" y="63.4592" width="3.57005" height="1.80282" fill="#DC0048"/>
<rect x="98.5334" y="59.4929" width="1.78503" height="1.80282" fill="#DC0048"/>
<rect x="91.3933" y="70.6704" width="1.78503" height="1.80282" fill="#DC0048"/>
<rect x="93.1785" y="79.6846" width="1.78503" height="1.80282" fill="#DC0048"/>
<rect x="91.3933" y="76.0789" width="1.78503" height="5.40845" fill="#DC0048"/>
<rect x="67.1169" y="86.8958" width="2.14203" height="1.80282" fill="#DC0048"/>
<rect x="71.0439" y="86.8958" width="3.57005" height="1.80282" fill="#DC0048"/>
<rect x="65.332" y="83.29" width="3.57005" height="1.80282" fill="#DC0048"/>
<rect x="87.8232" y="76.0789" width="1.78503" height="5.40845" fill="#DC0048"/>
<rect x="89.6084" y="81.4873" width="1.78503" height="3.60563" fill="#DC0048"/>
<rect x="87.8232" y="83.29" width="1.78503" height="5.40845" fill="#DC0048"/>
<rect x="86.0383" y="85.093" width="1.78503" height="1.80282" fill="#DC0048"/>
<rect x="78.5413" y="76.0789" width="9.28214" height="1.80282" fill="#DC0048"/>
<rect x="70.687" y="79.6846" width="15.3512" height="1.80282" fill="#DC0048"/>
<rect x="72.8291" y="81.4873" width="9.28214" height="1.80282" fill="#DC0048"/>
<rect x="83.8962" y="81.4873" width="3.92706" height="1.80282" fill="#DC0048"/>
<rect x="82.1111" y="77.8816" width="3.92706" height="1.80282" fill="#DC0048"/>
<rect x="51.7659" y="77.8816" width="26.7754" height="1.80282" fill="#DC0048"/>
<rect x="82.1111" y="83.29" width="3.92706" height="1.80282" fill="#DC0048"/>
<rect x="78.5413" y="85.093" width="1.78503" height="1.80282" fill="#DC0048"/>
<rect x="67.1169" y="79.6846" width="1.78503" height="1.80282" fill="#DC0048"/>
<rect x="72.4722" y="76.0789" width="2.14203" height="1.80282" fill="#DC0048"/>
<rect x="68.9021" y="74.2761" width="2.14203" height="1.80282" fill="#DC0048"/>
<rect x="76.7561" y="74.2761" width="5.71208" height="1.80282" fill="#DC0048"/>
<rect x="57.835" y="83.29" width="1.78503" height="1.80282" fill="#DC0048"/>
<rect x="55.6929" y="79.6846" width="7.49711" height="1.80282" fill="#DC0048"/>
<rect x="59.6199" y="76.0789" width="11.0672" height="1.80282" fill="#DC0048"/>
<rect x="57.835" y="74.2761" width="7.49711" height="1.80282" fill="#DC0048"/>
<rect x="57.835" y="72.4731" width="11.0672" height="1.80282" fill="#DC0048"/>
<rect x="61.4048" y="70.6704" width="17.1362" height="1.80282" fill="#DC0048"/>
<rect x="74.614" y="72.4731" width="5.71208" height="1.80282" fill="#DC0048"/>
<rect x="67.1169" y="68.8677" width="3.92706" height="1.80282" fill="#DC0048"/>
<rect x="68.9021" y="67.0647" width="3.92706" height="1.80282" fill="#DC0048"/>
<rect x="71.0439" y="59.4929" width="1.78503" height="7.57183" fill="#DC0048"/>
<rect x="67.1169" y="61.2959" width="1.78503" height="3.60563" fill="#DC0048"/>
<rect x="72.8291" y="57.3296" width="2.14203" height="5.76901" fill="#DC0048"/>
<rect x="74.9712" y="59.4929" width="1.78503" height="5.40845" fill="#DC0048"/>
<rect x="68.9021" y="57.3296" width="2.14203" height="7.57183" fill="#DC0048"/>
<rect x="72.8291" y="68.8677" width="3.92706" height="1.80282" fill="#DC0048"/>
<rect x="74.614" y="67.0647" width="3.92706" height="1.80282" fill="#DC0048"/>
<rect x="78.5413" y="64.9014" width="1.78503" height="2.16338" fill="#DC0048"/>
<rect x="76.7561" y="63.0986" width="1.78503" height="1.80282" fill="#DC0048"/>
<rect x="59.6199" y="81.4873" width="1.78503" height="1.80282" fill="#DC0048"/>
<rect x="93.1785" y="83.29" width="1.78503" height="1.80282" fill="#DC0048"/>
<rect x="89.6084" y="86.8958" width="1.78503" height="1.80282" fill="#DC0048"/>
<rect x="91.3933" y="83.29" width="1.78503" height="3.60563" fill="#DC0048"/>
<rect x="86.0383" y="68.8677" width="1.78503" height="1.80282" fill="#DC0048"/>
<rect x="89.6084" y="72.4731" width="1.78503" height="1.80282" fill="#DC0048"/>
<rect x="87.8232" y="59.4929" width="3.57005" height="1.80282" fill="#DC0048"/>
<rect x="98.5334" y="68.8677" width="3.57005" height="1.80282" fill="#DC0048"/>
<rect x="103.888" y="68.8677" width="1.78503" height="1.80282" fill="#DC0048"/>
<rect x="100.318" y="74.2761" width="1.78503" height="1.80282" fill="#DC0048"/>
<rect x="100.318" y="72.4731" width="3.92706" height="1.80282" fill="#DC0048"/>
<rect x="89.6084" y="68.8677" width="5.35508" height="1.80282" fill="#DC0048"/>
<rect x="80.3262" y="68.8677" width="3.92706" height="1.80282" fill="#DC0048"/>
<rect x="71.0439" y="85.093" width="1.78503" height="1.80282" fill="#DC0048"/>
<rect x="67.1169" y="81.4873" width="5.71208" height="1.80282" fill="#DC0048"/>
<rect x="65.332" y="83.29" width="9.28214" height="1.80282" fill="#DC0048"/>
<rect x="84.2532" y="63.0986" width="3.57005" height="1.80282" fill="#DC0048"/>
<rect x="94.9634" y="67.0647" width="7.1401" height="1.80282" fill="#DC0048"/>
<rect x="84.2532" y="64.9014" width="10.7102" height="3.9662" fill="#DC0048"/>
<rect x="82.4683" y="70.6704" width="7.1401" height="3.60563" fill="#DC0048"/>
<rect x="86.0383" y="61.2959" width="5.35508" height="1.80282" fill="#DC0048"/>
<rect x="89.6084" y="47.5945" width="3.57005" height="3.60563" fill="#DC0048"/>
<rect x="67.1169" y="36.7773" width="7.49711" height="1.80282" fill="#DC0048"/>
<rect x="68.9021" y="38.5803" width="3.92706" height="5.40845" fill="#DC0048"/>
<rect x="76.7561" y="8.29297" width="1.78503" height="1.80282" fill="#DC0048"/>
<rect x="57.835" y="7.57178" width="1.78503" height="1.80282" fill="#DC0048"/>
<rect x="57.835" y="7.57178" width="1.78503" height="1.80282" fill="#DC0048"/>
<rect x="51.7659" y="11.5381" width="2.14203" height="1.80282" fill="#DC0048"/>
<rect x="51.7659" y="11.5381" width="2.14203" height="1.80282" fill="#DC0048"/>
<path d="M74.6141 24.8789H76.7562V31.0085H74.6141H72.8291V28.8451H74.6141V24.8789Z" fill="#DC0048"/>
<rect x="55.6929" y="9.37476" width="2.14203" height="2.16338" fill="#DC0048"/>
<rect x="53.9077" y="23.0762" width="1.78503" height="1.80282" fill="#DC0048"/>
<rect x="63.1899" y="7.57178" width="1.78503" height="2.16338" fill="#B20B37"/>
<rect x="74.9712" y="10.0957" width="1.78503" height="1.80282" fill="#B20B37"/>
<rect x="68.9021" y="13.3408" width="2.14203" height="2.16338" fill="#B20B37"/>
<rect x="34.9866" y="20.9126" width="1.78503" height="3.9662" fill="#B20B37"/>
<rect x="33.2014" y="24.8789" width="1.78503" height="2.16338" fill="#B20B37"/>
<rect x="26.0613" y="25.2395" width="3.57005" height="1.80282" fill="#B20B37"/>
<rect x="27.4895" y="28.845" width="2.14203" height="1.80282" fill="#B20B37"/>
<rect x="23.5623" y="34.614" width="2.14203" height="1.80282" fill="#B20B37"/>
<rect x="31.4165" y="49.3972" width="5.35508" height="1.80282" fill="#B20B37"/>
<rect x="29.6313" y="53.3633" width="3.57005" height="2.16338" fill="#B20B37"/>
<rect x="23.9194" y="51.2" width="11.0672" height="2.16338" fill="#B20B37"/>
<rect x="27.4895" y="49.3972" width="2.14203" height="1.80282" fill="#B20B37"/>
<rect x="29.6313" y="55.5269" width="1.78503" height="1.80282" fill="#B20B37"/>
<rect x="25.7043" y="59.4929" width="1.78503" height="1.80282" fill="#B20B37"/>
<rect x="27.8464" y="63.0986" width="1.78503" height="1.80282" fill="#B20B37"/>
<rect x="29.6313" y="61.2959" width="1.78503" height="3.60563" fill="#B20B37"/>
<rect x="21.7773" y="63.0986" width="1.78503" height="1.80282" fill="#B20B37"/>
<rect x="17.8503" y="64.9014" width="3.92706" height="2.16338" fill="#B20B37"/>
<rect x="23.5623" y="61.2959" width="2.14203" height="3.60563" fill="#B20B37"/>
<rect x="25.7043" y="36.417" width="2.14203" height="2.16338" fill="#B20B37"/>
<rect x="23.5623" y="38.5803" width="2.14203" height="1.80282" fill="#B20B37"/>
<rect x="16.4221" y="43.9888" width="1.78503" height="1.80282" fill="#B20B37"/>
<rect x="10.7102" y="49.3972" width="1.78503" height="1.80282" fill="#B20B37"/>
<rect x="10.7102" y="59.4929" width="2.14203" height="3.60563" fill="#B20B37"/>
<rect x="1.78491" y="53.3633" width="1.78503" height="1.80282" fill="#B20B37"/>
<rect x="3.57007" y="55.1663" width="2.14203" height="2.16338" fill="#B20B37"/>
<rect y="65.262" width="1.78503" height="1.80282" fill="#B20B37"/>
<rect x="1.78491" y="67.0647" width="1.78503" height="1.80282" fill="#B20B37"/>
<rect x="3.57007" y="68.8677" width="2.14203" height="1.80282" fill="#B20B37"/>
<rect x="1.78491" y="76.0789" width="1.78503" height="1.80282" fill="#B20B37"/>
<rect y="77.8816" width="1.78503" height="1.80282" fill="#B20B37"/>
<rect x="1.78491" y="79.6846" width="1.78503" height="1.80282" fill="#B20B37"/>
<rect x="3.57007" y="81.4873" width="2.14203" height="1.80282" fill="#B20B37"/>
<rect x="5.71216" y="83.29" width="3.21305" height="1.80282" fill="#B20B37"/>
<rect x="3.57007" y="74.2761" width="2.14203" height="1.80282" fill="#B20B37"/>
<rect x="5.35498" y="70.6704" width="3.92706" height="1.80282" fill="#B20B37"/>
<rect x="3.57007" y="72.4731" width="3.92706" height="1.80282" fill="#B20B37"/>
<rect x="5.71216" y="57.3296" width="4.99807" height="2.16338" fill="#B20B37"/>
<rect x="7.49707" y="51.2" width="3.21305" height="2.16338" fill="#B20B37"/>
<rect x="10.7102" y="45.7915" width="5.71208" height="1.80282" fill="#B20B37"/>
<rect x="19.6353" y="42.186" width="2.14203" height="3.60563" fill="#B20B37"/>
<rect x="64.9749" y="9.73511" width="3.92706" height="1.80282" fill="#B20B37"/>
<rect x="68.9021" y="15.5042" width="5.71208" height="1.80282" fill="#B20B37"/>
<rect x="71.0439" y="17.3071" width="3.57005" height="1.80282" fill="#B20B37"/>
<rect x="76.7561" y="21.2732" width="1.78503" height="1.80282" fill="#B20B37"/>
<rect x="87.8232" y="29.2056" width="1.78503" height="1.80282" fill="#B20B37"/>
<rect x="78.5413" y="28.845" width="1.78503" height="2.16338" fill="#F83235"/>
<rect x="12.4951" y="55.5269" width="1.78503" height="1.80282" fill="#F83235"/>
<rect x="16.4221" y="61.2959" width="1.78503" height="1.80282" fill="#F83235"/>
<rect x="19.9922" y="49.3972" width="1.78503" height="1.80282" fill="#F83235"/>
<rect x="86.0383" y="31.0085" width="1.78503" height="1.80282" fill="#F83235"/>
<rect x="78.5413" y="38.5803" width="1.78503" height="1.80282" fill="#F83235"/>
<rect x="96.7483" y="42.186" width="1.78503" height="1.80282" fill="#F83235"/>
<rect x="100.318" y="47.5945" width="1.78503" height="1.80282" fill="#F83235"/>
<rect x="94.9634" y="51.2" width="1.78503" height="2.16338" fill="#F83235"/>
<rect x="94.9634" y="55.1663" width="1.78503" height="2.16338" fill="#F83235"/>
<rect x="78.5413" y="63.0986" width="1.78503" height="1.80282" fill="#F83235"/>
<rect x="71.0439" y="68.8677" width="1.78503" height="1.80282" fill="#F83235"/>
<rect x="100.318" y="63.4592" width="1.78503" height="1.80282" fill="#F83235"/>
<rect x="96.7483" y="72.4731" width="1.78503" height="1.80282" fill="#F83235"/>
<rect x="76.7561" y="76.0789" width="1.78503" height="1.80282" fill="#F83235"/>
<rect x="63.1899" y="79.6846" width="3.92706" height="3.60563" fill="#F83235"/>
<rect x="55.6929" y="81.4873" width="3.92706" height="1.80282" fill="#F83235"/>
<rect x="55.6929" y="76.0789" width="3.92706" height="1.80282" fill="#F83235"/>
<rect x="48.1958" y="74.2761" width="3.57005" height="1.80282" fill="#F83235"/>
<rect x="46.0537" y="72.4731" width="3.92706" height="1.80282" fill="#F83235"/>
<rect x="36.7715" y="65.262" width="3.92706" height="1.80282" fill="#F83235"/>
<rect x="51.7659" y="76.0789" width="2.14203" height="1.80282" fill="#F83235"/>
<rect x="34.9866" y="77.8816" width="2.14203" height="1.80282" fill="#F83235"/>
<rect x="44.2686" y="83.29" width="1.78503" height="1.80282" fill="#F83235"/>
<rect x="38.9136" y="83.29" width="1.78503" height="1.80282" fill="#F83235"/>
<rect x="25.7043" y="83.29" width="1.78503" height="1.80282" fill="#F83235"/>
<rect x="27.4895" y="85.093" width="2.14203" height="1.80282" fill="#F83235"/>
<rect x="29.6313" y="90.5015" width="1.78503" height="1.80282" fill="#F83235"/>
<rect x="19.9922" y="88.6985" width="1.78503" height="1.80282" fill="#F83235"/>
<rect x="46.0537" y="70.6704" width="2.14203" height="1.80282" fill="#F83235"/>
<rect x="44.2686" y="63.0986" width="1.78503" height="2.16338" fill="#F83235"/>
<rect x="40.6985" y="61.2959" width="1.78503" height="1.80282" fill="#F83235"/>
<rect x="48.1958" y="79.6846" width="3.92706" height="3.60563" fill="#F83235"/>
<rect x="70.687" y="76.0789" width="1.78503" height="1.80282" fill="#F83235"/>
<rect x="78.5413" y="77.8816" width="1.78503" height="1.80282" fill="#F83235"/>
<rect x="65.332" y="42.186" width="1.78503" height="1.80282" fill="#F83235"/>
<rect x="82.1111" y="25.2395" width="2.14203" height="1.80282" fill="#B20B37"/>
<rect x="55.6929" y="31.0085" width="3.92706" height="3.60563" fill="#B20B37"/>
<rect x="53.9077" y="36.7773" width="2.14203" height="1.80282" fill="#B20B37"/>
<rect x="76.7561" y="25.2395" width="1.78503" height="3.60563" fill="#B20B37"/>
<rect x="78.5413" y="25.2395" width="1.78503" height="3.60563" fill="#880336"/>
<rect x="59.6199" y="31.0085" width="1.78503" height="1.80282" fill="#880336"/>
<rect x="57.835" y="38.5803" width="5.71208" height="3.60563" fill="#880336"/>
<rect x="51.7659" y="36.7773" width="2.14203" height="5.40845" fill="#880336"/>
<rect x="53.9077" y="38.5803" width="2.14203" height="1.80282" fill="#880336"/>
<rect x="53.9077" y="34.614" width="2.14203" height="2.16338" fill="#880336"/>
<rect x="67.1169" y="42.186" width="1.78503" height="1.80282" fill="#880336"/>
<rect x="84.2532" y="42.186" width="3.57005" height="1.80282" fill="#880336"/>
<rect x="87.8232" y="43.9888" width="1.78503" height="3.60563" fill="#880336"/>
<rect x="94.9634" y="47.5945" width="5.35508" height="1.80282" fill="#880336"/>
<rect x="91.3933" y="42.186" width="3.57005" height="3.60563" fill="#880336"/>
<rect x="91.3933" y="45.7915" width="1.78503" height="1.80282" fill="#880336"/>
<rect x="96.7483" y="51.2" width="1.78503" height="2.16338" fill="#880336"/>
<rect x="103.888" y="55.1663" width="1.78503" height="2.16338" fill="#880336"/>
<rect x="102.104" y="57.3296" width="1.78503" height="2.16338" fill="#880336"/>
<path d="M76.7562 38.5803H78.5412V40.3831H80.3262V38.5803H84.2533V40.3831H82.1112V42.186H78.5412V45.7916H76.3992V43.9888H74.6141V45.7916H72.8291V42.186H74.6141V40.3831H76.7562V38.5803Z" fill="#880336"/>
<rect x="89.6084" y="31.0085" width="1.78503" height="3.60563" fill="#880336"/>
<rect x="67.1169" y="11.8987" width="3.92706" height="1.80282" fill="#B20B37"/>
<rect x="67.1169" y="11.1775" width="1.78503" height="1.80282" fill="#B20B37"/>
<rect x="63.1899" y="3.60571" width="1.78503" height="1.80282" fill="#B20B37"/>
<rect x="72.8291" y="11.8987" width="2.14203" height="1.80282" fill="#43001B"/>
<rect x="74.9712" y="13.7014" width="1.78503" height="1.80282" fill="#43001B"/>
<rect x="74.614" y="17.3071" width="2.14203" height="1.80282" fill="#43001B"/>
<rect x="78.5413" y="21.2732" width="1.78503" height="1.80282" fill="#43001B"/>
<rect x="80.3262" y="25.2395" width="1.78503" height="1.80282" fill="#43001B"/>
<rect x="82.1111" y="27.0422" width="2.14203" height="3.9662" fill="#43001B"/>
<rect x="87.8232" y="34.614" width="1.78503" height="5.76901" fill="#43001B"/>
<rect x="84.2532" y="38.5803" width="1.78503" height="3.60563" fill="#43001B"/>
<rect x="87.8232" y="42.186" width="1.78503" height="1.80282" fill="#43001B"/>
<rect x="89.6084" y="43.9888" width="1.78503" height="1.80282" fill="#43001B"/>
<rect x="94.9634" y="40.3831" width="1.78503" height="1.80282" fill="#43001B"/>
<rect x="94.9634" y="43.9888" width="1.78503" height="1.80282" fill="#43001B"/>
<rect x="93.1785" y="47.5945" width="1.78503" height="1.80282" fill="#43001B"/>
<rect x="100.318" y="53.3633" width="1.78503" height="1.80282" fill="#43001B"/>
<rect x="100.318" y="59.4929" width="3.57005" height="1.80282" fill="#43001B"/>
<rect x="100.318" y="61.2959" width="1.78503" height="2.16338" fill="#43001B"/>
<rect x="98.5334" y="51.2" width="1.78503" height="3.9662" fill="#43001B"/>
<rect x="98.5334" y="63.4592" width="1.78503" height="1.80282" fill="#43001B"/>
<rect x="94.9634" y="68.8677" width="3.57005" height="3.60563" fill="#43001B"/>
<rect x="100.318" y="70.6704" width="1.78503" height="1.80282" fill="#43001B"/>
<rect x="87.8232" y="88.6985" width="3.57005" height="1.80282" fill="#43001B"/>
<rect x="86.0383" y="86.8958" width="1.78503" height="1.80282" fill="#43001B"/>
<rect x="87.8232" y="81.4873" width="1.78503" height="1.80282" fill="#43001B"/>
<rect x="89.6084" y="85.093" width="1.78503" height="1.80282" fill="#43001B"/>
<rect x="86.0383" y="83.29" width="1.78503" height="1.80282" fill="#43001B"/>
<rect x="82.1111" y="81.4873" width="1.78503" height="1.80282" fill="#43001B"/>
<rect x="72.8291" y="88.6985" width="1.78503" height="3.9662" fill="#43001B"/>
<rect x="80.3262" y="77.8816" width="1.78503" height="1.80282" fill="#43001B"/>
<rect x="74.614" y="86.8958" width="1.78503" height="1.80282" fill="#43001B"/>
<rect x="68.9021" y="85.093" width="2.14203" height="3.60563" fill="#43001B"/>
<rect x="71.0439" y="88.6985" width="1.78503" height="1.80282" fill="#43001B"/>
<rect x="80.3262" y="85.093" width="5.71208" height="1.80282" fill="#43001B"/>
<rect x="78.5413" y="86.8958" width="3.57005" height="1.80282" fill="#43001B"/>
<rect x="72.8291" y="85.093" width="5.71208" height="1.80282" fill="#43001B"/>
<rect x="63.5469" y="85.093" width="5.35508" height="1.80282" fill="#43001B"/>
<rect x="74.614" y="83.29" width="7.49711" height="1.80282" fill="#43001B"/>
<rect x="91.3933" y="86.8958" width="1.78503" height="3.60563" fill="#43001B"/>
<rect x="93.1785" y="85.093" width="1.78503" height="1.80282" fill="#43001B"/>
<rect x="94.9634" y="83.29" width="1.78503" height="1.80282" fill="#43001B"/>
<rect x="91.3933" y="81.4873" width="5.35508" height="1.80282" fill="#43001B"/>
<rect x="89.6084" y="76.0789" width="1.78503" height="5.40845" fill="#43001B"/>
<rect x="86.0383" y="77.8816" width="1.78503" height="3.60563" fill="#43001B"/>
<rect x="93.1785" y="76.0789" width="3.57005" height="1.80282" fill="#43001B"/>
<rect x="82.4683" y="74.2761" width="14.2802" height="1.80282" fill="#43001B"/>
<rect x="96.7483" y="74.2761" width="1.78503" height="3.60563" fill="#43001B"/>
<rect x="93.1785" y="70.6704" width="1.78503" height="1.80282" fill="#43001B"/>
<rect x="89.6084" y="70.6704" width="1.78503" height="1.80282" fill="#43001B"/>
<rect x="91.3933" y="72.4731" width="5.35508" height="1.80282" fill="#43001B"/>
<rect x="87.8232" y="68.8677" width="1.78503" height="1.80282" fill="#43001B"/>
<rect x="84.2532" y="68.8677" width="1.78503" height="1.80282" fill="#43001B"/>
<rect x="76.7561" y="68.8677" width="1.78503" height="1.80282" fill="#43001B"/>
<rect x="78.5413" y="68.8677" width="1.78503" height="3.60563" fill="#43001B"/>
<rect x="80.3262" y="70.6704" width="2.14203" height="3.60563" fill="#43001B"/>
<rect x="98.5334" y="70.6704" width="1.78503" height="5.40845" fill="#43001B"/>
<rect x="102.104" y="67.0647" width="1.78503" height="5.40845" fill="#43001B"/>
<rect x="94.9634" y="65.262" width="7.1401" height="1.80282" fill="#43001B"/>
<rect x="98.5334" y="49.3972" width="3.57005" height="1.80282" fill="#43001B"/>
<rect x="78.5413" y="42.186" width="3.57005" height="1.80282" fill="#43001B"/>
<rect x="82.1111" y="40.3831" width="2.14203" height="3.60563" fill="#43001B"/>
<rect x="84.2532" y="25.2395" width="1.78503" height="1.80282" fill="#43001B"/>
<rect x="74.614" y="43.9888" width="1.78503" height="1.80282" fill="#43001B"/>
<rect x="78.5413" y="43.9888" width="1.78503" height="1.80282" fill="#43001B"/>
<rect x="71.0439" y="43.9888" width="1.78503" height="1.80282" fill="#43001B"/>
<rect x="65.332" y="43.9888" width="1.78503" height="1.80282" fill="#43001B"/>
<rect x="56.0498" y="40.3831" width="1.78503" height="1.80282" fill="#43001B"/>
<rect x="63.5469" y="45.7915" width="1.78503" height="1.80282" fill="#43001B"/>
<rect x="59.6199" y="43.9888" width="3.92706" height="1.80282" fill="#43001B"/>
<rect x="57.835" y="42.186" width="3.92706" height="1.80282" fill="#43001B"/>
<rect x="67.1169" y="51.5605" width="1.78503" height="1.80282" fill="#43001B"/>
<rect x="67.1169" y="45.7915" width="3.92706" height="5.76901" fill="#43001B"/>
<rect x="72.8291" y="45.7915" width="1.78503" height="1.80282" fill="#43001B"/>
<rect x="71.0439" y="47.5945" width="1.78503" height="3.9662" fill="#43001B"/>
<rect x="65.332" y="47.5945" width="1.78503" height="3.9662" fill="#43001B"/>
<rect x="84.2532" y="31.0085" width="1.78503" height="1.80282" fill="#43001B"/>
<rect x="86.0383" y="29.2056" width="1.78503" height="1.80282" fill="#43001B"/>
<rect x="76.7561" y="23.0762" width="1.78503" height="2.16338" fill="#43001B"/>
<rect x="80.3262" y="19.1099" width="1.78503" height="1.80282" fill="#43001B"/>
<rect x="78.5413" y="17.3071" width="3.57005" height="1.80282" fill="#43001B"/>
<path d="M53.9078 11.538V9.37459H55.6928V11.538H57.8349V9.37459H59.6199V7.57178H61.4049V11.538H59.6199V16.2253H61.4049V17.307H63.1899V19.1098H61.4049V20.9126H55.6928H53.9078H51.7658V23.076H53.9078V24.8788H55.6928H57.4778V23.076H55.6928V20.9126L57.8349 20.1915L59.6199 16.2253V24.8788H61.4049V29.2056H59.6199V31.0084H55.6928V32.8112H48.1957V31.0084H44.2687V27.0422H46.0537V28.845H49.9807V26.6816H52.1228V24.8788H49.9807V26.6816H48.1957V23.076H49.9807V20.9126H46.4107V16.9464H44.2687V13.3408H42.4836V15.1436H38.9136V13.3408H40.6986V11.1774H44.2687V9.37459H48.1957H49.9807V11.538H51.7658V13.3408H53.9078V11.538Z" fill="#FE6E32"/>
<rect x="40.6985" y="7.57178" width="1.78503" height="3.60563" fill="#FFA370"/>
<rect x="74.614" y="31.0085" width="2.14203" height="1.80282" fill="#FFA370"/>
<rect x="5.71216" y="85.093" width="7.1401" height="1.80282" fill="#52022A"/>
<rect x="5.71216" y="85.093" width="7.1401" height="1.80282" fill="#52022A"/>
<rect x="5.71216" y="85.093" width="7.1401" height="1.80282" fill="#52022A"/>
<rect x="11.0671" y="86.8958" width="3.21305" height="1.80282" fill="#52022A"/>
<rect x="11.0671" y="86.8958" width="3.21305" height="1.80282" fill="#52022A"/>
<rect x="11.0671" y="86.8958" width="3.21305" height="1.80282" fill="#52022A"/>
<rect x="16.4221" y="86.8958" width="1.78503" height="1.80282" fill="#52022A"/>
<rect x="16.4221" y="86.8958" width="1.78503" height="1.80282" fill="#52022A"/>
<rect x="16.4221" y="86.8958" width="1.78503" height="1.80282" fill="#52022A"/>
<rect x="18.2073" y="88.6985" width="1.78503" height="1.80282" fill="#52022A"/>
<rect x="18.2073" y="88.6985" width="1.78503" height="1.80282" fill="#52022A"/>
<rect x="18.2073" y="88.6985" width="1.78503" height="1.80282" fill="#52022A"/>
<rect x="17.8503" y="93.7466" width="5.71208" height="1.80282" fill="#52022A"/>
<rect x="17.8503" y="93.7466" width="5.71208" height="1.80282" fill="#52022A"/>
<rect x="17.8503" y="93.7466" width="5.71208" height="1.80282" fill="#52022A"/>
<rect x="21.7773" y="85.093" width="1.78503" height="1.80282" fill="#52022A"/>
<rect x="21.7773" y="85.093" width="1.78503" height="1.80282" fill="#52022A"/>
<rect x="21.7773" y="85.093" width="1.78503" height="1.80282" fill="#52022A"/>
<rect x="21.7773" y="88.6985" width="1.78503" height="1.80282" fill="#52022A"/>
<rect x="21.7773" y="88.6985" width="1.78503" height="1.80282" fill="#52022A"/>
<rect x="21.7773" y="88.6985" width="1.78503" height="1.80282" fill="#52022A"/>
<rect x="31.4165" y="90.5015" width="1.78503" height="1.80282" fill="#52022A"/>
<rect x="31.4165" y="90.5015" width="1.78503" height="1.80282" fill="#52022A"/>
<rect x="31.4165" y="90.5015" width="1.78503" height="1.80282" fill="#52022A"/>
<rect x="34.9866" y="86.8958" width="5.71208" height="1.80282" fill="#52022A"/>
<rect x="34.9866" y="86.8958" width="5.71208" height="1.80282" fill="#52022A"/>
<rect x="34.9866" y="86.8958" width="5.71208" height="1.80282" fill="#52022A"/>
<rect x="29.6313" y="88.6985" width="1.78503" height="1.80282" fill="#52022A"/>
<rect x="29.6313" y="88.6985" width="1.78503" height="1.80282" fill="#52022A"/>
<rect x="29.6313" y="88.6985" width="1.78503" height="1.80282" fill="#52022A"/>
<rect x="33.2014" y="86.8958" width="1.78503" height="3.60563" fill="#52022A"/>
<rect x="33.2014" y="86.8958" width="1.78503" height="3.60563" fill="#52022A"/>
<rect x="33.2014" y="86.8958" width="1.78503" height="3.60563" fill="#52022A"/>
<rect x="25.7043" y="85.093" width="1.78503" height="1.80282" fill="#52022A"/>
<rect x="25.7043" y="85.093" width="1.78503" height="1.80282" fill="#52022A"/>
<rect x="25.7043" y="85.093" width="1.78503" height="1.80282" fill="#52022A"/>
<rect x="29.6313" y="85.093" width="1.78503" height="1.80282" fill="#52022A"/>
<rect x="29.6313" y="85.093" width="1.78503" height="1.80282" fill="#52022A"/>
<rect x="29.6313" y="85.093" width="1.78503" height="1.80282" fill="#52022A"/>
<rect x="34.9866" y="90.5015" width="7.49711" height="1.80282" fill="#440213"/>
<rect x="42.4836" y="92.3042" width="1.78503" height="1.80282" fill="#440213"/>
<rect x="42.4836" y="88.6985" width="1.78503" height="1.80282" fill="#440213"/>
<rect x="44.2686" y="85.093" width="2.14203" height="3.60563" fill="#440213"/>
<rect x="40.6985" y="83.29" width="3.57005" height="1.80282" fill="#440213"/>
<rect x="38.9136" y="81.4873" width="1.78503" height="1.80282" fill="#440213"/>
<rect x="38.9136" y="77.8816" width="1.78503" height="1.80282" fill="#440213"/>
<rect x="40.6985" y="79.6846" width="1.42802" height="1.80282" fill="#440213"/>
<rect x="44.2686" y="70.6704" width="1.78503" height="3.60563" fill="#440213"/>
<rect x="46.0537" y="74.2761" width="2.14203" height="5.40845" fill="#440213"/>
<rect x="51.7659" y="59.4929" width="6.06909" height="1.80282" fill="#440213"/>
<rect x="40.6985" y="67.0647" width="3.57005" height="5.40845" fill="#440213"/>
<rect x="42.1267" y="77.8816" width="2.14203" height="3.60563" fill="#440213"/>
<rect x="44.2686" y="77.8816" width="1.78503" height="5.40845" fill="#440213"/>
<rect x="49.9807" y="83.29" width="2.14203" height="14.062" fill="#440213"/>
<rect x="52.1228" y="79.6846" width="3.57005" height="7.21127" fill="#440213"/>
<rect x="46.0537" y="83.29" width="2.14203" height="3.60563" fill="#440213"/>
<rect x="48.1958" y="85.093" width="1.78503" height="3.60563" fill="#440213"/>
<rect x="53.9077" y="86.8958" width="1.78503" height="1.80282" fill="#440213"/>
<rect x="55.6929" y="83.29" width="2.14203" height="12.6197" fill="#440213"/>
<rect x="57.835" y="85.093" width="2.14203" height="7.21127" fill="#440213"/>
<rect x="59.6199" y="83.29" width="2.14203" height="7.57183" fill="#440213"/>
<rect x="61.4048" y="81.4873" width="1.78503" height="3.60563" fill="#440213"/>
<rect x="68.9021" y="79.6846" width="1.78503" height="1.80282" fill="#440213"/>
<rect x="61.762" y="86.8958" width="1.42802" height="2.16338" fill="#440213"/>
<rect x="63.5469" y="89.0591" width="1.78503" height="1.80282" fill="#440213"/>
<rect x="59.9768" y="95.9099" width="1.42802" height="3.60563" fill="#440213"/>
<rect x="55.6929" y="101.318" width="1.78503" height="1.80282" fill="#440213"/>
<rect x="57.4778" y="99.5154" width="2.49904" height="11.8986" fill="#440213"/>
<rect x="53.9077" y="111.053" width="1.78503" height="1.80282" fill="#440213"/>
<rect x="53.9077" y="116.462" width="3.57005" height="2.16338" fill="#440213"/>
<rect x="52.1228" y="120.428" width="3.57005" height="1.80282" fill="#440213"/>
<rect x="59.9768" y="112.856" width="1.42802" height="1.80282" fill="#440213"/>
<rect x="61.4048" y="114.659" width="1.78503" height="1.80282" fill="#440213"/>
<rect x="59.6199" y="116.462" width="3.57005" height="2.16338" fill="#440213"/>
<rect x="63.1899" y="116.823" width="3.92706" height="1.80282" fill="#440213"/>
<rect x="61.4048" y="94.1069" width="1.78503" height="1.80282" fill="#440213"/>
<rect x="63.5469" y="92.3042" width="1.78503" height="1.80282" fill="#440213"/>
<rect x="67.1169" y="88.6985" width="2.14203" height="1.80282" fill="#440213"/>
<rect x="65.332" y="86.8958" width="1.78503" height="1.80282" fill="#440213"/>
<rect x="65.332" y="90.5015" width="3.92706" height="2.16338" fill="#440213"/>
<rect x="65.332" y="85.093" width="5.71208" height="1.80282" fill="#440213"/>
<rect x="63.1899" y="83.29" width="2.14203" height="5.76901" fill="#440213"/>
<rect x="40.6985" y="88.6985" width="1.78503" height="1.80282" fill="#450B42"/>
<rect x="40.6985" y="88.6985" width="1.78503" height="1.80282" fill="#450B42"/>
<rect x="40.6985" y="88.6985" width="1.78503" height="1.80282" fill="#450B42"/>
<rect x="40.6985" y="88.6985" width="1.78503" height="1.80282" fill="#450B42"/>
<rect x="52.1228" y="86.8958" width="1.78503" height="1.80282" fill="#450B42"/>
<rect x="52.1228" y="86.8958" width="1.78503" height="1.80282" fill="#450B42"/>
<rect x="52.1228" y="86.8958" width="1.78503" height="1.80282" fill="#450B42"/>
<rect x="52.1228" y="86.8958" width="1.78503" height="1.80282" fill="#450B42"/>
<rect x="48.1958" y="77.8816" width="3.57005" height="1.80282" fill="#450B42"/>
<rect x="48.1958" y="77.8816" width="3.57005" height="1.80282" fill="#450B42"/>
<rect x="48.1958" y="77.8816" width="3.57005" height="1.80282" fill="#450B42"/>
<rect x="48.1958" y="77.8816" width="3.57005" height="1.80282" fill="#450B42"/>
<rect x="53.9077" y="97.3521" width="1.78503" height="3.9662" fill="#450B42"/>
<rect x="53.9077" y="97.3521" width="1.78503" height="3.9662" fill="#450B42"/>
<rect x="53.9077" y="97.3521" width="1.78503" height="3.9662" fill="#450B42"/>
<rect x="53.9077" y="97.3521" width="1.78503" height="3.9662" fill="#450B42"/>
<rect x="57.4778" y="111.414" width="2.49904" height="5.04789" fill="#450B42"/>
<rect x="57.4778" y="111.414" width="2.49904" height="5.04789" fill="#450B42"/>
<rect x="57.4778" y="111.414" width="2.49904" height="5.04789" fill="#450B42"/>
<rect x="57.4778" y="111.414" width="2.49904" height="5.04789" fill="#450B42"/>
<rect x="52.1228" y="118.625" width="5.35508" height="1.80282" fill="#450B42"/>
<rect x="52.1228" y="118.625" width="5.35508" height="1.80282" fill="#450B42"/>
<rect x="52.1228" y="118.625" width="5.35508" height="1.80282" fill="#450B42"/>
<rect x="52.1228" y="118.625" width="5.35508" height="1.80282" fill="#450B42"/>
<rect x="59.9768" y="114.659" width="1.42802" height="1.80282" fill="#450B42"/>
<rect x="59.9768" y="114.659" width="1.42802" height="1.80282" fill="#450B42"/>
<rect x="59.9768" y="114.659" width="1.42802" height="1.80282" fill="#450B42"/>
<rect x="59.9768" y="114.659" width="1.42802" height="1.80282" fill="#450B42"/>
<rect x="61.4048" y="120.428" width="1.78503" height="1.80282" fill="#450B42"/>
<rect x="61.4048" y="120.428" width="1.78503" height="1.80282" fill="#450B42"/>
<rect x="61.4048" y="120.428" width="1.78503" height="1.80282" fill="#450B42"/>
<rect x="61.4048" y="120.428" width="1.78503" height="1.80282" fill="#450B42"/>
<rect x="59.6199" y="118.625" width="1.78503" height="3.60563" fill="#450B42"/>
<rect x="59.6199" y="118.625" width="1.78503" height="3.60563" fill="#450B42"/>
<rect x="59.6199" y="118.625" width="1.78503" height="3.60563" fill="#450B42"/>
<rect x="59.6199" y="118.625" width="1.78503" height="3.60563" fill="#450B42"/>
<rect x="55.6929" y="120.428" width="1.78503" height="1.80282" fill="#450B42"/>
<rect x="55.6929" y="120.428" width="1.78503" height="1.80282" fill="#450B42"/>
<rect x="55.6929" y="120.428" width="1.78503" height="1.80282" fill="#450B42"/>
<rect x="55.6929" y="120.428" width="1.78503" height="1.80282" fill="#450B42"/>
<rect x="63.1899" y="118.625" width="3.92706" height="1.80282" fill="#450B42"/>
<rect x="63.1899" y="118.625" width="3.92706" height="1.80282" fill="#450B42"/>
<rect x="63.1899" y="118.625" width="3.92706" height="1.80282" fill="#450B42"/>
<rect x="63.1899" y="118.625" width="3.92706" height="1.80282" fill="#450B42"/>
<rect x="59.6199" y="90.8621" width="1.78503" height="5.04789" fill="#450B42"/>
<rect x="59.6199" y="90.8621" width="1.78503" height="5.04789" fill="#450B42"/>
<rect x="59.6199" y="90.8621" width="1.78503" height="5.04789" fill="#450B42"/>
<rect x="59.6199" y="90.8621" width="1.78503" height="5.04789" fill="#450B42"/>
<rect x="61.4048" y="89.0591" width="2.14203" height="5.04789" fill="#450B42"/>
<rect x="61.4048" y="89.0591" width="2.14203" height="5.04789" fill="#450B42"/>
<rect x="61.4048" y="89.0591" width="2.14203" height="5.04789" fill="#450B42"/>
<rect x="61.4048" y="89.0591" width="2.14203" height="5.04789" fill="#450B42"/>
<rect x="57.4778" y="92.3042" width="2.49904" height="7.21127" fill="#450B42"/>
<rect x="57.4778" y="92.3042" width="2.49904" height="7.21127" fill="#450B42"/>
<rect x="57.4778" y="92.3042" width="2.49904" height="7.21127" fill="#450B42"/>
<rect x="57.4778" y="92.3042" width="2.49904" height="7.21127" fill="#450B42"/>
<rect x="44.2686" y="94.1069" width="1.78503" height="1.80282" fill="#440213"/>
<rect x="46.0537" y="95.9099" width="2.14203" height="1.44225" fill="#670318"/>
<rect x="48.1958" y="97.3521" width="1.78503" height="1.80282" fill="#670318"/>
<rect x="49.9807" y="99.5154" width="1.78503" height="1.80282" fill="#670318"/>
<rect x="49.9807" y="97.3521" width="3.92706" height="2.16338" fill="#95512F"/>
<rect x="51.7659" y="99.5154" width="2.14203" height="1.80282" fill="#95512F"/>
<rect x="49.9807" y="101.318" width="1.78503" height="1.80282" fill="#95512F"/>
<rect x="46.0537" y="93.7466" width="2.14203" height="2.16338" fill="#95512F"/>
<rect x="44.2686" y="92.3042" width="2.14203" height="1.80282" fill="#95512F"/>
<rect x="42.4836" y="90.5015" width="1.78503" height="1.80282" fill="#95512F"/>
<rect x="48.1958" y="95.9099" width="1.78503" height="1.44225" fill="#95512F"/>
<rect x="53.9077" y="95.9099" width="3.57005" height="1.44225" fill="#95512F"/>
<rect x="63.5469" y="90.8621" width="1.78503" height="1.44225" fill="#95512F"/>
<rect x="55.6929" y="97.3521" width="1.78503" height="3.9662" fill="#95512F"/>
<rect x="53.9077" y="101.318" width="1.78503" height="9.73521" fill="#95512F"/>
<rect x="55.6929" y="103.121" width="1.78503" height="13.3408" fill="#95512F"/>
<rect x="51.7659" y="111.053" width="2.14203" height="3.60563" fill="#95512F"/>
<rect x="53.9077" y="112.856" width="1.78503" height="3.60563" fill="#95512F"/>
<rect x="52.1228" y="88.6985" width="3.57005" height="7.21127" fill="#95512F"/>
<rect x="51.7659" y="101.318" width="2.14203" height="1.80282" fill="#670318"/>
<rect x="51.7659" y="104.924" width="2.14203" height="1.80282" fill="#670318"/>
<rect x="49.9807" y="103.121" width="1.78503" height="11.538" fill="#670318"/>
<rect x="51.7659" y="114.659" width="2.14203" height="2.16338" fill="#670318"/>
<rect x="46.0537" y="116.462" width="2.14203" height="2.16338" fill="#670318"/>
<rect x="44.2686" y="120.428" width="3.92706" height="2.16338" fill="#670318"/>
<rect x="38.9136" y="120.428" width="3.92706" height="2.16338" fill="#670318"/>
<rect x="40.6985" y="122.592" width="3.57005" height="3.60563" fill="#670318"/>
<rect x="48.1958" y="122.231" width="3.57005" height="2.16338" fill="#670318"/>
<rect x="49.9807" y="118.625" width="2.14203" height="3.60563" fill="#670318"/>
<rect x="42.4836" y="118.625" width="1.78503" height="1.80282" fill="#670318"/>
<rect x="38.5566" y="124.394" width="2.14203" height="1.80282" fill="#670318"/>
<rect x="36.7715" y="122.592" width="2.14203" height="1.80282" fill="#670318"/>
<rect x="48.1958" y="112.856" width="1.78503" height="3.9662" fill="#670318"/>
<rect x="57.4778" y="116.462" width="2.14203" height="5.76901" fill="#670318"/>
<rect x="61.4048" y="118.625" width="1.78503" height="1.80282" fill="#670318"/>
<rect x="67.1169" y="118.625" width="2.14203" height="1.80282" fill="#670318"/>
<rect x="67.1169" y="122.231" width="3.92706" height="1.80282" fill="#670318"/>
<rect x="63.1899" y="120.428" width="4.28406" height="1.80282" fill="#670318"/>
<rect x="57.835" y="122.231" width="3.57005" height="3.60563" fill="#670318"/>
<rect x="61.4048" y="122.231" width="1.78503" height="1.80282" fill="#670318"/>
<rect x="25.7043" y="86.8958" width="3.92706" height="1.80282" fill="#52022A"/>
<rect x="25.7043" y="86.8958" width="3.92706" height="1.80282" fill="#52022A"/>
<rect x="25.7043" y="86.8958" width="3.92706" height="1.80282" fill="#52022A"/>
<rect x="25.7043" y="93.7466" width="1.78503" height="1.80282" fill="#52022A"/>
<rect x="25.7043" y="93.7466" width="1.78503" height="1.80282" fill="#52022A"/>
<rect x="25.7043" y="93.7466" width="1.78503" height="1.80282" fill="#52022A"/>
<rect x="27.4895" y="90.8621" width="2.14203" height="2.88451" fill="#52022A"/>
<rect x="27.4895" y="90.8621" width="2.14203" height="2.88451" fill="#52022A"/>
<rect x="27.4895" y="90.8621" width="2.14203" height="2.88451" fill="#52022A"/>
<rect x="29.6313" y="92.3042" width="1.78503" height="3.24507" fill="#52022A"/>
<rect x="29.6313" y="92.3042" width="1.78503" height="3.24507" fill="#52022A"/>
<rect x="29.6313" y="92.3042" width="1.78503" height="3.24507" fill="#52022A"/>
<rect x="23.5623" y="95.5493" width="2.14203" height="1.80282" fill="#52022A"/>
<rect x="23.5623" y="95.5493" width="2.14203" height="1.80282" fill="#52022A"/>
<rect x="23.5623" y="95.5493" width="2.14203" height="1.80282" fill="#52022A"/>
<rect x="19.9922" y="90.5015" width="1.78503" height="3.24507" fill="#52022A"/>
<rect x="19.9922" y="90.5015" width="1.78503" height="3.24507" fill="#52022A"/>
<rect x="19.9922" y="90.5015" width="1.78503" height="3.24507" fill="#52022A"/>
<rect x="19.9922" y="83.29" width="1.78503" height="5.40845" fill="#52022A"/>
<rect x="19.9922" y="83.29" width="1.78503" height="5.40845" fill="#52022A"/>
<rect x="19.9922" y="83.29" width="1.78503" height="5.40845" fill="#52022A"/>
<rect x="49.9807" y="57.3296" width="5.71208" height="2.16338" fill="#65042B"/>
<rect x="78.5413" y="67.0647" width="5.71208" height="1.80282" fill="#65042B"/>
<rect x="80.3262" y="65.262" width="2.14203" height="1.80282" fill="#65042B"/>
<rect x="72.8291" y="63.0986" width="2.14203" height="1.80282" fill="#65042B"/>
<rect x="72.8291" y="64.9014" width="5.71208" height="2.16338" fill="#65042B"/>
<rect x="44.2686" y="65.262" width="5.71208" height="1.80282" fill="#65042B"/>
<rect x="49.9807" y="61.2959" width="2.14203" height="3.9662" fill="#65042B"/>
<rect x="40.6985" y="85.093" width="3.57005" height="1.80282" fill="#6C0232"/>
<rect x="42.4836" y="86.8958" width="1.78503" height="1.80282" fill="#6C0232"/>
<rect x="34.9866" y="85.093" width="1.78503" height="1.80282" fill="#6C0232"/>
<rect x="36.7715" y="83.29" width="2.14203" height="1.80282" fill="#6C0232"/>
<rect x="21.7773" y="83.29" width="3.92706" height="1.80282" fill="#6C0232"/>
<rect x="52.1228" y="95.9099" width="1.78503" height="1.44225" fill="#D29E78"/>
<rect x="51.7659" y="103.121" width="2.14203" height="1.80282" fill="#D29E78"/>
<rect x="51.7659" y="106.727" width="2.14203" height="4.32676" fill="#D29E78"/>
<rect x="49.9807" y="114.659" width="1.78503" height="2.16338" fill="#D29E78"/>
<rect x="48.1958" y="116.823" width="1.78503" height="1.80282" fill="#D29E78"/>
<rect x="44.2686" y="122.592" width="3.92706" height="1.80282" fill="#D29E78"/>
<rect x="44.2686" y="124.394" width="2.14203" height="1.80282" fill="#D29E78"/>
<rect x="44.2686" y="116.462" width="1.78503" height="2.16338" fill="#D29E78"/>
<rect x="42.8406" y="120.428" width="1.42802" height="2.16338" fill="#D29E78"/>
<rect x="38.9136" y="122.592" width="1.78503" height="1.80282" fill="#D29E78"/>
<rect x="44.2686" y="118.625" width="5.71208" height="1.80282" fill="#B0704E"/>
<rect x="48.1958" y="120.428" width="1.78503" height="1.80282" fill="#B0704E"/>
<rect x="49.9807" y="116.823" width="3.92706" height="1.80282" fill="#B0704E"/>
<rect x="46.4106" y="124.394" width="1.78503" height="3.60563" fill="#91022D"/>
<rect x="46.4106" y="124.394" width="1.78503" height="3.60563" fill="#91022D"/>
<rect x="46.4106" y="124.394" width="1.78503" height="3.60563" fill="#91022D"/>
<rect x="44.2686" y="126.197" width="2.14203" height="1.80282" fill="#91022D"/>
<rect x="44.2686" y="126.197" width="2.14203" height="1.80282" fill="#91022D"/>
<rect x="44.2686" y="126.197" width="2.14203" height="1.80282" fill="#91022D"/>
<rect x="53.9077" y="122.231" width="1.78503" height="3.60563" fill="#91022D"/>
<rect x="53.9077" y="122.231" width="1.78503" height="3.60563" fill="#91022D"/>
<rect x="53.9077" y="122.231" width="1.78503" height="3.60563" fill="#91022D"/>
<rect x="67.4739" y="120.428" width="7.1401" height="1.80282" fill="#91022D"/>
<rect x="67.4739" y="120.428" width="7.1401" height="1.80282" fill="#91022D"/>
<rect x="67.4739" y="120.428" width="7.1401" height="1.80282" fill="#91022D"/>
<rect x="73.186" y="122.231" width="1.42802" height="1.80282" fill="#91022D"/>
<rect x="73.186" y="122.231" width="1.42802" height="1.80282" fill="#91022D"/>
<rect x="73.186" y="122.231" width="1.42802" height="1.80282" fill="#91022D"/>
</svg>
