<svg width="128" height="128" viewBox="0 0 128 128" fill="none" xmlns="http://www.w3.org/2000/svg">
<path d="M50.1305 7.57183V5.76901H52.2368V7.57183H54.3432V9.37465H56.8707V7.57183H58.9771V5.76901H61.0834V1.80282H63.611V0H68.2449V1.80282H70.3512V3.60563H72.4575V5.40845H74.5639V3.60563H77.0914V5.40845H74.5639V7.57183H76.6702V9.73521H81.3041V11.8986H83.8317V13.7014H85.938V11.8986H88.4656V13.7014H90.5719V15.5042H88.0443V17.307H96.8909V20.9127H94.7846V23.0761H92.6782V25.2394H101.525V27.0423H99.4185V31.0085H101.525V29.2056H105.737V31.0085H107.844V34.6141H105.737V40.3831H103.631V42.1859H105.737V43.9887H107.844V42.1859H112.056V40.3831H113.741V42.1859H115.848V43.9887H113.741V45.7915H109.95V47.7747H120.482V51.5606H118.375V53.3634H120.482V55.5268H124.694V59.493H122.588V61.2958H120.482V63.4592H124.694V65.262H120.482V67.0648H122.588V68.8676H124.694V70.6704H122.588V72.4732H124.694V74.2761H120.482V76.0789H116.269V77.8817H109.95V79.6845H112.056V81.4873H114.163V85.093H112.056V86.8958H109.95V90.5014H103.631V88.6986H101.525V86.8958H96.8909V88.6986H92.6782V86.8958H90.1507V88.6986H88.0443V92.6648H85.938V90.5014H83.8317V88.6986H81.7254V92.6648H77.0914V94.107H74.5639V95.9099H72.4575V99.5155H70.7725V112.856H72.4575V114.659H74.5639V116.823H79.1978V118.625H81.7254V120.428H88.0443V124.034H86.3593V122.231H83.8317V124.034H79.1978V122.231H74.5639V124.034H72.4575V125.837H68.2449V122.231H65.7173V125.837H63.611V122.231H61.0834V124.394H56.8707V128H52.2368V126.197H45.4966V124.394H43.3903V122.592H45.9179V120.428H50.1305V118.625H52.2368V116.462H56.8707V112.856H58.9771V99.1549H56.8707V97.3521H54.3432V95.9099H52.2368V94.107H50.1305V92.3042H41.2839V90.5014H39.1776V92.3042H37.0713V95.5493H34.965V93.7465H32.4374V95.5493H30.3311V97.3521H27.8035V95.5493H21.0632V93.7465H23.5908V90.5014H21.4845V88.6986H19.3782V86.8958H16.8506V88.6986H13.0592V86.8958H6.74024V83.2901H4.21265V81.4873H2.10632V79.6845H0V77.8817H2.10632V76.0789H4.21265V72.4732H6.31897V70.6704H4.21265V68.8676H2.10632V67.0648H0V65.262H8.84656V63.0986H12.6379V59.493H6.74024V57.3296H4.21265V55.1662H2.10632V53.3634H8.84656V51.2H12.6379V49.3972H14.7443V47.5944H12.6379V45.7915H19.3782V43.9887H21.4845V45.7915H23.1696V42.1859H25.6971V40.0225H27.8035V38.5803H30.3311V36.4169H27.8035V34.6141H25.6971V31.0085H32.4374V28.8451H34.965V27.0423H30.7523V25.2394H34.965V27.0423H37.0713V28.8451H39.1776V27.0423V24.8789H41.2839V22.7155H37.0713V17.307H39.1776V15.1437H43.3903V13.3408H45.9179V9.37465H48.0242V7.57183H50.1305Z" fill="#FE6E32"/>
<path d="M65.7174 0H68.245V3.60563H65.7174V5.76901H63.6111V1.80282H65.7174V0Z" fill="#FAF8FD"/>
<rect x="63.6111" width="2.10632" height="1.80282" fill="#D10C3A"/>
<rect x="70.3513" y="3.60571" width="2.10632" height="3.9662" fill="#D10C3A"/>
<rect x="72.4575" y="5.40845" width="2.10632" height="6.12958" fill="#D10C3A"/>
<rect x="79.1978" y="15.5042" width="2.10632" height="7.57183" fill="#D10C3A"/>
<rect x="81.304" y="17.3071" width="2.52759" height="7.93239" fill="#D10C3A"/>
<rect x="88.0442" y="19.1099" width="2.52759" height="5.76901" fill="#D10C3A"/>
<rect x="90.572" y="19.1099" width="4.21265" height="2.16338" fill="#D10C3A"/>
<rect x="83.8318" y="19.1099" width="4.21265" height="9.73521" fill="#D10C3A"/>
<path d="M94.7847 27.0422H96.891V31.0084H99.4186V36.7774H101.525V38.5803H92.6783V36.7774H90.572V34.6141H94.7847V32.8113H92.6783V31.0084H94.7847V27.0422Z" fill="#D10C3A"/>
<rect x="83.8318" y="13.7014" width="2.10632" height="1.80282" fill="#D10C3A"/>
<rect x="58.9768" y="5.76904" width="2.10632" height="1.80282" fill="#D10C3A"/>
<rect x="56.8706" y="7.57178" width="2.10632" height="1.80282" fill="#D10C3A"/>
<rect x="52.2371" y="7.57178" width="2.10632" height="1.80282" fill="#D10C3A"/>
<rect x="50.1304" y="5.76904" width="2.10632" height="1.80282" fill="#D10C3A"/>
<rect x="50.1304" y="9.37476" width="2.10632" height="1.80282" fill="#D10C3A"/>
<rect x="45.918" y="15.1436" width="2.10632" height="2.16338" fill="#D10C3A"/>
<rect x="39.1777" y="19.1099" width="2.10632" height="1.80282" fill="#D10C3A"/>
<rect x="43.3901" y="13.3408" width="2.52759" height="1.80282" fill="#D10C3A"/>
<rect x="39.1777" y="15.1436" width="2.10632" height="2.16338" fill="#D10C3A"/>
<rect x="43.3901" y="23.0762" width="2.52759" height="5.76901" fill="#D10C3A"/>
<rect x="45.918" y="9.37476" width="2.10632" height="3.9662" fill="#D10C3A"/>
<rect x="74.564" y="17.3071" width="2.52759" height="5.76901" fill="#D10C3A"/>
<path d="M72.4576 19.1099H74.564V23.0761H72.4576H70.3513V20.9127L72.4576 19.1099Z" fill="#D10C3A"/>
<rect x="77.0916" y="17.3071" width="2.10632" height="1.80282" fill="#D10C3A"/>
<rect x="61.0835" y="1.80273" width="2.52759" height="3.9662" fill="#D10C3A"/>
<rect x="61.0835" y="5.76904" width="2.52759" height="1.80282" fill="#FAF8FD"/>
<rect x="85.938" y="13.7014" width="2.52759" height="1.80282" fill="#FAF8FD"/>
<rect x="63.6111" y="7.57178" width="2.10632" height="1.80282" fill="#FAF8FD"/>
<rect x="63.6111" y="7.57178" width="2.10632" height="1.80282" fill="#FAF8FD"/>
<rect x="45.918" y="19.1099" width="2.10632" height="1.80282" fill="#FAF8FD"/>
<rect x="41.2839" y="19.1099" width="2.10632" height="1.80282" fill="#FAF8FD"/>
<rect x="41.2839" y="24.8789" width="2.10632" height="2.16338" fill="#FAF8FD"/>
<rect x="39.1777" y="27.0422" width="2.10632" height="1.80282" fill="#FAF8FD"/>
<rect x="39.1777" y="38.5803" width="2.10632" height="1.80282" fill="#FAF8FD"/>
<rect x="34.9648" y="38.5803" width="2.10632" height="1.80282" fill="#FAF8FD"/>
<rect x="19.3782" y="45.7915" width="2.10632" height="1.80282" fill="#FAF8FD"/>
<rect x="14.7441" y="49.3972" width="2.10632" height="1.80282" fill="#FAF8FD"/>
<rect x="6.74023" y="53.3633" width="2.10632" height="1.80282" fill="#FAF8FD"/>
<rect x="10.5317" y="53.3633" width="2.10632" height="1.80282" fill="#FAF8FD"/>
<rect x="12.6379" y="51.2" width="2.10632" height="2.16338" fill="#FAF8FD"/>
<rect x="37.0713" y="40.3831" width="2.10632" height="1.80282" fill="#FAF8FD"/>
<rect x="43.3901" y="32.8113" width="2.52759" height="2.16338" fill="#FAF8FD"/>
<rect x="34.9648" y="32.8113" width="6.31897" height="2.16338" fill="#FAF8FD"/>
<rect x="39.1777" y="36.417" width="6.74023" height="2.16338" fill="#FAF8FD"/>
<rect x="45.4966" y="34.614" width="2.52759" height="2.16338" fill="#FAF8FD"/>
<rect x="48.0242" y="49.3972" width="2.52759" height="2.16338" fill="#FAF8FD"/>
<rect x="18.9568" y="53.3633" width="2.52759" height="2.16338" fill="#FAF8FD"/>
<rect x="48.0242" y="40.0225" width="2.52759" height="3.9662" fill="#FAF8FD"/>
<rect x="41.2839" y="43.6282" width="4.63391" height="2.16338" fill="#FAF8FD"/>
<rect x="41.2839" y="30.6479" width="2.10632" height="4.32676" fill="#FAF8FD"/>
<rect x="37.0713" y="34.2534" width="2.10632" height="4.32676" fill="#FAF8FD"/>
<rect x="34.9648" y="28.845" width="4.21265" height="1.80282" fill="#FAF8FD"/>
<rect x="32.4375" y="30.6479" width="4.63391" height="2.16338" fill="#FAF8FD"/>
<rect x="30.3308" y="40.3831" width="4.63391" height="2.16338" fill="#FAF8FD"/>
<rect x="18.9568" y="49.3972" width="4.63391" height="1.80282" fill="#FAF8FD"/>
<rect x="58.9768" y="24.8789" width="2.52759" height="1.80282" fill="#FAF8FD"/>
<rect x="65.7173" y="23.0762" width="2.10632" height="1.80282" fill="#FAF8FD"/>
<rect x="50.1304" y="27.0422" width="2.10632" height="1.80282" fill="#FAF8FD"/>
<rect x="54.3433" y="26.6816" width="4.63391" height="2.16338" fill="#FAF8FD"/>
<rect x="43.3901" y="20.9126" width="2.52759" height="2.16338" fill="#FAF8FD"/>
<rect x="48.0242" y="24.8789" width="8.84656" height="2.16338" fill="#FAF8FD"/>
<rect x="52.2371" y="23.0762" width="4.63391" height="1.80282" fill="#FAF8FD"/>
<rect x="54.7644" y="20.9126" width="4.21265" height="2.16338" fill="#FAF8FD"/>
<rect x="61.0835" y="20.9126" width="4.63391" height="2.16338" fill="#FAF8FD"/>
<rect x="94.7844" y="51.2" width="4.63391" height="2.16338" fill="#FAF8FD"/>
<rect x="96.8911" y="53.3633" width="4.63391" height="2.16338" fill="#FAF8FD"/>
<rect x="96.8911" y="55.5269" width="2.52759" height="1.80282" fill="#FAF8FD"/>
<rect x="92.2571" y="47.5945" width="2.52759" height="2.16338" fill="#FAF8FD"/>
<rect x="92.2571" y="53.3633" width="2.52759" height="2.16338" fill="#FAF8FD"/>
<rect x="90.572" y="51.2" width="1.68506" height="2.16338" fill="#FAF8FD"/>
<rect x="88.0442" y="53.3633" width="2.52759" height="2.16338" fill="#FAF8FD"/>
<rect x="68.2451" y="65.262" width="2.10632" height="1.80282" fill="#FAF8FD"/>
<rect x="72.4575" y="85.093" width="2.10632" height="1.80282" fill="#FAF8FD"/>
<rect x="77.0916" y="88.6985" width="2.10632" height="1.80282" fill="#FAF8FD"/>
<rect x="54.7644" y="86.8958" width="2.10632" height="6.8507" fill="#FAF8FD"/>
<rect x="52.2371" y="88.6985" width="2.52759" height="1.80282" fill="#FAF8FD"/>
<rect x="52.2371" y="90.5015" width="2.52759" height="1.80282" fill="#FAF8FD"/>
<rect x="56.8706" y="88.6985" width="2.10632" height="7.21127" fill="#FAF8FD"/>
<rect x="65.7173" y="67.0647" width="2.10632" height="1.80282" fill="#FAF8FD"/>
<rect x="61.5046" y="68.8677" width="2.10632" height="1.80282" fill="#FAF8FD"/>
<rect x="32.8586" y="68.8677" width="2.10632" height="1.80282" fill="#FAF8FD"/>
<rect x="30.7522" y="67.0647" width="2.10632" height="1.80282" fill="#FAF8FD"/>
<rect x="32.8586" y="72.4731" width="2.10632" height="1.80282" fill="#FAF8FD"/>
<rect x="25.6973" y="70.6704" width="2.10632" height="3.60563" fill="#FAF8FD"/>
<rect x="27.8035" y="68.8677" width="1.26379" height="3.60563" fill="#FAF8FD"/>
<rect x="13.0593" y="74.2761" width="12.6379" height="1.80282" fill="#FAF8FD"/>
<rect x="23.5908" y="68.8677" width="2.10632" height="1.80282" fill="#FAF8FD"/>
<rect x="19.3782" y="72.4731" width="2.10632" height="1.80282" fill="#FAF8FD"/>
<rect x="21.4844" y="70.6704" width="2.10632" height="3.60563" fill="#FAF8FD"/>
<rect x="63.6111" y="65.262" width="2.10632" height="3.60563" fill="#FAF8FD"/>
<rect x="68.2451" y="59.4929" width="2.10632" height="3.60563" fill="#FAF8FD"/>
<rect x="101.525" y="51.2" width="2.10632" height="2.16338" fill="#FAF8FD"/>
<rect x="50.1304" y="13.3408" width="2.10632" height="3.60563" fill="#FAF8FD"/>
<rect x="48.0242" y="15.1436" width="2.10632" height="7.93239" fill="#FAF8FD"/>
<rect x="52.2371" y="16.9465" width="2.52759" height="3.9662" fill="#FAF8FD"/>
<rect x="50.1304" y="18.7493" width="2.10632" height="4.32676" fill="#FAF8FD"/>
<rect x="45.918" y="23.0762" width="2.10632" height="3.9662" fill="#FAF8FD"/>
<path d="M58.9768 7.57178H61.0831V9.37459H63.6107V11.538H61.0831H58.9768V7.57178Z" fill="#FAF8FD"/>
<rect x="54.7644" y="11.5381" width="2.10632" height="1.80282" fill="#D10C3A"/>
<rect x="48.0242" y="63.0986" width="2.10632" height="2.16338" fill="#65042B"/>
<rect x="43.3901" y="63.0986" width="2.10632" height="2.16338" fill="#65042B"/>
<rect x="41.2839" y="61.2959" width="2.10632" height="1.80282" fill="#65042B"/>
<rect x="106.727" y="63.0986" width="1.80282" height="1.80282" fill="#43001B"/>
<rect x="61.0527" y="7.57178" width="2.52632" height="1.80282" fill="#FE6E32"/>
<rect x="50.1052" y="16.9465" width="2.10526" height="1.80282" fill="#FE6E32"/>
<rect x="37.0527" y="19.1099" width="2.10526" height="1.80282" fill="#FE6E32"/>
<rect x="45.8948" y="20.9126" width="2.10526" height="2.16338" fill="#FE6E32"/>
<rect x="48" y="27.0422" width="2.10526" height="1.80282" fill="#FE6E32"/>
<rect x="37.0527" y="30.6479" width="2.10526" height="2.16338" fill="#FE6E32"/>
<rect x="43.3684" y="30.6479" width="2.52632" height="2.16338" fill="#FE6E32"/>
<rect x="39.158" y="30.6479" width="2.10526" height="2.16338" fill="#FE6E32"/>
<rect x="39.158" y="28.845" width="6.73684" height="1.80282" fill="#FE6E32"/>
<rect x="48" y="23.0762" width="4.21053" height="1.80282" fill="#FE6E32"/>
<rect x="37.0527" y="17.3071" width="4.21053" height="1.80282" fill="#FE6E32"/>
<rect x="37.0527" y="20.9126" width="4.21053" height="1.80282" fill="#FE6E32"/>
<rect x="52.2104" y="20.9126" width="2.52632" height="2.16338" fill="#FE6E32"/>
<path d="M41.2632 15.1436H45.8948V17.3069H48V19.1098H45.8948V20.9126H43.3684V19.1098H41.2632V15.1436Z" fill="#FE6E32"/>
<rect x="65.6843" y="7.57178" width="2.52632" height="1.80282" fill="#FE6E32"/>
<rect x="90.5264" y="17.3071" width="2.10526" height="1.80282" fill="#FE6E32"/>
<rect x="77.0527" y="19.1099" width="2.10526" height="2.16338" fill="#FE6E32"/>
<rect x="79.158" y="23.0762" width="2.10526" height="3.9662" fill="#FE6E32"/>
<rect x="74.5264" y="28.845" width="2.52632" height="5.76901" fill="#FE6E32"/>
<rect x="72.4211" y="32.8113" width="2.10526" height="5.76901" fill="#FE6E32"/>
<rect x="77.0527" y="31.0085" width="2.10526" height="3.60563" fill="#FE6E32"/>
<rect x="79.158" y="31.0085" width="2.10526" height="5.76901" fill="#FE6E32"/>
<rect x="81.2632" y="28.845" width="2.10526" height="7.93239" fill="#FE6E32"/>
<rect x="83.3684" y="28.845" width="2.52632" height="3.9662" fill="#FE6E32"/>
<rect x="85.8948" y="31.0085" width="2.10526" height="5.76901" fill="#FE6E32"/>
<rect x="88" y="32.8113" width="2.52632" height="7.57183" fill="#FE6E32"/>
<rect x="94.7368" y="43.9888" width="4.63158" height="7.21127" fill="#FE6E32"/>
<rect x="99.3684" y="43.9888" width="2.10526" height="3.60563" fill="#FE6E32"/>
<rect x="99.3684" y="49.3972" width="2.10526" height="1.80282" fill="#FE6E32"/>
<rect x="85.8948" y="49.3972" width="8.84211" height="1.80282" fill="#FE6E32"/>
<rect x="90.1052" y="47.5945" width="2.10526" height="1.80282" fill="#FE6E32"/>
<rect x="85.8948" y="51.2" width="4.63158" height="2.16338" fill="#FE6E32"/>
<rect x="81.2632" y="51.5605" width="4.63158" height="1.80282" fill="#FE6E32"/>
<rect x="77.0527" y="53.3633" width="10.9474" height="2.16338" fill="#FE6E32"/>
<rect x="81.2632" y="55.5269" width="15.5789" height="1.80282" fill="#FE6E32"/>
<rect x="90.5264" y="53.3633" width="1.68421" height="2.16338" fill="#FE6E32"/>
<rect x="94.7368" y="53.3633" width="2.10526" height="2.16338" fill="#FE6E32"/>
<rect x="83.7896" y="57.3296" width="2.10526" height="2.16338" fill="#FE6E32"/>
<rect x="88.4211" y="57.3296" width="17.2632" height="2.16338" fill="#FE6E32"/>
<rect x="90.5264" y="59.4929" width="4.21053" height="3.60563" fill="#FE6E32"/>
<rect x="99.3684" y="59.4929" width="2.10526" height="3.60563" fill="#FE6E32"/>
<rect x="97.2632" y="63.0986" width="2.10526" height="3.9662" fill="#FE6E32"/>
<rect x="101.474" y="59.4929" width="2.10526" height="1.80282" fill="#FE6E32"/>
<rect x="103.579" y="63.0986" width="2.10526" height="1.80282" fill="#FE6E32"/>
<rect x="94.7368" y="63.0986" width="2.52632" height="2.16338" fill="#FE6E32"/>
<rect x="99.3684" y="55.5269" width="8.42105" height="1.80282" fill="#FE6E32"/>
<rect x="103.579" y="47.5945" width="2.10526" height="5.76901" fill="#FE6E32"/>
<rect x="105.684" y="51.2" width="2.10526" height="2.16338" fill="#FE6E32"/>
<rect x="101.474" y="53.3633" width="2.10526" height="2.16338" fill="#FE6E32"/>
<rect x="90.5264" y="28.845" width="2.10526" height="5.76901" fill="#FE6E32"/>
<rect x="92.6316" y="32.8113" width="2.10526" height="1.80282" fill="#FE6E32"/>
<rect x="90.5264" y="36.7773" width="2.10526" height="1.80282" fill="#FE6E32"/>
<rect x="83.3684" y="34.614" width="2.52632" height="2.16338" fill="#FE6E32"/>
<rect x="70.3157" y="32.8113" width="2.10526" height="1.80282" fill="#FE6E32"/>
<rect x="68.2104" y="36.7773" width="2.10526" height="1.80282" fill="#FE6E32"/>
<rect x="66.1052" y="34.614" width="4.21053" height="2.16338" fill="#FE6E32"/>
<rect x="74.5264" y="34.614" width="2.52632" height="3.9662" fill="#FE6E32"/>
<rect x="77.0527" y="24.8789" width="2.10526" height="3.9662" fill="#FE6E32"/>
<rect x="74.5264" y="24.8789" width="2.52632" height="2.16338" fill="#FE6E32"/>
<rect x="81.2632" y="24.8789" width="2.52632" height="2.16338" fill="#FE6E32"/>
<path d="M63.5789 5.76909H65.6841V3.60571H70.3157V5.76909V7.57191H63.5789V5.76909Z" fill="#FE6E32"/>
<rect x="72.4211" y="11.5381" width="6.73684" height="5.76901" fill="#FF5C36"/>
<rect x="77.0527" y="38.5803" width="4.21053" height="3.60563" fill="#FF5C36"/>
<rect x="85.8948" y="38.5803" width="2.10526" height="3.60563" fill="#FF5C36"/>
<rect x="63.5789" y="45.7915" width="2.10526" height="5.76901" fill="#FF5C36"/>
<rect x="61.0527" y="47.5945" width="2.52632" height="3.9662" fill="#FF5C36"/>
<rect x="59.3684" y="49.3972" width="1.68421" height="4.32676" fill="#FF5C36"/>
<rect x="52.2104" y="51.2" width="7.15789" height="2.52394" fill="#FF5C36"/>
<rect x="58.5264" y="42.186" width="2.52632" height="5.40845" fill="#FF5C36"/>
<rect x="32.4211" y="47.5945" width="2.52632" height="1.80282" fill="#FF5C36"/>
<rect x="30.3157" y="42.5464" width="2.10526" height="6.8507" fill="#FF5C36"/>
<rect x="27.7896" y="40.3831" width="2.52632" height="9.01408" fill="#FF5C36"/>
<rect x="52.2104" y="49.3972" width="4.63158" height="1.80282" fill="#FF5C36"/>
<rect x="37.0527" y="55.5269" width="4.21053" height="1.80282" fill="#FF5C36"/>
<path d="M30.3157 53.3633H34.9473V55.5267H32.6315V57.5098H30.3157V55.5267V53.3633Z" fill="#FF5C36"/>
<rect x="65.6843" y="43.9888" width="2.10526" height="5.76901" fill="#FF5C36"/>
<rect x="69.8948" y="47.5945" width="4.63158" height="1.80282" fill="#FF5C36"/>
<rect x="67.7896" y="43.9888" width="2.10526" height="7.57183" fill="#FF5C36"/>
<rect x="105.684" y="45.7915" width="2.10526" height="1.80282" fill="#FF5C36"/>
<rect x="107.79" y="53.3633" width="2.10526" height="9.73521" fill="#FF5C36"/>
<rect x="107.79" y="51.2" width="4.21053" height="2.16338" fill="#FF5C36"/>
<rect x="105.684" y="57.3296" width="2.10526" height="2.16338" fill="#FF5C36"/>
<rect x="109.895" y="55.1663" width="2.10526" height="4.32676" fill="#FF5C36"/>
<rect x="99.3684" y="51.2" width="2.10526" height="2.16338" fill="#FF5C36"/>
<rect x="92.2104" y="51.2" width="2.52632" height="2.16338" fill="#FF5C36"/>
<rect x="109.895" y="59.4929" width="6.31579" height="1.80282" fill="#FF5C36"/>
<rect x="112" y="57.3296" width="8.42105" height="2.16338" fill="#FF5C36"/>
<rect x="70.3157" y="11.5381" width="2.10526" height="4.68732" fill="#FF5C36"/>
<rect x="70.3157" y="23.0762" width="6.73684" height="1.80282" fill="#AF0243"/>
<path d="M72.4211 24.8789H74.5264V27.0423H77.0527V28.8451H74.5264V31.0085H72.4211V24.8789Z" fill="#AF0243"/>
<rect x="68.2104" y="1.80273" width="2.10526" height="1.80282" fill="#DC0048"/>
<rect x="68.2104" y="1.80273" width="2.10526" height="1.80282" fill="#DC0048"/>
<rect x="74.5264" y="9.73511" width="2.10526" height="1.80282" fill="#DC0048"/>
<rect x="79.158" y="13.7014" width="2.10526" height="1.80282" fill="#DC0048"/>
<rect x="77.0527" y="21.2732" width="2.10526" height="3.60563" fill="#DC0048"/>
<rect x="103.579" y="31.0085" width="2.10526" height="3.60563" fill="#DC0048"/>
<rect x="99.3684" y="32.8113" width="2.10526" height="3.9662" fill="#DC0048"/>
<rect x="101.474" y="32.8113" width="2.10526" height="9.37465" fill="#DC0048"/>
<path d="M101.474 43.9888H103.579V51.2H101.474V49.3972H99.3684V47.5944H101.474V43.9888Z" fill="#DC0048"/>
<path d="M79.158 27.0422H81.2633H83.7896V28.8451H81.2633V31.0084H77.0527V28.8451H79.158V27.0422Z" fill="#DC0048"/>
<rect x="70.3157" y="29.2056" width="2.10526" height="1.80282" fill="#DC0048"/>
<rect x="72.4211" y="31.0085" width="2.10526" height="1.80282" fill="#DC0048"/>
<rect x="83.3684" y="32.8113" width="2.52632" height="1.80282" fill="#DC0048"/>
<rect x="77.0527" y="34.614" width="2.10526" height="3.9662" fill="#DC0048"/>
<rect x="70.3157" y="34.614" width="2.10526" height="3.9662" fill="#DC0048"/>
<rect x="66.1052" y="36.7773" width="2.10526" height="3.60563" fill="#DC0048"/>
<rect x="54.3157" y="36.7773" width="2.52632" height="1.80282" fill="#DC0048"/>
<rect x="48" y="45.7915" width="2.52632" height="1.80282" fill="#DC0048"/>
<rect x="56.842" y="47.5945" width="2.52632" height="3.60563" fill="#DC0048"/>
<rect x="52.2104" y="31.0085" width="4.63158" height="3.60563" fill="#DC0048"/>
<rect x="47.5789" y="28.845" width="4.63158" height="3.9662" fill="#DC0048"/>
<rect x="45.8948" y="27.0422" width="2.10526" height="7.57183" fill="#DC0048"/>
<rect x="25.6843" y="45.7915" width="2.10526" height="5.40845" fill="#DC0048"/>
<rect x="41.2632" y="27.0422" width="2.10526" height="1.80282" fill="#DC0048"/>
<rect x="34.9473" y="27.0422" width="2.10526" height="1.80282" fill="#DC0048"/>
<rect x="25.6843" y="32.8113" width="2.10526" height="1.80282" fill="#DC0048"/>
<rect x="34.9473" y="47.5945" width="2.10526" height="3.60563" fill="#DC0048"/>
<rect x="32.4211" y="55.5269" width="2.52632" height="3.9662" fill="#DC0048"/>
<rect x="37.0527" y="61.2959" width="4.21053" height="3.60563" fill="#DC0048"/>
<rect x="30.3157" y="57.3296" width="2.10526" height="2.16338" fill="#DC0048"/>
<rect x="39.158" y="64.9014" width="2.10526" height="1.80282" fill="#DC0048"/>
<rect x="45.8948" y="68.8677" width="2.10526" height="1.80282" fill="#DC0048"/>
<rect x="52.2104" y="67.0647" width="2.10526" height="3.60563" fill="#DC0048"/>
<rect x="45.8948" y="74.2761" width="8.42105" height="3.60563" fill="#DC0048"/>
<rect x="50.1052" y="55.5269" width="2.10526" height="9.73521" fill="#DC0048"/>
<rect x="54.3157" y="67.0647" width="4.63158" height="1.80282" fill="#DC0048"/>
<rect x="61.0527" y="72.4731" width="2.52632" height="1.80282" fill="#DC0048"/>
<rect x="67.7896" y="68.8677" width="2.52632" height="1.80282" fill="#DC0048"/>
<rect x="74.5264" y="68.8677" width="2.10526" height="1.80282" fill="#DC0048"/>
<rect x="76.6316" y="67.0647" width="2.52632" height="1.80282" fill="#DC0048"/>
<rect x="63.5789" y="76.0789" width="2.10526" height="1.80282" fill="#DC0048"/>
<rect x="61.0527" y="74.2761" width="4.63158" height="1.80282" fill="#DC0048"/>
<rect x="56.842" y="76.0789" width="4.21053" height="1.80282" fill="#DC0048"/>
<rect x="56.842" y="83.29" width="2.10526" height="1.80282" fill="#DC0048"/>
<rect x="61.4736" y="61.2959" width="4.21053" height="1.80282" fill="#DC0048"/>
<rect x="58.9473" y="59.4929" width="2.10526" height="1.80282" fill="#DC0048"/>
<rect x="41.2632" y="55.5269" width="4.63158" height="1.80282" fill="#DC0048"/>
<rect x="39.158" y="57.3296" width="10.9474" height="2.16338" fill="#DC0048"/>
<rect x="52.2104" y="61.2959" width="2.10526" height="1.80282" fill="#DC0048"/>
<rect x="45.4736" y="63.0986" width="2.52632" height="2.16338" fill="#DC0048"/>
<rect x="54.3157" y="63.0986" width="2.52632" height="2.16338" fill="#DC0048"/>
<rect x="56.842" y="57.3296" width="2.10526" height="2.16338" fill="#DC0048"/>
<rect x="56.842" y="61.2959" width="2.10526" height="3.9662" fill="#DC0048"/>
<rect x="52.2104" y="55.5269" width="4.63158" height="1.80282" fill="#DC0048"/>
<rect x="41.2632" y="59.4929" width="8.84211" height="1.80282" fill="#DC0048"/>
<rect x="43.3684" y="61.2959" width="4.63158" height="1.80282" fill="#DC0048"/>
<rect x="48" y="65.262" width="4.21053" height="1.80282" fill="#DC0048"/>
<rect x="41.2632" y="70.6704" width="2.10526" height="1.80282" fill="#DC0048"/>
<rect x="43.7896" y="77.8816" width="2.10526" height="5.40845" fill="#DC0048"/>
<rect x="39.158" y="77.8816" width="2.10526" height="1.80282" fill="#DC0048"/>
<rect x="37.0527" y="79.6846" width="6.73684" height="1.80282" fill="#DC0048"/>
<rect x="17.2632" y="81.4873" width="26.5263" height="1.80282" fill="#DC0048"/>
<rect x="25.6843" y="78.2422" width="2.10526" height="1.80282" fill="#DC0048"/>
<rect x="30.3157" y="74.2761" width="2.52632" height="1.80282" fill="#DC0048"/>
<rect x="25.2632" y="77.8816" width="2.52632" height="1.80282" fill="#DC0048"/>
<rect x="22.7368" y="79.6846" width="2.52632" height="1.80282" fill="#DC0048"/>
<rect x="15.158" y="83.29" width="8.42105" height="1.80282" fill="#DC0048"/>
<rect x="15.158" y="85.093" width="8.42105" height="1.80282" fill="#DC0048"/>
<rect x="21.4736" y="86.8958" width="2.10526" height="1.80282" fill="#DC0048"/>
<rect x="27.7896" y="79.6846" width="7.15789" height="1.80282" fill="#DC0048"/>
<rect x="32.842" y="76.0789" width="8.42105" height="1.80282" fill="#DC0048"/>
<rect x="32.842" y="77.8816" width="4.21053" height="1.80282" fill="#DC0048"/>
<rect x="43.7896" y="74.2761" width="2.10526" height="1.80282" fill="#DC0048"/>
<rect x="48" y="77.8816" width="1.68421" height="1.80282" fill="#DC0048"/>
<rect x="45.8948" y="79.6846" width="2.10526" height="1.80282" fill="#DC0048"/>
<rect x="43.3684" y="85.093" width="4.63158" height="1.80282" fill="#DC0048"/>
<rect x="37.0527" y="85.093" width="4.21053" height="1.80282" fill="#DC0048"/>
<rect x="34.9473" y="86.8958" width="4.21053" height="1.80282" fill="#DC0048"/>
<rect x="25.6843" y="86.8958" width="4.63158" height="1.80282" fill="#DC0048"/>
<rect x="41.2632" y="88.6985" width="6.73684" height="1.80282" fill="#DC0048"/>
<rect x="48" y="86.8958" width="2.10526" height="1.80282" fill="#DC0048"/>
<rect x="37.0527" y="88.6985" width="2.10526" height="1.80282" fill="#DC0048"/>
<rect x="27.7896" y="93.7466" width="2.52632" height="1.80282" fill="#DC0048"/>
<rect x="27.7896" y="85.093" width="2.52632" height="1.80282" fill="#DC0048"/>
<rect x="25.6843" y="90.5015" width="6.73684" height="3.24507" fill="#DC0048"/>
<rect x="27.7896" y="88.6985" width="7.15789" height="2.16338" fill="#DC0048"/>
<rect x="32.4211" y="83.29" width="10.9474" height="1.80282" fill="#DC0048"/>
<rect x="48" y="81.4873" width="4.21053" height="1.80282" fill="#DC0048"/>
<rect x="54.3157" y="79.6846" width="2.52632" height="3.60563" fill="#DC0048"/>
<rect x="45.8948" y="72.4731" width="6.31579" height="1.80282" fill="#DC0048"/>
<rect x="43.3684" y="67.0647" width="4.63158" height="1.80282" fill="#DC0048"/>
<rect x="41.2632" y="63.0986" width="2.10526" height="5.76901" fill="#DC0048"/>
<rect x="28.2104" y="55.5269" width="2.10526" height="1.80282" fill="#DC0048"/>
<rect x="17.2632" y="63.0986" width="8.42105" height="1.80282" fill="#DC0048"/>
<rect x="21.4736" y="61.2959" width="6.31579" height="1.80282" fill="#DC0048"/>
<rect x="15.158" y="61.2959" width="4.21053" height="1.80282" fill="#DC0048"/>
<rect x="14.7368" y="68.8677" width="2.10526" height="3.60563" fill="#DC0048"/>
<rect x="6.73682" y="68.8677" width="4.21053" height="1.80282" fill="#DC0048"/>
<rect x="6.73682" y="67.0647" width="12.6316" height="1.80282" fill="#DC0048"/>
<rect x="8.84204" y="63.0986" width="4.21053" height="5.76901" fill="#DC0048"/>
<rect x="10.5264" y="79.6846" width="4.63158" height="5.40845" fill="#DC0048"/>
<rect x="23.5789" y="59.4929" width="6.73684" height="1.80282" fill="#DC0048"/>
<rect x="25.6843" y="57.3296" width="2.52632" height="2.16338" fill="#DC0048"/>
<rect x="16.842" y="72.4731" width="2.52632" height="1.80282" fill="#DC0048"/>
<rect x="8.42114" y="81.4873" width="2.10526" height="1.80282" fill="#DC0048"/>
<rect x="27.7896" y="49.3972" width="4.63158" height="1.80282" fill="#DC0048"/>
<rect x="25.6843" y="40.0225" width="2.10526" height="2.16338" fill="#DC0048"/>
<rect x="25.6843" y="31.0085" width="4.63158" height="1.80282" fill="#DC0048"/>
<rect x="59.3684" y="36.7773" width="1.68421" height="3.60563" fill="#DC0048"/>
<rect x="61.4736" y="32.8113" width="2.10526" height="3.9662" fill="#DC0048"/>
<rect x="63.5789" y="32.8113" width="2.10526" height="1.80282" fill="#DC0048"/>
<rect x="59.3684" y="32.8113" width="2.10526" height="3.9662" fill="#DC0048"/>
<rect x="56.842" y="32.8113" width="2.52632" height="7.57183" fill="#DC0048"/>
<rect x="79.158" y="43.9888" width="4.63158" height="1.80282" fill="#DC0048"/>
<rect x="69.8948" y="45.7915" width="5.05263" height="1.80282" fill="#DC0048"/>
<rect x="74.5264" y="47.5945" width="2.52632" height="7.93239" fill="#DC0048"/>
<rect x="83.7896" y="45.7915" width="2.10526" height="1.80282" fill="#DC0048"/>
<rect x="77.0527" y="45.7915" width="2.10526" height="1.80282" fill="#DC0048"/>
<rect x="77.0527" y="51.5605" width="2.10526" height="1.80282" fill="#DC0048"/>
<rect x="77.0527" y="55.5269" width="4.21053" height="1.80282" fill="#DC0048"/>
<rect x="61.0527" y="55.5269" width="6.73684" height="1.80282" fill="#DC0048"/>
<rect x="65.6843" y="49.7578" width="2.10526" height="1.80282" fill="#DC0048"/>
<rect x="52.2104" y="53.7239" width="15.5789" height="1.80282" fill="#DC0048"/>
<rect x="61.0527" y="51.5605" width="6.73684" height="2.16338" fill="#DC0048"/>
<rect x="72.4211" y="57.3296" width="2.10526" height="2.16338" fill="#DC0048"/>
<rect x="69.8948" y="55.5269" width="2.52632" height="3.9662" fill="#DC0048"/>
<rect x="67.7896" y="51.5605" width="2.10526" height="7.93239" fill="#DC0048"/>
<rect x="69.8948" y="49.3972" width="4.63158" height="6.12958" fill="#DC0048"/>
<rect x="59.3684" y="47.5945" width="1.68421" height="1.80282" fill="#DC0048"/>
<rect x="72.842" y="42.186" width="2.10526" height="1.80282" fill="#DC0048"/>
<rect x="74.9473" y="38.5803" width="2.10526" height="7.21127" fill="#DC0048"/>
<rect x="74.9473" y="38.5803" width="2.10526" height="7.21127" fill="#DC0048"/>
<rect x="85.8948" y="47.5945" width="4.21053" height="1.80282" fill="#DC0048"/>
<rect x="88" y="45.7915" width="6.73684" height="1.80282" fill="#DC0048"/>
<rect x="109.895" y="49.3972" width="6.31579" height="1.80282" fill="#DC0048"/>
<rect x="109.895" y="53.3633" width="6.31579" height="1.80282" fill="#DC0048"/>
<rect x="114.105" y="55.1663" width="8.42105" height="2.16338" fill="#DC0048"/>
<rect x="109.895" y="61.2959" width="8.42105" height="2.16338" fill="#DC0048"/>
<rect x="105.684" y="63.0986" width="10.5263" height="2.16338" fill="#DC0048"/>
<rect x="103.579" y="53.3633" width="4.21053" height="2.16338" fill="#DC0048"/>
<rect x="94.7368" y="59.4929" width="4.63158" height="3.60563" fill="#DC0048"/>
<rect x="122.526" y="57.3296" width="2.10526" height="2.16338" fill="#DC0048"/>
<rect x="120.421" y="63.4592" width="4.21053" height="1.80282" fill="#DC0048"/>
<rect x="116.21" y="59.4929" width="2.10526" height="1.80282" fill="#DC0048"/>
<rect x="107.79" y="70.6704" width="2.10526" height="1.80282" fill="#DC0048"/>
<rect x="109.895" y="79.6846" width="2.10526" height="1.80282" fill="#DC0048"/>
<rect x="107.79" y="76.0789" width="2.10526" height="5.40845" fill="#DC0048"/>
<rect x="79.158" y="86.8958" width="2.52632" height="1.80282" fill="#DC0048"/>
<rect x="83.7896" y="86.8958" width="4.21053" height="1.80282" fill="#DC0048"/>
<rect x="77.0527" y="83.29" width="4.21053" height="1.80282" fill="#DC0048"/>
<rect x="103.579" y="76.0789" width="2.10526" height="5.40845" fill="#DC0048"/>
<rect x="105.684" y="81.4873" width="2.10526" height="3.60563" fill="#DC0048"/>
<rect x="103.579" y="83.29" width="2.10526" height="5.40845" fill="#DC0048"/>
<rect x="101.474" y="85.093" width="2.10526" height="1.80282" fill="#DC0048"/>
<rect x="92.6316" y="76.0789" width="10.9474" height="1.80282" fill="#DC0048"/>
<rect x="83.3684" y="79.6846" width="18.1053" height="1.80282" fill="#DC0048"/>
<rect x="85.8948" y="81.4873" width="10.9474" height="1.80282" fill="#DC0048"/>
<rect x="98.9473" y="81.4873" width="4.63158" height="1.80282" fill="#DC0048"/>
<rect x="96.842" y="77.8816" width="4.63158" height="1.80282" fill="#DC0048"/>
<rect x="61.0527" y="77.8816" width="31.5789" height="1.80282" fill="#DC0048"/>
<rect x="96.842" y="83.29" width="4.63158" height="1.80282" fill="#DC0048"/>
<rect x="92.6316" y="85.093" width="2.10526" height="1.80282" fill="#DC0048"/>
<rect x="79.158" y="79.6846" width="2.10526" height="1.80282" fill="#DC0048"/>
<rect x="85.4736" y="76.0789" width="2.52632" height="1.80282" fill="#DC0048"/>
<rect x="81.2632" y="74.2761" width="2.52632" height="1.80282" fill="#DC0048"/>
<rect x="90.5264" y="74.2761" width="6.73684" height="1.80282" fill="#DC0048"/>
<rect x="68.2104" y="83.29" width="2.10526" height="1.80282" fill="#DC0048"/>
<rect x="65.6843" y="79.6846" width="8.84211" height="1.80282" fill="#DC0048"/>
<rect x="70.3157" y="76.0789" width="13.0526" height="1.80282" fill="#DC0048"/>
<rect x="68.2104" y="74.2761" width="8.84211" height="1.80282" fill="#DC0048"/>
<rect x="68.2104" y="72.4731" width="13.0526" height="1.80282" fill="#DC0048"/>
<rect x="72.4211" y="70.6704" width="20.2105" height="1.80282" fill="#DC0048"/>
<rect x="88" y="72.4731" width="6.73684" height="1.80282" fill="#DC0048"/>
<rect x="79.158" y="68.8677" width="4.63158" height="1.80282" fill="#DC0048"/>
<rect x="81.2632" y="67.0647" width="4.63158" height="1.80282" fill="#DC0048"/>
<rect x="83.7896" y="59.4929" width="2.10526" height="7.57183" fill="#DC0048"/>
<rect x="79.158" y="61.2959" width="2.10526" height="3.60563" fill="#DC0048"/>
<rect x="85.8948" y="57.3296" width="2.52632" height="5.76901" fill="#DC0048"/>
<rect x="88.4211" y="59.4929" width="2.10526" height="5.40845" fill="#DC0048"/>
<rect x="81.2632" y="57.3296" width="2.52632" height="7.57183" fill="#DC0048"/>
<rect x="85.8948" y="68.8677" width="4.63158" height="1.80282" fill="#DC0048"/>
<rect x="88" y="67.0647" width="4.63158" height="1.80282" fill="#DC0048"/>
<rect x="92.6316" y="64.9014" width="2.10526" height="2.16338" fill="#DC0048"/>
<rect x="90.5264" y="63.0986" width="2.10526" height="1.80282" fill="#DC0048"/>
<rect x="70.3157" y="81.4873" width="2.10526" height="1.80282" fill="#DC0048"/>
<rect x="109.895" y="83.29" width="2.10526" height="1.80282" fill="#DC0048"/>
<rect x="105.684" y="86.8958" width="2.10526" height="1.80282" fill="#DC0048"/>
<rect x="107.79" y="83.29" width="2.10526" height="3.60563" fill="#DC0048"/>
<rect x="101.474" y="68.8677" width="2.10526" height="1.80282" fill="#DC0048"/>
<rect x="105.684" y="72.4731" width="2.10526" height="1.80282" fill="#DC0048"/>
<rect x="103.579" y="59.4929" width="4.21053" height="1.80282" fill="#DC0048"/>
<rect x="116.21" y="68.8677" width="4.21053" height="1.80282" fill="#DC0048"/>
<rect x="122.526" y="68.8677" width="2.10526" height="1.80282" fill="#DC0048"/>
<rect x="118.316" y="74.2761" width="2.10526" height="1.80282" fill="#DC0048"/>
<rect x="118.316" y="72.4731" width="4.63158" height="1.80282" fill="#DC0048"/>
<rect x="105.684" y="68.8677" width="6.31579" height="1.80282" fill="#DC0048"/>
<rect x="94.7368" y="68.8677" width="4.63158" height="1.80282" fill="#DC0048"/>
<rect x="83.7896" y="85.093" width="2.10526" height="1.80282" fill="#DC0048"/>
<rect x="79.158" y="81.4873" width="6.73684" height="1.80282" fill="#DC0048"/>
<rect x="77.0527" y="83.29" width="10.9474" height="1.80282" fill="#DC0048"/>
<rect x="99.3684" y="63.0986" width="4.21053" height="1.80282" fill="#DC0048"/>
<rect x="112" y="67.0647" width="8.42105" height="1.80282" fill="#DC0048"/>
<rect x="99.3684" y="64.9014" width="12.6316" height="3.9662" fill="#DC0048"/>
<rect x="97.2632" y="70.6704" width="8.42105" height="3.60563" fill="#DC0048"/>
<rect x="101.474" y="61.2959" width="6.31579" height="1.80282" fill="#DC0048"/>
<rect x="105.684" y="47.5945" width="4.21053" height="3.60563" fill="#DC0048"/>
<rect x="79.158" y="36.7773" width="8.84211" height="1.80282" fill="#DC0048"/>
<rect x="81.2632" y="38.5803" width="4.63158" height="5.40845" fill="#DC0048"/>
<rect x="90.5264" y="8.29297" width="2.10526" height="1.80282" fill="#DC0048"/>
<rect x="68.2104" y="7.57178" width="2.10526" height="1.80282" fill="#DC0048"/>
<rect x="68.2104" y="7.57178" width="2.10526" height="1.80282" fill="#DC0048"/>
<rect x="61.0527" y="11.5381" width="2.52632" height="1.80282" fill="#DC0048"/>
<rect x="61.0527" y="11.5381" width="2.52632" height="1.80282" fill="#DC0048"/>
<path d="M88 24.8789H90.5264V31.0085H88H85.8948V28.8451H88V24.8789Z" fill="#DC0048"/>
<rect x="65.6843" y="9.37476" width="2.52632" height="2.16338" fill="#DC0048"/>
<rect x="63.5789" y="23.0762" width="2.10526" height="1.80282" fill="#DC0048"/>
<rect x="74.5264" y="7.57178" width="2.10526" height="2.16338" fill="#B20B37"/>
<rect x="88.4211" y="10.0957" width="2.10526" height="1.80282" fill="#B20B37"/>
<rect x="81.2632" y="13.3408" width="2.52632" height="2.16338" fill="#B20B37"/>
<rect x="41.2632" y="20.9126" width="2.10526" height="3.9662" fill="#B20B37"/>
<rect x="39.158" y="24.8789" width="2.10526" height="2.16338" fill="#B20B37"/>
<rect x="30.7368" y="25.2395" width="4.21053" height="1.80282" fill="#B20B37"/>
<rect x="32.4211" y="28.845" width="2.52632" height="1.80282" fill="#B20B37"/>
<rect x="27.7896" y="34.614" width="2.52632" height="1.80282" fill="#B20B37"/>
<rect x="37.0527" y="49.3972" width="6.31579" height="1.80282" fill="#B20B37"/>
<rect x="34.9473" y="53.3633" width="4.21053" height="2.16338" fill="#B20B37"/>
<rect x="28.2104" y="51.2" width="13.0526" height="2.16338" fill="#B20B37"/>
<rect x="32.4211" y="49.3972" width="2.52632" height="1.80282" fill="#B20B37"/>
<rect x="34.9473" y="55.5269" width="2.10526" height="1.80282" fill="#B20B37"/>
<rect x="30.3157" y="59.4929" width="2.10526" height="1.80282" fill="#B20B37"/>
<rect x="32.842" y="63.0986" width="2.10526" height="1.80282" fill="#B20B37"/>
<rect x="34.9473" y="61.2959" width="2.10526" height="3.60563" fill="#B20B37"/>
<rect x="25.6843" y="63.0986" width="2.10526" height="1.80282" fill="#B20B37"/>
<rect x="21.0527" y="64.9014" width="4.63158" height="2.16338" fill="#B20B37"/>
<rect x="27.7896" y="61.2959" width="2.52632" height="3.60563" fill="#B20B37"/>
<rect x="30.3157" y="36.417" width="2.52632" height="2.16338" fill="#B20B37"/>
<rect x="27.7896" y="38.5803" width="2.52632" height="1.80282" fill="#B20B37"/>
<rect x="19.3684" y="43.9888" width="2.10526" height="1.80282" fill="#B20B37"/>
<rect x="12.6316" y="49.3972" width="2.10526" height="1.80282" fill="#B20B37"/>
<rect x="12.6316" y="59.4929" width="2.52632" height="3.60563" fill="#B20B37"/>
<rect x="2.10522" y="53.3633" width="2.10526" height="1.80282" fill="#B20B37"/>
<rect x="4.21045" y="55.1663" width="2.52632" height="2.16338" fill="#B20B37"/>
<rect y="65.262" width="2.10526" height="1.80282" fill="#B20B37"/>
<rect x="2.10522" y="67.0647" width="2.10526" height="1.80282" fill="#B20B37"/>
<rect x="4.21045" y="68.8677" width="2.52632" height="1.80282" fill="#B20B37"/>
<rect x="2.10522" y="76.0789" width="2.10526" height="1.80282" fill="#B20B37"/>
<rect y="77.8816" width="2.10526" height="1.80282" fill="#B20B37"/>
<rect x="2.10522" y="79.6846" width="2.10526" height="1.80282" fill="#B20B37"/>
<rect x="4.21045" y="81.4873" width="2.52632" height="1.80282" fill="#B20B37"/>
<rect x="6.73682" y="83.29" width="3.78947" height="1.80282" fill="#B20B37"/>
<rect x="4.21045" y="74.2761" width="2.52632" height="1.80282" fill="#B20B37"/>
<rect x="6.31567" y="70.6704" width="4.63158" height="1.80282" fill="#B20B37"/>
<rect x="4.21045" y="72.4731" width="4.63158" height="1.80282" fill="#B20B37"/>
<rect x="6.73682" y="57.3296" width="5.89474" height="2.16338" fill="#B20B37"/>
<rect x="8.84204" y="51.2" width="3.78947" height="2.16338" fill="#B20B37"/>
<rect x="12.6316" y="45.7915" width="6.73684" height="1.80282" fill="#B20B37"/>
<rect x="23.158" y="42.186" width="2.52632" height="3.60563" fill="#B20B37"/>
<rect x="76.6316" y="9.73511" width="4.63158" height="1.80282" fill="#B20B37"/>
<rect x="81.2632" y="15.5042" width="6.73684" height="1.80282" fill="#B20B37"/>
<rect x="83.7896" y="17.3071" width="4.21053" height="1.80282" fill="#B20B37"/>
<rect x="90.5264" y="21.2732" width="2.10526" height="1.80282" fill="#B20B37"/>
<rect x="103.579" y="29.2056" width="2.10526" height="1.80282" fill="#B20B37"/>
<rect x="92.6316" y="28.845" width="2.10526" height="2.16338" fill="#F83235"/>
<rect x="14.7368" y="55.5269" width="2.10526" height="1.80282" fill="#F83235"/>
<rect x="19.3684" y="61.2959" width="2.10526" height="1.80282" fill="#F83235"/>
<rect x="23.5789" y="49.3972" width="2.10526" height="1.80282" fill="#F83235"/>
<rect x="101.474" y="31.0085" width="2.10526" height="1.80282" fill="#F83235"/>
<rect x="92.6316" y="38.5803" width="2.10526" height="1.80282" fill="#F83235"/>
<rect x="114.105" y="42.186" width="2.10526" height="1.80282" fill="#F83235"/>
<rect x="118.316" y="47.5945" width="2.10526" height="1.80282" fill="#F83235"/>
<rect x="112" y="51.2" width="2.10526" height="2.16338" fill="#F83235"/>
<rect x="112" y="55.1663" width="2.10526" height="2.16338" fill="#F83235"/>
<rect x="92.6316" y="63.0986" width="2.10526" height="1.80282" fill="#F83235"/>
<rect x="83.7896" y="68.8677" width="2.10526" height="1.80282" fill="#F83235"/>
<rect x="118.316" y="63.4592" width="2.10526" height="1.80282" fill="#F83235"/>
<rect x="114.105" y="72.4731" width="2.10526" height="1.80282" fill="#F83235"/>
<rect x="90.5264" y="76.0789" width="2.10526" height="1.80282" fill="#F83235"/>
<rect x="74.5264" y="79.6846" width="4.63158" height="3.60563" fill="#F83235"/>
<rect x="65.6843" y="81.4873" width="4.63158" height="1.80282" fill="#F83235"/>
<rect x="65.6843" y="76.0789" width="4.63158" height="1.80282" fill="#F83235"/>
<rect x="56.842" y="74.2761" width="4.21053" height="1.80282" fill="#F83235"/>
<rect x="54.3157" y="72.4731" width="4.63158" height="1.80282" fill="#F83235"/>
<rect x="43.3684" y="65.262" width="4.63158" height="1.80282" fill="#F83235"/>
<rect x="61.0527" y="76.0789" width="2.52632" height="1.80282" fill="#F83235"/>
<rect x="41.2632" y="77.8816" width="2.52632" height="1.80282" fill="#F83235"/>
<rect x="52.2104" y="83.29" width="2.10526" height="1.80282" fill="#F83235"/>
<rect x="45.8948" y="83.29" width="2.10526" height="1.80282" fill="#F83235"/>
<rect x="30.3157" y="83.29" width="2.10526" height="1.80282" fill="#F83235"/>
<rect x="32.4211" y="85.093" width="2.52632" height="1.80282" fill="#F83235"/>
<rect x="34.9473" y="90.5015" width="2.10526" height="1.80282" fill="#F83235"/>
<rect x="23.5789" y="88.6985" width="2.10526" height="1.80282" fill="#F83235"/>
<rect x="54.3157" y="70.6704" width="2.52632" height="1.80282" fill="#F83235"/>
<rect x="52.2104" y="63.0986" width="2.10526" height="2.16338" fill="#F83235"/>
<rect x="48" y="61.2959" width="2.10526" height="1.80282" fill="#F83235"/>
<rect x="56.842" y="79.6846" width="4.63158" height="3.60563" fill="#F83235"/>
<rect x="83.3684" y="76.0789" width="2.10526" height="1.80282" fill="#F83235"/>
<rect x="92.6316" y="77.8816" width="2.10526" height="1.80282" fill="#F83235"/>
<rect x="77.0527" y="42.186" width="2.10526" height="1.80282" fill="#F83235"/>
<rect x="96.842" y="25.2395" width="2.52632" height="1.80282" fill="#B20B37"/>
<rect x="65.6843" y="31.0085" width="4.63158" height="3.60563" fill="#B20B37"/>
<rect x="63.5789" y="36.7773" width="2.52632" height="1.80282" fill="#B20B37"/>
<rect x="90.5264" y="25.2395" width="2.10526" height="3.60563" fill="#B20B37"/>
<rect x="92.6316" y="25.2395" width="2.10526" height="3.60563" fill="#880336"/>
<rect x="70.3157" y="31.0085" width="2.10526" height="1.80282" fill="#880336"/>
<rect x="68.2104" y="38.5803" width="6.73684" height="3.60563" fill="#880336"/>
<rect x="61.0527" y="36.7773" width="2.52632" height="5.40845" fill="#880336"/>
<rect x="63.5789" y="38.5803" width="2.52632" height="1.80282" fill="#880336"/>
<rect x="63.5789" y="34.614" width="2.52632" height="2.16338" fill="#880336"/>
<rect x="79.158" y="42.186" width="2.10526" height="1.80282" fill="#880336"/>
<rect x="99.3684" y="42.186" width="4.21053" height="1.80282" fill="#880336"/>
<rect x="103.579" y="43.9888" width="2.10526" height="3.60563" fill="#880336"/>
<rect x="112" y="47.5945" width="6.31579" height="1.80282" fill="#880336"/>
<rect x="107.79" y="42.186" width="4.21053" height="3.60563" fill="#880336"/>
<rect x="107.79" y="45.7915" width="2.10526" height="1.80282" fill="#880336"/>
<rect x="114.105" y="51.2" width="2.10526" height="2.16338" fill="#880336"/>
<rect x="122.526" y="55.1663" width="2.10526" height="2.16338" fill="#880336"/>
<rect x="120.421" y="57.3296" width="2.10526" height="2.16338" fill="#880336"/>
<path d="M90.5264 38.5803H92.6316V40.3831H94.7369V38.5803H99.3685V40.3831H96.8421V42.186H92.6316V45.7916H90.1053V43.9888H88V45.7916H85.8948V42.186H88V40.3831H90.5264V38.5803Z" fill="#880336"/>
<rect x="105.684" y="31.0085" width="2.10526" height="3.60563" fill="#880336"/>
<rect x="79.158" y="11.8987" width="4.63158" height="1.80282" fill="#B20B37"/>
<rect x="79.158" y="11.1775" width="2.10526" height="1.80282" fill="#B20B37"/>
<rect x="74.5264" y="3.60571" width="2.10526" height="1.80282" fill="#B20B37"/>
<rect x="85.8948" y="11.8987" width="2.52632" height="1.80282" fill="#43001B"/>
<rect x="88.4211" y="13.7014" width="2.10526" height="1.80282" fill="#43001B"/>
<rect x="88" y="17.3071" width="2.52632" height="1.80282" fill="#43001B"/>
<rect x="92.6316" y="21.2732" width="2.10526" height="1.80282" fill="#43001B"/>
<rect x="94.7368" y="25.2395" width="2.10526" height="1.80282" fill="#43001B"/>
<rect x="96.842" y="27.0422" width="2.52632" height="3.9662" fill="#43001B"/>
<rect x="103.579" y="34.614" width="2.10526" height="5.76901" fill="#43001B"/>
<rect x="99.3684" y="38.5803" width="2.10526" height="3.60563" fill="#43001B"/>
<rect x="103.579" y="42.186" width="2.10526" height="1.80282" fill="#43001B"/>
<rect x="105.684" y="43.9888" width="2.10526" height="1.80282" fill="#43001B"/>
<rect x="112" y="40.3831" width="2.10526" height="1.80282" fill="#43001B"/>
<rect x="112" y="43.9888" width="2.10526" height="1.80282" fill="#43001B"/>
<rect x="109.895" y="47.5945" width="2.10526" height="1.80282" fill="#43001B"/>
<rect x="118.316" y="53.3633" width="2.10526" height="1.80282" fill="#43001B"/>
<rect x="118.316" y="59.4929" width="4.21053" height="1.80282" fill="#43001B"/>
<rect x="118.316" y="61.2959" width="2.10526" height="2.16338" fill="#43001B"/>
<rect x="116.21" y="51.2" width="2.10526" height="3.9662" fill="#43001B"/>
<rect x="116.21" y="63.4592" width="2.10526" height="1.80282" fill="#43001B"/>
<rect x="112" y="68.8677" width="4.21053" height="3.60563" fill="#43001B"/>
<rect x="118.316" y="70.6704" width="2.10526" height="1.80282" fill="#43001B"/>
<rect x="103.579" y="88.6985" width="4.21053" height="1.80282" fill="#43001B"/>
<rect x="101.474" y="86.8958" width="2.10526" height="1.80282" fill="#43001B"/>
<rect x="103.579" y="81.4873" width="2.10526" height="1.80282" fill="#43001B"/>
<rect x="105.684" y="85.093" width="2.10526" height="1.80282" fill="#43001B"/>
<rect x="101.474" y="83.29" width="2.10526" height="1.80282" fill="#43001B"/>
<rect x="96.842" y="81.4873" width="2.10526" height="1.80282" fill="#43001B"/>
<rect x="85.8948" y="88.6985" width="2.10526" height="3.9662" fill="#43001B"/>
<rect x="94.7368" y="77.8816" width="2.10526" height="1.80282" fill="#43001B"/>
<rect x="88" y="86.8958" width="2.10526" height="1.80282" fill="#43001B"/>
<rect x="81.2632" y="85.093" width="2.52632" height="3.60563" fill="#43001B"/>
<rect x="83.7896" y="88.6985" width="2.10526" height="1.80282" fill="#43001B"/>
<rect x="94.7368" y="85.093" width="6.73684" height="1.80282" fill="#43001B"/>
<rect x="92.6316" y="86.8958" width="4.21053" height="1.80282" fill="#43001B"/>
<rect x="85.8948" y="85.093" width="6.73684" height="1.80282" fill="#43001B"/>
<rect x="74.9473" y="85.093" width="6.31579" height="1.80282" fill="#43001B"/>
<rect x="88" y="83.29" width="8.84211" height="1.80282" fill="#43001B"/>
<rect x="107.79" y="86.8958" width="2.10526" height="3.60563" fill="#43001B"/>
<rect x="109.895" y="85.093" width="2.10526" height="1.80282" fill="#43001B"/>
<rect x="112" y="83.29" width="2.10526" height="1.80282" fill="#43001B"/>
<rect x="107.79" y="81.4873" width="6.31579" height="1.80282" fill="#43001B"/>
<rect x="105.684" y="76.0789" width="2.10526" height="5.40845" fill="#43001B"/>
<rect x="101.474" y="77.8816" width="2.10526" height="3.60563" fill="#43001B"/>
<rect x="109.895" y="76.0789" width="4.21053" height="1.80282" fill="#43001B"/>
<rect x="97.2632" y="74.2761" width="16.8421" height="1.80282" fill="#43001B"/>
<rect x="114.105" y="74.2761" width="2.10526" height="3.60563" fill="#43001B"/>
<rect x="109.895" y="70.6704" width="2.10526" height="1.80282" fill="#43001B"/>
<rect x="105.684" y="70.6704" width="2.10526" height="1.80282" fill="#43001B"/>
<rect x="107.79" y="72.4731" width="6.31579" height="1.80282" fill="#43001B"/>
<rect x="103.579" y="68.8677" width="2.10526" height="1.80282" fill="#43001B"/>
<rect x="99.3684" y="68.8677" width="2.10526" height="1.80282" fill="#43001B"/>
<rect x="90.5264" y="68.8677" width="2.10526" height="1.80282" fill="#43001B"/>
<rect x="92.6316" y="68.8677" width="2.10526" height="3.60563" fill="#43001B"/>
<rect x="94.7368" y="70.6704" width="2.52632" height="3.60563" fill="#43001B"/>
<rect x="116.21" y="70.6704" width="2.10526" height="5.40845" fill="#43001B"/>
<rect x="120.421" y="67.0647" width="2.10526" height="5.40845" fill="#43001B"/>
<rect x="112" y="65.262" width="8.42105" height="1.80282" fill="#43001B"/>
<rect x="116.21" y="49.3972" width="4.21053" height="1.80282" fill="#43001B"/>
<rect x="92.6316" y="42.186" width="4.21053" height="1.80282" fill="#43001B"/>
<rect x="96.842" y="40.3831" width="2.52632" height="3.60563" fill="#43001B"/>
<rect x="99.3684" y="25.2395" width="2.10526" height="1.80282" fill="#43001B"/>
<rect x="88" y="43.9888" width="2.10526" height="1.80282" fill="#43001B"/>
<rect x="92.6316" y="43.9888" width="2.10526" height="1.80282" fill="#43001B"/>
<rect x="83.7896" y="43.9888" width="2.10526" height="1.80282" fill="#43001B"/>
<rect x="77.0527" y="43.9888" width="2.10526" height="1.80282" fill="#43001B"/>
<rect x="66.1052" y="40.3831" width="2.10526" height="1.80282" fill="#43001B"/>
<rect x="74.9473" y="45.7915" width="2.10526" height="1.80282" fill="#43001B"/>
<rect x="70.3157" y="43.9888" width="4.63158" height="1.80282" fill="#43001B"/>
<rect x="68.2104" y="42.186" width="4.63158" height="1.80282" fill="#43001B"/>
<rect x="79.158" y="51.5605" width="2.10526" height="1.80282" fill="#43001B"/>
<rect x="79.158" y="45.7915" width="4.63158" height="5.76901" fill="#43001B"/>
<rect x="85.8948" y="45.7915" width="2.10526" height="1.80282" fill="#43001B"/>
<rect x="83.7896" y="47.5945" width="2.10526" height="3.9662" fill="#43001B"/>
<rect x="77.0527" y="47.5945" width="2.10526" height="3.9662" fill="#43001B"/>
<rect x="99.3684" y="31.0085" width="2.10526" height="1.80282" fill="#43001B"/>
<rect x="101.474" y="29.2056" width="2.10526" height="1.80282" fill="#43001B"/>
<rect x="90.5264" y="23.0762" width="2.10526" height="2.16338" fill="#43001B"/>
<rect x="94.7368" y="19.1099" width="2.10526" height="1.80282" fill="#43001B"/>
<rect x="92.6316" y="17.3071" width="4.21053" height="1.80282" fill="#43001B"/>
<path d="M63.579 11.538V9.37459H65.6842V11.538H68.2106V9.37459H70.3158V7.57178H72.4211V11.538H70.3158V16.2253H72.4211V17.307H74.5264V19.1098H72.4211V20.9126H65.6842H63.579H61.0527V23.076H63.579V24.8788H65.6842H67.7895V23.076H65.6842V20.9126L68.2106 20.1915L70.3158 16.2253V24.8788H72.4211V29.2056H70.3158V31.0084H65.6842V32.8112H56.8421V31.0084H52.2106V27.0422H54.3158V28.845H58.9474V26.6816H61.4737V24.8788H58.9474V26.6816H56.8421V23.076H58.9474V20.9126H54.7369V16.9464H52.2106V13.3408H50.1053V15.1436H45.8948V13.3408H48V11.1774H52.2106V9.37459H56.8421H58.9474V11.538H61.0527V13.3408H63.579V11.538Z" fill="#FE6E32"/>
<rect x="48" y="7.57178" width="2.10526" height="3.60563" fill="#FFA370"/>
<rect x="88" y="31.0085" width="2.52632" height="1.80282" fill="#FFA370"/>
<rect x="6.73682" y="85.093" width="8.42105" height="1.80282" fill="#52022A"/>
<rect x="6.73682" y="85.093" width="8.42105" height="1.80282" fill="#52022A"/>
<rect x="6.73682" y="85.093" width="8.42105" height="1.80282" fill="#52022A"/>
<rect x="13.0527" y="86.8958" width="3.78947" height="1.80282" fill="#52022A"/>
<rect x="13.0527" y="86.8958" width="3.78947" height="1.80282" fill="#52022A"/>
<rect x="13.0527" y="86.8958" width="3.78947" height="1.80282" fill="#52022A"/>
<rect x="19.3684" y="86.8958" width="2.10526" height="1.80282" fill="#52022A"/>
<rect x="19.3684" y="86.8958" width="2.10526" height="1.80282" fill="#52022A"/>
<rect x="19.3684" y="86.8958" width="2.10526" height="1.80282" fill="#52022A"/>
<rect x="21.4736" y="88.6985" width="2.10526" height="1.80282" fill="#52022A"/>
<rect x="21.4736" y="88.6985" width="2.10526" height="1.80282" fill="#52022A"/>
<rect x="21.4736" y="88.6985" width="2.10526" height="1.80282" fill="#52022A"/>
<rect x="21.0527" y="93.7466" width="6.73684" height="1.80282" fill="#52022A"/>
<rect x="21.0527" y="93.7466" width="6.73684" height="1.80282" fill="#52022A"/>
<rect x="21.0527" y="93.7466" width="6.73684" height="1.80282" fill="#52022A"/>
<rect x="25.6843" y="85.093" width="2.10526" height="1.80282" fill="#52022A"/>
<rect x="25.6843" y="85.093" width="2.10526" height="1.80282" fill="#52022A"/>
<rect x="25.6843" y="85.093" width="2.10526" height="1.80282" fill="#52022A"/>
<rect x="25.6843" y="88.6985" width="2.10526" height="1.80282" fill="#52022A"/>
<rect x="25.6843" y="88.6985" width="2.10526" height="1.80282" fill="#52022A"/>
<rect x="25.6843" y="88.6985" width="2.10526" height="1.80282" fill="#52022A"/>
<rect x="37.0527" y="90.5015" width="2.10526" height="1.80282" fill="#52022A"/>
<rect x="37.0527" y="90.5015" width="2.10526" height="1.80282" fill="#52022A"/>
<rect x="37.0527" y="90.5015" width="2.10526" height="1.80282" fill="#52022A"/>
<rect x="41.2632" y="86.8958" width="6.73684" height="1.80282" fill="#52022A"/>
<rect x="41.2632" y="86.8958" width="6.73684" height="1.80282" fill="#52022A"/>
<rect x="41.2632" y="86.8958" width="6.73684" height="1.80282" fill="#52022A"/>
<rect x="34.9473" y="88.6985" width="2.10526" height="1.80282" fill="#52022A"/>
<rect x="34.9473" y="88.6985" width="2.10526" height="1.80282" fill="#52022A"/>
<rect x="34.9473" y="88.6985" width="2.10526" height="1.80282" fill="#52022A"/>
<rect x="39.158" y="86.8958" width="2.10526" height="3.60563" fill="#52022A"/>
<rect x="39.158" y="86.8958" width="2.10526" height="3.60563" fill="#52022A"/>
<rect x="39.158" y="86.8958" width="2.10526" height="3.60563" fill="#52022A"/>
<rect x="30.3157" y="85.093" width="2.10526" height="1.80282" fill="#52022A"/>
<rect x="30.3157" y="85.093" width="2.10526" height="1.80282" fill="#52022A"/>
<rect x="30.3157" y="85.093" width="2.10526" height="1.80282" fill="#52022A"/>
<rect x="34.9473" y="85.093" width="2.10526" height="1.80282" fill="#52022A"/>
<rect x="34.9473" y="85.093" width="2.10526" height="1.80282" fill="#52022A"/>
<rect x="34.9473" y="85.093" width="2.10526" height="1.80282" fill="#52022A"/>
<rect x="41.2632" y="90.5015" width="8.84211" height="1.80282" fill="#440213"/>
<rect x="50.1052" y="92.3042" width="2.10526" height="1.80282" fill="#440213"/>
<rect x="50.1052" y="88.6985" width="2.10526" height="1.80282" fill="#440213"/>
<rect x="52.2104" y="85.093" width="2.52632" height="3.60563" fill="#440213"/>
<rect x="48" y="83.29" width="4.21053" height="1.80282" fill="#440213"/>
<rect x="45.8948" y="81.4873" width="2.10526" height="1.80282" fill="#440213"/>
<rect x="45.8948" y="77.8816" width="2.10526" height="1.80282" fill="#440213"/>
<rect x="48" y="79.6846" width="1.68421" height="1.80282" fill="#440213"/>
<rect x="52.2104" y="70.6704" width="2.10526" height="3.60563" fill="#440213"/>
<rect x="54.3157" y="74.2761" width="2.52632" height="5.40845" fill="#440213"/>
<rect x="61.0527" y="59.4929" width="7.15789" height="1.80282" fill="#440213"/>
<rect x="48" y="67.0647" width="4.21053" height="5.40845" fill="#440213"/>
<rect x="49.6843" y="77.8816" width="2.52632" height="3.60563" fill="#440213"/>
<rect x="52.2104" y="77.8816" width="2.10526" height="5.40845" fill="#440213"/>
<rect x="58.9473" y="83.29" width="2.52632" height="14.062" fill="#440213"/>
<rect x="61.4736" y="79.6846" width="4.21053" height="7.21127" fill="#440213"/>
<rect x="54.3157" y="83.29" width="2.52632" height="3.60563" fill="#440213"/>
<rect x="56.842" y="85.093" width="2.10526" height="3.60563" fill="#440213"/>
<rect x="63.5789" y="86.8958" width="2.10526" height="1.80282" fill="#440213"/>
<rect x="65.6843" y="83.29" width="2.52632" height="12.6197" fill="#440213"/>
<rect x="68.2104" y="85.093" width="2.52632" height="7.21127" fill="#440213"/>
<rect x="70.3157" y="83.29" width="2.52632" height="7.57183" fill="#440213"/>
<rect x="72.4211" y="81.4873" width="2.10526" height="3.60563" fill="#440213"/>
<rect x="81.2632" y="79.6846" width="2.10526" height="1.80282" fill="#440213"/>
<rect x="72.842" y="86.8958" width="1.68421" height="2.16338" fill="#440213"/>
<rect x="74.9473" y="89.0591" width="2.10526" height="1.80282" fill="#440213"/>
<rect x="70.7368" y="95.9099" width="1.68421" height="3.60563" fill="#440213"/>
<rect x="65.6843" y="101.318" width="2.10526" height="1.80282" fill="#440213"/>
<rect x="67.7896" y="99.5154" width="2.94737" height="11.8986" fill="#440213"/>
<rect x="63.5789" y="111.053" width="2.10526" height="1.80282" fill="#440213"/>
<rect x="63.5789" y="116.462" width="4.21053" height="2.16338" fill="#440213"/>
<rect x="61.4736" y="120.428" width="4.21053" height="1.80282" fill="#440213"/>
<rect x="70.7368" y="112.856" width="1.68421" height="1.80282" fill="#440213"/>
<rect x="72.4211" y="114.659" width="2.10526" height="1.80282" fill="#440213"/>
<rect x="70.3157" y="116.462" width="4.21053" height="2.16338" fill="#440213"/>
<rect x="74.5264" y="116.823" width="4.63158" height="1.80282" fill="#440213"/>
<rect x="72.4211" y="94.1069" width="2.10526" height="1.80282" fill="#440213"/>
<rect x="74.9473" y="92.3042" width="2.10526" height="1.80282" fill="#440213"/>
<rect x="79.158" y="88.6985" width="2.52632" height="1.80282" fill="#440213"/>
<rect x="77.0527" y="86.8958" width="2.10526" height="1.80282" fill="#440213"/>
<rect x="77.0527" y="90.5015" width="4.63158" height="2.16338" fill="#440213"/>
<rect x="77.0527" y="85.093" width="6.73684" height="1.80282" fill="#440213"/>
<rect x="74.5264" y="83.29" width="2.52632" height="5.76901" fill="#440213"/>
<rect x="48" y="88.6985" width="2.10526" height="1.80282" fill="#450B42"/>
<rect x="48" y="88.6985" width="2.10526" height="1.80282" fill="#450B42"/>
<rect x="48" y="88.6985" width="2.10526" height="1.80282" fill="#450B42"/>
<rect x="48" y="88.6985" width="2.10526" height="1.80282" fill="#450B42"/>
<rect x="61.4736" y="86.8958" width="2.10526" height="1.80282" fill="#450B42"/>
<rect x="61.4736" y="86.8958" width="2.10526" height="1.80282" fill="#450B42"/>
<rect x="61.4736" y="86.8958" width="2.10526" height="1.80282" fill="#450B42"/>
<rect x="61.4736" y="86.8958" width="2.10526" height="1.80282" fill="#450B42"/>
<rect x="56.842" y="77.8816" width="4.21053" height="1.80282" fill="#450B42"/>
<rect x="56.842" y="77.8816" width="4.21053" height="1.80282" fill="#450B42"/>
<rect x="56.842" y="77.8816" width="4.21053" height="1.80282" fill="#450B42"/>
<rect x="56.842" y="77.8816" width="4.21053" height="1.80282" fill="#450B42"/>
<rect x="63.5789" y="97.3521" width="2.10526" height="3.9662" fill="#450B42"/>
<rect x="63.5789" y="97.3521" width="2.10526" height="3.9662" fill="#450B42"/>
<rect x="63.5789" y="97.3521" width="2.10526" height="3.9662" fill="#450B42"/>
<rect x="63.5789" y="97.3521" width="2.10526" height="3.9662" fill="#450B42"/>
<rect x="67.7896" y="111.414" width="2.94737" height="5.04789" fill="#450B42"/>
<rect x="67.7896" y="111.414" width="2.94737" height="5.04789" fill="#450B42"/>
<rect x="67.7896" y="111.414" width="2.94737" height="5.04789" fill="#450B42"/>
<rect x="67.7896" y="111.414" width="2.94737" height="5.04789" fill="#450B42"/>
<rect x="61.4736" y="118.625" width="6.31579" height="1.80282" fill="#450B42"/>
<rect x="61.4736" y="118.625" width="6.31579" height="1.80282" fill="#450B42"/>
<rect x="61.4736" y="118.625" width="6.31579" height="1.80282" fill="#450B42"/>
<rect x="61.4736" y="118.625" width="6.31579" height="1.80282" fill="#450B42"/>
<rect x="70.7368" y="114.659" width="1.68421" height="1.80282" fill="#450B42"/>
<rect x="70.7368" y="114.659" width="1.68421" height="1.80282" fill="#450B42"/>
<rect x="70.7368" y="114.659" width="1.68421" height="1.80282" fill="#450B42"/>
<rect x="70.7368" y="114.659" width="1.68421" height="1.80282" fill="#450B42"/>
<rect x="72.4211" y="120.428" width="2.10526" height="1.80282" fill="#450B42"/>
<rect x="72.4211" y="120.428" width="2.10526" height="1.80282" fill="#450B42"/>
<rect x="72.4211" y="120.428" width="2.10526" height="1.80282" fill="#450B42"/>
<rect x="72.4211" y="120.428" width="2.10526" height="1.80282" fill="#450B42"/>
<rect x="70.3157" y="118.625" width="2.10526" height="3.60563" fill="#450B42"/>
<rect x="70.3157" y="118.625" width="2.10526" height="3.60563" fill="#450B42"/>
<rect x="70.3157" y="118.625" width="2.10526" height="3.60563" fill="#450B42"/>
<rect x="70.3157" y="118.625" width="2.10526" height="3.60563" fill="#450B42"/>
<rect x="65.6843" y="120.428" width="2.10526" height="1.80282" fill="#450B42"/>
<rect x="65.6843" y="120.428" width="2.10526" height="1.80282" fill="#450B42"/>
<rect x="65.6843" y="120.428" width="2.10526" height="1.80282" fill="#450B42"/>
<rect x="65.6843" y="120.428" width="2.10526" height="1.80282" fill="#450B42"/>
<rect x="74.5264" y="118.625" width="4.63158" height="1.80282" fill="#450B42"/>
<rect x="74.5264" y="118.625" width="4.63158" height="1.80282" fill="#450B42"/>
<rect x="74.5264" y="118.625" width="4.63158" height="1.80282" fill="#450B42"/>
<rect x="74.5264" y="118.625" width="4.63158" height="1.80282" fill="#450B42"/>
<rect x="70.3157" y="90.8621" width="2.10526" height="5.04789" fill="#450B42"/>
<rect x="70.3157" y="90.8621" width="2.10526" height="5.04789" fill="#450B42"/>
<rect x="70.3157" y="90.8621" width="2.10526" height="5.04789" fill="#450B42"/>
<rect x="70.3157" y="90.8621" width="2.10526" height="5.04789" fill="#450B42"/>
<rect x="72.4211" y="89.0591" width="2.52632" height="5.04789" fill="#450B42"/>
<rect x="72.4211" y="89.0591" width="2.52632" height="5.04789" fill="#450B42"/>
<rect x="72.4211" y="89.0591" width="2.52632" height="5.04789" fill="#450B42"/>
<rect x="72.4211" y="89.0591" width="2.52632" height="5.04789" fill="#450B42"/>
<rect x="67.7896" y="92.3042" width="2.94737" height="7.21127" fill="#450B42"/>
<rect x="67.7896" y="92.3042" width="2.94737" height="7.21127" fill="#450B42"/>
<rect x="67.7896" y="92.3042" width="2.94737" height="7.21127" fill="#450B42"/>
<rect x="67.7896" y="92.3042" width="2.94737" height="7.21127" fill="#450B42"/>
<rect x="52.2104" y="94.1069" width="2.10526" height="1.80282" fill="#440213"/>
<rect x="54.3157" y="95.9099" width="2.52632" height="1.44225" fill="#670318"/>
<rect x="56.842" y="97.3521" width="2.10526" height="1.80282" fill="#670318"/>
<rect x="58.9473" y="99.5154" width="2.10526" height="1.80282" fill="#670318"/>
<rect x="58.9473" y="97.3521" width="4.63158" height="2.16338" fill="#95512F"/>
<rect x="61.0527" y="99.5154" width="2.52632" height="1.80282" fill="#95512F"/>
<rect x="58.9473" y="101.318" width="2.10526" height="1.80282" fill="#95512F"/>
<rect x="54.3157" y="93.7466" width="2.52632" height="2.16338" fill="#95512F"/>
<rect x="52.2104" y="92.3042" width="2.52632" height="1.80282" fill="#95512F"/>
<rect x="50.1052" y="90.5015" width="2.10526" height="1.80282" fill="#95512F"/>
<rect x="56.842" y="95.9099" width="2.10526" height="1.44225" fill="#95512F"/>
<rect x="63.5789" y="95.9099" width="4.21053" height="1.44225" fill="#95512F"/>
<rect x="74.9473" y="90.8621" width="2.10526" height="1.44225" fill="#95512F"/>
<rect x="65.6843" y="97.3521" width="2.10526" height="3.9662" fill="#95512F"/>
<rect x="63.5789" y="101.318" width="2.10526" height="9.73521" fill="#95512F"/>
<rect x="65.6843" y="103.121" width="2.10526" height="13.3408" fill="#95512F"/>
<rect x="61.0527" y="111.053" width="2.52632" height="3.60563" fill="#95512F"/>
<rect x="63.5789" y="112.856" width="2.10526" height="3.60563" fill="#95512F"/>
<rect x="61.4736" y="88.6985" width="4.21053" height="7.21127" fill="#95512F"/>
<rect x="61.0527" y="101.318" width="2.52632" height="1.80282" fill="#670318"/>
<rect x="61.0527" y="104.924" width="2.52632" height="1.80282" fill="#670318"/>
<rect x="58.9473" y="103.121" width="2.10526" height="11.538" fill="#670318"/>
<rect x="61.0527" y="114.659" width="2.52632" height="2.16338" fill="#670318"/>
<rect x="54.3157" y="116.462" width="2.52632" height="2.16338" fill="#670318"/>
<rect x="52.2104" y="120.428" width="4.63158" height="2.16338" fill="#670318"/>
<rect x="45.8948" y="120.428" width="4.63158" height="2.16338" fill="#670318"/>
<rect x="48" y="122.592" width="4.21053" height="3.60563" fill="#670318"/>
<rect x="56.842" y="122.231" width="4.21053" height="2.16338" fill="#670318"/>
<rect x="58.9473" y="118.625" width="2.52632" height="3.60563" fill="#670318"/>
<rect x="50.1052" y="118.625" width="2.10526" height="1.80282" fill="#670318"/>
<rect x="45.4736" y="124.394" width="2.52632" height="1.80282" fill="#670318"/>
<rect x="43.3684" y="122.592" width="2.52632" height="1.80282" fill="#670318"/>
<rect x="56.842" y="112.856" width="2.10526" height="3.9662" fill="#670318"/>
<rect x="67.7896" y="116.462" width="2.52632" height="5.76901" fill="#670318"/>
<rect x="72.4211" y="118.625" width="2.10526" height="1.80282" fill="#670318"/>
<rect x="79.158" y="118.625" width="2.52632" height="1.80282" fill="#670318"/>
<rect x="79.158" y="122.231" width="4.63158" height="1.80282" fill="#670318"/>
<rect x="74.5264" y="120.428" width="5.05263" height="1.80282" fill="#670318"/>
<rect x="68.2104" y="122.231" width="4.21053" height="3.60563" fill="#670318"/>
<rect x="72.4211" y="122.231" width="2.10526" height="1.80282" fill="#670318"/>
<rect x="30.3157" y="86.8958" width="4.63158" height="1.80282" fill="#52022A"/>
<rect x="30.3157" y="86.8958" width="4.63158" height="1.80282" fill="#52022A"/>
<rect x="30.3157" y="86.8958" width="4.63158" height="1.80282" fill="#52022A"/>
<rect x="30.3157" y="93.7466" width="2.10526" height="1.80282" fill="#52022A"/>
<rect x="30.3157" y="93.7466" width="2.10526" height="1.80282" fill="#52022A"/>
<rect x="30.3157" y="93.7466" width="2.10526" height="1.80282" fill="#52022A"/>
<rect x="32.4211" y="90.8621" width="2.52632" height="2.88451" fill="#52022A"/>
<rect x="32.4211" y="90.8621" width="2.52632" height="2.88451" fill="#52022A"/>
<rect x="32.4211" y="90.8621" width="2.52632" height="2.88451" fill="#52022A"/>
<rect x="34.9473" y="92.3042" width="2.10526" height="3.24507" fill="#52022A"/>
<rect x="34.9473" y="92.3042" width="2.10526" height="3.24507" fill="#52022A"/>
<rect x="34.9473" y="92.3042" width="2.10526" height="3.24507" fill="#52022A"/>
<rect x="27.7896" y="95.5493" width="2.52632" height="1.80282" fill="#52022A"/>
<rect x="27.7896" y="95.5493" width="2.52632" height="1.80282" fill="#52022A"/>
<rect x="27.7896" y="95.5493" width="2.52632" height="1.80282" fill="#52022A"/>
<rect x="23.5789" y="90.5015" width="2.10526" height="3.24507" fill="#52022A"/>
<rect x="23.5789" y="90.5015" width="2.10526" height="3.24507" fill="#52022A"/>
<rect x="23.5789" y="90.5015" width="2.10526" height="3.24507" fill="#52022A"/>
<rect x="23.5789" y="83.29" width="2.10526" height="5.40845" fill="#52022A"/>
<rect x="23.5789" y="83.29" width="2.10526" height="5.40845" fill="#52022A"/>
<rect x="23.5789" y="83.29" width="2.10526" height="5.40845" fill="#52022A"/>
<rect x="58.9473" y="57.3296" width="6.73684" height="2.16338" fill="#65042B"/>
<rect x="92.6316" y="67.0647" width="6.73684" height="1.80282" fill="#65042B"/>
<rect x="94.7368" y="65.262" width="2.52632" height="1.80282" fill="#65042B"/>
<rect x="85.8948" y="63.0986" width="2.52632" height="1.80282" fill="#65042B"/>
<rect x="85.8948" y="64.9014" width="6.73684" height="2.16338" fill="#65042B"/>
<rect x="52.2104" y="65.262" width="6.73684" height="1.80282" fill="#65042B"/>
<rect x="58.9473" y="61.2959" width="2.52632" height="3.9662" fill="#65042B"/>
<rect x="48" y="85.093" width="4.21053" height="1.80282" fill="#6C0232"/>
<rect x="50.1052" y="86.8958" width="2.10526" height="1.80282" fill="#6C0232"/>
<rect x="41.2632" y="85.093" width="2.10526" height="1.80282" fill="#6C0232"/>
<rect x="43.3684" y="83.29" width="2.52632" height="1.80282" fill="#6C0232"/>
<rect x="25.6843" y="83.29" width="4.63158" height="1.80282" fill="#6C0232"/>
<rect x="61.4736" y="95.9099" width="2.10526" height="1.44225" fill="#D29E78"/>
<rect x="61.0527" y="103.121" width="2.52632" height="1.80282" fill="#D29E78"/>
<rect x="61.0527" y="106.727" width="2.52632" height="4.32676" fill="#D29E78"/>
<rect x="58.9473" y="114.659" width="2.10526" height="2.16338" fill="#D29E78"/>
<rect x="56.842" y="116.823" width="2.10526" height="1.80282" fill="#D29E78"/>
<rect x="52.2104" y="122.592" width="4.63158" height="1.80282" fill="#D29E78"/>
<rect x="52.2104" y="124.394" width="2.52632" height="1.80282" fill="#D29E78"/>
<rect x="52.2104" y="116.462" width="2.10526" height="2.16338" fill="#D29E78"/>
<rect x="50.5264" y="120.428" width="1.68421" height="2.16338" fill="#D29E78"/>
<rect x="45.8948" y="122.592" width="2.10526" height="1.80282" fill="#D29E78"/>
<rect x="52.2104" y="118.625" width="6.73684" height="1.80282" fill="#B0704E"/>
<rect x="56.842" y="120.428" width="2.10526" height="1.80282" fill="#B0704E"/>
<rect x="58.9473" y="116.823" width="4.63158" height="1.80282" fill="#B0704E"/>
<rect x="54.7368" y="124.394" width="2.10526" height="3.60563" fill="#91022D"/>
<rect x="54.7368" y="124.394" width="2.10526" height="3.60563" fill="#91022D"/>
<rect x="54.7368" y="124.394" width="2.10526" height="3.60563" fill="#91022D"/>
<rect x="52.2104" y="126.197" width="2.52632" height="1.80282" fill="#91022D"/>
<rect x="52.2104" y="126.197" width="2.52632" height="1.80282" fill="#91022D"/>
<rect x="52.2104" y="126.197" width="2.52632" height="1.80282" fill="#91022D"/>
<rect x="63.5789" y="122.231" width="2.10526" height="3.60563" fill="#91022D"/>
<rect x="63.5789" y="122.231" width="2.10526" height="3.60563" fill="#91022D"/>
<rect x="63.5789" y="122.231" width="2.10526" height="3.60563" fill="#91022D"/>
<rect x="79.5789" y="120.428" width="8.42105" height="1.80282" fill="#91022D"/>
<rect x="79.5789" y="120.428" width="8.42105" height="1.80282" fill="#91022D"/>
<rect x="79.5789" y="120.428" width="8.42105" height="1.80282" fill="#91022D"/>
<rect x="86.3157" y="122.231" width="1.68421" height="1.80282" fill="#91022D"/>
<rect x="86.3157" y="122.231" width="1.68421" height="1.80282" fill="#91022D"/>
<rect x="86.3157" y="122.231" width="1.68421" height="1.80282" fill="#91022D"/>
</svg>
