<svg width="102" height="128" viewBox="0 0 102 128" fill="none" xmlns="http://www.w3.org/2000/svg">
<path d="M42.357 0L59.6456 0.0645789V5.25115H65.6966V11.3021H77.7986V17.3531H83.8496V22.5397H89.0361V34.6417H95.0871V45.8793H102.003V69.2189L95.9516 69.6511V73.541H89.0361V79.592H77.7986V85.643L59.6456 85.5784V109.782H65.6966V117.627H77.7986V122.749H89.9006V127.935H60.51H42.357L36.306 128H24.204H12.102V122.813H24.204V117.627H36.306V109.847H42.357V85.643H23.3396V79.592H12.102V74.4054H6.051V68.3544H0V45.8147H6.051V34.5771H12.102V22.4751H18.153V17.2886H24.204V11.2376H36.306V5.18657H42.357V0Z" fill="#C7DEA6"/>
<rect x="42.3569" width="17.2886" height="5.18657" fill="black"/>
<rect x="59.6455" y="5.18652" width="6.051" height="6.051" fill="black"/>
<rect x="83.8496" y="74.3408" width="6.051" height="6.051" fill="black"/>
<rect x="53.5945" y="73.4763" width="6.051" height="6.051" fill="black"/>
<rect x="42.3569" y="73.4763" width="6.051" height="6.051" fill="black"/>
<rect x="89.9006" y="67.4255" width="6.051" height="6.051" fill="black"/>
<rect x="95.9517" y="45.8147" width="6.051" height="24.204" fill="black"/>
<rect x="83.8496" y="22.4751" width="6.051" height="12.102" fill="black"/>
<rect x="89.9006" y="34.5771" width="6.051" height="12.102" fill="black"/>
<rect x="36.3059" y="5.18652" width="6.051" height="6.051" fill="black"/>
<rect x="6.05103" y="68.2898" width="6.051" height="6.051" fill="black"/>
<rect x="12.1021" y="74.3408" width="24.204" height="5.18657" fill="black"/>
<rect x="36.3059" y="68.2898" width="23.3396" height="6.051" fill="black"/>
<rect x="59.6455" y="79.5273" width="18.153" height="6.051" fill="black"/>
<rect x="65.6965" y="74.3408" width="12.102" height="6.051" fill="black"/>
<rect x="23.3396" y="79.5273" width="19.0174" height="6.051" fill="black"/>
<rect x="24.2041" y="117.562" width="18.153" height="5.18657" fill="black"/>
<rect x="59.6455" y="117.562" width="18.153" height="5.18657" fill="black"/>
<rect x="36.3059" y="109.782" width="6.051" height="7.77986" fill="black"/>
<rect x="59.6455" y="109.782" width="6.051" height="7.77986" fill="black"/>
<rect x="42.3569" y="85.5784" width="6.051" height="24.204" fill="black"/>
<rect x="53.5945" y="85.5784" width="6.051" height="24.204" fill="black"/>
<rect x="12.1021" y="122.749" width="77.7986" height="5.18657" fill="black"/>
<rect x="12.1021" y="22.4751" width="6.051" height="12.102" fill="black"/>
<rect x="6.05103" y="34.5771" width="6.051" height="11.2376" fill="black"/>
<rect y="45.8147" width="6.051" height="22.4751" fill="black"/>
<rect x="24.2041" y="11.2375" width="12.102" height="6.051" fill="black"/>
<rect x="18.1531" y="17.2886" width="11.2376" height="6.051" fill="black"/>
<rect x="72.6121" y="17.2886" width="11.2376" height="6.051" fill="black"/>
<rect x="65.6965" y="11.2375" width="12.102" height="6.051" fill="black"/>
<path d="M6.05103 57.0522H12.102V63.1032H18.153V68.2898H29.3906V63.1032H35.4416V57.0522H41.4926V63.1032H59.6456V68.2898H36.306V74.3408H18.153H12.102V68.2898H6.05103V57.0522Z" fill="#036F72"/>
<rect x="23.3396" y="57.0522" width="6.051" height="6.051" fill="#4E949B"/>
<rect x="12.1021" y="51.8657" width="5.18657" height="5.18657" fill="#4E949B"/>
<rect x="19.0173" y="40.6282" width="5.18657" height="5.18657" fill="#4E949B"/>
<rect x="24.2041" y="45.8147" width="5.18657" height="5.18657" fill="#4E949B"/>
<rect x="47.5435" y="51.0012" width="6.051" height="6.051" fill="#17595C"/>
<rect x="41.4927" y="34.5771" width="6.051" height="6.051" fill="#51949A"/>
<rect x="53.5945" y="34.5771" width="6.051" height="6.051" fill="#51949A"/>
<rect x="59.6455" y="57.0522" width="6.051" height="6.051" fill="#25172A"/>
<rect x="83.8496" y="51.8657" width="6.051" height="6.051" fill="#51949A"/>
<path d="M59.6455 63.1032H71.7475V57.0522H77.7985V63.1032H89.9005V57.0522H95.9515V67.4254H89.9005V74.3408H83.8495V79.5274H77.7985V74.3408H59.6455V63.1032Z" fill="#036F72"/>
<rect x="72.6121" y="45.8147" width="6.051" height="6.051" fill="#51949A"/>
<rect x="72.6121" y="34.5771" width="6.051" height="6.051" fill="#51949A"/>
<rect x="59.6455" y="28.5261" width="6.051" height="6.051" fill="#FEFBE9"/>
<rect x="48.408" y="22.4751" width="6.051" height="6.051" fill="#FEFBE9"/>
<rect x="66.561" y="17.2886" width="6.051" height="6.051" fill="#FFE8CC"/>
<rect x="59.6455" y="11.2375" width="6.051" height="6.051" fill="#FFE8CC"/>
<rect x="36.3059" y="11.2375" width="6.051" height="6.051" fill="#FFE8CC"/>
<rect x="29.3906" y="17.2886" width="6.051" height="6.051" fill="#FFE8CC"/>
<rect x="18.1531" y="23.3396" width="6.051" height="6.051" fill="#FFE8CC"/>
<rect x="12.1021" y="34.5771" width="6.051" height="6.051" fill="#FFE8CC"/>
<rect x="77.7986" y="23.3396" width="6.051" height="6.051" fill="#FFE8CC"/>
<rect x="42.3569" y="5.18652" width="17.2886" height="6.051" fill="#FFE8CC"/>
<rect x="59.6455" y="39.7637" width="6.051" height="6.051" fill="#51949A"/>
<rect x="41.4927" y="51.0012" width="6.051" height="6.051" fill="#9BCDB2"/>
<rect x="53.5945" y="57.0522" width="6.051" height="6.051" fill="#036F72"/>
<rect x="36.3059" y="74.3408" width="6.051" height="5.18657" fill="#C24E29"/>
<rect x="59.6455" y="74.3408" width="6.051" height="5.18657" fill="#C24E29"/>
<path d="M48.4079 74.3408H53.5945V79.5274H59.6455V85.5784H53.5945V109.782H59.6455V122.749H42.3569V109.782H48.4079V85.5784H42.3569V79.5274H48.4079V74.3408Z" fill="#C24E29"/>
</svg>
