<svg width="128" height="128" viewBox="0 0 128 128" fill="none" xmlns="http://www.w3.org/2000/svg">
<rect x="40.7671" y="30.4976" width="47.1233" height="3.15493" fill="#0D3E20"/>
<rect x="61.5891" width="4.82192" height="3.4554" fill="#DF9965"/>
<rect x="57.863" y="6.46021" width="8.54795" height="3.4554" fill="#DF9965"/>
<rect x="54.3562" y="3.45532" width="12.0548" height="3.00469" fill="#DF9965"/>
<rect x="57.863" y="9.91553" width="4.16438" height="2.25352" fill="#DF9965"/>
<rect x="66.4109" y="3.45532" width="8.10959" height="3.00469" fill="#9A5032"/>
<rect x="66.4109" y="6.46021" width="4.38356" height="5.70892" fill="#9A5032"/>
<rect x="62.0273" y="9.91553" width="4.38356" height="2.25352" fill="#9A5032"/>
<rect x="61.8081" y="12.1689" width="5.26027" height="3.30516" fill="#030B0D"/>
<rect width="0.219178" height="3.30516" transform="matrix(-1 0 0 1 61.8081 12.1689)" fill="#808B87"/>
<rect width="0.219178" height="6.15962" transform="matrix(-1 0 0 1 57.863 15.4741)" fill="#808B87"/>
<rect width="0.219178" height="2.25352" transform="matrix(-1 0 0 1 71.0137 19.3804)" fill="#808B87"/>
<rect width="0.219178" height="2.70423" transform="matrix(-1 0 0 1 76.9314 21.6338)" fill="#808B87"/>
<rect width="5.47945" height="0.150235" transform="matrix(-1 0 0 1 57.6438 21.4836)" fill="#808B87"/>
<rect x="52.1643" y="24.4883" width="3.72603" height="0.150235" transform="rotate(180 52.1643 24.4883)" fill="#808B87"/>
<rect x="48.4385" y="24.6384" width="0.219178" height="0.150235" transform="rotate(180 48.4385 24.6384)" fill="#808B87"/>
<rect x="48.2192" y="24.7888" width="0.219178" height="0.150235" transform="rotate(180 48.2192 24.7888)" fill="#808B87"/>
<rect x="48" y="24.939" width="0.219178" height="0.150235" transform="rotate(180 48 24.939)" fill="#808B87"/>
<rect x="47.7808" y="25.0891" width="0.219178" height="0.150235" transform="rotate(180 47.7808 25.0891)" fill="#808B87"/>
<rect x="47.5615" y="25.2395" width="0.219178" height="0.150235" transform="rotate(180 47.5615 25.2395)" fill="#808B87"/>
<rect x="47.5615" y="26.4414" width="0.219178" height="0.150235" transform="rotate(180 47.5615 26.4414)" fill="#808B87"/>
<rect x="47.7808" y="26.5916" width="0.219178" height="0.150235" transform="rotate(180 47.7808 26.5916)" fill="#808B87"/>
<rect x="48" y="26.7417" width="0.219178" height="0.150235" transform="rotate(180 48 26.7417)" fill="#808B87"/>
<rect x="48.2192" y="26.8921" width="0.219178" height="0.150235" transform="rotate(180 48.2192 26.8921)" fill="#808B87"/>
<rect x="48.4385" y="27.0422" width="0.219178" height="0.150235" transform="rotate(180 48.4385 27.0422)" fill="#808B87"/>
<rect x="80.6575" y="24.6384" width="0.219178" height="0.150235" transform="rotate(180 80.6575 24.6384)" fill="#808B87"/>
<rect x="80.8767" y="24.6384" width="0.219178" height="0.150235" transform="rotate(180 80.8767 24.6384)" fill="#808B87"/>
<rect x="81.0959" y="24.7888" width="0.219178" height="0.150235" transform="rotate(180 81.0959 24.7888)" fill="#808B87"/>
<rect x="81.3152" y="24.939" width="0.219178" height="0.150235" transform="rotate(180 81.3152 24.939)" fill="#808B87"/>
<rect x="81.5342" y="25.0891" width="0.219178" height="0.150235" transform="rotate(180 81.5342 25.0891)" fill="#808B87"/>
<rect x="81.5342" y="26.4414" width="0.219178" height="0.150235" transform="rotate(180 81.5342 26.4414)" fill="#808B87"/>
<rect x="81.3152" y="26.5916" width="0.219178" height="0.150235" transform="rotate(180 81.3152 26.5916)" fill="#808B87"/>
<rect x="81.0959" y="26.7417" width="0.219178" height="0.150235" transform="rotate(180 81.0959 26.7417)" fill="#808B87"/>
<rect x="80.8767" y="26.8921" width="0.219178" height="0.150235" transform="rotate(180 80.8767 26.8921)" fill="#808B87"/>
<rect x="80.6575" y="27.0422" width="0.219178" height="0.150235" transform="rotate(180 80.6575 27.0422)" fill="#808B87"/>
<rect x="80.6575" y="27.0422" width="0.219178" height="0.150235" transform="rotate(180 80.6575 27.0422)" fill="#808B87"/>
<rect x="79.3425" y="30.3474" width="0.219178" height="3.30516" transform="rotate(180 79.3425 30.3474)" fill="#808B87"/>
<rect x="49.5342" y="30.4976" width="2.84932" height="0.150235" transform="rotate(180 49.5342 30.4976)" fill="#808B87"/>
<rect x="49.7534" y="30.4976" width="0.219178" height="3.4554" transform="rotate(180 49.7534 30.4976)" fill="#808B87"/>
<rect x="46.9041" y="30.4976" width="0.219178" height="2.70423" transform="rotate(180 46.9041 30.4976)" fill="#808B87"/>
<rect width="5.91781" height="0.150235" transform="matrix(-1 0 0 1 76.9314 21.4836)" fill="#808B87"/>
<rect width="3.94521" height="0.150235" transform="matrix(-1 0 0 1 80.6575 24.3381)" fill="#808B87"/>
<rect x="57.863" y="15.4741" width="13.1507" height="1.95305" fill="#0E4420"/>
<rect x="57.863" y="17.4272" width="13.1507" height="1.95305" fill="#0E4420"/>
<rect x="57.863" y="17.4272" width="13.1507" height="1.95305" fill="#0E4420"/>
<rect x="57.863" y="19.3804" width="12.9315" height="2.25352" fill="#0E4420"/>
<rect x="52.1643" y="21.6338" width="24.5479" height="2.85446" fill="#0E4420"/>
<rect x="49.7534" y="24.4883" width="29.3699" height="12.3192" fill="#0E4420"/>
<path d="M63.0559 17.4272L65.1634 17.4275V17.5775H65.3741V17.7277H65.5848V17.878H65.7956V18.0282H66.0063V18.1784H66.2171V18.3287H66.4278V18.4789H66.6386V18.6291H66.8493V19.9812H66.6386V20.1315H66.4278V20.2817H66.2171V20.4319H66.0063V20.5822H65.7956V20.7324H65.5848V20.8826H65.3741V21.0329H65.1634V21.1831H63.0559V21.0329H62.8451V20.8826H62.6344V20.7324H62.4236V20.5822H62.2129V20.4319H62.0021V20.2817H61.7914V20.1315H61.5806V19.9812H61.3699V18.6291H61.5806V18.4789H61.7914V18.3287H62.0021V18.1784H62.2129L62.2129 18.0282H62.4236V17.878H62.6344V17.7277H62.8451V17.5775H63.0559V17.4272Z" fill="#F7FFFD"/>
<path d="M58.2339 24.0376L60.3413 24.0379V24.1878H60.5521V24.3381H60.7628V24.4883H60.9736V24.6385H61.1843V24.7888H61.3951V24.939H61.6058V25.0892H61.8166V25.2395H62.0273V26.5916H61.8166V26.7418H61.6058V26.8921H61.3951V27.0423H61.1843V27.1925H60.9736V27.3428H60.7628V27.493H60.5521V27.6432H60.3413V27.7935H58.2339V27.6432H58.0231V27.493H57.8124V27.3428H57.6016V27.1925H57.3909V27.0423H57.1801V26.8921H56.9693V26.7418H56.7586V26.5916H56.5479V25.2395H56.7586V25.0892H56.9693V24.939H57.1801V24.7888H57.3908L57.3909 24.6385H57.6016V24.4883H57.8124V24.3381H58.0231V24.1878H58.2339V24.0376Z" fill="#F7FFFD"/>
<path d="M70.0695 50.0281L72.177 50.0284V50.1783H72.3878V50.3285H72.5985V50.4788H72.8093V50.629H73.02V50.7792H73.2308V50.9295H73.4415V51.0797H73.6522V51.23H73.863V52.5821H73.6522V52.7323H73.4415V52.8825H73.2308V53.0328H73.02V53.183H72.8093V53.3332H72.5985V53.4835H72.3878V53.6337H72.177V53.7839H70.0695V53.6337H69.8588V53.4835H69.6481V53.3332H69.4373V53.183H69.2266V53.0328H69.0158V52.8825H68.805V52.7323H68.5943V52.5821H68.3835V51.23H68.5943V51.0797H68.805V50.9295H69.0158V50.7792H69.2265L69.2266 50.629H69.4373V50.4788H69.6481V50.3285H69.8588V50.1783H70.0695V50.0281Z" fill="#F7FFFD"/>
<path d="M67.4563 26.1409L69.3109 26.1411V26.2731H69.4964V26.4053H69.6818V26.5375H69.8673V26.6697H70.0527V26.8019H70.2382V26.9341H70.4237V27.0663H70.6091V27.1985H70.7946V28.3884H70.6091V28.5206H70.4237V28.6528H70.2382V28.785H70.0527V28.9172H69.8673V29.0494H69.6818V29.1816H69.4964V29.3138H69.3109V29.446H67.4563V29.3138H67.2709V29.1816H67.0854V29.0494H66.9V28.9172H66.7145V28.785H66.529V28.6528H66.3436V28.5206H66.1581V28.3884H65.9727V27.1985H66.1581V27.0663H66.3436V26.9341H66.529V26.8019H66.7145L66.7145 26.6697H66.9V26.5375H67.0854V26.4053H67.2709V26.2731H67.4563V26.1409Z" fill="#50A65A"/>
<path d="M51.6587 30.1973L53.7661 30.1976V30.3475H53.9769V30.4977H54.1876V30.648H54.3984V30.7982H54.6091V30.9484H54.8199V31.0987H55.0306V31.2489H55.2414V31.3991H55.4521V32.7513H55.2414V32.9015H55.0306V33.0517H54.8199V33.202H54.6091V33.3522H54.3984V33.5024H54.1876V33.6527H53.9769V33.8029H53.7661V33.9531H51.6587V33.8029H51.4479V33.6527H51.2372V33.5024H51.0264V33.3522H50.8157V33.202H50.6049V33.0517H50.3942V32.9015H50.1834V32.7513H49.9727V31.3991H50.1834V31.2489H50.3942V31.0987H50.6049V30.9484H50.8156L50.8157 30.7982H51.0264V30.648H51.2372V30.4977H51.4479V30.3475H51.6587V30.1973Z" fill="#50A65A"/>
<path d="M39.6037 58.291L41.7112 58.2913V58.4413H41.9219V58.5915H42.1327V58.7417H42.3434V58.892H42.5542V59.0422H42.7649V59.1924H42.9757V59.3427H43.1864V59.4929H43.3972V60.845H43.1864V60.9952H42.9757V61.1455H42.7649V61.2957H42.5542V61.4459H42.3434V61.5962H42.1327V61.7464H41.9219V61.8966H41.7112V62.0469H39.6037V61.8966H39.393V61.7464H39.1822V61.5962H38.9715V61.4459H38.7607V61.2957H38.55V61.1455H38.3392V60.9952H38.1285V60.845H37.9177V59.4929H38.1285V59.3427H38.3392V59.1924H38.55V59.0422H38.7607L38.7607 58.892H38.9715V58.7417H39.1822V58.5915H39.393V58.4413H39.6037V58.291Z" fill="#50A65A"/>
<path d="M66.5796 46.7229L68.4342 46.7232V46.8551H68.6197V46.9873H68.8051V47.1195H68.9906V47.2517H69.176V47.3839H69.3615V47.5161H69.5469V47.6483H69.7324V47.7806H69.9179V48.9704H69.7324V49.1026H69.5469V49.2348H69.3615V49.367H69.176V49.4992H68.9906V49.6314H68.8051V49.7637H68.6197V49.8959H68.4342V50.0281H66.5796V49.8959H66.3942V49.7637H66.2087V49.6314H66.0233V49.4992H65.8378V49.367H65.6523V49.2348H65.4669V49.1026H65.2814V48.9704H65.0959V47.7806H65.2814V47.6483H65.4669V47.5161H65.6523V47.3839H65.8378L65.8378 47.2517H66.0233V47.1195H66.2087V46.9873H66.3942V46.8551H66.5796V46.7229Z" fill="#236937"/>
<path d="M63.7303 30.6479L65.5848 30.6482V30.7802H65.7703V30.9124H65.9557V31.0446H66.1412V31.1768H66.3267V31.309H66.5121V31.4412H66.6976V31.5734H66.883V31.7056H67.0685V32.8955H66.883V33.0277H66.6976V33.1599H66.5121V33.2921H66.3267V33.4243H66.1412V33.5565H65.9557V33.6887H65.7703V33.8209H65.5848V33.9531H63.7303V33.8209H63.5448V33.6887H63.3593V33.5565H63.1739V33.4243H62.9884V33.2921H62.803V33.1599H62.6175V33.0277H62.432V32.8955H62.2466V31.7056H62.432V31.5734H62.6175V31.4412H62.803V31.309H62.9884L62.9884 31.1768H63.1739V31.0446H63.3593V30.9124H63.5448V30.7802H63.7303V30.6479Z" fill="#E39A67"/>
<path d="M48.3877 67.7559L50.2423 67.7561V67.8881H50.4278V68.0203H50.6132V68.1525H50.7987V68.2847H50.9841V68.4169H51.1696V68.5491H51.3551V68.6813H51.5405V68.8135H51.726V70.0034H51.5405V70.1356H51.3551V70.2678H51.1696V70.4H50.9841V70.5322H50.7987V70.6644H50.6132V70.7966H50.4278V70.9288H50.2423V71.061H48.3877V70.9288H48.2023V70.7966H48.0168V70.6644H47.8314V70.5322H47.6459V70.4H47.4604V70.2678H47.275V70.1356H47.0895V70.0034H46.9041V68.8135H47.0895V68.6813H47.275V68.5491H47.4604V68.4169H47.6459L47.6459 68.2847H47.8314V68.1525H48.0168V68.0203H48.2023V67.8881H48.3877V67.7559Z" fill="#E39A67"/>
<path d="M48.4384 24.4883H49.7535V27.0423H48.4384V26.892H48.2192V26.7418H48.0001V26.5916H47.7809V26.4413H47.5617V26.2911H47.3425V25.2395H47.5617V25.0892H47.7809V24.939H48.0001V24.7888H48.2192V24.6385H48.4384V24.4883Z" fill="#0E4420"/>
<path d="M39.8107 30.4976H40.7671V33.6525H39.8107V33.4669H39.6513V33.2813H39.4919V33.0957H39.3325V32.9102H39.1731V32.7246H39.0137V31.4255H39.1731V31.2399H39.3325V31.0543H39.4919V30.8687H39.6513V30.6831H39.8107V30.4976Z" fill="#0E4420"/>
<path d="M89.5043 30.4976H88.5478V33.6525H89.5043V33.4669H89.6637V33.2813H89.8231V33.0957H89.9825V32.9102H90.1419V32.7246H90.3013V31.4255H90.1419V31.2399H89.9825V31.0543H89.8231V30.8687H89.6637V30.6831H89.5043V30.4976Z" fill="#093119"/>
<path d="M95.8605 40.4131H94.904V43.568H95.8605V43.3824H96.0199V43.1968H96.1793V43.0113H96.3387V42.8257H96.4981V42.6401H96.6575V41.341H96.4981V41.1554H96.3387V40.9698H96.1793V40.7843H96.0199V40.5987H95.8605V40.4131Z" fill="#093119"/>
<path d="M95.8605 56.0376H94.904V58.7418H95.8605V58.5828H96.0199V58.4237H96.1793V58.2646H96.3387V58.1055H96.4981V57.9465H96.6575V56.833H96.4981V56.6739H96.3387V56.5148H96.1793V56.3557H96.0199V56.1967H95.8605V56.0376Z" fill="#093119"/>
<path d="M109.23 61.446H108.274V64.601H109.23V64.4154H109.39V64.2298H109.549V64.0442H109.709V63.8586H109.868V63.6731H110.027V62.374H109.868V62.1884H109.709V62.0028H109.549V61.8172H109.39V61.6316H109.23V61.446Z" fill="#093119"/>
<path d="M117.559 71.061H116.603V74.5164H117.559V74.3132H117.719V74.1099H117.878V73.9067H118.037V73.7034H118.197V73.5001H118.356V72.0773H118.197V71.8741H118.037V71.6708H117.878V71.4676H117.719V71.2643H117.559V71.061Z" fill="#093119"/>
<path d="M117.559 82.7793H116.603V85.9342H117.559V85.7486H117.719V85.5631H117.878V85.3775H118.037V85.1919H118.197V85.0063H118.356V83.7072H118.197V83.5216H118.037V83.336H117.878V83.1505H117.719V82.9649H117.559V82.7793Z" fill="#093119"/>
<path d="M117.559 82.7793H116.603V85.9342H117.559V85.7486H117.719V85.5631H117.878V85.3775H118.037V85.1919H118.197V85.0063H118.356V83.7072H118.197V83.5216H118.037V83.336H117.878V83.1505H117.719V82.9649H117.559V82.7793Z" fill="#093119"/>
<path d="M127.203 94.0469H126.247V97.0516H127.203V96.8748H127.362V96.6981H127.522V96.5213H127.681V96.3446H127.841V96.1678H128V94.9306H127.841V94.7539H127.681V94.5771H127.522V94.4004H127.362V94.2236H127.203V94.0469Z" fill="#093119"/>
<path d="M33.2355 40.4131H34.1919V43.7183H33.2355V43.5238H33.0761V43.3294H32.9167V43.135H32.7573V42.9406H32.5979V42.7461H32.4385V41.3852H32.5979V41.1908H32.7573V40.9964H32.9167V40.8019H33.0761V40.6075H33.2355V40.4131Z" fill="#0E4420"/>
<path d="M32.797 55.8872H33.7534V58.7417H32.797V58.5738H32.6376V58.4058H32.4782V58.2379H32.3188V58.07H32.1594V57.9021H32V56.7268H32.1594V56.5588H32.3188V56.3909H32.4782V56.223H32.6376V56.0551H32.797V55.8872Z" fill="#0E4420"/>
<path d="M19.8656 61.446H20.822V64.9014H19.8656V64.6982H19.7062V64.4949H19.5468V64.2917H19.3874V64.0884H19.228V63.8852H19.0686V62.4623H19.228V62.2591H19.3874V62.0558H19.5468V61.8526H19.7062V61.6493H19.8656V61.446Z" fill="#0E4420"/>
<path d="M11.0983 71.061H12.0547V74.5164H11.0983V74.3132H10.9389V74.1099H10.7795V73.9067H10.6201V73.7034H10.4607V73.5001H10.3013V72.0773H10.4607V71.8741H10.6201V71.6708H10.7795V71.4676H10.9389V71.2643H11.0983V71.061Z" fill="#0E4420"/>
<path d="M10.66 82.7793H11.6165V85.9342H10.66V85.7486H10.5006V85.5631H10.3412V85.3775H10.1818V85.1919H10.0224V85.0063H9.86304V83.7072H10.0224V83.5216H10.1818V83.336H10.3412V83.1505H10.5006V82.9649H10.66V82.7793Z" fill="#0E4420"/>
<path d="M80.4383 24.4883H79.1232V27.0423H80.4383V26.892H80.6575V26.7418H80.8766V26.5916H81.0958V26.4413H81.315V26.2911H81.5342V25.2395H81.315V25.0892H81.0958V24.939H80.8766V24.7888H80.6575V24.6385H80.4383V24.4883Z" fill="#0E4420"/>
<rect x="43.6165" y="27.7935" width="3.06849" height="2.70423" fill="#0D3E20"/>
<rect x="40.7671" y="30.4976" width="8.9863" height="3.15493" fill="#0D3E20"/>
<rect x="40.7671" y="30.4976" width="8.9863" height="3.15493" fill="#0D3E20"/>
<rect x="48.8767" y="33.6526" width="0.876712" height="3.15493" fill="#0D3E20"/>
<rect x="79.1233" y="32.7512" width="1.09589" height="4.05634" fill="#0D3E20"/>
<rect x="54.137" y="36.8076" width="30.9041" height="3.4554" fill="#0E4420"/>
<rect x="33.5342" y="40.2629" width="16.2192" height="3.60563" fill="#0E4420"/>
<rect x="42.0823" y="43.4177" width="19.9452" height="3.30516" fill="#0E4420"/>
<rect x="38.3562" y="46.7229" width="19.9452" height="3.15493" fill="#0E4420"/>
<rect x="30.6848" y="49.8779" width="4.16438" height="3.15493" fill="#0E4420"/>
<rect x="38.7944" y="53.033" width="4.16438" height="2.85446" fill="#0E4420"/>
<rect x="33.5342" y="55.8872" width="20.6027" height="2.85446" fill="#0E4420"/>
<rect x="34.8494" y="58.7417" width="9.42466" height="2.85446" fill="#0E4420"/>
<rect x="34.8494" y="58.7417" width="9.42466" height="2.85446" fill="#0E4420"/>
<rect x="29.5891" y="63.8499" width="4.16438" height="2.85446" fill="#0E4420"/>
<rect x="42.959" y="49.8779" width="11.1781" height="3.15493" fill="#0E4420"/>
<rect x="66.4109" y="40.2629" width="12.0548" height="3.15493" fill="#0E4420"/>
<rect x="81.7534" y="27.6433" width="3.50685" height="2.70423" fill="#073119"/>
<rect x="79.1233" y="30.3474" width="9.42466" height="3.30516" fill="#073119"/>
<rect x="78.4658" y="43.8687" width="8.10959" height="2.85446" fill="#073119"/>
<rect x="78.4658" y="40.2629" width="17.0959" height="3.60563" fill="#073119"/>
<rect x="58.3013" y="46.7229" width="17.0959" height="3.30516" fill="#073119"/>
<rect x="94.4658" y="50.0281" width="3.50685" height="2.85446" fill="#073119"/>
<rect x="70.5754" y="58.8921" width="23.2329" height="2.70423" fill="#073119"/>
<rect x="85.041" y="61.446" width="23.2329" height="3.15493" fill="#073119"/>
<rect x="93.8081" y="64.6008" width="6.13699" height="2.10329" fill="#073119"/>
<rect x="46.4658" y="71.061" width="70.137" height="3.4554" fill="#073119"/>
<rect x="58.0823" y="74.5164" width="45.8082" height="2.25352" fill="#073119"/>
<rect x="74.3013" y="76.77" width="8.54795" height="2.85446" fill="#073119"/>
<rect x="54.137" y="79.6245" width="16.2192" height="2.85446" fill="#073119"/>
<rect x="86.7944" y="79.6245" width="17.0959" height="3.15493" fill="#073119"/>
<rect y="94.1973" width="10.3014" height="2.85446" fill="#073119"/>
<rect x="39.0137" y="91.6433" width="7.89041" height="5.40845" fill="#073119"/>
<rect x="51.5068" y="91.6433" width="5.69863" height="5.40845" fill="#073119"/>
<rect x="71.6711" y="94.0469" width="6.13699" height="3.00469" fill="#073119"/>
<rect x="82.1919" y="94.0469" width="31.5616" height="3.00469" fill="#073119"/>
<rect x="46.9041" y="97.0518" width="4.38356" height="3.15493" fill="#073119"/>
<rect x="46.9041" y="91.6433" width="4.60274" height="2.40376" fill="#073119"/>
<rect x="39.0137" y="76.77" width="15.1233" height="5.85915" fill="#073119"/>
<rect x="34.6301" y="82.4788" width="52.1644" height="9.16432" fill="#073119"/>
<rect x="19.9453" y="96.4507" width="7.89041" height="3.75587" rx="1.87793" fill="#073119"/>
<rect x="19.9453" y="96.4507" width="7.89041" height="3.75587" rx="1.87793" fill="#073119"/>
<rect x="33.3152" y="96.4507" width="8.32877" height="3.75587" rx="1.87793" fill="#073119"/>
<rect x="33.3152" y="96.4507" width="8.32877" height="3.75587" rx="1.87793" fill="#073119"/>
<rect x="103.89" y="76.77" width="3.94521" height="2.85446" fill="#073119"/>
<rect x="108.274" y="79.7747" width="2.84932" height="3.00469" fill="#073119"/>
<rect x="86.7944" y="82.7793" width="29.8082" height="3.15493" fill="#073119"/>
<rect x="86.7944" y="85.9343" width="21.0411" height="3.15493" fill="#073119"/>
<rect x="86.7944" y="88.939" width="32" height="2.70423" fill="#073119"/>
<rect x="118.356" y="94.0469" width="7.89041" height="3.00469" fill="#073119"/>
<rect x="101.041" y="97.0518" width="7.45205" height="3.15493" fill="#073119"/>
<rect x="87.4521" y="97.0518" width="7.89041" height="3.15493" fill="#073119"/>
<rect x="77.8081" y="97.0518" width="4.38356" height="3.15493" fill="#073119"/>
<rect x="60.9314" y="94.0469" width="7.0137" height="14.5728" fill="#030E10"/>
<rect x="53.9177" y="111.474" width="20.6027" height="2.85446" fill="#030E10"/>
<rect x="53.9177" y="114.329" width="4.38356" height="2.55399" fill="#030E10"/>
<rect x="66.1919" y="114.329" width="4.38356" height="2.55399" fill="#030E10"/>
<rect x="57.2056" y="91.6433" width="65.9726" height="2.40376" fill="#073119"/>
<rect x="29.5891" y="66.7041" width="64.2192" height="4.35681" fill="#073119"/>
<rect x="38.5754" y="61.5962" width="27.6164" height="3.00469" fill="#073119"/>
<rect x="44.2739" y="58.7417" width="13.8082" height="3.00469" fill="#073119"/>
<rect x="35.7261" y="64.6008" width="42.9589" height="3.15493" fill="#073119"/>
<rect x="54.137" y="49.8779" width="36.1644" height="6.00939" fill="#073119"/>
<rect x="61.8081" y="55.8872" width="33.0959" height="3.00469" fill="#073119"/>
<path d="M75.7683 30.1973L77.8758 30.1976V30.3475H78.0865V30.4977H78.2972V30.648H78.508V30.7982H78.7187V30.9484H78.9295V31.0987H79.1402V31.2489H79.351V31.3991H79.5617V32.7513H79.351V32.9015H79.1402V33.0517H78.9295V33.202H78.7187V33.3522H78.508V33.5024H78.2972V33.6527H78.0865V33.8029H77.8758V33.9531H75.7683V33.8029H75.5575V33.6527H75.3468V33.5024H75.136V33.3522H74.9253V33.202H74.7145V33.0517H74.5038V32.9015H74.293V32.7513H74.0823V31.3991H74.293V31.2489H74.5038V31.0987H74.7145V30.9484H74.9253L74.9253 30.7982H75.136V30.648H75.3468V30.4977H75.5575V30.3475H75.7683V30.1973Z" fill="#F7FFFD"/>
<rect x="43.8357" y="36.8076" width="10.3014" height="3.4554" fill="#E1A068"/>
<rect x="54.137" y="40.2629" width="12.274" height="3.15493" fill="#E1A068"/>
<rect x="34.8494" y="49.8779" width="8.10959" height="3.15493" fill="#E1A068"/>
<rect x="24.9863" y="66.7041" width="4.60274" height="4.35681" fill="#E1A068"/>
<rect x="29.5891" y="70.9109" width="16.8767" height="3.00469" fill="#E1A068"/>
<rect x="46.4658" y="73.9155" width="11.6164" height="2.85446" fill="#E1A068"/>
<rect x="58.0823" y="76.77" width="16.2192" height="2.85446" fill="#E1A068"/>
<rect x="74.3013" y="79.6245" width="8.54795" height="2.85446" fill="#E1A068"/>
<path d="M96.8767 75.2676H99.9451V76.7699H95.7808L96.2191 75.568L96.8767 75.2676Z" fill="#E1A068"/>
<rect x="82.8494" y="76.77" width="17.0959" height="2.85446" fill="#E1A068"/>
<rect x="54.137" y="55.8872" width="8.10959" height="3.00469" fill="#E1A068"/>
<rect x="42.959" y="53.033" width="6.79452" height="2.85446" fill="#B16146"/>
<rect x="58.0823" y="58.8921" width="8.10959" height="2.70423" fill="#B16146"/>
<rect x="66.1919" y="61.5962" width="20.3836" height="3.00469" fill="#E1A068"/>
<rect x="66.4109" y="43.4177" width="12.0548" height="3.30516" fill="#E1A068"/>
<rect x="78.4658" y="46.7229" width="8.10959" height="3.30516" fill="#E1A068"/>
<path d="M55.4014 35.4553L57.256 35.4556V35.5875H57.4414V35.7197H57.6269V35.8519H57.8124V35.9841H57.9978V36.1164H58.1833V36.2486H58.3687V36.3808H58.5542V36.513H58.7396V37.7028H58.5542V37.835H58.3687V37.9672H58.1833V38.0995H57.9978V38.2317H57.8124V38.3639H57.6269V38.4961H57.4414V38.6283H57.256V38.7605H55.4014V38.6283H55.2159V38.4961H55.0305V38.3639H54.845V38.2317H54.6596V38.0995H54.4741V37.9672H54.2886V37.835H54.1032V37.7028H53.9177V36.513H54.1032V36.3808H54.2886V36.2486H54.4741V36.1164H54.6596L54.6596 35.9841H54.845V35.8519H55.0305V35.7197H55.2159V35.5875H55.4014V35.4553Z" fill="#50A65A"/>
<rect x="49.7534" y="40.2629" width="4.38356" height="3.15493" fill="#904E34"/>
<rect x="62.0273" y="43.4177" width="4.38356" height="3.30516" fill="#904E34"/>
<rect x="49.7534" y="53.033" width="4.38356" height="2.85446" fill="#904E34"/>
<rect x="66.1919" y="58.8921" width="4.38356" height="2.70423" fill="#904E34"/>
<rect x="78.6848" y="64.6008" width="15.1233" height="3.15493" fill="#904E34"/>
<rect x="93.8081" y="66.7041" width="10.0822" height="4.35681" fill="#904E34"/>
<rect x="99.9453" y="76.77" width="3.94521" height="2.85446" fill="#904E34"/>
<rect x="82.8494" y="79.6245" width="3.94521" height="2.85446" fill="#904E34"/>
<rect x="57.4246" y="106.216" width="3.50685" height="2.40376" fill="#904E34"/>
<rect x="53.9177" y="108.62" width="3.50685" height="2.85446" fill="#904E34"/>
<rect x="58.3013" y="116.582" width="3.72603" height="3.00469" fill="#904E34"/>
<rect x="25.4246" y="124.995" width="28.7123" height="3.00469" fill="#B2C5BF"/>
<rect x="78.4658" y="124.995" width="25.2055" height="3.00469" fill="#B2C5BF"/>
<rect x="82.6301" y="122.291" width="8.32877" height="2.70423" fill="#B2C5BF"/>
<rect x="37.4795" y="122.291" width="8.32877" height="2.70423" fill="#B2C5BF"/>
<rect x="18.4109" y="122.291" width="7.0137" height="2.70423" fill="#B2C5BF"/>
<rect x="29.5891" y="122.291" width="7.89041" height="2.70423" fill="#B2C5BF"/>
<rect x="90.959" y="122.291" width="8.32877" height="2.70423" fill="#123F20"/>
<rect x="99.2876" y="122.291" width="4.38356" height="2.70423" fill="#5B8867"/>
<rect x="90.959" y="120.188" width="3.72603" height="2.10329" fill="#388A40"/>
<rect x="25.4246" y="120.038" width="4.16438" height="2.70423" rx="1.35211" fill="#388A40"/>
<rect x="103.671" y="122.291" width="8.32877" height="2.70423" fill="#B2C5BF"/>
<rect x="54.137" y="124.995" width="24.3288" height="3.00469" fill="#442219"/>
<rect x="45.3699" y="111.474" width="4.16438" height="2.55399" fill="#904E34"/>
<rect x="41.6438" y="116.432" width="4.16438" height="3.15493" fill="#904E34"/>
<rect x="45.8081" y="119.587" width="4.16438" height="2.70423" fill="#904E34"/>
<rect x="45.8081" y="119.587" width="4.16438" height="2.70423" fill="#904E34"/>
<rect x="49.9727" y="122.291" width="8.10959" height="2.70423" fill="#904E34"/>
<rect x="70.137" y="122.291" width="8.32877" height="2.70423" fill="#904E34"/>
<rect x="37.041" y="113.878" width="4.60274" height="2.70423" fill="#904E34"/>
<rect x="71.4521" y="108.62" width="3.50685" height="2.85446" fill="#904E34"/>
<rect x="78.6848" y="111.474" width="4.16438" height="2.55399" fill="#904E34"/>
<rect x="86.3562" y="114.028" width="4.38356" height="2.55399" fill="#904E34"/>
<rect x="82.6301" y="116.582" width="3.72603" height="3.00469" fill="#904E34"/>
<rect x="78.4658" y="119.587" width="4.16438" height="2.70423" fill="#904E34"/>
<rect x="82.6301" y="119.587" width="3.72603" height="2.70423" fill="#51221E"/>
<rect x="78.4658" y="122.291" width="4.16438" height="2.70423" fill="#51221E"/>
<rect x="74.959" y="108.62" width="3.72603" height="2.85446" fill="#E09665"/>
<rect x="82.6301" y="111.324" width="3.72603" height="5.25822" fill="#E09665"/>
<rect x="58.0823" y="122.291" width="3.94521" height="2.70423" fill="#E09665"/>
<rect x="66.1919" y="122.291" width="3.94521" height="2.70423" fill="#E09665"/>
<rect x="49.5342" y="108.62" width="4.38356" height="2.85446" fill="#E09665"/>
<rect x="45.8081" y="116.582" width="12.4932" height="3.00469" fill="#E09665"/>
<rect x="62.0273" y="116.582" width="20.6027" height="3.00469" fill="#E09665"/>
<rect x="41.6438" y="111.324" width="3.72603" height="5.25822" fill="#E09665"/>
<rect x="67.9453" y="106.216" width="3.50685" height="2.40376" fill="#51221E"/>
<rect x="86.3562" y="104.563" width="4.60274" height="4.20657" fill="#51221E"/>
<rect x="37.041" y="104.563" width="4.60274" height="4.20657" fill="#51221E"/>
<rect x="82.6301" y="108.77" width="3.72603" height="2.70423" fill="#51221E"/>
<rect x="86.3562" y="116.582" width="4.38356" height="3.00469" fill="#51221E"/>
<rect x="41.6438" y="108.77" width="3.72603" height="2.70423" fill="#51221E"/>
<rect x="41.6438" y="108.77" width="3.72603" height="2.70423" fill="#51221E"/>
<rect x="49.5342" y="111.474" width="4.38356" height="2.55399" fill="#482014"/>
<rect x="74.5205" y="111.474" width="4.38356" height="2.55399" fill="#482014"/>
<rect x="45.3699" y="114.028" width="8.54795" height="2.55399" fill="#482014"/>
<rect x="74.3013" y="114.028" width="8.54795" height="2.55399" fill="#482014"/>
<rect x="37.041" y="116.582" width="4.60274" height="3.00469" fill="#51221E"/>
<rect x="45.8081" y="122.291" width="4.16438" height="2.70423" fill="#51221E"/>
<rect x="41.6438" y="119.587" width="4.16438" height="2.70423" fill="#51221E"/>
<rect x="62.0273" y="122.291" width="4.16438" height="2.70423" fill="#51221E"/>
<rect x="49.9727" y="119.587" width="28.4932" height="2.70423" fill="#51221E"/>
<rect x="57.4246" y="108.62" width="14.0274" height="2.85446" fill="#51221E"/>
<rect x="70.3562" y="79.6245" width="3.94521" height="2.85446" fill="#904E34"/>
<rect x="54.137" y="76.77" width="3.94521" height="2.85446" fill="#904E34"/>
<rect x="42.5205" y="73.9155" width="3.94521" height="2.85446" fill="#904E34"/>
<path d="M29.5891 68.8076H32.1097L32.9864 69.1081L33.5343 69.6339V70.9109H29.5891V68.8076Z" fill="#904E34"/>
<path d="M99.9453 75.2676H101.48L102.028 75.7934L102.575 76.7699H99.9453V75.2676Z" fill="#904E34"/>
<rect x="74.0823" y="46.7229" width="4.38356" height="3.30516" fill="#904E34"/>
<rect x="86.3562" y="46.7229" width="3.94521" height="3.30516" fill="#904E34"/>
<rect x="90.3013" y="50.0281" width="4.16438" height="2.85446" fill="#904E34"/>
<path d="M71.4014 35.4553L73.256 35.4556V35.5875H73.4414V35.7197H73.6269V35.8519H73.8124V35.9841H73.9978V36.1164H74.1833V36.2486H74.3687V36.3808H74.5542V36.513H74.7396V37.7028H74.5542V37.835H74.3687V37.9672H74.1833V38.0995H73.9978V38.2317H73.8124V38.3639H73.6269V38.4961H73.4414V38.6283H73.256V38.7605H71.4014V38.6283H71.2159V38.4961H71.0305V38.3639H70.845V38.2317H70.6596V38.0995H70.4741V37.9672H70.2886V37.835H70.1032V37.7028H69.9177V36.513H70.1032V36.3808H70.2886V36.2486H70.4741V36.1164H70.6596L70.6596 35.9841H70.845V35.8519H71.0305V35.7197H71.2159V35.5875H71.4014V35.4553Z" fill="#50A65A"/>
<path d="M45.5217 43.5681L47.6292 43.5684V43.7183H47.8399V43.8686H48.0507V44.0188H48.2614V44.1691H48.4722V44.3193H48.6829V44.4695H48.8936V44.6198H49.1044V44.77H49.3151V46.1221H49.1044V46.2723H48.8936V46.4226H48.6829V46.5728H48.4722V46.723H48.2614V46.8733H48.0507V47.0235H47.8399V47.1737H47.6292V47.324H45.5217V47.1737H45.3109V47.0235H45.1002V46.8733H44.8895V46.723H44.6787V46.5728H44.4679V46.4226H44.2572V46.2723H44.0464V46.1221H43.8357V44.77H44.0464V44.6198H44.2572V44.4695H44.4679V44.3193H44.6787L44.6787 44.1691H44.8895V44.0188H45.1002V43.8686H45.3109V43.7183H45.5217V43.5681Z" fill="#50A65A"/>
<path d="M77.6566 37.5586L79.9327 37.5589V37.7208H80.1602V37.8831H80.3879V38.0454H80.6155V38.2076H80.8431V38.3699H81.0707V38.5321H81.2983V38.6944H81.5259V38.8566H81.7535V40.3169H81.5259V40.4792H81.2983V40.6414H81.0707V40.8037H80.8431V40.9659H80.6155V41.1282H80.3879V41.2904H80.1602V41.4527H79.9327V41.6149H77.6566V41.4527H77.429V41.2904H77.2014V41.1282H76.9738V40.9659H76.7461V40.8037H76.5185V40.6414H76.2909V40.4792H76.0633V40.3169H75.8357V38.8566H76.0633V38.6944H76.2909V38.5321H76.5185V38.3699H76.7461L76.7461 38.2076H76.9738V38.0454H77.2014V37.8831H77.429V37.7208H77.6566V37.5586Z" fill="#E39A67"/>
<path d="M52.7546 49.1267L54.8621 49.127V49.2769H55.0728V49.4272H55.2836V49.5774H55.4943V49.7276H55.7051V49.8779H55.9158V50.0281H56.1266V50.1784H56.3373V50.3286H56.5481V51.6807H56.3373V51.8309H56.1266V51.9812H55.9158V52.1314H55.7051V52.2816H55.4943V52.4319H55.2836V52.5821H55.0728V52.7323H54.8621V52.8826H52.7546V52.7323H52.5439V52.5821H52.3331V52.4319H52.1224V52.2816H51.9116V52.1314H51.7008V51.9812H51.4901V51.8309H51.2794V51.6807H51.0686V50.3286H51.2794V50.1784H51.4901V50.0281H51.7008V49.8779H51.9116L51.9116 49.7276H52.1224V49.5774H52.3331V49.4272H52.5439V49.2769H52.7546V49.1267Z" fill="#F7FFFD"/>
<path d="M82.3435 53.1831L84.451 53.1834V53.3333H84.6617V53.4836H84.8724V53.6338H85.0832V53.784H85.2939V53.9343H85.5047V54.0845H85.7154V54.2347H85.9262V54.385H86.1369V55.7371H85.9262V55.8873H85.7154V56.0376H85.5047V56.1878H85.2939V56.338H85.0832V56.4883H84.8724V56.6385H84.6617V56.7887H84.451V56.939H82.3435V56.7887H82.1327V56.6385H81.922V56.4883H81.7112V56.338H81.5005V56.1878H81.2897V56.0376H81.079V55.8873H80.8682V55.7371H80.6575V54.385H80.8682V54.2347H81.079V54.0845H81.2897V53.9343H81.5005L81.5005 53.784H81.7112V53.6338H81.922V53.4836H82.1327V53.3333H82.3435V53.1831Z" fill="#F7FFFD"/>
<path d="M71.5701 56.1877L73.0875 56.188V56.2959H73.2392V56.4041H73.391V56.5123H73.5427V56.6204H73.6945V56.7286H73.8462V56.8368H73.9979V56.9449H74.1497V57.0531H74.3014V58.0266H74.1497V58.1348H73.9979V58.243H73.8462V58.3511H73.6945V58.4593H73.5427V58.5675H73.391V58.6756H73.2392V58.7838H73.0875V58.892H71.5701V58.7838H71.4184V58.6756H71.2666V58.5675H71.1149V58.4593H70.9632V58.3511H70.8114V58.243H70.6597V58.1348H70.5079V58.0266H70.3562V57.0531H70.5079V56.9449H70.6597V56.8368H70.8114V56.7286H70.9632L70.9632 56.6204H71.1149V56.5123H71.2666V56.4041H71.4184V56.2959H71.5701V56.1877Z" fill="#F7FFFD"/>
<path d="M39.6037 58.291L41.7112 58.2913V58.4413H41.9219V58.5915H42.1327V58.7417H42.3434V58.892H42.5542V59.0422H42.7649V59.1924H42.9757V59.3427H43.1864V59.4929H43.3972V60.845H43.1864V60.9952H42.9757V61.1455H42.7649V61.2957H42.5542V61.4459H42.3434V61.5962H42.1327V61.7464H41.9219V61.8966H41.7112V62.0469H39.6037V61.8966H39.393V61.7464H39.1822V61.5962H38.9715V61.4459H38.7607V61.2957H38.55V61.1455H38.3392V60.9952H38.1285V60.845H37.9177V59.4929H38.1285V59.3427H38.3392V59.1924H38.55V59.0422H38.7607L38.7607 58.892H38.9715V58.7417H39.1822V58.5915H39.393V58.4413H39.6037V58.291Z" fill="#50A65A"/>
<path d="M47.9495 58.5916L49.8041 58.5918V58.7238H49.9895V58.856H50.175V58.9882H50.3604V59.1204H50.5459V59.2526H50.7314V59.3848H50.9168V59.517H51.1023V59.6492H51.2877V60.8391H51.1023V60.9713H50.9168V61.1035H50.7314V61.2357H50.5459V61.3679H50.3604V61.5001H50.175V61.6323H49.9895V61.7645H49.8041V61.8967H47.9495V61.7645H47.764V61.6323H47.5786V61.5001H47.3931V61.3679H47.2077V61.2357H47.0222V61.1035H46.8367V60.9713H46.6513V60.8391H46.4658V59.6492H46.6513V59.517H46.8367V59.3848H47.0222V59.2526H47.2077L47.2077 59.1204H47.3931V58.9882H47.5786V58.856H47.764V58.7238H47.9495V58.5916Z" fill="#E39A67"/>
<path d="M57.273 63.8499L59.5491 63.8502V64.0121H59.7767V64.1744H60.0043V64.3366H60.2319V64.4989H60.4595V64.6611H60.6871V64.8234H60.9147V64.9856H61.1423V65.1479H61.37V66.6082H61.1423V66.7704H60.9147V66.9327H60.6871V67.0949H60.4595V67.2572H60.2319V67.4194H60.0043V67.5817H59.7767V67.7439H59.5491V67.9062H57.273V67.7439H57.0454V67.5817H56.8178V67.4194H56.5902V67.2572H56.3626V67.0949H56.135V66.9327H55.9074V66.7704H55.6798V66.6082H55.4521V65.1479H55.6798V64.9856H55.9074V64.8234H56.135V64.6611H56.3626L56.3626 64.4989H56.5902V64.3366H56.8178V64.1744H57.0454V64.0121H57.273V63.8499Z" fill="#E39A67"/>
<rect x="20.822" y="61.446" width="17.7534" height="3.4554" fill="#0E4420"/>
<rect x="12.0547" y="71.061" width="17.5342" height="3.4554" fill="#0E4420"/>
<rect x="24.7671" y="73.9155" width="17.7534" height="3.4554" fill="#0E4420"/>
<rect x="21.2603" y="76.77" width="17.7534" height="2.70423" fill="#0E4420"/>
<rect x="24.1096" y="79.4741" width="14.9041" height="3.30516" fill="#0E4420"/>
<rect x="11.6165" y="82.7793" width="25.4247" height="3.15493" fill="#0E4420"/>
<rect x="21.041" y="85.9343" width="14.4658" height="3.15493" fill="#0E4420"/>
<rect x="5.47949" y="91.6433" width="33.5342" height="2.55399" fill="#0E4420"/>
<rect x="14.9041" y="94.1973" width="24.1096" height="2.85446" fill="#0E4420"/>
<path d="M11.9453 88.939H34.6302V91.9437H10.0823V89.9906L10.7398 89.8404L11.1782 89.5399L11.5069 89.2394L11.9453 88.939Z" fill="#0E4420"/>
<rect x="17.5342" y="79.7747" width="3.06849" height="3.00469" fill="#0E4420"/>
<path d="M33.9222 64L35.7767 64.0003V64.1322H35.9622V64.2644H36.1476V64.3966H36.3331V64.5288H36.5186V64.661H36.704V64.7932H36.8895V64.9254H37.0749V65.0577H37.2604V66.2475H37.0749V66.3797H36.8895V66.5119H36.704V66.6441H36.5186V66.7763H36.3331V66.9085H36.1476V67.0408H35.9622V67.173H35.7767V67.3052H33.9222V67.173H33.7367V67.0408H33.5512V66.9085H33.3658V66.7763H33.1803V66.6441H32.9949V66.5119H32.8094V66.3797H32.6239V66.2475H32.4385V65.0577H32.6239V64.9254H32.8094V64.7932H32.9949V64.661H33.1803L33.1803 64.5288H33.3658V64.3966H33.5512V64.2644H33.7367V64.1322H33.9222V64Z" fill="#50A65A"/>
<path d="M96.1685 66.7041L98.0231 66.7044V66.8363H98.2085V66.9685H98.394V67.1007H98.5794V67.2329H98.7649V67.3651H98.9504V67.4973H99.1358V67.6295H99.3213V67.7618H99.5067V68.9516H99.3213V69.0838H99.1358V69.216H98.9504V69.3482H98.7649V69.4804H98.5794V69.6126H98.394V69.7449H98.2085V69.8771H98.0231V70.0093H96.1685V69.8771H95.983V69.7449H95.7976V69.6126H95.6121V69.4804H95.4267V69.3482H95.2412V69.216H95.0557V69.0838H94.8703V68.9516H94.6848V67.7618H94.8703V67.6295H95.0557V67.4973H95.2412V67.3651H95.4266L95.4267 67.2329H95.6121V67.1007H95.7976V66.9685H95.983V66.8363H96.1685V66.7041Z" fill="#E39A67"/>
<path d="M91.566 70.6104L93.4205 70.6106V70.7426H93.606V70.8748H93.7914V71.007H93.9769V71.1392H94.1624V71.2714H94.3478V71.4036H94.5333V71.5358H94.7187V71.668H94.9042V72.8579H94.7187V72.9901H94.5333V73.1223H94.3478V73.2545H94.1624V73.3867H93.9769V73.5189H93.7914V73.6511H93.606V73.7833H93.4205V73.9155H91.566V73.7833H91.3805V73.6511H91.195V73.5189H91.0096V73.3867H90.8241V73.2545H90.6387V73.1223H90.4532V72.9901H90.2677V72.8579H90.0823V71.668H90.2677V71.5358H90.4532V71.4036H90.6387V71.2714H90.8241L90.8241 71.1392H91.0096V71.007H91.195V70.8748H91.3805V70.7426H91.566V70.6104Z" fill="#236937"/>
<path d="M86.0359 73.1643L87.5533 73.1645V73.2725H87.7051V73.3806H87.8568V73.4888H88.0085V73.597H88.1603V73.7052H88.312V73.8133H88.4637V73.9215H88.6155V74.0297H88.7672V75.0032H88.6155V75.1113H88.4637V75.2195H88.312V75.3277H88.1603V75.4359H88.0085V75.544H87.8568V75.6522H87.7051V75.7604H87.5533V75.8685H86.0359V75.7604H85.8842V75.6522H85.7325V75.544H85.5807V75.4359H85.429V75.3277H85.2772V75.2195H85.1255V75.1113H84.9738V75.0032H84.822V74.0297H84.9738V73.9215H85.1255V73.8133H85.2772V73.7052H85.429L85.429 73.597H85.5807V73.4888H85.7325V73.3806H85.8842V73.2725H86.0359V73.1643Z" fill="#50A65A"/>
<path d="M78.8536 68.3567L80.7081 68.357V68.4889H80.8936V68.6211H81.079V68.7533H81.2645V68.8855H81.45V69.0177H81.6354V69.1499H81.8209V69.2821H82.0063V69.4143H82.1918V70.6042H82.0063V70.7364H81.8209V70.8686H81.6354V71.0008H81.45V71.133H81.2645V71.2652H81.079V71.3974H80.8936V71.5296H80.7081V71.6619H78.8536V71.5296H78.6681V71.3974H78.4826V71.2652H78.2972V71.133H78.1117V71.0008H77.9262V70.8686H77.7408V70.7364H77.5553V70.6042H77.3699V69.4143H77.5553V69.2821H77.7408V69.1499H77.9262V69.0177H78.1117L78.1117 68.8855H78.2972V68.7533H78.4826V68.6211H78.6681V68.4889H78.8536V68.3567Z" fill="#E39A67"/>
<path d="M71.7894 73.1643L73.3067 73.1645V73.2725H73.4585V73.3806H73.6102V73.4888H73.762V73.597H73.9137V73.7052H74.0654V73.8133H74.2172V73.9215H74.3689V74.0297H74.5206V75.0032H74.3689V75.1113H74.2172V75.2195H74.0654V75.3277H73.9137V75.4359H73.762V75.544H73.6102V75.6522H73.4585V75.7604H73.3067V75.8685H71.7894V75.7604H71.6376V75.6522H71.4859V75.544H71.3341V75.4359H71.1824V75.3277H71.0307V75.2195H70.8789V75.1113H70.7272V75.0032H70.5754V74.0297H70.7272V73.9215H70.8789V73.8133H71.0307V73.7052H71.1824L71.1824 73.597H71.3341V73.4888H71.4859V73.3806H71.6376V73.2725H71.7894V73.1643Z" fill="#50A65A"/>
<path d="M63.2751 69.2583L65.3826 69.2586V69.4085H65.5933V69.5588H65.8041V69.709H66.0148V69.8592H66.2256V70.0095H66.4363V70.1597H66.6471V70.3099H66.8578V70.4602H67.0686V71.8123H66.8578V71.9625H66.6471V72.1128H66.4363V72.263H66.2256V72.4132H66.0148V72.5635H65.8041V72.7137H65.5933V72.8639H65.3826V73.0142H63.2751V72.8639H63.0644V72.7137H62.8536V72.5635H62.6429V72.4132H62.4321V72.263H62.2214V72.1128H62.0106V71.9625H61.7999V71.8123H61.5891V70.4602H61.7999V70.3099H62.0106V70.1597H62.2214V70.0095H62.4321L62.4321 69.8592H62.6429V69.709H62.8536V69.5588H63.0644V69.4085H63.2751V69.2583Z" fill="#F7FFFD"/>
<path d="M35.0179 76.9202L36.8724 76.9204V77.0524H37.0579V77.1846H37.2433V77.3168H37.4288V77.449H37.6143V77.5812H37.7997V77.7134H37.9852V77.8456H38.1706V77.9778H38.3561V79.1677H38.1706V79.2999H37.9852V79.4321H37.7997V79.5643H37.6143V79.6965H37.4288V79.8287H37.2433V79.9609H37.0579V80.0931H36.8724V80.2253H35.0179V80.0931H34.8324V79.9609H34.6469V79.8287H34.4615V79.6965H34.276V79.5643H34.0906V79.4321H33.9051V79.2999H33.7196V79.1677H33.5342V77.9778H33.7196V77.8456H33.9051V77.7134H34.0906V77.5812H34.276L34.276 77.449H34.4615V77.3168H34.6469V77.1846H34.8324V77.0524H35.0179V76.9202Z" fill="#F7FFFD"/>
<path d="M30.5838 79.4741L32.1012 79.4743V79.5823H32.2529V79.6905H32.4046V79.7986H32.5564V79.9068H32.7081V80.015H32.8599V80.1231H33.0116V80.2313H33.1633V80.3395H33.3151V81.313H33.1633V81.4212H33.0116V81.5293H32.8599V81.6375H32.7081V81.7457H32.5564V81.8538H32.4046V81.962H32.2529V82.0702H32.1012V82.1783H30.5838V82.0702H30.4321V81.962H30.2803V81.8538H30.1286V81.7457H29.9768V81.6375H29.8251V81.5293H29.6734V81.4212H29.5216V81.313H29.3699V80.3395H29.5216V80.2313H29.6734V80.1231H29.8251V80.015H29.9768L29.9768 79.9068H30.1286V79.7986H30.2803V79.6905H30.4321V79.5823H30.5838V79.4741Z" fill="#50A65A"/>
<path d="M20.0969 90.5916L22.2044 90.5919V90.7418H22.4151V90.892H22.6259V91.0423H22.8366V91.1925H23.0473V91.3427H23.2581V91.493H23.4688V91.6432H23.6796V91.7934H23.8903V93.1455H23.6796V93.2958H23.4688V93.446H23.2581V93.5962H23.0473V93.7465H22.8366V93.8967H22.6259V94.047H22.4151V94.1972H22.2044V94.3474H20.0969V94.1972H19.8861V94.047H19.6754V93.8967H19.4646V93.7465H19.2539V93.5962H19.0431V93.446H18.8324V93.2958H18.6216V93.1455H18.4109V91.7934H18.6216V91.6432H18.8324V91.493H19.0431V91.3427H19.2539L19.2539 91.1925H19.4646V91.0423H19.6754V90.892H19.8861V90.7418H20.0969V90.5916Z" fill="#F7FFFD"/>
<path d="M26.47 90.8921L28.3246 90.8924V91.0243H28.51V91.1565H28.6955V91.2887H28.881V91.4209H29.0664V91.5531H29.2519V91.6853H29.4373V91.8175H29.6228V91.9497H29.8082V93.1396H29.6228V93.2718H29.4373V93.404H29.2519V93.5362H29.0664V93.6684H28.881V93.8006H28.6955V93.9328H28.51V94.065H28.3246V94.1973H26.47V94.065H26.2846V93.9328H26.0991V93.8006H25.9136V93.6684H25.7282V93.5362H25.5427V93.404H25.3572V93.2718H25.1718V93.1396H24.9863V91.9497H25.1718V91.8175H25.3572V91.6853H25.5427V91.5531H25.7282L25.7282 91.4209H25.9136V91.2887H26.0991V91.1565H26.2846V91.0243H26.47V90.8921Z" fill="#F7FFFD"/>
<path d="M43.5152 79.7747L45.0326 79.7749V79.8828H45.1843V79.991H45.336V80.0992H45.4878V80.2073H45.6395V80.3155H45.7913V80.4237H45.943V80.5318H46.0947V80.64H46.2465V81.6135H46.0947V81.7217H45.943V81.8299H45.7913V81.938H45.6395V82.0462H45.4878V82.1544H45.336V82.2625H45.1843V82.3707H45.0326V82.4789H43.5152V82.3707H43.3635V82.2625H43.2117V82.1544H43.06V82.0462H42.9082V81.938H42.7565V81.8299H42.6047V81.7217H42.453V81.6135H42.3013V80.64H42.453V80.5318H42.6047V80.4237H42.7565V80.3155H42.9082L42.9082 80.2073H43.06V80.0992H43.2117V79.991H43.3635V79.8828H43.5152V79.7747Z" fill="#50A65A"/>
<path d="M39.5701 84.8826L41.0875 84.8828V84.9907H41.2392V85.0989H41.391V85.2071H41.5427V85.3152H41.6945V85.4234H41.8462V85.5316H41.9979V85.6398H42.1497V85.7479H42.3014V86.7214H42.1497V86.8296H41.9979V86.9378H41.8462V87.0459H41.6945V87.1541H41.5427V87.2623H41.391V87.3705H41.2392V87.4786H41.0875V87.5868H39.5701V87.4786H39.4184V87.3705H39.2666V87.2623H39.1149V87.1541H38.9632V87.0459H38.8114V86.9378H38.6597V86.8296H38.5079V86.7214H38.3562V85.7479H38.5079V85.6398H38.6597V85.5316H38.8114V85.4234H38.9632L38.9632 85.3152H39.1149V85.2071H39.2666V85.0989H39.4184V84.9907H39.5701V84.8826Z" fill="#50A65A"/>
<path d="M47.9495 82.1785L49.8041 82.1787V82.3107H49.9895V82.4429H50.175V82.5751H50.3604V82.7073H50.5459V82.8395H50.7314V82.9717H50.9168V83.1039H51.1023V83.2361H51.2877V84.426H51.1023V84.5582H50.9168V84.6904H50.7314V84.8226H50.5459V84.9548H50.3604V85.087H50.175V85.2192H49.9895V85.3514H49.8041V85.4836H47.9495V85.3514H47.764V85.2192H47.5786V85.087H47.3931V84.9548H47.2077V84.8226H47.0222V84.6904H46.8367V84.5582H46.6513V84.426H46.4658V83.2361H46.6513V83.1039H46.8367V82.9717H47.0222V82.8395H47.2077L47.2077 82.7073H47.3931V82.5751H47.5786V82.4429H47.764V82.3107H47.9495V82.1785Z" fill="#236937"/>
<path d="M47.9495 87.5869L49.8041 87.5872V87.7191H49.9895V87.8513H50.175V87.9835H50.3604V88.1157H50.5459V88.2479H50.7314V88.3802H50.9168V88.5124H51.1023V88.6446H51.2877V89.8344H51.1023V89.9666H50.9168V90.0988H50.7314V90.231H50.5459V90.3633H50.3604V90.4955H50.175V90.6277H49.9895V90.7599H49.8041V90.8921H47.9495V90.7599H47.764V90.6277H47.5786V90.4955H47.3931V90.3633H47.2077V90.231H47.0222V90.0988H46.8367V89.9666H46.6513V89.8344H46.4658V88.6446H46.6513V88.5124H46.8367V88.3802H47.0222V88.2479H47.2077L47.2077 88.1157H47.3931V87.9835H47.5786V87.8513H47.764V87.7191H47.9495V87.5869Z" fill="#F7FFFD"/>
<path d="M54.9127 85.3333L56.43 85.3335V85.4414H56.5818V85.5496H56.7335V85.6578H56.8852V85.7659H57.037V85.8741H57.1887V85.9823H57.3405V86.0904H57.4922V86.1986H57.6439V87.1721H57.4922V87.2803H57.3405V87.3885H57.1887V87.4966H57.037V87.6048H56.8852V87.713H56.7335V87.8211H56.5818V87.9293H56.43V88.0375H54.9127V87.9293H54.7609V87.8211H54.6092V87.713H54.4574V87.6048H54.3057V87.4966H54.1539V87.3885H54.0022V87.2803H53.8505V87.1721H53.6987V86.1986H53.8505V86.0904H54.0022V85.9823H54.1539V85.8741H54.3057L54.3057 85.7659H54.4574V85.6578H54.6092V85.5496H54.7609V85.4414H54.9127V85.3333Z" fill="#50A65A"/>
<path d="M63.2751 81.1267L65.3826 81.127V81.2769H65.5933V81.4272H65.8041V81.5774H66.0148V81.7276H66.2256V81.8779H66.4363V82.0281H66.6471V82.1784H66.8578V82.3286H67.0686V83.6807H66.8578V83.8309H66.6471V83.9812H66.4363V84.1314H66.2256V84.2816H66.0148V84.4319H65.8041V84.5821H65.5933V84.7323H65.3826V84.8826H63.2751V84.7323H63.0644V84.5821H62.8536V84.4319H62.6429V84.2816H62.4321V84.1314H62.2214V83.9812H62.0106V83.8309H61.7999V83.6807H61.5891V82.3286H61.7999V82.1784H62.0106V82.0281H62.2214V81.8779H62.4321L62.4321 81.7276H62.6429V81.5774H62.8536V81.4272H63.0644V81.2769H63.2751V81.1267Z" fill="#F7FFFD"/>
<path d="M63.511 87.7371L65.3656 87.7373V87.8693H65.5511V88.0015H65.7365V88.1337H65.922V88.2659H66.1074V88.3981H66.2929V88.5303H66.4783V88.6625H66.6638V88.7947H66.8493V89.9846H66.6638V90.1168H66.4783V90.249H66.2929V90.3812H66.1074V90.5134H65.922V90.6456H65.7365V90.7778H65.5511V90.91H65.3656V91.0422H63.511V90.91H63.3256V90.7778H63.1401V90.6456H62.9547V90.5134H62.7692V90.3812H62.5837V90.249H62.3983V90.1168H62.2128V89.9846H62.0273V88.7947H62.2128V88.6625H62.3983V88.5303H62.5837V88.3981H62.7692L62.7692 88.2659H62.9547V88.1337H63.1401V88.0015H63.3256V87.8693H63.511V87.7371Z" fill="#F7FFFD"/>
<path d="M35.2202 87.8872L37.3277 87.8875V88.0374H37.5384V88.1877H37.7491V88.3379H37.9599V88.4881H38.1706V88.6384H38.3814V88.7886H38.5921V88.9389H38.8029V89.0891H39.0136V90.4412H38.8029V90.5914H38.5921V90.7417H38.3814V90.8919H38.1706V91.0421H37.9599V91.1924H37.7491V91.3426H37.5384V91.4928H37.3277V91.6431H35.2202V91.4928H35.0094V91.3426H34.7987V91.1924H34.5879V91.0421H34.3772V90.8919H34.1664V90.7417H33.9557V90.5914H33.7449V90.4412H33.5342V89.0891H33.7449V88.9389H33.9557V88.7886H34.1664V88.6384H34.3772L34.3772 88.4881H34.5879V88.3379H34.7987V88.1877H35.0094V88.0374H35.2202V87.8872Z" fill="#F7FFFD"/>
<path d="M33.0285 83.5305L35.136 83.5308V83.6808H35.3467V83.831H35.5575V83.9812H35.7682V84.1315H35.979V84.2817H36.1897V84.4319H36.4005V84.5822H36.6112V84.7324H36.822V86.0845H36.6112V86.2347H36.4005V86.385H36.1897V86.5352H35.979V86.6854H35.7682V86.8357H35.5575V86.9859H35.3467V87.1362H35.136V87.2864H33.0285V87.1362H32.8178V86.9859H32.607V86.8357H32.3963V86.6854H32.1855V86.5352H31.9748V86.385H31.764V86.2347H31.5533V86.0845H31.3425V84.7324H31.5533V84.5822H31.764V84.4319H31.9748V84.2817H32.1855L32.1855 84.1315H32.3963V83.9812H32.607V83.831H32.8178V83.6808H33.0285V83.5305Z" fill="#F7FFFD"/>
<path d="M76.4427 86.0845L78.2973 86.0847V86.2167H78.4827V86.3489H78.6682V86.4811H78.8536V86.6133H79.0391V86.7455H79.2245V86.8777H79.41V87.0099H79.5954V87.1421H79.7809V88.332H79.5954V88.4642H79.41V88.5964H79.2245V88.7286H79.0391V88.8608H78.8536V88.993H78.6682V89.1252H78.4827V89.2574H78.2973V89.3896H76.4427V89.2574H76.2572V89.1252H76.0718V88.993H75.8863V88.8608H75.7008V88.7286H75.5154V88.5964H75.3299V88.4642H75.1444V88.332H74.959V87.1421H75.1444V87.0099H75.3299V86.8777H75.5154V86.7455H75.7008L75.7008 86.6133H75.8863V86.4811H76.0718V86.3489H76.2572V86.2167H76.4427V86.0845Z" fill="#E39A67"/>
<path d="M82.5627 83.5305L84.6702 83.5308V83.6808H84.8809V83.831H85.0917V83.9812H85.3024V84.1315H85.5132V84.2817H85.7239V84.4319H85.9347V84.5822H86.1454V84.7324H86.3562V86.0845H86.1454V86.2347H85.9347V86.385H85.7239V86.5352H85.5132V86.6854H85.3024V86.8357H85.0917V86.9859H84.8809V87.1362H84.6702V87.2864H82.5627V87.1362H82.352V86.9859H82.1412V86.8357H81.9305V86.6854H81.7197V86.5352H81.509V86.385H81.2982V86.2347H81.0875V86.0845H80.8767V84.7324H81.0875V84.5822H81.2982V84.4319H81.509V84.2817H81.7197L81.7197 84.1315H81.9305V83.9812H82.1412V83.831H82.352V83.6808H82.5627V83.5305Z" fill="#F7FFFD"/>
<path d="M94.6174 83.5305L96.7249 83.5308V83.6808H96.9356V83.831H97.1464V83.9812H97.3571V84.1315H97.5679V84.2817H97.7786V84.4319H97.9894V84.5822H98.2001V84.7324H98.4108V86.0845H98.2001V86.2347H97.9894V86.385H97.7786V86.5352H97.5679V86.6854H97.3571V86.8357H97.1464V86.9859H96.9356V87.1362H96.7249V87.2864H94.6174V87.1362H94.4067V86.9859H94.1959V86.8357H93.9852V86.6854H93.7744V86.5352H93.5636V86.385H93.3529V86.2347H93.1421V86.0845H92.9314V84.7324H93.1421V84.5822H93.3529V84.4319H93.5636V84.2817H93.7744L93.7744 84.1315H93.9852V83.9812H94.1959V83.831H94.4067V83.6808H94.6174V83.5305Z" fill="#F7FFFD"/>
<path d="M91.1275 88.3381L92.9821 88.3384V88.4703H93.1675V88.6025H93.353V88.7348H93.5384V88.867H93.7239V88.9992H93.9093V89.1314H94.0948V89.2636H94.2803V89.3958H94.4657V90.5856H94.2803V90.7179H94.0948V90.8501H93.9093V90.9823H93.7239V91.1145H93.5384V91.2467H93.353V91.3789H93.1675V91.5111H92.9821V91.6433H91.1275V91.5111H90.942V91.3789H90.7566V91.2467H90.5711V91.1145H90.3856V90.9823H90.2002V90.8501H90.0147V90.7179H89.8293V90.5856H89.6438V89.3958H89.8293V89.2636H90.0147V89.1314H90.2002V88.9992H90.3856L90.3856 88.867H90.5711V88.7348H90.7566V88.6025H90.942V88.4703H91.1275V88.3381Z" fill="#50A65A"/>
<path d="M106.892 90.4414L108.999 90.4417V90.5916H109.21V90.7419H109.421V90.8921H109.631V91.0423H109.842V91.1926H110.053V91.3428H110.264V91.493H110.474V91.6433H110.685V92.9954H110.474V93.1456H110.264V93.2959H110.053V93.4461H109.842V93.5963H109.631V93.7466H109.421V93.8968H109.21V94.047H108.999V94.1973H106.892V94.047H106.681V93.8968H106.47V93.7466H106.259V93.5963H106.049V93.4461H105.838V93.2959H105.627V93.1456H105.416V92.9954H105.206V91.6433H105.416V91.493H105.627V91.3428H105.838V91.1926H106.049L106.049 91.0423H106.259V90.8921H106.47V90.7419H106.681V90.5916H106.892V90.4414Z" fill="#F7FFFD"/>
<path d="M100.552 90.8921L102.407 90.8924V91.0243H102.592V91.1565H102.778V91.2887H102.963V91.4209H103.149V91.5531H103.334V91.6853H103.52V91.8175H103.705V91.9497H103.891V93.1396H103.705V93.2718H103.52V93.404H103.334V93.5362H103.149V93.6684H102.963V93.8006H102.778V93.9328H102.592V94.065H102.407V94.1973H100.552V94.065H100.367V93.9328H100.181V93.8006H99.9959V93.6684H99.8105V93.5362H99.625V93.404H99.4395V93.2718H99.2541V93.1396H99.0686V91.9497H99.2541V91.8175H99.4395V91.6853H99.625V91.5531H99.8104L99.8105 91.4209H99.9959V91.2887H100.181V91.1565H100.367V91.0243H100.552V90.8921Z" fill="#F7FFFD"/>
<rect x="25.4246" y="122.291" width="4.16438" height="2.70423" fill="#123F20"/>
</svg>
