<svg width="98" height="128" viewBox="0 0 98 128" fill="none" xmlns="http://www.w3.org/2000/svg">
<path d="M58.3195 3.02959H61.3491V6.05917H64.3787V9.08876H68.1657V12.1183H71.1953V21.9645H64.3787V28.0237H77.2544V34.0828H80.284V37.1124H85.5858V43.1716H88.6154V46.2012H92.4024V53.0178H88.6154V61.3491H92.4024V64.3787H94.6746V68.1657H97.7041V76.497H93.9172V79.5266H90.8876V82.5562H87.858V85.5858H81.0414V82.5562H70.4379V79.5266H67.4083V76.497H64.3787V79.5266H60.5917V76.497H58.3195V109.065H61.3491V111.337H65.1361V113.609H69.6805V116.639H74.2249V119.669H67.4083H64.3787V122.698V125.728H60.5917V122.698H57.5621V118.911H55.2899V124.97H53.0178V128H49.9882V124.97H47.716V122.698H44.6864V126.107H41.2781V123.077V119.669H37.1124V122.698H34.0828V119.669H27.2663V116.639H30.2959V113.609H34.0828V111.337H37.1124V108.308H40.8994V105.278H43.929V88.6154H40.8994V84.071H39.0059H36.355V81.7988H33.3254H30.2959V78.0118H26.5089V81.7988H23.4793V85.5858H16.6627V81.7988H9.84615V78.0118H6.81657V75.7396H0V61.3491H3.78698V58.3195H6.81657V55.2899H9.84615V52.2604H12.8757V49.2308H9.84615V37.1124H13.6331V34.0828H17.4201V31.0533H21.2071V24.9941H24.9941V28.0237H28.0237V24.9941H31.0533V21.9645H28.0237V18.9349H31.0533V12.8757H34.0828V9.08876H40.8994V6.05917H43.929V3.02959H54.5325V0H58.3195V3.02959Z" fill="#19011B"/>
<path d="M30.2959 113.609H32.3998H34.0829V116.639H30.2959V113.609Z" fill="#772F38"/>
<path d="M34.0828 116.639H35.7659H37.1124V119.669H34.0828V116.639Z" fill="#A2503F"/>
<path d="M37.1123 113.609H39.2162H40.8993V116.639H37.1123V113.609Z" fill="#A2503F"/>
<path d="M34.0828 113.609H36.1866H37.8697V116.639H34.0828V113.609Z" fill="#A2503F"/>
<path d="M37.1123 110.58H39.2162H40.8993V113.609H37.1123V110.58Z" fill="#A2503F"/>
<path d="M43.929 108.308H45.6121H46.9585V111.337H43.929V108.308Z" fill="#A2503F"/>
<path d="M43.929 111.337H45.6121H46.9585V114.367H43.929V111.337Z" fill="#A2503F"/>
<path d="M40.8994 113.609H42.5825H43.929V116.639H40.8994V113.609Z" fill="#A2503F"/>
<path d="M43.929 113.609H45.6121H46.9585V116.639H43.929V113.609Z" fill="#A2503F"/>
<path d="M46.9585 105.278H48.6416H49.9881V108.308H46.9585V105.278Z" fill="#A2503F"/>
<path d="M49.9883 105.278H51.6714H53.0179V108.308H49.9883V105.278Z" fill="#A2503F"/>
<path d="M49.9883 108.308H51.6714H53.0179V111.337H49.9883V108.308Z" fill="#A2503F"/>
<path d="M46.9585 108.308H48.6416H49.9881V111.337H46.9585V108.308Z" fill="#A2503F"/>
<path d="M49.9883 111.337H51.6714H53.0179V114.367H49.9883V111.337Z" fill="#A2503F"/>
<path d="M55.29 111.337H56.9731H58.3196V114.367H55.29V111.337Z" fill="#A2503F"/>
<path d="M55.29 113.609H56.9731H58.3196V116.639H55.29V113.609Z" fill="#A2503F"/>
<path d="M55.29 109.065H56.9731H58.3196V112.095H55.29V109.065Z" fill="#A2503F"/>
<path d="M53.0178 111.337H54.7009H56.0474V114.367H53.0178V111.337Z" fill="#A2503F"/>
<path d="M49.9883 114.367H51.6714H53.0179V117.397H49.9883V114.367Z" fill="#A2503F"/>
<path d="M49.9883 93.1597H51.6714H53.0179V96.1893H49.9883V93.1597Z" fill="#A2503F"/>
<path d="M49.9883 96.1895H51.6714H53.0179V99.219H49.9883V96.1895Z" fill="#A2503F"/>
<path d="M49.9883 90.1301H51.6714H53.0179V93.1597H49.9883V90.1301Z" fill="#A2503F"/>
<path d="M46.9585 90.1301H48.6416H49.9881V93.1597H46.9585V90.1301Z" fill="#A2503F"/>
<path d="M43.929 84.071H45.6121H46.9585V87.1006H43.929V84.071Z" fill="#A2503F"/>
<path d="M46.9585 74.2249H48.6416H49.9881V78.0118H46.9585V74.2249Z" fill="#A2503F"/>
<path d="M40.8994 81.0415H42.5825H43.929V84.0711H40.8994V81.0415Z" fill="#A2503F"/>
<path d="M40.8994 78.0117H42.5825H43.929V81.0413H40.8994V78.0117Z" fill="#A2503F"/>
<path d="M49.9883 70.438H51.6714H53.0179V78.012H49.9883V70.438Z" fill="#A2503F"/>
<path d="M46.9585 59.0769H48.6416H49.9881V68.1657H46.9585V59.0769Z" fill="#A2503F"/>
<path d="M46.9585 51.5029H48.6416H49.9881V55.2899H46.9585V51.5029Z" fill="#A2503F"/>
<path d="M46.9585 55.29H48.6416H49.9881V59.077H46.9585V55.29Z" fill="#A2503F"/>
<path d="M43.929 56.8047H45.6121H46.9585V59.8343H43.929V56.8047Z" fill="#A2503F"/>
<path d="M36.355 78.0117H38.8796H40.8994V81.7987H36.355V78.0117Z" fill="#A2503F"/>
<path d="M46.9585 87.1006H48.6416H49.9881V90.1302H46.9585V87.1006Z" fill="#A2503F"/>
<path d="M49.9883 87.1006H51.6714H53.0179V90.1302H49.9883V87.1006Z" fill="#A2503F"/>
<path d="M53.0178 84.071H54.7009H56.0474V87.1006H53.0178V84.071Z" fill="#A2503F"/>
<path d="M53.0178 87.1006H54.7009H56.0474V90.1302H53.0178V87.1006Z" fill="#A2503F"/>
<path d="M49.9883 81.0415H51.6714H53.0179V84.0711H49.9883V81.0415Z" fill="#A2503F"/>
<path d="M53.0178 70.438H54.7009H56.0474V73.4676H53.0178V70.438Z" fill="#A2503F"/>
<path d="M53.0178 67.4082H54.7009H56.0474V70.4378H53.0178V67.4082Z" fill="#A2503F"/>
<path d="M40.8994 110.58H42.5825H43.929V113.609H40.8994V110.58Z" fill="#E5906C"/>
<path d="M40.8994 108.308H42.5825H43.929V111.337H40.8994V108.308Z" fill="#E5906C"/>
<path d="M43.929 105.278H45.6121H46.9585V108.308H43.929V105.278Z" fill="#E5906C"/>
<path d="M43.929 102.249H45.6121H46.9585V105.278H43.929V102.249Z" fill="#E5906C"/>
<path d="M46.9585 102.249H48.6416H49.9881V105.278H46.9585V102.249Z" fill="#E5906C"/>
<path d="M46.9585 99.219H48.6416H49.9881V102.249H46.9585V99.219Z" fill="#E5906C"/>
<path d="M49.9883 99.219H51.6714H53.0179V102.249H49.9883V99.219Z" fill="#E5906C"/>
<path d="M43.929 78.0117H45.6121H46.9585V81.0413H43.929V78.0117Z" fill="#E5906C"/>
<path d="M40.8994 74.2249H42.5825H43.929V78.0118H40.8994V74.2249Z" fill="#E5906C"/>
<path d="M59.0769 67.4082H60.76H62.1065V70.4378H59.0769V67.4082Z" fill="#E5906C"/>
<path d="M43.929 59.8342H45.6121H46.9585V65.136H43.929V59.8342Z" fill="#E5906C"/>
<path d="M46.9585 96.1895H48.6416H49.9881V99.219H46.9585V96.1895Z" fill="#E5906C"/>
<path d="M49.9883 84.071H51.6714H53.0179V87.1006H49.9883V84.071Z" fill="#E5906C"/>
<path d="M46.9585 93.1597H48.6416H49.9881V96.1893H46.9585V93.1597Z" fill="#E5906C"/>
<path d="M46.9585 81.0415H48.6416H49.9881V84.0711H46.9585V81.0415Z" fill="#E5906C"/>
<path d="M46.9585 87.1006H48.6416H49.9881V90.1302H46.9585V87.1006Z" fill="#E5906C"/>
<path d="M46.9585 90.1301H48.6416H49.9881V93.1597H46.9585V90.1301Z" fill="#E5906C"/>
<path d="M46.9585 78.0117H48.6416H49.9881V81.0413H46.9585V78.0117Z" fill="#E5906C"/>
<path d="M37.1123 116.639H39.2162H40.8993V119.669H37.1123V116.639Z" fill="#772F38"/>
<path d="M43.929 87.1006H45.6121H46.9585V90.1302H43.929V87.1006Z" fill="#772F38"/>
<path d="M46.9585 84.071H48.6416H49.9881V87.1006H46.9585V84.071Z" fill="#772F38"/>
<path d="M44.6863 119.669H46.3694H47.7159V122.698H44.6863V119.669Z" fill="#772F38"/>
<path d="M46.9585 116.639H48.6416H49.9881V122.698H46.9585V116.639Z" fill="#772F38"/>
<path d="M46.9585 113.609H48.6416H49.9881V116.639H46.9585V113.609Z" fill="#772F38"/>
<path d="M46.9585 111.337H48.6416H49.9881V114.367H46.9585V111.337Z" fill="#772F38"/>
<path d="M58.3196 111.337H60.0027H61.3492V114.367H58.3196V111.337Z" fill="#772F38"/>
<path d="M49.9883 102.249H51.6714H53.0179V105.278H49.9883V102.249Z" fill="#772F38"/>
<path d="M53.0178 102.249H54.7009H56.0474V105.278H53.0178V102.249Z" fill="#772F38"/>
<path d="M53.0178 105.278H54.7009H56.0474V108.308H53.0178V105.278Z" fill="#772F38"/>
<path d="M53.0178 108.308H54.7009H56.0474V111.337H53.0178V108.308Z" fill="#772F38"/>
<path d="M53.0178 99.219H54.7009H56.0474V102.249H53.0178V99.219Z" fill="#772F38"/>
<path d="M53.0178 96.1895H54.7009H56.0474V99.219H53.0178V96.1895Z" fill="#772F38"/>
<path d="M53.0178 93.1597H54.7009H56.0474V96.1893H53.0178V93.1597Z" fill="#772F38"/>
<path d="M53.0178 90.1301H54.7009H56.0474V93.1597H53.0178V90.1301Z" fill="#772F38"/>
<path d="M49.9883 78.0117H51.6714H53.0179V81.0413H49.9883V78.0117Z" fill="#772F38"/>
<path d="M56.0474 70.438H57.7305H59.077V73.4676H56.0474V70.438Z" fill="#772F38"/>
<path d="M59.0769 70.438H60.76H62.1065V73.4676H59.0769V70.438Z" fill="#772F38"/>
<path d="M53.0178 73.4675H54.7009H56.0474V84.0711H53.0178V73.4675Z" fill="#772F38"/>
<path d="M30.2959 78.0117H31.979H33.3255V81.7987H30.2959V78.0117Z" fill="#772F38"/>
<path d="M33.3254 74.2249H35.0085H36.355V78.0118H33.3254V74.2249Z" fill="#772F38"/>
<path d="M40.8994 70.438H42.5825H43.929V74.225H40.8994V70.438Z" fill="#772F38"/>
<path d="M46.9585 68.1658H48.6416H49.9881V71.9528H46.9585V68.1658Z" fill="#772F38"/>
<path d="M49.9883 66.6509H51.6714H53.0179V70.4379H49.9883V66.6509Z" fill="#772F38"/>
<path d="M49.9883 55.29H51.6714H53.0179V59.077H49.9883V55.29Z" fill="#772F38"/>
<path d="M53.0178 41.6567H54.7009H56.0474V44.6863H53.0178V41.6567Z" fill="#772F38"/>
<path d="M49.9883 59.0769H51.6714H53.0179V66.6509H49.9883V59.0769Z" fill="#772F38"/>
<path d="M16.6628 81.7988H20.4498H23.4794V85.5858H16.6628V81.7988Z" fill="#002841"/>
<path d="M16.6628 78.0117H20.4498H23.4794V81.7987H16.6628V78.0117Z" fill="#002841"/>
<path d="M9.84619 78.0117H13.6332H16.6628V81.7987H9.84619V78.0117Z" fill="#002841"/>
<path d="M6.81665 71.9526H8.49975H9.84624V78.0118H6.81665V71.9526Z" fill="#002841"/>
<path d="M3.78687 68.9231H5.46997H6.81645V71.9527H3.78687V68.9231Z" fill="#002841"/>
<path d="M9.84619 74.2249H15.3163H19.6923V78.0118H9.84619V74.2249Z" fill="#002841"/>
<path d="M9.84619 68.9231H15.3163H19.6923V71.9527H9.84619V68.9231Z" fill="#166665"/>
<path d="M23.4792 68.9231H28.9493H33.3254V71.9527H23.4792V68.9231Z" fill="#166665"/>
<path d="M33.3254 65.136H35.4293H37.1124V70.4378H33.3254V65.136Z" fill="#166665"/>
<path d="M6.81665 61.3491H8.49975H9.84624V71.9527H6.81665V61.3491Z" fill="#166665"/>
<path d="M12.8757 61.3491H14.5588H15.9053V65.1361H12.8757V61.3491Z" fill="#166665"/>
<path d="M3.78687 61.3491H5.46997H6.81645V65.1361H3.78687V61.3491Z" fill="#81CC78"/>
<path d="M6.81665 58.3196H10.1829H12.8758V61.3492H6.81665V58.3196Z" fill="#81CC78"/>
<path d="M6.81665 61.3491H8.49975H9.84624V65.1361H6.81665V61.3491Z" fill="#81CC78"/>
<path d="M12.8757 52.2603H14.5588H15.9053V55.2898H12.8757V52.2603Z" fill="#81CC78"/>
<path d="M21.207 28.0237H23.3109H24.994V31.0533H21.207V28.0237Z" fill="#81CC78"/>
<path d="M15.9053 55.29H21.3754H25.7514V58.3196H15.9053V55.29Z" fill="#81CC78"/>
<path d="M9.84619 55.29H11.5293H12.8758V58.3196H9.84619V55.29Z" fill="#81CC78"/>
<path d="M9.84619 55.29H11.5293H12.8758V58.3196H9.84619V55.29Z" fill="#81CC78"/>
<path d="M9.84619 65.136H15.3163H19.6923V68.923H9.84619V65.136Z" fill="#81CC78"/>
<path d="M23.4792 65.136H28.9493H33.3254V68.923H23.4792V65.136Z" fill="#81CC78"/>
<path d="M15.9053 61.3491H27.687H37.1124V65.1361H15.9053V61.3491Z" fill="#81CC78"/>
<path d="M15.9053 58.3196H27.687H37.1124V61.3492H15.9053V58.3196Z" fill="#81CC78"/>
<path d="M0 68.9231H2.10388H3.78698V71.9527H0V68.9231Z" fill="#166665"/>
<path d="M9.84619 40.1421H13.2124H15.9054V43.1717H9.84619V40.1421Z" fill="#166665"/>
<path d="M12.1184 43.1716H15.9054H18.935V46.2012H12.1184V43.1716Z" fill="#166665"/>
<path d="M18.9348 40.1421H23.9841H28.0236V43.1717H18.9348V40.1421Z" fill="#166665"/>
<path d="M31.0532 37.1123H33.9987H36.355V40.1419H31.0532V37.1123Z" fill="#166665"/>
<path d="M36.355 31.0532H40.5627H43.9289V34.0828H36.355V31.0532Z" fill="#166665"/>
<path d="M71.9526 62.1064H75.7396H78.7692V65.136H71.9526V62.1064Z" fill="#166665"/>
<path d="M65.8936 45.4438H71.3636H75.7397V49.2308H65.8936V45.4438Z" fill="#166665"/>
<path d="M68.1658 54.5325H70.2696H71.9528V58.3195H68.1658V54.5325Z" fill="#166665"/>
<path d="M53.7751 58.3196H57.5621H60.5917V62.1066H53.7751V58.3196Z" fill="#166665"/>
<path d="M51.5029 15.9053H56.973H61.3491V18.9349H51.5029V15.9053Z" fill="#166665"/>
<path d="M57.562 12.1184H59.6659H61.349V15.9054H57.562V12.1184Z" fill="#4B9970"/>
<path d="M57.562 9.08887H59.6659H61.349V12.8758H57.562V9.08887Z" fill="#166665"/>
<path d="M64.3787 15.9053H68.1656H71.1952V18.9349H64.3787V15.9053Z" fill="#166665"/>
<path d="M40.8994 34.0828H45.1072H48.4734V37.1124H40.8994V34.0828Z" fill="#166665"/>
<path d="M48.4734 31.0532H50.5773H52.2604V34.0828H48.4734V31.0532Z" fill="#166665"/>
<path d="M42.4143 12.8757H47.4636H51.5031V15.9053H42.4143V12.8757Z" fill="#166665"/>
<path d="M31.0532 43.1716H36.9441H41.6568V46.2012H31.0532V43.1716Z" fill="#166665"/>
<path d="M18.9348 46.2012H29.4542H37.8697V49.2308H18.9348V46.2012Z" fill="#166665"/>
<path d="M28.0237 18.9348H34.3353H39.3846V21.9644H28.0237V18.9348Z" fill="#166665"/>
<path d="M31.0532 15.9053H39.048H45.4438V18.9349H31.0532V15.9053Z" fill="#166665"/>
<path d="M3.78687 58.3196H5.46997H6.81645V61.3492H3.78687V58.3196Z" fill="#ECFFE3"/>
<path d="M6.81665 55.29H8.49975H9.84624V58.3196H6.81665V55.29Z" fill="#ECFFE3"/>
<path d="M9.84619 52.2603H11.5293H12.8758V55.2898H9.84619V52.2603Z" fill="#ECFFE3"/>
<path d="M12.8757 55.29H14.5588H15.9053V58.3196H12.8757V55.29Z" fill="#ECFFE3"/>
<path d="M9.84619 61.3491H11.5293H12.8758V65.1361H9.84619V61.3491Z" fill="#ECFFE3"/>
<path d="M15.9053 52.2603H17.5884H18.9349V55.2898H15.9053V52.2603Z" fill="#ECFFE3"/>
<path d="M15.9053 61.3491H17.5884H18.9349V65.1361H15.9053V61.3491Z" fill="#ECFFE3"/>
<path d="M18.9348 61.3491H20.6179H21.9644V65.1361H18.9348V61.3491Z" fill="#ECFFE3"/>
<path d="M18.9348 58.3196H20.6179H21.9644V61.3492H18.9348V58.3196Z" fill="#ECFFE3"/>
<path d="M12.8757 34.0828H17.5043H21.2071V37.1124H12.8757V34.0828Z" fill="#ECFFE3"/>
<path d="M31.0532 34.0828H33.9987H36.355V37.1124H31.0532V34.0828Z" fill="#ECFFE3"/>
<path d="M49.2307 38.6272H53.0177H56.0473V41.6568H49.2307V38.6272Z" fill="#ECFFE3"/>
<path d="M36.355 28.0237H38.0381H39.3846V31.0533H36.355V28.0237Z" fill="#ECFFE3"/>
<path d="M81.7988 66.6509H83.9027H85.5858V70.4379H81.7988V66.6509Z" fill="#ECFFE3"/>
<path d="M78.0117 59.8342H80.1156H81.7987V63.6212H78.0117V59.8342Z" fill="#ECFFE3"/>
<path d="M68.1658 58.3196H70.2696H71.9528V62.1066H68.1658V58.3196Z" fill="#ECFFE3"/>
<path d="M64.3787 54.5325H66.4825H68.1656V58.3195H64.3787V54.5325Z" fill="#ECFFE3"/>
<path d="M62.1064 45.4438H64.2103H65.8934V49.2308H62.1064V45.4438Z" fill="#ECFFE3"/>
<path d="M60.5918 62.1064H62.6957H64.3788V67.4082H60.5918V62.1064Z" fill="#ECFFE3"/>
<path d="M71.9526 49.2307H74.0565H75.7396V54.5325H71.9526V49.2307Z" fill="#ECFFE3"/>
<path d="M75.7397 46.9585H78.2644H80.2841V50.7455H75.7397V46.9585Z" fill="#ECFFE3"/>
<path d="M39.3845 24.9941H41.0676H42.4141V28.0237H39.3845V24.9941Z" fill="#ECFFE3"/>
<path d="M39.3845 18.9348H41.0676H42.4141V21.9644H39.3845V18.9348Z" fill="#ECFFE3"/>
<path d="M31.0532 24.9941H32.7363H34.0828V28.0237H31.0532V24.9941Z" fill="#ECFFE3"/>
<path d="M36.355 21.9646H39.7212H42.4142V24.9942H36.355V21.9646Z" fill="#ECFFE3"/>
<path d="M43.929 3.02954H49.8198H54.5325V6.05913H43.929V3.02954Z" fill="#ECFFE3"/>
<path d="M40.8994 6.05908H44.2656H46.9586V9.08867H40.8994V6.05908Z" fill="#ECFFE3"/>
<path d="M51.5029 18.9348H54.8691H57.5621V21.9644H51.5029V18.9348Z" fill="#ECFFE3"/>
<path d="M67.4082 28.0237H70.7744H73.4674V31.0533H67.4082V28.0237Z" fill="#ECFFE3"/>
<path d="M58.3196 31.0532H61.6858H64.3788V34.0828H58.3196V31.0532Z" fill="#ECFFE3"/>
<path d="M34.0828 9.08887H37.8697H40.8993V12.8758H34.0828V9.08887Z" fill="#ECFFE3"/>
<path d="M24.9941 28.0237H26.6772H28.0237V31.0533H24.9941V28.0237Z" fill="#ECFFE3"/>
<path d="M17.4202 31.0532H23.311H28.0237V34.0828H17.4202V31.0532Z" fill="#ECFFE3"/>
<path d="M21.9646 58.3196H24.0685H25.7516V61.3492H21.9646V58.3196Z" fill="#ECFFE3"/>
<path d="M29.5386 54.5325H31.6425H33.3256V58.3195H29.5386V54.5325Z" fill="#ECFFE3"/>
<path d="M12.8757 71.9526H14.9796H16.6627V78.0118H12.8757V71.9526Z" fill="#36796F"/>
<path d="M19.6924 68.9231H21.7963H23.4794V71.9527H19.6924V68.9231Z" fill="#36796F"/>
<path d="M48.4734 44.6863H50.5773H52.2604V47.7159H48.4734V44.6863Z" fill="#36796F"/>
<path d="M78.0117 73.4675H80.1156H81.7987V76.4971H78.0117V73.4675Z" fill="#36796F"/>
<path d="M71.1953 73.4675H73.2992H74.9823V76.4971H71.1953V73.4675Z" fill="#36796F"/>
<path d="M74.2249 76.4971H76.3287H78.0118V79.5267H74.2249V76.4971Z" fill="#36796F"/>
<path d="M71.1953 70.438H74.9823H78.0119V73.4676H71.1953V70.438Z" fill="#36796F"/>
<path d="M57.562 62.1064H59.2451H60.5916V67.4082H57.562V62.1064Z" fill="#36796F"/>
<path d="M62.1064 65.8936H63.3688H64.3786V73.4675H62.1064V65.8936Z" fill="#36796F"/>
<path d="M78.0117 66.6509H80.1156H81.7987V70.4379H78.0117V66.6509Z" fill="#36796F"/>
<path d="M81.7988 70.438H83.9027H85.5858V74.225H81.7988V70.438Z" fill="#36796F"/>
<path d="M86.3433 73.4675H88.4471H90.1302V77.2545H86.3433V73.4675Z" fill="#36796F"/>
<path d="M15.9053 37.1123H17.5884H18.9349V43.1715H15.9053V37.1123Z" fill="#36796F"/>
<path d="M43.929 28.0237H46.4536H48.4733V34.0829H43.929V28.0237Z" fill="#36796F"/>
<path d="M52.2603 28.0237H55.6265H58.3194V34.0829H52.2603V28.0237Z" fill="#36796F"/>
<path d="M51.5029 12.8757H54.8691H57.5621V15.9053H51.5029V12.8757Z" fill="#36796F"/>
<path d="M61.3491 24.9941H63.0322H64.3787V28.0237H61.3491V24.9941Z" fill="#36796F"/>
<path d="M73.4675 28.0237H75.5714H77.2545V31.0533H73.4675V28.0237Z" fill="#5CA47C"/>
<path d="M58.3196 28.0237H60.0027H61.3492V31.0533H58.3196V28.0237Z" fill="#36796F"/>
<path d="M51.5029 9.08887H54.8691H57.5621V12.8758H51.5029V9.08887Z" fill="#4B9972"/>
<path d="M61.3491 12.1184H66.8192H71.1953V15.9054H61.3491V12.1184Z" fill="#36796F"/>
<path d="M94.6746 68.1658H96.3577H97.7041V73.4675H94.6746V68.1658Z" fill="#36796F"/>
<path d="M70.438 34.0828H75.9081H80.2841V38.6271H70.438V34.0828Z" fill="#36796F"/>
<path d="M80.2839 45.4438H84.9125H88.6153V49.9882H80.2839V45.4438Z" fill="#36796F"/>
<path d="M88.6155 46.2012H90.7194H92.4025V49.9882H88.6155V46.2012Z" fill="#36796F"/>
<path d="M73.4675 31.0532H75.5714H77.2545V35.5976H73.4675V31.0532Z" fill="#36796F"/>
<path d="M80.2839 49.9883H83.6501H86.3431V53.0179H80.2839V49.9883Z" fill="#36796F"/>
<path d="M71.9526 41.6567H74.0565H75.7396V45.4437H71.9526V41.6567Z" fill="#36796F"/>
<path d="M75.7397 50.7456H79.1059H81.7989V56.8048H75.7397V50.7456Z" fill="#36796F"/>
<path d="M9.84619 71.9526H11.5293H12.8758V74.2248H9.84619V71.9526Z" fill="#36796F"/>
<path d="M16.6628 71.9526H18.3459H19.6924V74.2248H16.6628V71.9526Z" fill="#36796F"/>
<path d="M0 65.136H2.10388H3.78698V68.923H0V65.136Z" fill="#36796F"/>
<path d="M0 61.3491H2.10388H3.78698V65.1361H0V61.3491Z" fill="#36796F"/>
<path d="M9.84619 37.1123H11.5293H12.8758V40.1419H9.84619V37.1123Z" fill="#36796F"/>
<path d="M21.207 24.9941H23.3109H24.994V28.0237H21.207V24.9941Z" fill="#36796F"/>
<path d="M31.0532 21.9646H33.9987H36.355V24.9942H31.0532V21.9646Z" fill="#36796F"/>
<path d="M45.4438 21.9646H47.9685H49.9882V24.9942H45.4438V21.9646Z" fill="#36796F"/>
<path d="M85.5857 61.3491H87.2688H88.6153V63.6213H85.5857V61.3491Z" fill="#36796F"/>
<path d="M88.6155 63.6213H90.7194H92.4025V66.6509H88.6155V63.6213Z" fill="#36796F"/>
<path d="M85.5857 66.6509H87.2688H88.6153V70.4379H85.5857V66.6509Z" fill="#36796F"/>
<path d="M39.3845 12.8757H41.0676H42.4141V15.9053H39.3845V12.8757Z" fill="#36796F"/>
<path d="M12.8757 58.3196H14.5588H15.9053V61.3492H12.8757V58.3196Z" fill="#36796F"/>
<path d="M3.78687 65.136H5.46997H6.81645V68.923H3.78687V65.136Z" fill="#36796F"/>
<path d="M19.6924 71.9526H21.7963H23.4794V78.0118H19.6924V71.9526Z" fill="#166665"/>
<path d="M23.4792 71.9526H28.9493H33.3254V74.2248H23.4792V71.9526Z" fill="#166665"/>
<path d="M81.0415 73.4675H84.8285H87.8581V79.5267H81.0415V73.4675Z" fill="#166665"/>
<path d="M78.0117 63.6213H80.1156H81.7987V66.6509H78.0117V63.6213Z" fill="#166665"/>
<path d="M92.4023 64.3787H93.6647H94.6745V70.4378H92.4023V64.3787Z" fill="#166665"/>
<path d="M19.6924 65.136H21.7963H23.4794V68.923H19.6924V65.136Z" fill="#166665"/>
<path d="M25.7515 61.3491H27.8553H29.5384V65.1361H25.7515V61.3491Z" fill="#166665"/>
<path d="M56.0474 44.6863H58.1512H59.8343V48.4733H56.0474V44.6863Z" fill="#166665"/>
<path d="M56.0474 38.6272H58.1512H59.8343V42.4142H56.0474V38.6272Z" fill="#166665"/>
<path d="M80.2839 37.1123H83.2294H85.5857V41.6567H80.2839V37.1123Z" fill="#166665"/>
<path d="M43.929 47.7161H50.6614H56.0473V51.503H43.929V47.7161Z" fill="#166665"/>
<path d="M43.929 51.5029H54.0276H62.1065V54.5325H43.929V51.5029Z" fill="#166665"/>
<path d="M53.0178 56.8047H55.5425H57.5622V64.3787H53.0178V56.8047Z" fill="#166665"/>
<path d="M56.0474 67.4082H57.7305H59.077V70.4378H56.0474V67.4082Z" fill="#166665"/>
<path d="M37.1123 58.3196H39.2162H40.8993V65.1361H37.1123V58.3196Z" fill="#166665"/>
<path d="M0 71.9526H3.78698H6.81657V75.7396H0V71.9526Z" fill="#002841"/>
<path d="M23.4792 74.2249H25.1624H26.5088V81.7988H23.4792V74.2249Z" fill="#002841"/>
<path d="M26.5088 74.2249H28.6127H30.2958V78.0118H26.5088V74.2249Z" fill="#002841"/>
<path d="M25.7515 52.2603H27.8553H29.5384V58.3194H25.7515V52.2603Z" fill="#002841"/>
<path d="M36.355 70.438H38.8796H40.8994V78.012H36.355V70.438Z" fill="#002841"/>
<path d="M37.1123 65.136H39.2162H40.8993V72.71H37.1123V65.136Z" fill="#002841"/>
<path d="M43.929 65.136H45.6121H46.9585V74.2247H43.929V65.136Z" fill="#002841"/>
<path d="M33.3254 70.438H35.0085H36.355V74.225H33.3254V70.438Z" fill="#002841"/>
<path d="M40.8994 54.5325H42.5825H43.929V70.4378H40.8994V54.5325Z" fill="#002841"/>
<path d="M43.929 54.5325H51.5029H57.5621V56.8047H43.929V54.5325Z" fill="#002841"/>
<path d="M43.929 52.2603H46.4536H48.4733V54.5324H43.929V52.2603Z" fill="#002841"/>
<path d="M51.5029 52.2603H54.0276H56.0473V54.5324H51.5029V52.2603Z" fill="#002841"/>
<path d="M9.84619 43.1716H11.5293H12.8758V49.2308H9.84619V43.1716Z" fill="#002841"/>
<path d="M12.8757 49.2307H22.1328H29.5385V52.2603H12.8757V49.2307Z" fill="#002841"/>
<path d="M29.5386 49.2307H37.5333H43.9291V54.5325H29.5386V49.2307Z" fill="#002841"/>
<path d="M12.8757 46.2012H16.2419H18.9349V49.2308H12.8757V46.2012Z" fill="#002841"/>
<path d="M37.8699 46.2012H41.2361H43.929V49.2308H37.8699V46.2012Z" fill="#002841"/>
<path d="M40.8994 40.1421H42.5825H43.929V46.2013H40.8994V40.1421Z" fill="#002841"/>
<path d="M43.929 38.6272H46.8744H49.2307V41.6568H43.929V38.6272Z" fill="#002841"/>
<path d="M48.4734 34.0828H56.0474H62.1065V38.6271H48.4734V34.0828Z" fill="#002841"/>
<path d="M43.929 37.1123H46.4536H48.4733V38.6271H43.929V37.1123Z" fill="#002841"/>
<path d="M59.0769 38.6272H60.76H62.1065V44.6864H59.0769V38.6272Z" fill="#002841"/>
<path d="M61.3491 38.6272H67.24H71.9527V41.6568H61.3491V38.6272Z" fill="#002841"/>
<path d="M71.9526 38.6272H76.5812H80.284V41.6568H71.9526V38.6272Z" fill="#002841"/>
<path d="M57.562 18.9348H65.136H71.1951V21.9644H57.562V18.9348Z" fill="#002841"/>
<path d="M61.3491 15.9053H63.0322H64.3787V24.994H61.3491V15.9053Z" fill="#002841"/>
<path d="M60.5918 73.4675H66.4827H71.1954V76.4971H60.5918V73.4675Z" fill="#002841"/>
<path d="M64.3787 67.4082H68.1656H71.1952V73.4674H64.3787V67.4082Z" fill="#002841"/>
<path d="M87.8579 76.4971H91.2241H93.9171V79.5267H87.8579V76.4971Z" fill="#002841"/>
<path d="M78.0117 76.4971H79.6948H81.0413V79.5267H78.0117V76.4971Z" fill="#002841"/>
<path d="M90.1301 73.4675H94.3379H97.7041V76.4971H90.1301V73.4675Z" fill="#002841"/>
<path d="M81.7988 53.0178H85.5858H88.6154V61.3492H81.7988V53.0178Z" fill="#002841"/>
<path d="M86.3433 49.9883H89.7095H92.4024V53.0179H86.3433V49.9883Z" fill="#002841"/>
<path d="M81.7988 61.3491H83.9027H85.5858V66.6509H81.7988V61.3491Z" fill="#002841"/>
<path d="M67.4082 76.4971H71.1952H74.2248V79.5267H67.4082V76.4971Z" fill="#002841"/>
<path d="M74.2249 73.4675H76.3287H78.0118V76.4971H74.2249V73.4675Z" fill="#002841"/>
<path d="M64.3787 64.3787H66.4825H68.1656V67.4082H64.3787V64.3787Z" fill="#002841"/>
<path d="M70.438 79.5266H81.7989H90.8877V82.5562H70.438V79.5266Z" fill="#002841"/>
<path d="M81.0415 82.5562H84.8285H87.8581V85.5857H81.0415V82.5562Z" fill="#002841"/>
<path d="M43.929 81.0415H45.6121H46.9585V84.0711H43.929V81.0415Z" fill="#772F38"/>
<path d="M60.5918 116.639H62.6957H64.3788V119.669H60.5918V116.639Z" fill="#772F38"/>
<path d="M60.5918 118.911H62.6957H64.3788V122.698H60.5918V118.911Z" fill="#772F38"/>
<path d="M53.0178 121.941H54.2802H55.29V124.971H53.0178V121.941Z" fill="#772F38"/>
<path d="M53.0178 118.911H54.2802H55.29V121.941H53.0178V118.911Z" fill="#772F38"/>
<path d="M53.0178 116.639H54.2802H55.29V119.669H53.0178V116.639Z" fill="#772F38"/>
<path d="M60.5918 113.609H63.1165H65.1362V116.639H60.5918V113.609Z" fill="#772F38"/>
<path d="M64.3787 116.639H67.3241H69.6804V119.669H64.3787V116.639Z" fill="#772F38"/>
<path d="M40.8994 116.639H43.0033H44.6864V119.669H40.8994V116.639Z" fill="#772F38"/>
<path d="M21.207 34.0828H26.6771H31.0532V37.1124H21.207V34.0828Z" fill="#81CC78"/>
<path d="M18.9348 43.1716H25.6672H31.0532V46.2012H18.9348V43.1716Z" fill="#81CC78"/>
<path d="M28.0237 40.1421H35.1769H40.8994V43.1717H28.0237V40.1421Z" fill="#81CC78"/>
<path d="M43.929 41.6567H50.6614H56.0473V44.6863H43.929V41.6567Z" fill="#81CC78"/>
<path d="M43.929 41.6567H52.3445H59.0769V44.6863H43.929V41.6567Z" fill="#81CC78"/>
<path d="M36.355 37.1123H40.5627H43.9289V40.1419H36.355V37.1123Z" fill="#81CC78"/>
<path d="M36.355 34.0828H38.8796H40.8994V37.1124H36.355V34.0828Z" fill="#81CC78"/>
<path d="M43.929 44.6863H46.4536H48.4733V47.7159H43.929V44.6863Z" fill="#81CC78"/>
<path d="M52.2603 44.6863H54.3641H56.0472V47.7159H52.2603V44.6863Z" fill="#81CC78"/>
<path d="M59.0769 44.6863H60.76H62.1065V47.7159H59.0769V44.6863Z" fill="#81CC78"/>
<path d="M56.0474 47.7161H59.4136H62.1065V51.503H56.0474V47.7161Z" fill="#81CC78"/>
<path d="M62.1064 49.2307H67.5765H71.9526V54.5325H62.1064V49.2307Z" fill="#81CC78"/>
<path d="M62.1064 41.6567H67.5765H71.9526V45.4437H62.1064V41.6567Z" fill="#81CC78"/>
<path d="M75.7397 41.6567H81.2098H85.5859V45.4437H75.7397V41.6567Z" fill="#81CC78"/>
<path d="M75.7397 45.4438H78.2644H80.2841V46.9586H75.7397V45.4438Z" fill="#81CC78"/>
<path d="M85.5857 43.1716H87.2688H88.6153V45.4438H85.5857V43.1716Z" fill="#81CC78"/>
<path d="M68.1658 65.136H73.6359H78.0119V70.4378H68.1658V65.136Z" fill="#81CC78"/>
<path d="M64.3787 62.1064H68.5864H71.9526V65.136H64.3787V62.1064Z" fill="#81CC78"/>
<path d="M71.9526 56.8047H77.4227H81.7988V59.8343H71.9526V56.8047Z" fill="#81CC78"/>
<path d="M71.9526 59.0769H75.3188H78.0118V62.1065H71.9526V59.0769Z" fill="#81CC78"/>
<path d="M71.9526 54.5325H75.3188H78.0118V57.5621H71.9526V54.5325Z" fill="#81CC78"/>
<path d="M60.5918 58.3196H64.7996H68.1658V62.1066H60.5918V58.3196Z" fill="#81CC78"/>
<path d="M57.562 54.5325H61.349H64.3786V58.3195H57.562V54.5325Z" fill="#81CC78"/>
<path d="M78.0117 70.438H80.1156H81.7987V73.4676H78.0117V70.438Z" fill="#81CC78"/>
<path d="M53.0178 64.3787H55.5425H57.5622V67.4082H53.0178V64.3787Z" fill="#81CC78"/>
<path d="M88.6155 61.3491H90.7194H92.4025V63.6213H88.6155V61.3491Z" fill="#81CC78"/>
<path d="M88.6155 66.6509H90.7194H92.4025V70.4379H88.6155V66.6509Z" fill="#81CC78"/>
<path d="M85.5857 63.6213H87.2688H88.6153V66.6509H85.5857V63.6213Z" fill="#81CC78"/>
<path d="M85.5857 70.438H90.635H94.6744V73.4676H85.5857V70.438Z" fill="#81CC78"/>
<path d="M39.3845 28.0237H41.9092H43.9289V31.0533H39.3845V28.0237Z" fill="#81CC78"/>
<path d="M18.9348 37.1123H25.6672H31.0532V40.1419H18.9348V37.1123Z" fill="#81CC78"/>
<path d="M18.9348 52.2603H22.7218H25.7514V55.2898H18.9348V52.2603Z" fill="#81CC78"/>
<path d="M34.0828 24.9941H37.0282H39.3845V28.0237H34.0828V24.9941Z" fill="#81CC78"/>
<path d="M48.4734 28.0237H51.4188H53.7752V31.0533H48.4734V28.0237Z" fill="#81CC78"/>
<path d="M49.9883 21.9646H54.196H57.5622V24.9942H49.9883V21.9646Z" fill="#81CC78"/>
<path d="M49.9883 21.9646H56.2999H61.3492V24.9942H49.9883V21.9646Z" fill="#81CC78"/>
<path d="M61.3491 9.08887H65.1361H68.1657V12.1185H61.3491V9.08887Z" fill="#81CC78"/>
<path d="M42.4143 18.9348H44.0974H45.4439V24.994H42.4143V18.9348Z" fill="#81CC78"/>
<path d="M45.4438 15.9053H48.8101H51.503V21.9644H45.4438V15.9053Z" fill="#81CC78"/>
<path d="M12.8757 37.1123H14.5588H15.9053V40.1419H12.8757V37.1123Z" fill="#81CC78"/>
<path d="M33.3254 54.5325H37.5332H40.8994V58.3195H33.3254V54.5325Z" fill="#81CC78"/>
<path d="M28.0237 28.0237H32.6522H36.355V31.0533H28.0237V28.0237Z" fill="#81CC78"/>
<path d="M28.0237 31.0532H32.6522H36.355V34.0828H28.0237V31.0532Z" fill="#81CC78"/>
<path d="M31.0532 12.8757H35.6818H39.3846V15.9053H31.0532V12.8757Z" fill="#81CC78"/>
<path d="M40.8994 9.08887H46.7903H51.503V12.8758H40.8994V9.08887Z" fill="#81CC78"/>
<path d="M42.4143 24.9941H52.9337H61.3492V28.0237H42.4143V24.9941Z" fill="#81CC78"/>
<path d="M61.3491 28.0237H64.7153H67.4083V31.0533H61.3491V28.0237Z" fill="#81CC78"/>
<path d="M64.3787 31.0532H69.428H73.4674V34.0828H64.3787V31.0532Z" fill="#81CC78"/>
<path d="M61.3491 34.0828H66.3984H70.4379V38.6271H61.3491V34.0828Z" fill="#81CC78"/>
<path d="M46.9585 6.05908H56.6363H64.3786V9.08867H46.9585V6.05908Z" fill="#81CC78"/>
<path d="M54.5325 0H56.6363H58.3195V6.05917H54.5325V0Z" fill="#81CC78"/>
<path d="M58.3196 3.02954H60.4235H62.1066V6.05913H58.3196V3.02954Z" fill="#8FB18F"/>
</svg>
