<svg width="128" height="128" viewBox="0 0 128 128" fill="none" xmlns="http://www.w3.org/2000/svg">
<rect x="7.68005" y="94.4465" width="3.84" height="6.21359" fill="#424242"/>
<path d="M11.52 100.66H19.2V103.146V108.116V109.359H17.28H15.36V108.116V103.146H11.52V100.66Z" fill="#424242"/>
<rect x="3.83997" y="39.7671" width="3.84" height="24.8544" fill="#424242"/>
<rect x="7.68005" y="64.6213" width="3.84" height="7.45631" fill="#424242"/>
<rect x="3.83997" y="68.3496" width="3.84" height="3.72816" fill="#424242"/>
<rect y="72.0776" width="3.84" height="18.6408" fill="#424242"/>
<rect x="3.83997" y="90.7185" width="29.44" height="3.72816" fill="#424242"/>
<path d="M33.28 84.5048H37.12V80.7766H42.24V84.5048V94.4465H33.28V84.5048Z" fill="#424242"/>
<path d="M42.24 77.1616V75.8059H43.8857H46.08V77.1616V80.7768H42.24V77.1616Z" fill="#424242"/>
<path d="M29.4399 81.7934V80.7766H31.0857H33.2799V81.7934V84.5048H29.4399V81.7934Z" fill="#424242"/>
<path d="M35.84 95.4633V94.4465H40.2285H46.08V95.4633V98.1747H49.92V101.903H42.24V98.1747H35.84V95.4633Z" fill="#424242"/>
<rect width="3.84" height="24.8544" transform="matrix(-1 0 0 1 124.16 39.7671)" fill="#424242"/>
<rect width="3.84" height="7.45631" transform="matrix(-1 0 0 1 120.32 64.6213)" fill="#424242"/>
<rect width="3.84" height="3.72816" transform="matrix(-1 0 0 1 124.16 68.3496)" fill="#424242"/>
<rect width="3.84" height="18.6408" transform="matrix(-1 0 0 1 128 72.0776)" fill="#424242"/>
<rect width="29.44" height="3.72816" transform="matrix(-1 0 0 1 124.16 90.7185)" fill="#424242"/>
<path d="M94.72 84.5048H90.88V80.7766H85.76V84.5048V94.4465H94.72V84.5048Z" fill="#424242"/>
<path d="M85.76 77.1616V75.8059H84.1143H81.92V77.1616V80.7768H85.76V77.1616Z" fill="#424242"/>
<path d="M98.5601 81.7934V80.7766H96.9143H94.7201V81.7934V84.5048H98.5601V81.7934Z" fill="#424242"/>
<path d="M92.16 95.4633V94.4465H87.7715H81.92V95.4633V98.1747H78.08V101.903H85.76V98.1747H92.16V95.4633Z" fill="#424242"/>
<rect x="49.92" y="101.903" width="28.16" height="4.97088" fill="#424242"/>
<rect x="7.68005" y="31.0679" width="3.84" height="8.69903" fill="#424242"/>
<rect x="11.52" y="22.3689" width="3.84" height="8.69903" fill="#424242"/>
<rect x="15.36" y="18.6409" width="3.84" height="3.72816" fill="#424242"/>
<rect x="19.2" y="14.9126" width="5.12" height="3.72816" fill="#424242"/>
<rect x="24.3199" y="11.1846" width="8.96" height="3.72816" fill="#424242"/>
<rect x="33.28" y="7.4563" width="8.96" height="3.72816" fill="#424242"/>
<rect x="56.3199" width="15.36" height="3.72816" fill="#424242"/>
<rect x="42.24" y="3.72827" width="14.08" height="3.72816" fill="#424242"/>
<rect width="3.84" height="8.69903" transform="matrix(-1 0 0 1 120.32 31.0679)" fill="#424242"/>
<rect width="3.84" height="8.69903" transform="matrix(-1 0 0 1 116.48 22.3689)" fill="#424242"/>
<rect width="3.84" height="3.72816" transform="matrix(-1 0 0 1 112.64 18.6409)" fill="#424242"/>
<rect width="5.12" height="3.72816" transform="matrix(-1 0 0 1 108.8 14.9126)" fill="#424242"/>
<rect width="8.96" height="3.72816" transform="matrix(-1 0 0 1 103.68 11.1846)" fill="#424242"/>
<rect width="8.96" height="3.72816" transform="matrix(-1 0 0 1 94.72 7.4563)" fill="#424242"/>
<rect width="14.08" height="3.72816" transform="matrix(-1 0 0 1 85.76 3.72827)" fill="#424242"/>
<rect x="11.52" y="109.359" width="3.84" height="8.69903" fill="#424242"/>
<rect x="15.36" y="118.058" width="3.84" height="3.72816" fill="#424242"/>
<rect x="19.2" y="121.786" width="6.4" height="2.48544" fill="#424242"/>
<rect x="25.6" y="118.058" width="3.84" height="3.72816" fill="#424242"/>
<rect x="29.4399" y="114.33" width="3.84" height="3.72815" fill="#424242"/>
<rect x="33.28" y="118.058" width="8.96" height="3.72816" fill="#424242"/>
<path d="M49.92 118.058H55.04V123.029H49.92V118.058Z" fill="#424242"/>
<path d="M55.04 123.029H72.96V128H55.04V123.029Z" fill="#424242"/>
<path d="M42.24 109.359H46.08V113.709H49.92V116.194V118.058H46.08H42.24V109.359Z" fill="#424242"/>
<rect width="3.84" height="6.21359" transform="matrix(-1 0 0 1 120.32 94.4465)" fill="#424242"/>
<path d="M116.48 100.66H108.8V103.146V108.116V109.359H110.72H112.64V108.116V103.146H116.48V100.66Z" fill="#424242"/>
<rect width="3.84" height="8.69903" transform="matrix(-1 0 0 1 116.48 109.359)" fill="#424242"/>
<rect width="3.84" height="3.72816" transform="matrix(-1 0 0 1 112.64 118.058)" fill="#424242"/>
<rect width="6.4" height="2.48544" transform="matrix(-1 0 0 1 108.8 121.786)" fill="#424242"/>
<rect width="3.84" height="3.72816" transform="matrix(-1 0 0 1 102.4 118.058)" fill="#424242"/>
<rect width="3.84" height="3.72815" transform="matrix(-1 0 0 1 98.5601 114.33)" fill="#424242"/>
<rect width="8.96" height="3.72816" transform="matrix(-1 0 0 1 94.72 118.058)" fill="#424242"/>
<path d="M78.08 118.058H72.96V123.029H78.08V118.058Z" fill="#424242"/>
<path d="M85.76 109.359H81.92V113.709H78.08V116.194V118.058H81.92H85.76V109.359Z" fill="#424242"/>
<path d="M7.67997 64.6215V39.7671H11.52V31.0681H15.36V22.369H19.2V18.6409H24.32V14.9127H33.28V11.1846H42.24V7.45643H56.32V3.72827H63.36H64V59.6506V98.1749V101.903H49.92V98.1749H46.08V94.4467H42.24V80.7768H46.08V75.8059H42.24V80.7768H37.12V84.505H33.28V80.7768H29.44V84.505H33.28V90.7186H3.83997V72.0778H11.52V64.6215H7.67997Z" fill="#53B74F"/>
<path d="M120.32 64.6215V39.7671H116.48V31.0681H112.64V22.369H108.8V18.6409H103.68V14.9127H94.7199V11.1846H85.7599V7.45643H71.6799V3.72827H64.6399H63.9999V59.6506V98.1749V101.903H78.0799V98.1749H81.9199V94.4467H85.7599V80.7768H81.9199V75.8059H85.7599V80.7768H90.8799V84.505H94.7199V80.7768H98.5599V84.505H94.7199V90.7186H124.16V72.0778H116.48V64.6215H120.32Z" fill="#53B74F"/>
<path d="M11.52 94.4465H35.84V98.1747H42.24V101.903H49.92V106.874H78.08V101.903H85.76V98.1747H92.16V94.4465H116.48V100.66H108.8V109.359H112.64V118.058H108.8V121.786H102.4V118.058H98.56V114.33H94.72V118.058H85.76V109.359H81.92V113.709H78.08V118.058H72.96V123.029H55.04V118.058H49.92V113.709H46.08V109.359H42.24V118.058H33.28V114.33H29.44V118.058H25.6V121.786H19.2V118.058H15.36V109.359H19.2V100.66H11.52V94.4465Z" fill="#766450"/>
<path d="M11.52 94.4465H35.84V98.1747H19.2H11.52V94.4465Z" fill="#514A36"/>
<rect x="92.16" y="94.4465" width="24.32" height="3.72816" fill="#514A36"/>
<rect x="35.84" y="98.1748" width="6.4" height="2.48544" fill="#514A36"/>
<rect x="42.24" y="101.903" width="7.68" height="2.48544" fill="#514A36"/>
<rect x="78.08" y="101.903" width="7.68" height="2.48544" fill="#514A36"/>
<rect x="85.76" y="98.1748" width="6.4" height="2.48544" fill="#514A36"/>
<rect x="15.36" y="109.359" width="3.84" height="8.69903" fill="#514A36"/>
<rect x="19.2" y="118.058" width="6.4" height="3.72816" fill="#514A36"/>
<rect x="25.6" y="114.33" width="3.84" height="3.72815" fill="#514A36"/>
<rect x="33.28" y="114.33" width="8.96" height="3.72815" fill="#514A36"/>
<rect x="55.04" y="119.301" width="17.92" height="3.72816" fill="#514A36"/>
<rect x="49.92" y="114.33" width="5.12" height="3.72815" fill="#514A36"/>
<rect x="46.08" y="110.602" width="3.84" height="3.72816" fill="#514A36"/>
<rect x="78.08" y="110.602" width="3.84" height="3.72816" fill="#514A36"/>
<rect x="72.96" y="114.33" width="5.12" height="3.72815" fill="#514A36"/>
<rect x="29.4399" y="111.845" width="3.84" height="2.48544" fill="#514A36"/>
<rect width="3.84" height="8.69903" transform="matrix(-1 0 0 1 112.64 109.359)" fill="#514A36"/>
<rect width="6.4" height="3.72816" transform="matrix(-1 0 0 1 108.8 118.058)" fill="#514A36"/>
<rect width="3.84" height="3.72815" transform="matrix(-1 0 0 1 102.4 114.33)" fill="#514A36"/>
<rect width="8.96" height="3.72815" transform="matrix(-1 0 0 1 94.72 114.33)" fill="#514A36"/>
<rect width="3.84" height="2.48544" transform="matrix(-1 0 0 1 98.5601 111.845)" fill="#514A36"/>
<rect x="49.92" y="98.1748" width="28.16" height="3.72815" fill="#409863"/>
<rect x="3.83997" y="86.9902" width="29.44" height="3.72815" fill="#409863"/>
<rect x="3.83997" y="72.0776" width="3.84" height="14.9126" fill="#409863"/>
<rect x="7.68005" y="39.7671" width="3.84" height="24.8544" fill="#409863"/>
<rect x="116.48" y="39.7671" width="3.84" height="24.8544" fill="#409863"/>
<rect x="7.68005" y="72.0776" width="3.84" height="2.48544" fill="#409863"/>
<rect x="7.68005" y="84.5049" width="3.84" height="2.48544" fill="#409863"/>
<rect x="116.48" y="84.5049" width="3.84" height="2.48544" fill="#409863"/>
<rect x="116.48" y="72.0776" width="3.84" height="2.48544" fill="#409863"/>
<rect x="120.32" y="72.0776" width="3.84" height="14.9126" fill="#409863"/>
<rect x="94.72" y="86.9902" width="29.44" height="3.72815" fill="#409863"/>
<rect x="46.08" y="94.4465" width="3.84" height="3.72816" fill="#409863"/>
<rect x="42.24" y="90.7185" width="3.84" height="3.72816" fill="#409863"/>
<rect x="78.08" y="94.4465" width="3.84" height="3.72816" fill="#409863"/>
<rect x="81.92" y="90.7185" width="3.84" height="3.72816" fill="#409863"/>
</svg>
