<svg width="70" height="128" viewBox="0 0 70 128" fill="none" xmlns="http://www.w3.org/2000/svg">
<path d="M26.4126 100.572H41.6507V118.857H44.6983V121.905H47.746V124.952H50.7936V128H29.4603H17.2698V124.952H20.3174V121.905H23.365V118.857H26.4126V100.572Z" fill="#7E4611"/>
<path d="M12.1905 30.4762H15.2381V28.4444H18.2857V22.3492H21.3333V16.254H24.381V13.2063H27.4286V7.11111H30.4762V4.06349H33.5238V1.01587H35.5556V4.06349H38.6032V7.11111H41.6508V13.2063H44.6984V16.254H47.746V22.3492H50.7937V28.4444H53.8413V36.5714H56.8889V42.6667H59.9365V48.7619H56.8889V51.8095H59.9365V54.8571H62.9841V60.9524H66.0318V67.0476H62.9841V70.0952H66.0318V82.2857H69.0794V91.4286H66.0318V94.4762H62.9841V97.5238H59.9365V100.571H56.8889V103.619H50.7937V100.571H47.746V103.619H44.6984V106.667H41.6508V103.619H27.4286H18.2857V100.571H12.1905V97.5238H6.09524V94.4762H3.04762V91.4286H0V79.2381H3.04762V73.1429H0V70.0952H3.04762V64H6.09524V60.9524H3.04762V57.9048H6.09524V51.8095H9.14286V48.7619H12.1905V39.619H15.2381V36.5714H12.1905V30.4762Z" fill="#72C14E"/>
<rect x="33.5239" width="2.03175" height="3.04762" fill="black"/>
<rect x="27.4285" y="6.09521" width="3.04762" height="6.09524" fill="black"/>
<rect x="24.3809" y="12.1904" width="3.04762" height="3.04762" fill="black"/>
<rect x="15.238" y="36.5715" width="3.04762" height="3.04762" fill="black"/>
<rect x="12.1904" y="39.6191" width="3.04762" height="9.14286" fill="black"/>
<rect x="9.14282" y="48.762" width="3.04762" height="3.04762" fill="black"/>
<rect x="6.09521" y="51.8096" width="3.04762" height="6.09524" fill="black"/>
<rect x="3.04761" y="57.9048" width="3.04762" height="3.04762" fill="black"/>
<rect x="6.09521" y="60.9524" width="3.04762" height="3.04762" fill="black"/>
<rect x="3.04761" y="64" width="3.04762" height="6.09524" fill="black"/>
<rect y="70.0952" width="3.04762" height="3.04762" fill="black"/>
<rect x="3.04761" y="73.1428" width="3.04762" height="6.09524" fill="black"/>
<rect y="79.238" width="3.04762" height="12.1905" fill="black"/>
<rect x="3.04761" y="91.4285" width="3.04762" height="3.04762" fill="black"/>
<rect x="23.365" y="118.857" width="3.04762" height="3.04762" fill="black"/>
<rect x="38.6033" y="121.905" width="3.04762" height="3.04762" fill="black"/>
<rect x="26.4126" y="121.905" width="3.04762" height="3.04762" fill="black"/>
<rect x="50.7937" y="100.572" width="6.09524" height="3.04762" fill="black"/>
<rect x="32.5081" y="100.572" width="15.2381" height="3.04762" fill="black"/>
<rect x="27.4285" y="97.5239" width="5.07937" height="3.04762" fill="black"/>
<rect x="47.7461" y="97.5239" width="3.04762" height="3.04762" fill="black"/>
<rect x="66.0317" y="82.2856" width="3.04762" height="9.14286" fill="black"/>
<rect x="50.7937" y="27.4285" width="3.04762" height="9.14286" fill="black"/>
<rect x="47.7461" y="21.3333" width="3.04762" height="6.09524" fill="black"/>
<rect x="44.6985" y="15.238" width="3.04762" height="6.09524" fill="black"/>
<rect x="53.8413" y="36.5715" width="3.04762" height="6.09524" fill="black"/>
<rect x="62.9841" y="60.9524" width="3.04762" height="6.09524" fill="black"/>
<rect x="59.9365" y="54.8572" width="3.04762" height="6.09524" fill="black"/>
<rect x="56.8889" y="42.6667" width="3.04762" height="6.09524" fill="black"/>
<rect x="62.9841" y="70.0952" width="3.04762" height="12.1905" fill="black"/>
<rect x="62.9841" y="91.4285" width="3.04762" height="3.04762" fill="black"/>
<rect x="59.9365" y="67.0476" width="3.04762" height="3.04762" fill="black"/>
<rect x="53.8413" y="48.762" width="3.04762" height="3.04762" fill="black"/>
<rect x="56.8889" y="51.8096" width="3.04762" height="3.04762" fill="black"/>
<rect x="59.9365" y="94.4761" width="3.04762" height="3.04762" fill="black"/>
<rect x="56.8889" y="97.5239" width="3.04762" height="3.04762" fill="black"/>
<rect x="41.6509" y="103.619" width="3.04762" height="3.04762" fill="black"/>
<rect x="41.6509" y="118.857" width="3.04762" height="3.04762" fill="black"/>
<rect x="44.6985" y="121.905" width="3.04762" height="3.04762" fill="black"/>
<rect x="17.2698" y="124.952" width="33.5238" height="3.04762" fill="black"/>
<rect x="20.3174" y="121.905" width="3.04762" height="3.04762" fill="black"/>
<rect x="6.09521" y="94.4761" width="6.09524" height="3.04762" fill="black"/>
<rect x="12.1904" y="97.5239" width="6.09524" height="3.04762" fill="black"/>
<rect x="18.2856" y="100.572" width="8.12698" height="3.04762" fill="black"/>
<rect x="26.4126" y="103.619" width="3.04762" height="15.2381" fill="black"/>
<rect x="38.6033" y="106.667" width="3.04762" height="12.1905" fill="black"/>
<rect x="12.1904" y="30.4761" width="3.04762" height="6.09524" fill="black"/>
<rect x="15.238" y="27.4285" width="3.04762" height="3.04762" fill="black"/>
<rect x="18.2856" y="21.3333" width="3.04762" height="6.09524" fill="black"/>
<rect x="21.3333" y="15.238" width="3.04762" height="6.09524" fill="black"/>
<rect x="41.6509" y="12.1904" width="3.04762" height="3.04762" fill="black"/>
<rect x="38.6033" y="6.09521" width="3.04762" height="6.09524" fill="black"/>
<rect x="35.5557" y="3.04761" width="3.04762" height="3.04762" fill="black"/>
<rect x="30.4761" y="3.04761" width="3.04762" height="3.04762" fill="black"/>
<rect x="33.5239" y="3.04761" width="2.03175" height="3.04762" fill="#E1E668"/>
<rect x="30.4761" y="9.14282" width="3.04762" height="3.04762" fill="#E1E668"/>
<rect x="30.4761" y="6.09521" width="3.04762" height="3.04762" fill="#BED853"/>
<rect x="33.5239" y="9.14282" width="2.03175" height="3.04762" fill="#BED853"/>
<rect x="35.5557" y="15.238" width="3.04762" height="3.04762" fill="#BED853"/>
<rect x="24.3809" y="15.238" width="3.04762" height="3.04762" fill="#BED853"/>
<rect x="21.3333" y="21.3333" width="3.04762" height="3.04762" fill="#BED853"/>
<rect x="18.2856" y="27.4285" width="3.04762" height="3.04762" fill="#BED853"/>
<rect x="24.3809" y="30.4761" width="3.04762" height="3.04762" fill="#BED853"/>
<rect x="15.238" y="45.7144" width="3.04762" height="3.04762" fill="#BED853"/>
<rect x="29.4602" y="51.8096" width="3.04762" height="3.04762" fill="#BED853"/>
<rect x="6.09521" y="67.0476" width="3.04762" height="3.04762" fill="#BED853"/>
<rect x="24.3809" y="73.1428" width="3.04762" height="3.04762" fill="#BED853"/>
<rect x="24.3809" y="73.1428" width="3.04762" height="3.04762" fill="#BED853"/>
<rect x="50.7937" y="76.1904" width="3.04762" height="3.04762" fill="#BED853"/>
<rect x="56.8889" y="70.0952" width="6.09524" height="3.04762" fill="#BED853"/>
<rect x="59.9365" y="73.1428" width="3.04762" height="3.04762" fill="#BED853"/>
<rect x="53.8413" y="73.1428" width="3.04762" height="3.04762" fill="#BED853"/>
<rect x="44.6985" y="79.238" width="3.04762" height="3.04762" fill="#BED853"/>
<rect x="38.6033" y="82.2856" width="3.04762" height="3.04762" fill="#BED853"/>
<rect x="35.5557" y="79.238" width="3.04762" height="3.04762" fill="#BED853"/>
<rect x="38.6033" y="76.1904" width="3.04762" height="3.04762" fill="#BED853"/>
<rect x="33.5239" y="73.1428" width="3.04762" height="3.04762" fill="#BED853"/>
<rect x="15.238" y="73.1428" width="6.09524" height="3.04762" fill="#BED853"/>
<rect x="20.3174" y="79.238" width="9.14286" height="3.04762" fill="#BED853"/>
<rect x="18.2856" y="76.1904" width="6.09524" height="3.04762" fill="#BED853"/>
<rect x="30.4761" y="76.1904" width="6.09524" height="3.04762" fill="#BED853"/>
<rect x="18.2856" y="82.2856" width="3.04762" height="3.04762" fill="#BED853"/>
<rect x="12.1904" y="79.238" width="6.09524" height="3.04762" fill="#BED853"/>
<rect x="9.14282" y="70.0952" width="3.04762" height="6.09524" fill="#BED853"/>
<rect x="6.09521" y="76.1904" width="9.14286" height="3.04762" fill="#BED853"/>
<rect x="3.04761" y="70.0952" width="3.04762" height="3.04762" fill="#BED853"/>
<rect x="44.6985" y="48.762" width="3.04762" height="3.04762" fill="#BED853"/>
<rect x="47.7461" y="45.7144" width="3.04762" height="3.04762" fill="#BED853"/>
<rect x="53.8413" y="42.6667" width="3.04762" height="3.04762" fill="#BED853"/>
<rect x="12.1904" y="48.762" width="9.14286" height="3.04762" fill="#BED853"/>
<rect x="21.3333" y="51.8096" width="5.07937" height="3.04762" fill="#BED853"/>
<rect x="36.5715" y="51.8096" width="5.07937" height="3.04762" fill="#BED853"/>
<rect x="35.5557" y="27.4285" width="3.04762" height="3.04762" fill="#BED853"/>
<path d="M27.4285 12.1904H32.5078V15.238V18.2857H35.5555V21.3333H38.6031V24.3809H35.5555V27.4285H33.5237V33.5238H29.4602V30.4761H27.4285V28.4444H24.3809V25.3968H27.4285V22.3492H30.4761V19.3015H29.4602V15.238H27.4285V12.1904Z" fill="#BED853"/>
<rect x="47.7461" y="27.4285" width="3.04762" height="3.04762" fill="#BED853"/>
<rect x="44.6985" y="21.3333" width="3.04762" height="3.04762" fill="#BED853"/>
<rect x="41.6509" y="15.238" width="3.04762" height="3.04762" fill="#BED853"/>
<rect x="38.6033" y="12.1904" width="3.04762" height="3.04762" fill="#BED853"/>
<rect x="35.5557" y="6.09521" width="3.04762" height="3.04762" fill="#BED853"/>
<rect x="29.4602" y="24.3809" width="3.04762" height="3.04762" fill="#E1E668"/>
<rect x="27.4285" y="19.3015" width="3.04762" height="3.04762" fill="#E1E668"/>
<rect x="32.5081" y="15.238" width="3.04762" height="3.04762" fill="#E1E668"/>
<rect x="15.238" y="33.5239" width="3.04762" height="3.04762" fill="#008242"/>
<rect x="42.6667" y="39.6191" width="5.07937" height="3.04762" fill="#008242"/>
<rect x="29.4602" y="45.7144" width="3.04762" height="3.04762" fill="#008242"/>
<rect x="44.6985" y="42.6667" width="3.04762" height="3.04762" fill="#008242"/>
<rect x="33.5239" y="39.6191" width="3.04762" height="3.04762" fill="#008242"/>
<rect x="38.6033" y="45.7144" width="3.04762" height="3.04762" fill="#008242"/>
<rect x="47.7461" y="33.5239" width="3.04762" height="6.09524" fill="#008242"/>
<rect x="36.5715" y="42.6667" width="5.07937" height="3.04762" fill="#008242"/>
<rect x="24.3809" y="42.6667" width="9.14286" height="3.04762" fill="#008242"/>
<rect x="21.3333" y="39.6191" width="3.04762" height="3.04762" fill="#008242"/>
<rect x="18.2856" y="42.6667" width="3.04762" height="3.04762" fill="#008242"/>
<rect x="18.2856" y="67.0476" width="3.04762" height="3.04762" fill="#008242"/>
<rect x="3.04761" y="85.3333" width="3.04762" height="3.04762" fill="#008242"/>
<rect x="6.09521" y="88.3809" width="3.04762" height="3.04762" fill="#008242"/>
<rect x="9.14282" y="91.4285" width="9.14286" height="3.04762" fill="#008242"/>
<rect x="18.2856" y="94.4761" width="20.3175" height="3.04762" fill="#008242"/>
<rect x="42.6667" y="94.4761" width="14.2222" height="3.04762" fill="#008242"/>
<rect x="53.8413" y="91.4285" width="6.09524" height="3.04762" fill="#008242"/>
<rect x="56.8889" y="88.3809" width="6.09524" height="3.04762" fill="#008242"/>
<rect x="56.8889" y="88.3809" width="6.09524" height="3.04762" fill="#008242"/>
<rect x="62.9841" y="85.3333" width="3.04762" height="3.04762" fill="#008242"/>
<rect x="33.5239" y="91.4285" width="3.04762" height="3.04762" fill="#008242"/>
<rect x="27.4285" y="91.4285" width="3.04762" height="3.04762" fill="#008242"/>
<rect x="6.09521" y="64" width="3.04762" height="3.04762" fill="#008242"/>
<rect x="27.4285" y="67.0476" width="3.04762" height="3.04762" fill="#008242"/>
<rect x="45.7144" y="67.0476" width="2.03175" height="3.04762" fill="#008242"/>
<rect x="39.6191" y="67.0476" width="3.04762" height="3.04762" fill="#008242"/>
<rect x="50.7937" y="60.9524" width="3.04762" height="3.04762" fill="#008242"/>
<rect x="53.8413" y="57.9048" width="6.09524" height="3.04762" fill="#008242"/>
<rect x="56.8889" y="60.9524" width="3.04762" height="3.04762" fill="#008242"/>
<rect x="53.8413" y="64" width="3.04762" height="3.04762" fill="#008242"/>
<rect x="47.7461" y="64" width="3.04762" height="3.04762" fill="#008242"/>
<rect x="36.5715" y="64" width="8.12698" height="3.04762" fill="#008242"/>
<rect x="33.5239" y="67.0476" width="3.04762" height="3.04762" fill="#008242"/>
<rect x="30.4761" y="64" width="3.04762" height="3.04762" fill="#008242"/>
<rect x="24.3809" y="64" width="3.04762" height="3.04762" fill="#008242"/>
<rect x="21.3333" y="60.9524" width="3.04762" height="6.09524" fill="#008242"/>
<rect x="18.2856" y="36.5715" width="3.04762" height="3.04762" fill="#008242"/>
<path d="M9.14282 57.9048H15.2381V60.9524H18.2857V67.0476H12.1904V60.9524H9.14282V57.9048Z" fill="#008242"/>
<rect x="15.238" y="39.6191" width="3.04762" height="3.04762" fill="#008242"/>
<rect x="18.2856" y="33.5239" width="3.04762" height="3.04762" fill="#0BA245"/>
<rect x="21.3333" y="36.5715" width="3.04762" height="3.04762" fill="#0BA245"/>
<rect x="36.5715" y="39.6191" width="6.09524" height="3.04762" fill="#0BA245"/>
<rect x="38.6033" y="36.5715" width="9.14286" height="3.04762" fill="#0BA245"/>
<rect x="33.5239" y="36.5715" width="3.04762" height="3.04762" fill="#0BA245"/>
<rect x="44.6985" y="33.5239" width="3.04762" height="3.04762" fill="#0BA245"/>
<rect x="47.7461" y="30.4761" width="3.04762" height="3.04762" fill="#0BA245"/>
<rect x="41.6509" y="45.7144" width="6.09524" height="3.04762" fill="#0BA245"/>
<rect x="47.7461" y="42.6667" width="3.04762" height="3.04762" fill="#0BA245"/>
<rect x="32.5081" y="45.7144" width="6.09524" height="3.04762" fill="#0BA245"/>
<rect x="41.6509" y="42.6667" width="3.04762" height="3.04762" fill="#0BA245"/>
<rect x="38.6033" y="48.762" width="3.04762" height="3.04762" fill="#0BA245"/>
<rect x="32.5081" y="48.762" width="3.04762" height="3.04762" fill="#0BA245"/>
<rect x="26.4126" y="48.762" width="3.04762" height="3.04762" fill="#0BA245"/>
<rect x="50.7937" y="39.6191" width="3.04762" height="3.04762" fill="#0BA245"/>
<rect x="26.4126" y="36.5715" width="3.04762" height="3.04762" fill="#0BA245"/>
<rect x="21.3333" y="42.6667" width="3.04762" height="3.04762" fill="#0BA245"/>
<rect x="24.3809" y="39.6191" width="9.14286" height="3.04762" fill="#0BA245"/>
<rect x="20.3174" y="45.7144" width="9.14286" height="3.04762" fill="#0BA245"/>
<rect x="15.238" y="57.9048" width="9.14286" height="3.04762" fill="#0BA245"/>
<rect x="12.1904" y="54.8572" width="6.09524" height="3.04762" fill="#0BA245"/>
<rect x="33.5239" y="57.9048" width="6.09524" height="3.04762" fill="#0BA245"/>
<rect x="27.4285" y="57.9048" width="3.04762" height="3.04762" fill="#0BA245"/>
<rect x="9.14282" y="64" width="3.04762" height="3.04762" fill="#0BA245"/>
<rect x="42.6667" y="67.0476" width="3.04762" height="3.04762" fill="#0BA245"/>
<rect x="24.3809" y="70.0952" width="3.04762" height="3.04762" fill="#0BA245"/>
<rect x="36.5715" y="67.0476" width="3.04762" height="3.04762" fill="#0BA245"/>
<rect x="47.7461" y="67.0476" width="9.14286" height="3.04762" fill="#0BA245"/>
<rect x="53.8413" y="70.0952" width="3.04762" height="3.04762" fill="#0BA245"/>
<rect x="45.7144" y="70.0952" width="5.07937" height="3.04762" fill="#0BA245"/>
<rect x="36.5715" y="70.0952" width="5.07937" height="3.04762" fill="#0BA245"/>
<rect x="30.4761" y="67.0476" width="3.04762" height="6.09524" fill="#0BA245"/>
<rect x="9.14282" y="67.0476" width="9.14286" height="3.04762" fill="#0BA245"/>
<rect x="15.238" y="70.0952" width="6.09524" height="3.04762" fill="#0BA245"/>
<rect x="3.04761" y="82.2856" width="6.09524" height="3.04762" fill="#0BA245"/>
<rect x="15.238" y="85.3333" width="3.04762" height="3.04762" fill="#0BA245"/>
<rect x="27.4285" y="88.3809" width="3.04762" height="3.04762" fill="#0BA245"/>
<rect x="30.4761" y="91.4285" width="3.04762" height="3.04762" fill="#0BA245"/>
<rect x="3.04761" y="88.3809" width="3.04762" height="3.04762" fill="#0BA245"/>
<rect x="62.9841" y="88.3809" width="3.04762" height="3.04762" fill="#0BA245"/>
<rect x="59.9365" y="79.238" width="3.04762" height="3.04762" fill="#0BA245"/>
<rect x="47.7461" y="85.3333" width="3.04762" height="3.04762" fill="#0BA245"/>
<rect x="39.6191" y="94.4761" width="3.04762" height="3.04762" fill="#0BA245"/>
<rect x="9.14282" y="88.3809" width="12.1905" height="3.04762" fill="#0BA245"/>
<rect x="18.2856" y="91.4285" width="8.12698" height="3.04762" fill="#0BA245"/>
<rect x="33.5239" y="88.3809" width="6.09524" height="3.04762" fill="#0BA245"/>
<rect x="56.8889" y="82.2856" width="6.09524" height="3.04762" fill="#0BA245"/>
<rect x="36.5715" y="91.4285" width="17.2698" height="3.04762" fill="#0BA245"/>
<rect x="45.7144" y="88.3809" width="11.1746" height="3.04762" fill="#0BA245"/>
<rect x="53.8413" y="85.3333" width="9.14286" height="3.04762" fill="#0BA245"/>
<rect x="6.09521" y="85.3333" width="6.09524" height="3.04762" fill="#0BA245"/>
<rect x="21.3333" y="67.0476" width="6.09524" height="3.04762" fill="#0BA245"/>
<rect x="56.8889" y="64" width="6.09524" height="3.04762" fill="#0BA245"/>
<rect x="33.5239" y="64" width="3.04762" height="3.04762" fill="#0BA245"/>
<rect x="18.2856" y="60.9524" width="3.04762" height="3.04762" fill="#0BA245"/>
<rect x="41.6509" y="57.9048" width="3.04762" height="3.04762" fill="#0BA245"/>
<rect x="53.8413" y="51.8096" width="3.04762" height="3.04762" fill="#0BA245"/>
<rect x="47.7461" y="57.9048" width="6.09524" height="3.04762" fill="#0BA245"/>
<rect x="24.3809" y="60.9524" width="26.4127" height="3.04762" fill="#0BA245"/>
<rect x="50.7937" y="54.8572" width="6.09524" height="3.04762" fill="#0BA245"/>
<rect x="18.2856" y="39.6191" width="3.04762" height="3.04762" fill="#005F31"/>
<rect x="33.5239" y="42.6667" width="3.04762" height="3.04762" fill="#005F31"/>
<rect x="47.7461" y="39.6191" width="3.04762" height="3.04762" fill="#005F31"/>
<rect x="53.8413" y="60.9524" width="3.04762" height="3.04762" fill="#005F31"/>
<rect x="50.7937" y="64" width="3.04762" height="3.04762" fill="#005F31"/>
<rect x="27.4285" y="64" width="3.04762" height="3.04762" fill="#005F31"/>
<rect x="18.2856" y="64" width="3.04762" height="3.04762" fill="#005F31"/>
<rect x="9.14282" y="60.9524" width="3.04762" height="3.04762" fill="#005F31"/>
<rect x="6.09521" y="57.9048" width="3.04762" height="3.04762" fill="#005F31"/>
<rect x="6.09521" y="91.4285" width="3.04762" height="3.04762" fill="#005F31"/>
<rect x="18.2856" y="97.5239" width="9.14286" height="3.04762" fill="#005F31"/>
<rect x="32.5081" y="97.5239" width="15.2381" height="3.04762" fill="#005F31"/>
<rect x="50.7937" y="97.5239" width="6.09524" height="3.04762" fill="#005F31"/>
<rect x="56.8889" y="94.4761" width="3.04762" height="3.04762" fill="#005F31"/>
<rect x="59.9365" y="91.4285" width="3.04762" height="3.04762" fill="#005F31"/>
<rect x="12.1904" y="94.4761" width="6.09524" height="3.04762" fill="#005F31"/>
<rect x="44.6985" y="64" width="3.04762" height="3.04762" fill="#005F31"/>
<rect x="26.4126" y="100.572" width="6.09524" height="3.04762" fill="#602408"/>
<rect x="32.5081" y="103.619" width="3.04762" height="3.04762" fill="#602408"/>
<rect x="38.6033" y="103.619" width="3.04762" height="3.04762" fill="#602408"/>
<rect x="41.6509" y="121.905" width="3.04762" height="3.04762" fill="#602408"/>
<rect x="29.4602" y="109.714" width="3.04762" height="3.04762" fill="#602408"/>
<rect x="29.4602" y="121.905" width="3.04762" height="3.04762" fill="#602408"/>
<rect x="35.5557" y="115.81" width="3.04762" height="3.04762" fill="#602408"/>
<path d="M32.5078 106.667H35.5554V118.857H38.6031V121.905H32.5078H29.4602V118.857H32.5078V106.667Z" fill="#BA6928"/>
</svg>
