<svg width="128" height="128" viewBox="0 0 128 128" fill="none" xmlns="http://www.w3.org/2000/svg">
<path d="M58.4568 69.5652H60.4725V71.4203H65.5119V73.2753H67.5277V78.8405H69.5434V85.3332H67.5277V117.797H69.5434V122.435H73.5749V124.29H79.6222V126.145H108.851V128H67.5277H58.4568H26.2048V126.145H45.3544V124.29H51.4017V122.435H54.4253V117.797H56.4411V114.087H58.4568V90.6676V87.1884V83.0145V82.5506V80.6955H50.3938V78.8405H58.4568V73.2753V69.5652Z" fill="black"/>
<path d="M14.1102 30.6087V28.7536H16.126V25.971H18.1417V28.7536H20.1575V30.6087H22.1732V23.1884H24.189V21.3333H28.2205V19.4783H32.252V21.3333H36.2835V19.4783H38.2992V17.6232H36.2835V13.913H38.2992V15.7681H40.315V12.058H42.3307V10.2029H44.3465V8.34783H48.378V6.49275H46.3622V4.63768H48.378V1.85507H50.3937V0H58.4567V1.85507H60.4724V3.71014H67.5276V4.63768H69.5433V6.49275H71.5591V8.34783H73.5748V10.2029H81.6378V12.058H83.6535V8.34783H89.7008V6.49275H93.7323V8.34783H98.7717V13.913H100.787V15.7681H102.803V19.4783H100.787V23.1884H102.803V21.3333H104.819V23.1884H102.803V28.7536H106.835V26.8985H108.85V28.7536H110.866V32.4638H114.898V34.3188H119.937V37.1014H121.953V42.6667H117.921V44.5217H119.937V46.3768H117.921V50.0869H119.937V51.942H117.921V52.8696V53.7971H112.882V55.6522H117.921V57.5072H121.953V59.3623H123.969V61.2174H125.984V65.8551H128V71.4203H123.969V75.1304H121.953V76.9855H114.898V78.8406H110.866V76.9855H108.85V78.8406H102.803V82.5507H100.787V85.3333H98.7717V86.2609H97.7638H93.7323V84.4058H91.7165V86.2609H88.6929V84.4058H85.6693V83.4782H83.6535V80.6956H81.6378V76.9855H77.6063V78.8406H75.5906V80.6956H73.5748V82.5507H67.5276V71.4203H58.4567H52.4094V75.1304H50.3937V78.8406H44.3465V80.6956H42.3307V82.5507H40.315V84.4058H38.2992V86.2609H36.2835V84.4058H34.2677V82.5507H32.252V84.4058H28.2205V82.5507H22.1732V80.6956H20.1575V76.9855H18.1417V80.6956H16.126V82.5507H8.06299V78.8406H6.04724V73.2754H4.0315V71.4203H0V67.7101H2.01575V59.3623H4.0315V57.5072H6.04724V55.6522H2.01575V53.7971H0V50.0869H2.01575V48.2319H4.0315V44.5217H6.04724V42.6667H8.06299V40.8116H10.0787V42.6667H12.0945H14.1102V38.9565H12.0945V37.1014H14.1102V35.2464H12.0945V30.6087H14.1102Z" fill="white"/>
<path d="M50.3938 0H58.4568V1.85507H60.4725V3.71014H67.5277V4.63768H69.5434V6.49275H71.5592V8.34783H73.5749V10.2029H75.5907V12.058H73.5749V10.2029H71.5592V8.34783H69.5434V6.49275H67.5277V5.56522H60.4725V3.71014H58.4568V1.85507H50.3938V4.63768H48.3781V6.49275H50.3938V8.34783H48.3781V10.2029H44.3466V15.7681H42.3308V10.2029H44.3466V8.34783H48.3781V6.49275H46.3623V4.63768H48.3781V1.85507H50.3938V0Z" fill="black"/>
<path d="M36.2835 13.9131H38.2992V17.6232H40.3149V19.4783H38.2992V21.3334H36.2835V25.0435H34.2677V23.1884H32.252V25.0435H30.2362V23.1884H32.252V21.3334H28.2205V19.4783H32.252V21.3334H36.2835V19.4783H38.2992V17.6232H36.2835V13.9131Z" fill="black"/>
<path d="M24.1891 21.3333H26.2048V23.1883H24.1891V30.6086H26.2048V32.4637H24.1891V30.6086H22.1733V23.1883H24.1891V21.3333Z" fill="black"/>
<path d="M16.126 25.9709H18.1417V28.7536H16.126V30.6086H14.1102V35.2463H16.126V37.1014H14.1102V38.9565H16.126V40.8115H14.1102V38.9565H12.0945V37.1014H14.1102V35.2463H12.0945V30.6086H14.1102V28.7536H16.126V25.9709Z" fill="black"/>
<path d="M8.06299 40.8115H10.0787V42.6666H8.06299V44.5217H6.04724V48.2318H4.0315V51.942H2.01575V53.797H6.04724V55.6521H8.06299V57.5072H6.04724V59.3622H4.0315V63.5362H2.01575V59.3622H4.0315V57.5072H6.04724V55.6521H2.01575V53.797H0V50.0869H2.01575V48.2318H4.0315V44.5217H6.04724V42.6666H8.06299V40.8115Z" fill="black"/>
<path d="M2.01575 64.8264H4.03158V67.7102L2.01575 67.7102V71.4204H0V67.7102L2.01575 67.7102V64.8264Z" fill="black"/>
<path d="M4.03149 71.4202H6.04724V73.2752H8.06299V78.8405H10.0787V80.6955H16.126V76.9854H18.1417V75.1303H20.1575V76.9854H22.1732V80.6955H26.2047V82.5506H22.1732V80.6955H20.1575V76.9854H18.1417V80.6955H16.126V82.5506H8.06299V78.8405H6.04724V73.2752H4.03149V71.4202Z" fill="black"/>
<path d="M28.2205 82.5507H30.2362V78.8406H32.252V75.1304H34.2677V78.8406H32.252V80.6956H34.2677V82.5507H40.3149V80.6956H42.3307V78.8406H44.3464V76.9855H48.3779V75.1304H42.3307V73.2754H40.3149V75.1304H38.2992V76.9855H36.2835V75.1304H38.2992V73.2754H36.2835V71.4203H38.2992V73.2754H40.3149V71.4203H42.3307V73.2754H44.3464V71.4203H46.3622V73.2754H48.3779V75.1304H50.3937V71.4203H48.3779V69.5652H50.3937V65.8551H48.3779V67.7101H46.3622V65.8551H48.3779V64H50.3937V65.8551L54.4252 65.8551V67.7101H56.4409V69.5652H60.4724V71.4203H52.4094V75.1304L50.3937 75.1304V78.8406H44.3464V80.6956H42.3307V82.5507H40.3149V84.4058H38.2992V86.2609H36.2835V84.4058H34.2677V82.5507H32.252V84.4058H28.2205V82.5507Z" fill="black"/>
<rect x="60.4724" y="76.9856" width="2.01575" height="3.71014" fill="#AB4769"/>
<rect x="62.4883" y="80.6956" width="2.01575" height="1.85507" fill="#AB4769"/>
<rect x="75.5906" y="73.2754" width="2.01575" height="1.85507" fill="#AB4769"/>
<rect x="62.4883" y="82.5508" width="2.01575" height="2.78261" fill="#64223D"/>
<rect x="60.4724" y="87.1885" width="2.01575" height="3.71014" fill="#64223D"/>
<rect x="56.4409" y="80.6956" width="2.01575" height="1.85507" fill="#64223D"/>
<rect x="54.4253" y="75.1304" width="2.01575" height="1.85507" fill="#64223D"/>
<rect x="56.4409" y="76.9856" width="2.01575" height="1.85507" fill="#64223D"/>
<rect x="52.4094" y="73.2754" width="2.01575" height="1.85507" fill="#64223D"/>
<rect x="50.3938" y="76.9856" width="2.01575" height="1.85507" fill="#64223D"/>
<rect x="62.4883" y="85.3333" width="2.01575" height="1.85507" fill="#AB4769"/>
<rect x="60.4724" y="90.8984" width="2.01575" height="1.85507" fill="#AB4769"/>
<rect x="60.4724" y="96.4639" width="2.01575" height="3.71014" fill="#894053"/>
<path d="M56.4409 117.797H58.4567V114.087H60.4724V112.232H62.4882V117.797H60.4724V120.58H62.4882V122.435H60.4724H56.4409V117.797Z" fill="#894053"/>
<rect x="62.4883" y="103.884" width="2.01575" height="2.78261" fill="#894254"/>
<path d="M66.5198 78.8405H69.5434V76.9854H71.5591V78.8405H69.5434V80.6955H71.5591V78.8405H73.5749V73.2752H75.5906V71.4202H77.6064V73.2752H75.5906V75.1303H77.6064V73.2752H79.6221V75.1303V76.9854H77.6064V78.8405H75.5906V80.6955H73.5749V82.5506H69.5434H66.5198V78.8405Z" fill="black"/>
<rect x="69.5432" y="73.2754" width="2.01575" height="1.85507" fill="black"/>
<path d="M83.6534 71.4202H85.6692V78.8405H83.6534V80.6955H85.6692V82.5506H89.7007V84.4057H91.7164V82.5506H93.7322V84.4057H98.7716V82.5506H100.787V80.6955H99.7794H98.7716V78.8405H100.787V75.1303H98.7716V73.2752H100.787V75.1303H102.803V76.9854H108.85V75.1303H110.866V76.9854H114.898V75.1303H117.921V76.9854H114.898V78.8405H110.866V76.9854H108.85V78.8405H102.803V82.5506H100.787V85.3332H98.7716V86.2607H93.7322V84.4057H91.7164V85.3332V86.2607H88.6928V84.4057H85.6692V83.4781H83.6534V80.6955H81.6377V78.8405H83.6534V75.1303H81.6377V73.2752H83.6534V71.4202Z" fill="black"/>
<rect x="121.953" y="69.5652" width="2.01575" height="5.56522" fill="black"/>
<rect x="119.937" y="75.1304" width="2.01575" height="1.85507" fill="black"/>
<path d="M106.835 50.0869H108.85V51.942H110.866V53.7971H111.874V50.0869H113.89V48.2319H115.906V46.3768H117.921V44.5217H119.937V46.3768H117.921V48.2319H115.906V50.0869H113.89V51.942H117.921V50.0869H119.937V51.942H117.921V53.7971H112.882V55.6522H117.921V57.5072H121.953V59.3623H123.969V61.2174H125.984V65.8551H128V71.4203H125.984V65.8551H123.969V61.2174H119.937V59.3623H117.921V57.5072H110.866V53.7971H108.85H106.835V50.0869Z" fill="black"/>
<rect x="119.937" y="37.1016" width="2.01575" height="5.56522" fill="black"/>
<rect x="112.882" y="32.4639" width="2.01575" height="1.85507" fill="black"/>
<path d="M117.921 34.3188H119.937V37.1015H117.921V36.1739H114.898V34.3188H117.921Z" fill="black"/>
<rect x="79.6221" y="10.2029" width="2.01575" height="1.85507" fill="black"/>
<path d="M94.7402 10.203H96.756V8.3479H98.7717V10.203V12.058V13.9131H96.756V12.058H94.7402V10.203Z" fill="black"/>
<rect x="81.6377" y="12.0579" width="2.01575" height="1.85507" fill="black"/>
<rect x="98.7717" y="13.9131" width="2.01575" height="1.85507" fill="black"/>
<rect x="108.85" y="28.7537" width="2.01575" height="1.85507" fill="black"/>
<rect x="91.7166" y="37.1016" width="2.01575" height="1.85507" fill="black"/>
<rect x="89.7007" y="38.9565" width="2.01575" height="1.85507" fill="black"/>
<rect x="102.803" y="44.5217" width="2.01575" height="1.85507" fill="black"/>
<rect x="106.835" y="46.3767" width="2.01575" height="1.85507" fill="black"/>
<rect x="102.803" y="48.2319" width="2.01575" height="1.85507" fill="black"/>
<rect x="79.6221" y="34.3188" width="2.01575" height="1.85507" fill="black"/>
<rect x="89.7007" y="78.8406" width="2.01575" height="1.85507" fill="black"/>
<rect x="75.5906" y="37.1016" width="2.01575" height="1.85507" fill="black"/>
<rect x="71.5591" y="44.5217" width="2.01575" height="1.85507" fill="black"/>
<path d="M66.5197 46.3767H71.559V48.2318H68.5354V53.797H64.5039V51.9419H66.5197V46.3767Z" fill="black"/>
<rect x="71.5591" y="48.2319" width="2.01575" height="1.85507" fill="black"/>
<rect x="73.5747" y="57.5073" width="2.01575" height="3.71014" fill="black"/>
<rect x="73.5747" y="46.3767" width="2.01575" height="1.85507" fill="black"/>
<rect x="83.6536" y="51.9421" width="4.0315" height="1.85507" fill="black"/>
<path d="M75.5906 55.6522H79.6221V53.7971H81.6378V55.6522V57.5073H75.5906V55.6522Z" fill="black"/>
<rect x="81.6377" y="57.5073" width="2.01575" height="1.85507" fill="black"/>
<rect x="83.6536" y="59.3623" width="2.01575" height="1.85507" fill="black"/>
<rect x="58.4568" y="50.0869" width="2.01575" height="1.85507" fill="black"/>
<rect x="60.4724" y="51.9421" width="2.01575" height="1.85507" fill="black"/>
<rect x="71.5591" y="64" width="2.01575" height="1.85507" fill="black"/>
<rect x="75.5906" y="64" width="2.01575" height="1.85507" fill="black"/>
<rect x="18.1418" y="46.3767" width="2.01575" height="1.85507" fill="black"/>
<rect x="22.1733" y="51.9421" width="6.04724" height="1.85507" fill="black"/>
<path d="M30.2362 51.9421H36.2835V53.7972H32.252V57.5074H34.2677V59.3624V61.2175H32.252V67.7103H31.2441H30.2362V65.8552H28.2205V64.0001H30.2362V61.2175H32.252V59.3624H30.2362V55.6523H28.2205V53.7972H30.2362V51.9421Z" fill="black"/>
<rect x="44.3464" y="48.2319" width="2.01575" height="1.85507" fill="black"/>
<path d="M42.3307 35.2463H44.3464V38.9565H42.3307V37.1014H40.3149V35.2463H42.3307Z" fill="black"/>
<path d="M38.2993 48.2318V50.0869H34.2678V48.2318H36.2836V46.3767H38.2993V48.2318Z" fill="black"/>
<path d="M34.2677 42.6667H36.2834V46.3769H34.2677V44.5218H32.252V42.6667H34.2677Z" fill="black"/>
<rect x="46.3623" y="46.3767" width="2.01575" height="1.85507" fill="black"/>
<rect x="44.3464" y="38.9565" width="2.01575" height="1.85507" fill="black"/>
<rect x="30.2363" y="40.8115" width="2.01575" height="1.85507" fill="black"/>
<rect x="45.3542" y="21.3333" width="2.01575" height="1.85507" fill="black"/>
<rect x="47.3701" y="19.4783" width="2.01575" height="1.85507" fill="black"/>
<rect x="58.4568" y="5.56519" width="2.01575" height="1.85507" fill="black"/>
<rect x="69.5432" y="13.9131" width="2.01575" height="1.85507" fill="black"/>
<rect x="62.4883" y="15.7681" width="2.01575" height="1.85507" fill="black"/>
<rect x="64.5039" y="17.6233" width="2.01575" height="1.85507" fill="black"/>
<rect x="60.4724" y="21.3333" width="2.01575" height="1.85507" fill="black"/>
<rect x="54.4253" y="28.7537" width="4.0315" height="1.85507" fill="black"/>
<rect x="58.4568" y="23.1885" width="2.01575" height="5.56522" fill="black"/>
<rect x="56.4409" y="21.3333" width="2.01575" height="1.85507" fill="black"/>
<rect x="48.3779" y="28.7537" width="2.01575" height="1.85507" fill="black"/>
<rect x="58.4568" y="30.6086" width="2.01575" height="1.85507" fill="black"/>
<path d="M56.441 32.4637H58.4568V37.1014H60.4725V38.9565H64.504V42.6666H60.4725V40.8115H58.4568V38.9565H56.441V36.1739H52.4095V34.3188H50.3938V36.1739H46.3623V34.3188H50.3938V30.6086H52.4095V34.3188H56.441V32.4637Z" fill="black"/>
<rect x="62.4883" y="23.1885" width="2.01575" height="1.85507" fill="black"/>
<rect x="62.4883" y="19.4783" width="2.01575" height="1.85507" fill="black"/>
<rect x="60.4724" y="17.6233" width="2.01575" height="1.85507" fill="black"/>
<rect x="16.126" y="55.6521" width="2.01575" height="1.85507" fill="black"/>
<rect x="14.1104" y="65.855" width="2.01575" height="3.71014" fill="black"/>
<rect x="106.835" y="26.8984" width="2.01575" height="1.85507" fill="black"/>
<path d="M102.803 28.7537H104.819V30.6087H106.835V32.4638H108.85V38.9566H106.835V32.4638H102.803H97.7637V36.174H95.7479V34.3189H93.7322V32.4638H97.7637V30.6087H102.803V28.7537Z" fill="black"/>
<rect x="102.803" y="21.3333" width="2.01575" height="1.85507" fill="black"/>
<rect x="100.787" y="15.7681" width="2.01575" height="3.71014" fill="black"/>
<rect x="100.787" y="23.1885" width="2.01575" height="5.56522" fill="black"/>
<rect x="98.7717" y="19.4783" width="2.01575" height="3.71014" fill="black"/>
<path d="M83.6536 8.3479H89.7008V10.203V12.058H87.6851V10.203H83.6536V8.3479Z" fill="black"/>
<rect x="89.7007" y="6.49268" width="4.0315" height="1.85507" fill="black"/>
<path d="M42.3307 40.8115H44.3464V48.2318H42.3307H40.3149V46.3767H42.3307V40.8115Z" fill="black"/>
<rect x="89.7007" y="51.9421" width="4.0315" height="1.85507" fill="black"/>
<path d="M62.4883 53.7971H64.504V55.6522H66.5198V57.5073H64.504V59.3623H62.4883V53.7971Z" fill="black"/>
<rect x="60.4724" y="57.5073" width="2.01575" height="3.71014" fill="black"/>
<path d="M93.7322 53.7971H97.7637V55.6522V57.5073H99.7794V59.3623H95.7479V63.0725H93.7322V59.3623V57.5073H95.7479V55.6522H93.7322V53.7971Z" fill="black"/>
<rect x="91.7166" y="63.0725" width="2.01575" height="1.85507" fill="black"/>
<rect x="89.7007" y="64.9275" width="2.01575" height="1.85507" fill="black"/>
<path d="M97.7637 50.0869H102.803V51.942H104.819V53.7971H102.803H97.7637V50.0869Z" fill="black"/>
<rect x="50.3938" y="1.85498" width="2.01575" height="1.85507" fill="#F6899C"/>
<path d="M56.4409 1.85498H58.4567V3.71005H60.4724V5.56512H58.4567V9.27527H56.4409V1.85498Z" fill="#F6899C"/>
<rect x="48.3779" y="10.2029" width="2.01575" height="1.85507" fill="#E5ABAA"/>
<path d="M54.4253 10.2029H58.4568V12.058V13.913H56.441V12.058H54.4253V10.2029Z" fill="#F6899C"/>
<rect x="50.3938" y="15.7681" width="2.01575" height="1.85507" fill="#E79194"/>
<rect x="46.3623" y="15.7681" width="2.01575" height="1.85507" fill="#F09698"/>
<rect x="50.3938" y="12.0579" width="2.01575" height="1.85507" fill="#FAE2D7"/>
<rect x="46.3623" y="12.0579" width="2.01575" height="1.85507" fill="#E79D9A"/>
<path d="M40.3151 12.0579H42.3308V24.1158H40.3151V17.6231H38.2993V15.768H40.3151V12.0579Z" fill="#DB8E93"/>
<path d="M24.189 23.1885H26.2047V25.0435H28.2205V28.7537H26.2047H24.189V23.1885Z" fill="#F2A1A8"/>
<rect x="28.2205" y="28.7537" width="2.01575" height="1.85507" fill="#E28693"/>
<path d="M18.1418 32.4639H20.1576V34.3189H18.1418V32.4639Z" fill="#FA9F8C"/>
<path d="M14.1104 33.3914H16.1261V35.2464H14.1104V33.3914Z" fill="#F18996"/>
<path d="M16.126 28.7537H20.1575V30.6087H16.126V28.7537Z" fill="#F18996"/>
<rect x="20.1575" y="30.6086" width="4.0315" height="1.85507" fill="#F18996"/>
<rect x="22.1733" y="35.2463" width="2.01575" height="1.85507" fill="#F98B82"/>
<path d="M20.1575 38.9565H22.1732V40.8116H24.189V42.6667H22.1732H20.1575V38.9565Z" fill="#FF8D97"/>
<path d="M16.126 40.8115H18.1417V42.6666H20.1575V44.5217H18.1417H16.126V40.8115Z" fill="#FF8D97"/>
<path d="M24.189 37.1016H28.2205V40.8117V42.6668H26.2047V40.8117H24.189V37.1016Z" fill="#FF8D97"/>
<rect x="32.252" y="32.4639" width="2.01575" height="1.85507" fill="#FD9596"/>
<rect x="30.2363" y="35.2463" width="2.01575" height="1.85507" fill="#F9B4B7"/>
<rect x="36.2834" y="34.3188" width="2.01575" height="1.85507" fill="#FBCFC9"/>
<rect x="34.2678" y="30.6086" width="2.01575" height="1.85507" fill="#FD9596"/>
<path d="M36.2834 32.4639H40.3149V37.1015H42.3307V38.9566H44.3464V40.8117H42.3307V46.3769H40.3149V48.232H42.3307V50.0871V51.9421H40.3149V50.0871H38.2992V46.3769H36.2834V40.8117H38.2992V34.3189H36.2834V32.4639Z" fill="#F29398"/>
<rect x="36.2834" y="28.7537" width="2.01575" height="1.85507" fill="#FD9596"/>
<rect x="28.2205" y="23.1885" width="2.01575" height="1.85507" fill="#E28693"/>
<path d="M32.252 23.1885H34.2677V25.0435H36.2834H38.2992V23.6522H40.3149V26.8986H36.2834V28.7537H34.2677H32.252V23.1885Z" fill="#FAB8A8"/>
<rect x="2.01587" y="51.9421" width="2.01575" height="1.85507" fill="#F99097"/>
<path d="M6.04736 48.2319H16.1261V50.087V53.7972H14.1104V50.087H6.04736V48.2319Z" fill="#FF8D97"/>
<rect x="10.0789" y="46.3767" width="8.06299" height="1.85507" fill="#FF8D97"/>
<rect x="14.1104" y="44.5217" width="8.06299" height="1.85507" fill="#FF8D97"/>
<rect x="10.0789" y="51.9421" width="2.01575" height="1.85507" fill="#FCC4C3"/>
<rect x="12.0945" y="55.6521" width="2.01575" height="3.71014" fill="#FCC4C3"/>
<rect x="8.06299" y="61.2173" width="2.01575" height="3.71014" fill="#FCC4C3"/>
<rect x="10.0789" y="42.6667" width="2.01575" height="1.85507" fill="#FF8D97"/>
<rect x="6.04736" y="53.7971" width="2.01575" height="1.85507" fill="#F99097"/>
<rect x="12.0945" y="53.7971" width="2.01575" height="1.85507" fill="#F99097"/>
<path d="M8.06299 59.3623H14.1102V61.2174H16.126V63.0724H10.0787V61.2174H8.06299V59.3623Z" fill="#F99097"/>
<rect x="6.04736" y="61.2173" width="2.01575" height="1.85507" fill="#F99097"/>
<path d="M16.1261 59.3623H18.1418V57.5072H22.1733V59.3623H20.1576V61.2173H22.1733V59.3623H24.1891V61.2173H28.2206V59.3623H30.2363V64H28.2206V67.7101V69.5652H26.2048V67.7101H24.1891V69.5652H22.1733V71.4202H24.1891V73.2753H22.1733V75.1304H24.1891V76.9855H26.2048V75.1304H28.2206V73.2753H30.2363V71.4202H32.2521V67.7101H34.2678V69.5652H40.3151V66.7826H44.3466V64.9275H40.3151V63.0724H44.3466V61.2173H46.3623H51.4017V57.5072H52.4096V55.6521H54.4253V53.7971H51.4017V51.942H49.3859V50.0869H54.4253V51.942H56.4411V53.7971H58.4568V55.6521V57.5072H54.4253V62.1449H56.4411V65.855V67.7101H54.4253V65.855H50.3938V64H48.3781V65.855H46.3623V67.7101H48.3781V65.855H50.3938V69.5652H48.3781V71.4202H50.3938V75.1304H48.3781V73.2753H46.3623V71.4202H44.3466V73.2753H42.3308V71.4202H40.3151V73.2753H38.2993V71.4202H36.2836V73.2753H38.2993V75.1304H36.2836V76.9855H38.2993V75.1304H40.3151V73.2753H42.3308V75.1304V76.9855H44.3466V78.8405H42.3308V80.6956H40.3151V82.5507H34.2678V75.1304H32.2521V78.8405H30.2363V80.6956V82.5507H26.2048V80.6956H22.1733V76.9855H20.1576V75.1304H18.1418V76.9855H16.1261V75.1304H14.1104V73.2753H20.1576V69.5652H18.1418V67.7101H22.1733V65.855H24.1891V63.0724H20.1576H18.1418V61.2173H16.1261V59.3623Z" fill="#F99097"/>
<path d="M2.01587 63.0725H6.04737V64.9276V67.7102H4.03162V64.9276H2.01587V63.0725Z" fill="#F99097"/>
<rect x="62.4883" y="5.56519" width="5.03937" height="1.85507" fill="#F6899C"/>
<rect x="64.5039" y="6.49268" width="5.03937" height="1.85507" fill="#F6899C"/>
<path d="M64.504 8.3479H69.5434H71.5591V10.203H73.5749V12.058H71.5591V13.9131H69.5434V15.7682H64.504V12.058H62.4883V10.203H64.504V8.3479Z" fill="#F88992"/>
<path d="M75.5906 10.2029H77.6063H79.6221V12.058H77.6063V13.913H75.5906V10.2029Z" fill="#F6899C"/>
<rect x="77.6062" y="13.9131" width="2.01575" height="1.85507" fill="#FEAFA0"/>
<rect x="71.5591" y="13.9131" width="2.01575" height="1.85507" fill="#F79B94"/>
<rect x="83.6536" y="12.0579" width="2.01575" height="1.85507" fill="#EAA198"/>
<rect x="94.7402" y="8.3479" width="2.01575" height="1.85507" fill="#F6899C"/>
<rect x="91.7166" y="15.7681" width="2.01575" height="1.85507" fill="#ED8488"/>
<rect x="81.6377" y="17.6233" width="2.01575" height="1.85507" fill="#F18F90"/>
<rect x="91.7166" y="23.1885" width="2.01575" height="1.85507" fill="#F18F90"/>
<rect x="89.7007" y="13.9131" width="2.01575" height="1.85507" fill="#FFB6BA"/>
<rect x="85.6692" y="15.7681" width="2.01575" height="1.85507" fill="#FFB6BA"/>
<rect x="73.5747" y="15.7681" width="2.01575" height="1.85507" fill="#F79B94"/>
<rect x="89.7007" y="8.3479" width="5.03937" height="3.71014" fill="#F7CCC3"/>
<rect x="54.4253" y="17.6233" width="4.0315" height="1.85507" fill="#F6B2AB"/>
<rect x="52.4094" y="19.4783" width="4.0315" height="1.85507" fill="#F6899C"/>
<rect x="62.4883" y="17.6233" width="2.01575" height="1.85507" fill="#F88992"/>
<rect x="71.5591" y="15.7681" width="2.01575" height="1.85507" fill="#FDCBC2"/>
<rect x="66.5198" y="23.1885" width="2.01575" height="1.85507" fill="#FF8F98"/>
<rect x="58.4568" y="28.7537" width="2.01575" height="1.85507" fill="#F9B3A7"/>
<path d="M60.4724 30.6086H62.4882V32.4637H64.5039V38.9565H62.4882H60.4724V37.1014H62.4882V35.2463H60.4724V30.6086Z" fill="#FA9092"/>
<rect x="64.5039" y="34.3188" width="2.01575" height="4.63768" fill="#FDAEA9"/>
<rect x="70.5513" y="28.7537" width="2.01575" height="1.85507" fill="#F3A3A6"/>
<rect x="68.5354" y="26.8984" width="2.01575" height="1.85507" fill="#FFC4C0"/>
<rect x="62.4883" y="28.7537" width="2.01575" height="1.85507" fill="#FFC7CD"/>
<rect x="58.4568" y="35.2463" width="2.01575" height="1.85507" fill="#FA9092"/>
<rect x="75.5906" y="17.6233" width="2.01575" height="1.85507" fill="#F8CCC8"/>
<rect x="74.5828" y="21.3333" width="3.02362" height="1.85507" fill="#FA888D"/>
<rect x="77.6062" y="19.4783" width="2.01575" height="3.71014" fill="#FC999E"/>
<rect x="72.5669" y="19.4783" width="2.01575" height="3.71014" fill="#FFC1BD"/>
<rect x="68.5354" y="21.3333" width="2.01575" height="1.85507" fill="#FF8F98"/>
<rect x="70.5513" y="19.4783" width="2.01575" height="1.85507" fill="#FF8F98"/>
<path d="M58.4568 19.4783H62.4883V21.3333H60.4725V23.1884H58.4568V21.3333V19.4783Z" fill="#F88992"/>
<path d="M66.5198 17.6231H68.5355V15.7681H70.5513V17.6231V19.4782H66.5198V17.6231Z" fill="#FF8F98"/>
<rect x="64.5039" y="15.7681" width="4.0315" height="1.85507" fill="#F8E1C9"/>
<rect x="64.5039" y="19.4783" width="6.04724" height="1.85507" fill="#FEDBD5"/>
<rect x="70.5513" y="23.1885" width="4.0315" height="3.71014" fill="#FF8F98"/>
<rect x="60.4724" y="23.1885" width="2.01575" height="3.71014" fill="#F88992"/>
<rect x="50.3938" y="34.3188" width="2.01575" height="3.71014" fill="#F79E96"/>
<rect x="44.3464" y="36.1738" width="6.04724" height="1.85507" fill="#FFC0BD"/>
<rect x="44.3464" y="42.6667" width="2.01575" height="1.85507" fill="#FF8789"/>
<rect x="58.4568" y="40.8115" width="2.01575" height="1.85507" fill="#E0A2A3"/>
<rect x="56.4409" y="42.6667" width="2.01575" height="1.85507" fill="#F1C9B9"/>
<rect x="56.4409" y="46.3767" width="2.01575" height="1.85507" fill="#F1C9C1"/>
<rect x="60.4724" y="42.6667" width="2.01575" height="3.71014" fill="#EBA7A9"/>
<rect x="52.4094" y="40.8115" width="2.01575" height="1.85507" fill="#E0A2A3"/>
<rect x="46.3623" y="44.5217" width="2.01575" height="1.85507" fill="#FF8789"/>
<rect x="54.4253" y="38.9565" width="4.0315" height="1.85507" fill="#E0A2A3"/>
<path d="M54.4253 21.3333H56.441V23.1883H58.4568V28.7535H54.4253V30.6086H58.4568V32.4637H56.441V34.3188H52.4095V30.6086H50.3938V28.7535H53.4174V25.9709H54.4253V21.3333Z" fill="#F6899C"/>
<path d="M49.3857 25.971V24.116H51.4015V25.971H53.4172V28.7536H49.3857V25.971Z" fill="#FFC9C2"/>
<path d="M42.3308 28.7535H46.3623V26.8984H48.3781V28.7535V30.6086H50.3938V34.3187H46.3623V36.1738H44.3466V32.4637H46.3623V30.6086H42.3308V28.7535Z" fill="#FE8490"/>
<path d="M40.3149 32.4637V30.6086H42.3307H46.3622V32.4637H44.3464V35.2463H40.3149V32.4637Z" fill="#FFB4A7"/>
<path d="M28.2205 37.1016H34.2677V38.9566H36.2835V42.6668H32.252V40.8117H30.2362V42.6668H32.252V44.5219H30.2362V46.3769H28.2205V40.8117V37.1016Z" fill="#F9AD9F"/>
<rect x="12.0945" y="42.6667" width="4.0315" height="1.85507" fill="#F4DBBB"/>
<path d="M22.1733 46.3768H24.1891V44.5217H26.2048V46.3768H28.2206V48.2319H22.1733V46.3768Z" fill="#FDB5B6"/>
<path d="M30.2363 50.087H32.2521V48.2319H34.2678V50.087H40.3151V51.9421V55.6522H34.2678V53.7972H36.2836V51.9421H30.2363V50.087Z" fill="#F9869D"/>
<path d="M20.1575 48.2319H24.189H26.2047V50.087H24.189V51.9421H20.1575V48.2319Z" fill="#FF8795"/>
<rect x="26.2048" y="50.0869" width="2.01575" height="1.85507" fill="#E78C95"/>
<rect x="24.189" y="55.6521" width="2.01575" height="1.85507" fill="#DE727F"/>
<rect x="26.2048" y="57.5073" width="4.0315" height="1.85507" fill="#DE727F"/>
<rect x="32.252" y="44.5217" width="2.01575" height="1.85507" fill="#F9869D"/>
<rect x="34.2678" y="46.3767" width="2.01575" height="1.85507" fill="#F9869D"/>
<rect x="28.2205" y="51.9421" width="2.01575" height="1.85507" fill="#FDB5B2"/>
<rect x="30.2363" y="59.3623" width="2.01575" height="1.85507" fill="#FDB5B2"/>
<rect x="32.252" y="61.2173" width="2.01575" height="3.71014" fill="#FDB5B2"/>
<rect x="30.2363" y="46.3767" width="2.01575" height="1.85507" fill="#FF877E"/>
<path d="M16.1261 50.0869H20.1576V51.942H22.1733V53.7971H20.1576V55.6521H16.1261V59.3623H14.1104V53.7971H16.1261V50.0869Z" fill="#FEB5AF"/>
<path d="M20.1575 53.7971H28.2205V55.6522H30.2362V57.5073H26.2047V55.6522H20.1575V53.7971Z" fill="#F49C9F"/>
<path d="M22.1733 57.5073H26.2048V59.3624V61.2175H24.1891V59.3624H22.1733V57.5073Z" fill="#FEB5AF"/>
<path d="M26.2048 69.5653H28.2206V67.7102H32.2521V69.5653V71.4203H26.2048V69.5653Z" fill="#FFBDB1"/>
<rect x="24.189" y="69.5652" width="2.01575" height="1.85507" fill="#FF8088"/>
<rect x="24.189" y="73.2754" width="2.01575" height="1.85507" fill="#FF8088"/>
<rect x="26.2048" y="71.4202" width="2.01575" height="1.85507" fill="#FF8088"/>
<rect x="22.1733" y="69.5652" width="2.01575" height="1.85507" fill="#FFBDB1"/>
<path d="M2.01587 67.7102H4.03162V69.5653H6.04737V71.4203H4.03162H2.01587V67.7102Z" fill="#EFA0A2"/>
<path d="M6.04736 67.7102H10.0789V75.1305H12.0946H16.1261V76.9856H12.0946V78.8406H8.06311V73.2754H6.04736V67.7102Z" fill="#FEBAAD"/>
<rect x="16.126" y="63.0725" width="2.01575" height="1.85507" fill="#F99097"/>
<path d="M10.0789 69.5651H12.0946V65.855H14.1104V71.4202H12.0946V75.1303H10.0789V69.5651Z" fill="#F99097"/>
<path d="M10.0789 78.8407H12.0946V76.9856H16.1261V80.6957H10.0789V78.8407Z" fill="#FB8498"/>
<rect x="32.252" y="78.8406" width="2.01575" height="1.85507" fill="#FEB8AC"/>
<rect x="34.2678" y="61.2173" width="2.01575" height="1.85507" fill="#F99097"/>
<rect x="38.2993" y="64.9275" width="2.01575" height="1.85507" fill="#F99097"/>
<path d="M36.2834 63.0725H38.2992V64.9276H36.2834V63.0725Z" fill="#F99097"/>
<rect x="38.2993" y="59.3623" width="2.01575" height="1.85507" fill="#F99097"/>
<rect x="42.3308" y="55.6521" width="2.01575" height="1.85507" fill="#F99097"/>
<rect x="46.3623" y="53.7971" width="2.01575" height="1.85507" fill="#F99097"/>
<rect x="56.4409" y="60.2898" width="2.01575" height="1.85507" fill="#F99097"/>
<rect x="56.4409" y="75.1304" width="2.01575" height="1.85507" fill="black"/>
<rect x="56.4409" y="73.2754" width="2.01575" height="1.85507" fill="black"/>
<rect x="54.4253" y="73.2754" width="2.01575" height="1.85507" fill="black"/>
<rect x="52.4094" y="71.4202" width="2.01575" height="1.85507" fill="black"/>
<rect x="66.5198" y="61.2173" width="2.01575" height="1.85507" fill="#FFB1B0"/>
<rect x="60.4724" y="53.7971" width="2.01575" height="3.71014" fill="#F99097"/>
<path d="M62.4882 50.0869H64.5039V48.2318H62.4882V46.3768H64.5039V42.6666H66.5197V40.8116H64.5039V38.9565H66.5197V35.2463H69.5433V38.9565V42.6666V44.5217H71.559V46.3768H66.5197V50.0869V51.942H64.5039V53.7971H62.4882V51.942H60.4724V50.0869H62.4882Z" fill="#F99097"/>
<rect x="56.4409" y="67.7102" width="2.01575" height="1.85507" fill="#F99097"/>
<rect x="60.4724" y="61.2173" width="4.0315" height="1.85507" fill="#F99097"/>
<rect x="64.5039" y="59.3623" width="4.0315" height="1.85507" fill="#F99097"/>
<path d="M66.5198 63.0725H71.5591V65.8551H77.6064V67.7102H71.5591H66.5198V63.0725Z" fill="#F99097"/>
<path d="M60.4724 69.5653V67.7102H62.4882V69.5653H64.5039V71.4203H60.4724V69.5653Z" fill="#F99097"/>
<rect x="81.6377" y="48.2319" width="4.0315" height="1.85507" fill="#F99097"/>
<rect x="47.3701" y="57.5073" width="4.0315" height="1.85507" fill="#F9B1B5"/>
<rect x="44.3464" y="51.9421" width="2.01575" height="1.85507" fill="#F9B1B5"/>
<rect x="40.3149" y="57.5073" width="2.01575" height="1.85507" fill="#F99097"/>
<rect x="56.4409" y="51.9421" width="2.01575" height="1.85507" fill="#FCD2C4"/>
<rect x="58.4568" y="51.9421" width="2.01575" height="13.913" fill="#FEABA7"/>
<rect x="64.5039" y="40.8115" width="2.01575" height="1.85507" fill="#F4E1D3"/>
<rect x="69.5432" y="35.2463" width="2.01575" height="3.71014" fill="#F8A6AA"/>
<rect x="69.5432" y="33.3914" width="2.01575" height="1.85507" fill="#F99097"/>
<rect x="71.5591" y="35.2463" width="2.01575" height="1.85507" fill="#F99097"/>
<rect x="73.5747" y="37.1016" width="2.01575" height="1.85507" fill="#F99097"/>
<rect x="71.5591" y="46.3767" width="2.01575" height="1.85507" fill="#F99097"/>
<rect x="77.6062" y="51.9421" width="2.01575" height="1.85507" fill="#F99097"/>
<rect x="77.6062" y="51.9421" width="2.01575" height="1.85507" fill="#F99097"/>
<rect x="71.5591" y="61.2173" width="2.01575" height="1.85507" fill="#F99097"/>
<rect x="79.6221" y="42.6667" width="2.01575" height="1.85507" fill="#F99097"/>
<rect x="81.6377" y="38.9565" width="2.01575" height="1.85507" fill="#F99097"/>
<rect x="81.6377" y="34.3188" width="2.01575" height="1.85507" fill="#F99097"/>
<path d="M73.5747 30.6087H75.5905V28.7537H77.6062V30.6087V32.4638H73.5747V30.6087Z" fill="#F99097"/>
<rect x="87.6851" y="26.8984" width="2.01575" height="3.71014" fill="#F99097"/>
<rect x="83.6536" y="32.4639" width="2.01575" height="1.85507" fill="#EB677C"/>
<path d="M79.6221 28.7536H81.6378V25.9709H83.6536V28.7536V30.6086H87.6851V32.4637H83.6536H81.6378V34.3188H79.6221V28.7536Z" fill="#F99097"/>
<rect x="83.6536" y="40.8115" width="2.01575" height="5.56522" fill="#F99097"/>
<path d="M70.5513 50.0869H73.5749V48.2319H75.5906V46.3768H77.6064V44.5217H79.6221V50.0869H77.6064V51.942H70.5513V50.0869Z" fill="#F99097"/>
<path d="M64.5039 53.7972H68.5354V51.9421H70.5512V55.6523H72.5669V57.5074V59.3624H70.5512V57.5074H66.5197V55.6523H64.5039V53.7972Z" fill="#F99097"/>
<rect x="68.5354" y="50.0869" width="2.01575" height="1.85507" fill="#ED6978"/>
<path d="M75.5906 38.9565H79.6221V40.8116H77.6063V42.6667H75.5906V44.5218V46.3768H73.5748V44.5218H71.5591V42.6667H73.5748V40.8116H75.5906V38.9565Z" fill="#F99097"/>
<rect x="77.6062" y="28.7537" width="2.01575" height="3.71014" fill="#FFC4B6"/>
<rect x="77.6062" y="26.8984" width="2.01575" height="1.85507" fill="#EDB1B1"/>
<rect x="75.5906" y="32.4639" width="2.01575" height="1.85507" fill="#FFAEBC"/>
<rect x="83.6536" y="24.116" width="2.01575" height="1.85507" fill="#EDB1B1"/>
<path d="M87.6851 18.311H89.7008H91.7166V20.1661H93.7323V18.311H96.7559V13.6733H98.7717V15.5284H100.787V19.2386H98.7717V22.9487H100.787V28.5139H102.803V30.6086H100.787H97.7638V32.4636H93.7323V34.3187H95.7481V36.1738H97.7638V38.9564H93.7323V37.1013H91.7166V38.9564H89.7008V34.3187H87.6851V32.4636H89.7008V30.6086H91.7166V28.7535H95.7481V26.8984H97.7638V25.0434H95.7481V23.1883H93.7323V22.0212H89.7008V23.8762H87.6851V18.311Z" fill="#E88C9B"/>
<path d="M93.7322 25.0435H95.7479H97.7637V26.8985H95.7479V28.7536H93.7322V25.0435Z" fill="#F7C7BE"/>
<path d="M85.6693 32.4639H87.6851V34.3189H89.7008V38.0291H87.6851V40.8117H85.6693H83.6536V34.3189H85.6693V32.4639Z" fill="#FFB3AD"/>
<path d="M85.6692 42.6667H89.7007V46.3769H87.6849V48.232H85.6692V46.3769V42.6667Z" fill="#FFB4AF"/>
<rect x="87.6851" y="46.3767" width="2.01575" height="1.85507" fill="#FFD7CF"/>
<rect x="87.6851" y="48.2319" width="2.01575" height="5.56522" fill="#F67C89"/>
<rect x="89.7007" y="46.3767" width="2.01575" height="1.85507" fill="#F67C89"/>
<rect x="89.7007" y="48.2319" width="4.0315" height="3.71014" fill="#FFC1B1"/>
<rect x="104.819" y="37.1016" width="2.01575" height="1.85507" fill="#ECC5C0"/>
<rect x="93.7322" y="42.6667" width="2.01575" height="1.85507" fill="#FFA1A0"/>
<rect x="95.748" y="46.3767" width="2.01575" height="1.85507" fill="#FFB4AF"/>
<path d="M93.7322 48.2319H95.7479V50.087H97.7637V53.7972H95.7479H93.7322V48.2319Z" fill="#F48895"/>
<rect x="91.7166" y="40.8115" width="2.01575" height="1.85507" fill="#F4C0B2"/>
<path d="M99.7795 32.4639H106.835V36.174H104.819V34.3189H99.7795V32.4639Z" fill="#F48B92"/>
<path d="M99.7795 32.4639H106.835V37.1015H104.819V34.3189H99.7795V32.4639Z" fill="#F48B92"/>
<rect x="100.787" y="37.1016" width="4.0315" height="3.71014" fill="#F9BDB2"/>
<rect x="102.803" y="42.6667" width="2.01575" height="1.85507" fill="#F9BDB2"/>
<path d="M104.819 38.9565H106.835V40.8116H104.819V38.9565Z" fill="#FF8492"/>
<path d="M110.866 36.1738H112.882V38.0289H110.866V36.1738Z" fill="#F1B9BA"/>
<rect x="106.835" y="38.9565" width="2.01575" height="1.85507" fill="#F8E0DC"/>
<path d="M98.7716 40.8116H96.7559V38.9565H98.7716H100.787V40.8116H104.819V42.6667H98.7716V40.8116Z" fill="#FFA0A1"/>
<path d="M97.7637 48.2318H100.787V46.3767H106.835V48.2318V53.797H104.819V51.9419H102.803V50.0869H104.819V48.2318H102.803V50.0869H97.7637V48.2318Z" fill="#FE8893"/>
<path d="M106.835 48.2319H108.85V46.3768H110.866V44.5217H113.89V48.2319H110.866V50.0869V51.942H108.85V50.0869H106.835V48.2319Z" fill="#FBBCB3"/>
<path d="M110.866 48.2319H111.874H113.89V50.087H111.874V53.7972H110.866V48.2319Z" fill="#EF839A"/>
<path d="M112.882 40.8117V38.0291H116.913H117.921V44.5218V46.3769H115.905V48.2319H113.89V44.5218H112.882H110.866V46.3769H108.85V44.5218V42.6667H110.866V40.8117H112.882Z" fill="#FF8B96"/>
<rect x="108.85" y="53.7971" width="2.01575" height="3.71014" fill="#FC7F93"/>
<rect x="104.819" y="28.7537" width="2.01575" height="1.85507" fill="#F48B92"/>
<path d="M106.835 30.6086H110.866V32.4637H112.882V34.3188H110.866V36.1739H108.85V32.4637H106.835V30.6086Z" fill="#F48B92"/>
<rect x="106.835" y="28.7537" width="2.01575" height="1.85507" fill="#FFC1BF"/>
<rect x="117.921" y="37.1016" width="2.01575" height="5.56522" fill="#F79B9E"/>
<rect x="115.906" y="36.1738" width="2.01575" height="1.85507" fill="#FFC0CF"/>
<path d="M115.905 48.2319H117.921V51.9421H115.905H113.89V50.087H115.905V48.2319Z" fill="#FF8B96"/>
<path d="M97.7638 53.7971H102.803V57.5073V59.3623H106.835V57.5073H108.85V59.3623H111.874V61.3044H106.835V65.8551H104.819V63.0725H102.803V61.2174H97.7638V63.0725H95.748V59.3623H99.7795V57.5073H97.7638V53.7971Z" fill="#F68D9B"/>
<rect x="104.819" y="55.6521" width="2.01575" height="1.85507" fill="#F68D9B"/>
<path d="M102.803 53.7971H104.819H108.85V55.6522H104.819V57.5073H102.803V53.7971Z" fill="#FCB3AA"/>
<rect x="108.85" y="64" width="2.01575" height="1.85507" fill="#FEBCB0"/>
<rect x="100.787" y="65.855" width="4.0315" height="1.85507" fill="#F09A93"/>
<rect x="100.787" y="67.7102" width="2.01575" height="3.71014" fill="#FEBCB0"/>
<rect x="98.7717" y="67.7102" width="2.01575" height="1.85507" fill="#FF8C98"/>
<path d="M98.7717 69.5653H100.787V71.4203H102.803V67.7102H104.819V71.4203V73.2754H100.787H98.7717V69.5653Z" fill="#FFCEC5"/>
<path d="M91.7166 64.9276H93.7323V63.0725H95.748V66.7827V67.7102H98.7717V69.5653H95.748H93.7323V66.7827H91.7166V64.9276Z" fill="#FFC8B9"/>
<rect x="81.6377" y="53.7971" width="2.01575" height="3.71014" fill="#F97F8A"/>
<rect x="83.6536" y="55.6521" width="2.01575" height="1.85507" fill="#F3CEB4"/>
<rect x="77.6062" y="65.855" width="4.0315" height="5.56522" fill="#F3CEB4"/>
<path d="M83.6534 53.7971H89.7007V55.6522H95.7479V57.5073H93.7322V63.0725H91.7164V64.9276H90.7086H89.7007V66.7826H93.7322V69.5652H98.7716V75.1304H100.787V78.8406H98.7716V80.6957H100.787V84.4058H89.7007V82.5507H85.6692V80.6957H83.6534V78.8406H85.6692V71.4203H83.6534V73.2754H81.6377V75.1304H83.6534V76.9855V78.8406H81.6377V76.9855H79.6219V73.2754H77.6062V71.4203H81.6377V67.7102H83.6534V69.5652H85.6692V67.7102V65.8551H87.6849V64H89.7007V63.0725V62.1449H87.6849V59.3623H91.7164V57.5073H89.7007V59.3623H85.6692V55.6522H83.6534V53.7971Z" fill="#F5919D"/>
<path d="M89.7007 73.2752H91.7164V71.4202H93.7322V73.2752V75.1303H89.7007V73.2752Z" fill="#FFC9B0"/>
<rect x="89.7007" y="66.7827" width="2.01575" height="3.71014" fill="#FF9A9E"/>
<rect x="91.7166" y="76.9856" width="2.01575" height="1.85507" fill="#FFC9B0"/>
<rect x="93.7322" y="78.8406" width="2.01575" height="1.85507" fill="#FFC9B0"/>
<rect x="77.6062" y="64" width="2.01575" height="1.85507" fill="#FFE3D8"/>
<rect x="58.4568" y="67.7102" width="2.01575" height="1.85507" fill="#FFE3D8"/>
<path d="M75.5906 57.5073H81.6378V59.3624H83.6536V61.2175H85.6693V64.0001H81.6378V65.8551H79.6221V64.0001H75.5906V57.5073Z" fill="#FD9CA5"/>
<rect x="77.6062" y="59.3623" width="2.01575" height="1.85507" fill="#FFE3D8"/>
<path d="M64.5039 67.7102H75.5905V69.5653H77.6063V71.4203H75.5905V73.2754H69.5433V75.1305H71.559V73.2754H73.5748V78.8406H71.559V76.9856H69.5433V78.8406H67.5275V73.2754H65.5118V71.4203H64.5039V67.7102Z" fill="#FF8188"/>
<rect x="64.5039" y="69.5652" width="2.01575" height="1.85507" fill="#FFE3D8"/>
<rect x="69.5432" y="78.8406" width="2.01575" height="1.85507" fill="#FFE3D8"/>
<path d="M100.787 73.2755H104.819V75.1306H106.835V73.2755H104.819V69.5653H106.835V67.7103H108.85V69.5653H110.866V71.4204H113.89V69.5653L110.866 69.5653V65.8552H112.882V64.0001H117.921V65.8552L115.905 65.8552V67.7103H119.937V65.8552H121.953V64.0001H117.921H115.905V61.2175V57.5073H117.921V59.3624H118.929H119.937V61.2175H121.953H123.968V65.8552L125.984 65.8552V71.4204H123.968V69.5653L121.953 69.5653V75.1306H119.937V76.9856H117.921V75.1306H114.898V76.9856H110.866V75.1306H108.85V76.9856H102.803V75.1306H100.787V73.2755Z" fill="#FB8993"/>
<rect x="117.921" y="65.855" width="2.01575" height="1.85507" fill="#FFA79F"/>
<rect x="117.921" y="64" width="2.01575" height="1.85507" fill="#E56773"/>
<rect x="119.937" y="64" width="2.01575" height="1.85507" fill="#FFCFBF"/>
<rect x="115.906" y="65.855" width="2.01575" height="1.85507" fill="#F3D3BC"/>
<path d="M48.3779 42.6667H50.3937V44.5218H54.4252V46.3769H56.4409V48.232H60.4724V50.087H58.4567V51.9421H56.4409V50.087H54.4252V48.232H48.3779V42.6667Z" fill="#F99097"/>
</svg>
