<svg width="32" height="32" viewBox="0 0 32 32" fill="none" xmlns="http://www.w3.org/2000/svg">
<rect x="11.7275" y="4.65455" width="1.74545" height="4.65455" fill="black"/>
<rect x="11.7275" y="4.65455" width="1.74545" height="4.65455" fill="black"/>
<rect x="11.7275" y="4.65455" width="1.74545" height="4.65455" fill="black"/>
<rect x="11.7275" y="4.65455" width="1.74545" height="4.65455" fill="black"/>
<rect x="11.7275" y="4.65455" width="1.74545" height="4.65455" fill="black"/>
<rect x="13.4722" y="2.32728" width="1.16364" height="2.32727" fill="black"/>
<rect x="13.4722" y="2.32728" width="1.16364" height="2.32727" fill="black"/>
<rect x="13.4722" y="2.32728" width="1.16364" height="2.32727" fill="black"/>
<rect x="13.4722" y="2.32728" width="1.16364" height="2.32727" fill="black"/>
<rect x="13.4722" y="2.32728" width="1.16364" height="2.32727" fill="black"/>
<rect x="14.6367" width="1.74545" height="3.49091" fill="black"/>
<rect x="14.6367" width="1.74545" height="3.49091" fill="black"/>
<rect x="14.6367" width="1.74545" height="3.49091" fill="black"/>
<rect x="14.6367" width="1.74545" height="3.49091" fill="black"/>
<rect x="14.6367" width="1.74545" height="3.49091" fill="black"/>
<rect x="4.16357" y="12.8" width="1.74545" height="1.74545" fill="black"/>
<rect x="4.16357" y="12.8" width="1.74545" height="1.74545" fill="black"/>
<rect x="4.16357" y="12.8" width="1.74545" height="1.74545" fill="black"/>
<rect x="4.16357" y="12.8" width="1.74545" height="1.74545" fill="black"/>
<rect x="4.16357" y="12.8" width="1.74545" height="1.74545" fill="black"/>
<rect x="4.74512" y="25.0182" width="1.74545" height="1.74545" fill="black"/>
<rect x="4.74512" y="25.0182" width="1.74545" height="1.74545" fill="black"/>
<rect x="4.74512" y="25.0182" width="1.74545" height="1.74545" fill="black"/>
<rect x="4.74512" y="25.0182" width="1.74545" height="1.74545" fill="black"/>
<rect x="4.74512" y="25.0182" width="1.74545" height="1.74545" fill="black"/>
<rect x="24.5273" y="25.0182" width="1.74545" height="1.74545" fill="black"/>
<rect x="24.5273" y="25.0182" width="1.74545" height="1.74545" fill="black"/>
<rect x="24.5273" y="25.0182" width="1.74545" height="1.74545" fill="black"/>
<rect x="24.5273" y="25.0182" width="1.74545" height="1.74545" fill="black"/>
<rect x="24.5273" y="25.0182" width="1.74545" height="1.74545" fill="black"/>
<rect x="6.49072" y="26.7636" width="1.74545" height="1.74545" fill="black"/>
<rect x="6.49072" y="26.7636" width="1.74545" height="1.74545" fill="black"/>
<rect x="6.49072" y="26.7636" width="1.74545" height="1.74545" fill="black"/>
<rect x="6.49072" y="26.7636" width="1.74545" height="1.74545" fill="black"/>
<rect x="6.49072" y="26.7636" width="1.74545" height="1.74545" fill="black"/>
<rect x="22.7812" y="26.7636" width="1.74545" height="1.74545" fill="black"/>
<rect x="22.7812" y="26.7636" width="1.74545" height="1.74545" fill="black"/>
<rect x="22.7812" y="26.7636" width="1.74545" height="1.74545" fill="black"/>
<rect x="22.7812" y="26.7636" width="1.74545" height="1.74545" fill="black"/>
<rect x="22.7812" y="26.7636" width="1.74545" height="1.74545" fill="black"/>
<rect x="8.23633" y="28.5091" width="4.07273" height="1.74545" fill="black"/>
<rect x="8.23633" y="28.5091" width="4.07273" height="1.74545" fill="black"/>
<rect x="8.23633" y="28.5091" width="4.07273" height="1.74545" fill="black"/>
<rect x="8.23633" y="28.5091" width="4.07273" height="1.74545" fill="black"/>
<rect x="8.23633" y="28.5091" width="4.07273" height="1.74545" fill="black"/>
<rect x="18.7095" y="28.5091" width="4.07273" height="1.74545" fill="black"/>
<rect x="18.7095" y="28.5091" width="4.07273" height="1.74545" fill="black"/>
<rect x="18.7095" y="28.5091" width="4.07273" height="1.74545" fill="black"/>
<rect x="18.7095" y="28.5091" width="4.07273" height="1.74545" fill="black"/>
<rect x="18.7095" y="28.5091" width="4.07273" height="1.74545" fill="black"/>
<rect x="12.3091" y="30.2545" width="6.4" height="1.74545" fill="black"/>
<rect x="12.3091" y="30.2545" width="6.4" height="1.74545" fill="black"/>
<rect x="12.3091" y="30.2545" width="6.4" height="1.74545" fill="black"/>
<rect x="12.3091" y="30.2545" width="6.4" height="1.74545" fill="black"/>
<rect x="12.3091" y="30.2545" width="6.4" height="1.74545" fill="black"/>
<rect x="21.6182" y="9.30909" width="1.74545" height="1.74545" fill="black"/>
<rect x="21.6182" y="9.30909" width="1.74545" height="1.74545" fill="black"/>
<rect x="21.6182" y="9.30909" width="1.74545" height="1.74545" fill="black"/>
<rect x="21.6182" y="9.30909" width="1.74545" height="1.74545" fill="black"/>
<rect x="21.6182" y="9.30909" width="1.74545" height="1.74545" fill="black"/>
<rect x="23.3633" y="11.0545" width="1.74545" height="1.74545" fill="black"/>
<rect x="23.3633" y="11.0545" width="1.74545" height="1.74545" fill="black"/>
<rect x="23.3633" y="11.0545" width="1.74545" height="1.74545" fill="black"/>
<rect x="23.3633" y="11.0545" width="1.74545" height="1.74545" fill="black"/>
<rect x="23.3633" y="11.0545" width="1.74545" height="1.74545" fill="black"/>
<rect x="25.1094" y="12.8" width="1.74545" height="1.74545" fill="black"/>
<rect x="25.1094" y="12.8" width="1.74545" height="1.74545" fill="black"/>
<rect x="25.1094" y="12.8" width="1.74545" height="1.74545" fill="black"/>
<rect x="25.1094" y="12.8" width="1.74545" height="1.74545" fill="black"/>
<rect x="25.1094" y="12.8" width="1.74545" height="1.74545" fill="black"/>
<rect x="26.2729" y="14.5455" width="1.74545" height="10.4727" fill="black"/>
<rect x="26.2729" y="14.5455" width="1.74545" height="10.4727" fill="black"/>
<rect x="26.2729" y="14.5455" width="1.74545" height="10.4727" fill="black"/>
<rect x="26.2729" y="14.5455" width="1.74545" height="10.4727" fill="black"/>
<rect x="26.2729" y="14.5455" width="1.74545" height="10.4727" fill="black"/>
<rect x="19.2905" y="7.56364" width="2.32727" height="1.74545" fill="black"/>
<rect x="19.2905" y="7.56364" width="2.32727" height="1.74545" fill="black"/>
<rect x="19.2905" y="7.56364" width="2.32727" height="1.74545" fill="black"/>
<rect x="19.2905" y="7.56364" width="2.32727" height="1.74545" fill="black"/>
<rect x="19.2905" y="7.56364" width="2.32727" height="1.74545" fill="black"/>
<rect x="7.65479" y="9.30909" width="1.74545" height="1.74545" fill="black"/>
<rect x="7.65479" y="9.30909" width="1.74545" height="1.74545" fill="black"/>
<rect x="7.65479" y="9.30909" width="1.74545" height="1.74545" fill="black"/>
<rect x="7.65479" y="9.30909" width="1.74545" height="1.74545" fill="black"/>
<rect x="7.65479" y="9.30909" width="1.74545" height="1.74545" fill="black"/>
<rect x="5.90918" y="11.0545" width="1.74545" height="1.74545" fill="black"/>
<rect x="5.90918" y="11.0545" width="1.74545" height="1.74545" fill="black"/>
<rect x="5.90918" y="11.0545" width="1.74545" height="1.74545" fill="black"/>
<rect x="5.90918" y="11.0545" width="1.74545" height="1.74545" fill="black"/>
<rect x="5.90918" y="11.0545" width="1.74545" height="1.74545" fill="black"/>
<rect x="9.3999" y="7.56364" width="2.32727" height="1.74545" fill="black"/>
<rect x="9.3999" y="7.56364" width="2.32727" height="1.74545" fill="black"/>
<rect x="9.3999" y="7.56364" width="2.32727" height="1.74545" fill="black"/>
<rect x="9.3999" y="7.56364" width="2.32727" height="1.74545" fill="black"/>
<rect x="9.3999" y="7.56364" width="2.32727" height="1.74545" fill="black"/>
<rect x="3" y="14.5455" width="1.74545" height="10.4727" fill="black"/>
<rect x="3" y="14.5455" width="1.74545" height="10.4727" fill="black"/>
<rect x="3" y="14.5455" width="1.74545" height="10.4727" fill="black"/>
<rect x="3" y="14.5455" width="1.74545" height="10.4727" fill="black"/>
<rect x="3" y="14.5455" width="1.74545" height="10.4727" fill="black"/>
<rect x="16.3818" y="2.32728" width="1.16364" height="2.32727" fill="black"/>
<rect x="16.3818" y="2.32728" width="1.16364" height="2.32727" fill="black"/>
<rect x="16.3818" y="2.32728" width="1.16364" height="2.32727" fill="black"/>
<rect x="16.3818" y="2.32728" width="1.16364" height="2.32727" fill="black"/>
<rect x="16.3818" y="2.32728" width="1.16364" height="2.32727" fill="black"/>
<rect x="17.5454" y="4.65455" width="1.74545" height="4.65455" fill="black"/>
<rect x="17.5454" y="4.65455" width="1.74545" height="4.65455" fill="black"/>
<rect x="17.5454" y="4.65455" width="1.74545" height="4.65455" fill="black"/>
<rect x="17.5454" y="4.65455" width="1.74545" height="4.65455" fill="black"/>
<rect x="17.5454" y="4.65455" width="1.74545" height="4.65455" fill="black"/>
<path d="M14.6358 3.49091H16.3813V4.65454H17.5449V6.4H16.3813V7.56363H14.6358H13.4722V6.4H14.6358V3.49091Z" fill="#96A9E1"/>
<rect x="13.4722" y="4.65455" width="1.16364" height="1.74545" fill="white"/>
<rect x="14.6367" y="7.56364" width="1.74545" height="1.16364" fill="#5D82AC"/>
<rect x="14.6367" y="7.56364" width="1.74545" height="1.16364" fill="#1A1A4C"/>
<rect x="16.3818" y="6.39999" width="1.16364" height="1.16364" fill="#5D82AC"/>
<path d="M14.6367 8.72727H16.3821V7.56364H17.5458V8.72727V9.30909H21.6185V11.0545H23.364V12.8H25.1094V14.581V19.7818H23.364V20.9455V24.4364H21.6185V26.1818H20.4549V27.3455H18.7094V28.5091H10.564V27.3455V26.1818H11.7276V27.3455H14.6367V26.1818H17.5458V25.0182H18.7094V22.1091V20.9455H20.4549V19.7818V17.4545H23.364V14.5455H21.6185V15.7091H20.4549V14.5455H21.6185V13.3818H20.4549V12.2182H18.7094V11.0545H16.3821V9.89091H14.6367V8.72727Z" fill="#195F17"/>
<path d="M25.1095 14.5455H26.2731V25.0182H25.1095H24.5277V26.7636H23.364H22.7822V28.5091H18.7095V27.3455H20.4549V26.1818H21.6186V24.4364H23.364V22.1091V20.9455V19.7818H25.1095V14.5455Z" fill="#096919"/>
<rect x="12.3091" y="28.5091" width="6.4" height="1.74545" fill="#096919"/>
<path d="M11.7275 25.0182H13.473V23.2727H17.5457V22.1091H18.7094V25.0182H17.5457V26.1818H14.6366V27.3454H11.7275V26.1818V25.0182Z" fill="#096919"/>
<path d="M4.74512 22.1091H6.49057V23.8545H8.23603V25.0182H10.5633V28.5091H8.23603V26.7636H6.49057V25.0182H4.74512V22.1091Z" fill="#096919"/>
<rect x="7.65479" y="13.3818" width="4.07273" height="1.16364" fill="white"/>
<rect x="9.3999" y="12.2182" width="2.32727" height="1.16364" fill="white"/>
<rect x="10.564" y="11.0545" width="1.16364" height="1.16364" fill="white"/>
<rect x="5.90918" y="14.5455" width="3.49091" height="2.90909" fill="white"/>
<rect x="11.7275" y="12.2182" width="1.16364" height="1.16364" fill="#195F17"/>
<rect x="12.8911" y="12.2182" width="1.16364" height="1.16364" fill="#28822C"/>
<path d="M18.7088 12.2182H20.4542V13.3818H21.6178V14.5455H20.4542V15.7091H21.6178V14.5455H23.3633V17.4545H20.4542V20.9455H18.7088V22.1091H17.5451V23.2727H13.4724V25.0182H11.7269V26.1818H10.5633V25.0182H8.23603V23.8545H6.49057V22.1091H4.74512V18.6182V17.4545H6.49057H11.7269V15.7091H15.7997V14.5455H17.5451V13.3818H18.7088V12.2182Z" fill="#28822C"/>
<path d="M4.74512 14.5455H5.90875V17.4545H9.39966V14.5455H11.7269V13.3818H14.0542V12.2182H11.7269V11.0545H10.5633V12.2182H9.39966V13.3818H7.65421V14.5455H5.90875V12.8H7.65421V11.0545H9.39966V9.30909H11.7269H13.4724V7.56364H14.636V9.30909V9.89091H16.3815V11.0545H18.7088V12.2182V13.3818H17.5451V14.5455H15.7997V15.7091H13.4724V17.4545H11.7269V18.6182H9.39966V19.7818H6.49057V18.6182H4.74512V14.5455Z" fill="#5EB35C"/>
</svg>
