<svg width="32" height="32" viewBox="0 0 32 32" fill="none" xmlns="http://www.w3.org/2000/svg">
<path d="M7.87882 10.6667H9.81821V10.7784V9.69697H10.7879H12.7273V8.72727H19.5152V9.69697H22.4243V10.6667H24.3637V11.6364H25.3334V12.6061H26.3031V13.5758L22.4243 24.2424H16.6061V27.1515H15.6364H14.6667V29.0909H8.84851H7.87882V28.1212H6.90912V26.1818H5.93942V24.2424H4.96973V14.5455H5.93942V13.6875V12.6061H7.87882V11.6364V10.6667Z" fill="white"/>
<rect x="12.7271" y="4.84848" width="0.969697" height="3.87879" fill="black"/>
<rect x="13.6968" y="3.87879" width="4.84848" height="0.969697" fill="black"/>
<rect x="13.6968" y="7.75758" width="4.84848" height="0.969697" fill="black"/>
<rect x="14.6665" y="6.78788" width="0.969697" height="0.969697" fill="black"/>
<rect x="16.606" y="6.78788" width="0.969697" height="0.969697" fill="black"/>
<rect x="10.7881" y="8.72727" width="1.93939" height="0.969697" fill="black"/>
<rect x="8.84863" y="9.69697" width="0.969697" height="0.969697" fill="black"/>
<rect x="9.81836" y="9.69697" width="0.969697" height="0.969697" fill="black"/>
<rect x="19.5151" y="8.72727" width="1.93939" height="0.969697" fill="black"/>
<rect x="21.4546" y="9.69697" width="0.969697" height="0.969697" fill="black"/>
<rect x="22.4243" y="9.69697" width="0.969697" height="0.969697" fill="black"/>
<rect x="23.394" y="10.6667" width="0.969697" height="0.969697" fill="black"/>
<rect x="24.3638" y="11.6364" width="0.969697" height="0.969697" fill="black"/>
<rect x="5.93945" y="12.6061" width="0.969697" height="0.969697" fill="black"/>
<rect x="5.93945" y="16.4848" width="0.969697" height="0.969697" fill="black"/>
<rect x="22.4243" y="16.4848" width="0.969697" height="0.969697" fill="black"/>
<rect x="25.3335" y="16.4848" width="0.969697" height="0.969697" fill="black"/>
<rect x="4.96973" y="13.5758" width="0.969697" height="0.969697" fill="black"/>
<rect x="4.96973" y="14.5455" width="0.969697" height="0.969697" fill="black"/>
<rect x="25.3335" y="12.6061" width="0.969697" height="0.969697" fill="black"/>
<rect x="4.96973" y="24.2424" width="0.969697" height="0.969697" fill="black"/>
<rect x="4.96973" y="25.2121" width="0.969697" height="0.969697" fill="black"/>
<rect x="5.93945" y="26.1818" width="0.969697" height="0.969697" fill="black"/>
<rect x="5.93945" y="27.1515" width="0.969697" height="0.969697" fill="black"/>
<rect x="6.90918" y="28.1212" width="0.969697" height="0.969697" fill="black"/>
<rect x="7.87891" y="29.0909" width="1.93939" height="0.969697" fill="black"/>
<rect x="22.4243" y="29.0909" width="1.93939" height="0.969697" fill="black"/>
<rect x="24.3638" y="28.1212" width="0.969697" height="0.969697" fill="black"/>
<rect x="25.3335" y="26.1818" width="0.969697" height="1.93939" fill="black"/>
<rect x="26.3032" y="24.2424" width="0.969697" height="1.93939" fill="black"/>
<rect x="12.7271" y="31.0303" width="6.78788" height="0.969697" fill="black"/>
<rect x="9.81836" y="30.0606" width="2.90909" height="0.969697" fill="black"/>
<rect x="19.5151" y="30.0606" width="2.90909" height="0.969697" fill="black"/>
<rect x="27.2729" y="15.5152" width="0.969697" height="8.72727" fill="black"/>
<rect x="4" y="15.5152" width="0.969697" height="8.72727" fill="black"/>
<rect x="6.90918" y="11.6364" width="0.969697" height="0.969697" fill="black"/>
<rect x="7.87891" y="10.6667" width="0.969697" height="0.969697" fill="black"/>
<rect x="18.5454" y="4.84848" width="0.969697" height="3.87879" fill="black"/>
<path d="M8.84863 28.1212H14.6668V27.1515H16.6062V28.1212H17.5759V27.1515H19.5153V26.1818H20.485V27.1515H21.4547V26.1818H22.4244V27.1515H23.3941V26.1818H24.3638H25.3335V27.1515V28.1212H24.3638V29.0909H23.3941H22.4244V30.0606H19.5153V31.0303H12.7274V30.0606H9.81833V29.0909H8.84863V28.1212Z" fill="#6A88A0"/>
<rect x="8.84863" y="25.2121" width="0.969697" height="0.969697" fill="#6A88A0"/>
<rect x="12.7271" y="25.2121" width="0.969697" height="0.969697" fill="#6A88A0"/>
<rect x="14.6665" y="25.2121" width="0.969697" height="0.969697" fill="#6A88A0"/>
<rect x="10.7881" y="23.2727" width="0.969697" height="0.969697" fill="#6A88A0"/>
<rect x="4.96973" y="21.3333" width="0.969697" height="1.93939" fill="#6A88A0"/>
<rect x="18.5454" y="25.2121" width="0.969697" height="0.969697" fill="#6A88A0"/>
<rect x="20.4849" y="25.2121" width="0.969697" height="0.969697" fill="#6A88A0"/>
<rect x="7.87891" y="24.2424" width="0.969697" height="0.969697" fill="#6A88A0"/>
<rect x="5.93945" y="22.303" width="0.969697" height="0.969697" fill="#6A88A0"/>
<rect x="6.90918" y="21.3333" width="1.93939" height="0.969697" fill="#6A88A0"/>
<rect x="8.84863" y="22.303" width="0.969697" height="0.969697" fill="#6A88A0"/>
<rect x="12.7271" y="21.3333" width="0.969697" height="0.969697" fill="#6A88A0"/>
<rect x="15.6362" y="19.3939" width="0.969697" height="1.93939" fill="#6A88A0"/>
<rect x="7.87891" y="18.4242" width="0.969697" height="1.93939" fill="#6A88A0"/>
<rect x="5.93945" y="18.4242" width="0.969697" height="1.93939" fill="#6A88A0"/>
<rect x="8.84863" y="16.4848" width="0.969697" height="0.969697" fill="#6A88A0"/>
<rect x="7.87891" y="15.5152" width="0.969697" height="0.969697" fill="#6A88A0"/>
<rect x="15.6362" y="11.6364" width="0.969697" height="0.969697" fill="#6A88A0"/>
<rect x="15.6362" y="13.5758" width="0.969697" height="0.969697" fill="#6A88A0"/>
<rect x="14.6665" y="14.5455" width="0.969697" height="0.969697" fill="#6A88A0"/>
<rect x="16.606" y="14.5455" width="0.969697" height="0.969697" fill="#6A88A0"/>
<rect x="15.6362" y="16.4848" width="0.969697" height="0.969697" fill="#6A88A0"/>
<rect x="21.4546" y="14.5455" width="0.969697" height="0.969697" fill="#6A88A0"/>
<rect x="13.6968" y="22.303" width="3.87879" height="0.969697" fill="#6A88A0"/>
<rect x="11.7578" y="18.4242" width="2.90909" height="0.969697" fill="#6A88A0"/>
<rect x="11.7578" y="16.4848" width="2.90909" height="0.969697" fill="#6A88A0"/>
<rect x="11.7578" y="15.5152" width="0.969697" height="0.969697" fill="#6A88A0"/>
<rect x="13.6968" y="15.5152" width="0.969697" height="0.969697" fill="#6A88A0"/>
<rect x="12.7271" y="17.4545" width="0.969697" height="2.90909" fill="#6A88A0"/>
<rect x="17.5757" y="18.4242" width="2.90909" height="0.969697" fill="#6A88A0"/>
<rect x="17.5757" y="16.4848" width="2.90909" height="0.969697" fill="#6A88A0"/>
<rect x="17.5757" y="15.5152" width="0.969697" height="0.969697" fill="#6A88A0"/>
<rect x="19.5151" y="15.5152" width="0.969697" height="0.969697" fill="#6A88A0"/>
<rect x="18.5454" y="17.4545" width="0.969697" height="2.90909" fill="#6A88A0"/>
<rect x="22.4243" y="25.2121" width="0.969697" height="0.969697" fill="#6A88A0"/>
<rect x="24.3638" y="25.2121" width="0.969697" height="0.969697" fill="#6A88A0"/>
<rect x="24.3638" y="22.303" width="2.90909" height="0.969697" fill="#6A88A0"/>
<rect x="20.4849" y="22.303" width="2.90909" height="0.969697" fill="#6A88A0"/>
<rect x="23.394" y="21.3333" width="0.969697" height="0.969697" fill="#6A88A0"/>
<rect x="23.394" y="18.4242" width="0.969697" height="0.969697" fill="#6A88A0"/>
<rect x="25.3335" y="18.4242" width="0.969697" height="1.93939" fill="#6A88A0"/>
<rect x="23.394" y="14.5455" width="0.969697" height="1.93939" fill="#6A88A0"/>
<rect x="26.3032" y="21.3333" width="0.969697" height="0.969697" fill="#6A88A0"/>
<rect x="20.4849" y="23.2727" width="0.969697" height="0.969697" fill="#6A88A0"/>
<rect x="21.4546" y="21.3333" width="0.969697" height="0.969697" fill="#6A88A0"/>
<rect x="19.5151" y="21.3333" width="0.969697" height="0.969697" fill="#6A88A0"/>
<rect x="22.4243" y="19.3939" width="1.93939" height="0.969697" fill="#6A88A0"/>
<rect x="24.3638" y="24.2424" width="0.969697" height="0.969697" fill="#6A88A0"/>
<rect x="23.394" y="24.2424" width="2.90909" height="0.969697" fill="#6A88A0"/>
<rect x="9.81836" y="12.6061" width="0.969697" height="0.969697" fill="#B8CEDB"/>
<path d="M6.90918 25.2121H7.87888V26.1818H6.90918V25.2121Z" fill="#B8CEDB"/>
<path d="M16.606 27.1515H17.5757V28.1212H16.606V27.1515Z" fill="#B8CEDB"/>
<path d="M18.5454 26.1818H19.5151V27.1515H18.5454V26.1818Z" fill="#B8CEDB"/>
<path d="M20.4849 26.1818H21.4546V27.1515H20.4849V26.1818Z" fill="#B8CEDB"/>
<path d="M19.5151 25.2121H20.4848V26.1818H19.5151V25.2121Z" fill="#B8CEDB"/>
<path d="M21.4546 25.2121H22.4243V26.1818H21.4546V25.2121Z" fill="#B8CEDB"/>
<path d="M13.6968 21.3333H19.515V22.303H13.6968V21.3333Z" fill="#B8CEDB"/>
<path d="M8.84863 21.3333H12.7274V22.303H8.84863V21.3333Z" fill="#B8CEDB"/>
<path d="M6.90918 22.303H8.84857V23.2727H6.90918V22.303Z" fill="#B8CEDB"/>
<path d="M6.90918 23.2727H7.87888V24.2424H6.90918V23.2727Z" fill="#B8CEDB"/>
<path d="M13.6968 24.2424H14.6665V26.1818H13.6968V24.2424Z" fill="#B8CEDB"/>
<path d="M9.81836 22.303H13.6971V23.2727H9.81836V22.303Z" fill="#B8CEDB"/>
<path d="M17.5757 22.303H20.4848V24.2424H17.5757V22.303Z" fill="#B8CEDB"/>
<path d="M22.4243 26.1818H23.394V27.1515H22.4243V26.1818Z" fill="#B8CEDB"/>
<path d="M23.394 25.2121H24.3637V26.1818H23.394V25.2121Z" fill="#B8CEDB"/>
<path d="M23.394 22.303H24.3637V24.2424H23.394V22.303Z" fill="#B8CEDB"/>
<path d="M21.4546 23.2727H27.2728V24.2424H21.4546V23.2727Z" fill="#B8CEDB"/>
<path d="M16.606 24.2424H23.3938V25.2121H16.606V24.2424Z" fill="#B8CEDB"/>
<path d="M12.7271 24.2424H15.6361V25.2121H12.7271V24.2424Z" fill="#B8CEDB"/>
<path d="M7.87891 26.1818H14.6668V28.1212H7.87891V26.1818Z" fill="#B8CEDB"/>
<path d="M9.81836 24.2424H12.7275V26.1818H9.81836V24.2424Z" fill="#B8CEDB"/>
<path d="M15.6362 25.2121H18.5453V27.1515H15.6362V25.2121Z" fill="#B8CEDB"/>
<rect x="11.7578" y="19.3939" width="0.969697" height="0.969697" fill="#B8CEDB"/>
<rect x="13.6968" y="19.3939" width="0.969697" height="0.969697" fill="#B8CEDB"/>
<rect x="15.6362" y="15.5152" width="0.969697" height="0.969697" fill="#B8CEDB"/>
<rect x="17.5757" y="8.72727" width="1.93939" height="0.969697" fill="#B8CEDB"/>
<rect x="18.5454" y="9.69697" width="2.90909" height="0.969697" fill="#B8CEDB"/>
<rect x="19.5151" y="10.6667" width="2.90909" height="1.93939" fill="#B8CEDB"/>
<rect x="21.4546" y="11.6364" width="2.90909" height="1.93939" fill="#B8CEDB"/>
<path d="M22.4242 12.6061H25.3333V14.5455H23.3939V16.4849H22.4242V17.4545H23.3939V19.3939H22.4242V20.3636H26.303V22.303H24.3636V21.3333H23.3939V22.303H22.4242V21.3333H21.4545V22.303H20.4848V21.3333V19.3939V18.4242H19.5151V17.4545H20.4848V15.5152H22.4242V14.5455V12.6061Z" fill="#B8CEDB"/>
<path d="M24.3637 13.5758H26.3031V14.5455H27.2728V16.4849V21.3333H26.3031V18.4242H25.3334V20.3636H24.3637V18.4242H23.394V17.4545V16.4849H25.3334V17.4545H26.3031V16.4849H24.3637V13.5758Z" fill="#B8CEDB"/>
<rect x="7.87891" y="13.5758" width="0.969697" height="1.93939" fill="#B8CEDB"/>
<path d="M13.6968 4.84848H14.6665H16.6059V5.81818H15.6362V6.78788H14.6665V7.75758H13.6968V4.84848Z" fill="white"/>
<path d="M15.6362 5.81818H16.6059V4.84848H18.5453V5.81818V6.78788V7.75758H17.5756V6.78788H16.6059V7.75758H15.6362V5.81818Z" fill="#7092AB"/>
<rect x="26.3032" y="13.5758" width="0.969697" height="1.93939" fill="black"/>
<rect x="14.6665" width="2.90909" height="0.969697" fill="black"/>
<rect x="14.6665" y="0.969696" width="0.969697" height="2.90909" fill="black"/>
<rect x="16.606" y="0.969696" width="0.969697" height="2.90909" fill="black"/>
</svg>
