<svg width="32" height="32" viewBox="0 0 32 32" fill="none" xmlns="http://www.w3.org/2000/svg">
<path d="M13.4287 2.28571H14.1906V9.14286H13.4287V2.28571Z" fill="black"/>
<path d="M14.1904 2.28571H17.238V3.04762H14.1904V2.28571Z" fill="black"/>
<path d="M14.9521 0H16.476V0.761905H14.9521V0Z" fill="black"/>
<path d="M14.1904 0.761902H14.9523V2.28571H14.1904V0.761902Z" fill="black"/>
<path d="M16.4761 0.761902H17.238V2.28571H16.4761V0.761902Z" fill="black"/>
<path d="M14.1904 6.09524H17.238V6.85714H14.1904V6.09524Z" fill="black"/>
<path d="M10.3809 12.1905H11.9047V14.4762H10.3809V12.1905Z" fill="black"/>
<path d="M19.5239 12.1905H21.0477V14.4762H19.5239V12.1905Z" fill="black"/>
<path d="M20.2856 12.9524H27.9047V14.4762H20.2856V12.9524Z" fill="black"/>
<path d="M3.52393 12.9524H11.143V14.4762H3.52393V12.9524Z" fill="black"/>
<path d="M11.9048 9.14286H13.4286V11.4286H11.9048V9.14286Z" fill="black"/>
<path d="M12.6665 6.85714H14.1903V9.14285H12.6665V6.85714Z" fill="black"/>
<path d="M17.2383 6.85714H18.7621V9.14285H17.2383V6.85714Z" fill="black"/>
<path d="M18 9.14286H19.5238V11.4286H18V9.14286Z" fill="black"/>
<path d="M17.2383 2.28571H18.0002V9.14286H17.2383V2.28571Z" fill="black"/>
<rect x="11.1431" y="9.90476" width="1.52381" height="2.28571" fill="black"/>
<rect x="18.7617" y="9.90476" width="1.52381" height="2.28571" fill="black"/>
<rect x="2" y="14.4762" width="1.52381" height="3.04762" fill="black"/>
<rect x="2.76172" y="16" width="1.52381" height="2.28571" fill="black"/>
<rect x="27.1431" y="16" width="1.52381" height="2.28571" fill="black"/>
<rect x="4.28564" y="17.5238" width="1.52381" height="2.28571" fill="black"/>
<rect x="25.6191" y="17.5238" width="1.52381" height="2.28571" fill="black"/>
<rect x="5.04785" y="18.2857" width="1.52381" height="2.28571" fill="black"/>
<rect x="24.0952" y="18.2857" width="1.52381" height="2.28571" fill="black"/>
<rect x="6.57129" y="19.8095" width="1.52381" height="2.28571" fill="black"/>
<rect x="23.3335" y="19.8095" width="1.52381" height="2.28571" fill="black"/>
<rect x="6.57129" y="23.619" width="1.52381" height="2.28571" fill="black"/>
<rect x="23.3335" y="23.619" width="1.52381" height="2.28571" fill="black"/>
<rect x="5.80957" y="25.9048" width="2.28571" height="2.28571" fill="black"/>
<rect x="23.3335" y="25.9048" width="2.28571" height="2.28571" fill="black"/>
<rect x="5.04785" y="28.1905" width="1.52381" height="3.04762" fill="black"/>
<rect x="24.8569" y="28.1905" width="1.52381" height="3.04762" fill="black"/>
<rect x="6.57129" y="30.4762" width="3.04762" height="1.52381" fill="black"/>
<rect x="21.8096" y="30.4762" width="3.04762" height="1.52381" fill="black"/>
<rect x="9.61914" y="28.9524" width="2.28571" height="1.52381" fill="black"/>
<rect x="19.5239" y="28.9524" width="2.28571" height="1.52381" fill="black"/>
<rect x="11.9048" y="28.1905" width="1.52381" height="1.52381" fill="black"/>
<rect x="13.4287" y="27.4286" width="1.52381" height="1.52381" fill="black"/>
<rect x="16.4761" y="27.4286" width="1.52381" height="1.52381" fill="black"/>
<rect x="18" y="28.1905" width="1.52381" height="1.52381" fill="black"/>
<rect x="14.9521" y="25.9048" width="1.52381" height="1.52381" fill="black"/>
<rect x="7.3335" y="20.5714" width="1.52381" height="4.57143" fill="black"/>
<rect x="22.5713" y="20.5714" width="1.52381" height="4.57143" fill="black"/>
<rect x="27.9048" y="14.4762" width="1.52381" height="3.04762" fill="black"/>
<rect x="14.1904" y="6.85714" width="0.761905" height="1.52381" fill="#D2ECF8"/>
<rect x="14.1904" y="6.85714" width="0.761905" height="1.52381" fill="#D2ECF8"/>
<rect x="14.1904" y="6.85714" width="0.761905" height="1.52381" fill="#D2ECF8"/>
<rect x="13.4287" y="10.6667" width="0.761905" height="0.761905" fill="#D2ECF8"/>
<rect x="13.4287" y="10.6667" width="0.761905" height="0.761905" fill="#D2ECF8"/>
<rect x="13.4287" y="10.6667" width="0.761905" height="0.761905" fill="#D2ECF8"/>
<rect x="12.6665" y="11.4286" width="0.761905" height="0.761905" fill="#D2ECF8"/>
<rect x="12.6665" y="11.4286" width="0.761905" height="0.761905" fill="#D2ECF8"/>
<rect x="12.6665" y="11.4286" width="0.761905" height="0.761905" fill="#D2ECF8"/>
<rect x="13.4287" y="13.7143" width="0.761905" height="0.761905" fill="#D2ECF8"/>
<rect x="13.4287" y="13.7143" width="0.761905" height="0.761905" fill="#D2ECF8"/>
<rect x="13.4287" y="13.7143" width="0.761905" height="0.761905" fill="#D2ECF8"/>
<path d="M14.9521 19.8095H15.7141V18.2857H17.2379V19.8095H17.9998V20.5714H14.9521V19.8095Z" fill="#D2ECF8"/>
<path d="M14.9521 19.8095H15.7141V18.2857H17.2379V19.8095H17.9998V20.5714H14.9521V19.8095Z" fill="#D2ECF8"/>
<path d="M14.9521 19.8095H15.7141V18.2857H17.2379V19.8095H17.9998V20.5714H14.9521V19.8095Z" fill="#D2ECF8"/>
<path d="M4.28564 16H8.09517V17.5238H12.6666V18.2857H14.9523V19.8095H12.6666V20.5714H14.9523V22.0952H14.1904V22.8571H12.6666V23.619H11.9047V25.1429H11.1428V25.9048H10.3809V27.4286H8.85707V28.9524H8.09517V30.4762H6.57136V28.1905H8.09517V26.6667H8.85707V25.9048H8.09517V25.1429H8.85707V23.619H10.3809H11.1428V20.5714H9.61898V18.2857H8.85707V20.5714H8.09517V19.8095H6.57136V18.2857H5.80945V17.5238H4.28564V16Z" fill="#D2ECF8"/>
<path d="M4.28564 16H8.09517V17.5238H12.6666V18.2857H14.9523V19.8095H12.6666V20.5714H14.9523V22.0952H14.1904V22.8571H12.6666V23.619H11.9047V25.1429H11.1428V25.9048H10.3809V27.4286H8.85707V28.9524H8.09517V30.4762H6.57136V28.1905H8.09517V26.6667H8.85707V25.9048H8.09517V25.1429H8.85707V23.619H10.3809H11.1428V20.5714H9.61898V18.2857H8.85707V20.5714H8.09517V19.8095H6.57136V18.2857H5.80945V17.5238H4.28564V16Z" fill="#D2ECF8"/>
<path d="M4.28564 16H8.09517V17.5238H12.6666V18.2857H14.9523V19.8095H12.6666V20.5714H14.9523V22.0952H14.1904V22.8571H12.6666V23.619H11.9047V25.1429H11.1428V25.9048H10.3809V27.4286H8.85707V28.9524H8.09517V30.4762H6.57136V28.1905H8.09517V26.6667H8.85707V25.9048H8.09517V25.1429H8.85707V23.619H10.3809H11.1428V20.5714H9.61898V18.2857H8.85707V20.5714H8.09517V19.8095H6.57136V18.2857H5.80945V17.5238H4.28564V16Z" fill="#D2ECF8"/>
<rect x="11.9048" y="14.4762" width="1.52381" height="1.52381" fill="#D2ECF8"/>
<rect x="11.9048" y="14.4762" width="1.52381" height="1.52381" fill="#D2ECF8"/>
<rect x="11.9048" y="14.4762" width="1.52381" height="1.52381" fill="#D2ECF8"/>
<path d="M15.7144 9.14286H17.2382V12.9524H18.0001V15.2381H21.8096V16H22.5715V17.5238H20.2858V18.2857H18.0001V17.5238H15.7144V9.14286Z" fill="#D2ECF8"/>
<path d="M15.7144 9.14286H17.2382V12.9524H18.0001V15.2381H21.8096V16H22.5715V17.5238H20.2858V18.2857H18.0001V17.5238H15.7144V9.14286Z" fill="#D2ECF8"/>
<path d="M15.7144 9.14286H17.2382V12.9524H18.0001V15.2381H21.8096V16H22.5715V17.5238H20.2858V18.2857H18.0001V17.5238H15.7144V9.14286Z" fill="#D2ECF8"/>
<path d="M22.5713 15.2381H24.0951V14.4762H26.3808H27.9046V15.2381H27.1427V16H22.5713V15.2381Z" fill="#D2ECF8"/>
<rect x="15.7144" y="6.85714" width="1.52381" height="2.28571" fill="#98C8EB"/>
<path d="M17.2383 9.14286H18.0002V11.4286H18.7621V12.1905H19.524V14.4762H24.0954V15.2381H18.0002V12.9524H17.2383V9.14286Z" fill="#98C8EB"/>
<rect x="21.8096" y="15.2381" width="0.761905" height="0.761905" fill="white"/>
<rect x="8.85693" y="22.8571" width="0.761905" height="0.761905" fill="white"/>
<rect x="9.61914" y="21.3333" width="1.52381" height="1.52381" fill="white"/>
<rect x="8.09521" y="25.9048" width="0.761905" height="0.761905" fill="white"/>
<rect x="27.1431" y="15.2381" width="0.761905" height="0.761905" fill="#98C8EB"/>
<path d="M8.09521 28.9524H8.85712V27.4286H10.3809V25.9048H13.4285V27.4286H11.1428V28.1905H10.3809V28.9524H9.61902V30.4762H8.09521V28.9524Z" fill="#98C8EB"/>
<rect x="14.9521" y="25.1429" width="1.52381" height="0.761905" fill="#4F1A38"/>
<rect x="14.9521" y="25.1429" width="1.52381" height="0.761905" fill="#4F1A38"/>
<rect x="14.9521" y="25.1429" width="1.52381" height="0.761905" fill="#0E1A48"/>
<rect x="19.5239" y="28.1905" width="2.28571" height="0.761905" fill="#4F1A38"/>
<rect x="19.5239" y="28.1905" width="2.28571" height="0.761905" fill="#4F1A38"/>
<rect x="19.5239" y="28.1905" width="2.28571" height="0.761905" fill="#0E1A48"/>
<rect x="13.4287" y="25.9048" width="1.52381" height="1.52381" fill="#4F1A38"/>
<rect x="13.4287" y="25.9048" width="1.52381" height="1.52381" fill="#4F1A38"/>
<rect x="13.4287" y="25.9048" width="1.52381" height="1.52381" fill="#0E1A48"/>
<rect x="10.3809" y="28.1905" width="1.52381" height="0.761905" fill="#4F1A38"/>
<rect x="10.3809" y="28.1905" width="1.52381" height="0.761905" fill="#4F1A38"/>
<rect x="10.3809" y="28.1905" width="1.52381" height="0.761905" fill="#0E1A48"/>
<rect x="11.1431" y="27.4286" width="2.28571" height="0.761905" fill="#143356"/>
<path d="M11.1431 25.1429H13.4288V22.8571H14.1907V22.0952H14.9526V21.3333H17.2383V22.8571H18.0002V23.6191H19.524V25.1429H20.2859V25.9048H21.8097V27.4286H22.5716V28.1905H24.8574V28.9524H23.3335V30.4762H21.8097V28.1905H20.2859H18.0002V27.4286H16.4764V25.9048V23.6191H15.7145V22.8571H14.9526V23.6191H16.4764V25.1429H14.9526V25.9048H11.1431V25.1429Z" fill="#426B9A"/>
<rect x="23.3335" y="28.9524" width="1.52381" height="1.52381" fill="#98C8EB"/>
<path d="M20.2858 22.0952H22.5715V25.1429H23.3334V28.1905H22.5715V27.4286H21.8096V25.9048H20.2858V25.1429H19.5239V23.619V20.5714H20.2858V22.0952Z" fill="#98C8EB"/>
<rect x="22.5713" y="19.8095" width="0.761905" height="0.761905" fill="#98C8EB"/>
<rect x="9.61914" y="22.8571" width="1.52381" height="0.761905" fill="#98C8EB"/>
<rect x="14.9521" y="22.8571" width="0.761905" height="0.761905" fill="#98C8EB"/>
<rect x="11.9048" y="23.619" width="1.52381" height="1.52381" fill="#98C8EB"/>
<path d="M8.85693 18.2857H9.61884V20.5714H11.1426V21.3333H9.61884V22.8571H8.85693V18.2857Z" fill="#98C8EB"/>
<rect x="12.6665" y="22.8571" width="0.761905" height="0.761905" fill="#98C8EB"/>
<rect x="20.2856" y="17.5238" width="0.761905" height="0.761905" fill="#98C8EB"/>
<rect x="22.5713" y="16" width="2.28571" height="1.52381" fill="#98C8EB"/>
<path d="M14.9521 20.5714H17.9998V21.3333H19.5236V23.619H17.9998V22.8571H17.2379V21.3333H14.9521V20.5714Z" fill="#98C8EB"/>
<path d="M17.2383 18.2857H21.0478V17.5238H22.5716H24.8573V16H27.143V17.5238H25.6192V18.2857H22.5716V19.8095H21.8097V22.0952H20.2859V20.5714H19.524V21.3333H18.0002V19.8095H17.2383V18.2857Z" fill="#426B9A"/>
<rect x="22.5713" y="18.2857" width="1.52381" height="1.52381" fill="#120D4E"/>
<rect x="21.8096" y="19.8095" width="0.761905" height="2.28571" fill="#1D2D55"/>
<rect x="11.9048" y="12.9524" width="1.52381" height="1.52381" fill="#C9EAFD"/>
<rect x="11.9048" y="12.9524" width="1.52381" height="1.52381" fill="#C9EAFD"/>
<rect x="11.9048" y="12.9524" width="1.52381" height="1.52381" fill="#C9EAFD"/>
<rect x="11.9048" y="12.9524" width="1.52381" height="1.52381" fill="#C9EAFD"/>
<rect x="9.61914" y="14.4762" width="1.52381" height="0.761905" fill="#C9EAFD"/>
<rect x="9.61914" y="14.4762" width="1.52381" height="0.761905" fill="#C9EAFD"/>
<rect x="9.61914" y="14.4762" width="1.52381" height="0.761905" fill="#C9EAFD"/>
<rect x="9.61914" y="14.4762" width="1.52381" height="0.761905" fill="#C9EAFD"/>
<rect x="6.57129" y="14.4762" width="1.52381" height="0.761905" fill="#C9EAFD"/>
<rect x="6.57129" y="14.4762" width="1.52381" height="0.761905" fill="#C9EAFD"/>
<rect x="6.57129" y="14.4762" width="1.52381" height="0.761905" fill="#C9EAFD"/>
<rect x="6.57129" y="14.4762" width="1.52381" height="0.761905" fill="#C9EAFD"/>
<rect x="3.52393" y="15.2381" width="1.52381" height="0.761905" fill="#C9EAFD"/>
<rect x="3.52393" y="15.2381" width="1.52381" height="0.761905" fill="#C9EAFD"/>
<rect x="3.52393" y="15.2381" width="1.52381" height="0.761905" fill="#C9EAFD"/>
<rect x="3.52393" y="15.2381" width="1.52381" height="0.761905" fill="#C9EAFD"/>
<path d="M3.52393 14.4762H6.57154V15.2381H8.09535V14.4762H9.61916V15.2381H11.143V14.4762H11.9049V16H13.4287V14.4762H14.1906V13.7143H13.4287V12.9524H11.9049V12.1905H13.4287V11.4286H14.1906V10.6667H13.4287V9.14285H14.1906V8.38095H14.9525V6.85714H15.7144V14.4762V17.5238H18.0001V18.2857H15.7144V19.8095H14.9525V18.2857H12.6668V17.5238H8.09535V16H5.04774V15.2381H3.52393V14.4762Z" fill="white"/>
<rect x="12.6665" y="19.8095" width="2.28571" height="0.761905" fill="white"/>
<rect x="14.1904" y="3.04762" width="2.28571" height="1.52381" fill="white"/>
<rect x="16.4761" y="3.04762" width="0.761905" height="1.52381" fill="#5374B0"/>
<rect x="16.4761" y="3.04762" width="0.761905" height="1.52381" fill="#5374B0"/>
<rect x="14.1904" y="4.57143" width="2.28571" height="1.52381" fill="#5374B0"/>
<rect x="14.1904" y="4.57143" width="2.28571" height="1.52381" fill="#5374B0"/>
<rect x="16.4761" y="4.57143" width="0.761905" height="1.52381" fill="#24365E"/>
</svg>
