<svg width="64" height="64" viewBox="0 0 64 64" fill="none" xmlns="http://www.w3.org/2000/svg">
<path d="M14.75 8.75H16.25V7H23V2H24.75V0H34V2H37.25V0H42V2H43.5V3.75H45V7H43.5V8.75H40.5V10.5H48.25V8.75H49.75V7H48.25V5.5H51.25V7H52.75V8.75H55.75V9.75H57.25V12.75H59V11H60.5V12.75H62.25V14.25H63.8614V16H62.25V19.5H59V21.25H57.25V26.75H51.375V25H46.5V26.75H45V28.75H43.3614V30.5H35.8614V28.75H31.5V30.5H29.75V32H23.25V26.75H19.75V28.5H16.25V26.75H14.75V19.75H16.5V18H18V16H16.25V14.25H14.75V8.75Z" fill="#FFD3D2"/>
<rect x="32.75" y="58.75" width="1.5" height="1.75" fill="#D9C8C0"/>
<rect x="32.75" y="60.5" width="1.5" height="1.5" fill="#1E8083"/>
<rect x="32.5" y="46.75" width="5" height="1.75" fill="#1E8083"/>
<rect x="28" y="50.25" width="1.5" height="3.25" fill="#1E8083"/>
<rect x="19.75" y="37.75" width="1.75" height="4" fill="#1E8083"/>
<rect x="18" y="37.75" width="1.75" height="2.5" fill="#1E8083"/>
<rect x="19.75" y="50.25" width="5" height="1.75" fill="#1E8083"/>
<rect x="21.5" y="52" width="3.25" height="1.5" fill="#1E8083"/>
<rect x="23" y="53.5" width="3.5" height="1.5" fill="#1E8083"/>
<rect x="24.75" y="48.5" width="1.75" height="3.25" fill="#CE4C61"/>
<rect x="21.5" y="37.75" width="1.5" height="4" fill="#F4727D"/>
<rect x="34" y="45.25" width="5" height="1.5" fill="#1E8083"/>
<rect x="34" y="43.75" width="3.5" height="1.5" fill="#1E8083"/>
<rect x="37.5" y="42" width="6" height="1.75" fill="#1E8083"/>
<rect x="39" y="43.75" width="1.75" height="1.5" fill="#287178"/>
<rect x="37.5" y="40.5" width="1.5" height="1.5" fill="#287178"/>
<rect x="1.5" y="25.25" width="1.5" height="1.75" fill="#287178"/>
<rect x="40.5" y="40.5" width="4.75" height="1.5" fill="#287178"/>
<rect x="42" y="37.5" width="4.75" height="1.5" fill="#287178"/>
<rect x="32.5" y="34" width="0.75" height="9.75" fill="#184549"/>
<rect x="34" y="28.75" width="1" height="4.5" fill="#184549"/>
<rect x="38.75" y="30.5" width="1.75" height="2" fill="#184549"/>
<rect x="36.5" y="33" width="1" height="1" fill="#184549"/>
<rect x="37.5" y="34" width="1" height="1" fill="#184549"/>
<rect x="43.5" y="39" width="3.25" height="1.5" fill="#287178"/>
<rect x="37.5" y="43.75" width="1.5" height="1.5" fill="#4ABD96"/>
<rect x="39" y="40.5" width="1.5" height="1.5" fill="#4ABD96"/>
<rect x="40.5" y="39" width="3" height="1.5" fill="#4ABD96"/>
<rect x="35.75" y="42" width="1.75" height="1.75" fill="#4ABD96"/>
<rect x="37.5" y="53.5" width="1.5" height="1.75" fill="#D9C8C0"/>
<rect x="31.25" y="55.25" width="1.25" height="1.75" fill="#D9C8C0"/>
<rect x="49.75" y="7" width="1.5" height="1.75" fill="#D9C8C0"/>
<rect x="48.25" y="5.5" width="1.5" height="1.5" fill="#D9C8C0"/>
<rect x="48.25" y="8.75" width="1.5" height="1.75" fill="#D9C8C0"/>
<rect x="46.5" y="16" width="1.5" height="1.75" fill="#D9C8C0"/>
<rect x="49.5" y="17.75" width="1.75" height="1.75" fill="#D9C8C0"/>
<rect x="37.5" y="25.25" width="4.5" height="1.5" fill="#D9C8C0"/>
<rect x="39" y="17.75" width="4.5" height="1.75" fill="#D9C8C0"/>
<rect x="24.75" y="28.75" width="5" height="1.75" fill="#D9C8C0"/>
<rect x="24.75" y="18" width="1.75" height="1.75" fill="#D9C8C0"/>
<rect x="19.75" y="16" width="6.75" height="2" fill="#D9C8C0"/>
<rect x="21.5" y="23.25" width="1.75" height="1.75" fill="#D9C8C0"/>
<rect x="26.5" y="10.75" width="1.5" height="1.75" fill="#D9C8C0"/>
<rect x="32.5" y="7.25" width="1.5" height="1.75" fill="#D9C8C0"/>
<rect x="32.5" width="1.5" height="2" fill="#30677C"/>
<rect x="14.75" y="8.75" width="1.5" height="5.5" fill="#30677C"/>
<rect x="48" y="14.25" width="6.25" height="1.75" fill="#3D5873"/>
<rect x="48" y="12.5" width="1.5" height="1.75" fill="#3D5873"/>
<rect x="48" y="16" width="1.5" height="1.75" fill="#3D5873"/>
<rect x="39" y="19.5" width="4.5" height="1.75" fill="#3D5873"/>
<rect x="43.5" y="17.75" width="4.5" height="1.75" fill="#3D5873"/>
<rect x="29.75" y="28.75" width="1.75" height="1.75" fill="#3D5873"/>
<rect x="28.25" y="17.75" width="5.75" height="1.75" fill="#3D5873"/>
<rect x="34" y="16" width="1.75" height="1.75" fill="#3D5873"/>
<rect x="35.75" y="12.5" width="1.5" height="5.25" fill="#3D5873"/>
<rect x="40.5" y="7" width="3" height="1.75" fill="#3D5873"/>
<rect x="59" y="11" width="1.5" height="1.75" fill="#3D5873"/>
<rect x="62.25" y="14.25" width="1.75" height="1.75" fill="#3D5873"/>
<rect x="60.75" y="16" width="1.5" height="1.75" fill="#3D5873"/>
<rect x="55.75" y="9.75" width="1.5" height="2.75" fill="#3D5873"/>
<rect x="54.25" y="12.5" width="1.5" height="5.25" fill="#3D5873"/>
<rect x="60.5" y="12.75" width="1.75" height="1.5" fill="#3D5873"/>
<rect x="46.5" y="10.5" width="1.5" height="2" fill="#3D5873"/>
<rect x="37.25" width="4.75" height="2" fill="#3D5873"/>
<rect x="34" y="3.75" width="1.75" height="3.5" fill="#3D5873"/>
<rect x="34" y="2" width="3.25" height="1.75" fill="#3D5873"/>
<rect x="24.75" y="7" width="1.75" height="3.75" fill="#3D5873"/>
<rect x="24.75" width="1.75" height="2" fill="#3D5873"/>
<rect x="24.75" y="12.5" width="1.75" height="1.75" fill="#3D5873"/>
<rect x="18" y="16" width="1.75" height="2" fill="#3D5873"/>
<rect x="16.5" y="18" width="1.5" height="1.75" fill="#3D5873"/>
<rect x="14.75" y="19.75" width="1.5" height="1.75" fill="#3D5873"/>
<rect x="19.75" y="25" width="3.5" height="1.75" fill="#3D5873"/>
<rect x="16.25" y="26.75" width="3.5" height="1.75" fill="#3D5873"/>
<rect x="23" y="2" width="1.75" height="5" fill="#3D5873"/>
<rect x="45" y="23.5" width="1.5" height="1.75" fill="#1A1E36"/>
<rect x="42" y="25.25" width="4.5" height="1.5" fill="#1A1E36"/>
<rect x="40.5" y="26.75" width="4.5" height="2" fill="#1A1E36"/>
<rect x="35.75" y="28.75" width="7.75" height="1.75" fill="#1A1E36"/>
<rect x="31.5" y="26.75" width="2.5" height="7.25" fill="#1A1E36"/>
<rect x="31" y="34" width="1.5" height="7.25" fill="#1A1E36"/>
<rect x="40.5" y="30.5" width="1.5" height="2" fill="#1A1E36"/>
<rect x="37.5" y="32.5" width="3" height="1.5" fill="#1A1E36"/>
<rect x="35.75" y="34" width="1.75" height="4.5" fill="#1A1E36"/>
<rect x="34" y="37.25" width="1.75" height="6.5" fill="#1A1E36"/>
<rect x="32.5" y="43.75" width="1.5" height="3" fill="#1A1E36"/>
<rect x="32.5" y="48.5" width="1.5" height="3.25" fill="#1A1E36"/>
<rect x="34" y="48.5" width="1.75" height="1.5" fill="#1A1E36"/>
<rect x="35.75" y="50" width="1.75" height="1.75" fill="#1A1E36"/>
<rect x="24.75" y="51.75" width="1.75" height="1.75" fill="#1A1E36"/>
<rect x="21.5" y="53.5" width="1.5" height="1.5" fill="#1A1E36"/>
<rect x="19.75" y="52" width="1.75" height="1.5" fill="#1A1E36"/>
<rect x="18" y="50.25" width="1.75" height="1.75" fill="#1A1E36"/>
<rect x="14.5" y="46.75" width="1.75" height="1.5" fill="#1A1E36"/>
<rect x="8" y="53.25" width="1.5" height="1.75" fill="#1A1E36"/>
<rect x="11.25" y="48.25" width="1.75" height="3.25" fill="#1A1E36"/>
<rect x="9.5" y="51.5" width="1.75" height="3.5" fill="#1A1E36"/>
<rect x="16.25" y="48.25" width="1.75" height="2" fill="#1A1E36"/>
<rect x="31" y="34" width="1.5" height="17.75" fill="#1A1E36"/>
<rect x="29.5" y="45.25" width="1.5" height="8.25" fill="#1A1E36"/>
<rect x="23" y="43.5" width="1.75" height="5" fill="#1A1E36"/>
<rect x="21.5" y="41.75" width="1.5" height="3.5" fill="#1A1E36"/>
<rect x="18" y="40.25" width="1.75" height="1.5" fill="#1A1E36"/>
<rect x="14.5" y="37.5" width="3.5" height="2.75" fill="#1A1E36"/>
<rect x="18" y="36.25" width="1.75" height="1.5" fill="#1A1E36"/>
<rect x="16" y="34" width="1.75" height="1.75" fill="#1A1E36"/>
<rect x="11.25" y="28.75" width="1.5" height="2" fill="#1A1E36"/>
<rect x="8" y="25.25" width="1.5" height="1.75" fill="#1A1E36"/>
<rect x="3" y="23.5" width="5" height="1.75" fill="#1A1E36"/>
<rect x="8" y="32.5" width="3.25" height="1.5" fill="#1A1E36"/>
<rect x="6.25" y="34" width="1.75" height="3.25" fill="#1A1E36"/>
<rect x="3" y="38.75" width="1.75" height="1.5" fill="#1A1E36"/>
<rect x="3" y="35.5" width="3.25" height="3.25" fill="#1A1E36"/>
<rect x="14.5" y="35.75" width="3.5" height="1.75" fill="#782445"/>
<rect x="12.75" y="45" width="3.5" height="1.75" fill="#782445"/>
<rect x="11.25" y="30.75" width="3" height="1.75" fill="#782445"/>
<rect x="11.25" y="34" width="4.75" height="1.75" fill="#FFC2C2"/>
<rect x="12.75" y="32.5" width="1.5" height="1.5" fill="#FFC2C2"/>
<rect x="16.25" y="46.75" width="1.75" height="1.5" fill="#FFC2C2"/>
<rect x="1.5" y="23.5" width="1.5" height="1.75" fill="#FFC2C2"/>
<rect x="3" y="32.5" width="1.75" height="3" fill="#FFC2C2"/>
<rect x="14.25" y="32.5" width="3.5" height="1.5" fill="#ED9497"/>
<rect x="9.5" y="27" width="3.25" height="1.75" fill="#ED9497"/>
<rect x="11.25" y="32.5" width="1.5" height="1.5" fill="#ED9497"/>
<rect x="4.75" y="34" width="1.5" height="1.5" fill="#ED9497"/>
<rect x="1.5" y="34" width="1.5" height="4.75" fill="#ED9497"/>
<rect y="32.5" width="3" height="1.5" fill="#ED9497"/>
<rect x="4.75" y="32.5" width="3.25" height="1.5" fill="#ED9497"/>
<rect x="11.25" y="25.25" width="1.5" height="1.75" fill="#ED9497"/>
<rect x="1.5" y="21.5" width="3.25" height="2" fill="#ED9497"/>
<rect x="3" y="25.25" width="5" height="1.75" fill="#ED9497"/>
<rect x="8" y="35.75" width="1.75" height="1.5" fill="#CB6067"/>
<rect x="6.25" y="37.25" width="1.75" height="1.5" fill="#CB6067"/>
<rect x="9.5" y="46.75" width="1.75" height="4.75" fill="#BD5B61"/>
<rect x="11.25" y="45" width="1.5" height="3.25" fill="#ED9497"/>
<rect x="12.75" y="46.75" width="1.75" height="1.5" fill="#ED9497"/>
<rect x="3.25" y="46.75" width="6.25" height="1.5" fill="#ED9497"/>
<rect x="6.5" y="51.5" width="3" height="1.75" fill="#ED9497"/>
<rect x="4.75" y="53.25" width="3.25" height="1.75" fill="#ED9497"/>
<rect x="6.5" y="48.25" width="3" height="3.25" fill="#ED9497"/>
<rect y="35.75" width="1.5" height="3" fill="#CB6067"/>
<rect x="8" y="34" width="3.25" height="1.75" fill="#ED9497"/>
<rect y="30.75" width="11.25" height="1.75" fill="#ED9497"/>
<rect x="1.75" y="28.75" width="9.5" height="2" fill="#ED9497"/>
<rect x="9.75" y="35.75" width="4.75" height="1.75" fill="#FFC2C2"/>
<rect x="8" y="37.25" width="6.5" height="1.5" fill="#FFC2C2"/>
<rect x="6.25" y="38.75" width="6.5" height="1.5" fill="#FFC2C2"/>
<rect x="12.75" y="38.75" width="1.75" height="1.5" fill="#1A1E36"/>
<rect x="4.75" y="40.25" width="9.75" height="1.5" fill="#1A1E36"/>
<rect x="28" y="53.5" width="1.5" height="8.75" fill="#1A1E36"/>
<rect x="29.5" y="57" width="1.75" height="3.5" fill="#1A1E36"/>
<rect x="26.5" y="58.5" width="1.5" height="5" fill="#1A1E36"/>
<rect x="25" y="55" width="1.5" height="3.5" fill="#1A1E36"/>
<rect x="23" y="55" width="2" height="1.5" fill="#1A1E36"/>
<path d="M24.75 30.5H29.75V32H24.75V30.5Z" fill="#1A1E36"/>
<rect x="23.25" y="26.75" width="1.5" height="5.25" fill="#1A1E36"/>
<rect x="23.25" y="23.25" width="1.5" height="1.75" fill="#1A1E36"/>
<rect x="43.5" y="3.75" width="1.5" height="3.25" fill="#1A1E36"/>
<rect x="32.5" y="9" width="1.5" height="1.75" fill="#1A1E36"/>
<rect x="35.75" y="55" width="3.25" height="2" fill="#D1B6BB"/>
<rect x="32.5" y="57" width="3.25" height="1.75" fill="#D1B6BB"/>
<rect x="23.25" y="21.5" width="1.5" height="1.75" fill="#D1B6BB"/>
<rect x="34" y="26.75" width="1.75" height="2" fill="#AE96AB"/>
<rect x="39" y="8.75" width="1.5" height="2" fill="#AE96AB"/>
<rect x="57.25" y="12.75" width="3.25" height="1.5" fill="#C6A3A2"/>
<rect x="35.75" y="26.75" width="4.75" height="2" fill="#C6A3A2"/>
<rect x="29.75" y="26.75" width="1.75" height="2" fill="#C6A3A2"/>
<rect x="29.75" y="21.5" width="2.75" height="5.25" fill="#C6A3A2"/>
<rect x="34" y="17.75" width="3.25" height="1.75" fill="#C6A3A2"/>
<rect x="28.25" y="19.5" width="5.75" height="2" fill="#C6A3A2"/>
<rect x="26.5" y="17.75" width="1.75" height="3.75" fill="#C6A3A2"/>
<rect x="14.75" y="21.5" width="1.5" height="5.25" fill="#C6A3A2"/>
<rect x="34" y="10.75" width="5" height="1.75" fill="#C6A3A2"/>
<rect x="16.25" y="14.25" width="10.25" height="1.75" fill="#C6A3A2"/>
<rect x="26.5" y="9" width="6" height="1.75" fill="#C6A3A2"/>
<rect x="40.5" y="21.25" width="1.5" height="4" fill="#AE96AB"/>
<rect x="37.25" y="17.75" width="1.75" height="1.75" fill="#AE96AB"/>
<rect x="24.75" y="19.75" width="1.75" height="1.75" fill="#AE96AB"/>
<rect x="42" y="2" width="1.5" height="5" fill="#AE96AB"/>
<rect x="39" y="9" width="1.5" height="1.75" fill="#AE96AB"/>
<rect x="16.25" y="7" width="5.5" height="1.75" fill="#AE96AB"/>
<rect x="32.5" y="55.25" width="1.75" height="1.75" fill="#F68836"/>
<rect x="32.5" y="14.25" width="1.5" height="1.75" fill="#F68836"/>
<rect x="51.25" y="16" width="3" height="1.75" fill="#F7A64C"/>
<rect x="26.5" y="16" width="4.25" height="1.75" fill="#F7A64C"/>
<rect x="34" y="14.25" width="1.75" height="1.75" fill="#F7A64C"/>
<rect x="30.25" y="12.5" width="5.5" height="1.75" fill="#F7A64C"/>
<rect x="34.25" y="53.5" width="1.5" height="3.5" fill="#FEBC41"/>
<rect x="30.75" y="16" width="3.25" height="1.75" fill="#FEBC41"/>
<rect x="28.25" y="14.25" width="4.25" height="1.75" fill="#FEBC41"/>
<rect x="26.5" y="12.5" width="3.75" height="1.75" fill="#FEBC41"/>
<rect x="28" y="10.75" width="6" height="1.75" fill="#FEBC41"/>
<rect x="31.25" y="53.5" width="1.25" height="1.75" fill="#F7A875"/>
<rect x="8" y="23.5" width="1.5" height="1.75" fill="#F7A875"/>
<rect x="29.5" y="53.5" width="1.75" height="3.5" fill="#FCFCF2"/>
<rect x="31.25" y="51.75" width="7.75" height="1.75" fill="#FCFCF2"/>
<rect x="31.25" y="57" width="1.25" height="1.75" fill="#FCFCF2"/>
<rect x="32.5" y="53.5" width="1.75" height="1.75" fill="#FCFCF2"/>
<rect x="35.75" y="53.5" width="1.75" height="1.5" fill="#FCFCF2"/>
<rect x="34" y="50" width="1.75" height="1.75" fill="#FCFCF2"/>
<rect x="26.5" y="14.25" width="1.75" height="1.75" fill="#FC863C"/>
<rect x="46.5" y="23.5" width="10.75" height="1.5" fill="#1A1E36"/>
<rect x="48" y="19.5" width="1.5" height="4" fill="#1A1E36"/>
<rect x="51.25" y="25" width="6" height="1.75" fill="#1A1E36"/>
<rect x="57.25" y="19.5" width="1.75" height="1.75" fill="#1A1E36"/>
<rect x="55.75" y="17.75" width="6.5" height="1.75" fill="#1A1E36"/>
<rect x="55.75" y="21.25" width="1.5" height="2.25" fill="#1A1E36"/>
</svg>
