<svg width="47" height="64" viewBox="0 0 47 64" fill="none" xmlns="http://www.w3.org/2000/svg">
<path d="M10.7826 7.67275L13.3401 7.6726V4.60356H16.0108V2.55753H21.0127V0H23.5703V2.55753H26.2409V0H28.7985V2.55753H35.9595V5.11506H38.5171V24.041H35.8464V29.156H33.2889V32.2249L30.7313 32.2249V34.7824L16.0108 34.7826V32.2251H13.3402L13.3401 29.156H10.7826V7.67275Z" fill="#F8F478"/>
<rect x="10.7826" y="7.67261" width="2.55753" height="21.4833" fill="black"/>
<rect x="13.3401" y="29.156" width="2.55753" height="3.06904" fill="black"/>
<path d="M15.8977 32.2249H30.7314V34.7824H15.8977V32.2249Z" fill="black"/>
<rect x="30.7314" y="29.156" width="2.55753" height="3.06904" fill="black"/>
<rect x="35.8464" y="5.11499" width="2.55753" height="18.9257" fill="black"/>
<rect x="33.2889" y="26.0869" width="2.55753" height="3.06904" fill="black"/>
<path d="M28.6853 2.55762H35.8464V5.11515H31.2429V8.69569H28.6853V13.2993H26.1278V8.69569H28.6853V5.11515V2.55762Z" fill="black"/>
<rect x="26.1278" width="2.55753" height="2.55753" fill="black"/>
<rect x="21.0127" width="2.55753" height="2.55753" fill="black"/>
<rect x="13.3401" y="4.60352" width="2.55753" height="3.06904" fill="black"/>
<path d="M15.8977 2.55762H21.0128V4.60364V8.69569H23.5703V13.2993H21.0128V8.69569H18.4552V4.60364H15.8977V2.55762Z" fill="black"/>
<path d="M15.8977 4.60352H18.4552V8.69557H21.0128V13.2991H18.4552H15.8977V4.60352Z" fill="#FFFDC8"/>
<rect x="15.8977" y="13.2991" width="2.55753" height="10.7416" fill="#FFFAE0"/>
<rect x="21.0127" y="13.2991" width="2.55753" height="6.64958" fill="#FFFDC8"/>
<rect x="21.0127" y="19.9487" width="2.55753" height="4.09205" fill="#FFD584"/>
<rect x="26.1278" y="13.2991" width="2.55753" height="3.58054" fill="#FFFDC8"/>
<path d="M28.6853 8.69553H31.2428V5.11499H33.8004V8.69553H31.7543V11.2531H28.6853V8.69553Z" fill="#FFFDC8"/>
<rect x="21.0127" y="2.55762" width="2.55753" height="2.55753" fill="#FFFDC8"/>
<path d="M23.5702 2.55762H26.1278V5.11515H28.6853V8.69569H26.1278V13.2993H23.5702V8.69569H21.0127V5.11515H23.5702V2.55762Z" fill="#FDDF73"/>
<rect x="23.5702" y="13.2991" width="2.55753" height="3.58054" fill="#FFD336"/>
<path d="M18.4552 26.5982H21.0127V29.1557H23.5703V26.5982H29.7083V21.9946H33.8004V5.11499H35.8464V26.0867H33.2889V29.1557H30.7314V32.2248H21.0127H18.4552V26.5982Z" fill="#FDDF73"/>
<path d="M22.609 33.7392H26.435V48.6957H28.1742V44.8696H30.2611V43.1305H32.0003V39.3044H34.0872V37.5652H35.8263V35.4783H37.9133V33.7392H39.6524V32H46.9568V37.5652H44.8698V41.0435H43.1307V43.1305H41.3916V50.4348H39.6524V52.1739H37.9133V56H36.1742V58.087H34.0872V59.8261H32.0003V61.9131H28.1742V64H26.435H22.609V61.9131L16.6956 61.913V59.8261H13.913V58.0869H11.8261V56H9.73913V50.4348H7.65217V48.6956H5.56521V43.1304H3.47826V41.3913H1.73913V39.3043H0V35.4783H9.3913V37.5652H11.8261V39.3043H14.6087V41.3913H16.3478V43.1304H18.4348V44.8696H20.5217V46.6087H22.609V33.7392Z" fill="#8FDE8F"/>
<rect y="35.4783" width="1.73913" height="3.82609" fill="black"/>
<rect x="1.73914" y="39.3044" width="1.73913" height="2.08696" fill="black"/>
<rect x="3.47827" y="41.3914" width="2.08696" height="1.73913" fill="black"/>
<rect x="7.65222" y="46.6086" width="2.08696" height="3.82609" fill="black"/>
<rect x="9.73914" y="50.4348" width="2.08696" height="5.56521" fill="black"/>
<rect x="11.826" y="56" width="2.08696" height="2.08696" fill="black"/>
<rect x="13.9131" y="58.0869" width="2.78261" height="1.73913" fill="black"/>
<rect x="16.6957" y="59.8262" width="5.91304" height="2.08696" fill="black"/>
<rect x="22.6086" y="61.9131" width="5.56521" height="2.08696" fill="black"/>
<rect x="28.174" y="59.8262" width="3.82609" height="2.08696" fill="black"/>
<rect x="32" y="58.0869" width="2.08696" height="1.73913" fill="black"/>
<rect x="34.0869" y="56" width="2.08696" height="2.08696" fill="black"/>
<rect x="37.9131" y="50.4348" width="1.73913" height="1.73913" fill="black"/>
<rect x="41.3912" y="41.3914" width="1.73913" height="1.73913" fill="black"/>
<rect x="43.1304" y="37.5652" width="1.73913" height="3.82609" fill="black"/>
<path d="M39.6521 32H46.9564V37.5652H44.8695V33.7391H39.6521V32Z" fill="black"/>
<rect x="36.174" y="52.1738" width="1.73913" height="3.82609" fill="black"/>
<rect x="39.6521" y="43.1304" width="1.73913" height="7.30434" fill="black"/>
<rect x="5.56519" y="43.1304" width="2.08696" height="5.56521" fill="black"/>
<rect x="37.9131" y="33.739" width="1.73913" height="1.73913" fill="black"/>
<rect x="35.826" y="35.4783" width="2.08696" height="2.08696" fill="black"/>
<rect x="32" y="39.3044" width="2.08696" height="2.08696" fill="black"/>
<rect x="9.39136" y="37.5652" width="2.43478" height="1.73913" fill="black"/>
<rect x="3.47827" y="35.4783" width="5.91304" height="2.08696" fill="black"/>
<rect x="11.826" y="39.3044" width="2.78261" height="2.08696" fill="black"/>
<rect x="14.6086" y="41.3914" width="1.73913" height="1.73913" fill="black"/>
<rect x="22.6086" y="33.739" width="3.82609" height="2.08696" fill="black"/>
<rect x="16.3478" y="43.1304" width="2.08696" height="1.73913" fill="black"/>
<rect x="30.2609" y="43.1304" width="1.73913" height="1.73913" fill="black"/>
<rect x="18.4348" y="44.8696" width="2.08696" height="1.73913" fill="black"/>
<rect x="26.4348" y="58.0869" width="1.73913" height="1.73913" fill="black"/>
<rect x="20.5217" y="46.6086" width="2.08696" height="3.82609" fill="black"/>
<rect x="22.6086" y="50.4348" width="1.73913" height="9.3913" fill="black"/>
<rect x="24.3478" y="59.8262" width="2.08696" height="2.08696" fill="black"/>
<rect x="28.174" y="44.8696" width="2.08696" height="3.82609" fill="black"/>
<rect x="26.4348" y="48.6956" width="1.73913" height="7.30434" fill="black"/>
<rect x="34.0869" y="37.5652" width="1.73913" height="1.73913" fill="black"/>
<path d="M22.6086 35.8262H26.4347V37.5653V43.1305H24.3478V37.5653H22.6086V35.8262Z" fill="#206B74"/>
<path d="M11.826 52.174H13.913V54.2609H17.0434V56.0001H20.8695V54.2609H22.6087V59.8262H24.3478V52.174H26.4347V56.0001H28.1739H30.2608V52.174H34.0869V48.6957H36.1739V44.8696H37.5652V43.1305H39.6521V39.4783H41.3913V37.5653H43.1304V35.8262H44.8695V37.5653H43.1304V41.3914H41.3913V43.1305H39.6521V50.4349H37.913V52.174H36.1739V56.0001H34.0869V58.087H32V59.8262H28.1739V58.087H26.4347V59.8262H28.1739V61.9131H26.4347V59.8262H24.3478V61.9131H22.6087V59.8262H16.6956V58.087H13.913V56.0001H11.826V52.174Z" fill="#206B74"/>
<rect x="24.3478" y="46.6086" width="2.08696" height="3.82609" fill="#206B74"/>
<rect x="22.6086" y="46.6086" width="1.73913" height="3.82609" fill="#A2D2A6"/>
<rect x="3.47827" y="37.5652" width="2.08696" height="1.73913" fill="#F7EBE0"/>
<rect x="5.56519" y="39.3044" width="2.08696" height="2.08696" fill="#F7EBE0"/>
<path d="M7.65222 41.3914H10.7827V43.1305V44.8696H9.04353V43.1305H7.65222V41.3914Z" fill="#F7EBE0"/>
<path d="M9.73914 48.6956H12.8696V50.4347H15.3044V48.6956H16.6957V46.6086H20.5217V48.6956V50.4347H22.6087V54.2608H20.8696V55.9999H17.0435V54.2608H13.913V52.1739H11.8261V50.4347H9.73914V48.6956Z" fill="#5ABD8E"/>
<rect x="24.3478" y="50.4348" width="2.08696" height="1.73913" fill="#44B07B"/>
<rect x="28.174" y="52.5217" width="2.08696" height="1.73913" fill="#54BE8E"/>
<rect x="32" y="50.0869" width="2.08696" height="2.08696" fill="#51B982"/>
<rect x="34.0869" y="46.6086" width="2.08696" height="2.08696" fill="#51B982"/>
<rect x="30.2609" y="46.6086" width="2.08696" height="2.08696" fill="#51B982"/>
<rect x="32" y="41.3914" width="2.08696" height="1.73913" fill="#5BBE8A"/>
<rect x="32" y="43.1304" width="2.08696" height="1.73913" fill="#FDE6C5"/>
<rect x="37.9131" y="35.4783" width="1.73913" height="2.08696" fill="#E0EFAC"/>
<rect x="41.3912" y="33.739" width="1.73913" height="2.08696" fill="#E0EFAC"/>
<rect x="43.1304" y="33.739" width="1.73913" height="2.08696" fill="#4BB78D"/>
<rect x="41.3912" y="35.8262" width="1.73913" height="1.73913" fill="#4BB78D"/>
<rect x="37.5652" y="39.3044" width="2.08696" height="3.82609" fill="#53B188"/>
<rect x="28.174" y="54.2607" width="2.08696" height="1.73913" fill="#44A978"/>
<rect x="1.73914" y="35.4783" width="1.73913" height="2.08696" fill="#5DBE90"/>
<rect x="1.73914" y="37.5652" width="1.73913" height="1.73913" fill="#62BC88"/>
<rect x="3.47827" y="39.3044" width="2.08696" height="2.08696" fill="#62BC88"/>
<rect x="7.65222" y="43.1304" width="1.3913" height="1.73913" fill="#62BC88"/>
<rect x="22.6086" y="37.5652" width="1.73913" height="9.04347" fill="#5DBD98"/>
<rect x="24.3478" y="43.1304" width="2.08696" height="3.47826" fill="#4EAD83"/>
</svg>
