<svg width="43" height="64" viewBox="0 0 43 64" fill="none" xmlns="http://www.w3.org/2000/svg">
<path d="M19.4158 35.236H23.7304V43.8652H25.8877V41.7079H30.2023V39.5506H40.2697V46.7416H38.1124V48.8989H35.9551V51.0562H34.5169V53.2135H23.7304V64H19.4158V61.8427V53.2135H8.62926V51.0562H7.19106V48.8989H4.31465V43.8652H2.15735V39.5506H12.9439V41.7079H15.1012V44.5843H17.2585V46.7416H19.4158V35.236Z" fill="#121C35"/>
<path d="M17.2584 0H25.8876V2.1573H28.0449V6.47191H30.2022V4.31461H34.5169V6.47191H35.9551V8.62921H40.2697V15.8202H38.1124V17.9775H40.2697V20.1348H42.427V24.4494H40.2697V26.6067H35.9551V28.764H32.3596V30.2022H28.0449V33.7978H25.8876V35.9551H17.2584V33.7978H15.1011V30.9213H10.7865V29.4831H6.47191V26.6067H2.1573V24.4494H0V20.1348H2.1573V17.9775H4.31461V15.8202H2.1573V8.62921H6.47191V6.47191H8.62921V4.31461H12.9438V6.47191H15.1011V2.1573H17.2584V0Z" fill="black"/>
<path d="M4.31458 10.7865H8.62918V6.47192H12.9438V8.62923H15.1011V10.7865V13.6629H4.31458V10.7865Z" fill="white"/>
<path d="M4.31465 17.9775H12.9439V22.2921H10.7866V23.7303H5.03375V22.2921H2.15735V20.1348H4.31465V17.9775Z" fill="white"/>
<path d="M17.2584 2.15735H25.8876V7.19106H23.7303V8.62926H17.2584V2.15735Z" fill="white"/>
<path d="M28.0449 8.62923H30.2022V6.47192H34.5168V8.62923V10.7865H38.1123V13.6123L28.0449 13.6629V8.62923Z" fill="white"/>
<path d="M17.2584 24.4495H23.7303V29.4832H21.573V31.6405H17.2584V29.4832H15.1011V26.6068H17.2584V24.4495Z" fill="white"/>
<path d="M30.2023 17.9775H38.1124V20.1348H40.2697V22.2921H38.1124V23.7303H32.3596V22.2921H30.2023V17.9775Z" fill="white"/>
<path d="M17.2584 11.5056H25.8876V13.6629H28.0449V20.1348H25.8876V22.2921H17.2584V20.1348H15.1011V13.6629H17.2584V11.5056Z" fill="#DC9276"/>
<rect x="2.15735" y="10.7865" width="2.1573" height="2.8764" fill="#B5D3EF"/>
<rect x="15.1011" y="4.31458" width="2.1573" height="4.31461" fill="#B5D3EF"/>
<rect x="38.1123" y="10.7865" width="2.1573" height="2.8764" fill="#B5D3EF"/>
<rect x="23.7303" y="7.19104" width="2.1573" height="1.4382" fill="#B5D3EF"/>
<rect x="15.1011" y="24.4495" width="2.1573" height="2.1573" fill="#B5D3EF"/>
<rect x="15.1011" y="29.4832" width="2.1573" height="2.1573" fill="#B5D3EF"/>
<path d="M17.2584 31.6405H21.573V29.4832H23.7303V24.4495H28.0449V31.6405H23.7303V33.7978H17.2584V31.6405Z" fill="#B5D3EF"/>
<path d="M17.2584 31.6405H21.573V29.4832H23.7303V24.4495H28.0449V31.6405H23.7303V33.7978H17.2584V31.6405Z" fill="#B5D3EF"/>
<path d="M2.15735 22.2922H5.03375V23.7304H10.7866V22.2922H12.9439V20.1349H15.1012V23.7304V24.4495H12.9439V25.1686H10.7866V26.6068H8.62926V24.4495H2.15735V22.2922Z" fill="#B5D3EF"/>
<rect x="4.31458" y="13.663" width="8.62921" height="2.1573" fill="#B5D3EF"/>
<rect x="30.2023" y="13.663" width="7.91011" height="2.1573" fill="#B5D3EF"/>
<path d="M28.0449 20.1349H30.2022V22.2922H32.3595V23.7304H38.1123V22.2922H40.2696V24.4495H34.5168V27.3259H32.3595V25.1686H30.2022V24.4495H28.0449V20.1349Z" fill="#B5D3EF"/>
<path d="M10.7865 28.764H12.9438V26.6067H15.1011V28.764V30.9213H10.7865V28.764Z" fill="#CB8D90"/>
<path d="M28.0449 26.6067H30.2022V28.764H32.3595V30.9213H30.2022H28.0449V26.6067Z" fill="#CB8D90"/>
<path d="M17.2584 11.5056H25.8876V18.6966H23.7303V20.8539H19.4157V18.6966H15.1011V13.6629H17.2584V11.5056Z" fill="#FFD405"/>
<rect x="18.6967" y="11.5056" width="3.59551" height="2.1573" fill="white"/>
<path d="M4.31458 39.5505H10.7865V41.7078H12.9438V43.8651H17.2584V46.0224H12.9438V48.8989H10.7865V46.0224H7.19098V43.8651H4.31458V39.5505Z" fill="#A0C47A"/>
<path d="M40.2697 39.5505H33.0786V41.7078H30.2022H28.0449V46.0224H30.2022V48.8989H32.3595V46.0224H35.955V43.8651H37.3932V41.7078H40.2697V39.5505Z" fill="#A0C47A"/>
<rect x="2.15735" y="39.5505" width="2.1573" height="2.1573" fill="#19655D"/>
<rect x="35.9551" y="43.8651" width="1.4382" height="2.1573" fill="#19655D"/>
<path d="M32.3596 46.0224H35.9551V48.8988H34.5169V51.0561H25.8877V43.8651H28.045V46.0224H30.2023V48.8988H32.3596V46.0224Z" fill="#19655D"/>
<rect x="7.19104" y="46.0225" width="3.59551" height="2.8764" fill="#19655D"/>
<path d="M8.62927 48.8989H12.9439V46.0225H17.2585V48.8989V51.0562H8.62927V48.8989Z" fill="#19655D"/>
<rect x="4.31458" y="43.8651" width="2.8764" height="2.1573" fill="#19655D"/>
<rect x="21.573" y="59.6854" width="2.1573" height="4.31461" fill="#19655D"/>
<rect x="19.4158" y="35.236" width="2.1573" height="28.764" fill="#227A62"/>
<rect x="21.573" y="37.3933" width="2.1573" height="15.8202" fill="#166560"/>
</svg>
