<svg width="64" height="64" viewBox="0 0 64 64" fill="none" xmlns="http://www.w3.org/2000/svg">
<g clip-path="url(#clip0_1011_16928)">
<path d="M30.4158 35.236H34.7304V43.8652H36.8877V41.7079H41.2023V39.5506H51.2697V46.7416H49.1124V48.8989H46.9551V51.0562H45.5169V53.2135H34.7304V64H30.4158V61.8427V53.2135H19.6293V51.0562H18.1911V48.8989H15.3147V43.8652H13.1573V39.5506H23.9439V41.7079H26.1012V44.5843H28.2585V46.7416H30.4158V35.236Z" fill="#121C35"/>
<path d="M28.2584 0H36.8876V2.1573H39.0449V6.47191H41.2022V4.31461H45.5169V6.47191H46.9551V8.62921H51.2697V15.8202H49.1124V17.9775H51.2697V20.1348H53.427V24.4494H51.2697V26.6067H46.9551V28.764H43.3596V30.2022H39.0449V33.7978H36.8876V35.9551H28.2584V33.7978H26.1011V30.9213H21.7865V29.4831H17.4719V26.6067H13.1573V24.4494H11V20.1348H13.1573V17.9775H15.3146V15.8202H13.1573V8.62921H17.4719V6.47191H19.6292V4.31461H23.9438V6.47191H26.1011V2.1573H28.2584V0Z" fill="black"/>
<path d="M15.3146 10.7865H19.6292V6.47192H23.9438V8.62923H26.1011V10.7865V13.6629H15.3146V10.7865Z" fill="#E2B7E3"/>
<path d="M15.3147 17.9775H23.9439V22.2921H21.7866V23.7303H16.0338V22.2921H13.1573V20.1348H15.3147V17.9775Z" fill="#E2B7E3"/>
<path d="M28.2584 2.15735H36.8876V7.19106H34.7303V8.62926H28.2584V2.15735Z" fill="#E2B7E3"/>
<path d="M39.0449 8.62923H41.2022V6.47192H45.5168V8.62923V10.7865H49.1123V13.6123L39.0449 13.6629V8.62923Z" fill="#E2B7E3"/>
<path d="M28.2584 24.4495H34.7303V29.4832H32.573V31.6405H28.2584V29.4832H26.1011V26.6068H28.2584V24.4495Z" fill="#E2B7E3"/>
<path d="M41.2023 17.9775H49.1124V20.1348H51.2697V22.2921H49.1124V23.7303H43.3596V22.2921H41.2023V17.9775Z" fill="#E2B7E3"/>
<path d="M28.2584 11.5056H36.8876V13.6629H39.0449V20.1348H36.8876V22.2921H28.2584V20.1348H26.1011V13.6629H28.2584V11.5056Z" fill="#DC9276"/>
<rect x="13.1573" y="10.7865" width="2.1573" height="2.8764" fill="#A57FA6"/>
<rect x="26.1011" y="4.31458" width="2.1573" height="4.31461" fill="#A57FA6"/>
<rect x="49.1123" y="10.7865" width="2.1573" height="2.8764" fill="#A57FA6"/>
<rect x="34.7303" y="7.19104" width="2.1573" height="1.4382" fill="#A57FA6"/>
<rect x="26.1011" y="24.4495" width="2.1573" height="2.1573" fill="#A57FA6"/>
<rect x="26.1011" y="29.4832" width="2.1573" height="2.1573" fill="#A57FA6"/>
<path d="M28.2584 31.6405H32.573V29.4832H34.7303V24.4495H39.0449V31.6405H34.7303V33.7978H28.2584V31.6405Z" fill="#A57FA6"/>
<path d="M28.2584 31.6405H32.573V29.4832H34.7303V24.4495H39.0449V31.6405H34.7303V33.7978H28.2584V31.6405Z" fill="#A57FA6"/>
<path d="M13.1573 22.2922H16.0338V23.7304H21.7866V22.2922H23.9439V20.1349H26.1012V23.7304V24.4495H23.9439V25.1686H21.7866V26.6068H19.6293V24.4495H13.1573V22.2922Z" fill="#A57FA6"/>
<rect x="15.3146" y="13.663" width="8.62921" height="2.1573" fill="#A57FA6"/>
<rect x="41.2023" y="13.663" width="7.91011" height="2.1573" fill="#A57FA6"/>
<path d="M39.0449 20.1349H41.2022V22.2922H43.3595V23.7304H49.1123V22.2922H51.2696V24.4495H45.5168V27.3259H43.3595V25.1686H41.2022V24.4495H39.0449V20.1349Z" fill="#A57FA6"/>
<path d="M21.7865 28.764H23.9438V26.6067H26.1011V28.764V30.9213H21.7865V28.764Z" fill="#CB8D90"/>
<path d="M39.0449 26.6067H41.2022V28.764H43.3595V30.9213H41.2022H39.0449V26.6067Z" fill="#CB8D90"/>
<path d="M28.2584 11.5056H36.8876V18.6966H34.7303V20.8539H30.4157V18.6966H26.1011V13.6629H28.2584V11.5056Z" fill="#FFD405"/>
<rect x="29.6967" y="11.5056" width="3.59551" height="2.1573" fill="white"/>
<path d="M15.3146 39.5505H21.7865V41.7078H23.9438V43.8651H28.2584V46.0224H23.9438V48.8989H21.7865V46.0224H18.191V43.8651H15.3146V39.5505Z" fill="#A0C47A"/>
<path d="M51.2697 39.5505H44.0786V41.7078H41.2022H39.0449V46.0224H41.2022V48.8989H43.3595V46.0224H46.955V43.8651H48.3932V41.7078H51.2697V39.5505Z" fill="#A0C47A"/>
<rect x="13.1573" y="39.5505" width="2.1573" height="2.1573" fill="#19655D"/>
<rect x="46.9551" y="43.8651" width="1.4382" height="2.1573" fill="#19655D"/>
<path d="M43.3596 46.0224H46.9551V48.8988H45.5169V51.0561H36.8877V43.8651H39.045V46.0224H41.2023V48.8988H43.3596V46.0224Z" fill="#19655D"/>
<rect x="18.191" y="46.0225" width="3.59551" height="2.8764" fill="#19655D"/>
<path d="M19.6293 48.8989H23.9439V46.0225H28.2585V48.8989V51.0562H19.6293V48.8989Z" fill="#19655D"/>
<rect x="15.3146" y="43.8651" width="2.8764" height="2.1573" fill="#19655D"/>
<rect x="32.573" y="59.6854" width="2.1573" height="4.31461" fill="#19655D"/>
<rect x="30.4158" y="35.236" width="2.1573" height="28.764" fill="#227A62"/>
<rect x="32.573" y="37.3933" width="2.1573" height="15.8202" fill="#166560"/>
</g>
<defs>
<clipPath id="clip0_1011_16928">
<rect width="42.427" height="64" fill="white" transform="translate(11)"/>
</clipPath>
</defs>
</svg>
