<svg width="64" height="64" viewBox="0 0 63 64" fill="none" xmlns="http://www.w3.org/2000/svg">
<path d="M14.5195 8.8189H15.9961V7.05512H22.6406V2.01575H24.3633V0H33.4688V2.01575H36.668V0H41.3438V2.01575H42.8203V3.77953H44.2969V7.05512H42.8203V8.8189H39.8672V10.5827H47.4961V8.8189H48.9727V7.05512H47.4961V5.54331H50.4492V7.05512H51.9258V8.8189H54.8789V9.82677H56.3555V12.8504H58.0781V11.0866H59.5547V12.8504H61.2773V14.3622H62.8636V16.126H61.2773V19.6535H58.0781V21.4173H56.3555V26.9606H50.5723V25.1969H45.7734V26.9606H44.2969V28.9764H42.6839V30.7402H35.3011V28.9764H31.0078V30.7402H29.2852V32.252H22.8867V26.9606H19.4414V28.7244H15.9961V26.9606H14.5195V19.9055H16.2422V18.1417H17.7188V16.126H15.9961V14.3622H14.5195V8.8189Z" fill="#E2B7E2"/>
<rect x="32.2383" y="59.2126" width="1.47656" height="1.76378" fill="#D9C8C0"/>
<rect x="32.2383" y="60.9763" width="1.47656" height="1.51181" fill="#1E8083"/>
<rect x="31.9922" y="47.1182" width="4.92188" height="1.76378" fill="#1E8083"/>
<rect x="27.5625" y="50.6458" width="1.47656" height="3.27559" fill="#1E8083"/>
<rect x="19.4414" y="38.0474" width="1.72266" height="4.03149" fill="#1E8083"/>
<rect x="17.7188" y="38.0474" width="1.72266" height="2.51968" fill="#1E8083"/>
<rect x="19.4414" y="50.6458" width="4.92188" height="1.76378" fill="#1E8083"/>
<rect x="21.1641" y="52.4094" width="3.19922" height="1.51181" fill="#1E8083"/>
<rect x="22.6406" y="53.9211" width="3.44531" height="1.51181" fill="#1E8083"/>
<rect x="24.3633" y="48.8818" width="1.72266" height="3.27559" fill="#531263"/>
<rect x="21.1641" y="38.0474" width="1.47656" height="4.03149" fill="#531263"/>
<rect x="33.4688" y="45.6062" width="4.92188" height="1.51181" fill="#1E8083"/>
<rect x="33.4688" y="44.0945" width="3.44531" height="1.51181" fill="#1E8083"/>
<rect x="36.9141" y="42.3308" width="5.90625" height="1.76378" fill="#1E8083"/>
<rect x="38.3906" y="44.0945" width="1.72266" height="1.51181" fill="#287178"/>
<rect x="36.9141" y="40.8188" width="1.47656" height="1.51181" fill="#287178"/>
<rect x="1.47656" y="25.4487" width="1.47656" height="1.76378" fill="#287178"/>
<rect x="39.8672" y="40.8188" width="4.67578" height="1.51181" fill="#287178"/>
<rect x="41.3438" y="37.7952" width="4.67578" height="1.51181" fill="#287178"/>
<rect x="31.9922" y="34.2678" width="0.738281" height="9.82677" fill="#184549"/>
<rect x="33.4688" y="28.9763" width="0.984375" height="4.53543" fill="#184549"/>
<rect x="38.1445" y="30.7402" width="1.72266" height="2.01575" fill="#184549"/>
<rect x="35.9297" y="33.2598" width="0.984375" height="1.00787" fill="#184549"/>
<rect x="36.9141" y="34.2678" width="0.984375" height="1.00787" fill="#184549"/>
<rect x="42.8203" y="39.3071" width="3.19922" height="1.51181" fill="#287178"/>
<rect x="36.9141" y="44.0945" width="1.47656" height="1.51181" fill="#4ABD96"/>
<rect x="38.3906" y="40.8188" width="1.47656" height="1.51181" fill="#4ABD96"/>
<rect x="39.8672" y="39.3071" width="2.95312" height="1.51181" fill="#4ABD96"/>
<rect x="35.1914" y="42.3308" width="1.72266" height="1.76378" fill="#4ABD96"/>
<rect x="36.9141" y="53.9211" width="1.47656" height="1.76378" fill="#D9C8C0"/>
<rect x="30.7617" y="55.6851" width="1.23047" height="1.76378" fill="#D9C8C0"/>
<rect x="48.9727" y="7.05493" width="1.47656" height="1.76378" fill="#C89DB7"/>
<rect x="47.4961" y="5.54321" width="1.47656" height="1.51181" fill="#C89DB7"/>
<rect x="47.4961" y="8.81885" width="1.47656" height="1.76378" fill="#C89DB7"/>
<rect x="45.7734" y="16.126" width="1.47656" height="1.76378" fill="#C89DB7"/>
<rect x="48.7266" y="17.8896" width="1.72266" height="1.76378" fill="#C89DB7"/>
<rect x="36.9141" y="25.4487" width="4.42969" height="1.51181" fill="#C89DB7"/>
<rect x="38.3906" y="17.8896" width="4.42969" height="1.76378" fill="#C89DB7"/>
<rect x="24.3633" y="28.9763" width="4.92188" height="1.76378" fill="#C89DB7"/>
<rect x="24.3633" y="18.1416" width="1.72266" height="1.76378" fill="#C89DB7"/>
<rect x="19.4414" y="16.126" width="6.64453" height="2.01575" fill="#C89DB7"/>
<rect x="21.1641" y="23.4329" width="1.72266" height="1.76378" fill="#C89DB7"/>
<rect x="26.0859" y="10.8345" width="1.47656" height="1.76378" fill="#C89DB7"/>
<rect x="31.9922" y="7.30688" width="1.47656" height="1.76378" fill="#C89DB7"/>
<rect x="31.9922" width="1.47656" height="2.01575" fill="#30677C"/>
<rect x="14.5195" y="8.81885" width="1.47656" height="5.54331" fill="#30677C"/>
<rect x="47.25" y="14.3623" width="6.15234" height="1.76378" fill="#3D5873"/>
<rect x="47.25" y="12.5984" width="1.47656" height="1.76378" fill="#3D5873"/>
<rect x="47.25" y="16.126" width="1.47656" height="1.76378" fill="#3D5873"/>
<rect x="38.3906" y="19.6536" width="4.42969" height="1.76378" fill="#3D5873"/>
<rect x="42.8203" y="17.8896" width="4.42969" height="1.76378" fill="#3D5873"/>
<rect x="29.2852" y="28.9763" width="1.72266" height="1.76378" fill="#3D5873"/>
<rect x="27.8086" y="17.8896" width="5.66016" height="1.76378" fill="#3D5873"/>
<rect x="33.4688" y="16.126" width="1.72266" height="1.76378" fill="#3D5873"/>
<rect x="35.1914" y="12.5984" width="1.47656" height="5.29134" fill="#3D5873"/>
<rect x="39.8672" y="7.05518" width="2.95312" height="1.76378" fill="#3D5873"/>
<rect x="58.0781" y="11.0867" width="1.47656" height="1.76378" fill="#3D5873"/>
<rect x="61.2773" y="14.3623" width="1.72266" height="1.76378" fill="#3D5873"/>
<rect x="59.8008" y="16.126" width="1.47656" height="1.76378" fill="#3D5873"/>
<rect x="54.8789" y="9.82666" width="1.47656" height="2.77165" fill="#3D5873"/>
<rect x="53.4023" y="12.5984" width="1.47656" height="5.29134" fill="#3D5873"/>
<rect x="59.5547" y="12.8503" width="1.72266" height="1.51181" fill="#3D5873"/>
<rect x="45.7734" y="10.5828" width="1.47656" height="2.01575" fill="#3D5873"/>
<rect x="36.668" width="4.67578" height="2.01575" fill="#3D5873"/>
<rect x="33.4688" y="3.77954" width="1.72266" height="3.52756" fill="#3D5873"/>
<rect x="33.4688" y="2.01587" width="3.19922" height="1.76378" fill="#3D5873"/>
<rect x="24.3633" y="7.05518" width="1.72266" height="3.77953" fill="#3D5873"/>
<rect x="24.3633" width="1.72266" height="2.01575" fill="#3D5873"/>
<rect x="24.3633" y="12.5984" width="1.72266" height="1.76378" fill="#3D5873"/>
<rect x="17.7188" y="16.126" width="1.72266" height="2.01575" fill="#3D5873"/>
<rect x="16.2422" y="18.1418" width="1.47656" height="1.76378" fill="#3D5873"/>
<rect x="14.5195" y="19.9055" width="1.47656" height="1.76378" fill="#3D5873"/>
<rect x="19.4414" y="25.1968" width="3.44531" height="1.76378" fill="#3D5873"/>
<rect x="15.9961" y="26.9607" width="3.44531" height="1.76378" fill="#3D5873"/>
<rect x="22.6406" y="2.01587" width="1.72266" height="5.03937" fill="#3D5873"/>
<rect x="44.2969" y="23.6851" width="1.47656" height="1.76378" fill="#1A1E36"/>
<rect x="41.3438" y="25.4487" width="4.42969" height="1.51181" fill="#1A1E36"/>
<rect x="39.8672" y="26.9607" width="4.42969" height="2.01575" fill="#1A1E36"/>
<rect x="35.1914" y="28.9763" width="7.62891" height="1.76378" fill="#1A1E36"/>
<rect x="31.0078" y="26.9607" width="2.46094" height="7.30709" fill="#1A1E36"/>
<rect x="30.5156" y="34.2678" width="1.47656" height="7.30709" fill="#1A1E36"/>
<rect x="39.8672" y="30.7402" width="1.47656" height="2.01575" fill="#1A1E36"/>
<rect x="36.9141" y="32.7559" width="2.95312" height="1.51181" fill="#1A1E36"/>
<rect x="35.1914" y="34.2678" width="1.72266" height="4.53543" fill="#1A1E36"/>
<rect x="33.4688" y="37.5432" width="1.72266" height="6.55118" fill="#1A1E36"/>
<rect x="31.9922" y="44.0945" width="1.47656" height="3.02362" fill="#1A1E36"/>
<rect x="31.9922" y="48.8818" width="1.47656" height="3.27559" fill="#1A1E36"/>
<rect x="33.4688" y="48.8818" width="1.72266" height="1.51181" fill="#1A1E36"/>
<rect x="35.1914" y="50.3938" width="1.72266" height="1.76378" fill="#1A1E36"/>
<rect x="24.3633" y="52.1575" width="1.72266" height="1.76378" fill="#1A1E36"/>
<rect x="21.1641" y="53.9211" width="1.47656" height="1.51181" fill="#1A1E36"/>
<rect x="19.4414" y="52.4094" width="1.72266" height="1.51181" fill="#1A1E36"/>
<rect x="17.7188" y="50.6458" width="1.72266" height="1.76378" fill="#1A1E36"/>
<rect x="14.2734" y="47.1182" width="1.72266" height="1.51181" fill="#1A1E36"/>
<rect x="7.875" y="53.6692" width="1.47656" height="1.76378" fill="#1A1E36"/>
<rect x="11.0742" y="48.6299" width="1.72266" height="3.27559" fill="#1A1E36"/>
<rect x="9.35156" y="51.9055" width="1.72266" height="3.52756" fill="#1A1E36"/>
<rect x="15.9961" y="48.6299" width="1.72266" height="2.01575" fill="#1A1E36"/>
<rect x="30.5156" y="34.2678" width="1.47656" height="17.8898" fill="#1A1E36"/>
<rect x="29.0391" y="45.6062" width="1.47656" height="8.31496" fill="#1A1E36"/>
<rect x="22.6406" y="43.8425" width="1.72266" height="5.03937" fill="#1A1E36"/>
<rect x="21.1641" y="42.0789" width="1.47656" height="3.52756" fill="#1A1E36"/>
<rect x="17.7188" y="40.5669" width="1.72266" height="1.51181" fill="#1A1E36"/>
<rect x="14.2734" y="37.7952" width="3.44531" height="2.77165" fill="#1A1E36"/>
<rect x="17.7188" y="36.5354" width="1.72266" height="1.51181" fill="#1A1E36"/>
<rect x="15.75" y="34.2678" width="1.72266" height="1.76378" fill="#1A1E36"/>
<rect x="11.0742" y="28.9763" width="1.47656" height="2.01575" fill="#1A1E36"/>
<rect x="7.875" y="25.4487" width="1.47656" height="1.76378" fill="#1A1E36"/>
<rect x="2.95312" y="23.6851" width="4.92188" height="1.76378" fill="#1A1E36"/>
<rect x="7.875" y="32.7559" width="3.19922" height="1.51181" fill="#1A1E36"/>
<rect x="6.15234" y="34.2678" width="1.72266" height="3.27559" fill="#1A1E36"/>
<rect x="2.95312" y="39.0552" width="1.72266" height="1.51181" fill="#1A1E36"/>
<rect x="2.95312" y="35.7795" width="3.19922" height="3.27559" fill="#1A1E36"/>
<rect x="14.2734" y="36.0315" width="3.44531" height="1.76378" fill="#56146D"/>
<rect x="12.5508" y="45.3542" width="3.44531" height="1.76378" fill="#56146D"/>
<rect x="11.0742" y="30.9922" width="2.95312" height="1.76378" fill="#56146D"/>
<rect x="11.0742" y="34.2678" width="4.67578" height="1.76378" fill="#955B9F"/>
<rect x="12.5508" y="32.7559" width="1.47656" height="1.51181" fill="#955B9F"/>
<rect x="15.9961" y="47.1182" width="1.72266" height="1.51181" fill="#892FB3"/>
<rect x="1.47656" y="23.6851" width="1.47656" height="1.76378" fill="#955B9F"/>
<rect x="2.95312" y="32.7559" width="1.72266" height="3.02362" fill="#955B9F"/>
<rect x="14.0273" y="32.7559" width="3.44531" height="1.51181" fill="#5C2B6D"/>
<rect x="9.35156" y="27.2126" width="3.19922" height="1.76378" fill="#C698DB"/>
<rect x="11.0742" y="32.7559" width="1.47656" height="1.51181" fill="#5C2B6D"/>
<rect x="4.67578" y="34.2678" width="1.47656" height="1.51181" fill="#C698DB"/>
<rect x="1.47656" y="34.2678" width="1.47656" height="4.7874" fill="#C698DB"/>
<rect y="32.7559" width="2.95312" height="1.51181" fill="#C698DB"/>
<rect x="4.67578" y="32.7559" width="3.19922" height="1.51181" fill="#C698DB"/>
<rect x="11.0742" y="25.4487" width="1.47656" height="1.76378" fill="#C698DB"/>
<rect x="1.47656" y="21.6692" width="3.19922" height="2.01575" fill="#C698DB"/>
<rect x="2.95312" y="25.4487" width="4.92188" height="1.76378" fill="#C698DB"/>
<rect x="7.875" y="36.0315" width="1.72266" height="1.51181" fill="#531263"/>
<rect x="6.15234" y="37.5432" width="1.72266" height="1.51181" fill="#531263"/>
<rect x="9.35156" y="47.1182" width="1.72266" height="4.7874" fill="#531263"/>
<rect x="11.0742" y="45.3542" width="1.47656" height="3.27559" fill="#C698DB"/>
<rect x="12.5508" y="47.1182" width="1.72266" height="1.51181" fill="#C698DB"/>
<rect x="3.19922" y="47.1182" width="6.15234" height="1.51181" fill="#C698DB"/>
<rect x="6.39844" y="51.9055" width="2.95312" height="1.76378" fill="#C698DB"/>
<rect x="4.67578" y="53.6692" width="3.19922" height="1.76378" fill="#C698DB"/>
<rect x="6.39844" y="48.6299" width="2.95312" height="3.27559" fill="#C698DB"/>
<rect y="36.0315" width="1.47656" height="3.02362" fill="#531263"/>
<rect x="7.875" y="34.2678" width="3.19922" height="1.76378" fill="#C698DB"/>
<rect y="30.9922" width="11.0742" height="1.76378" fill="#C698DB"/>
<rect x="1.72266" y="28.9763" width="9.35156" height="2.01575" fill="#C698DB"/>
<rect x="9.59766" y="36.0315" width="4.67578" height="1.76378" fill="#955B9F"/>
<rect x="7.875" y="37.5432" width="6.39844" height="1.51181" fill="#955B9F"/>
<rect x="6.15234" y="39.0552" width="6.39844" height="1.51181" fill="#955B9F"/>
<rect x="12.5508" y="39.0552" width="1.72266" height="1.51181" fill="#1A1E36"/>
<rect x="4.67578" y="40.5669" width="9.59766" height="1.51181" fill="#1A1E36"/>
<rect x="27.5625" y="53.9211" width="1.47656" height="8.8189" fill="#1A1E36"/>
<rect x="29.0391" y="57.4487" width="1.72266" height="3.52756" fill="#1A1E36"/>
<rect x="26.0859" y="58.9607" width="1.47656" height="5.03937" fill="#1A1E36"/>
<rect x="24.6094" y="55.4331" width="1.47656" height="3.52756" fill="#1A1E36"/>
<rect x="22.6406" y="55.4331" width="1.96875" height="1.51181" fill="#1A1E36"/>
<path d="M24.3633 30.7402H29.2852V32.252H24.3633V30.7402Z" fill="#1A1E36"/>
<rect x="22.8867" y="26.9607" width="1.47656" height="5.29134" fill="#1A1E36"/>
<rect x="22.8867" y="23.4331" width="1.47656" height="1.76378" fill="#1A1E36"/>
<rect x="42.8203" y="3.77954" width="1.47656" height="3.27559" fill="#1A1E36"/>
<rect x="31.9922" y="9.0708" width="1.47656" height="1.76378" fill="#1A1E36"/>
<rect x="35.1914" y="55.4331" width="3.19922" height="2.01575" fill="#D1B6BB"/>
<rect x="31.9922" y="57.4487" width="3.19922" height="1.76378" fill="#D1B6BB"/>
<rect x="22.8867" y="21.6692" width="1.47656" height="1.76378" fill="#D1B6BB"/>
<rect x="33.4688" y="26.9607" width="1.72266" height="2.01575" fill="#AE96AB"/>
<rect x="38.3906" y="8.81885" width="1.47656" height="2.01575" fill="#AE96AB"/>
<rect x="56.3555" y="12.8506" width="3.19922" height="1.51181" fill="#9A749D"/>
<rect x="35.1914" y="26.9607" width="4.67578" height="2.01575" fill="#9A749D"/>
<rect x="29.2852" y="26.9607" width="1.72266" height="2.01575" fill="#9A749D"/>
<rect x="29.2852" y="21.6694" width="2.70703" height="5.29134" fill="#9A749D"/>
<rect x="33.4688" y="17.8899" width="3.19922" height="1.76378" fill="#9A749D"/>
<rect x="27.8086" y="19.6536" width="5.66016" height="2.01575" fill="#9A749D"/>
<rect x="26.0859" y="17.8899" width="1.72266" height="3.77953" fill="#9A749D"/>
<rect x="14.5195" y="21.6694" width="1.47656" height="5.29134" fill="#9A749D"/>
<rect x="33.4688" y="10.8347" width="4.92188" height="1.76378" fill="#9A749D"/>
<rect x="15.9961" y="14.3623" width="10.0898" height="1.76378" fill="#9A749D"/>
<rect x="26.0859" y="9.07104" width="5.90625" height="1.76378" fill="#9A749D"/>
<rect x="39.8672" y="21.4175" width="1.47656" height="4.0315" fill="#525F73"/>
<rect x="36.668" y="17.8899" width="1.72266" height="1.76378" fill="#525F73"/>
<rect x="24.3633" y="19.9055" width="1.72266" height="1.76378" fill="#525F73"/>
<rect x="41.3438" y="2.01587" width="1.47656" height="5.03937" fill="#525F73"/>
<rect x="38.3906" y="9.07104" width="1.47656" height="1.76378" fill="#525F73"/>
<rect x="15.9961" y="7.05518" width="5.41406" height="1.76378" fill="#525F73"/>
<rect x="31.9922" y="55.6851" width="1.72266" height="1.76378" fill="#F68836"/>
<rect x="31.9922" y="14.3623" width="1.47656" height="1.76378" fill="#F68836"/>
<rect x="50.4492" y="16.126" width="2.95312" height="1.76378" fill="#F7A64C"/>
<rect x="26.0859" y="16.126" width="4.18359" height="1.76378" fill="#F7A64C"/>
<rect x="33.4688" y="14.3623" width="1.72266" height="1.76378" fill="#F7A64C"/>
<rect x="29.7773" y="12.5984" width="5.41406" height="1.76378" fill="#F7A64C"/>
<rect x="33.7148" y="53.9211" width="1.47656" height="3.52756" fill="#FEBC41"/>
<rect x="30.2695" y="16.126" width="3.19922" height="1.76378" fill="#FEBC41"/>
<rect x="27.8086" y="14.3623" width="4.18359" height="1.76378" fill="#FEBC41"/>
<rect x="26.0859" y="12.5984" width="3.69141" height="1.76378" fill="#FEBC41"/>
<rect x="27.5625" y="10.8347" width="5.90625" height="1.76378" fill="#FEBC41"/>
<rect x="30.7617" y="53.9211" width="1.23047" height="1.76378" fill="#F7A875"/>
<rect x="7.875" y="23.6851" width="1.47656" height="1.76378" fill="#F7A875"/>
<rect x="29.0391" y="53.9211" width="1.72266" height="3.52756" fill="#FCFCF2"/>
<rect x="30.7617" y="52.1575" width="7.62891" height="1.76378" fill="#FCFCF2"/>
<rect x="30.7617" y="57.4487" width="1.23047" height="1.76378" fill="#FCFCF2"/>
<rect x="31.9922" y="53.9211" width="1.72266" height="1.76378" fill="#FCFCF2"/>
<rect x="35.1914" y="53.9211" width="1.72266" height="1.51181" fill="#FCFCF2"/>
<rect x="33.4688" y="50.3938" width="1.72266" height="1.76378" fill="#FCFCF2"/>
<rect x="26.0859" y="14.3623" width="1.72266" height="1.76378" fill="#FC863C"/>
<rect x="45.7734" y="23.6851" width="10.582" height="1.51181" fill="#1A1E36"/>
<rect x="47.25" y="19.6536" width="1.47656" height="4.0315" fill="#1A1E36"/>
<rect x="50.4492" y="25.1968" width="5.90625" height="1.76378" fill="#1A1E36"/>
<rect x="56.3555" y="19.6536" width="1.72266" height="1.76378" fill="#1A1E36"/>
<rect x="54.8789" y="17.8896" width="6.39844" height="1.76378" fill="#1A1E36"/>
<rect x="54.8789" y="21.4172" width="1.47656" height="2.26772" fill="#1A1E36"/>
</svg>
