<svg width="64" height="64" viewBox="0 0 64 64" fill="none" xmlns="http://www.w3.org/2000/svg">
<path d="M19.7826 7.67275L22.3401 7.6726V4.60356H25.0108V2.55753H30.0127V0H32.5703V2.55753H35.2409V0H37.7985V2.55753H44.9595V5.11506H47.5171V24.041H44.8464V29.156H42.2889V32.2249L39.7313 32.2249V34.7824L25.0108 34.7826V32.2251H22.3402L22.3401 29.156H19.7826V7.67275Z" fill="#F8F478"/>
<rect x="19.7826" y="7.67261" width="2.55753" height="21.4833" fill="black"/>
<rect x="22.3401" y="29.156" width="2.55753" height="3.06904" fill="black"/>
<path d="M24.8977 32.2249H39.7314V34.7824H24.8977V32.2249Z" fill="black"/>
<rect x="39.7314" y="29.156" width="2.55753" height="3.06904" fill="black"/>
<rect x="44.8464" y="5.11499" width="2.55753" height="18.9257" fill="black"/>
<rect x="42.2889" y="26.0869" width="2.55753" height="3.06904" fill="black"/>
<path d="M37.6853 2.55762H44.8464V5.11515H40.2429V8.69569H37.6853V13.2993H35.1278V8.69569H37.6853V5.11515V2.55762Z" fill="black"/>
<rect x="35.1278" width="2.55753" height="2.55753" fill="black"/>
<rect x="30.0127" width="2.55753" height="2.55753" fill="black"/>
<rect x="22.3401" y="4.60352" width="2.55753" height="3.06904" fill="black"/>
<path d="M24.8977 2.55762H30.0128V4.60364V8.69569H32.5703V13.2993H30.0128V8.69569H27.4552V4.60364H24.8977V2.55762Z" fill="black"/>
<path d="M24.8977 4.60352H27.4552V8.69557H30.0128V13.2991H27.4552H24.8977V4.60352Z" fill="#FFFDC8"/>
<rect x="24.8977" y="13.2991" width="2.55753" height="10.7416" fill="#FFFAE0"/>
<rect x="30.0127" y="13.2991" width="2.55753" height="6.64958" fill="#FFFDC8"/>
<rect x="30.0127" y="19.9487" width="2.55753" height="4.09205" fill="#FFD584"/>
<rect x="35.1278" y="13.2991" width="2.55753" height="3.58054" fill="#FFFDC8"/>
<path d="M37.6853 8.69553H40.2428V5.11499H42.8004V8.69553H40.7543V11.2531H37.6853V8.69553Z" fill="#FFFDC8"/>
<rect x="30.0127" y="2.55762" width="2.55753" height="2.55753" fill="#FFFDC8"/>
<path d="M32.5702 2.55762H35.1278V5.11515H37.6853V8.69569H35.1278V13.2993H32.5702V8.69569H30.0127V5.11515H32.5702V2.55762Z" fill="#FDDF73"/>
<rect x="32.5702" y="13.2991" width="2.55753" height="3.58054" fill="#FFD336"/>
<path d="M27.4552 26.5982H30.0127V29.1557H32.5703V26.5982H38.7083V21.9946H42.8004V5.11499H44.8464V26.0867H42.2889V29.1557H39.7314V32.2248H30.0127H27.4552V26.5982Z" fill="#FDDF73"/>
<path d="M31.609 33.7392H35.435V48.6957H37.1742V44.8696H39.2611V43.1305H41.0003V39.3044H43.0872V37.5652H44.8263V35.4783H46.9133V33.7392H48.6524V32H55.9568V37.5652H53.8698V41.0435H52.1307V43.1305H50.3916V50.4348H48.6524V52.1739H46.9133V56H45.1742V58.087H43.0872V59.8261H41.0003V61.9131H37.1742V64H35.435H31.609V61.9131L25.6956 61.913V59.8261H22.913V58.0869H20.8261V56H18.7391V50.4348H16.6522V48.6956H14.5652V43.1304H12.4783V41.3913H10.7391V39.3043H9V35.4783H18.3913V37.5652H20.8261V39.3043H23.6087V41.3913H25.3478V43.1304H27.4348V44.8696H29.5217V46.6087H31.609V33.7392Z" fill="#8FDE8F"/>
<rect x="9" y="35.4783" width="1.73913" height="3.82609" fill="black"/>
<rect x="10.7391" y="39.3044" width="1.73913" height="2.08696" fill="black"/>
<rect x="12.4783" y="41.3914" width="2.08696" height="1.73913" fill="black"/>
<rect x="16.6522" y="46.6086" width="2.08696" height="3.82609" fill="black"/>
<rect x="18.7391" y="50.4348" width="2.08696" height="5.56521" fill="black"/>
<rect x="20.826" y="56" width="2.08696" height="2.08696" fill="black"/>
<rect x="22.9131" y="58.0869" width="2.78261" height="1.73913" fill="black"/>
<rect x="25.6957" y="59.8262" width="5.91304" height="2.08696" fill="black"/>
<rect x="31.6086" y="61.9131" width="5.56521" height="2.08696" fill="black"/>
<rect x="37.174" y="59.8262" width="3.82609" height="2.08696" fill="black"/>
<rect x="41" y="58.0869" width="2.08696" height="1.73913" fill="black"/>
<rect x="43.0869" y="56" width="2.08696" height="2.08696" fill="black"/>
<rect x="46.9131" y="50.4348" width="1.73913" height="1.73913" fill="black"/>
<rect x="50.3912" y="41.3914" width="1.73913" height="1.73913" fill="black"/>
<rect x="52.1304" y="37.5652" width="1.73913" height="3.82609" fill="black"/>
<path d="M48.6521 32H55.9564V37.5652H53.8695V33.7391H48.6521V32Z" fill="black"/>
<rect x="45.174" y="52.1738" width="1.73913" height="3.82609" fill="black"/>
<rect x="48.6521" y="43.1304" width="1.73913" height="7.30434" fill="black"/>
<rect x="14.5652" y="43.1304" width="2.08696" height="5.56521" fill="black"/>
<rect x="46.9131" y="33.739" width="1.73913" height="1.73913" fill="black"/>
<rect x="44.826" y="35.4783" width="2.08696" height="2.08696" fill="black"/>
<rect x="41" y="39.3044" width="2.08696" height="2.08696" fill="black"/>
<rect x="18.3914" y="37.5652" width="2.43478" height="1.73913" fill="black"/>
<rect x="12.4783" y="35.4783" width="5.91304" height="2.08696" fill="black"/>
<rect x="20.826" y="39.3044" width="2.78261" height="2.08696" fill="black"/>
<rect x="23.6086" y="41.3914" width="1.73913" height="1.73913" fill="black"/>
<rect x="31.6086" y="33.739" width="3.82609" height="2.08696" fill="black"/>
<rect x="25.3478" y="43.1304" width="2.08696" height="1.73913" fill="black"/>
<rect x="39.2609" y="43.1304" width="1.73913" height="1.73913" fill="black"/>
<rect x="27.4348" y="44.8696" width="2.08696" height="1.73913" fill="black"/>
<rect x="35.4348" y="58.0869" width="1.73913" height="1.73913" fill="black"/>
<rect x="29.5217" y="46.6086" width="2.08696" height="3.82609" fill="black"/>
<rect x="31.6086" y="50.4348" width="1.73913" height="9.3913" fill="black"/>
<rect x="33.3478" y="59.8262" width="2.08696" height="2.08696" fill="black"/>
<rect x="37.174" y="44.8696" width="2.08696" height="3.82609" fill="black"/>
<rect x="35.4348" y="48.6956" width="1.73913" height="7.30434" fill="black"/>
<rect x="43.0869" y="37.5652" width="1.73913" height="1.73913" fill="black"/>
<path d="M31.6086 35.8262H35.4347V37.5653V43.1305H33.3478V37.5653H31.6086V35.8262Z" fill="#206B74"/>
<path d="M20.826 52.174H22.913V54.2609H26.0434V56.0001H29.8695V54.2609H31.6087V59.8262H33.3478V52.174H35.4347V56.0001H37.1739H39.2608V52.174H43.0869V48.6957H45.1739V44.8696H46.5652V43.1305H48.6521V39.4783H50.3913V37.5653H52.1304V35.8262H53.8695V37.5653H52.1304V41.3914H50.3913V43.1305H48.6521V50.4349H46.913V52.174H45.1739V56.0001H43.0869V58.087H41V59.8262H37.1739V58.087H35.4347V59.8262H37.1739V61.9131H35.4347V59.8262H33.3478V61.9131H31.6087V59.8262H25.6956V58.087H22.913V56.0001H20.826V52.174Z" fill="#206B74"/>
<rect x="33.3478" y="46.6086" width="2.08696" height="3.82609" fill="#206B74"/>
<rect x="31.6086" y="46.6086" width="1.73913" height="3.82609" fill="#A2D2A6"/>
<rect x="12.4783" y="37.5652" width="2.08696" height="1.73913" fill="#F7EBE0"/>
<rect x="14.5652" y="39.3044" width="2.08696" height="2.08696" fill="#F7EBE0"/>
<path d="M16.6522 41.3914H19.7827V43.1305V44.8696H18.0435V43.1305H16.6522V41.3914Z" fill="#F7EBE0"/>
<path d="M18.7391 48.6956H21.8696V50.4347H24.3044V48.6956H25.6957V46.6086H29.5217V48.6956V50.4347H31.6087V54.2608H29.8696V55.9999H26.0435V54.2608H22.913V52.1739H20.8261V50.4347H18.7391V48.6956Z" fill="#5ABD8E"/>
<rect x="33.3478" y="50.4348" width="2.08696" height="1.73913" fill="#44B07B"/>
<rect x="37.174" y="52.5217" width="2.08696" height="1.73913" fill="#54BE8E"/>
<rect x="41" y="50.0869" width="2.08696" height="2.08696" fill="#51B982"/>
<rect x="43.0869" y="46.6086" width="2.08696" height="2.08696" fill="#51B982"/>
<rect x="39.2609" y="46.6086" width="2.08696" height="2.08696" fill="#51B982"/>
<rect x="41" y="41.3914" width="2.08696" height="1.73913" fill="#5BBE8A"/>
<rect x="41" y="43.1304" width="2.08696" height="1.73913" fill="#FDE6C5"/>
<rect x="46.9131" y="35.4783" width="1.73913" height="2.08696" fill="#E0EFAC"/>
<rect x="50.3912" y="33.739" width="1.73913" height="2.08696" fill="#E0EFAC"/>
<rect x="52.1304" y="33.739" width="1.73913" height="2.08696" fill="#4BB78D"/>
<rect x="50.3912" y="35.8262" width="1.73913" height="1.73913" fill="#4BB78D"/>
<rect x="46.5652" y="39.3044" width="2.08696" height="3.82609" fill="#53B188"/>
<rect x="37.174" y="54.2607" width="2.08696" height="1.73913" fill="#44A978"/>
<rect x="10.7391" y="35.4783" width="1.73913" height="2.08696" fill="#5DBE90"/>
<rect x="10.7391" y="37.5652" width="1.73913" height="1.73913" fill="#62BC88"/>
<rect x="12.4783" y="39.3044" width="2.08696" height="2.08696" fill="#62BC88"/>
<rect x="16.6522" y="43.1304" width="1.3913" height="1.73913" fill="#62BC88"/>
<rect x="31.6086" y="37.5652" width="1.73913" height="9.04347" fill="#5DBD98"/>
<rect x="33.3478" y="43.1304" width="2.08696" height="3.47826" fill="#4EAD83"/>
</svg>
